# OBJ generated by ONSHAPE BY PTC INC, 1.217 Units = meters
mtllib ARCADA001 - Part 1 (5).mtl
g Part 1
v 0.023 0.014 -0.0135 
v 0.023 0 -0.0135 
v -0.023 0 -0.0135 
v -0.023 0.014 -0.0135 
v -0.023 0.014 0.0135 
v 0.023 0.014 0.0135 
v -0.023 0 0.0135 
v 0.023 0 0.0135 
v -0.023 0.004 0.0065 
v -0.023 0.004 -0.0065 
v -0.023 0 -0.0065 
v -0.023 0 0.0065 
v -0.0303577 0.004 0.00521667 
v -0.0303577 0 0.00521667 
v -0.0303577 0 -0.00521667 
v -0.0303577 0.004 -0.00521667 
v -0.0305149 0.004 0.00518047 
v -0.0305149 0 0.00518047 
v -0.0306672 0.004 0.00512761 
v -0.0306672 0 0.00512761 
v -0.030813 0.004 0.00505871 
v -0.030813 0 0.00505871 
v -0.0309505 0.004 0.00497455 
v -0.0309505 0 0.00497455 
v -0.0310782 0.004 0.00487612 
v -0.0310782 0 0.00487612 
v -0.0311946 0.004 0.00476454 
v -0.0311946 0 0.00476454 
v -0.0312984 0.004 0.00464112 
v -0.0312984 0 0.00464112 
v -0.0313883 0.004 0.00450727 
v -0.0313883 0 0.00450727 
v -0.0314633 0.004 0.00436455 
v -0.0314633 0 0.00436455 
v -0.0315226 0.004 0.00421459 
v -0.0315226 0 0.00421459 
v -0.0315654 0.004 0.00405914 
v -0.0315654 0 0.00405914 
v -0.0315913 0.004 0.00389999 
v -0.0315913 0 0.00389999 
v -0.0316 0.004 0.00373898 
v -0.0316 0 0.00373898 
v -0.0316 0.004 0.0035 
v -0.0316 0 0.0035 
v -0.0301 0.004 0.002 
v -0.0301 0 0.002 
v -0.0302568 0 0.00200822 
v -0.0302568 0.004 0.00200822 
v -0.0304119 0 0.00203278 
v -0.0304119 0.004 0.00203278 
v -0.0305635 0 0.00207342 
v -0.0305635 0.004 0.00207342 
v -0.0307101 0 0.00212968 
v -0.0307101 0.004 0.00212968 
v -0.03085 0 0.00220096 
v -0.03085 0.004 0.00220096 
v -0.0309817 0 0.00228647 
v -0.0309817 0.004 0.00228647 
v -0.0311037 0 0.00238528 
v -0.0311037 0.004 0.00238528 
v -0.0312147 0 0.0024963 
v -0.0312147 0.004 0.0024963 
v -0.0313135 0 0.00261832 
v -0.0313135 0.004 0.00261832 
v -0.031399 0 0.00275 
v -0.031399 0.004 0.00275 
v -0.0314703 0 0.0028899 
v -0.0314703 0.004 0.0028899 
v -0.0315266 0 0.00303647 
v -0.0315266 0.004 0.00303647 
v -0.0315672 0 0.00318813 
v -0.0315672 0.004 0.00318813 
v -0.0315918 0 0.00334321 
v -0.0315918 0.004 0.00334321 
v -0.02625 0.004 0.002 
v -0.02625 0 0.002 
v -0.0260338 0 0.00198828 
v -0.0258201 0 0.00195324 
v -0.0260338 0.004 0.00198828 
v -0.0256114 0 0.00189531 
v -0.0258201 0.004 0.00195324 
v -0.0254102 0 0.00181515 
v -0.0256114 0.004 0.00189531 
v -0.0252189 0 0.00171371 
v -0.0254102 0.004 0.00181515 
v -0.0250397 0 0.00159219 
v -0.0252189 0.004 0.00171371 
v -0.0248746 0 0.00145199 
v -0.0250397 0.004 0.00159219 
v -0.0247257 0 0.00129477 
v -0.0248746 0.004 0.00145199 
v -0.0245946 0 0.00112237 
v -0.0247257 0.004 0.00129477 
v -0.024483 0 0.000936817 
v -0.0245946 0.004 0.00112237 
v -0.024392 0 0.000740276 
v -0.024483 0.004 0.000936817 
v -0.0243229 0 0.000535057 
v -0.024392 0.004 0.000740276 
v -0.0242763 0 0.000323564 
v -0.0243229 0.004 0.000535057 
v -0.0242529 0 0.000108278 
v -0.0242763 0.004 0.000323564 
v -0.0242529 0 -0.000108278 
v -0.0242529 0.004 0.000108278 
v -0.0242763 0 -0.000323564 
v -0.0242529 0.004 -0.000108278 
v -0.0243229 0 -0.000535057 
v -0.0242763 0.004 -0.000323564 
v -0.024392 0 -0.000740276 
v -0.0243229 0.004 -0.000535057 
v -0.024483 0 -0.000936817 
v -0.024392 0.004 -0.000740276 
v -0.0245946 0 -0.00112237 
v -0.024483 0.004 -0.000936817 
v -0.0247257 0 -0.00129477 
v -0.0245946 0.004 -0.00112237 
v -0.0248746 0 -0.00145199 
v -0.0247257 0.004 -0.00129477 
v -0.0250397 0 -0.00159219 
v -0.0248746 0.004 -0.00145199 
v -0.0252189 0 -0.00171371 
v -0.0250397 0.004 -0.00159219 
v -0.0254102 0 -0.00181515 
v -0.0252189 0.004 -0.00171371 
v -0.0256114 0 -0.00189531 
v -0.0254102 0.004 -0.00181515 
v -0.0258201 0 -0.00195324 
v -0.0256114 0.004 -0.00189531 
v -0.0260338 0 -0.00198828 
v -0.0258201 0.004 -0.00195324 
v -0.02625 0 -0.002 
v -0.0260338 0.004 -0.00198828 
v -0.02625 0.004 -0.002 
v -0.0301 0.004 -0.002 
v -0.0301 0 -0.002 
v -0.0309505 0.004 -0.00497455 
v -0.0310782 0.004 -0.00487612 
v -0.030813 0.004 -0.00505871 
v -0.0305149 0.004 -0.00518047 
v -0.0306672 0.004 -0.00512761 
v -0.0309817 0.004 -0.00228647 
v -0.0304119 0.004 -0.00203278 
v -0.0302568 0.004 -0.00200822 
v -0.0313883 0.004 -0.00450727 
v -0.0314633 0.004 -0.00436455 
v -0.0311946 0.004 -0.00476454 
v -0.0312984 0.004 -0.00464112 
v -0.0305635 0.004 -0.00207342 
v -0.03085 0.004 -0.00220096 
v -0.0312147 0.004 -0.0024963 
v -0.0311037 0.004 -0.00238528 
v -0.0307101 0.004 -0.00212968 
v -0.0313135 0.004 -0.00261832 
v -0.0315226 0.004 -0.00421459 
v -0.0315654 0.004 -0.00405914 
v -0.0314703 0.004 -0.0028899 
v -0.031399 0.004 -0.00275 
v -0.0315672 0.004 -0.00318813 
v -0.0315266 0.004 -0.00303647 
v -0.0316 0.004 -0.0035 
v -0.0315918 0.004 -0.00334321 
v -0.0315913 0.004 -0.00389999 
v -0.0316 0.004 -0.00373898 
v -0.0316 0 -0.00373898 
v -0.0316 0 -0.0035 
v -0.0302568 0 -0.00200822 
v -0.0304119 0 -0.00203278 
v -0.0305635 0 -0.00207342 
v -0.0307101 0 -0.00212968 
v -0.03085 0 -0.00220096 
v -0.0309817 0 -0.00228647 
v -0.0311037 0 -0.00238528 
v -0.0312147 0 -0.0024963 
v -0.0313135 0 -0.00261832 
v -0.031399 0 -0.00275 
v -0.0314703 0 -0.0028899 
v -0.0315266 0 -0.00303647 
v -0.0315672 0 -0.00318813 
v -0.0315918 0 -0.00334321 
v -0.0305149 0 -0.00518047 
v -0.0306672 0 -0.00512761 
v -0.030813 0 -0.00505871 
v -0.0309505 0 -0.00497455 
v -0.0310782 0 -0.00487612 
v -0.0311946 0 -0.00476454 
v -0.0312984 0 -0.00464112 
v -0.0313883 0 -0.00450727 
v -0.0314633 0 -0.00436455 
v -0.0315226 0 -0.00421459 
v -0.0315654 0 -0.00405914 
v -0.0315913 0 -0.00389999 
v 0.023 0.004 -0.0065 
v 0.023 0.004 0.0065 
v 0.023 0 0.0065 
v 0.023 0 -0.0065 
v 0.0303577 0.004 -0.00521667 
v 0.0303577 0 -0.00521667 
v 0.0303577 0 0.00521667 
v 0.0303577 0.004 0.00521667 
v 0.0316 0 0.00373898 
v 0.0316 0.004 0.00373898 
v 0.0315913 0.004 0.00389999 
v 0.0315913 0 0.00389999 
v 0.0315654 0.004 0.00405914 
v 0.0315654 0 0.00405914 
v 0.0315226 0.004 0.00421459 
v 0.0315226 0 0.00421459 
v 0.0314633 0.004 0.00436455 
v 0.0314633 0 0.00436455 
v 0.0313883 0.004 0.00450727 
v 0.0313883 0 0.00450727 
v 0.0312984 0.004 0.00464112 
v 0.0312984 0 0.00464112 
v 0.0311946 0.004 0.00476454 
v 0.0311946 0 0.00476454 
v 0.0310782 0.004 0.00487612 
v 0.0310782 0 0.00487612 
v 0.0309505 0.004 0.00497455 
v 0.0309505 0 0.00497455 
v 0.030813 0.004 0.00505871 
v 0.030813 0 0.00505871 
v 0.0306672 0.004 0.00512761 
v 0.0306672 0 0.00512761 
v 0.0305149 0.004 0.00518047 
v 0.0305149 0 0.00518047 
v 0.0316 0 0.0035 
v 0.0316 0.004 0.0035 
v 0.0315918 0 0.00334321 
v 0.0315918 0.004 0.00334321 
v 0.0315672 0 0.00318813 
v 0.0315672 0.004 0.00318813 
v 0.0315266 0 0.00303647 
v 0.0315266 0.004 0.00303647 
v 0.0314703 0 0.0028899 
v 0.0314703 0.004 0.0028899 
v 0.031399 0 0.00275 
v 0.031399 0.004 0.00275 
v 0.0313135 0 0.00261832 
v 0.0313135 0.004 0.00261832 
v 0.0312147 0 0.0024963 
v 0.0312147 0.004 0.0024963 
v 0.0311037 0 0.00238528 
v 0.0311037 0.004 0.00238528 
v 0.0309817 0 0.00228647 
v 0.0309817 0.004 0.00228647 
v 0.03085 0 0.00220096 
v 0.03085 0.004 0.00220096 
v 0.0307101 0 0.00212968 
v 0.0307101 0.004 0.00212968 
v 0.0305635 0 0.00207342 
v 0.0305635 0.004 0.00207342 
v 0.0304119 0 0.00203278 
v 0.0304119 0.004 0.00203278 
v 0.0302568 0 0.00200822 
v 0.0302568 0.004 0.00200822 
v 0.0301 0 0.002 
v 0.0301 0.004 0.002 
v 0.02625 0 0.002 
v 0.02625 0.004 0.002 
v 0.0260338 0 -0.00198828 
v 0.02625 0 -0.002 
v 0.02625 0.004 -0.002 
v 0.0258201 0 -0.00195324 
v 0.0260338 0.004 -0.00198828 
v 0.0256114 0 -0.00189531 
v 0.0258201 0.004 -0.00195324 
v 0.0254102 0 -0.00181515 
v 0.0256114 0.004 -0.00189531 
v 0.0252189 0 -0.00171371 
v 0.0254102 0.004 -0.00181515 
v 0.0250397 0 -0.00159219 
v 0.0252189 0.004 -0.00171371 
v 0.0248746 0 -0.00145199 
v 0.0250397 0.004 -0.00159219 
v 0.0247257 0 -0.00129477 
v 0.0248746 0.004 -0.00145199 
v 0.0245946 0 -0.00112237 
v 0.0247257 0.004 -0.00129477 
v 0.024483 0 -0.000936817 
v 0.0245946 0.004 -0.00112237 
v 0.024392 0 -0.000740276 
v 0.024483 0.004 -0.000936817 
v 0.0243229 0 -0.000535057 
v 0.024392 0.004 -0.000740276 
v 0.0242763 0 -0.000323564 
v 0.0243229 0.004 -0.000535057 
v 0.0242529 0 -0.000108278 
v 0.0242763 0.004 -0.000323564 
v 0.0242529 0 0.000108278 
v 0.0242529 0.004 -0.000108278 
v 0.0242763 0 0.000323564 
v 0.0242529 0.004 0.000108278 
v 0.0243229 0 0.000535057 
v 0.0242763 0.004 0.000323564 
v 0.024392 0 0.000740276 
v 0.0243229 0.004 0.000535057 
v 0.024483 0 0.000936817 
v 0.024392 0.004 0.000740276 
v 0.0245946 0 0.00112237 
v 0.024483 0.004 0.000936817 
v 0.0247257 0 0.00129477 
v 0.0245946 0.004 0.00112237 
v 0.0248746 0 0.00145199 
v 0.0247257 0.004 0.00129477 
v 0.0250397 0 0.00159219 
v 0.0248746 0.004 0.00145199 
v 0.0252189 0 0.00171371 
v 0.0250397 0.004 0.00159219 
v 0.0254102 0 0.00181515 
v 0.0252189 0.004 0.00171371 
v 0.0256114 0 0.00189531 
v 0.0254102 0.004 0.00181515 
v 0.0258201 0 0.00195324 
v 0.0256114 0.004 0.00189531 
v 0.0260338 0 0.00198828 
v 0.0258201 0.004 0.00195324 
v 0.0260338 0.004 0.00198828 
v 0.0301 0 -0.002 
v 0.0301 0.004 -0.002 
v 0.0309505 0 -0.00497455 
v 0.0310782 0 -0.00487612 
v 0.030813 0 -0.00505871 
v 0.0311946 0 -0.00476454 
v 0.0305149 0 -0.00518047 
v 0.0306672 0 -0.00512761 
v 0.0312984 0 -0.00464112 
v 0.0305635 0 -0.00207342 
v 0.0304119 0 -0.00203278 
v 0.03085 0 -0.00220096 
v 0.0307101 0 -0.00212968 
v 0.0311037 0 -0.00238528 
v 0.0309817 0 -0.00228647 
v 0.0313135 0 -0.00261832 
v 0.0312147 0 -0.0024963 
v 0.0313883 0 -0.00450727 
v 0.0314633 0 -0.00436455 
v 0.0315226 0 -0.00421459 
v 0.0315654 0 -0.00405914 
v 0.0314703 0 -0.0028899 
v 0.031399 0 -0.00275 
v 0.0315672 0 -0.00318813 
v 0.0315266 0 -0.00303647 
v 0.0316 0 -0.0035 
v 0.0315918 0 -0.00334321 
v 0.0315913 0 -0.00389999 
v 0.0316 0 -0.00373898 
v 0.0302568 0 -0.00200822 
v 0.030813 0.004 -0.00505871 
v 0.0306672 0.004 -0.00512761 
v 0.0311946 0.004 -0.00476454 
v 0.0310782 0.004 -0.00487612 
v 0.0313883 0.004 -0.00450727 
v 0.0312984 0.004 -0.00464112 
v 0.0315226 0.004 -0.00421459 
v 0.0314633 0.004 -0.00436455 
v 0.0315913 0.004 -0.00389999 
v 0.0315654 0.004 -0.00405914 
v 0.0311037 0.004 -0.00238528 
v 0.0312147 0.004 -0.0024963 
v 0.03085 0.004 -0.00220096 
v 0.0309817 0.004 -0.00228647 
v 0.0305635 0.004 -0.00207342 
v 0.0307101 0.004 -0.00212968 
v 0.0302568 0.004 -0.00200822 
v 0.0304119 0.004 -0.00203278 
v 0.0305149 0.004 -0.00518047 
v 0.0309505 0.004 -0.00497455 
v 0.0316 0.004 -0.00373898 
v 0.0315672 0.004 -0.00318813 
v 0.0315918 0.004 -0.00334321 
v 0.0314703 0.004 -0.0028899 
v 0.0315266 0.004 -0.00303647 
v 0.0313135 0.004 -0.00261832 
v 0.031399 0.004 -0.00275 
v 0.0316 0.004 -0.0035 
vn 0 0 -1 
vn 0 1 0 
vn 0 0 1 
vn -1 0 0 
vn -0.171825 0 0.985128 
vn -0.171825 0 -0.985128 
vn -0.276576 0 0.960992 
vn -0.378131 0 0.925752 
vn -0.475316 0 0.879815 
vn -0.567009 0 0.823711 
vn -0.652151 0 0.758089 
vn -0.729756 0 0.683707 
vn -0.798929 0 0.601425 
vn -0.85887 0 0.512193 
vn -0.908887 0 0.417043 
vn -0.948401 0 0.317073 
vn -0.976956 0 0.21344 
vn -0.994222 0 0.10734 
vn -1 0 2.44929e-16 
vn 6.12323e-17 0 -1 
vn -0.104528 0 -0.994522 
vn -0.207912 0 -0.978148 
vn -0.309017 0 -0.951057 
vn -0.406737 0 -0.913545 
vn -0.5 0 -0.866025 
vn -0.587785 0 -0.809017 
vn -0.669131 0 -0.743145 
vn -0.743145 0 -0.669131 
vn -0.809017 0 -0.587785 
vn -0.866025 0 -0.5 
vn -0.913545 0 -0.406737 
vn -0.951057 0 -0.309017 
vn -0.978148 0 -0.207912 
vn -0.994522 0 -0.104528 
vn -1 0 -1.22465e-16 
vn -4.86371e-16 0 -1 
vn -0.108119 0 -0.994138 
vn -0.21497 0 -0.976621 
vn -0.319302 0 -0.947653 
vn -0.419889 0 -0.907575 
vn -0.515554 0 -0.856857 
vn -0.605174 0 -0.796093 
vn -0.687699 0 -0.725995 
vn -0.762162 0 -0.647386 
vn -0.827689 0 -0.561187 
vn -0.883512 0 -0.468408 
vn -0.928977 0 -0.370138 
vn -0.96355 0 -0.267528 
vn -0.986827 0 -0.161782 
vn -0.998533 0 -0.0541389 
vn -0.998533 0 0.0541389 
vn -0.986827 0 0.161782 
vn -0.96355 0 0.267528 
vn -0.928977 0 0.370138 
vn -0.883512 0 0.468408 
vn -0.827689 0 0.561187 
vn -0.762162 0 0.647386 
vn -0.687699 0 0.725995 
vn -0.605174 0 0.796093 
vn -0.515554 0 0.856857 
vn -0.419889 0 0.907575 
vn -0.319302 0 0.947653 
vn -0.21497 0 0.976621 
vn -0.108119 0 0.994138 
vn 6.12323e-17 0 1 
vn 0 1 0 
vn -1 0 0 
vn 1.83697e-16 0 1 
vn -0.104528 0 0.994522 
vn -0.207912 0 0.978148 
vn -0.309017 0 0.951057 
vn -0.406737 0 0.913545 
vn -0.5 0 0.866025 
vn -0.587785 0 0.809017 
vn -0.669131 0 0.743145 
vn -0.743145 0 0.669131 
vn -0.809017 0 0.587785 
vn -0.866025 0 0.5 
vn -0.913545 0 0.406737 
vn -0.951057 0 0.309017 
vn -0.978148 0 0.207912 
vn -0.994522 0 0.104528 
vn -1 0 2.44929e-16 
vn -0.171825 0 -0.985128 
vn -0.276576 0 -0.960992 
vn -0.378131 0 -0.925752 
vn -0.475316 0 -0.879815 
vn -0.567009 0 -0.823711 
vn -0.652151 0 -0.758089 
vn -0.729756 0 -0.683707 
vn -0.798929 0 -0.601425 
vn -0.85887 0 -0.512193 
vn -0.908887 0 -0.417043 
vn -0.948401 0 -0.317073 
vn -0.976956 0 -0.21344 
vn -0.994222 0 -0.10734 
vn -1 0 -1.22465e-16 
vn 1 0 0 
vn 0.171825 0 -0.985128 
vn 0.171825 0 0.985128 
vn 1 0 -1.22465e-16 
vn 0.994222 0 0.10734 
vn 0.976956 0 0.21344 
vn 0.948401 0 0.317073 
vn 0.908887 0 0.417043 
vn 0.85887 0 0.512193 
vn 0.798929 0 0.601425 
vn 0.729756 0 0.683707 
vn 0.652151 0 0.758089 
vn 0.567009 0 0.823711 
vn 0.475316 0 0.879815 
vn 0.378131 0 0.925752 
vn 0.276576 0 0.960992 
vn 0.171825 0 0.985128 
vn 1 0 0 
vn 0.994522 0 -0.104528 
vn 0.978148 0 -0.207912 
vn 0.951057 0 -0.309017 
vn 0.913545 0 -0.406737 
vn 0.866025 0 -0.5 
vn 0.809017 0 -0.587785 
vn 0.743145 0 -0.669131 
vn 0.669131 0 -0.743145 
vn 0.587785 0 -0.809017 
vn 0.5 0 -0.866025 
vn 0.406737 0 -0.913545 
vn 0.309017 0 -0.951057 
vn 0.207912 0 -0.978148 
vn 0.104528 0 -0.994522 
vn 6.12323e-17 0 -1 
vn 0.108119 0 0.994138 
vn 3.06162e-16 0 1 
vn 0.21497 0 0.976621 
vn 0.108119 0 0.994138 
vn 0.319302 0 0.947653 
vn 0.21497 0 0.976621 
vn 0.419889 0 0.907575 
vn 0.319302 0 0.947653 
vn 0.515554 0 0.856857 
vn 0.419889 0 0.907575 
vn 0.605174 0 0.796093 
vn 0.515554 0 0.856857 
vn 0.687699 0 0.725995 
vn 0.605174 0 0.796093 
vn 0.762162 0 0.647386 
vn 0.687699 0 0.725995 
vn 0.827689 0 0.561187 
vn 0.762162 0 0.647386 
vn 0.883512 0 0.468408 
vn 0.827689 0 0.561187 
vn 0.928977 0 0.370138 
vn 0.883512 0 0.468408 
vn 0.96355 0 0.267528 
vn 0.928977 0 0.370138 
vn 0.986827 0 0.161782 
vn 0.96355 0 0.267528 
vn 0.998533 0 0.0541389 
vn 0.986827 0 0.161782 
vn 0.998533 0 -0.0541389 
vn 0.998533 0 0.0541389 
vn 0.986827 0 -0.161782 
vn 0.998533 0 -0.0541389 
vn 0.96355 0 -0.267528 
vn 0.986827 0 -0.161782 
vn 0.928977 0 -0.370138 
vn 0.96355 0 -0.267528 
vn 0.883512 0 -0.468408 
vn 0.928977 0 -0.370138 
vn 0.827689 0 -0.561187 
vn 0.883512 0 -0.468408 
vn 0.762162 0 -0.647386 
vn 0.827689 0 -0.561187 
vn 0.687699 0 -0.725995 
vn 0.762162 0 -0.647386 
vn 0.605174 0 -0.796093 
vn 0.687699 0 -0.725995 
vn 0.515554 0 -0.856857 
vn 0.605174 0 -0.796093 
vn 0.419889 0 -0.907575 
vn 0.515554 0 -0.856857 
vn 0.319302 0 -0.947653 
vn 0.419889 0 -0.907575 
vn 0.21497 0 -0.976621 
vn 0.319302 0 -0.947653 
vn 0.108119 0 -0.994138 
vn 0.21497 0 -0.976621 
vn -1.83697e-16 0 -1 
vn 0.108119 0 -0.994138 
vn 0 0 1 
vn 0 -1 0 
vn 0 1 0 
vn 1 0 0 
vn 0.994522 0 0.104528 
vn 0.978148 0 0.207912 
vn 0.951057 0 0.309017 
vn 0.913545 0 0.406737 
vn 0.866025 0 0.5 
vn 0.809017 0 0.587785 
vn 0.743145 0 0.669131 
vn 0.669131 0 0.743145 
vn 0.587785 0 0.809017 
vn 0.5 0 0.866025 
vn 0.406737 0 0.913545 
vn 0.309017 0 0.951057 
vn 0.207912 0 0.978148 
vn 0.104528 0 0.994522 
vn 1.83697e-16 0 1 
vn 1 0 0 
vn 0.994222 0 -0.10734 
vn 0.976956 0 -0.21344 
vn 0.948401 0 -0.317073 
vn 0.908887 0 -0.417043 
vn 0.85887 0 -0.512193 
vn 0.798929 0 -0.601425 
vn 0.729756 0 -0.683707 
vn 0.652151 0 -0.758089 
vn 0.567009 0 -0.823711 
vn 0.475316 0 -0.879815 
vn 0.378131 0 -0.925752 
vn 0.276576 0 -0.960992 
vn 0.171825 0 -0.985128 
usemtl 0.301961_0.301961_0.301961_0.000000_0.000000
o mesh0
f 1//1 2//1 3//1 
f 3//1 4//1 1//1 
o mesh1
f 5//2 6//2 1//2 
f 1//2 4//2 5//2 
o mesh2
f 5//3 7//3 8//3 
f 8//3 6//3 5//3 
o mesh3
f 7//4 5//4 9//4 
f 5//4 4//4 10//4 
f 10//4 9//4 5//4 
f 3//4 11//4 10//4 
f 10//4 4//4 3//4 
f 9//4 12//4 7//4 
o mesh4
f 12//5 9//5 13//5 
f 13//5 14//5 12//5 
o mesh5
f 10//6 11//6 15//6 
f 15//6 16//6 10//6 
o mesh6
f 14//5 13//5 17//7 
f 18//7 17//7 19//8 
f 20//8 19//8 21//9 
f 22//9 21//9 23//10 
f 24//10 23//10 25//11 
f 26//11 25//11 27//12 
f 28//12 27//12 29//13 
f 30//13 29//13 31//14 
f 32//14 31//14 33//15 
f 34//15 33//15 35//16 
f 36//16 35//16 37//17 
f 38//17 37//17 39//18 
f 40//18 39//18 41//19 
f 41//19 42//19 40//18 
f 39//18 40//18 38//17 
f 37//17 38//17 36//16 
f 35//16 36//16 34//15 
f 33//15 34//15 32//14 
f 31//14 32//14 30//13 
f 29//13 30//13 28//12 
f 27//12 28//12 26//11 
f 25//11 26//11 24//10 
f 23//10 24//10 22//9 
f 21//9 22//9 20//8 
f 19//8 20//8 18//7 
f 17//7 18//7 14//5 
o mesh7
f 43//19 44//19 42//19 
f 42//19 41//19 43//19 
o mesh8
f 45//20 46//20 47//21 
f 48//21 47//21 49//22 
f 50//22 49//22 51//23 
f 52//23 51//23 53//24 
f 54//24 53//24 55//25 
f 56//25 55//25 57//26 
f 58//26 57//26 59//27 
f 60//27 59//27 61//28 
f 62//28 61//28 63//29 
f 64//29 63//29 65//30 
f 66//30 65//30 67//31 
f 68//31 67//31 69//32 
f 70//32 69//32 71//33 
f 72//33 71//33 73//34 
f 74//34 73//34 44//35 
f 44//35 43//35 74//34 
f 73//34 74//34 72//33 
f 71//33 72//33 70//32 
f 69//32 70//32 68//31 
f 67//31 68//31 66//30 
f 65//30 66//30 64//29 
f 63//29 64//29 62//28 
f 61//28 62//28 60//27 
f 59//27 60//27 58//26 
f 57//26 58//26 56//25 
f 55//25 56//25 54//24 
f 53//24 54//24 52//23 
f 51//23 52//23 50//22 
f 49//22 50//22 48//21 
f 47//21 48//21 45//20 
o mesh9
f 75//36 76//36 46//36 
f 46//36 45//36 75//36 
o mesh10
f 77//37 76//36 75//36 
f 78//38 77//37 79//37 
f 80//39 78//38 81//38 
f 82//40 80//39 83//39 
f 84//41 82//40 85//40 
f 86//42 84//41 87//41 
f 88//43 86//42 89//42 
f 90//44 88//43 91//43 
f 92//45 90//44 93//44 
f 94//46 92//45 95//45 
f 96//47 94//46 97//46 
f 98//48 96//47 99//47 
f 100//49 98//48 101//48 
f 102//50 100//49 103//49 
f 104//51 102//50 105//50 
f 106//52 104//51 107//51 
f 108//53 106//52 109//52 
f 110//54 108//53 111//53 
f 112//55 110//54 113//54 
f 114//56 112//55 115//55 
f 116//57 114//56 117//56 
f 118//58 116//57 119//57 
f 120//59 118//58 121//58 
f 122//60 120//59 123//59 
f 124//61 122//60 125//60 
f 126//62 124//61 127//61 
f 128//63 126//62 129//62 
f 130//64 128//63 131//63 
f 132//65 130//64 133//64 
f 133//64 134//65 132//65 
f 131//63 133//64 130//64 
f 129//62 131//63 128//63 
f 127//61 129//62 126//62 
f 125//60 127//61 124//61 
f 123//59 125//60 122//60 
f 121//58 123//59 120//59 
f 119//57 121//58 118//58 
f 117//56 119//57 116//57 
f 115//55 117//56 114//56 
f 113//54 115//55 112//55 
f 111//53 113//54 110//54 
f 109//52 111//53 108//53 
f 107//51 109//52 106//52 
f 105//50 107//51 104//51 
f 103//49 105//50 102//50 
f 101//48 103//49 100//49 
f 99//47 101//48 98//48 
f 97//46 99//47 96//47 
f 95//45 97//46 94//46 
f 93//44 95//45 92//45 
f 91//43 93//44 90//44 
f 89//42 91//43 88//43 
f 87//41 89//42 86//42 
f 85//40 87//41 84//41 
f 83//39 85//40 82//40 
f 81//38 83//39 80//39 
f 79//37 81//38 78//38 
f 75//36 79//37 77//37 
o mesh11
f 132//65 134//65 135//65 
f 135//65 136//65 132//65 
o mesh12
f 134//66 137//66 138//66 
f 134//66 139//66 137//66 
f 134//66 140//66 141//66 
f 142//66 143//66 144//66 
f 134//66 145//66 146//66 
f 134//66 147//66 148//66 
f 141//66 139//66 134//66 
f 142//66 149//66 143//66 
f 149//66 142//66 150//66 
f 135//66 151//66 152//66 
f 148//66 145//66 134//66 
f 134//66 16//66 140//66 
f 75//66 21//66 19//66 
f 150//66 153//66 149//66 
f 135//66 154//66 151//66 
f 134//66 155//66 156//66 
f 138//66 147//66 134//66 
f 75//66 23//66 21//66 
f 75//66 27//66 25//66 
f 152//66 142//66 135//66 
f 135//66 157//66 158//66 
f 135//66 159//66 160//66 
f 135//66 161//66 162//66 
f 146//66 155//66 134//66 
f 25//66 23//66 75//66 
f 75//66 31//66 29//66 
f 75//66 35//66 33//66 
f 45//66 58//66 60//66 
f 58//66 45//66 48//66 
f 158//66 154//66 135//66 
f 162//66 159//66 135//66 
f 156//66 163//66 134//66 
f 19//66 17//66 75//66 
f 33//66 31//66 75//66 
f 75//66 39//66 37//66 
f 45//66 64//66 66//66 
f 60//66 62//66 45//66 
f 52//66 54//66 56//66 
f 48//66 50//66 58//66 
f 160//66 157//66 135//66 
f 163//66 164//66 134//66 
f 29//66 27//66 75//66 
f 75//66 41//66 39//66 
f 45//66 72//66 74//66 
f 45//66 68//66 70//66 
f 62//66 64//66 45//66 
f 50//66 52//66 58//66 
f 144//66 135//66 142//66 
f 134//66 10//66 16//66 
f 37//66 35//66 75//66 
f 70//66 72//66 45//66 
f 56//66 58//66 52//66 
f 164//66 161//66 134//66 
f 75//66 43//66 41//66 
f 66//66 68//66 45//66 
f 9//66 93//66 91//66 
f 10//66 129//66 127//66 
f 135//66 134//66 161//66 
f 17//66 13//66 75//66 
f 43//66 75//66 45//66 
f 9//66 95//66 93//66 
f 9//66 99//66 97//66 
f 9//66 105//66 103//66 
f 10//66 131//66 129//66 
f 134//66 133//66 10//66 
f 74//66 43//66 45//66 
f 97//66 95//66 9//66 
f 103//66 101//66 9//66 
f 10//66 125//66 123//66 
f 133//66 131//66 10//66 
f 9//66 79//66 75//66 
f 9//66 85//66 83//66 
f 101//66 99//66 9//66 
f 9//66 10//66 107//66 
f 10//66 111//66 109//66 
f 10//66 121//66 119//66 
f 127//66 125//66 10//66 
f 9//66 81//66 79//66 
f 9//66 87//66 85//66 
f 107//66 105//66 9//66 
f 10//66 113//66 111//66 
f 10//66 117//66 115//66 
f 123//66 121//66 10//66 
f 83//66 81//66 9//66 
f 109//66 107//66 10//66 
f 119//66 117//66 10//66 
f 9//66 89//66 87//66 
f 115//66 113//66 10//66 
f 91//66 89//66 9//66 
f 13//66 9//66 75//66 
o mesh13
f 164//67 165//67 166//67 
f 166//67 161//67 164//67 
o mesh14
f 136//68 135//68 144//69 
f 167//69 144//69 143//70 
f 168//70 143//70 149//71 
f 169//71 149//71 153//72 
f 170//72 153//72 150//73 
f 171//73 150//73 142//74 
f 172//74 142//74 152//75 
f 173//75 152//75 151//76 
f 174//76 151//76 154//77 
f 175//77 154//77 158//78 
f 176//78 158//78 157//79 
f 177//79 157//79 160//80 
f 178//80 160//80 159//81 
f 179//81 159//81 162//82 
f 180//82 162//82 161//83 
f 161//83 166//83 180//82 
f 162//82 180//82 179//81 
f 159//81 179//81 178//80 
f 160//80 178//80 177//79 
f 157//79 177//79 176//78 
f 158//78 176//78 175//77 
f 154//77 175//77 174//76 
f 151//76 174//76 173//75 
f 152//75 173//75 172//74 
f 142//74 172//74 171//73 
f 150//73 171//73 170//72 
f 153//72 170//72 169//71 
f 149//71 169//71 168//70 
f 143//70 168//70 167//69 
f 144//69 167//69 136//68 
o mesh15
f 16//84 15//84 181//85 
f 140//85 181//85 182//86 
f 141//86 182//86 183//87 
f 139//87 183//87 184//88 
f 137//88 184//88 185//89 
f 138//89 185//89 186//90 
f 147//90 186//90 187//91 
f 148//91 187//91 188//92 
f 145//92 188//92 189//93 
f 146//93 189//93 190//94 
f 155//94 190//94 191//95 
f 156//95 191//95 192//96 
f 163//96 192//96 165//97 
f 165//97 164//97 163//96 
f 192//96 163//96 156//95 
f 191//95 156//95 155//94 
f 190//94 155//94 146//93 
f 189//93 146//93 145//92 
f 188//92 145//92 148//91 
f 187//91 148//91 147//90 
f 186//90 147//90 138//89 
f 185//89 138//89 137//88 
f 184//88 137//88 139//87 
f 183//87 139//87 141//86 
f 182//86 141//86 140//85 
f 181//85 140//85 16//84 
o mesh16
f 2//98 1//98 193//98 
f 1//98 6//98 194//98 
f 194//98 193//98 1//98 
f 8//98 195//98 194//98 
f 194//98 6//98 8//98 
f 193//98 196//98 2//98 
o mesh17
f 196//99 193//99 197//99 
f 197//99 198//99 196//99 
o mesh18
f 194//100 195//100 199//100 
f 199//100 200//100 194//100 
o mesh19
f 201//101 202//101 203//102 
f 204//102 203//102 205//103 
f 206//103 205//103 207//104 
f 208//104 207//104 209//105 
f 210//105 209//105 211//106 
f 212//106 211//106 213//107 
f 214//107 213//107 215//108 
f 216//108 215//108 217//109 
f 218//109 217//109 219//110 
f 220//110 219//110 221//111 
f 222//111 221//111 223//112 
f 224//112 223//112 225//113 
f 226//113 225//113 200//114 
f 200//114 199//114 226//113 
f 225//113 226//113 224//112 
f 223//112 224//112 222//111 
f 221//111 222//111 220//110 
f 219//110 220//110 218//109 
f 217//109 218//109 216//108 
f 215//108 216//108 214//107 
f 213//107 214//107 212//106 
f 211//106 212//106 210//105 
f 209//105 210//105 208//104 
f 207//104 208//104 206//103 
f 205//103 206//103 204//102 
f 203//102 204//102 201//101 
o mesh20
f 227//115 228//115 202//115 
f 202//115 201//115 227//115 
o mesh21
f 228//115 227//115 229//116 
f 230//116 229//116 231//117 
f 232//117 231//117 233//118 
f 234//118 233//118 235//119 
f 236//119 235//119 237//120 
f 238//120 237//120 239//121 
f 240//121 239//121 241//122 
f 242//122 241//122 243//123 
f 244//123 243//123 245//124 
f 246//124 245//124 247//125 
f 248//125 247//125 249//126 
f 250//126 249//126 251//127 
f 252//127 251//127 253//128 
f 254//128 253//128 255//129 
f 256//129 255//129 257//130 
f 257//130 258//130 256//129 
f 255//129 256//129 254//128 
f 253//128 254//128 252//127 
f 251//127 252//127 250//126 
f 249//126 250//126 248//125 
f 247//125 248//125 246//124 
f 245//124 246//124 244//123 
f 243//123 244//123 242//122 
f 241//122 242//122 240//121 
f 239//121 240//121 238//120 
f 237//120 238//120 236//119 
f 235//119 236//119 234//118 
f 233//118 234//118 232//117 
f 231//117 232//117 230//116 
f 229//116 230//116 228//115 
o mesh22
f 259//130 260//130 258//130 
f 258//130 257//130 259//130 
o mesh23
f 261//131 262//132 263//132 
f 264//133 261//131 265//134 
f 266//135 264//133 267//136 
f 268//137 266//135 269//138 
f 270//139 268//137 271//140 
f 272//141 270//139 273//142 
f 274//143 272//141 275//144 
f 276//145 274//143 277//146 
f 278//147 276//145 279//148 
f 280//149 278//147 281//150 
f 282//151 280//149 283//152 
f 284//153 282//151 285//154 
f 286//155 284//153 287//156 
f 288//157 286//155 289//158 
f 290//159 288//157 291//160 
f 292//161 290//159 293//162 
f 294//163 292//161 295//164 
f 296//165 294//163 297//166 
f 298//167 296//165 299//168 
f 300//169 298//167 301//170 
f 302//171 300//169 303//172 
f 304//173 302//171 305//174 
f 306//175 304//173 307//176 
f 308//177 306//175 309//178 
f 310//179 308//177 311//180 
f 312//181 310//179 313//182 
f 314//183 312//181 315//184 
f 316//185 314//183 317//186 
f 259//187 316//185 318//188 
f 318//188 260//187 259//187 
f 317//186 318//188 316//185 
f 315//184 317//186 314//183 
f 313//182 315//184 312//181 
f 311//180 313//182 310//179 
f 309//178 311//180 308//177 
f 307//176 309//178 306//175 
f 305//174 307//176 304//173 
f 303//172 305//174 302//171 
f 301//170 303//172 300//169 
f 299//168 301//170 298//167 
f 297//166 299//168 296//165 
f 295//164 297//166 294//163 
f 293//162 295//164 292//161 
f 291//160 293//162 290//159 
f 289//158 291//160 288//157 
f 287//156 289//158 286//155 
f 285//154 287//156 284//153 
f 283//152 285//154 282//151 
f 281//150 283//152 280//149 
f 279//148 281//150 278//147 
f 277//146 279//148 276//145 
f 275//144 277//146 274//143 
f 273//142 275//144 272//141 
f 271//140 273//142 270//139 
f 269//138 271//140 268//137 
f 267//136 269//138 266//135 
f 265//134 267//136 264//133 
f 263//132 265//134 261//131 
o mesh24
f 263//189 262//189 319//189 
f 319//189 320//189 263//189 
o mesh25
f 136//190 186//190 185//190 
f 136//190 182//190 181//190 
f 185//190 184//190 136//190 
f 76//190 26//190 28//190 
f 76//190 20//190 22//190 
f 136//190 183//190 182//190 
f 136//190 187//190 186//190 
f 172//190 136//190 167//190 
f 57//190 49//190 47//190 
f 76//190 24//190 26//190 
f 76//190 18//190 20//190 
f 184//190 183//190 136//190 
f 136//190 172//190 173//190 
f 169//190 170//190 171//190 
f 167//190 168//190 172//190 
f 57//190 51//190 49//190 
f 51//190 57//190 55//190 
f 76//190 32//190 34//190 
f 22//190 24//190 76//190 
f 259//190 216//190 218//190 
f 262//190 321//190 322//190 
f 136//190 188//190 187//190 
f 136//190 190//190 189//190 
f 136//190 192//190 191//190 
f 173//190 174//190 136//190 
f 168//190 169//190 172//190 
f 55//190 53//190 51//190 
f 46//190 61//190 59//190 
f 76//190 30//190 32//190 
f 76//190 14//190 18//190 
f 218//190 220//190 259//190 
f 262//190 323//190 321//190 
f 189//190 188//190 136//190 
f 136//190 165//190 192//190 
f 136//190 179//190 180//190 
f 136//190 177//190 178//190 
f 136//190 175//190 176//190 
f 171//190 172//190 169//190 
f 59//190 57//190 46//190 
f 76//190 36//190 38//190 
f 28//190 30//190 76//190 
f 259//190 224//190 226//190 
f 259//190 214//190 216//190 
f 243//190 251//190 249//190 
f 243//190 257//190 255//190 
f 322//190 324//190 262//190 
f 262//190 325//190 326//190 
f 191//190 190//190 136//190 
f 178//190 179//190 136//190 
f 174//190 175//190 136//190 
f 46//190 63//190 61//190 
f 46//190 67//190 65//190 
f 46//190 71//190 69//190 
f 46//190 44//190 73//190 
f 34//190 36//190 76//190 
f 259//190 222//190 224//190 
f 259//190 212//190 214//190 
f 249//190 247//190 243//190 
f 255//190 253//190 243//190 
f 324//190 327//190 262//190 
f 262//190 198//190 325//190 
f 136//190 166//190 165//190 
f 176//190 177//190 136//190 
f 65//190 63//190 46//190 
f 73//190 71//190 46//190 
f 38//190 40//190 76//190 
f 220//190 222//190 259//190 
f 259//190 208//190 210//190 
f 259//190 204//190 206//190 
f 257//190 243//190 241//190 
f 253//190 251//190 243//190 
f 319//190 328//190 329//190 
f 319//190 330//190 331//190 
f 319//190 332//190 333//190 
f 319//190 334//190 335//190 
f 262//190 336//190 337//190 
f 326//190 323//190 262//190 
f 180//190 166//190 136//190 
f 15//190 11//190 132//190 
f 69//190 67//190 46//190 
f 40//190 42//190 76//190 
f 210//190 212//190 259//190 
f 259//190 201//190 204//190 
f 257//190 231//190 229//190 
f 257//190 235//190 233//190 
f 257//190 239//190 237//190 
f 247//190 245//190 243//190 
f 331//190 328//190 319//190 
f 335//190 332//190 319//190 
f 262//190 338//190 339//190 
f 327//190 336//190 262//190 
f 132//190 136//190 15//190 
f 47//190 46//190 57//190 
f 76//190 12//190 14//190 
f 206//190 208//190 259//190 
f 233//190 231//190 257//190 
f 241//190 239//190 257//190 
f 333//190 330//190 319//190 
f 319//190 340//190 341//190 
f 319//190 342//190 343//190 
f 319//190 344//190 345//190 
f 337//190 338//190 262//190 
f 11//190 130//190 132//190 
f 42//190 44//190 76//190 
f 259//190 227//190 201//190 
f 237//190 235//190 257//190 
f 341//190 334//190 319//190 
f 345//190 342//190 319//190 
f 339//190 346//190 262//190 
f 11//190 128//190 130//190 
f 11//190 124//190 126//190 
f 46//190 76//190 44//190 
f 226//190 199//190 259//190 
f 227//190 259//190 257//190 
f 343//190 340//190 319//190 
f 346//190 347//190 262//190 
f 126//190 128//190 11//190 
f 11//190 120//190 122//190 
f 11//190 108//190 110//190 
f 11//190 104//190 106//190 
f 12//190 78//190 80//190 
f 76//190 77//190 12//190 
f 229//190 227//190 257//190 
f 195//190 310//190 312//190 
f 195//190 306//190 308//190 
f 195//190 302//190 304//190 
f 329//190 348//190 319//190 
f 262//190 196//190 198//190 
f 122//190 124//190 11//190 
f 11//190 116//190 118//190 
f 11//190 112//190 114//190 
f 106//190 108//190 11//190 
f 195//190 98//190 100//190 
f 195//190 94//190 96//190 
f 195//190 12//190 90//190 
f 12//190 82//190 84//190 
f 77//190 78//190 12//190 
f 195//190 316//190 259//190 
f 312//190 314//190 195//190 
f 304//190 306//190 195//190 
f 195//190 298//190 300//190 
f 196//190 274//190 276//190 
f 196//190 264//190 266//190 
f 347//190 344//190 262//190 
f 118//190 120//190 11//190 
f 110//190 112//190 11//190 
f 96//190 98//190 195//190 
f 90//190 92//190 195//190 
f 12//190 86//190 88//190 
f 80//190 82//190 12//190 
f 314//190 316//190 195//190 
f 300//190 302//190 195//190 
f 195//190 294//190 296//190 
f 195//190 290//190 292//190 
f 3//190 284//190 286//190 
f 3//190 280//190 282//190 
f 196//190 272//190 274//190 
f 196//190 268//190 270//190 
f 196//190 261//190 264//190 
f 319//190 262//190 344//190 
f 114//190 116//190 11//190 
f 195//190 102//190 104//190 
f 92//190 94//190 195//190 
f 84//190 86//190 12//190 
f 308//190 310//190 195//190 
f 292//190 294//190 195//190 
f 282//190 284//190 3//190 
f 3//190 276//190 278//190 
f 270//190 272//190 196//190 
f 262//190 261//190 196//190 
f 104//190 11//190 195//190 
f 88//190 90//190 12//190 
f 296//190 298//190 195//190 
f 3//190 288//190 290//190 
f 278//190 280//190 3//190 
f 266//190 268//190 196//190 
f 100//190 102//190 195//190 
f 290//190 195//190 3//190 
f 276//190 3//190 196//190 
f 181//190 15//190 136//190 
f 7//190 12//190 195//190 
f 286//190 288//190 3//190 
f 195//190 8//190 7//190 
f 3//190 2//190 196//190 
f 199//190 195//190 259//190 
f 11//190 3//190 195//190 
o mesh26
f 260//191 219//191 217//191 
f 260//191 221//191 219//191 
f 260//191 225//191 223//191 
f 320//191 349//191 350//191 
f 320//191 351//191 352//191 
f 320//191 353//191 354//191 
f 320//191 355//191 356//191 
f 320//191 357//191 358//191 
f 320//191 359//191 360//191 
f 320//191 361//191 362//191 
f 320//191 363//191 364//191 
f 320//191 365//191 366//191 
f 260//191 211//191 209//191 
f 260//191 215//191 213//191 
f 223//191 221//191 260//191 
f 350//191 367//191 320//191 
f 352//191 368//191 320//191 
f 356//191 353//191 320//191 
f 320//191 369//191 357//191 
f 362//191 359//191 320//191 
f 366//191 363//191 320//191 
f 258//191 252//191 254//191 
f 258//191 248//191 250//191 
f 258//191 244//191 246//191 
f 258//191 240//191 242//191 
f 213//191 211//191 260//191 
f 260//191 200//191 225//191 
f 368//191 349//191 320//191 
f 358//191 355//191 320//191 
f 320//191 370//191 371//191 
f 320//191 372//191 373//191 
f 320//191 374//191 375//191 
f 364//191 361//191 320//191 
f 250//191 252//191 258//191 
f 242//191 244//191 258//191 
f 260//191 207//191 205//191 
f 217//191 215//191 260//191 
f 354//191 351//191 320//191 
f 373//191 370//191 320//191 
f 360//191 374//191 320//191 
f 246//191 248//191 258//191 
f 258//191 236//191 238//191 
f 258//191 232//191 234//191 
f 258//191 228//191 230//191 
f 209//191 207//191 260//191 
f 320//191 376//191 369//191 
f 375//191 372//191 320//191 
f 238//191 240//191 258//191 
f 230//191 232//191 258//191 
f 205//191 203//191 260//191 
f 371//191 376//191 320//191 
f 197//191 193//191 263//191 
f 234//191 236//191 258//191 
f 203//191 202//191 260//191 
f 263//191 320//191 197//191 
f 254//191 256//191 258//191 
f 260//191 194//191 200//191 
f 193//191 265//191 263//191 
f 202//191 228//191 260//191 
f 193//191 267//191 265//191 
f 193//191 271//191 269//191 
f 193//191 279//191 277//191 
f 194//191 315//191 313//191 
f 258//191 260//191 228//191 
f 269//191 267//191 193//191 
f 193//191 281//191 279//191 
f 193//191 285//191 283//191 
f 193//191 291//191 289//191 
f 194//191 317//191 315//191 
f 260//191 318//191 194//191 
f 193//191 273//191 271//191 
f 283//191 281//191 193//191 
f 289//191 287//191 193//191 
f 194//191 303//191 301//191 
f 194//191 307//191 305//191 
f 194//191 311//191 309//191 
f 318//191 317//191 194//191 
f 193//191 275//191 273//191 
f 287//191 285//191 193//191 
f 194//191 297//191 295//191 
f 305//191 303//191 194//191 
f 313//191 311//191 194//191 
f 277//191 275//191 193//191 
f 193//191 194//191 293//191 
f 194//191 299//191 297//191 
f 309//191 307//191 194//191 
f 293//191 291//191 193//191 
f 301//191 299//191 194//191 
f 295//191 293//191 194//191 
f 367//191 197//191 320//191 
o mesh27
f 347//192 369//192 376//192 
f 376//192 344//192 347//192 
o mesh28
f 344//192 376//192 371//193 
f 345//193 371//193 370//194 
f 342//194 370//194 373//195 
f 343//195 373//195 372//196 
f 340//196 372//196 375//197 
f 341//197 375//197 374//198 
f 334//198 374//198 360//199 
f 335//199 360//199 359//200 
f 332//200 359//200 362//201 
f 333//201 362//201 361//202 
f 330//202 361//202 364//203 
f 331//203 364//203 363//204 
f 328//204 363//204 366//205 
f 329//205 366//205 365//206 
f 348//206 365//206 320//207 
f 320//207 319//207 348//206 
f 365//206 348//206 329//205 
f 366//205 329//205 328//204 
f 363//204 328//204 331//203 
f 364//203 331//203 330//202 
f 361//202 330//202 333//201 
f 362//201 333//201 332//200 
f 359//200 332//200 335//199 
f 360//199 335//199 334//198 
f 374//198 334//198 341//197 
f 375//197 341//197 340//196 
f 372//196 340//196 343//195 
f 373//195 343//195 342//194 
f 370//194 342//194 345//193 
f 371//193 345//193 344//192 
o mesh29
f 369//208 347//208 346//209 
f 357//209 346//209 339//210 
f 358//210 339//210 338//211 
f 355//211 338//211 337//212 
f 356//212 337//212 336//213 
f 353//213 336//213 327//214 
f 354//214 327//214 324//215 
f 351//215 324//215 322//216 
f 352//216 322//216 321//217 
f 368//217 321//217 323//218 
f 349//218 323//218 326//219 
f 350//219 326//219 325//220 
f 367//220 325//220 198//221 
f 198//221 197//221 367//220 
f 325//220 367//220 350//219 
f 326//219 350//219 349//218 
f 323//218 349//218 368//217 
f 321//217 368//217 352//216 
f 322//216 352//216 351//215 
f 324//215 351//215 354//214 
f 327//214 354//214 353//213 
f 336//213 353//213 356//212 
f 337//212 356//212 355//211 
f 338//211 355//211 358//210 
f 339//210 358//210 357//209 
f 346//209 357//209 369//208 
