# OBJ generated by ONSHAPE BY PTC INC, 1.217 Units = meters
mtllib ARCADA001 - lcd screen .mtl
g lcd screen 
v 0 0.00605 0.019 
v 0 0.00605 -0.019 
v 0 -0.00605 -0.019 
v 0 -0.00605 0.019 
v 0.00125 0.00605 -0.019 
v 0.00125 0.00605 0.019 
v 0.00125 -0.00605 0.019 
v 0.00125 -0.00605 -0.019 
v 0.00125 0.005875 -0.019 
v 0.00125 -0.005875 -0.019 
v 0.00275 -0.005875 -0.019 
v 0.00275 0.005875 -0.019 
v 0.00275 0.005875 -0.013 
v 0.00275 -0.005875 -0.013 
v 0.00325 -0.005875 -0.013 
v 0.00325 0.005875 -0.013 
v 0.00125 0.005875 0.014 
v 0.00325 0.005875 0.014 
v 0.00325 -0.005875 0.014 
v 0.00125 -0.005875 0.014 
v 0.00125 0.004875 0.01855 
v 0.00125 0.004875 0.01705 
v 0.00125 -0.004875 0.01855 
v 0.00125 -0.004875 0.01705 
v 0.00275 -0.004875 0.01855 
v 0.00275 -0.004875 0.01705 
v 0.00275 0.004875 0.01855 
v 0.00275 0.004875 0.01705 
vn -1 0 0 
vn 0 1 0 
vn 0 1.83508e-16 1 
vn 0 -1 0 
vn 0 0 -1 
vn 1 0 0 
vn 0 1 0 
vn 0 -1 4.11194e-17 
vn 1 0 0 
vn 0 0 1 
vn 0 -1 0 
vn 1 0 0 
vn 0 0 -1 
vn 0 1 0 
vn 0 0 1 
usemtl 0.627451_0.627451_0.627451_0.000000_0.000000
o mesh0
f 1//1 2//1 3//1 
f 3//1 4//1 1//1 
o mesh1
f 5//2 2//2 1//2 
f 1//2 6//2 5//2 
o mesh2
f 6//3 1//3 4//3 
f 4//3 7//3 6//3 
o mesh3
f 7//4 4//4 3//4 
f 3//4 8//4 7//4 
o mesh4
f 3//5 9//5 10//5 
f 11//5 10//5 9//5 
f 9//5 12//5 11//5 
f 2//5 5//5 9//5 
f 9//5 3//5 2//5 
f 10//5 8//5 3//5 
o mesh5
f 13//6 14//6 11//6 
f 11//6 12//6 13//6 
o mesh6
f 15//5 14//5 13//5 
f 13//5 16//5 15//5 
o mesh7
f 9//7 17//7 13//7 
f 18//7 16//7 13//7 
f 13//7 17//7 18//7 
f 13//7 12//7 9//7 
o mesh8
f 19//8 20//8 14//8 
f 10//8 11//8 14//8 
f 14//8 20//8 10//8 
f 14//8 15//8 19//8 
o mesh9
f 19//9 15//9 16//9 
f 16//9 18//9 19//9 
o mesh10
f 18//10 17//10 20//10 
f 20//10 19//10 18//10 
o mesh11
f 5//9 6//9 17//9 
f 6//9 21//9 22//9 
f 22//9 17//9 6//9 
f 6//9 7//9 23//9 
f 23//9 21//9 6//9 
f 7//9 20//9 24//9 
f 24//9 23//9 7//9 
f 17//9 22//9 24//9 
f 24//9 20//9 17//9 
f 8//9 10//9 20//9 
f 20//9 7//9 8//9 
f 17//9 9//9 5//9 
o mesh12
f 25//11 23//11 24//11 
f 24//11 26//11 25//11 
o mesh13
f 27//12 25//12 26//12 
f 26//12 28//12 27//12 
o mesh14
f 26//13 24//13 22//13 
f 22//13 28//13 26//13 
o mesh15
f 28//14 22//14 21//14 
f 21//14 27//14 28//14 
o mesh16
f 27//15 21//15 23//15 
f 23//15 25//15 27//15 
