# OBJ generated by ONSHAPE BY PTC INC, 1.217 Units = meters
mtllib ARCADA001 - Part 1 (3).mtl
g Part 1
v 0.041 0.033 0.00415 
v 0.041 0.033 -0.00415 
v 0.041 0.043 -0.00415 
v 0.041 0.043 0.00415 
v 0.027 0.033 -0.00415 
v 0.027 0.043 -0.00415 
v 0.027 0.033 0.00415 
v 0.027 0.043 0.00415 
v 0.027 0.033 -0.00635 
v 0.027 0.045 -0.00635 
v 0.027 0.045 0.00635 
v 0.027 0.033 0.00635 
v 0.041 0.033 -0.00635 
v 0.041 0.045 -0.00635 
v 0.041 0.033 -0.0094 
v 0.041 0.045 -0.0094 
v 0.027 0.033 -0.0094 
v 0.027 0.045 -0.0094 
v 0.027 0.033 -0.0116 
v 0.027 0.045 -0.0116 
v 0.041 0.033 -0.0116 
v 0.041 0.045 -0.0116 
v 0.041 0.033 -0.01465 
v 0.041 0.045 -0.01465 
v 0.041 0.033 0.00635 
v 0.041 0.045 0.00635 
v 0.041 0.045 0.0094 
v 0.041 0.033 0.0094 
v 0.027 0.045 0.0094 
v 0.027 0.033 0.0094 
v 0.027 0.045 0.0116 
v 0.027 0.033 0.0116 
v 0.041 0.033 0.0116 
v 0.041 0.045 0.0116 
v 0.041 0.045 0.01465 
v 0.041 0.033 0.01465 
v 0.027 0.045 0.01465 
v 0.027 0.033 0.01465 
v 0.027 0.045 0.01685 
v 0.027 0.033 0.01685 
v 0.041 0.033 0.01685 
v 0.041 0.045 0.01685 
v 0.027 0.033 -0.01465 
v 0.027 0.045 -0.01465 
v 0.027 0.033 -0.01685 
v 0.027 0.045 -0.01685 
v 0.041 0.033 -0.01685 
v 0.041 0.045 -0.01685 
v 0.041 0.045 -0.0239808 
v 0.041 0.04 -0.023 
v 0.041 0.033 -0.023 
v 0.041 0.04 -0.0239808 
v -0.036 0.033 -0.023 
v -0.036 0.04 -0.023 
v 0.026 0.04 -0.028 
v -0.036 0.04 -0.028 
v -0.036 0.045 -0.028 
v 0.026 0.045 -0.028 
v -0.036 0.033 -0.034 
v -0.036 0.045 -0.034 
v 0.041 0.04 0.023 
v 0.041 0.045 0.0239808 
v 0.041 0.04 0.0239808 
v 0.041 0.033 0.023 
v -0.036 0.04 0.023 
v -0.036 0.033 0.023 
v 0.026 0.04 0.028 
v -0.036 0.04 0.028 
v -0.036 0.045 0.028 
v 0.026 0.045 0.028 
v -0.036 0.045 0.034 
v -0.036 0.033 0.034 
v 0.054 0.033 0.034 
v 0.054 0.033 -0.034 
v -0.041 0.045 -0.034 
v -0.041 0.045 0.034 
v -0.059 0.03 -0.034 
v -0.059 0.03348 -0.034 
v 0.057 0.03 -0.034 
v 0.057 0.03 -0.039 
v -0.054 0.03 -0.039 
v -0.059 0.03348 0.034 
v 0.057 0.03 0.034 
v -0.059 0.03 0.034 
v -0.066 0.029 -0.027 
v -0.066 0.029 0.027 
v -0.054 0 -0.039 
v -0.066 0.00104986 -0.027 
v -0.066 0.00104986 0.027 
v -0.054 0 0.039 
v -0.054 0.03 0.039 
v 0.057 0.03 0.039 
v 0.066 0.021 0.039 
v 0.066 0.021 -0.039 
v 0.066 0.00104986 0.039 
v 0.066 0.00104986 -0.039 
v 0.054 0 -0.039 
v 0.054 0 0.039 
vn 1 0 0 
vn 0 0 -1 
vn 0 0 1 
vn 0 1 0 
vn 1 0 0 
vn 0 0 1 
vn 0 0 -1 
vn 1 0 0 
vn 0 0 1 
vn 0 0 -1 
vn 1 0 0 
vn 0 0 1 
vn 0 0 -1 
vn 1 0 0 
vn 0 0 1 
vn 0 0 -1 
vn 1 0 0 
vn 0 0 1 
vn 0 0 -1 
vn 0 -1 0 
vn 0.258819 0 -0.965926 
vn 1 0 0 
vn 0 0 1 
vn 0 -1 0 
vn 0.258819 0 0.965926 
vn 1 0 0 
vn 0 1 0 
vn 2.31296e-16 0 -1 
vn -4.62593e-16 0 1 
vn -0.539054 0.842271 5.66733e-17 
vn -0.707107 0 -0.707107 
vn -1 0 0 
vn -0.707107 0 0.707107 
vn 0 1 0 
vn 0.707107 0.707107 0 
vn 1 0 0 
vn -1.05135e-16 0 -1 
vn 1.05135e-16 0 1 
vn 0 -1 0 
vn -0.0871557 -0.996195 0 
vn 0.0871557 -0.996195 0 
usemtl 0.615686_0.811765_0.929412_0.000000_0.000000
o mesh0
f 1//1 2//1 3//1 
f 3//1 4//1 1//1 
o mesh1
f 5//2 6//2 3//2 
f 3//2 2//2 5//2 
o mesh2
f 7//3 1//3 4//3 
f 4//3 8//3 7//3 
o mesh3
f 4//4 3//4 6//4 
f 6//4 8//4 4//4 
o mesh4
f 9//5 10//5 6//5 
f 10//5 11//5 8//5 
f 8//5 6//5 10//5 
f 12//5 7//5 8//5 
f 8//5 11//5 12//5 
f 6//5 5//5 9//5 
o mesh5
f 10//6 9//6 13//6 
f 13//6 14//6 10//6 
o mesh6
f 14//5 13//5 15//5 
f 15//5 16//5 14//5 
o mesh7
f 15//7 17//7 18//7 
f 18//7 16//7 15//7 
o mesh8
f 18//8 17//8 19//8 
f 19//8 20//8 18//8 
o mesh9
f 20//9 19//9 21//9 
f 21//9 22//9 20//9 
o mesh10
f 22//8 21//8 23//8 
f 23//8 24//8 22//8 
o mesh11
f 25//10 12//10 11//10 
f 11//10 26//10 25//10 
o mesh12
f 27//11 28//11 25//11 
f 25//11 26//11 27//11 
o mesh13
f 29//12 30//12 28//12 
f 28//12 27//12 29//12 
o mesh14
f 31//11 32//11 30//11 
f 30//11 29//11 31//11 
o mesh15
f 33//13 32//13 31//13 
f 31//13 34//13 33//13 
o mesh16
f 35//14 36//14 33//14 
f 33//14 34//14 35//14 
o mesh17
f 37//15 38//15 36//15 
f 36//15 35//15 37//15 
o mesh18
f 39//14 40//14 38//14 
f 38//14 37//14 39//14 
o mesh19
f 41//16 40//16 39//16 
f 39//16 42//16 41//16 
o mesh20
f 23//16 43//16 44//16 
f 44//16 24//16 23//16 
o mesh21
f 44//17 43//17 45//17 
f 45//17 46//17 44//17 
o mesh22
f 46//18 45//18 47//18 
f 47//18 48//18 46//18 
o mesh23
f 49//17 48//17 50//17 
f 47//17 51//17 50//17 
f 50//17 48//17 47//17 
f 50//17 52//17 49//17 
o mesh24
f 53//19 54//19 50//19 
f 50//19 51//19 53//19 
o mesh25
f 50//20 54//20 55//20 
f 54//20 56//20 55//20 
f 55//20 52//20 50//20 
o mesh26
f 56//19 57//19 58//19 
f 58//19 55//19 56//19 
o mesh27
f 49//21 52//21 55//21 
f 55//21 58//21 49//21 
o mesh28
f 53//22 59//22 56//22 
f 60//22 57//22 56//22 
f 56//22 59//22 60//22 
f 56//22 54//22 53//22 
o mesh29
f 41//22 42//22 61//22 
f 62//22 63//22 61//22 
f 61//22 42//22 62//22 
f 61//22 64//22 41//22 
o mesh30
f 61//23 65//23 66//23 
f 66//23 64//23 61//23 
o mesh31
f 61//24 63//24 67//24 
f 67//24 65//24 61//24 
f 67//24 68//24 65//24 
o mesh32
f 69//23 68//23 67//23 
f 67//23 70//23 69//23 
o mesh33
f 70//25 67//25 63//25 
f 63//25 62//25 70//25 
o mesh34
f 71//26 72//26 68//26 
f 66//26 65//26 68//26 
f 68//26 72//26 66//26 
f 68//26 69//26 71//26 
o mesh35
f 72//27 73//27 64//27 
f 73//27 36//27 41//27 
f 41//27 64//27 73//27 
f 40//27 41//27 36//27 
f 36//27 38//27 40//27 
f 73//27 28//27 33//27 
f 33//27 36//27 73//27 
f 32//27 33//27 28//27 
f 28//27 30//27 32//27 
f 73//27 1//27 25//27 
f 25//27 28//27 73//27 
f 12//27 25//27 1//27 
f 1//27 7//27 12//27 
f 73//27 13//27 2//27 
f 2//27 1//27 73//27 
f 5//27 2//27 13//27 
f 13//27 9//27 5//27 
f 73//27 21//27 15//27 
f 15//27 13//27 73//27 
f 17//27 15//27 21//27 
f 21//27 19//27 17//27 
f 73//27 47//27 23//27 
f 23//27 21//27 73//27 
f 43//27 23//27 47//27 
f 47//27 45//27 43//27 
f 74//27 51//27 47//27 
f 47//27 73//27 74//27 
f 59//27 53//27 51//27 
f 51//27 74//27 59//27 
f 64//27 66//27 72//27 
o mesh36
f 57//27 29//27 11//27 
f 26//27 11//27 29//27 
f 46//27 48//27 49//27 
f 29//27 27//27 26//27 
f 57//27 37//27 31//27 
f 58//27 57//27 46//27 
f 57//27 20//27 44//27 
f 31//27 29//27 57//27 
f 34//27 31//27 37//27 
f 75//27 69//27 57//27 
f 69//27 39//27 37//27 
f 44//27 46//27 57//27 
f 24//27 44//27 20//27 
f 37//27 35//27 34//27 
f 37//27 57//27 69//27 
f 39//27 70//27 62//27 
f 20//27 22//27 24//27 
f 57//27 10//27 18//27 
f 57//27 60//27 75//27 
f 62//27 42//27 39//27 
f 18//27 20//27 57//27 
f 16//27 18//27 10//27 
f 39//27 69//27 70//27 
f 76//27 71//27 69//27 
f 10//27 14//27 16//27 
f 69//27 75//27 76//27 
f 11//27 10//27 57//27 
f 49//27 58//27 46//27 
o mesh37
f 59//28 77//28 78//28 
f 79//28 77//28 59//28 
f 78//28 75//28 59//28 
f 75//28 60//28 59//28 
f 59//28 74//28 79//28 
o mesh38
f 79//27 80//27 81//27 
f 81//27 77//27 79//27 
o mesh39
f 72//29 76//29 82//29 
f 72//29 71//29 76//29 
f 83//29 73//29 72//29 
f 72//29 84//29 83//29 
f 82//29 84//29 72//29 
o mesh40
f 82//30 78//30 85//30 
f 82//30 75//30 78//30 
f 85//30 86//30 82//30 
f 82//30 76//30 75//30 
o mesh41
f 87//31 88//31 77//31 
f 85//31 78//31 77//31 
f 77//31 88//31 85//31 
f 77//31 81//31 87//31 
o mesh42
f 86//32 85//32 88//32 
f 88//32 89//32 86//32 
o mesh43
f 86//33 89//33 84//33 
f 90//33 91//33 84//33 
f 84//33 89//33 90//33 
f 84//33 82//33 86//33 
o mesh44
f 83//34 84//34 91//34 
f 91//34 92//34 83//34 
o mesh45
f 93//35 79//35 83//35 
f 73//35 83//35 79//35 
f 79//35 74//35 73//35 
f 94//35 80//35 79//35 
f 79//35 93//35 94//35 
f 83//35 92//35 93//35 
o mesh46
f 94//36 93//36 95//36 
f 95//36 96//36 94//36 
o mesh47
f 81//37 80//37 97//37 
f 97//37 80//37 94//37 
f 94//37 96//37 97//37 
f 97//37 87//37 81//37 
o mesh48
f 98//38 95//38 93//38 
f 91//38 90//38 98//38 
f 98//38 92//38 91//38 
f 93//38 92//38 98//38 
o mesh49
f 97//39 98//39 90//39 
f 90//39 87//39 97//39 
o mesh50
f 87//40 90//40 89//40 
f 89//40 88//40 87//40 
o mesh51
f 96//41 95//41 98//41 
f 98//41 97//41 96//41 
