# OBJ generated by ONSHAPE BY PTC INC, 1.217 Units = meters
mtllib ARCADA001 - Part 1 (11).mtl
g Part 1
v 0.0150117 0.008 0.000216238 
v 0.015 0.008 0 
v 0.0150468 0.008 0.000429941 
v 0.0151047 0.008 0.000638603 
v 0.0151848 0.008 0.000839778 
v 0.0152863 0.008 0.00103111 
v 0.0154078 0.008 0.00121035 
v 0.015548 0.008 0.0013754 
v 0.0157052 0.008 0.00152432 
v 0.0158776 0.008 0.00165538 
v 0.0160632 0.008 0.00176702 
v 0.0162597 0.008 0.00185795 
v 0.0164649 0.008 0.0019271 
v 0.0166764 0.008 0.00197365 
v 0.0168917 0.008 0.00199707 
v 0.0171083 0.008 0.00199707 
v 0.0173236 0.008 0.00197365 
v 0.0175351 0.008 0.0019271 
v 0.0177403 0.008 0.00185795 
v 0.0179368 0.008 0.00176702 
v 0.0181224 0.008 0.00165538 
v 0.0182948 0.008 0.00152432 
v 0.018452 0.008 0.0013754 
v 0.0185922 0.008 0.00121035 
v 0.0187137 0.008 0.00103111 
v 0.0188152 0.008 0.000839778 
v 0.0188953 0.008 0.000638603 
v 0.0189532 0.008 0.000429941 
v 0.0189883 0.008 0.000216238 
v 0.019 0.008 -7.34788e-19 
v 0.0189883 0.008 -0.000216238 
v 0.0189532 0.008 -0.000429941 
v 0.0188953 0.008 -0.000638603 
v 0.0188152 0.008 -0.000839778 
v 0.0187137 0.008 -0.00103111 
v 0.0185922 0.008 -0.00121035 
v 0.018452 0.008 -0.0013754 
v 0.0182948 0.008 -0.00152432 
v 0.0181224 0.008 -0.00165538 
v 0.0179368 0.008 -0.00176702 
v 0.0177403 0.008 -0.00185795 
v 0.0175351 0.008 -0.0019271 
v 0.0173236 0.008 -0.00197365 
v 0.0171083 0.008 -0.00199707 
v 0.0168917 0.008 -0.00199707 
v 0.0166764 0.008 -0.00197365 
v 0.0164649 0.008 -0.0019271 
v 0.0162597 0.008 -0.00185795 
v 0.0160632 0.008 -0.00176702 
v 0.0158776 0.008 -0.00165538 
v 0.0157052 0.008 -0.00152432 
v 0.015548 0.008 -0.0013754 
v 0.0154078 0.008 -0.00121035 
v 0.0152863 0.008 -0.00103111 
v 0.0151848 0.008 -0.000839778 
v 0.0151047 0.008 -0.000638603 
v 0.0150468 0.008 -0.000429941 
v 0.0150117 0.008 -0.000216238 
v 0.017 0.00920172 0 
v 0.019 0 0 
v 0.0189883 0 0.000216238 
v 0.0189532 0 0.000429941 
v 0.0188953 0 0.000638603 
v 0.0188152 0 0.000839778 
v 0.0187137 0 0.00103111 
v 0.0185922 0 0.00121035 
v 0.018452 0 0.0013754 
v 0.0182948 0 0.00152432 
v 0.0181224 0 0.00165538 
v 0.0179368 0 0.00176702 
v 0.0177403 0 0.00185795 
v 0.0175351 0 0.0019271 
v 0.0173236 0 0.00197365 
v 0.0171083 0 0.00199707 
v 0.0168917 0 0.00199707 
v 0.0166764 0 0.00197365 
v 0.0164649 0 0.0019271 
v 0.0162597 0 0.00185795 
v 0.0160632 0 0.00176702 
v 0.0158776 0 0.00165538 
v 0.0157052 0 0.00152432 
v 0.015548 0 0.0013754 
v 0.0154078 0 0.00121035 
v 0.0152863 0 0.00103111 
v 0.0151848 0 0.000839778 
v 0.0151047 0 0.000638603 
v 0.0150468 0 0.000429941 
v 0.0150117 0 0.000216238 
v 0.015 0 -2.44929e-19 
v 0.0150117 0 -0.000216238 
v 0.0150468 0 -0.000429941 
v 0.0151047 0 -0.000638603 
v 0.0151848 0 -0.000839778 
v 0.0152863 0 -0.00103111 
v 0.0154078 0 -0.00121035 
v 0.015548 0 -0.0013754 
v 0.0157052 0 -0.00152432 
v 0.0158776 0 -0.00165538 
v 0.0160632 0 -0.00176702 
v 0.0162597 0 -0.00185795 
v 0.0164649 0 -0.0019271 
v 0.0166764 0 -0.00197365 
v 0.0168917 0 -0.00199707 
v 0.0171083 0 -0.00199707 
v 0.0173236 0 -0.00197365 
v 0.0175351 0 -0.0019271 
v 0.0177403 0 -0.00185795 
v 0.0179368 0 -0.00176702 
v 0.0181224 0 -0.00165538 
v 0.0182948 0 -0.00152432 
v 0.018452 0 -0.0013754 
v 0.0185922 0 -0.00121035 
v 0.0187137 0 -0.00103111 
v 0.0188152 0 -0.000839778 
v 0.0188953 0 -0.000638603 
v 0.0189532 0 -0.000429941 
v 0.0189883 0 -0.000216238 
v 0.0209288 0 0.00210887 
v 0.0166987 0 0.0104109 
v 0.0207159 0 0.00345285 
v 0.0192583 0 0.00725 
v 0.0185172 0 0.00839121 
v 0.0176609 0 0.0094487 
v 0.0156412 0 0.0112672 
v 0.0203637 0 0.00476722 
v 0.0145 0 0.0120083 
v 0.0132876 0 0.0126261 
v 0.0198761 0 0.00603758 
v 0.0120172 0 0.0131137 
v 0.008 0 0.01375 
v 0.0112029 0 0.00301917 
v 0.010176 0 0.00324523 
v 0.0105258 0 0.00320719 
v 0.0107029 0 0.0134659 
v 0.0115223 0 0.00287141 
v 0.00982405 0 0.00324523 
v -0.00982405 0 0.00324523 
v 0.00764051 0 0.00223502 
v 0.00789599 0 0.00247703 
v 0.00935887 0 0.0136788 
v 0.00947421 0 0.00320719 
v 0.00879705 0 0.00301917 
v 0.00913053 0 0.00313154 
v -0.010176 0 0.00324523 
v -0.0166764 0 0.00197365 
v -0.0156412 0 0.0112672 
v -0.0166987 0 0.0104109 
v 0.0108695 0 0.00313154 
v 0.012104 0 0.00247703 
v 0.0074127 0 0.00196682 
v -0.0154078 0 0.00121035 
v -0.0115223 0 0.00287141 
v -0.008 0 0.01375 
v -0.0164649 0 0.0019271 
v -0.0132876 0 0.0126261 
v -0.0145 0 0.0120083 
v -0.0168917 0 0.00199707 
v -0.0176609 0 0.0094487 
v -0.0171083 0 0.00199707 
v -0.0185172 0 0.00839121 
v 0.00817614 0 0.00268999 
v 0.00847767 0 0.00287141 
v 0.0118239 0 0.00268999 
v -0.0105258 0 0.00320719 
v -0.0112029 0 0.00301917 
v -0.0108695 0 0.00313154 
v -0.0118239 0 0.00268999 
v -0.0157052 0 0.00152432 
v -0.015548 0 0.0013754 
v -0.0160632 0 0.00176702 
v -0.0107029 0 0.0134659 
v -0.0120172 0 0.0131137 
v -0.0173236 0 0.00197365 
v -0.0192583 0 0.00725 
v -0.0175351 0 0.0019271 
v -0.0198761 0 0.00603758 
v -0.008 0 -0.01375 
v -0.00879705 0 -0.00301917 
v -0.00913053 0 -0.00313154 
v 0.00789599 0 -0.00247703 
v -0.00764051 0 -0.00223502 
v -0.012104 0 0.00247703 
v -0.0152863 0 0.00103111 
v -0.0151848 0 0.000839778 
v -0.0123595 0 0.00223502 
v 0.00721521 0 0.00167555 
v -0.00947421 0 0.00320719 
v 0.00676905 0 0.000351387 
v -0.00817614 0 0.00268999 
v -0.00789599 0 0.00247703 
v -0.00913053 0 0.00313154 
v -0.00879705 0 0.00301917 
v -0.0158776 0 0.00165538 
v -0.00935887 0 0.0136788 
v -0.0162597 0 0.00185795 
v -0.0177403 0 0.00185795 
v -0.00947421 0 -0.00320719 
v -0.00982405 0 -0.00324523 
v -0.00935887 0 -0.0136788 
v -0.00847767 0 -0.00287141 
v -0.00789599 0 -0.00247703 
v -0.00682598 0 -0.000698654 
v 0.00764051 0 -0.00223502 
v 0.0074127 0 -0.00196682 
v 0.00705038 0 0.00136464 
v -0.00676905 0 0.000351387 
v -0.00675 0 0 
v -0.00676905 0 -0.000351387 
v 0.00676905 0 -0.000351387 
v 0.00675 0 -3.9801e-19 
v -0.00705038 0 0.00136464 
v -0.00692013 0 0.00103773 
v -0.00764051 0 0.00223502 
v -0.0074127 0 0.00196682 
v -0.00847767 0 0.00287141 
v 0.013174 0 -0.000698654 
v -0.00817614 0 -0.00268999 
v -0.00705038 0 -0.00136464 
v -0.00721521 0 -0.00167555 
v 0.008 0 -0.01375 
v 0.00847767 0 -0.00287141 
v 0.00947421 0 -0.00320719 
v 0.00935887 0 -0.0136788 
v 0.00982405 0 -0.00324523 
v 0.0107029 0 -0.0134659 
v 0.00692013 0 0.00103773 
v 0.00682598 0 0.000698654 
v -0.00682598 0 0.000698654 
v -0.00721521 0 0.00167555 
v -0.0179368 0 0.00176702 
v -0.0203637 0 0.00476722 
v 0.0105258 0 -0.00320719 
v 0.0120172 0 -0.0131137 
v 0.0132876 0 -0.0126261 
v 0.0108695 0 -0.00313154 
v 0.0145 0 -0.0120083 
v 0.0132309 0 -0.000351387 
v 0.0130799 0 -0.00103773 
v -0.0151047 0 -0.000638603 
v -0.0130799 0 -0.00103773 
v -0.013174 0 -0.000698654 
v -0.0166764 0 -0.00197365 
v -0.0166987 0 -0.0104109 
v -0.0125873 0 -0.00196682 
v -0.0074127 0 -0.00196682 
v -0.00692013 0 -0.00103773 
v 0.00817614 0 -0.00268999 
v 0.00913053 0 -0.00313154 
v 0.010176 0 -0.00324523 
v 0.00692013 0 -0.00103773 
v 0.00682598 0 -0.000698654 
v -0.0182948 0 0.00152432 
v -0.0181224 0 0.00165538 
v -0.0207159 0 0.00345285 
v -0.0209288 0 0.00210887 
v -0.021 0 0.00075 
v -0.0188953 0 0.000638603 
v 0.0112029 0 -0.00301917 
v 0.0156412 0 -0.0112672 
v 0.0118239 0 -0.00268999 
v 0.0166987 0 -0.0104109 
v 0.0176609 0 -0.0094487 
v 0.0125873 0 -0.00196682 
v 0.0123595 0 -0.00223502 
v 0.0129496 0 -0.00136464 
v -0.0150468 0 -0.000429941 
v -0.0132309 0 -0.000351387 
v -0.0129496 0 -0.00136464 
v -0.0164649 0 -0.0019271 
v -0.0127848 0 -0.00167555 
v -0.0115223 0 -0.00287141 
v -0.0118239 0 -0.00268999 
v -0.0108695 0 -0.00313154 
v -0.0112029 0 -0.00301917 
v -0.0145 0 -0.0120083 
v -0.0105258 0 -0.00320719 
v -0.0132876 0 -0.0126261 
v -0.010176 0 -0.00324523 
v -0.0120172 0 -0.0131137 
v -0.0107029 0 -0.0134659 
v 0.00879705 0 -0.00301917 
v 0.00705038 0 -0.00136464 
v 0.00721521 0 -0.00167555 
v -0.0185922 0 0.00121035 
v -0.018452 0 0.0013754 
v -0.0189532 0 0.000429941 
v -0.0209288 0 -0.00210887 
v -0.0188152 0 -0.000839778 
v -0.0188953 0 -0.000638603 
v 0.0115223 0 -0.00287141 
v 0.012104 0 -0.00247703 
v 0.0127848 0 -0.00167555 
v 0.0209288 0 -0.00210887 
v 0.021 0 -0.00075 
v -0.0152863 0 -0.00103111 
v -0.0154078 0 -0.00121035 
v -0.0150117 0 -0.000216238 
v -0.0156412 0 -0.0112672 
v -0.0129496 0 0.00136464 
v -0.0127848 0 0.00167555 
v -0.0151047 0 0.000638603 
v -0.0150468 0 0.000429941 
v -0.013174 0 0.000698654 
v -0.0188152 0 0.000839778 
v -0.0187137 0 0.00103111 
v -0.0189883 0 0.000216238 
v -0.021 0 -0.00075 
v -0.019 0 -2.44929e-19 
v -0.0187137 0 -0.00103111 
v 0.01325 0 0 
v 0.0132309 0 0.000351387 
v 0.0130799 0 0.00103773 
v 0.013174 0 0.000698654 
v 0.0185172 0 -0.00839121 
v 0.0192583 0 -0.00725 
v 0.0198761 0 -0.00603758 
v 0.021 0 0.00075 
v -0.0160632 0 -0.00176702 
v -0.0162597 0 -0.00185795 
v -0.0157052 0 -0.00152432 
v -0.0158776 0 -0.00165538 
v -0.015548 0 -0.0013754 
v -0.0151848 0 -0.000839778 
v -0.012104 0 -0.00247703 
v -0.0123595 0 -0.00223502 
v -0.0130799 0 0.00103773 
v -0.0150117 0 0.000216238 
v -0.0132309 0 0.000351387 
v 0.0129496 0 0.00136464 
v 0.0125873 0 0.00196682 
v 0.0127848 0 0.00167555 
v 0.0123595 0 0.00223502 
v 0.0203637 0 -0.00476722 
v 0.0207159 0 -0.00345285 
v -0.015 0 0 
v -0.01325 0 -3.9801e-19 
v -0.0125873 0 0.00196682 
v -0.0189532 0 -0.000429941 
v -0.0189883 0 -0.000216238 
v -0.0185922 0 -0.00121035 
v -0.0175351 0 -0.0019271 
v -0.0177403 0 -0.00185795 
v -0.0198761 0 -0.00603758 
v -0.0168917 0 -0.00199707 
v -0.0207159 0 -0.00345285 
v -0.018452 0 -0.0013754 
v -0.0182948 0 -0.00152432 
v -0.0179368 0 -0.00176702 
v -0.0181224 0 -0.00165538 
v -0.0203637 0 -0.00476722 
v -0.0192583 0 -0.00725 
v -0.0173236 0 -0.00197365 
v -0.0171083 0 -0.00199707 
v -0.0185172 0 -0.00839121 
v -0.0176609 0 -0.0094487 
v 0.021 0.02 0.00075 
v 0.021 0.02 -0.00075 
v -0.008 0.02 -0.01375 
v 0.008 0.02 -0.01375 
v -0.021 0.02 -0.00075 
v -0.021 0.02 0.00075 
v 0.008 0.02 0.01375 
v -0.008 0.02 0.01375 
v 0.0209288 0.02 -0.00210887 
v 0.0207159 0.02 -0.00345285 
v 0.0203637 0.02 -0.00476722 
v 0.0198761 0.02 -0.00603758 
v 0.0192583 0.02 -0.00725 
v 0.0185172 0.02 -0.00839121 
v 0.0176609 0.02 -0.0094487 
v 0.0166987 0.02 -0.0104109 
v 0.0156412 0.02 -0.0112672 
v 0.0145 0.02 -0.0120083 
v 0.0132876 0.02 -0.0126261 
v 0.0120172 0.02 -0.0131137 
v 0.0107029 0.02 -0.0134659 
v 0.00935887 0.02 -0.0136788 
v 0.0209288 0.02 0.00210887 
v 0.0207159 0.02 0.00345285 
v 0.0203637 0.02 0.00476722 
v 0.0198761 0.02 0.00603758 
v 0.0192583 0.02 0.00725 
v 0.0185172 0.02 0.00839121 
v 0.0176609 0.02 0.0094487 
v 0.0166987 0.02 0.0104109 
v 0.0156412 0.02 0.0112672 
v 0.0145 0.02 0.0120083 
v 0.0132876 0.02 0.0126261 
v 0.0120172 0.02 0.0131137 
v 0.0107029 0.02 0.0134659 
v 0.00935887 0.02 0.0136788 
v -0.0209288 0.02 0.00210887 
v -0.0207159 0.02 0.00345285 
v -0.0203637 0.02 0.00476722 
v -0.0198761 0.02 0.00603758 
v -0.0192583 0.02 0.00725 
v -0.0185172 0.02 0.00839121 
v -0.0176609 0.02 0.0094487 
v -0.0166987 0.02 0.0104109 
v -0.0156412 0.02 0.0112672 
v -0.0145 0.02 0.0120083 
v -0.0132876 0.02 0.0126261 
v -0.0120172 0.02 0.0131137 
v -0.0107029 0.02 0.0134659 
v -0.00935887 0.02 0.0136788 
v -0.0209288 0.02 -0.00210887 
v -0.0207159 0.02 -0.00345285 
v -0.0203637 0.02 -0.00476722 
v -0.0198761 0.02 -0.00603758 
v -0.0192583 0.02 -0.00725 
v -0.0185172 0.02 -0.00839121 
v -0.0176609 0.02 -0.0094487 
v -0.0166987 0.02 -0.0104109 
v -0.0156412 0.02 -0.0112672 
v -0.0145 0.02 -0.0120083 
v -0.0132876 0.02 -0.0126261 
v -0.0120172 0.02 -0.0131137 
v -0.0107029 0.02 -0.0134659 
v -0.00935887 0.02 -0.0136788 
v -0.0150117 0.008 0.000216238 
v -0.015 0.008 -7.34788e-19 
v -0.0150468 0.008 0.000429941 
v -0.0151047 0.008 0.000638603 
v -0.0151848 0.008 0.000839778 
v -0.0152863 0.008 0.00103111 
v -0.0154078 0.008 0.00121035 
v -0.015548 0.008 0.0013754 
v -0.0157052 0.008 0.00152432 
v -0.0158776 0.008 0.00165538 
v -0.0160632 0.008 0.00176702 
v -0.0162597 0.008 0.00185795 
v -0.0164649 0.008 0.0019271 
v -0.0166764 0.008 0.00197365 
v -0.0168917 0.008 0.00199707 
v -0.0171083 0.008 0.00199707 
v -0.0173236 0.008 0.00197365 
v -0.0175351 0.008 0.0019271 
v -0.0177403 0.008 0.00185795 
v -0.0179368 0.008 0.00176702 
v -0.0181224 0.008 0.00165538 
v -0.0182948 0.008 0.00152432 
v -0.018452 0.008 0.0013754 
v -0.0185922 0.008 0.00121035 
v -0.0187137 0.008 0.00103111 
v -0.0188152 0.008 0.000839778 
v -0.0188953 0.008 0.000638603 
v -0.0189532 0.008 0.000429941 
v -0.0189883 0.008 0.000216238 
v -0.019 0.008 0 
v -0.0189883 0.008 -0.000216238 
v -0.0189532 0.008 -0.000429941 
v -0.0188953 0.008 -0.000638603 
v -0.0188152 0.008 -0.000839778 
v -0.0187137 0.008 -0.00103111 
v -0.0185922 0.008 -0.00121035 
v -0.018452 0.008 -0.0013754 
v -0.0182948 0.008 -0.00152432 
v -0.0181224 0.008 -0.00165538 
v -0.0179368 0.008 -0.00176702 
v -0.0177403 0.008 -0.00185795 
v -0.0175351 0.008 -0.0019271 
v -0.0173236 0.008 -0.00197365 
v -0.0171083 0.008 -0.00199707 
v -0.0168917 0.008 -0.00199707 
v -0.0166764 0.008 -0.00197365 
v -0.0164649 0.008 -0.0019271 
v -0.0162597 0.008 -0.00185795 
v -0.0160632 0.008 -0.00176702 
v -0.0158776 0.008 -0.00165538 
v -0.0157052 0.008 -0.00152432 
v -0.015548 0.008 -0.0013754 
v -0.0154078 0.008 -0.00121035 
v -0.0152863 0.008 -0.00103111 
v -0.0151848 0.008 -0.000839778 
v -0.0151047 0.008 -0.000638603 
v -0.0150468 0.008 -0.000429941 
v -0.0150117 0.008 -0.000216238 
v -0.017 0.00920172 0 
v 0.0132309 0.015 0.000351387 
v 0.01325 0.015 7.9602e-19 
v 0.013174 0.015 0.000698654 
v 0.0130799 0.015 0.00103773 
v 0.0129496 0.015 0.00136464 
v 0.0127848 0.015 0.00167555 
v 0.0125873 0.015 0.00196682 
v 0.0123595 0.015 0.00223502 
v 0.012104 0.015 0.00247703 
v 0.0118239 0.015 0.00268999 
v 0.0115223 0.015 0.00287141 
v 0.0112029 0.015 0.00301917 
v 0.0108695 0.015 0.00313154 
v 0.0105258 0.015 0.00320719 
v 0.010176 0.015 0.00324523 
v 0.00982405 0.015 0.00324523 
v 0.00947421 0.015 0.00320719 
v 0.00913053 0.015 0.00313154 
v 0.00879705 0.015 0.00301917 
v 0.00847767 0.015 0.00287141 
v 0.00817614 0.015 0.00268999 
v 0.00789599 0.015 0.00247703 
v 0.00764051 0.015 0.00223502 
v 0.0074127 0.015 0.00196682 
v 0.00721521 0.015 0.00167555 
v 0.00705038 0.015 0.00136464 
v 0.00692013 0.015 0.00103773 
v 0.00682598 0.015 0.000698654 
v 0.00676905 0.015 0.000351387 
v 0.00675 0.015 -3.9801e-19 
v 0.00676905 0.015 -0.000351387 
v 0.00682598 0.015 -0.000698654 
v 0.00692013 0.015 -0.00103773 
v 0.00705038 0.015 -0.00136464 
v 0.00721521 0.015 -0.00167555 
v 0.0074127 0.015 -0.00196682 
v 0.00764051 0.015 -0.00223502 
v 0.00789599 0.015 -0.00247703 
v 0.00817614 0.015 -0.00268999 
v 0.00847767 0.015 -0.00287141 
v 0.00879705 0.015 -0.00301917 
v 0.00913053 0.015 -0.00313154 
v 0.00947421 0.015 -0.00320719 
v 0.00982405 0.015 -0.00324523 
v 0.010176 0.015 -0.00324523 
v 0.0105258 0.015 -0.00320719 
v 0.0108695 0.015 -0.00313154 
v 0.0112029 0.015 -0.00301917 
v 0.0115223 0.015 -0.00287141 
v 0.0118239 0.015 -0.00268999 
v 0.012104 0.015 -0.00247703 
v 0.0123595 0.015 -0.00223502 
v 0.0125873 0.015 -0.00196682 
v 0.0127848 0.015 -0.00167555 
v 0.0129496 0.015 -0.00136464 
v 0.0130799 0.015 -0.00103773 
v 0.013174 0.015 -0.000698654 
v 0.0132309 0.015 -0.000351387 
v 0.0107963 0.015 0.00150197 
v 0.010954 0.015 0.00140707 
v 0.0106292 0.015 0.00157926 
v 0.0111006 0.015 0.00129568 
v 0.0104548 0.015 0.00163803 
v 0.010275 0.015 0.00167761 
v 0.010092 0.015 0.00169751 
v 0.00990796 0.015 0.00169751 
v 0.00972497 0.015 0.00167761 
v 0.0095452 0.015 0.00163803 
v 0.00937077 0.015 0.00157926 
v 0.00920371 0.015 0.00150197 
v 0.00904598 0.015 0.00140707 
v 0.00889944 0.015 0.00129568 
v 0.00876581 0.015 0.00116909 
v 0.00864664 0.015 0.0010288 
v 0.00920371 0.015 -0.00150197 
v 0.00904598 0.015 -0.00140707 
v 0.00937077 0.015 -0.00157926 
v 0.0104548 0.015 -0.00163803 
v 0.0106292 0.015 -0.00157926 
v 0.0111006 0.015 -0.00129568 
v 0.010954 0.015 -0.00140707 
v 0.0112342 0.015 -0.00116909 
v 0.0113534 0.015 -0.0010288 
v 0.0114567 0.015 -0.000876442 
v 0.00876581 0.015 -0.00116909 
v 0.00864664 0.015 -0.0010288 
v 0.00889944 0.015 -0.00129568 
v 0.0095452 0.015 -0.00163803 
v 0.00972497 0.015 -0.00167761 
v 0.00990796 0.015 -0.00169751 
v 0.0107963 0.015 -0.00150197 
v 0.00854334 0.015 0.000876442 
v 0.00845712 0.015 0.000713811 
v 0.00854334 0.015 -0.000876442 
v 0.010275 0.015 -0.00167761 
v 0.011611 0.015 -0.000542813 
v 0.0115429 0.015 -0.000713811 
v 0.0116603 0.015 -0.00036545 
v 0.00838899 0.015 0.000542813 
v 0.00833975 0.015 0.00036545 
v 0.00830997 0.015 0.000183802 
v 0.0083 0.015 -2.0819e-19 
v 0.00830997 0.015 -0.000183802 
v 0.00833975 0.015 -0.00036545 
v 0.00838899 0.015 -0.000542813 
v 0.00845712 0.015 -0.000713811 
v 0.010092 0.015 -0.00169751 
v 0.01169 0.015 -0.000183802 
v 0.0117 0.015 0 
v 0.01169 0.015 0.000183802 
v 0.0116603 0.015 0.00036545 
v 0.011611 0.015 0.000542813 
v 0.0115429 0.015 0.000713811 
v 0.0112342 0.015 0.00116909 
v 0.0113534 0.015 0.0010288 
v 0.0114567 0.015 0.000876442 
v 0.01169 0.02 0.000183802 
v 0.0117 0.02 4.1638e-19 
v 0.0116603 0.02 0.00036545 
v 0.011611 0.02 0.000542813 
v 0.0115429 0.02 0.000713811 
v 0.0114567 0.02 0.000876442 
v 0.0113534 0.02 0.0010288 
v 0.0112342 0.02 0.00116909 
v 0.0111006 0.02 0.00129568 
v 0.010954 0.02 0.00140707 
v 0.0107963 0.02 0.00150197 
v 0.0106292 0.02 0.00157926 
v 0.0104548 0.02 0.00163803 
v 0.010275 0.02 0.00167761 
v 0.010092 0.02 0.00169751 
v 0.00990796 0.02 0.00169751 
v 0.00972497 0.02 0.00167761 
v 0.0095452 0.02 0.00163803 
v 0.00937077 0.02 0.00157926 
v 0.00920371 0.02 0.00150197 
v 0.00904598 0.02 0.00140707 
v 0.00889944 0.02 0.00129568 
v 0.00876581 0.02 0.00116909 
v 0.00864664 0.02 0.0010288 
v 0.00854334 0.02 0.000876442 
v 0.00845712 0.02 0.000713811 
v 0.00838899 0.02 0.000542813 
v 0.00833975 0.02 0.00036545 
v 0.00830997 0.02 0.000183802 
v 0.0083 0.02 -2.0819e-19 
v 0.00830997 0.02 -0.000183802 
v 0.00833975 0.02 -0.00036545 
v 0.00838899 0.02 -0.000542813 
v 0.00845712 0.02 -0.000713811 
v 0.00854334 0.02 -0.000876442 
v 0.00864664 0.02 -0.0010288 
v 0.00876581 0.02 -0.00116909 
v 0.00889944 0.02 -0.00129568 
v 0.00904598 0.02 -0.00140707 
v 0.00920371 0.02 -0.00150197 
v 0.00937077 0.02 -0.00157926 
v 0.0095452 0.02 -0.00163803 
v 0.00972497 0.02 -0.00167761 
v 0.00990796 0.02 -0.00169751 
v 0.010092 0.02 -0.00169751 
v 0.010275 0.02 -0.00167761 
v 0.0104548 0.02 -0.00163803 
v 0.0106292 0.02 -0.00157926 
v 0.0107963 0.02 -0.00150197 
v 0.010954 0.02 -0.00140707 
v 0.0111006 0.02 -0.00129568 
v 0.0112342 0.02 -0.00116909 
v 0.0113534 0.02 -0.0010288 
v 0.0114567 0.02 -0.000876442 
v 0.0115429 0.02 -0.000713811 
v 0.011611 0.02 -0.000542813 
v 0.0116603 0.02 -0.00036545 
v 0.01169 0.02 -0.000183802 
v -0.00876581 0.02 -0.00116909 
v -0.00864664 0.02 -0.0010288 
v -0.00889944 0.02 -0.00129568 
v -0.00920371 0.02 -0.00150197 
v -0.00904598 0.02 -0.00140707 
v -0.0095452 0.02 -0.00163803 
v -0.00937077 0.02 -0.00157926 
v -0.00972497 0.02 -0.00167761 
v -0.010092 0.02 -0.00169751 
v -0.00990796 0.02 -0.00169751 
v -0.0104548 0.02 -0.00163803 
v -0.010275 0.02 -0.00167761 
v -0.010954 0.02 -0.00140707 
v -0.0107963 0.02 -0.00150197 
v -0.0106292 0.02 -0.00157926 
v -0.0113534 0.02 -0.0010288 
v -0.0112342 0.02 -0.00116909 
v -0.0083 0.02 4.1638e-19 
v -0.00830997 0.02 -0.000183802 
v -0.0114567 0.02 -0.000876442 
v -0.00830997 0.02 0.000183802 
v -0.00845712 0.02 -0.000713811 
v -0.00838899 0.02 -0.000542813 
v -0.0111006 0.02 -0.00129568 
v -0.00833975 0.02 0.00036545 
v -0.00833975 0.02 -0.00036545 
v -0.00854334 0.02 -0.000876442 
v -0.011611 0.02 -0.000542813 
v -0.0116603 0.02 -0.00036545 
v -0.0115429 0.02 -0.000713811 
v -0.0112342 0.02 0.00116909 
v -0.0113534 0.02 0.0010288 
v -0.0111006 0.02 0.00129568 
v -0.010954 0.02 0.00140707 
v -0.0107963 0.02 0.00150197 
v -0.01169 0.02 -0.000183802 
v -0.01169 0.02 0.000183802 
v -0.0117 0.02 -2.0819e-19 
v -0.0116603 0.02 0.00036545 
v -0.0106292 0.02 0.00157926 
v -0.0104548 0.02 0.00163803 
v -0.00854334 0.02 0.000876442 
v -0.0114567 0.02 0.000876442 
v -0.0115429 0.02 0.000713811 
v -0.010275 0.02 0.00167761 
v -0.010092 0.02 0.00169751 
v -0.011611 0.02 0.000542813 
v -0.00990796 0.02 0.00169751 
v -0.00838899 0.02 0.000542813 
v -0.00904598 0.02 0.00140707 
v -0.00920371 0.02 0.00150197 
v -0.00972497 0.02 0.00167761 
v -0.00937077 0.02 0.00157926 
v -0.0095452 0.02 0.00163803 
v -0.00864664 0.02 0.0010288 
v -0.00845712 0.02 0.000713811 
v -0.00889944 0.02 0.00129568 
v -0.00876581 0.02 0.00116909 
v -0.0083 0.015 0 
v -0.00830997 0.015 0.000183802 
v -0.00833975 0.015 0.00036545 
v -0.00838899 0.015 0.000542813 
v -0.00845712 0.015 0.000713811 
v -0.00854334 0.015 0.000876442 
v -0.00864664 0.015 0.0010288 
v -0.00876581 0.015 0.00116909 
v -0.00889944 0.015 0.00129568 
v -0.00904598 0.015 0.00140707 
v -0.00920371 0.015 0.00150197 
v -0.00937077 0.015 0.00157926 
v -0.0095452 0.015 0.00163803 
v -0.00972497 0.015 0.00167761 
v -0.00990796 0.015 0.00169751 
v -0.010092 0.015 0.00169751 
v -0.010275 0.015 0.00167761 
v -0.0104548 0.015 0.00163803 
v -0.0106292 0.015 0.00157926 
v -0.0107963 0.015 0.00150197 
v -0.010954 0.015 0.00140707 
v -0.0111006 0.015 0.00129568 
v -0.0112342 0.015 0.00116909 
v -0.0113534 0.015 0.0010288 
v -0.0114567 0.015 0.000876442 
v -0.0115429 0.015 0.000713811 
v -0.011611 0.015 0.000542813 
v -0.0116603 0.015 0.00036545 
v -0.01169 0.015 0.000183802 
v -0.0117 0.015 -2.0819e-19 
v -0.01169 0.015 -0.000183802 
v -0.0116603 0.015 -0.00036545 
v -0.011611 0.015 -0.000542813 
v -0.0115429 0.015 -0.000713811 
v -0.0114567 0.015 -0.000876442 
v -0.0113534 0.015 -0.0010288 
v -0.0112342 0.015 -0.00116909 
v -0.0111006 0.015 -0.00129568 
v -0.010954 0.015 -0.00140707 
v -0.0107963 0.015 -0.00150197 
v -0.0106292 0.015 -0.00157926 
v -0.0104548 0.015 -0.00163803 
v -0.010275 0.015 -0.00167761 
v -0.010092 0.015 -0.00169751 
v -0.00990796 0.015 -0.00169751 
v -0.00972497 0.015 -0.00167761 
v -0.0095452 0.015 -0.00163803 
v -0.00937077 0.015 -0.00157926 
v -0.00920371 0.015 -0.00150197 
v -0.00904598 0.015 -0.00140707 
v -0.00889944 0.015 -0.00129568 
v -0.00876581 0.015 -0.00116909 
v -0.00864664 0.015 -0.0010288 
v -0.00854334 0.015 -0.000876442 
v -0.00845712 0.015 -0.000713811 
v -0.00838899 0.015 -0.000542813 
v -0.00833975 0.015 -0.00036545 
v -0.00830997 0.015 -0.000183802 
v -0.00847767 0.015 0.00287141 
v -0.00879705 0.015 0.00301917 
v -0.00817614 0.015 0.00268999 
v -0.00913053 0.015 0.00313154 
v -0.00947421 0.015 0.00320719 
v -0.00982405 0.015 0.00324523 
v -0.010176 0.015 0.00324523 
v -0.0105258 0.015 0.00320719 
v -0.0108695 0.015 0.00313154 
v -0.0112029 0.015 0.00301917 
v -0.0115223 0.015 0.00287141 
v -0.0118239 0.015 0.00268999 
v -0.012104 0.015 0.00247703 
v -0.0123595 0.015 0.00223502 
v -0.0125873 0.015 0.00196682 
v -0.0115223 0.015 -0.00287141 
v -0.0112029 0.015 -0.00301917 
v -0.00947421 0.015 -0.00320719 
v -0.00913053 0.015 -0.00313154 
v -0.00879705 0.015 -0.00301917 
v -0.00789599 0.015 -0.00247703 
v -0.00764051 0.015 -0.00223502 
v -0.0074127 0.015 -0.00196682 
v -0.00721521 0.015 -0.00167555 
v -0.0123595 0.015 -0.00223502 
v -0.012104 0.015 -0.00247703 
v -0.0108695 0.015 -0.00313154 
v -0.0105258 0.015 -0.00320719 
v -0.010176 0.015 -0.00324523 
v -0.00847767 0.015 -0.00287141 
v -0.0127848 0.015 0.00167555 
v -0.0129496 0.015 0.00136464 
v -0.0125873 0.015 -0.00196682 
v -0.00982405 0.015 -0.00324523 
v -0.00817614 0.015 -0.00268999 
v -0.00692013 0.015 -0.00103773 
v -0.00682598 0.015 -0.000698654 
v -0.0130799 0.015 0.00103773 
v -0.013174 0.015 0.000698654 
v -0.0132309 0.015 0.000351387 
v -0.01325 0.015 -3.9801e-19 
v -0.0132309 0.015 -0.000351387 
v -0.013174 0.015 -0.000698654 
v -0.0130799 0.015 -0.00103773 
v -0.0129496 0.015 -0.00136464 
v -0.0118239 0.015 -0.00268999 
v -0.00705038 0.015 -0.00136464 
v -0.00676905 0.015 -0.000351387 
v -0.00675 0.015 7.9602e-19 
v -0.00676905 0.015 0.000351387 
v -0.00682598 0.015 0.000698654 
v -0.0127848 0.015 -0.00167555 
v -0.00692013 0.015 0.00103773 
v -0.00705038 0.015 0.00136464 
v -0.00764051 0.015 0.00223502 
v -0.00789599 0.015 0.00247703 
v -0.00721521 0.015 0.00167555 
v -0.0074127 0.015 0.00196682 
vn 0.514283 -0.857167 -0.0278836 
vn 0.512019 -0.857167 -0.0556854 
vn 0.515038 -0.857167 0 
vn 0.508253 -0.857167 -0.0833239 
vn 0.502997 -0.857167 -0.110718 
vn 0.496265 -0.857167 -0.137787 
vn 0.488077 -0.857167 -0.164452 
vn 0.478458 -0.857167 -0.190635 
vn 0.467436 -0.857167 -0.216259 
vn 0.455042 -0.857167 -0.241248 
vn 0.441314 -0.857167 -0.26553 
vn 0.426291 -0.857167 -0.289033 
vn 0.410018 -0.857167 -0.311688 
vn 0.392542 -0.857167 -0.333429 
vn 0.373915 -0.857167 -0.354191 
vn 0.354191 -0.857167 -0.373915 
vn 0.333429 -0.857167 -0.392542 
vn 0.311688 -0.857167 -0.410018 
vn 0.289033 -0.857167 -0.426291 
vn 0.26553 -0.857167 -0.441314 
vn 0.241248 -0.857167 -0.455042 
vn 0.216259 -0.857167 -0.467436 
vn 0.190635 -0.857167 -0.478458 
vn 0.164452 -0.857167 -0.488077 
vn 0.137787 -0.857167 -0.496265 
vn 0.110718 -0.857167 -0.502997 
vn 0.0833239 -0.857167 -0.508253 
vn 0.0556854 -0.857167 -0.512019 
vn 0.0278836 -0.857167 -0.514283 
vn -1.0095e-15 -0.857167 -0.515038 
vn -0.0278836 -0.857167 -0.514283 
vn -0.0556854 -0.857167 -0.512019 
vn -0.0833239 -0.857167 -0.508253 
vn -0.110718 -0.857167 -0.502997 
vn -0.137787 -0.857167 -0.496265 
vn -0.164452 -0.857167 -0.488077 
vn -0.190635 -0.857167 -0.478458 
vn -0.216259 -0.857167 -0.467436 
vn -0.241248 -0.857167 -0.455042 
vn -0.26553 -0.857167 -0.441314 
vn -0.289033 -0.857167 -0.426291 
vn -0.311688 -0.857167 -0.410018 
vn -0.333429 -0.857167 -0.392542 
vn -0.354191 -0.857167 -0.373915 
vn -0.373915 -0.857167 -0.354191 
vn -0.392542 -0.857167 -0.333429 
vn -0.410018 -0.857167 -0.311688 
vn -0.426291 -0.857167 -0.289033 
vn -0.441314 -0.857167 -0.26553 
vn -0.455042 -0.857167 -0.241248 
vn -0.467436 -0.857167 -0.216259 
vn -0.478458 -0.857167 -0.190635 
vn -0.488077 -0.857167 -0.164452 
vn -0.496265 -0.857167 -0.137787 
vn -0.502997 -0.857167 -0.110718 
vn -0.508253 -0.857167 -0.0833239 
vn -0.512019 -0.857167 -0.0556854 
vn -0.514283 -0.857167 -0.0278836 
vn -0.515038 -0.857167 -1.07214e-16 
vn -0.514283 -0.857167 0.0278836 
vn -0.512019 -0.857167 0.0556854 
vn -0.508253 -0.857167 0.0833239 
vn -0.502997 -0.857167 0.110718 
vn -0.496265 -0.857167 0.137787 
vn -0.488077 -0.857167 0.164452 
vn -0.478458 -0.857167 0.190635 
vn -0.467436 -0.857167 0.216259 
vn -0.455042 -0.857167 0.241248 
vn -0.441314 -0.857167 0.26553 
vn -0.426291 -0.857167 0.289033 
vn -0.410018 -0.857167 0.311688 
vn -0.392542 -0.857167 0.333429 
vn -0.373915 -0.857167 0.354191 
vn -0.354191 -0.857167 0.373915 
vn -0.333429 -0.857167 0.392542 
vn -0.311688 -0.857167 0.410018 
vn -0.289033 -0.857167 0.426291 
vn -0.26553 -0.857167 0.441314 
vn -0.241248 -0.857167 0.455042 
vn -0.216259 -0.857167 0.467436 
vn -0.190635 -0.857167 0.478458 
vn -0.164452 -0.857167 0.488077 
vn -0.137787 -0.857167 0.496265 
vn -0.110718 -0.857167 0.502997 
vn -0.0833239 -0.857167 0.508253 
vn -0.0556854 -0.857167 0.512019 
vn -0.0278836 -0.857167 0.514283 
vn -1.97186e-16 -0.857167 0.515038 
vn 0.0278836 -0.857167 0.514283 
vn 0.0556854 -0.857167 0.512019 
vn 0.0833239 -0.857167 0.508253 
vn 0.110718 -0.857167 0.502997 
vn 0.137787 -0.857167 0.496265 
vn 0.164452 -0.857167 0.488077 
vn 0.190635 -0.857167 0.478458 
vn 0.216259 -0.857167 0.467436 
vn 0.241248 -0.857167 0.455042 
vn 0.26553 -0.857167 0.441314 
vn 0.289033 -0.857167 0.426291 
vn 0.311688 -0.857167 0.410018 
vn 0.333429 -0.857167 0.392542 
vn 0.354191 -0.857167 0.373915 
vn 0.373915 -0.857167 0.354191 
vn 0.392542 -0.857167 0.333429 
vn 0.410018 -0.857167 0.311688 
vn 0.426291 -0.857167 0.289033 
vn 0.441314 -0.857167 0.26553 
vn 0.455042 -0.857167 0.241248 
vn 0.467436 -0.857167 0.216259 
vn 0.478458 -0.857167 0.190635 
vn 0.488077 -0.857167 0.164452 
vn 0.496265 -0.857167 0.137787 
vn 0.502997 -0.857167 0.110718 
vn 0.508253 -0.857167 0.0833239 
vn 0.512019 -0.857167 0.0556854 
vn 0.514283 -0.857167 0.0278836 
vn -0.994138 0 -0.108119 
vn -1 0 -2.44929e-16 
vn -0.976621 0 -0.21497 
vn -0.994138 0 -0.108119 
vn -0.947653 0 -0.319302 
vn -0.976621 0 -0.21497 
vn -0.907575 0 -0.419889 
vn -0.947653 0 -0.319302 
vn -0.856857 0 -0.515554 
vn -0.907575 0 -0.419889 
vn -0.796093 0 -0.605174 
vn -0.856857 0 -0.515554 
vn -0.725995 0 -0.687699 
vn -0.796093 0 -0.605174 
vn -0.647386 0 -0.762162 
vn -0.725995 0 -0.687699 
vn -0.561187 0 -0.827689 
vn -0.647386 0 -0.762162 
vn -0.468408 0 -0.883512 
vn -0.561187 0 -0.827689 
vn -0.370138 0 -0.928977 
vn -0.468408 0 -0.883512 
vn -0.267528 0 -0.96355 
vn -0.370138 0 -0.928977 
vn -0.161782 0 -0.986827 
vn -0.267528 0 -0.96355 
vn -0.0541389 0 -0.998533 
vn -0.161782 0 -0.986827 
vn 0.0541389 0 -0.998533 
vn -0.0541389 0 -0.998533 
vn 0.161782 0 -0.986827 
vn 0.0541389 0 -0.998533 
vn 0.267528 0 -0.96355 
vn 0.161782 0 -0.986827 
vn 0.370138 0 -0.928977 
vn 0.267528 0 -0.96355 
vn 0.468408 0 -0.883512 
vn 0.370138 0 -0.928977 
vn 0.561187 0 -0.827689 
vn 0.468408 0 -0.883512 
vn 0.647386 0 -0.762162 
vn 0.561187 0 -0.827689 
vn 0.725995 0 -0.687699 
vn 0.647386 0 -0.762162 
vn 0.796093 0 -0.605174 
vn 0.725995 0 -0.687699 
vn 0.856857 0 -0.515554 
vn 0.796093 0 -0.605174 
vn 0.907575 0 -0.419889 
vn 0.856857 0 -0.515554 
vn 0.947653 0 -0.319302 
vn 0.907575 0 -0.419889 
vn 0.976621 0 -0.21497 
vn 0.947653 0 -0.319302 
vn 0.994138 0 -0.108119 
vn 0.976621 0 -0.21497 
vn 1 0 1.22465e-16 
vn 0.994138 0 -0.108119 
vn 0.994138 0 0.108119 
vn 1 0 1.22465e-16 
vn 0.976621 0 0.21497 
vn 0.994138 0 0.108119 
vn 0.947653 0 0.319302 
vn 0.976621 0 0.21497 
vn 0.907575 0 0.419889 
vn 0.947653 0 0.319302 
vn 0.856857 0 0.515554 
vn 0.907575 0 0.419889 
vn 0.796093 0 0.605174 
vn 0.856857 0 0.515554 
vn 0.725995 0 0.687699 
vn 0.796093 0 0.605174 
vn 0.647386 0 0.762162 
vn 0.725995 0 0.687699 
vn 0.561187 0 0.827689 
vn 0.647386 0 0.762162 
vn 0.468408 0 0.883512 
vn 0.561187 0 0.827689 
vn 0.370138 0 0.928977 
vn 0.468408 0 0.883512 
vn 0.267528 0 0.96355 
vn 0.370138 0 0.928977 
vn 0.161782 0 0.986827 
vn 0.267528 0 0.96355 
vn 0.0541389 0 0.998533 
vn 0.161782 0 0.986827 
vn -0.0541389 0 0.998533 
vn 0.0541389 0 0.998533 
vn -0.161782 0 0.986827 
vn -0.0541389 0 0.998533 
vn -0.267528 0 0.96355 
vn -0.161782 0 0.986827 
vn -0.370138 0 0.928977 
vn -0.267528 0 0.96355 
vn -0.468408 0 0.883512 
vn -0.370138 0 0.928977 
vn -0.561187 0 0.827689 
vn -0.468408 0 0.883512 
vn -0.647386 0 0.762162 
vn -0.561187 0 0.827689 
vn -0.725995 0 0.687699 
vn -0.647386 0 0.762162 
vn -0.796093 0 0.605174 
vn -0.725995 0 0.687699 
vn -0.856857 0 0.515554 
vn -0.796093 0 0.605174 
vn -0.907575 0 0.419889 
vn -0.856857 0 0.515554 
vn -0.947653 0 0.319302 
vn -0.907575 0 0.419889 
vn -0.976621 0 0.21497 
vn -0.947653 0 0.319302 
vn -0.994138 0 0.108119 
vn -0.976621 0 0.21497 
vn 0 -1 0 
vn 1 0 -1.26162e-16 
vn 0 0 -1 
vn -1 0 1.26162e-16 
vn 0 0 1 
vn 1 0 0 
vn 0.994522 0 -0.104528 
vn 0.978148 0 -0.207912 
vn 0.951057 0 -0.309017 
vn 0.913545 0 -0.406737 
vn 0.866025 0 -0.5 
vn 0.809017 0 -0.587785 
vn 0.743145 0 -0.669131 
vn 0.669131 0 -0.743145 
vn 0.587785 0 -0.809017 
vn 0.5 0 -0.866025 
vn 0.406737 0 -0.913545 
vn 0.309017 0 -0.951057 
vn 0.207912 0 -0.978148 
vn 0.104528 0 -0.994522 
vn 6.12323e-17 0 -1 
vn 1 0 -1.22465e-16 
vn 0.994522 0 0.104528 
vn 0.978148 0 0.207912 
vn 0.951057 0 0.309017 
vn 0.913545 0 0.406737 
vn 0.866025 0 0.5 
vn 0.809017 0 0.587785 
vn 0.743145 0 0.669131 
vn 0.669131 0 0.743145 
vn 0.587785 0 0.809017 
vn 0.5 0 0.866025 
vn 0.406737 0 0.913545 
vn 0.309017 0 0.951057 
vn 0.207912 0 0.978148 
vn 0.104528 0 0.994522 
vn 1.83697e-16 0 1 
vn -1 0 -1.22465e-16 
vn -0.994522 0 0.104528 
vn -0.978148 0 0.207912 
vn -0.951057 0 0.309017 
vn -0.913545 0 0.406737 
vn -0.866025 0 0.5 
vn -0.809017 0 0.587785 
vn -0.743145 0 0.669131 
vn -0.669131 0 0.743145 
vn -0.587785 0 0.809017 
vn -0.5 0 0.866025 
vn -0.406737 0 0.913545 
vn -0.309017 0 0.951057 
vn -0.207912 0 0.978148 
vn -0.104528 0 0.994522 
vn -1.83697e-16 0 1 
vn -1 0 0 
vn -0.994522 0 -0.104528 
vn -0.978148 0 -0.207912 
vn -0.951057 0 -0.309017 
vn -0.913545 0 -0.406737 
vn -0.866025 0 -0.5 
vn -0.809017 0 -0.587785 
vn -0.743145 0 -0.669131 
vn -0.669131 0 -0.743145 
vn -0.587785 0 -0.809017 
vn -0.5 0 -0.866025 
vn -0.406737 0 -0.913545 
vn -0.309017 0 -0.951057 
vn -0.207912 0 -0.978148 
vn -0.104528 0 -0.994522 
vn -6.12323e-17 0 -1 
vn -0.994138 0 -0.108119 
vn -1 0 -2.44929e-16 
vn -0.976621 0 -0.21497 
vn -0.994138 0 -0.108119 
vn -0.947653 0 -0.319302 
vn -0.976621 0 -0.21497 
vn -0.907575 0 -0.419889 
vn -0.947653 0 -0.319302 
vn -0.856857 0 -0.515554 
vn -0.907575 0 -0.419889 
vn -0.796093 0 -0.605174 
vn -0.856857 0 -0.515554 
vn -0.725995 0 -0.687699 
vn -0.796093 0 -0.605174 
vn -0.647386 0 -0.762162 
vn -0.725995 0 -0.687699 
vn -0.561187 0 -0.827689 
vn -0.647386 0 -0.762162 
vn -0.468408 0 -0.883512 
vn -0.561187 0 -0.827689 
vn -0.370138 0 -0.928977 
vn -0.468408 0 -0.883512 
vn -0.267528 0 -0.96355 
vn -0.370138 0 -0.928977 
vn -0.161782 0 -0.986827 
vn -0.267528 0 -0.96355 
vn -0.0541389 0 -0.998533 
vn -0.161782 0 -0.986827 
vn 0.0541389 0 -0.998533 
vn -0.0541389 0 -0.998533 
vn 0.161782 0 -0.986827 
vn 0.0541389 0 -0.998533 
vn 0.267528 0 -0.96355 
vn 0.161782 0 -0.986827 
vn 0.370138 0 -0.928977 
vn 0.267528 0 -0.96355 
vn 0.468408 0 -0.883512 
vn 0.370138 0 -0.928977 
vn 0.561187 0 -0.827689 
vn 0.468408 0 -0.883512 
vn 0.647386 0 -0.762162 
vn 0.561187 0 -0.827689 
vn 0.725995 0 -0.687699 
vn 0.647386 0 -0.762162 
vn 0.796093 0 -0.605174 
vn 0.725995 0 -0.687699 
vn 0.856857 0 -0.515554 
vn 0.796093 0 -0.605174 
vn 0.907575 0 -0.419889 
vn 0.856857 0 -0.515554 
vn 0.947653 0 -0.319302 
vn 0.907575 0 -0.419889 
vn 0.976621 0 -0.21497 
vn 0.947653 0 -0.319302 
vn 0.994138 0 -0.108119 
vn 0.976621 0 -0.21497 
vn 1 0 1.22465e-16 
vn 0.994138 0 -0.108119 
vn 0.994138 0 0.108119 
vn 1 0 1.22465e-16 
vn 0.976621 0 0.21497 
vn 0.994138 0 0.108119 
vn 0.947653 0 0.319302 
vn 0.976621 0 0.21497 
vn 0.907575 0 0.419889 
vn 0.947653 0 0.319302 
vn 0.856857 0 0.515554 
vn 0.907575 0 0.419889 
vn 0.796093 0 0.605174 
vn 0.856857 0 0.515554 
vn 0.725995 0 0.687699 
vn 0.796093 0 0.605174 
vn 0.647386 0 0.762162 
vn 0.725995 0 0.687699 
vn 0.561187 0 0.827689 
vn 0.647386 0 0.762162 
vn 0.468408 0 0.883512 
vn 0.561187 0 0.827689 
vn 0.370138 0 0.928977 
vn 0.468408 0 0.883512 
vn 0.267528 0 0.96355 
vn 0.370138 0 0.928977 
vn 0.161782 0 0.986827 
vn 0.267528 0 0.96355 
vn 0.0541389 0 0.998533 
vn 0.161782 0 0.986827 
vn -0.0541389 0 0.998533 
vn 0.0541389 0 0.998533 
vn -0.161782 0 0.986827 
vn -0.0541389 0 0.998533 
vn -0.267528 0 0.96355 
vn -0.161782 0 0.986827 
vn -0.370138 0 0.928977 
vn -0.267528 0 0.96355 
vn -0.468408 0 0.883512 
vn -0.370138 0 0.928977 
vn -0.561187 0 0.827689 
vn -0.468408 0 0.883512 
vn -0.647386 0 0.762162 
vn -0.561187 0 0.827689 
vn -0.725995 0 0.687699 
vn -0.647386 0 0.762162 
vn -0.796093 0 0.605174 
vn -0.725995 0 0.687699 
vn -0.856857 0 0.515554 
vn -0.796093 0 0.605174 
vn -0.907575 0 0.419889 
vn -0.856857 0 0.515554 
vn -0.947653 0 0.319302 
vn -0.907575 0 0.419889 
vn -0.976621 0 0.21497 
vn -0.947653 0 0.319302 
vn -0.994138 0 0.108119 
vn -0.976621 0 0.21497 
vn 0.514283 -0.857167 -0.0278836 
vn 0.512019 -0.857167 -0.0556854 
vn 0.515038 -0.857167 0 
vn 0.508253 -0.857167 -0.0833239 
vn 0.502997 -0.857167 -0.110718 
vn 0.496265 -0.857167 -0.137787 
vn 0.488077 -0.857167 -0.164452 
vn 0.478458 -0.857167 -0.190635 
vn 0.467436 -0.857167 -0.216259 
vn 0.455042 -0.857167 -0.241248 
vn 0.441314 -0.857167 -0.26553 
vn 0.426291 -0.857167 -0.289033 
vn 0.410018 -0.857167 -0.311688 
vn 0.392542 -0.857167 -0.333429 
vn 0.373915 -0.857167 -0.354191 
vn 0.354191 -0.857167 -0.373915 
vn 0.333429 -0.857167 -0.392542 
vn 0.311688 -0.857167 -0.410018 
vn 0.289033 -0.857167 -0.426291 
vn 0.26553 -0.857167 -0.441314 
vn 0.241248 -0.857167 -0.455042 
vn 0.216259 -0.857167 -0.467436 
vn 0.190635 -0.857167 -0.478458 
vn 0.164452 -0.857167 -0.488077 
vn 0.137787 -0.857167 -0.496265 
vn 0.110718 -0.857167 -0.502997 
vn 0.0833239 -0.857167 -0.508253 
vn 0.0556854 -0.857167 -0.512019 
vn 0.0278836 -0.857167 -0.514283 
vn -1.0095e-15 -0.857167 -0.515038 
vn -0.0278836 -0.857167 -0.514283 
vn -0.0556854 -0.857167 -0.512019 
vn -0.0833239 -0.857167 -0.508253 
vn -0.110718 -0.857167 -0.502997 
vn -0.137787 -0.857167 -0.496265 
vn -0.164452 -0.857167 -0.488077 
vn -0.190635 -0.857167 -0.478458 
vn -0.216259 -0.857167 -0.467436 
vn -0.241248 -0.857167 -0.455042 
vn -0.26553 -0.857167 -0.441314 
vn -0.289033 -0.857167 -0.426291 
vn -0.311688 -0.857167 -0.410018 
vn -0.333429 -0.857167 -0.392542 
vn -0.354191 -0.857167 -0.373915 
vn -0.373915 -0.857167 -0.354191 
vn -0.392542 -0.857167 -0.333429 
vn -0.410018 -0.857167 -0.311688 
vn -0.426291 -0.857167 -0.289033 
vn -0.441314 -0.857167 -0.26553 
vn -0.455042 -0.857167 -0.241248 
vn -0.467436 -0.857167 -0.216259 
vn -0.478458 -0.857167 -0.190635 
vn -0.488077 -0.857167 -0.164452 
vn -0.496265 -0.857167 -0.137787 
vn -0.502997 -0.857167 -0.110718 
vn -0.508253 -0.857167 -0.0833239 
vn -0.512019 -0.857167 -0.0556854 
vn -0.514283 -0.857167 -0.0278836 
vn -0.515038 -0.857167 -1.07214e-16 
vn -0.514283 -0.857167 0.0278836 
vn -0.512019 -0.857167 0.0556854 
vn -0.508253 -0.857167 0.0833239 
vn -0.502997 -0.857167 0.110718 
vn -0.496265 -0.857167 0.137787 
vn -0.488077 -0.857167 0.164452 
vn -0.478458 -0.857167 0.190635 
vn -0.467436 -0.857167 0.216259 
vn -0.455042 -0.857167 0.241248 
vn -0.441314 -0.857167 0.26553 
vn -0.426291 -0.857167 0.289033 
vn -0.410018 -0.857167 0.311688 
vn -0.392542 -0.857167 0.333429 
vn -0.373915 -0.857167 0.354191 
vn -0.354191 -0.857167 0.373915 
vn -0.333429 -0.857167 0.392542 
vn -0.311688 -0.857167 0.410018 
vn -0.289033 -0.857167 0.426291 
vn -0.26553 -0.857167 0.441314 
vn -0.241248 -0.857167 0.455042 
vn -0.216259 -0.857167 0.467436 
vn -0.190635 -0.857167 0.478458 
vn -0.164452 -0.857167 0.488077 
vn -0.137787 -0.857167 0.496265 
vn -0.110718 -0.857167 0.502997 
vn -0.0833239 -0.857167 0.508253 
vn -0.0556854 -0.857167 0.512019 
vn -0.0278836 -0.857167 0.514283 
vn -1.97186e-16 -0.857167 0.515038 
vn 0.0278836 -0.857167 0.514283 
vn 0.0556854 -0.857167 0.512019 
vn 0.0833239 -0.857167 0.508253 
vn 0.110718 -0.857167 0.502997 
vn 0.137787 -0.857167 0.496265 
vn 0.164452 -0.857167 0.488077 
vn 0.190635 -0.857167 0.478458 
vn 0.216259 -0.857167 0.467436 
vn 0.241248 -0.857167 0.455042 
vn 0.26553 -0.857167 0.441314 
vn 0.289033 -0.857167 0.426291 
vn 0.311688 -0.857167 0.410018 
vn 0.333429 -0.857167 0.392542 
vn 0.354191 -0.857167 0.373915 
vn 0.373915 -0.857167 0.354191 
vn 0.392542 -0.857167 0.333429 
vn 0.410018 -0.857167 0.311688 
vn 0.426291 -0.857167 0.289033 
vn 0.441314 -0.857167 0.26553 
vn 0.455042 -0.857167 0.241248 
vn 0.467436 -0.857167 0.216259 
vn 0.478458 -0.857167 0.190635 
vn 0.488077 -0.857167 0.164452 
vn 0.496265 -0.857167 0.137787 
vn 0.502997 -0.857167 0.110718 
vn 0.508253 -0.857167 0.0833239 
vn 0.512019 -0.857167 0.0556854 
vn 0.514283 -0.857167 0.0278836 
vn -0.994138 0 -0.108119 
vn -1 0 -2.44929e-16 
vn -0.976621 0 -0.21497 
vn -0.994138 0 -0.108119 
vn -0.947653 0 -0.319302 
vn -0.976621 0 -0.21497 
vn -0.907575 0 -0.419889 
vn -0.947653 0 -0.319302 
vn -0.856857 0 -0.515554 
vn -0.907575 0 -0.419889 
vn -0.796093 0 -0.605174 
vn -0.856857 0 -0.515554 
vn -0.725995 0 -0.687699 
vn -0.796093 0 -0.605174 
vn -0.647386 0 -0.762162 
vn -0.725995 0 -0.687699 
vn -0.561187 0 -0.827689 
vn -0.647386 0 -0.762162 
vn -0.468408 0 -0.883512 
vn -0.561187 0 -0.827689 
vn -0.370138 0 -0.928977 
vn -0.468408 0 -0.883512 
vn -0.267528 0 -0.96355 
vn -0.370138 0 -0.928977 
vn -0.161782 0 -0.986827 
vn -0.267528 0 -0.96355 
vn -0.0541389 0 -0.998533 
vn -0.161782 0 -0.986827 
vn 0.0541389 0 -0.998533 
vn -0.0541389 0 -0.998533 
vn 0.161782 0 -0.986827 
vn 0.0541389 0 -0.998533 
vn 0.267528 0 -0.96355 
vn 0.161782 0 -0.986827 
vn 0.370138 0 -0.928977 
vn 0.267528 0 -0.96355 
vn 0.468408 0 -0.883512 
vn 0.370138 0 -0.928977 
vn 0.561187 0 -0.827689 
vn 0.468408 0 -0.883512 
vn 0.647386 0 -0.762162 
vn 0.561187 0 -0.827689 
vn 0.725995 0 -0.687699 
vn 0.647386 0 -0.762162 
vn 0.796093 0 -0.605174 
vn 0.725995 0 -0.687699 
vn 0.856857 0 -0.515554 
vn 0.796093 0 -0.605174 
vn 0.907575 0 -0.419889 
vn 0.856857 0 -0.515554 
vn 0.947653 0 -0.319302 
vn 0.907575 0 -0.419889 
vn 0.976621 0 -0.21497 
vn 0.947653 0 -0.319302 
vn 0.994138 0 -0.108119 
vn 0.976621 0 -0.21497 
vn 1 0 1.22465e-16 
vn 0.994138 0 -0.108119 
vn 0.994138 0 0.108119 
vn 1 0 1.22465e-16 
vn 0.976621 0 0.21497 
vn 0.994138 0 0.108119 
vn 0.947653 0 0.319302 
vn 0.976621 0 0.21497 
vn 0.907575 0 0.419889 
vn 0.947653 0 0.319302 
vn 0.856857 0 0.515554 
vn 0.907575 0 0.419889 
vn 0.796093 0 0.605174 
vn 0.856857 0 0.515554 
vn 0.725995 0 0.687699 
vn 0.796093 0 0.605174 
vn 0.647386 0 0.762162 
vn 0.725995 0 0.687699 
vn 0.561187 0 0.827689 
vn 0.647386 0 0.762162 
vn 0.468408 0 0.883512 
vn 0.561187 0 0.827689 
vn 0.370138 0 0.928977 
vn 0.468408 0 0.883512 
vn 0.267528 0 0.96355 
vn 0.370138 0 0.928977 
vn 0.161782 0 0.986827 
vn 0.267528 0 0.96355 
vn 0.0541389 0 0.998533 
vn 0.161782 0 0.986827 
vn -0.0541389 0 0.998533 
vn 0.0541389 0 0.998533 
vn -0.161782 0 0.986827 
vn -0.0541389 0 0.998533 
vn -0.267528 0 0.96355 
vn -0.161782 0 0.986827 
vn -0.370138 0 0.928977 
vn -0.267528 0 0.96355 
vn -0.468408 0 0.883512 
vn -0.370138 0 0.928977 
vn -0.561187 0 0.827689 
vn -0.468408 0 0.883512 
vn -0.647386 0 0.762162 
vn -0.561187 0 0.827689 
vn -0.725995 0 0.687699 
vn -0.647386 0 0.762162 
vn -0.796093 0 0.605174 
vn -0.725995 0 0.687699 
vn -0.856857 0 0.515554 
vn -0.796093 0 0.605174 
vn -0.907575 0 0.419889 
vn -0.856857 0 0.515554 
vn -0.947653 0 0.319302 
vn -0.907575 0 0.419889 
vn -0.976621 0 0.21497 
vn -0.947653 0 0.319302 
vn -0.994138 0 0.108119 
vn -0.976621 0 0.21497 
vn 0 -1 0 
vn -0.994138 0 -0.108119 
vn -1 0 -2.44929e-16 
vn -0.976621 0 -0.21497 
vn -0.994138 0 -0.108119 
vn -0.947653 0 -0.319302 
vn -0.976621 0 -0.21497 
vn -0.907575 0 -0.419889 
vn -0.947653 0 -0.319302 
vn -0.856857 0 -0.515554 
vn -0.907575 0 -0.419889 
vn -0.796093 0 -0.605174 
vn -0.856857 0 -0.515554 
vn -0.725995 0 -0.687699 
vn -0.796093 0 -0.605174 
vn -0.647386 0 -0.762162 
vn -0.725995 0 -0.687699 
vn -0.561187 0 -0.827689 
vn -0.647386 0 -0.762162 
vn -0.468408 0 -0.883512 
vn -0.561187 0 -0.827689 
vn -0.370138 0 -0.928977 
vn -0.468408 0 -0.883512 
vn -0.267528 0 -0.96355 
vn -0.370138 0 -0.928977 
vn -0.161782 0 -0.986827 
vn -0.267528 0 -0.96355 
vn -0.0541389 0 -0.998533 
vn -0.161782 0 -0.986827 
vn 0.0541389 0 -0.998533 
vn -0.0541389 0 -0.998533 
vn 0.161782 0 -0.986827 
vn 0.0541389 0 -0.998533 
vn 0.267528 0 -0.96355 
vn 0.161782 0 -0.986827 
vn 0.370138 0 -0.928977 
vn 0.267528 0 -0.96355 
vn 0.468408 0 -0.883512 
vn 0.370138 0 -0.928977 
vn 0.561187 0 -0.827689 
vn 0.468408 0 -0.883512 
vn 0.647386 0 -0.762162 
vn 0.561187 0 -0.827689 
vn 0.725995 0 -0.687699 
vn 0.647386 0 -0.762162 
vn 0.796093 0 -0.605174 
vn 0.725995 0 -0.687699 
vn 0.856857 0 -0.515554 
vn 0.796093 0 -0.605174 
vn 0.907575 0 -0.419889 
vn 0.856857 0 -0.515554 
vn 0.947653 0 -0.319302 
vn 0.907575 0 -0.419889 
vn 0.976621 0 -0.21497 
vn 0.947653 0 -0.319302 
vn 0.994138 0 -0.108119 
vn 0.976621 0 -0.21497 
vn 1 0 1.22465e-16 
vn 0.994138 0 -0.108119 
vn 0.994138 0 0.108119 
vn 1 0 1.22465e-16 
vn 0.976621 0 0.21497 
vn 0.994138 0 0.108119 
vn 0.947653 0 0.319302 
vn 0.976621 0 0.21497 
vn 0.907575 0 0.419889 
vn 0.947653 0 0.319302 
vn 0.856857 0 0.515554 
vn 0.907575 0 0.419889 
vn 0.796093 0 0.605174 
vn 0.856857 0 0.515554 
vn 0.725995 0 0.687699 
vn 0.796093 0 0.605174 
vn 0.647386 0 0.762162 
vn 0.725995 0 0.687699 
vn 0.561187 0 0.827689 
vn 0.647386 0 0.762162 
vn 0.468408 0 0.883512 
vn 0.561187 0 0.827689 
vn 0.370138 0 0.928977 
vn 0.468408 0 0.883512 
vn 0.267528 0 0.96355 
vn 0.370138 0 0.928977 
vn 0.161782 0 0.986827 
vn 0.267528 0 0.96355 
vn 0.0541389 0 0.998533 
vn 0.161782 0 0.986827 
vn -0.0541389 0 0.998533 
vn 0.0541389 0 0.998533 
vn -0.161782 0 0.986827 
vn -0.0541389 0 0.998533 
vn -0.267528 0 0.96355 
vn -0.161782 0 0.986827 
vn -0.370138 0 0.928977 
vn -0.267528 0 0.96355 
vn -0.468408 0 0.883512 
vn -0.370138 0 0.928977 
vn -0.561187 0 0.827689 
vn -0.468408 0 0.883512 
vn -0.647386 0 0.762162 
vn -0.561187 0 0.827689 
vn -0.725995 0 0.687699 
vn -0.647386 0 0.762162 
vn -0.796093 0 0.605174 
vn -0.725995 0 0.687699 
vn -0.856857 0 0.515554 
vn -0.796093 0 0.605174 
vn -0.907575 0 0.419889 
vn -0.856857 0 0.515554 
vn -0.947653 0 0.319302 
vn -0.907575 0 0.419889 
vn -0.976621 0 0.21497 
vn -0.947653 0 0.319302 
vn -0.994138 0 0.108119 
vn -0.976621 0 0.21497 
vn 0 1 0 
vn -0.994138 0 -0.108119 
vn -1 0 -2.44929e-16 
vn -0.976621 0 -0.21497 
vn -0.994138 0 -0.108119 
vn -0.947653 0 -0.319302 
vn -0.976621 0 -0.21497 
vn -0.907575 0 -0.419889 
vn -0.947653 0 -0.319302 
vn -0.856857 0 -0.515554 
vn -0.907575 0 -0.419889 
vn -0.796093 0 -0.605174 
vn -0.856857 0 -0.515554 
vn -0.725995 0 -0.687699 
vn -0.796093 0 -0.605174 
vn -0.647386 0 -0.762162 
vn -0.725995 0 -0.687699 
vn -0.561187 0 -0.827689 
vn -0.647386 0 -0.762162 
vn -0.468408 0 -0.883512 
vn -0.561187 0 -0.827689 
vn -0.370138 0 -0.928977 
vn -0.468408 0 -0.883512 
vn -0.267528 0 -0.96355 
vn -0.370138 0 -0.928977 
vn -0.161782 0 -0.986827 
vn -0.267528 0 -0.96355 
vn -0.0541389 0 -0.998533 
vn -0.161782 0 -0.986827 
vn 0.0541389 0 -0.998533 
vn -0.0541389 0 -0.998533 
vn 0.161782 0 -0.986827 
vn 0.0541389 0 -0.998533 
vn 0.267528 0 -0.96355 
vn 0.161782 0 -0.986827 
vn 0.370138 0 -0.928977 
vn 0.267528 0 -0.96355 
vn 0.468408 0 -0.883512 
vn 0.370138 0 -0.928977 
vn 0.561187 0 -0.827689 
vn 0.468408 0 -0.883512 
vn 0.647386 0 -0.762162 
vn 0.561187 0 -0.827689 
vn 0.725995 0 -0.687699 
vn 0.647386 0 -0.762162 
vn 0.796093 0 -0.605174 
vn 0.725995 0 -0.687699 
vn 0.856857 0 -0.515554 
vn 0.796093 0 -0.605174 
vn 0.907575 0 -0.419889 
vn 0.856857 0 -0.515554 
vn 0.947653 0 -0.319302 
vn 0.907575 0 -0.419889 
vn 0.976621 0 -0.21497 
vn 0.947653 0 -0.319302 
vn 0.994138 0 -0.108119 
vn 0.976621 0 -0.21497 
vn 1 0 1.22465e-16 
vn 0.994138 0 -0.108119 
vn 0.994138 0 0.108119 
vn 1 0 1.22465e-16 
vn 0.976621 0 0.21497 
vn 0.994138 0 0.108119 
vn 0.947653 0 0.319302 
vn 0.976621 0 0.21497 
vn 0.907575 0 0.419889 
vn 0.947653 0 0.319302 
vn 0.856857 0 0.515554 
vn 0.907575 0 0.419889 
vn 0.796093 0 0.605174 
vn 0.856857 0 0.515554 
vn 0.725995 0 0.687699 
vn 0.796093 0 0.605174 
vn 0.647386 0 0.762162 
vn 0.725995 0 0.687699 
vn 0.561187 0 0.827689 
vn 0.647386 0 0.762162 
vn 0.468408 0 0.883512 
vn 0.561187 0 0.827689 
vn 0.370138 0 0.928977 
vn 0.468408 0 0.883512 
vn 0.267528 0 0.96355 
vn 0.370138 0 0.928977 
vn 0.161782 0 0.986827 
vn 0.267528 0 0.96355 
vn 0.0541389 0 0.998533 
vn 0.161782 0 0.986827 
vn -0.0541389 0 0.998533 
vn 0.0541389 0 0.998533 
vn -0.161782 0 0.986827 
vn -0.0541389 0 0.998533 
vn -0.267528 0 0.96355 
vn -0.161782 0 0.986827 
vn -0.370138 0 0.928977 
vn -0.267528 0 0.96355 
vn -0.468408 0 0.883512 
vn -0.370138 0 0.928977 
vn -0.561187 0 0.827689 
vn -0.468408 0 0.883512 
vn -0.647386 0 0.762162 
vn -0.561187 0 0.827689 
vn -0.725995 0 0.687699 
vn -0.647386 0 0.762162 
vn -0.796093 0 0.605174 
vn -0.725995 0 0.687699 
vn -0.856857 0 0.515554 
vn -0.796093 0 0.605174 
vn -0.907575 0 0.419889 
vn -0.856857 0 0.515554 
vn -0.947653 0 0.319302 
vn -0.907575 0 0.419889 
vn -0.976621 0 0.21497 
vn -0.947653 0 0.319302 
vn -0.994138 0 0.108119 
vn -0.976621 0 0.21497 
vn 0 -1 0 
vn -0.994138 0 -0.108119 
vn -1 0 -2.44929e-16 
vn -0.976621 0 -0.21497 
vn -0.994138 0 -0.108119 
vn -0.947653 0 -0.319302 
vn -0.976621 0 -0.21497 
vn -0.907575 0 -0.419889 
vn -0.947653 0 -0.319302 
vn -0.856857 0 -0.515554 
vn -0.907575 0 -0.419889 
vn -0.796093 0 -0.605174 
vn -0.856857 0 -0.515554 
vn -0.725995 0 -0.687699 
vn -0.796093 0 -0.605174 
vn -0.647386 0 -0.762162 
vn -0.725995 0 -0.687699 
vn -0.561187 0 -0.827689 
vn -0.647386 0 -0.762162 
vn -0.468408 0 -0.883512 
vn -0.561187 0 -0.827689 
vn -0.370138 0 -0.928977 
vn -0.468408 0 -0.883512 
vn -0.267528 0 -0.96355 
vn -0.370138 0 -0.928977 
vn -0.161782 0 -0.986827 
vn -0.267528 0 -0.96355 
vn -0.0541389 0 -0.998533 
vn -0.161782 0 -0.986827 
vn 0.0541389 0 -0.998533 
vn -0.0541389 0 -0.998533 
vn 0.161782 0 -0.986827 
vn 0.0541389 0 -0.998533 
vn 0.267528 0 -0.96355 
vn 0.161782 0 -0.986827 
vn 0.370138 0 -0.928977 
vn 0.267528 0 -0.96355 
vn 0.468408 0 -0.883512 
vn 0.370138 0 -0.928977 
vn 0.561187 0 -0.827689 
vn 0.468408 0 -0.883512 
vn 0.647386 0 -0.762162 
vn 0.561187 0 -0.827689 
vn 0.725995 0 -0.687699 
vn 0.647386 0 -0.762162 
vn 0.796093 0 -0.605174 
vn 0.725995 0 -0.687699 
vn 0.856857 0 -0.515554 
vn 0.796093 0 -0.605174 
vn 0.907575 0 -0.419889 
vn 0.856857 0 -0.515554 
vn 0.947653 0 -0.319302 
vn 0.907575 0 -0.419889 
vn 0.976621 0 -0.21497 
vn 0.947653 0 -0.319302 
vn 0.994138 0 -0.108119 
vn 0.976621 0 -0.21497 
vn 1 0 1.22465e-16 
vn 0.994138 0 -0.108119 
vn 0.994138 0 0.108119 
vn 1 0 1.22465e-16 
vn 0.976621 0 0.21497 
vn 0.994138 0 0.108119 
vn 0.947653 0 0.319302 
vn 0.976621 0 0.21497 
vn 0.907575 0 0.419889 
vn 0.947653 0 0.319302 
vn 0.856857 0 0.515554 
vn 0.907575 0 0.419889 
vn 0.796093 0 0.605174 
vn 0.856857 0 0.515554 
vn 0.725995 0 0.687699 
vn 0.796093 0 0.605174 
vn 0.647386 0 0.762162 
vn 0.725995 0 0.687699 
vn 0.561187 0 0.827689 
vn 0.647386 0 0.762162 
vn 0.468408 0 0.883512 
vn 0.561187 0 0.827689 
vn 0.370138 0 0.928977 
vn 0.468408 0 0.883512 
vn 0.267528 0 0.96355 
vn 0.370138 0 0.928977 
vn 0.161782 0 0.986827 
vn 0.267528 0 0.96355 
vn 0.0541389 0 0.998533 
vn 0.161782 0 0.986827 
vn -0.0541389 0 0.998533 
vn 0.0541389 0 0.998533 
vn -0.161782 0 0.986827 
vn -0.0541389 0 0.998533 
vn -0.267528 0 0.96355 
vn -0.161782 0 0.986827 
vn -0.370138 0 0.928977 
vn -0.267528 0 0.96355 
vn -0.468408 0 0.883512 
vn -0.370138 0 0.928977 
vn -0.561187 0 0.827689 
vn -0.468408 0 0.883512 
vn -0.647386 0 0.762162 
vn -0.561187 0 0.827689 
vn -0.725995 0 0.687699 
vn -0.647386 0 0.762162 
vn -0.796093 0 0.605174 
vn -0.725995 0 0.687699 
vn -0.856857 0 0.515554 
vn -0.796093 0 0.605174 
vn -0.907575 0 0.419889 
vn -0.856857 0 0.515554 
vn -0.947653 0 0.319302 
vn -0.907575 0 0.419889 
vn -0.976621 0 0.21497 
vn -0.947653 0 0.319302 
vn -0.994138 0 0.108119 
vn -0.976621 0 0.21497 
usemtl 0.615686_0.811765_0.929412_0.000000_0.000000
o mesh0
f 59//1 1//2 2//3 
f 59//4 3//5 1//2 
f 59//6 4//7 3//5 
f 59//8 5//9 4//7 
f 59//10 6//11 5//9 
f 59//12 7//13 6//11 
f 59//14 8//15 7//13 
f 59//16 9//17 8//15 
f 59//18 10//19 9//17 
f 59//20 11//21 10//19 
f 59//22 12//23 11//21 
f 59//24 13//25 12//23 
f 59//26 14//27 13//25 
f 59//28 15//29 14//27 
f 59//30 16//31 15//29 
f 59//32 17//33 16//31 
f 59//34 18//35 17//33 
f 59//36 19//37 18//35 
f 59//38 20//39 19//37 
f 59//40 21//41 20//39 
f 59//42 22//43 21//41 
f 59//44 23//45 22//43 
f 59//46 24//47 23//45 
f 59//48 25//49 24//47 
f 59//50 26//51 25//49 
f 59//52 27//53 26//51 
f 59//54 28//55 27//53 
f 59//56 29//57 28//55 
f 59//58 30//59 29//57 
f 59//60 31//61 30//59 
f 59//62 32//63 31//61 
f 59//64 33//65 32//63 
f 59//66 34//67 33//65 
f 59//68 35//69 34//67 
f 59//70 36//71 35//69 
f 59//72 37//73 36//71 
f 59//74 38//75 37//73 
f 59//76 39//77 38//75 
f 59//78 40//79 39//77 
f 59//80 41//81 40//79 
f 59//82 42//83 41//81 
f 59//84 43//85 42//83 
f 59//86 44//87 43//85 
f 59//88 45//89 44//87 
f 59//90 46//91 45//89 
f 59//92 47//93 46//91 
f 59//94 48//95 47//93 
f 59//96 49//97 48//95 
f 59//98 50//99 49//97 
f 59//100 51//101 50//99 
f 59//102 52//103 51//101 
f 59//104 53//105 52//103 
f 59//106 54//107 53//105 
f 59//108 55//109 54//107 
f 59//110 56//111 55//109 
f 59//112 57//113 56//111 
f 59//114 58//115 57//113 
f 59//116 2//3 58//115 
o mesh1
f 29//117 30//118 60//118 
f 28//119 29//117 61//120 
f 27//121 28//119 62//122 
f 26//123 27//121 63//124 
f 25//125 26//123 64//126 
f 24//127 25//125 65//128 
f 23//129 24//127 66//130 
f 22//131 23//129 67//132 
f 21//133 22//131 68//134 
f 20//135 21//133 69//136 
f 19//137 20//135 70//138 
f 18//139 19//137 71//140 
f 17//141 18//139 72//142 
f 16//143 17//141 73//144 
f 15//145 16//143 74//146 
f 14//147 15//145 75//148 
f 13//149 14//147 76//150 
f 12//151 13//149 77//152 
f 11//153 12//151 78//154 
f 10//155 11//153 79//156 
f 9//157 10//155 80//158 
f 8//159 9//157 81//160 
f 7//161 8//159 82//162 
f 6//163 7//161 83//164 
f 5//165 6//163 84//166 
f 4//167 5//165 85//168 
f 3//169 4//167 86//170 
f 1//171 3//169 87//172 
f 2//173 1//171 88//174 
f 58//175 2//173 89//176 
f 57//177 58//175 90//178 
f 56//179 57//177 91//180 
f 55//181 56//179 92//182 
f 54//183 55//181 93//184 
f 53//185 54//183 94//186 
f 52//187 53//185 95//188 
f 51//189 52//187 96//190 
f 50//191 51//189 97//192 
f 49//193 50//191 98//194 
f 48//195 49//193 99//196 
f 47//197 48//195 100//198 
f 46//199 47//197 101//200 
f 45//201 46//199 102//202 
f 44//203 45//201 103//204 
f 43//205 44//203 104//206 
f 42//207 43//205 105//208 
f 41//209 42//207 106//210 
f 40//211 41//209 107//212 
f 39//213 40//211 108//214 
f 38//215 39//213 109//216 
f 37//217 38//215 110//218 
f 36//219 37//217 111//220 
f 35//221 36//219 112//222 
f 34//223 35//221 113//224 
f 33//225 34//223 114//226 
f 32//227 33//225 115//228 
f 31//229 32//227 116//230 
f 30//118 31//229 117//229 
f 117//229 60//118 30//118 
f 116//230 117//229 31//229 
f 115//228 116//230 32//227 
f 114//226 115//228 33//225 
f 113//224 114//226 34//223 
f 112//222 113//224 35//221 
f 111//220 112//222 36//219 
f 110//218 111//220 37//217 
f 109//216 110//218 38//215 
f 108//214 109//216 39//213 
f 107//212 108//214 40//211 
f 106//210 107//212 41//209 
f 105//208 106//210 42//207 
f 104//206 105//208 43//205 
f 103//204 104//206 44//203 
f 102//202 103//204 45//201 
f 101//200 102//202 46//199 
f 100//198 101//200 47//197 
f 99//196 100//198 48//195 
f 98//194 99//196 49//193 
f 97//192 98//194 50//191 
f 96//190 97//192 51//189 
f 95//188 96//190 52//187 
f 94//186 95//188 53//185 
f 93//184 94//186 54//183 
f 92//182 93//184 55//181 
f 91//180 92//182 56//179 
f 90//178 91//180 57//177 
f 89//176 90//178 58//175 
f 88//174 89//176 2//173 
f 87//172 88//174 1//171 
f 86//170 87//172 3//169 
f 85//168 86//170 4//167 
f 84//166 85//168 5//165 
f 83//164 84//166 6//163 
f 82//162 83//164 7//161 
f 81//160 82//162 8//159 
f 80//158 81//160 9//157 
f 79//156 80//158 10//155 
f 78//154 79//156 11//153 
f 77//152 78//154 12//151 
f 76//150 77//152 13//149 
f 75//148 76//150 14//147 
f 74//146 75//148 15//145 
f 73//144 74//146 16//143 
f 72//142 73//144 17//141 
f 71//140 72//142 18//139 
f 70//138 71//140 19//137 
f 69//136 70//138 20//135 
f 68//134 69//136 21//133 
f 67//132 68//134 22//131 
f 66//130 67//132 23//129 
f 65//128 66//130 24//127 
f 64//126 65//128 25//125 
f 63//124 64//126 26//123 
f 62//122 63//124 27//121 
f 61//120 62//122 28//119 
f 60//118 61//120 29//117 
o mesh2
f 66//231 65//231 118//231 
f 76//231 75//231 119//231 
f 120//231 67//231 66//231 
f 68//231 67//231 120//231 
f 73//231 72//231 121//231 
f 74//231 73//231 122//231 
f 75//231 74//231 123//231 
f 119//231 124//231 76//231 
f 120//231 125//231 68//231 
f 122//231 123//231 74//231 
f 124//231 126//231 76//231 
f 77//231 76//231 126//231 
f 78//231 77//231 127//231 
f 125//231 69//231 68//231 
f 70//231 69//231 125//231 
f 72//231 71//231 128//231 
f 123//231 119//231 75//231 
f 127//231 129//231 78//231 
f 79//231 78//231 129//231 
f 82//231 130//231 131//231 
f 130//231 132//231 133//231 
f 125//231 128//231 70//231 
f 128//231 121//231 72//231 
f 126//231 127//231 77//231 
f 129//231 134//231 79//231 
f 131//231 83//231 82//231 
f 83//231 131//231 135//231 
f 130//231 136//231 132//231 
f 137//231 138//231 139//231 
f 71//231 70//231 128//231 
f 134//231 140//231 79//231 
f 80//231 79//231 140//231 
f 135//231 84//231 83//231 
f 130//231 141//231 136//231 
f 130//231 142//231 143//231 
f 130//231 144//231 137//231 
f 145//231 146//231 147//231 
f 121//231 122//231 73//231 
f 130//231 81//231 80//231 
f 130//231 148//231 131//231 
f 143//231 141//231 130//231 
f 149//231 87//231 86//231 
f 137//231 150//231 138//231 
f 130//231 151//231 152//231 
f 151//231 130//231 153//231 
f 154//231 155//231 156//231 
f 145//231 156//231 146//231 
f 157//231 147//231 158//231 
f 159//231 158//231 160//231 
f 140//231 130//231 80//231 
f 133//231 148//231 130//231 
f 130//231 161//231 162//231 
f 84//231 163//231 149//231 
f 149//231 88//231 87//231 
f 130//231 164//231 144//231 
f 130//231 165//231 166//231 
f 151//231 167//231 152//231 
f 153//231 168//231 169//231 
f 170//231 171//231 172//231 
f 147//231 157//231 145//231 
f 160//231 173//231 159//231 
f 173//231 160//231 174//231 
f 175//231 174//231 176//231 
f 177//231 178//231 179//231 
f 177//231 180//231 181//231 
f 82//231 81//231 130//231 
f 130//231 139//231 161//231 
f 86//231 85//231 149//231 
f 166//231 164//231 130//231 
f 151//231 182//231 167//231 
f 183//231 184//231 185//231 
f 186//231 137//231 187//231 
f 188//231 189//231 190//231 
f 188//231 191//231 192//231 
f 153//231 193//231 168//231 
f 193//231 153//231 194//231 
f 170//231 194//231 171//231 
f 195//231 172//231 155//231 
f 158//231 159//231 157//231 
f 176//231 196//231 175//231 
f 197//231 198//231 199//231 
f 177//231 200//231 178//231 
f 181//231 201//231 177//231 
f 202//231 203//231 204//231 
f 162//231 142//231 130//231 
f 84//231 135//231 163//231 
f 152//231 165//231 130//231 
f 182//231 151//231 183//231 
f 187//231 205//231 186//231 
f 188//231 206//231 207//231 
f 208//231 209//231 210//231 
f 188//231 211//231 212//231 
f 188//231 213//231 214//231 
f 188//231 215//231 189//231 
f 188//231 187//231 191//231 
f 194//231 170//231 193//231 
f 155//231 154//231 195//231 
f 174//231 175//231 173//231 
f 92//231 91//231 216//231 
f 179//231 197//231 177//231 
f 201//231 217//231 177//231 
f 180//231 218//231 219//231 
f 204//231 208//231 202//231 
f 177//231 220//231 221//231 
f 222//231 220//231 223//231 
f 224//231 223//231 225//231 
f 149//231 85//231 84//231 
f 185//231 182//231 183//231 
f 187//231 226//231 205//231 
f 187//231 188//231 227//231 
f 210//231 207//231 208//231 
f 212//231 228//231 188//231 
f 214//231 229//231 188//231 
f 192//231 215//231 188//231 
f 172//231 195//231 170//231 
f 176//231 230//231 196//231 
f 230//231 176//231 231//231 
f 232//231 233//231 234//231 
f 235//231 234//231 236//231 
f 91//231 90//231 237//231 
f 238//231 93//231 92//231 
f 239//231 240//231 241//231 
f 242//231 243//231 244//231 
f 217//231 200//231 177//231 
f 219//231 245//231 180//231 
f 246//231 180//231 203//231 
f 221//231 247//231 177//231 
f 220//231 222//231 248//231 
f 225//231 249//231 224//231 
f 139//231 130//231 137//231 
f 227//231 226//231 187//231 
f 228//231 206//231 188//231 
f 190//231 213//231 188//231 
f 208//231 250//231 251//231 
f 156//231 145//231 154//231 
f 231//231 252//231 253//231 
f 252//231 231//231 254//231 
f 255//231 256//231 257//231 
f 236//231 258//231 235//231 
f 258//231 236//231 259//231 
f 260//231 261//231 262//231 
f 262//231 263//231 264//231 
f 265//231 102//231 101//231 
f 216//231 238//231 92//231 
f 238//231 96//231 95//231 
f 241//231 266//231 239//231 
f 266//231 241//231 267//231 
f 268//231 240//231 269//231 
f 244//231 270//231 242//231 
f 271//231 272//231 243//231 
f 273//231 274//231 275//231 
f 276//231 273//231 277//231 
f 278//231 276//231 279//231 
f 198//231 278//231 280//231 
f 245//231 181//231 180//231 
f 202//231 246//231 203//231 
f 220//231 281//231 221//231 
f 223//231 224//231 222//231 
f 186//231 150//231 137//231 
f 229//231 211//231 188//231 
f 208//231 282//231 250//231 
f 208//231 204//231 283//231 
f 231//231 253//231 230//231 
f 254//231 284//231 285//231 
f 284//231 254//231 255//231 
f 256//231 286//231 257//231 
f 287//231 288//231 289//231 
f 249//231 225//231 233//231 
f 259//231 290//231 258//231 
f 290//231 259//231 261//231 
f 264//231 291//231 262//231 
f 262//231 102//231 292//231 
f 101//231 238//231 265//231 
f 238//231 94//231 93//231 
f 238//231 97//231 96//231 
f 293//231 294//231 115//231 
f 118//231 64//231 63//231 
f 240//231 295//231 296//231 
f 267//231 297//231 266//231 
f 270//231 268//231 242//231 
f 243//231 298//231 271//231 
f 274//231 271//231 298//231 
f 277//231 279//231 276//231 
f 280//231 199//231 198//231 
f 184//231 299//231 300//231 
f 301//231 302//231 303//231 
f 246//231 218//231 180//231 
f 248//231 281//231 220//231 
f 207//231 210//231 188//231 
f 283//231 282//231 208//231 
f 254//231 285//231 252//231 
f 255//231 304//231 305//231 
f 256//231 306//231 286//231 
f 256//231 307//231 308//231 
f 287//231 309//231 288//231 
f 90//231 89//231 310//231 
f 88//231 311//231 310//231 
f 88//231 312//231 313//231 
f 234//231 235//231 232//231 
f 262//231 291//231 260//231 
f 265//231 292//231 102//231 
f 262//231 104//231 103//231 
f 95//231 94//231 238//231 
f 238//231 99//231 98//231 
f 104//231 262//231 314//231 
f 105//231 314//231 315//231 
f 106//231 315//231 316//231 
f 115//231 114//231 293//231 
f 63//231 317//231 118//231 
f 240//231 318//231 319//231 
f 240//231 320//231 321//231 
f 296//231 322//231 240//231 
f 239//231 323//231 240//231 
f 269//231 242//231 268//231 
f 243//231 324//231 325//231 
f 298//231 275//231 274//231 
f 279//231 280//231 278//231 
f 184//231 326//231 299//231 
f 302//231 327//231 328//231 
f 326//231 184//231 301//231 
f 247//231 180//231 177//231 
f 251//231 209//231 208//231 
f 255//231 305//231 284//231 
f 308//231 306//231 256//231 
f 289//231 307//231 287//231 
f 310//231 89//231 88//231 
f 88//231 329//231 312//231 
f 88//231 330//231 331//231 
f 88//231 149//231 332//231 
f 261//231 260//231 290//231 
f 103//231 102//231 262//231 
f 98//231 97//231 238//231 
f 238//231 101//231 100//231 
f 315//231 106//231 105//231 
f 316//231 108//231 107//231 
f 108//231 316//231 333//231 
f 112//231 334//231 293//231 
f 294//231 116//231 115//231 
f 118//231 65//231 64//231 
f 321//231 318//231 240//231 
f 323//231 295//231 240//231 
f 325//231 244//231 243//231 
f 275//231 277//231 273//231 
f 327//231 335//231 336//231 
f 297//231 267//231 336//231 
f 300//231 337//231 184//231 
f 303//231 326//231 301//231 
f 118//231 120//231 66//231 
f 257//231 304//231 255//231 
f 289//231 338//231 307//231 
f 313//231 311//231 88//231 
f 332//231 330//231 88//231 
f 292//231 263//231 262//231 
f 100//231 99//231 238//231 
f 316//231 107//231 106//231 
f 333//231 110//231 109//231 
f 110//231 333//231 334//231 
f 293//231 113//231 112//231 
f 294//231 117//231 116//231 
f 294//231 317//231 60//231 
f 63//231 62//231 317//231 
f 322//231 320//231 240//231 
f 272//231 324//231 243//231 
f 336//231 335//231 297//231 
f 328//231 303//231 302//231 
f 153//231 169//231 151//231 
f 338//231 339//231 307//231 
f 331//231 329//231 88//231 
f 237//231 216//231 91//231 
f 340//231 309//231 287//231 
f 341//231 342//231 343//231 
f 333//231 109//231 108//231 
f 112//231 111//231 334//231 
f 60//231 117//231 294//231 
f 62//231 61//231 317//231 
f 242//231 344//231 243//231 
f 337//231 185//231 184//231 
f 339//231 308//231 307//231 
f 233//231 232//231 249//231 
f 345//231 346//231 340//231 
f 347//231 346//231 345//231 
f 348//231 349//231 350//231 
f 343//231 351//231 341//231 
f 352//231 341//231 351//231 
f 353//231 352//231 354//231 
f 344//231 353//231 355//231 
f 334//231 111//231 110//231 
f 61//231 60//231 317//231 
f 336//231 328//231 327//231 
f 310//231 237//231 90//231 
f 345//231 350//231 347//231 
f 350//231 343//231 348//231 
f 351//231 354//231 352//231 
f 355//231 243//231 344//231 
f 114//231 113//231 293//231 
f 199//231 177//231 197//231 
f 349//231 347//231 350//231 
f 354//231 355//231 353//231 
f 319//231 269//231 240//231 
f 342//231 348//231 343//231 
f 287//231 345//231 340//231 
f 314//231 105//231 104//231 
o mesh3
f 356//232 317//232 294//232 
f 294//232 357//232 356//232 
o mesh4
f 177//233 358//233 359//233 
f 359//233 220//233 177//233 
o mesh5
f 360//234 307//234 256//234 
f 256//234 361//234 360//234 
o mesh6
f 153//235 130//235 362//235 
f 362//235 363//235 153//235 
o mesh7
f 357//236 294//236 293//237 
f 364//237 293//237 334//238 
f 365//238 334//238 333//239 
f 366//239 333//239 316//240 
f 367//240 316//240 315//241 
f 368//241 315//241 314//242 
f 369//242 314//242 262//243 
f 370//243 262//243 261//244 
f 371//244 261//244 259//245 
f 372//245 259//245 236//246 
f 373//246 236//246 234//247 
f 374//247 234//247 233//248 
f 375//248 233//248 225//249 
f 376//249 225//249 223//250 
f 377//250 223//250 220//251 
f 220//251 359//251 377//250 
f 223//250 377//250 376//249 
f 225//249 376//249 375//248 
f 233//248 375//248 374//247 
f 234//247 374//247 373//246 
f 236//246 373//246 372//245 
f 259//245 372//245 371//244 
f 261//244 371//244 370//243 
f 262//243 370//243 369//242 
f 314//242 369//242 368//241 
f 315//241 368//241 367//240 
f 316//240 367//240 366//239 
f 333//239 366//239 365//238 
f 334//238 365//238 364//237 
f 293//237 364//237 357//236 
o mesh8
f 317//252 356//252 378//253 
f 118//253 378//253 379//254 
f 120//254 379//254 380//255 
f 125//255 380//255 381//256 
f 128//256 381//256 382//257 
f 121//257 382//257 383//258 
f 122//258 383//258 384//259 
f 123//259 384//259 385//260 
f 119//260 385//260 386//261 
f 124//261 386//261 387//262 
f 126//262 387//262 388//263 
f 127//263 388//263 389//264 
f 129//264 389//264 390//265 
f 134//265 390//265 391//266 
f 140//266 391//266 362//267 
f 362//267 130//267 140//266 
f 391//266 140//266 134//265 
f 390//265 134//265 129//264 
f 389//264 129//264 127//263 
f 388//263 127//263 126//262 
f 387//262 126//262 124//261 
f 386//261 124//261 119//260 
f 385//260 119//260 123//259 
f 384//259 123//259 122//258 
f 383//258 122//258 121//257 
f 382//257 121//257 128//256 
f 381//256 128//256 125//255 
f 380//255 125//255 120//254 
f 379//254 120//254 118//253 
f 378//253 118//253 317//252 
o mesh9
f 361//268 256//268 255//269 
f 392//269 255//269 254//270 
f 393//270 254//270 231//271 
f 394//271 231//271 176//272 
f 395//272 176//272 174//273 
f 396//273 174//273 160//274 
f 397//274 160//274 158//275 
f 398//275 158//275 147//276 
f 399//276 147//276 146//277 
f 400//277 146//277 156//278 
f 401//278 156//278 155//279 
f 402//279 155//279 172//280 
f 403//280 172//280 171//281 
f 404//281 171//281 194//282 
f 405//282 194//282 153//283 
f 153//283 363//283 405//282 
f 194//282 405//282 404//281 
f 171//281 404//281 403//280 
f 172//280 403//280 402//279 
f 155//279 402//279 401//278 
f 156//278 401//278 400//277 
f 146//277 400//277 399//276 
f 147//276 399//276 398//275 
f 158//275 398//275 397//274 
f 160//274 397//274 396//273 
f 174//273 396//273 395//272 
f 176//272 395//272 394//271 
f 231//271 394//271 393//270 
f 254//270 393//270 392//269 
f 255//269 392//269 361//268 
o mesh10
f 307//284 360//284 406//285 
f 287//285 406//285 407//286 
f 345//286 407//286 408//287 
f 350//287 408//287 409//288 
f 343//288 409//288 410//289 
f 351//289 410//289 411//290 
f 354//290 411//290 412//291 
f 355//291 412//291 413//292 
f 243//292 413//292 414//293 
f 298//293 414//293 415//294 
f 275//294 415//294 416//295 
f 277//295 416//295 417//296 
f 279//296 417//296 418//297 
f 280//297 418//297 419//298 
f 199//298 419//298 358//299 
f 358//299 177//299 199//298 
f 419//298 199//298 280//297 
f 418//297 280//297 279//296 
f 417//296 279//296 277//295 
f 416//295 277//295 275//294 
f 415//294 275//294 298//293 
f 414//293 298//293 243//292 
f 413//292 243//292 355//291 
f 412//291 355//291 354//290 
f 411//290 354//290 351//289 
f 410//289 351//289 343//288 
f 409//288 343//288 350//287 
f 408//287 350//287 345//286 
f 407//286 345//286 287//285 
f 406//285 287//285 307//284 
o mesh11
f 420//300 421//301 335//301 
f 422//302 420//300 327//303 
f 423//304 422//302 302//305 
f 424//306 423//304 301//307 
f 425//308 424//306 184//309 
f 426//310 425//308 183//311 
f 427//312 426//310 151//313 
f 428//314 427//312 169//315 
f 429//316 428//314 168//317 
f 430//318 429//316 193//319 
f 431//320 430//318 170//321 
f 432//322 431//320 195//323 
f 433//324 432//322 154//325 
f 434//326 433//324 145//327 
f 435//328 434//326 157//329 
f 436//330 435//328 159//331 
f 437//332 436//330 173//333 
f 438//334 437//332 175//335 
f 439//336 438//334 196//337 
f 440//338 439//336 230//339 
f 441//340 440//338 253//341 
f 442//342 441//340 252//343 
f 443//344 442//342 285//345 
f 444//346 443//344 284//347 
f 445//348 444//346 305//349 
f 446//350 445//348 304//351 
f 447//352 446//350 257//353 
f 448//354 447//352 286//355 
f 449//356 448//354 306//357 
f 450//358 449//356 308//359 
f 451//360 450//358 339//361 
f 452//362 451//360 338//363 
f 453//364 452//362 289//365 
f 454//366 453//364 288//367 
f 455//368 454//366 309//369 
f 456//370 455//368 340//371 
f 457//372 456//370 346//373 
f 458//374 457//372 347//375 
f 459//376 458//374 349//377 
f 460//378 459//376 348//379 
f 461//380 460//378 342//381 
f 462//382 461//380 341//383 
f 463//384 462//382 352//385 
f 464//386 463//384 353//387 
f 465//388 464//386 344//389 
f 466//390 465//388 242//391 
f 467//392 466//390 269//393 
f 468//394 467//392 319//395 
f 469//396 468//394 318//397 
f 470//398 469//396 321//399 
f 471//400 470//398 320//401 
f 472//402 471//400 322//403 
f 473//404 472//402 296//405 
f 474//406 473//404 295//407 
f 475//408 474//406 323//409 
f 476//410 475//408 239//411 
f 477//412 476//410 266//413 
f 421//301 477//412 297//412 
f 297//412 335//301 421//301 
f 266//413 297//412 477//412 
f 239//411 266//413 476//410 
f 323//409 239//411 475//408 
f 295//407 323//409 474//406 
f 296//405 295//407 473//404 
f 322//403 296//405 472//402 
f 320//401 322//403 471//400 
f 321//399 320//401 470//398 
f 318//397 321//399 469//396 
f 319//395 318//397 468//394 
f 269//393 319//395 467//392 
f 242//391 269//393 466//390 
f 344//389 242//391 465//388 
f 353//387 344//389 464//386 
f 352//385 353//387 463//384 
f 341//383 352//385 462//382 
f 342//381 341//383 461//380 
f 348//379 342//381 460//378 
f 349//377 348//379 459//376 
f 347//375 349//377 458//374 
f 346//373 347//375 457//372 
f 340//371 346//373 456//370 
f 309//369 340//371 455//368 
f 288//367 309//369 454//366 
f 289//365 288//367 453//364 
f 338//363 289//365 452//362 
f 339//361 338//363 451//360 
f 308//359 339//361 450//358 
f 306//357 308//359 449//356 
f 286//355 306//357 448//354 
f 257//353 286//355 447//352 
f 304//351 257//353 446//350 
f 305//349 304//351 445//348 
f 284//347 305//349 444//346 
f 285//345 284//347 443//344 
f 252//343 285//345 442//342 
f 253//341 252//343 441//340 
f 230//339 253//341 440//338 
f 196//337 230//339 439//336 
f 175//335 196//337 438//334 
f 173//333 175//335 437//332 
f 159//331 173//333 436//330 
f 157//329 159//331 435//328 
f 145//327 157//329 434//326 
f 154//325 145//327 433//324 
f 195//323 154//325 432//322 
f 170//321 195//323 431//320 
f 193//319 170//321 430//318 
f 168//317 193//319 429//316 
f 169//315 168//317 428//314 
f 151//313 169//315 427//312 
f 183//311 151//313 426//310 
f 184//309 183//311 425//308 
f 301//307 184//309 424//306 
f 302//305 301//307 423//304 
f 327//303 302//305 422//302 
f 335//301 327//303 420//300 
o mesh12
f 478//414 448//415 449//416 
f 478//417 447//418 448//415 
f 478//419 446//420 447//418 
f 478//421 445//422 446//420 
f 478//423 444//424 445//422 
f 478//425 443//426 444//424 
f 478//427 442//428 443//426 
f 478//429 441//430 442//428 
f 478//431 440//432 441//430 
f 478//433 439//434 440//432 
f 478//435 438//436 439//434 
f 478//437 437//438 438//436 
f 478//439 436//440 437//438 
f 478//441 435//442 436//440 
f 478//443 434//444 435//442 
f 478//445 433//446 434//444 
f 478//447 432//448 433//446 
f 478//449 431//450 432//448 
f 478//451 430//452 431//450 
f 478//453 429//454 430//452 
f 478//455 428//456 429//454 
f 478//457 427//458 428//456 
f 478//459 426//460 427//458 
f 478//461 425//462 426//460 
f 478//463 424//464 425//462 
f 478//465 423//466 424//464 
f 478//467 422//468 423//466 
f 478//469 420//470 422//468 
f 478//471 421//472 420//470 
f 478//473 477//474 421//472 
f 478//475 476//476 477//474 
f 478//477 475//478 476//476 
f 478//479 474//480 475//478 
f 478//481 473//482 474//480 
f 478//483 472//484 473//482 
f 478//485 471//486 472//484 
f 478//487 470//488 471//486 
f 478//489 469//490 470//488 
f 478//491 468//492 469//490 
f 478//493 467//494 468//492 
f 478//495 466//496 467//494 
f 478//497 465//498 466//496 
f 478//499 464//500 465//498 
f 478//501 463//502 464//500 
f 478//503 462//504 463//502 
f 478//505 461//506 462//504 
f 478//507 460//508 461//506 
f 478//509 459//510 460//508 
f 478//511 458//512 459//510 
f 478//513 457//514 458//512 
f 478//515 456//516 457//514 
f 478//517 455//518 456//516 
f 478//519 454//520 455//518 
f 478//521 453//522 454//520 
f 478//523 452//524 453//522 
f 478//525 451//526 452//524 
f 478//527 450//528 451//526 
f 478//529 449//416 450//528 
o mesh13
f 479//530 480//531 310//531 
f 481//532 479//530 311//533 
f 482//534 481//532 313//535 
f 483//536 482//534 312//537 
f 484//538 483//536 329//539 
f 485//540 484//538 331//541 
f 486//542 485//540 330//543 
f 487//544 486//542 332//545 
f 488//546 487//544 149//547 
f 489//548 488//546 163//549 
f 490//550 489//548 135//551 
f 491//552 490//550 131//553 
f 492//554 491//552 148//555 
f 493//556 492//554 133//557 
f 494//558 493//556 132//559 
f 495//560 494//558 136//561 
f 496//562 495//560 141//563 
f 497//564 496//562 143//565 
f 498//566 497//564 142//567 
f 499//568 498//566 162//569 
f 500//570 499//568 161//571 
f 501//572 500//570 139//573 
f 502//574 501//572 138//575 
f 503//576 502//574 150//577 
f 504//578 503//576 186//579 
f 505//580 504//578 205//581 
f 506//582 505//580 226//583 
f 507//584 506//582 227//585 
f 508//586 507//584 188//587 
f 509//588 508//586 210//589 
f 510//590 509//588 209//591 
f 511//592 510//590 251//593 
f 512//594 511//592 250//595 
f 513//596 512//594 282//597 
f 514//598 513//596 283//599 
f 515//600 514//598 204//601 
f 516//602 515//600 203//603 
f 517//604 516//602 180//605 
f 518//606 517//604 247//607 
f 519//608 518//606 221//609 
f 520//610 519//608 281//611 
f 521//612 520//610 248//613 
f 522//614 521//612 222//615 
f 523//616 522//614 224//617 
f 524//618 523//616 249//619 
f 525//620 524//618 232//621 
f 526//622 525//620 235//623 
f 527//624 526//622 258//625 
f 528//626 527//624 290//627 
f 529//628 528//626 260//629 
f 530//630 529//628 291//631 
f 531//632 530//630 264//633 
f 532//634 531//632 263//635 
f 533//636 532//634 292//637 
f 534//638 533//636 265//639 
f 535//640 534//638 238//641 
f 536//642 535//640 216//643 
f 480//531 536//642 237//642 
f 237//642 310//531 480//531 
f 216//643 237//642 536//642 
f 238//641 216//643 535//640 
f 265//639 238//641 534//638 
f 292//637 265//639 533//636 
f 263//635 292//637 532//634 
f 264//633 263//635 531//632 
f 291//631 264//633 530//630 
f 260//629 291//631 529//628 
f 290//627 260//629 528//626 
f 258//625 290//627 527//624 
f 235//623 258//625 526//622 
f 232//621 235//623 525//620 
f 249//619 232//621 524//618 
f 224//617 249//619 523//616 
f 222//615 224//617 522//614 
f 248//613 222//615 521//612 
f 281//611 248//613 520//610 
f 221//609 281//611 519//608 
f 247//607 221//609 518//606 
f 180//605 247//607 517//604 
f 203//603 180//605 516//602 
f 204//601 203//603 515//600 
f 283//599 204//601 514//598 
f 282//597 283//599 513//596 
f 250//595 282//597 512//594 
f 251//593 250//595 511//592 
f 209//591 251//593 510//590 
f 210//589 209//591 509//588 
f 188//587 210//589 508//586 
f 227//585 188//587 507//584 
f 226//583 227//585 506//582 
f 205//581 226//583 505//580 
f 186//579 205//581 504//578 
f 150//577 186//579 503//576 
f 138//575 150//577 502//574 
f 139//573 138//575 501//572 
f 161//571 139//573 500//570 
f 162//569 161//571 499//568 
f 142//567 162//569 498//566 
f 143//565 142//567 497//564 
f 141//563 143//565 496//562 
f 136//561 141//563 495//560 
f 132//559 136//561 494//558 
f 133//557 132//559 493//556 
f 148//555 133//557 492//554 
f 131//553 148//555 491//552 
f 135//551 131//553 490//550 
f 163//549 135//551 489//548 
f 149//547 163//549 488//546 
f 332//545 149//547 487//544 
f 330//543 332//545 486//542 
f 331//541 330//543 485//540 
f 329//539 331//541 484//538 
f 312//537 329//539 483//536 
f 313//535 312//537 482//534 
f 311//533 313//535 481//532 
f 310//531 311//533 479//530 
o mesh14
f 489//644 537//644 538//644 
f 489//644 490//644 539//644 
f 488//644 538//644 540//644 
f 539//644 537//644 489//644 
f 491//644 541//644 539//644 
f 491//644 492//644 542//644 
f 492//644 493//644 543//644 
f 493//644 494//644 544//644 
f 495//644 545//644 544//644 
f 495//644 496//644 546//644 
f 497//644 547//644 546//644 
f 497//644 498//644 548//644 
f 498//644 499//644 549//644 
f 499//644 500//644 550//644 
f 538//644 488//644 489//644 
f 542//644 541//644 491//644 
f 544//644 543//644 493//644 
f 546//644 545//644 495//644 
f 548//644 547//644 497//644 
f 550//644 549//644 499//644 
f 501//644 551//644 550//644 
f 501//644 502//644 552//644 
f 518//644 553//644 554//644 
f 518//644 519//644 555//644 
f 524//644 525//644 556//644 
f 525//644 526//644 557//644 
f 529//644 558//644 559//644 
f 529//644 530//644 560//644 
f 530//644 531//644 561//644 
f 531//644 532//644 562//644 
f 539//644 490//644 491//644 
f 544//644 494//644 495//644 
f 549//644 548//644 498//644 
f 552//644 551//644 501//644 
f 515//644 563//644 564//644 
f 515//644 516//644 565//644 
f 555//644 553//644 518//644 
f 520//644 566//644 555//644 
f 521//644 567//644 566//644 
f 521//644 522//644 568//644 
f 557//644 556//644 525//644 
f 526//644 527//644 569//644 
f 560//644 558//644 529//644 
f 562//644 561//644 531//644 
f 543//644 542//644 492//644 
f 550//644 500//644 501//644 
f 503//644 570//644 552//644 
f 503//644 504//644 571//644 
f 514//644 564//644 572//644 
f 565//644 563//644 515//644 
f 555//644 519//644 520//644 
f 568//644 567//644 521//644 
f 523//644 524//644 573//644 
f 569//644 557//644 526//644 
f 528//644 559//644 569//644 
f 561//644 560//644 530//644 
f 534//644 574//644 575//644 
f 534//644 535//644 576//644 
f 546//644 496//644 497//644 
f 571//644 570//644 503//644 
f 505//644 577//644 571//644 
f 505//644 506//644 578//644 
f 507//644 579//644 578//644 
f 507//644 508//644 580//644 
f 509//644 581//644 580//644 
f 509//644 510//644 582//644 
f 511//644 583//644 582//644 
f 511//644 512//644 584//644 
f 564//644 514//644 515//644 
f 516//644 517//644 554//644 
f 566//644 520//644 521//644 
f 522//644 523//644 585//644 
f 556//644 573//644 524//644 
f 559//644 528//644 529//644 
f 533//644 575//644 562//644 
f 576//644 574//644 534//644 
f 536//644 586//644 576//644 
f 536//644 480//644 587//644 
f 479//644 588//644 587//644 
f 479//644 481//644 589//644 
f 552//644 502//644 503//644 
f 578//644 577//644 505//644 
f 580//644 579//644 507//644 
f 582//644 581//644 509//644 
f 584//644 583//644 511//644 
f 512//644 513//644 572//644 
f 554//644 565//644 516//644 
f 585//644 568//644 522//644 
f 569//644 527//644 528//644 
f 575//644 533//644 534//644 
f 587//644 586//644 536//644 
f 589//644 588//644 479//644 
f 482//644 590//644 589//644 
f 482//644 483//644 591//644 
f 486//644 592//644 593//644 
f 486//644 487//644 540//644 
f 571//644 504//644 505//644 
f 580//644 508//644 509//644 
f 572//644 584//644 512//644 
f 554//644 517//644 518//644 
f 562//644 532//644 533//644 
f 587//644 480//644 479//644 
f 591//644 590//644 482//644 
f 483//644 484//644 594//644 
f 485//644 593//644 594//644 
f 540//644 592//644 486//644 
f 578//644 506//644 507//644 
f 572//644 513//644 514//644 
f 576//644 535//644 536//644 
f 594//644 591//644 483//644 
f 593//644 485//644 486//644 
f 582//644 510//644 511//644 
f 589//644 481//644 482//644 
f 540//644 487//644 488//644 
f 594//644 484//644 485//644 
f 573//644 585//644 523//644 
o mesh15
f 595//645 596//646 587//646 
f 597//647 595//645 588//648 
f 598//649 597//647 589//650 
f 599//651 598//649 590//652 
f 600//653 599//651 591//654 
f 601//655 600//653 594//656 
f 602//657 601//655 593//658 
f 603//659 602//657 592//660 
f 604//661 603//659 540//662 
f 605//663 604//661 538//664 
f 606//665 605//663 537//666 
f 607//667 606//665 539//668 
f 608//669 607//667 541//670 
f 609//671 608//669 542//672 
f 610//673 609//671 543//674 
f 611//675 610//673 544//676 
f 612//677 611//675 545//678 
f 613//679 612//677 546//680 
f 614//681 613//679 547//682 
f 615//683 614//681 548//684 
f 616//685 615//683 549//686 
f 617//687 616//685 550//688 
f 618//689 617//687 551//690 
f 619//691 618//689 552//692 
f 620//693 619//691 570//694 
f 621//695 620//693 571//696 
f 622//697 621//695 577//698 
f 623//699 622//697 578//700 
f 624//701 623//699 579//702 
f 625//703 624//701 580//704 
f 626//705 625//703 581//706 
f 627//707 626//705 582//708 
f 628//709 627//707 583//710 
f 629//711 628//709 584//712 
f 630//713 629//711 572//714 
f 631//715 630//713 564//716 
f 632//717 631//715 563//718 
f 633//719 632//717 565//720 
f 634//721 633//719 554//722 
f 635//723 634//721 553//724 
f 636//725 635//723 555//726 
f 637//727 636//725 566//728 
f 638//729 637//727 567//730 
f 639//731 638//729 568//732 
f 640//733 639//731 585//734 
f 641//735 640//733 573//736 
f 642//737 641//735 556//738 
f 643//739 642//737 557//740 
f 644//741 643//739 569//742 
f 645//743 644//741 559//744 
f 646//745 645//743 558//746 
f 647//747 646//745 560//748 
f 648//749 647//747 561//750 
f 649//751 648//749 562//752 
f 650//753 649//751 575//754 
f 651//755 650//753 574//756 
f 652//757 651//755 576//758 
f 596//646 652//757 586//757 
f 586//757 587//646 596//646 
f 576//758 586//757 652//757 
f 574//756 576//758 651//755 
f 575//754 574//756 650//753 
f 562//752 575//754 649//751 
f 561//750 562//752 648//749 
f 560//748 561//750 647//747 
f 558//746 560//748 646//745 
f 559//744 558//746 645//743 
f 569//742 559//744 644//741 
f 557//740 569//742 643//739 
f 556//738 557//740 642//737 
f 573//736 556//738 641//735 
f 585//734 573//736 640//733 
f 568//732 585//734 639//731 
f 567//730 568//732 638//729 
f 566//728 567//730 637//727 
f 555//726 566//728 636//725 
f 553//724 555//726 635//723 
f 554//722 553//724 634//721 
f 565//720 554//722 633//719 
f 563//718 565//720 632//717 
f 564//716 563//718 631//715 
f 572//714 564//716 630//713 
f 584//712 572//714 629//711 
f 583//710 584//712 628//709 
f 582//708 583//710 627//707 
f 581//706 582//708 626//705 
f 580//704 581//706 625//703 
f 579//702 580//704 624//701 
f 578//700 579//702 623//699 
f 577//698 578//700 622//697 
f 571//696 577//698 621//695 
f 570//694 571//696 620//693 
f 552//692 570//694 619//691 
f 551//690 552//692 618//689 
f 550//688 551//690 617//687 
f 549//686 550//688 616//685 
f 548//684 549//686 615//683 
f 547//682 548//684 614//681 
f 546//680 547//682 613//679 
f 545//678 546//680 612//677 
f 544//676 545//678 611//675 
f 543//674 544//676 610//673 
f 542//672 543//674 609//671 
f 541//670 542//672 608//669 
f 539//668 541//670 607//667 
f 537//666 539//668 606//665 
f 538//664 537//666 605//663 
f 540//662 538//664 604//661 
f 592//660 540//662 603//659 
f 593//658 592//660 602//657 
f 594//656 593//658 601//655 
f 591//654 594//656 600//653 
f 590//652 591//654 599//651 
f 589//650 590//652 598//649 
f 588//648 589//650 597//647 
f 587//646 588//648 595//645 
o mesh16
f 647//759 648//759 367//759 
f 646//759 647//759 368//759 
f 368//759 369//759 646//759 
f 645//759 646//759 369//759 
f 369//759 370//759 645//759 
f 644//759 645//759 370//759 
f 642//759 643//759 372//759 
f 641//759 642//759 373//759 
f 639//759 640//759 375//759 
f 638//759 639//759 376//759 
f 637//759 638//759 377//759 
f 358//759 633//759 634//759 
f 626//759 653//759 654//759 
f 370//759 371//759 644//759 
f 643//759 644//759 371//759 
f 373//759 374//759 641//759 
f 640//759 641//759 374//759 
f 376//759 377//759 638//759 
f 359//759 636//759 637//759 
f 634//759 359//759 358//759 
f 629//759 419//759 418//759 
f 629//759 630//759 358//759 
f 626//759 655//759 653//759 
f 626//759 656//759 657//759 
f 626//759 658//759 659//759 
f 409//759 660//759 658//759 
f 409//759 661//759 662//759 
f 409//759 663//759 664//759 
f 409//759 665//759 666//759 
f 371//759 372//759 643//759 
f 374//759 375//759 640//759 
f 377//759 359//759 637//759 
f 634//759 635//759 359//759 
f 358//759 630//759 631//759 
f 358//759 419//759 629//759 
f 657//759 655//759 626//759 
f 658//759 626//759 409//759 
f 664//759 661//759 409//759 
f 666//759 667//759 409//759 
f 409//759 668//759 669//759 
f 365//759 650//759 651//759 
f 366//759 649//759 650//759 
f 372//759 373//759 642//759 
f 635//759 636//759 359//759 
f 418//759 417//759 629//759 
f 623//759 624//759 670//759 
f 671//759 670//759 624//759 
f 659//759 656//759 626//759 
f 667//759 663//759 409//759 
f 409//759 672//759 668//759 
f 378//759 356//759 595//759 
f 357//759 652//759 596//759 
f 364//759 651//759 652//759 
f 650//759 365//759 366//759 
f 648//759 649//759 366//759 
f 375//759 376//759 639//759 
f 631//759 632//759 358//759 
f 628//759 629//759 417//759 
f 627//759 628//759 414//759 
f 626//759 411//759 410//759 
f 626//759 627//759 412//759 
f 670//759 673//759 623//759 
f 624//759 625//759 671//759 
f 626//759 674//759 675//759 
f 662//759 660//759 409//759 
f 669//759 676//759 409//759 
f 356//759 596//759 595//759 
f 652//759 357//759 364//759 
f 366//759 367//759 648//759 
f 632//759 633//759 358//759 
f 417//759 416//759 628//759 
f 414//759 413//759 627//759 
f 412//759 411//759 626//759 
f 677//759 622//759 623//759 
f 626//759 678//759 671//759 
f 626//759 679//759 674//759 
f 676//759 665//759 409//759 
f 408//759 407//759 680//759 
f 407//759 406//759 681//759 
f 596//759 356//759 357//759 
f 367//759 368//759 647//759 
f 416//759 415//759 628//759 
f 410//759 409//759 626//759 
f 625//759 626//759 671//759 
f 654//759 679//759 626//759 
f 672//759 409//759 408//759 
f 681//759 680//759 407//759 
f 651//759 364//759 365//759 
f 413//759 412//759 627//759 
f 675//759 678//759 626//759 
f 680//759 682//759 408//759 
f 683//759 684//759 396//759 
f 685//759 683//759 397//759 
f 686//759 685//759 398//759 
f 687//759 686//759 399//759 
f 415//759 414//759 628//759 
f 408//759 682//759 672//759 
f 406//759 360//759 688//759 
f 361//759 689//759 690//759 
f 392//759 691//759 689//759 
f 397//759 398//759 685//759 
f 399//759 400//759 687//759 
f 692//759 687//759 400//759 
f 693//759 692//759 401//759 
f 694//759 616//759 617//759 
f 673//759 677//759 623//759 
f 360//759 690//759 688//759 
f 689//759 361//759 392//759 
f 695//759 696//759 394//759 
f 684//759 695//759 395//759 
f 398//759 399//759 686//759 
f 401//759 402//759 693//759 
f 697//759 693//759 402//759 
f 698//759 697//759 403//759 
f 694//759 615//759 616//759 
f 694//759 613//759 614//759 
f 677//759 621//759 622//759 
f 690//759 360//759 361//759 
f 393//759 699//759 691//759 
f 394//759 696//759 699//759 
f 395//759 396//759 684//759 
f 400//759 401//759 692//759 
f 403//759 404//759 698//759 
f 700//759 698//759 404//759 
f 608//759 389//759 388//759 
f 607//759 388//759 387//759 
f 606//759 387//759 386//759 
f 605//759 386//759 385//759 
f 701//759 620//759 621//759 
f 694//759 618//759 619//759 
f 614//759 615//759 694//759 
f 694//759 610//759 611//759 
f 380//759 379//759 598//759 
f 379//759 378//759 597//759 
f 688//759 681//759 406//759 
f 699//759 393//759 394//759 
f 396//759 397//759 683//759 
f 404//759 405//759 700//759 
f 362//759 702//759 703//759 
f 362//759 610//759 694//759 
f 609//759 390//759 389//759 
f 387//759 606//759 607//759 
f 385//759 604//759 605//759 
f 604//759 385//759 384//759 
f 603//759 384//759 383//759 
f 602//759 383//759 382//759 
f 621//759 677//759 701//759 
f 617//759 618//759 694//759 
f 611//759 612//759 694//759 
f 600//759 381//759 380//759 
f 597//759 598//759 379//759 
f 691//759 392//759 393//759 
f 402//759 403//759 697//759 
f 704//759 700//759 405//759 
f 363//759 705//759 706//759 
f 703//759 363//759 362//759 
f 694//759 707//759 362//759 
f 610//759 391//759 390//759 
f 388//759 607//759 608//759 
f 384//759 603//759 604//759 
f 382//759 601//759 602//759 
f 601//759 382//759 381//759 
f 701//759 708//759 620//759 
f 612//759 613//759 694//759 
f 598//759 599//759 380//759 
f 394//759 395//759 695//759 
f 706//759 704//759 363//759 
f 362//759 709//759 702//759 
f 362//759 707//759 710//759 
f 390//759 609//759 610//759 
f 386//759 605//759 606//759 
f 381//759 600//759 601//759 
f 619//759 620//759 694//759 
f 595//759 597//759 378//759 
f 703//759 705//759 363//759 
f 362//759 391//759 610//759 
f 383//759 602//759 603//759 
f 380//759 599//759 600//759 
f 710//759 709//759 362//759 
f 708//759 694//759 620//759 
f 389//759 608//759 609//759 
f 405//759 363//759 704//759 
o mesh17
f 673//760 670//761 711//761 
f 677//762 673//760 712//763 
f 701//764 677//762 713//765 
f 708//766 701//764 714//767 
f 694//768 708//766 715//769 
f 707//770 694//768 716//771 
f 710//772 707//770 717//773 
f 709//774 710//772 718//775 
f 702//776 709//774 719//777 
f 703//778 702//776 720//779 
f 705//780 703//778 721//781 
f 706//782 705//780 722//783 
f 704//784 706//782 723//785 
f 700//786 704//784 724//787 
f 698//788 700//786 725//789 
f 697//790 698//788 726//791 
f 693//792 697//790 727//793 
f 692//794 693//792 728//795 
f 687//796 692//794 729//797 
f 686//798 687//796 730//799 
f 685//800 686//798 731//801 
f 683//802 685//800 732//803 
f 684//804 683//802 733//805 
f 695//806 684//804 734//807 
f 696//808 695//806 735//809 
f 699//810 696//808 736//811 
f 691//812 699//810 737//813 
f 689//814 691//812 738//815 
f 690//816 689//814 739//817 
f 688//818 690//816 740//819 
f 681//820 688//818 741//821 
f 680//822 681//820 742//823 
f 682//824 680//822 743//825 
f 672//826 682//824 744//827 
f 668//828 672//826 745//829 
f 669//830 668//828 746//831 
f 676//832 669//830 747//833 
f 665//834 676//832 748//835 
f 666//836 665//834 749//837 
f 667//838 666//836 750//839 
f 663//840 667//838 751//841 
f 664//842 663//840 752//843 
f 661//844 664//842 753//845 
f 662//846 661//844 754//847 
f 660//848 662//846 755//849 
f 658//850 660//848 756//851 
f 659//852 658//850 757//853 
f 656//854 659//852 758//855 
f 657//856 656//854 759//857 
f 655//858 657//856 760//859 
f 653//860 655//858 761//861 
f 654//862 653//860 762//863 
f 679//864 654//862 763//865 
f 674//866 679//864 764//867 
f 675//868 674//866 765//869 
f 678//870 675//868 766//871 
f 671//872 678//870 767//873 
f 670//761 671//872 768//872 
f 768//872 711//761 670//761 
f 767//873 768//872 671//872 
f 766//871 767//873 678//870 
f 765//869 766//871 675//868 
f 764//867 765//869 674//866 
f 763//865 764//867 679//864 
f 762//863 763//865 654//862 
f 761//861 762//863 653//860 
f 760//859 761//861 655//858 
f 759//857 760//859 657//856 
f 758//855 759//857 656//854 
f 757//853 758//855 659//852 
f 756//851 757//853 658//850 
f 755//849 756//851 660//848 
f 754//847 755//849 662//846 
f 753//845 754//847 661//844 
f 752//843 753//845 664//842 
f 751//841 752//843 663//840 
f 750//839 751//841 667//838 
f 749//837 750//839 666//836 
f 748//835 749//837 665//834 
f 747//833 748//835 676//832 
f 746//831 747//833 669//830 
f 745//829 746//831 668//828 
f 744//827 745//829 672//826 
f 743//825 744//827 682//824 
f 742//823 743//825 680//822 
f 741//821 742//823 681//820 
f 740//819 741//821 688//818 
f 739//817 740//819 690//816 
f 738//815 739//817 689//814 
f 737//813 738//815 691//812 
f 736//811 737//813 699//810 
f 735//809 736//811 696//808 
f 734//807 735//809 695//806 
f 733//805 734//807 684//804 
f 732//803 733//805 683//802 
f 731//801 732//803 685//800 
f 730//799 731//801 686//798 
f 729//797 730//799 687//796 
f 728//795 729//797 692//794 
f 727//793 728//795 693//792 
f 726//791 727//793 697//790 
f 725//789 726//791 698//788 
f 724//787 725//789 700//786 
f 723//785 724//787 704//784 
f 722//783 723//785 706//782 
f 721//781 722//783 705//780 
f 720//779 721//781 703//778 
f 719//777 720//779 702//776 
f 718//775 719//777 709//774 
f 717//773 718//775 710//772 
f 716//771 717//773 707//770 
f 715//769 716//771 694//768 
f 714//767 715//769 708//766 
f 713//765 714//767 701//764 
f 712//763 713//765 677//762 
f 711//761 712//763 673//760 
o mesh18
f 769//874 721//874 720//874 
f 769//874 770//874 722//874 
f 771//874 720//874 719//874 
f 722//874 721//874 769//874 
f 772//874 723//874 722//874 
f 772//874 773//874 724//874 
f 773//874 774//874 725//874 
f 774//874 775//874 726//874 
f 776//874 727//874 726//874 
f 776//874 777//874 728//874 
f 778//874 729//874 728//874 
f 778//874 779//874 730//874 
f 779//874 780//874 731//874 
f 780//874 781//874 732//874 
f 720//874 771//874 769//874 
f 724//874 723//874 772//874 
f 726//874 725//874 774//874 
f 728//874 727//874 776//874 
f 730//874 729//874 778//874 
f 732//874 731//874 780//874 
f 782//874 733//874 732//874 
f 782//874 783//874 734//874 
f 784//874 750//874 749//874 
f 784//874 785//874 751//874 
f 786//874 787//874 757//874 
f 787//874 788//874 758//874 
f 789//874 761//874 760//874 
f 789//874 790//874 762//874 
f 790//874 791//874 763//874 
f 791//874 792//874 764//874 
f 722//874 770//874 772//874 
f 726//874 775//874 776//874 
f 731//874 730//874 779//874 
f 734//874 733//874 782//874 
f 793//874 747//874 746//874 
f 793//874 794//874 748//874 
f 751//874 750//874 784//874 
f 795//874 752//874 751//874 
f 796//874 753//874 752//874 
f 796//874 797//874 754//874 
f 758//874 757//874 787//874 
f 788//874 798//874 759//874 
f 762//874 761//874 789//874 
f 764//874 763//874 791//874 
f 725//874 724//874 773//874 
f 732//874 781//874 782//874 
f 799//874 735//874 734//874 
f 799//874 800//874 736//874 
f 801//874 746//874 745//874 
f 748//874 747//874 793//874 
f 751//874 785//874 795//874 
f 754//874 753//874 796//874 
f 802//874 786//874 756//874 
f 759//874 758//874 788//874 
f 803//874 760//874 759//874 
f 763//874 762//874 790//874 
f 804//874 766//874 765//874 
f 804//874 805//874 767//874 
f 728//874 777//874 778//874 
f 736//874 735//874 799//874 
f 806//874 737//874 736//874 
f 806//874 807//874 738//874 
f 808//874 739//874 738//874 
f 808//874 809//874 740//874 
f 810//874 741//874 740//874 
f 810//874 811//874 742//874 
f 812//874 743//874 742//874 
f 812//874 813//874 744//874 
f 746//874 801//874 793//874 
f 794//874 814//874 749//874 
f 752//874 795//874 796//874 
f 797//874 802//874 755//874 
f 757//874 756//874 786//874 
f 760//874 803//874 789//874 
f 815//874 765//874 764//874 
f 767//874 766//874 804//874 
f 816//874 768//874 767//874 
f 816//874 817//874 711//874 
f 818//874 712//874 711//874 
f 818//874 819//874 713//874 
f 734//874 783//874 799//874 
f 738//874 737//874 806//874 
f 740//874 739//874 808//874 
f 742//874 741//874 810//874 
f 744//874 743//874 812//874 
f 813//874 820//874 745//874 
f 749//874 748//874 794//874 
f 755//874 754//874 797//874 
f 759//874 798//874 803//874 
f 765//874 815//874 804//874 
f 711//874 768//874 816//874 
f 713//874 712//874 818//874 
f 821//874 714//874 713//874 
f 821//874 822//874 715//874 
f 823//874 718//874 717//874 
f 823//874 824//874 719//874 
f 736//874 800//874 806//874 
f 740//874 809//874 810//874 
f 745//874 744//874 813//874 
f 749//874 814//874 784//874 
f 764//874 792//874 815//874 
f 711//874 817//874 818//874 
f 715//874 714//874 821//874 
f 822//874 825//874 716//874 
f 826//874 717//874 716//874 
f 719//874 718//874 823//874 
f 738//874 807//874 808//874 
f 745//874 820//874 801//874 
f 767//874 805//874 816//874 
f 716//874 715//874 822//874 
f 717//874 826//874 823//874 
f 742//874 811//874 812//874 
f 713//874 819//874 821//874 
f 719//874 824//874 771//874 
f 716//874 825//874 826//874 
f 756//874 755//874 802//874 
o mesh19
f 818//875 817//876 207//876 
f 819//877 818//875 206//878 
f 821//879 819//877 228//880 
f 822//881 821//879 212//882 
f 825//883 822//881 211//884 
f 826//885 825//883 229//886 
f 823//887 826//885 214//888 
f 824//889 823//887 213//890 
f 771//891 824//889 190//892 
f 769//893 771//891 189//894 
f 770//895 769//893 215//896 
f 772//897 770//895 192//898 
f 773//899 772//897 191//900 
f 774//901 773//899 187//902 
f 775//903 774//901 137//904 
f 776//905 775//903 144//906 
f 777//907 776//905 164//908 
f 778//909 777//907 166//910 
f 779//911 778//909 165//912 
f 780//913 779//911 152//914 
f 781//915 780//913 167//916 
f 782//917 781//915 182//918 
f 783//919 782//917 185//920 
f 799//921 783//919 337//922 
f 800//923 799//921 300//924 
f 806//925 800//923 299//926 
f 807//927 806//925 326//928 
f 808//929 807//927 303//930 
f 809//931 808//929 328//932 
f 810//933 809//931 336//934 
f 811//935 810//933 267//936 
f 812//937 811//935 241//938 
f 813//939 812//937 240//940 
f 820//941 813//939 268//942 
f 801//943 820//941 270//944 
f 793//945 801//943 244//946 
f 794//947 793//945 325//948 
f 814//949 794//947 324//950 
f 784//951 814//949 272//952 
f 785//953 784//951 271//954 
f 795//955 785//953 274//956 
f 796//957 795//955 273//958 
f 797//959 796//957 276//960 
f 802//961 797//959 278//962 
f 786//963 802//961 198//964 
f 787//965 786//963 197//966 
f 788//967 787//965 179//968 
f 798//969 788//967 178//970 
f 803//971 798//969 200//972 
f 789//973 803//971 217//974 
f 790//975 789//973 201//976 
f 791//977 790//975 181//978 
f 792//979 791//977 245//980 
f 815//981 792//979 219//982 
f 804//983 815//981 218//984 
f 805//985 804//983 246//986 
f 816//987 805//985 202//988 
f 817//876 816//987 208//987 
f 208//987 207//876 817//876 
f 202//988 208//987 816//987 
f 246//986 202//988 805//985 
f 218//984 246//986 804//983 
f 219//982 218//984 815//981 
f 245//980 219//982 792//979 
f 181//978 245//980 791//977 
f 201//976 181//978 790//975 
f 217//974 201//976 789//973 
f 200//972 217//974 803//971 
f 178//970 200//972 798//969 
f 179//968 178//970 788//967 
f 197//966 179//968 787//965 
f 198//964 197//966 786//963 
f 278//962 198//964 802//961 
f 276//960 278//962 797//959 
f 273//958 276//960 796//957 
f 274//956 273//958 795//955 
f 271//954 274//956 785//953 
f 272//952 271//954 784//951 
f 324//950 272//952 814//949 
f 325//948 324//950 794//947 
f 244//946 325//948 793//945 
f 270//944 244//946 801//943 
f 268//942 270//944 820//941 
f 240//940 268//942 813//939 
f 241//938 240//940 812//937 
f 267//936 241//938 811//935 
f 336//934 267//936 810//933 
f 328//932 336//934 809//931 
f 303//930 328//932 808//929 
f 326//928 303//930 807//927 
f 299//926 326//928 806//925 
f 300//924 299//926 800//923 
f 337//922 300//924 799//921 
f 185//920 337//922 783//919 
f 182//918 185//920 782//917 
f 167//916 182//918 781//915 
f 152//914 167//916 780//913 
f 165//912 152//914 779//911 
f 166//910 165//912 778//909 
f 164//908 166//910 777//907 
f 144//906 164//908 776//905 
f 137//904 144//906 775//903 
f 187//902 137//904 774//901 
f 191//900 187//902 773//899 
f 192//898 191//900 772//897 
f 215//896 192//898 770//895 
f 189//894 215//896 769//893 
f 190//892 189//894 771//891 
f 213//890 190//892 824//889 
f 214//888 213//890 823//887 
f 229//886 214//888 826//885 
f 211//884 229//886 825//883 
f 212//882 211//884 822//881 
f 228//880 212//882 821//879 
f 206//878 228//880 819//877 
f 207//876 206//878 818//875 
