# OBJ generated by ONSHAPE BY PTC INC, 1.217 Units = meters
mtllib ARCADA001 - Part 1.mtl
g Part 1
v -0.00994138 0 0.00108119 
v -0.01 0 -6.12323e-19 
v -0.01 0.007 -6.12323e-19 
v -0.00976621 0 0.0021497 
v -0.00994138 0.007 0.00108119 
v -0.00947653 0 0.00319302 
v -0.00976621 0.007 0.0021497 
v -0.00907575 0 0.00419889 
v -0.00947653 0.007 0.00319302 
v -0.00856857 0 0.00515554 
v -0.00907575 0.007 0.00419889 
v -0.00796093 0 0.00605174 
v -0.00856857 0.007 0.00515554 
v -0.00725995 0 0.00687699 
v -0.00796093 0.007 0.00605174 
v -0.00647386 0 0.00762162 
v -0.00725995 0.007 0.00687699 
v -0.00561187 0 0.00827689 
v -0.00647386 0.007 0.00762162 
v -0.00468408 0 0.00883512 
v -0.00561187 0.007 0.00827689 
v -0.00370138 0 0.00928977 
v -0.00468408 0.007 0.00883512 
v -0.00267528 0 0.0096355 
v -0.00370138 0.007 0.00928977 
v -0.00161782 0 0.00986827 
v -0.00267528 0.007 0.0096355 
v -0.000541389 0 0.00998533 
v -0.00161782 0.007 0.00986827 
v 0.000541389 0 0.00998533 
v -0.000541389 0.007 0.00998533 
v 0.00161782 0 0.00986827 
v 0.000541389 0.007 0.00998533 
v 0.00267528 0 0.0096355 
v 0.00161782 0.007 0.00986827 
v 0.00370138 0 0.00928977 
v 0.00267528 0.007 0.0096355 
v 0.00468408 0 0.00883512 
v 0.00370138 0.007 0.00928977 
v 0.00561187 0 0.00827689 
v 0.00468408 0.007 0.00883512 
v 0.00647386 0 0.00762162 
v 0.00561187 0.007 0.00827689 
v 0.00725995 0 0.00687699 
v 0.00647386 0.007 0.00762162 
v 0.00796093 0 0.00605174 
v 0.00725995 0.007 0.00687699 
v 0.00856857 0 0.00515554 
v 0.00796093 0.007 0.00605174 
v 0.00907575 0 0.00419889 
v 0.00856857 0.007 0.00515554 
v 0.00947653 0 0.00319302 
v 0.00907575 0.007 0.00419889 
v 0.00976621 0 0.0021497 
v 0.00947653 0.007 0.00319302 
v 0.00994138 0 0.00108119 
v 0.00976621 0.007 0.0021497 
v 0.01 0 -4.28626e-18 
v 0.00994138 0.007 0.00108119 
v 0.00994138 0 -0.00108119 
v 0.01 0.007 -1.83697e-18 
v 0.00976621 0 -0.0021497 
v 0.00994138 0.007 -0.00108119 
v 0.00947653 0 -0.00319302 
v 0.00976621 0.007 -0.0021497 
v 0.00907575 0 -0.00419889 
v 0.00947653 0.007 -0.00319302 
v 0.00856857 0 -0.00515554 
v 0.00907575 0.007 -0.00419889 
v 0.00796093 0 -0.00605174 
v 0.00856857 0.007 -0.00515554 
v 0.00725995 0 -0.00687699 
v 0.00796093 0.007 -0.00605174 
v 0.00647386 0 -0.00762162 
v 0.00725995 0.007 -0.00687699 
v 0.00561187 0 -0.00827689 
v 0.00647386 0.007 -0.00762162 
v 0.00468408 0 -0.00883512 
v 0.00561187 0.007 -0.00827689 
v 0.00370138 0 -0.00928977 
v 0.00468408 0.007 -0.00883512 
v 0.00267528 0 -0.0096355 
v 0.00370138 0.007 -0.00928977 
v 0.00161782 0 -0.00986827 
v 0.00267528 0.007 -0.0096355 
v 0.000541389 0 -0.00998533 
v 0.00161782 0.007 -0.00986827 
v -0.000541389 0 -0.00998533 
v 0.000541389 0.007 -0.00998533 
v -0.00161782 0 -0.00986827 
v -0.000541389 0.007 -0.00998533 
v -0.00267528 0 -0.0096355 
v -0.00161782 0.007 -0.00986827 
v -0.00370138 0 -0.00928977 
v -0.00267528 0.007 -0.0096355 
v -0.00468408 0 -0.00883512 
v -0.00370138 0.007 -0.00928977 
v -0.00561187 0 -0.00827689 
v -0.00468408 0.007 -0.00883512 
v -0.00647386 0 -0.00762162 
v -0.00561187 0.007 -0.00827689 
v -0.00725995 0 -0.00687699 
v -0.00647386 0.007 -0.00762162 
v -0.00796093 0 -0.00605174 
v -0.00725995 0.007 -0.00687699 
v -0.00856857 0 -0.00515554 
v -0.00796093 0.007 -0.00605174 
v -0.00907575 0 -0.00419889 
v -0.00856857 0.007 -0.00515554 
v -0.00947653 0 -0.00319302 
v -0.00907575 0.007 -0.00419889 
v -0.00976621 0 -0.0021497 
v -0.00947653 0.007 -0.00319302 
v -0.00994138 0 -0.00108119 
v -0.00976621 0.007 -0.0021497 
v -0.00994138 0.007 -0.00108119 
v 0.000866223 0.007 -0.0159765 
v -0.000866223 0.007 -0.0159765 
v -0.00258851 0.007 -0.0157892 
v -0.00428045 0.007 -0.0154168 
v -0.00749454 0.007 -0.0141362 
v -0.00897899 0.007 -0.013243 
v 0.0103582 0.007 0.0121946 
v 0.0116159 0.007 0.0110032 
v -0.0103582 0.007 -0.0121946 
v 0.0127375 0.007 0.00968279 
v 0.0137097 0.007 0.00824886 
v 0.0145212 0.007 0.00671823 
v -0.00592221 0.007 -0.0148636 
v -0.0116159 0.007 -0.0110032 
v -0.00592221 0.007 0.0148636 
v -0.00428045 0.007 0.0154168 
v 0.0159062 0.007 -0.0017299 
v 0.0156259 0.007 -0.00343953 
v 0.0145212 0.007 -0.00671823 
v 0.0137097 0.007 -0.00824886 
v 0.00428045 0.007 -0.0154168 
v 0.00258851 0.007 -0.0157892 
v -0.0159062 0.007 -0.0017299 
v -0.016 0.007 -9.79717e-19 
v -0.0145212 0.007 0.00671823 
v -0.0137097 0.007 0.00824886 
v -0.00258851 0.007 0.0157892 
v 0.0151625 0.007 0.00510882 
v 0.0151625 0.007 -0.00510882 
v 0.0127375 0.007 -0.00968279 
v -0.0127375 0.007 -0.00968279 
v -0.0137097 0.007 -0.00824886 
v -0.0145212 0.007 -0.00671823 
v -0.0151625 0.007 -0.00510882 
v -0.0156259 0.007 -0.00343953 
v -0.0151625 0.007 0.00510882 
v -0.0116159 0.007 0.0110032 
v -0.0103582 0.007 0.0121946 
v -0.00897899 0.007 0.013243 
v -0.000866223 0.007 0.0159765 
v 0.0156259 0.007 0.00343953 
v 0.0159062 0.007 0.0017299 
v 0.016 0.007 -6.85802e-18 
v 0.0116159 0.007 -0.0110032 
v 0.0103582 0.007 -0.0121946 
v 0.00897899 0.007 -0.013243 
v 0.00749454 0.007 -0.0141362 
v 0.00592221 0.007 -0.0148636 
v -0.0127375 0.007 0.00968279 
v -0.00749454 0.007 0.0141362 
v 0.00749454 0.007 0.0141362 
v 0.00897899 0.007 0.013243 
v -0.0159062 0.007 0.0017299 
v -0.0156259 0.007 0.00343953 
v 0.000866223 0.007 0.0159765 
v 0.00428045 0.007 0.0154168 
v 0.00592221 0.007 0.0148636 
v 0.00258851 0.007 0.0157892 
v -0.016 0 -9.79717e-19 
v -0.0159062 0 -0.0017299 
v -0.0156259 0 -0.00343953 
v -0.0151625 0 -0.00510882 
v -0.0145212 0 -0.00671823 
v -0.0137097 0 -0.00824886 
v -0.0127375 0 -0.00968279 
v -0.0116159 0 -0.0110032 
v -0.0103582 0 -0.0121946 
v -0.00897899 0 -0.013243 
v -0.00749454 0 -0.0141362 
v -0.00592221 0 -0.0148636 
v -0.00428045 0 -0.0154168 
v -0.00258851 0 -0.0157892 
v -0.000866223 0 -0.0159765 
v 0.000866223 0 -0.0159765 
v 0.00258851 0 -0.0157892 
v 0.00428045 0 -0.0154168 
v 0.00592221 0 -0.0148636 
v 0.00749454 0 -0.0141362 
v 0.00897899 0 -0.013243 
v 0.0103582 0 -0.0121946 
v 0.0116159 0 -0.0110032 
v 0.0127375 0 -0.00968279 
v 0.0137097 0 -0.00824886 
v 0.0145212 0 -0.00671823 
v 0.0151625 0 -0.00510882 
v 0.0156259 0 -0.00343953 
v 0.0159062 0 -0.0017299 
v 0.016 0 -2.93915e-18 
v 0.0159062 0 0.0017299 
v 0.0156259 0 0.00343953 
v 0.0151625 0 0.00510882 
v 0.0145212 0 0.00671823 
v 0.0137097 0 0.00824886 
v 0.0127375 0 0.00968279 
v 0.0116159 0 0.0110032 
v 0.0103582 0 0.0121946 
v 0.00897899 0 0.013243 
v 0.00749454 0 0.0141362 
v 0.00592221 0 0.0148636 
v 0.00428045 0 0.0154168 
v 0.00258851 0 0.0157892 
v 0.000866223 0 0.0159765 
v -0.000866223 0 0.0159765 
v -0.00258851 0 0.0157892 
v -0.00428045 0 0.0154168 
v -0.00592221 0 0.0148636 
v -0.00749454 0 0.0141362 
v -0.00897899 0 0.013243 
v -0.0103582 0 0.0121946 
v -0.0116159 0 0.0110032 
v -0.0127375 0 0.00968279 
v -0.0137097 0 0.00824886 
v -0.0145212 0 0.00671823 
v -0.0151625 0 0.00510882 
v -0.0156259 0 0.00343953 
v -0.0159062 0 0.0017299 
vn 0.994138 0 -0.108119 
vn 1 0 -2.44929e-16 
vn 0.976621 0 -0.21497 
vn 0.994138 0 -0.108119 
vn 0.947653 0 -0.319302 
vn 0.976621 0 -0.21497 
vn 0.907575 0 -0.419889 
vn 0.947653 0 -0.319302 
vn 0.856857 0 -0.515554 
vn 0.907575 0 -0.419889 
vn 0.796093 0 -0.605174 
vn 0.856857 0 -0.515554 
vn 0.725995 0 -0.687699 
vn 0.796093 0 -0.605174 
vn 0.647386 0 -0.762162 
vn 0.725995 0 -0.687699 
vn 0.561187 0 -0.827689 
vn 0.647386 0 -0.762162 
vn 0.468408 0 -0.883512 
vn 0.561187 0 -0.827689 
vn 0.370138 0 -0.928977 
vn 0.468408 0 -0.883512 
vn 0.267528 0 -0.96355 
vn 0.370138 0 -0.928977 
vn 0.161782 0 -0.986827 
vn 0.267528 0 -0.96355 
vn 0.0541389 0 -0.998533 
vn 0.161782 0 -0.986827 
vn -0.0541389 0 -0.998533 
vn 0.0541389 0 -0.998533 
vn -0.161782 0 -0.986827 
vn -0.0541389 0 -0.998533 
vn -0.267528 0 -0.96355 
vn -0.161782 0 -0.986827 
vn -0.370138 0 -0.928977 
vn -0.267528 0 -0.96355 
vn -0.468408 0 -0.883512 
vn -0.370138 0 -0.928977 
vn -0.561187 0 -0.827689 
vn -0.468408 0 -0.883512 
vn -0.647386 0 -0.762162 
vn -0.561187 0 -0.827689 
vn -0.725995 0 -0.687699 
vn -0.647386 0 -0.762162 
vn -0.796093 0 -0.605174 
vn -0.725995 0 -0.687699 
vn -0.856857 0 -0.515554 
vn -0.796093 0 -0.605174 
vn -0.907575 0 -0.419889 
vn -0.856857 0 -0.515554 
vn -0.947653 0 -0.319302 
vn -0.907575 0 -0.419889 
vn -0.976621 0 -0.21497 
vn -0.947653 0 -0.319302 
vn -0.994138 0 -0.108119 
vn -0.976621 0 -0.21497 
vn -1 0 1.22465e-16 
vn -0.994138 0 -0.108119 
vn -0.994138 0 0.108119 
vn -1 0 1.22465e-16 
vn -0.976621 0 0.21497 
vn -0.994138 0 0.108119 
vn -0.947653 0 0.319302 
vn -0.976621 0 0.21497 
vn -0.907575 0 0.419889 
vn -0.947653 0 0.319302 
vn -0.856857 0 0.515554 
vn -0.907575 0 0.419889 
vn -0.796093 0 0.605174 
vn -0.856857 0 0.515554 
vn -0.725995 0 0.687699 
vn -0.796093 0 0.605174 
vn -0.647386 0 0.762162 
vn -0.725995 0 0.687699 
vn -0.561187 0 0.827689 
vn -0.647386 0 0.762162 
vn -0.468408 0 0.883512 
vn -0.561187 0 0.827689 
vn -0.370138 0 0.928977 
vn -0.468408 0 0.883512 
vn -0.267528 0 0.96355 
vn -0.370138 0 0.928977 
vn -0.161782 0 0.986827 
vn -0.267528 0 0.96355 
vn -0.0541389 0 0.998533 
vn -0.161782 0 0.986827 
vn 0.0541389 0 0.998533 
vn -0.0541389 0 0.998533 
vn 0.161782 0 0.986827 
vn 0.0541389 0 0.998533 
vn 0.267528 0 0.96355 
vn 0.161782 0 0.986827 
vn 0.370138 0 0.928977 
vn 0.267528 0 0.96355 
vn 0.468408 0 0.883512 
vn 0.370138 0 0.928977 
vn 0.561187 0 0.827689 
vn 0.468408 0 0.883512 
vn 0.647386 0 0.762162 
vn 0.561187 0 0.827689 
vn 0.725995 0 0.687699 
vn 0.647386 0 0.762162 
vn 0.796093 0 0.605174 
vn 0.725995 0 0.687699 
vn 0.856857 0 0.515554 
vn 0.796093 0 0.605174 
vn 0.907575 0 0.419889 
vn 0.856857 0 0.515554 
vn 0.947653 0 0.319302 
vn 0.907575 0 0.419889 
vn 0.976621 0 0.21497 
vn 0.947653 0 0.319302 
vn 0.994138 0 0.108119 
vn 0.976621 0 0.21497 
vn 0 1 0 
vn -1 0 0 
vn -0.994138 0 -0.108119 
vn -0.976621 0 -0.21497 
vn -0.947653 0 -0.319302 
vn -0.907575 0 -0.419889 
vn -0.856857 0 -0.515554 
vn -0.796093 0 -0.605174 
vn -0.725995 0 -0.687699 
vn -0.647386 0 -0.762162 
vn -0.561187 0 -0.827689 
vn -0.468408 0 -0.883512 
vn -0.370138 0 -0.928977 
vn -0.267528 0 -0.96355 
vn -0.161782 0 -0.986827 
vn -0.0541389 0 -0.998533 
vn 0.0541389 0 -0.998533 
vn 0.161782 0 -0.986827 
vn 0.267528 0 -0.96355 
vn 0.370138 0 -0.928977 
vn 0.468408 0 -0.883512 
vn 0.561187 0 -0.827689 
vn 0.647386 0 -0.762162 
vn 0.725995 0 -0.687699 
vn 0.796093 0 -0.605174 
vn 0.856857 0 -0.515554 
vn 0.907575 0 -0.419889 
vn 0.947653 0 -0.319302 
vn 0.976621 0 -0.21497 
vn 0.994138 0 -0.108119 
vn 1 0 -1.22465e-16 
vn 0.994138 0 0.108119 
vn 0.976621 0 0.21497 
vn 0.947653 0 0.319302 
vn 0.907575 0 0.419889 
vn 0.856857 0 0.515554 
vn 0.796093 0 0.605174 
vn 0.725995 0 0.687699 
vn 0.647386 0 0.762162 
vn 0.561187 0 0.827689 
vn 0.468408 0 0.883512 
vn 0.370138 0 0.928977 
vn 0.267528 0 0.96355 
vn 0.161782 0 0.986827 
vn 0.0541389 0 0.998533 
vn -0.0541389 0 0.998533 
vn -0.161782 0 0.986827 
vn -0.267528 0 0.96355 
vn -0.370138 0 0.928977 
vn -0.468408 0 0.883512 
vn -0.561187 0 0.827689 
vn -0.647386 0 0.762162 
vn -0.725995 0 0.687699 
vn -0.796093 0 0.605174 
vn -0.856857 0 0.515554 
vn -0.907575 0 0.419889 
vn -0.947653 0 0.319302 
vn -0.976621 0 0.21497 
vn -0.994138 0 0.108119 
vn 0 -1 0 
usemtl 0.615686_0.811765_0.929412_0.000000_0.000000
o mesh0
f 1//1 2//2 3//2 
f 4//3 1//1 5//4 
f 6//5 4//3 7//6 
f 8//7 6//5 9//8 
f 10//9 8//7 11//10 
f 12//11 10//9 13//12 
f 14//13 12//11 15//14 
f 16//15 14//13 17//16 
f 18//17 16//15 19//18 
f 20//19 18//17 21//20 
f 22//21 20//19 23//22 
f 24//23 22//21 25//24 
f 26//25 24//23 27//26 
f 28//27 26//25 29//28 
f 30//29 28//27 31//30 
f 32//31 30//29 33//32 
f 34//33 32//31 35//34 
f 36//35 34//33 37//36 
f 38//37 36//35 39//38 
f 40//39 38//37 41//40 
f 42//41 40//39 43//42 
f 44//43 42//41 45//44 
f 46//45 44//43 47//46 
f 48//47 46//45 49//48 
f 50//49 48//47 51//50 
f 52//51 50//49 53//52 
f 54//53 52//51 55//54 
f 56//55 54//53 57//56 
f 58//57 56//55 59//58 
f 60//59 58//57 61//60 
f 62//61 60//59 63//62 
f 64//63 62//61 65//64 
f 66//65 64//63 67//66 
f 68//67 66//65 69//68 
f 70//69 68//67 71//70 
f 72//71 70//69 73//72 
f 74//73 72//71 75//74 
f 76//75 74//73 77//76 
f 78//77 76//75 79//78 
f 80//79 78//77 81//80 
f 82//81 80//79 83//82 
f 84//83 82//81 85//84 
f 86//85 84//83 87//86 
f 88//87 86//85 89//88 
f 90//89 88//87 91//90 
f 92//91 90//89 93//92 
f 94//93 92//91 95//94 
f 96//95 94//93 97//96 
f 98//97 96//95 99//98 
f 100//99 98//97 101//100 
f 102//101 100//99 103//102 
f 104//103 102//101 105//104 
f 106//105 104//103 107//106 
f 108//107 106//105 109//108 
f 110//109 108//107 111//110 
f 112//111 110//109 113//112 
f 114//113 112//111 115//114 
f 2//2 114//113 116//113 
f 116//113 3//2 2//2 
f 115//114 116//113 114//113 
f 113//112 115//114 112//111 
f 111//110 113//112 110//109 
f 109//108 111//110 108//107 
f 107//106 109//108 106//105 
f 105//104 107//106 104//103 
f 103//102 105//104 102//101 
f 101//100 103//102 100//99 
f 99//98 101//100 98//97 
f 97//96 99//98 96//95 
f 95//94 97//96 94//93 
f 93//92 95//94 92//91 
f 91//90 93//92 90//89 
f 89//88 91//90 88//87 
f 87//86 89//88 86//85 
f 85//84 87//86 84//83 
f 83//82 85//84 82//81 
f 81//80 83//82 80//79 
f 79//78 81//80 78//77 
f 77//76 79//78 76//75 
f 75//74 77//76 74//73 
f 73//72 75//74 72//71 
f 71//70 73//72 70//69 
f 69//68 71//70 68//67 
f 67//66 69//68 66//65 
f 65//64 67//66 64//63 
f 63//62 65//64 62//61 
f 61//60 63//62 60//59 
f 59//58 61//60 58//57 
f 57//56 59//58 56//55 
f 55//54 57//56 54//53 
f 53//52 55//54 52//51 
f 51//50 53//52 50//49 
f 49//48 51//50 48//47 
f 47//46 49//48 46//45 
f 45//44 47//46 44//43 
f 43//42 45//44 42//41 
f 41//40 43//42 40//39 
f 39//38 41//40 38//37 
f 37//36 39//38 36//35 
f 35//34 37//36 34//33 
f 33//32 35//34 32//31 
f 31//30 33//32 30//29 
f 29//28 31//30 28//27 
f 27//26 29//28 26//25 
f 25//24 27//26 24//23 
f 23//22 25//24 22//21 
f 21//20 23//22 20//19 
f 19//18 21//20 18//17 
f 17//16 19//18 16//15 
f 15//14 17//16 14//13 
f 13//12 15//14 12//11 
f 11//10 13//12 10//9 
f 9//8 11//10 8//7 
f 7//6 9//8 6//5 
f 5//4 7//6 4//3 
f 3//2 5//4 1//1 
o mesh1
f 117//115 89//115 87//115 
f 117//115 118//115 91//115 
f 119//115 93//115 91//115 
f 119//115 120//115 95//115 
f 121//115 99//115 97//115 
f 122//115 101//115 99//115 
f 123//115 45//115 43//115 
f 123//115 124//115 47//115 
f 91//115 89//115 117//115 
f 95//115 93//115 119//115 
f 99//115 121//115 122//115 
f 122//115 125//115 103//115 
f 47//115 45//115 123//115 
f 126//115 49//115 47//115 
f 127//115 51//115 49//115 
f 127//115 128//115 53//115 
f 91//115 118//115 119//115 
f 120//115 129//115 97//115 
f 103//115 101//115 122//115 
f 125//115 130//115 105//115 
f 131//115 25//115 23//115 
f 132//115 27//115 25//115 
f 47//115 124//115 126//115 
f 53//115 51//115 127//115 
f 133//115 63//115 61//115 
f 133//115 134//115 65//115 
f 135//115 69//115 67//115 
f 135//115 136//115 71//115 
f 137//115 85//115 83//115 
f 137//115 138//115 87//115 
f 97//115 95//115 120//115 
f 105//115 103//115 125//115 
f 139//115 116//115 115//115 
f 139//115 140//115 3//115 
f 141//115 11//115 9//115 
f 141//115 142//115 13//115 
f 25//115 131//115 132//115 
f 132//115 143//115 29//115 
f 49//115 126//115 127//115 
f 128//115 144//115 55//115 
f 65//115 63//115 133//115 
f 134//115 145//115 67//115 
f 71//115 69//115 135//115 
f 136//115 146//115 73//115 
f 87//115 85//115 137//115 
f 97//115 129//115 121//115 
f 147//115 107//115 105//115 
f 147//115 148//115 109//115 
f 149//115 111//115 109//115 
f 149//115 150//115 113//115 
f 151//115 115//115 113//115 
f 3//115 116//115 139//115 
f 152//115 9//115 7//115 
f 13//115 11//115 141//115 
f 153//115 154//115 19//115 
f 154//115 155//115 21//115 
f 29//115 27//115 132//115 
f 143//115 156//115 31//115 
f 55//115 53//115 128//115 
f 157//115 57//115 55//115 
f 158//115 59//115 57//115 
f 158//115 159//115 61//115 
f 67//115 65//115 134//115 
f 73//115 71//115 136//115 
f 160//115 75//115 73//115 
f 161//115 77//115 75//115 
f 162//115 163//115 81//115 
f 163//115 164//115 83//115 
f 87//115 138//115 117//115 
f 109//115 107//115 147//115 
f 113//115 111//115 149//115 
f 115//115 151//115 139//115 
f 9//115 152//115 141//115 
f 165//115 15//115 13//115 
f 153//115 17//115 15//115 
f 21//115 19//115 154//115 
f 166//115 23//115 21//115 
f 31//115 29//115 143//115 
f 167//115 41//115 39//115 
f 167//115 168//115 43//115 
f 55//115 144//115 157//115 
f 61//115 59//115 158//115 
f 67//115 145//115 135//115 
f 75//115 160//115 161//115 
f 162//115 79//115 77//115 
f 83//115 81//115 163//115 
f 105//115 130//115 147//115 
f 113//115 150//115 151//115 
f 169//115 5//115 3//115 
f 169//115 170//115 7//115 
f 13//115 142//115 165//115 
f 19//115 17//115 153//115 
f 23//115 166//115 131//115 
f 156//115 171//115 33//115 
f 43//115 41//115 167//115 
f 57//115 157//115 158//115 
f 73//115 146//115 160//115 
f 81//115 79//115 162//115 
f 109//115 148//115 149//115 
f 7//115 5//115 169//115 
f 15//115 165//115 153//115 
f 33//115 31//115 156//115 
f 172//115 37//115 35//115 
f 172//115 173//115 39//115 
f 43//115 168//115 123//115 
f 77//115 161//115 162//115 
f 3//115 140//115 169//115 
f 21//115 155//115 166//115 
f 171//115 174//115 35//115 
f 39//115 37//115 172//115 
f 61//115 159//115 133//115 
f 7//115 170//115 152//115 
f 35//115 174//115 172//115 
f 83//115 164//115 137//115 
f 39//115 173//115 167//115 
f 35//115 33//115 171//115 
o mesh2
f 175//116 140//116 139//117 
f 176//117 139//117 151//118 
f 177//118 151//118 150//119 
f 178//119 150//119 149//120 
f 179//120 149//120 148//121 
f 180//121 148//121 147//122 
f 181//122 147//122 130//123 
f 182//123 130//123 125//124 
f 183//124 125//124 122//125 
f 184//125 122//125 121//126 
f 185//126 121//126 129//127 
f 186//127 129//127 120//128 
f 187//128 120//128 119//129 
f 188//129 119//129 118//130 
f 189//130 118//130 117//131 
f 190//131 117//131 138//132 
f 191//132 138//132 137//133 
f 192//133 137//133 164//134 
f 193//134 164//134 163//135 
f 194//135 163//135 162//136 
f 195//136 162//136 161//137 
f 196//137 161//137 160//138 
f 197//138 160//138 146//139 
f 198//139 146//139 136//140 
f 199//140 136//140 135//141 
f 200//141 135//141 145//142 
f 201//142 145//142 134//143 
f 202//143 134//143 133//144 
f 203//144 133//144 159//145 
f 204//145 159//145 158//146 
f 205//146 158//146 157//147 
f 206//147 157//147 144//148 
f 207//148 144//148 128//149 
f 208//149 128//149 127//150 
f 209//150 127//150 126//151 
f 210//151 126//151 124//152 
f 211//152 124//152 123//153 
f 212//153 123//153 168//154 
f 213//154 168//154 167//155 
f 214//155 167//155 173//156 
f 215//156 173//156 172//157 
f 216//157 172//157 174//158 
f 217//158 174//158 171//159 
f 218//159 171//159 156//160 
f 219//160 156//160 143//161 
f 220//161 143//161 132//162 
f 221//162 132//162 131//163 
f 222//163 131//163 166//164 
f 223//164 166//164 155//165 
f 224//165 155//165 154//166 
f 225//166 154//166 153//167 
f 226//167 153//167 165//168 
f 227//168 165//168 142//169 
f 228//169 142//169 141//170 
f 229//170 141//170 152//171 
f 230//171 152//171 170//172 
f 231//172 170//172 169//173 
f 232//173 169//173 140//116 
f 140//116 175//116 232//173 
f 169//173 232//173 231//172 
f 170//172 231//172 230//171 
f 152//171 230//171 229//170 
f 141//170 229//170 228//169 
f 142//169 228//169 227//168 
f 165//168 227//168 226//167 
f 153//167 226//167 225//166 
f 154//166 225//166 224//165 
f 155//165 224//165 223//164 
f 166//164 223//164 222//163 
f 131//163 222//163 221//162 
f 132//162 221//162 220//161 
f 143//161 220//161 219//160 
f 156//160 219//160 218//159 
f 171//159 218//159 217//158 
f 174//158 217//158 216//157 
f 172//157 216//157 215//156 
f 173//156 215//156 214//155 
f 167//155 214//155 213//154 
f 168//154 213//154 212//153 
f 123//153 212//153 211//152 
f 124//152 211//152 210//151 
f 126//151 210//151 209//150 
f 127//150 209//150 208//149 
f 128//149 208//149 207//148 
f 144//148 207//148 206//147 
f 157//147 206//147 205//146 
f 158//146 205//146 204//145 
f 159//145 204//145 203//144 
f 133//144 203//144 202//143 
f 134//143 202//143 201//142 
f 145//142 201//142 200//141 
f 135//141 200//141 199//140 
f 136//140 199//140 198//139 
f 146//139 198//139 197//138 
f 160//138 197//138 196//137 
f 161//137 196//137 195//136 
f 162//136 195//136 194//135 
f 163//135 194//135 193//134 
f 164//134 193//134 192//133 
f 137//133 192//133 191//132 
f 138//132 191//132 190//131 
f 117//131 190//131 189//130 
f 118//130 189//130 188//129 
f 119//129 188//129 187//128 
f 120//128 187//128 186//127 
f 129//127 186//127 185//126 
f 121//126 185//126 184//125 
f 122//125 184//125 183//124 
f 125//124 183//124 182//123 
f 130//123 182//123 181//122 
f 147//122 181//122 180//121 
f 148//121 180//121 179//120 
f 149//120 179//120 178//119 
f 150//119 178//119 177//118 
f 151//118 177//118 176//117 
f 139//117 176//117 175//116 
o mesh3
f 200//174 66//174 68//174 
f 200//174 201//174 64//174 
f 220//174 26//174 28//174 
f 220//174 221//174 24//174 
f 176//174 114//174 2//174 
f 176//174 177//174 112//174 
f 194//174 78//174 80//174 
f 195//174 76//174 78//174 
f 199//174 68//174 70//174 
f 64//174 66//174 200//174 
f 205//174 56//174 58//174 
f 205//174 206//174 54//174 
f 209//174 48//174 50//174 
f 209//174 210//174 46//174 
f 216//174 34//174 36//174 
f 216//174 217//174 32//174 
f 24//174 26//174 220//174 
f 221//174 222//174 22//174 
f 225//174 16//174 18//174 
f 225//174 226//174 14//174 
f 112//174 114//174 176//174 
f 177//174 178//174 110//174 
f 179//174 108//174 110//174 
f 179//174 180//174 106//174 
f 184//174 98//174 100//174 
f 184//174 185//174 96//174 
f 188//174 90//174 92//174 
f 188//174 189//174 88//174 
f 78//174 194//174 195//174 
f 195//174 196//174 74//174 
f 196//174 197//174 72//174 
f 197//174 198//174 70//174 
f 68//174 199//174 200//174 
f 202//174 62//174 64//174 
f 203//174 60//174 62//174 
f 203//174 204//174 58//174 
f 54//174 56//174 205//174 
f 206//174 207//174 52//174 
f 46//174 48//174 209//174 
f 210//174 211//174 44//174 
f 212//174 42//174 44//174 
f 212//174 213//174 40//174 
f 32//174 34//174 216//174 
f 217//174 218//174 30//174 
f 22//174 24//174 221//174 
f 222//174 223//174 20//174 
f 14//174 16//174 225//174 
f 226//174 227//174 12//174 
f 229//174 8//174 10//174 
f 229//174 230//174 6//174 
f 232//174 1//174 4//174 
f 232//174 175//174 2//174 
f 110//174 112//174 177//174 
f 106//174 108//174 179//174 
f 96//174 98//174 184//174 
f 185//174 186//174 94//174 
f 186//174 187//174 92//174 
f 88//174 90//174 188//174 
f 74//174 76//174 195//174 
f 70//174 72//174 197//174 
f 64//174 201//174 202//174 
f 58//174 60//174 203//174 
f 52//174 54//174 206//174 
f 208//174 50//174 52//174 
f 44//174 46//174 210//174 
f 40//174 42//174 212//174 
f 30//174 32//174 217//174 
f 219//174 28//174 30//174 
f 20//174 22//174 222//174 
f 223//174 224//174 18//174 
f 12//174 14//174 226//174 
f 227//174 228//174 10//174 
f 6//174 8//174 229//174 
f 230//174 231//174 4//174 
f 2//174 1//174 232//174 
f 110//174 178//174 179//174 
f 181//174 104//174 106//174 
f 181//174 182//174 102//174 
f 183//174 100//174 102//174 
f 94//174 96//174 185//174 
f 92//174 187//174 188//174 
f 190//174 86//174 88//174 
f 72//174 74//174 196//174 
f 62//174 202//174 203//174 
f 52//174 207//174 208//174 
f 44//174 211//174 212//174 
f 30//174 218//174 219//174 
f 18//174 20//174 223//174 
f 10//174 12//174 227//174 
f 4//174 6//174 230//174 
f 2//174 175//174 176//174 
f 102//174 104//174 181//174 
f 100//174 183//174 184//174 
f 88//174 189//174 190//174 
f 70//174 198//174 199//174 
f 50//174 208//174 209//174 
f 214//174 38//174 40//174 
f 214//174 215//174 36//174 
f 28//174 219//174 220//174 
f 10//174 228//174 229//174 
f 106//174 180//174 181//174 
f 92//174 94//174 186//174 
f 192//174 82//174 84//174 
f 192//174 193//174 80//174 
f 58//174 204//174 205//174 
f 36//174 38//174 214//174 
f 18//174 224//174 225//174 
f 102//174 182//174 183//174 
f 190//174 191//174 84//174 
f 80//174 82//174 192//174 
f 40//174 213//174 214//174 
f 4//174 231//174 232//174 
f 84//174 191//174 192//174 
f 36//174 215//174 216//174 
f 80//174 193//174 194//174 
f 84//174 86//174 190//174 
