<svg xmlns="http://www.w3.org/2000/svg" width="1024" height="1024" viewBox="0 0 1024 1024">
  <defs>
    <linearGradient id="background" x1="160" y1="120" x2="864" y2="904" gradientUnits="userSpaceOnUse">
      <stop offset="0" stop-color="#143b6b"/>
      <stop offset="0.52" stop-color="#352a70"/>
      <stop offset="1" stop-color="#171927"/>
    </linearGradient>
    <linearGradient id="mechanism" x1="318" y1="742" x2="706" y2="258" gradientUnits="userSpaceOnUse">
      <stop offset="0" stop-color="#53c8ff"/>
      <stop offset="1" stop-color="#ba7dff"/>
    </linearGradient>
    <filter id="shadow" x="-20%" y="-20%" width="140%" height="140%">
      <feDropShadow dx="0" dy="24" stdDeviation="28" flood-color="#080a12" flood-opacity="0.55"/>
    </filter>
  </defs>
  <rect x="72" y="72" width="880" height="880" rx="218" fill="url(#background)" filter="url(#shadow)"/>
  <rect x="91" y="91" width="842" height="842" rx="199" fill="none" stroke="#ffffff" stroke-opacity="0.10" stroke-width="8"/>
  <g opacity="0.13" stroke="#9bdcff" stroke-width="4">
    <path d="M178 300H846M178 512H846M178 724H846"/>
    <path d="M300 178V846M512 178V846M724 178V846"/>
  </g>
  <g fill="none" stroke="url(#mechanism)" stroke-linecap="round" stroke-linejoin="round" filter="url(#shadow)">
    <path d="M300 744L500 274L724 744" stroke-width="92"/>
    <path d="M378 570H644" stroke-width="76"/>
  </g>
  <g stroke="#effaff" stroke-width="18">
    <circle cx="300" cy="744" r="57" fill="#299dd8"/>
    <circle cx="500" cy="274" r="57" fill="#8d63e7"/>
    <circle cx="724" cy="744" r="57" fill="#8d63e7"/>
  </g>
  <circle cx="512" cy="570" r="62" fill="#f29a43" stroke="#fff7eb" stroke-width="16"/>
  <path d="M494 531L552 570L494 609Z" fill="#ffffff"/>
</svg>
