ISO-10303-21;
HEADER;
/* Generated by software containing ST-Developer
 * from STEP Tools, Inc. (www.steptools.com) 
 */
/* OPTION: using custom renumber hook */

FILE_DESCRIPTION(
/* description */ ('STEP AP242 Edition 2',
'CAx-IF Rec.Pracs.---Representation and Presentation of Product Manufa
cturing Information (PMI)---4.0---2014-10-13',
'CAx-IF Rec.Pracs.---3D Tessellated Geometry---0.4---2014-09-14','2;1',
'CAx-IF Rec.Pracs.---User Defined Attributes---1.5---2016-08-15'),
/* implementation_level */ '2;1');

FILE_NAME(
/* name */ 'ARCADA001 - ARCADP003',
/* time_stamp */ '2026-07-17T02:50:49Z',
/* author */ (''),
/* organization */ (''),
/* preprocessor_version */ 'ST-DEVELOPER v20',
/* originating_system */ 'ONSHAPE BY PTC INC, 1.217',
/* authorisation */ '  ');

FILE_SCHEMA (('AP242_MANAGED_MODEL_BASED_3D_ENGINEERING_MIM_LF { 1 0 10303 442 3 1 4 }'));
ENDSEC;

DATA;
#10=SHAPE_REPRESENTATION_RELATIONSHIP('','',#815,#11);
#11=ADVANCED_BREP_SHAPE_REPRESENTATION('',(#813),#1397);
#12=B_SPLINE_CURVE_WITH_KNOTS('',3,(#1367,#1368,#1369,#1370,#1371,#1372,
#1373),.UNSPECIFIED.,.F.,.F.,(4,1,1,1,4),(0.00101112085699284,0.00140255409559905,
0.00179398733420526,0.00218542057281147,0.00257685381141768),
 .UNSPECIFIED.);
#13=B_SPLINE_CURVE_WITH_KNOTS('',3,(#1374,#1375,#1376,#1377,#1378,#1379,
#1380),.UNSPECIFIED.,.F.,.F.,(4,1,1,1,4),(0.00101112085699284,0.00140255409559905,
0.00179398733420526,0.00218542057281147,0.00257685381141768),
 .UNSPECIFIED.);
#14=TOROIDAL_SURFACE('',#897,0.0815,0.005);
#15=TOROIDAL_SURFACE('',#901,0.064,0.0005);
#16=CYLINDRICAL_SURFACE('',#848,0.064);
#17=CYLINDRICAL_SURFACE('',#851,0.064);
#18=CYLINDRICAL_SURFACE('',#854,0.067);
#19=CYLINDRICAL_SURFACE('',#860,0.095);
#20=CYLINDRICAL_SURFACE('',#877,0.0745);
#21=CYLINDRICAL_SURFACE('',#880,0.0765);
#22=CYLINDRICAL_SURFACE('',#889,0.01);
#23=CYLINDRICAL_SURFACE('',#890,0.01);
#24=CYLINDRICAL_SURFACE('',#891,0.0017);
#25=CYLINDRICAL_SURFACE('',#892,0.0017);
#26=CYLINDRICAL_SURFACE('',#893,0.0017);
#27=CYLINDRICAL_SURFACE('',#894,0.0017);
#28=CYLINDRICAL_SURFACE('',#895,0.0017);
#29=CYLINDRICAL_SURFACE('',#896,0.0017);
#30=CYLINDRICAL_SURFACE('',#903,0.00215);
#31=CYLINDRICAL_SURFACE('',#904,0.00215);
#32=CYLINDRICAL_SURFACE('',#905,0.00215);
#33=CYLINDRICAL_SURFACE('',#907,0.002);
#34=CYLINDRICAL_SURFACE('',#908,0.002);
#35=CYLINDRICAL_SURFACE('',#909,0.002);
#36=CYLINDRICAL_SURFACE('',#910,0.002);
#37=CYLINDRICAL_SURFACE('',#911,0.0021);
#38=CYLINDRICAL_SURFACE('',#912,0.0021);
#39=CYLINDRICAL_SURFACE('',#913,0.0021);
#40=CYLINDRICAL_SURFACE('',#914,0.0021);
#41=LINE('',#1176,#83);
#42=LINE('',#1184,#84);
#43=LINE('',#1202,#85);
#44=LINE('',#1203,#86);
#45=LINE('',#1208,#87);
#46=LINE('',#1212,#88);
#47=LINE('',#1224,#89);
#48=LINE('',#1232,#90);
#49=LINE('',#1237,#91);
#50=LINE('',#1241,#92);
#51=LINE('',#1246,#93);
#52=LINE('',#1250,#94);
#53=LINE('',#1255,#95);
#54=LINE('',#1258,#96);
#55=LINE('',#1259,#97);
#56=LINE('',#1260,#98);
#57=LINE('',#1261,#99);
#58=LINE('',#1266,#100);
#59=LINE('',#1270,#101);
#60=LINE('',#1274,#102);
#61=LINE('',#1275,#103);
#62=LINE('',#1277,#104);
#63=LINE('',#1279,#105);
#64=LINE('',#1281,#106);
#65=LINE('',#1283,#107);
#66=LINE('',#1286,#108);
#67=LINE('',#1287,#109);
#68=LINE('',#1289,#110);
#69=LINE('',#1293,#111);
#70=LINE('',#1295,#112);
#71=LINE('',#1327,#113);
#72=LINE('',#1328,#114);
#73=LINE('',#1336,#115);
#74=LINE('',#1337,#116);
#75=LINE('',#1340,#117);
#76=LINE('',#1345,#118);
#77=LINE('',#1358,#119);
#78=LINE('',#1359,#120);
#79=LINE('',#1361,#121);
#80=LINE('',#1362,#122);
#81=LINE('',#1364,#123);
#82=LINE('',#1365,#124);
#83=VECTOR('',#933,1.);
#84=VECTOR('',#940,1.);
#85=VECTOR('',#957,1.);
#86=VECTOR('',#958,1.);
#87=VECTOR('',#961,1.);
#88=VECTOR('',#964,1.);
#89=VECTOR('',#975,1.);
#90=VECTOR('',#984,1.);
#91=VECTOR('',#987,1.);
#92=VECTOR('',#992,1.);
#93=VECTOR('',#995,1.);
#94=VECTOR('',#1000,1.);
#95=VECTOR('',#1003,1.);
#96=VECTOR('',#1006,1.);
#97=VECTOR('',#1007,1.);
#98=VECTOR('',#1008,1.);
#99=VECTOR('',#1009,1.);
#100=VECTOR('',#1014,1.);
#101=VECTOR('',#1017,1.);
#102=VECTOR('',#1020,1.);
#103=VECTOR('',#1021,1.);
#104=VECTOR('',#1024,1.);
#105=VECTOR('',#1025,1.);
#106=VECTOR('',#1026,1.);
#107=VECTOR('',#1029,1.);
#108=VECTOR('',#1030,1.);
#109=VECTOR('',#1031,1.);
#110=VECTOR('',#1034,1.);
#111=VECTOR('',#1039,1.);
#112=VECTOR('',#1040,1.);
#113=VECTOR('',#1075,1.);
#114=VECTOR('',#1076,1.);
#115=VECTOR('',#1087,1.);
#116=VECTOR('',#1088,1.);
#117=VECTOR('',#1091,1.);
#118=VECTOR('',#1096,1.);
#119=VECTOR('',#1119,1.);
#120=VECTOR('',#1120,1.);
#121=VECTOR('',#1123,1.);
#122=VECTOR('',#1124,1.);
#123=VECTOR('',#1127,1.);
#124=VECTOR('',#1128,1.);
#125=ORIENTED_EDGE('',*,*,#329,.F.);
#126=ORIENTED_EDGE('',*,*,#330,.F.);
#127=ORIENTED_EDGE('',*,*,#331,.F.);
#128=ORIENTED_EDGE('',*,*,#332,.F.);
#129=ORIENTED_EDGE('',*,*,#333,.F.);
#130=ORIENTED_EDGE('',*,*,#334,.T.);
#131=ORIENTED_EDGE('',*,*,#335,.T.);
#132=ORIENTED_EDGE('',*,*,#336,.T.);
#133=ORIENTED_EDGE('',*,*,#337,.T.);
#134=ORIENTED_EDGE('',*,*,#338,.T.);
#135=ORIENTED_EDGE('',*,*,#339,.F.);
#136=ORIENTED_EDGE('',*,*,#340,.T.);
#137=ORIENTED_EDGE('',*,*,#341,.F.);
#138=ORIENTED_EDGE('',*,*,#342,.F.);
#139=ORIENTED_EDGE('',*,*,#343,.F.);
#140=ORIENTED_EDGE('',*,*,#344,.F.);
#141=ORIENTED_EDGE('',*,*,#345,.F.);
#142=ORIENTED_EDGE('',*,*,#346,.F.);
#143=ORIENTED_EDGE('',*,*,#347,.F.);
#144=ORIENTED_EDGE('',*,*,#348,.F.);
#145=ORIENTED_EDGE('',*,*,#349,.T.);
#146=ORIENTED_EDGE('',*,*,#350,.T.);
#147=ORIENTED_EDGE('',*,*,#351,.T.);
#148=ORIENTED_EDGE('',*,*,#352,.T.);
#149=ORIENTED_EDGE('',*,*,#353,.F.);
#150=ORIENTED_EDGE('',*,*,#354,.F.);
#151=ORIENTED_EDGE('',*,*,#355,.T.);
#152=ORIENTED_EDGE('',*,*,#356,.T.);
#153=ORIENTED_EDGE('',*,*,#357,.T.);
#154=ORIENTED_EDGE('',*,*,#358,.F.);
#155=ORIENTED_EDGE('',*,*,#359,.T.);
#156=ORIENTED_EDGE('',*,*,#360,.F.);
#157=ORIENTED_EDGE('',*,*,#361,.F.);
#158=ORIENTED_EDGE('',*,*,#362,.F.);
#159=ORIENTED_EDGE('',*,*,#363,.F.);
#160=ORIENTED_EDGE('',*,*,#364,.F.);
#161=ORIENTED_EDGE('',*,*,#365,.T.);
#162=ORIENTED_EDGE('',*,*,#366,.F.);
#163=ORIENTED_EDGE('',*,*,#367,.F.);
#164=ORIENTED_EDGE('',*,*,#368,.F.);
#165=ORIENTED_EDGE('',*,*,#369,.T.);
#166=ORIENTED_EDGE('',*,*,#370,.T.);
#167=ORIENTED_EDGE('',*,*,#371,.F.);
#168=ORIENTED_EDGE('',*,*,#372,.T.);
#169=ORIENTED_EDGE('',*,*,#373,.T.);
#170=ORIENTED_EDGE('',*,*,#374,.F.);
#171=ORIENTED_EDGE('',*,*,#375,.F.);
#172=ORIENTED_EDGE('',*,*,#364,.T.);
#173=ORIENTED_EDGE('',*,*,#376,.F.);
#174=ORIENTED_EDGE('',*,*,#358,.T.);
#175=ORIENTED_EDGE('',*,*,#377,.T.);
#176=ORIENTED_EDGE('',*,*,#366,.T.);
#177=ORIENTED_EDGE('',*,*,#378,.T.);
#178=ORIENTED_EDGE('',*,*,#347,.T.);
#179=ORIENTED_EDGE('',*,*,#379,.T.);
#180=ORIENTED_EDGE('',*,*,#380,.T.);
#181=ORIENTED_EDGE('',*,*,#381,.F.);
#182=ORIENTED_EDGE('',*,*,#382,.F.);
#183=ORIENTED_EDGE('',*,*,#383,.T.);
#184=ORIENTED_EDGE('',*,*,#384,.T.);
#185=ORIENTED_EDGE('',*,*,#333,.T.);
#186=ORIENTED_EDGE('',*,*,#385,.T.);
#187=ORIENTED_EDGE('',*,*,#351,.F.);
#188=ORIENTED_EDGE('',*,*,#386,.T.);
#189=ORIENTED_EDGE('',*,*,#387,.T.);
#190=ORIENTED_EDGE('',*,*,#388,.T.);
#191=ORIENTED_EDGE('',*,*,#389,.T.);
#192=ORIENTED_EDGE('',*,*,#390,.T.);
#193=ORIENTED_EDGE('',*,*,#349,.F.);
#194=ORIENTED_EDGE('',*,*,#391,.F.);
#195=ORIENTED_EDGE('',*,*,#354,.T.);
#196=ORIENTED_EDGE('',*,*,#392,.F.);
#197=ORIENTED_EDGE('',*,*,#393,.F.);
#198=ORIENTED_EDGE('',*,*,#391,.T.);
#199=ORIENTED_EDGE('',*,*,#353,.T.);
#200=ORIENTED_EDGE('',*,*,#394,.T.);
#201=ORIENTED_EDGE('',*,*,#395,.F.);
#202=ORIENTED_EDGE('',*,*,#392,.T.);
#203=ORIENTED_EDGE('',*,*,#396,.T.);
#204=ORIENTED_EDGE('',*,*,#397,.T.);
#205=ORIENTED_EDGE('',*,*,#398,.T.);
#206=ORIENTED_EDGE('',*,*,#399,.T.);
#207=ORIENTED_EDGE('',*,*,#400,.T.);
#208=ORIENTED_EDGE('',*,*,#401,.T.);
#209=ORIENTED_EDGE('',*,*,#402,.T.);
#210=ORIENTED_EDGE('',*,*,#403,.T.);
#211=ORIENTED_EDGE('',*,*,#387,.F.);
#212=ORIENTED_EDGE('',*,*,#404,.T.);
#213=ORIENTED_EDGE('',*,*,#389,.F.);
#214=ORIENTED_EDGE('',*,*,#393,.T.);
#215=ORIENTED_EDGE('',*,*,#395,.T.);
#216=ORIENTED_EDGE('',*,*,#405,.T.);
#217=ORIENTED_EDGE('',*,*,#406,.T.);
#218=ORIENTED_EDGE('',*,*,#407,.T.);
#219=ORIENTED_EDGE('',*,*,#408,.T.);
#220=ORIENTED_EDGE('',*,*,#409,.T.);
#221=ORIENTED_EDGE('',*,*,#410,.F.);
#222=ORIENTED_EDGE('',*,*,#411,.T.);
#223=ORIENTED_EDGE('',*,*,#337,.F.);
#224=ORIENTED_EDGE('',*,*,#412,.T.);
#225=ORIENTED_EDGE('',*,*,#413,.T.);
#226=ORIENTED_EDGE('',*,*,#414,.F.);
#227=ORIENTED_EDGE('',*,*,#409,.F.);
#228=ORIENTED_EDGE('',*,*,#414,.T.);
#229=ORIENTED_EDGE('',*,*,#383,.F.);
#230=ORIENTED_EDGE('',*,*,#415,.T.);
#231=ORIENTED_EDGE('',*,*,#372,.F.);
#232=ORIENTED_EDGE('',*,*,#416,.F.);
#233=ORIENTED_EDGE('',*,*,#379,.F.);
#234=ORIENTED_EDGE('',*,*,#417,.T.);
#235=ORIENTED_EDGE('',*,*,#418,.T.);
#236=ORIENTED_EDGE('',*,*,#419,.T.);
#237=ORIENTED_EDGE('',*,*,#410,.T.);
#238=ORIENTED_EDGE('',*,*,#420,.T.);
#239=ORIENTED_EDGE('',*,*,#421,.F.);
#240=ORIENTED_EDGE('',*,*,#422,.T.);
#241=ORIENTED_EDGE('',*,*,#404,.F.);
#242=ORIENTED_EDGE('',*,*,#386,.F.);
#243=ORIENTED_EDGE('',*,*,#350,.F.);
#244=ORIENTED_EDGE('',*,*,#390,.F.);
#245=ORIENTED_EDGE('',*,*,#405,.F.);
#246=ORIENTED_EDGE('',*,*,#394,.F.);
#247=ORIENTED_EDGE('',*,*,#352,.F.);
#248=ORIENTED_EDGE('',*,*,#388,.F.);
#249=ORIENTED_EDGE('',*,*,#403,.F.);
#250=ORIENTED_EDGE('',*,*,#346,.T.);
#251=ORIENTED_EDGE('',*,*,#402,.F.);
#252=ORIENTED_EDGE('',*,*,#345,.T.);
#253=ORIENTED_EDGE('',*,*,#406,.F.);
#254=ORIENTED_EDGE('',*,*,#344,.T.);
#255=ORIENTED_EDGE('',*,*,#408,.F.);
#256=ORIENTED_EDGE('',*,*,#343,.T.);
#257=ORIENTED_EDGE('',*,*,#407,.F.);
#258=ORIENTED_EDGE('',*,*,#342,.T.);
#259=ORIENTED_EDGE('',*,*,#401,.F.);
#260=ORIENTED_EDGE('',*,*,#341,.T.);
#261=ORIENTED_EDGE('',*,*,#400,.F.);
#262=ORIENTED_EDGE('',*,*,#413,.F.);
#263=ORIENTED_EDGE('',*,*,#335,.F.);
#264=ORIENTED_EDGE('',*,*,#423,.T.);
#265=ORIENTED_EDGE('',*,*,#421,.T.);
#266=ORIENTED_EDGE('',*,*,#424,.T.);
#267=ORIENTED_EDGE('',*,*,#339,.T.);
#268=ORIENTED_EDGE('',*,*,#425,.T.);
#269=ORIENTED_EDGE('',*,*,#418,.F.);
#270=ORIENTED_EDGE('',*,*,#426,.T.);
#271=ORIENTED_EDGE('',*,*,#427,.F.);
#272=ORIENTED_EDGE('',*,*,#370,.F.);
#273=ORIENTED_EDGE('',*,*,#428,.T.);
#274=ORIENTED_EDGE('',*,*,#381,.T.);
#275=ORIENTED_EDGE('',*,*,#368,.T.);
#276=ORIENTED_EDGE('',*,*,#429,.T.);
#277=ORIENTED_EDGE('',*,*,#374,.T.);
#278=ORIENTED_EDGE('',*,*,#430,.F.);
#279=ORIENTED_EDGE('',*,*,#348,.T.);
#280=ORIENTED_EDGE('',*,*,#378,.F.);
#281=ORIENTED_EDGE('',*,*,#365,.F.);
#282=ORIENTED_EDGE('',*,*,#375,.T.);
#283=ORIENTED_EDGE('',*,*,#360,.T.);
#284=ORIENTED_EDGE('',*,*,#355,.F.);
#285=ORIENTED_EDGE('',*,*,#361,.T.);
#286=ORIENTED_EDGE('',*,*,#356,.F.);
#287=ORIENTED_EDGE('',*,*,#362,.T.);
#288=ORIENTED_EDGE('',*,*,#357,.F.);
#289=ORIENTED_EDGE('',*,*,#376,.T.);
#290=ORIENTED_EDGE('',*,*,#363,.T.);
#291=ORIENTED_EDGE('',*,*,#377,.F.);
#292=ORIENTED_EDGE('',*,*,#359,.F.);
#293=ORIENTED_EDGE('',*,*,#338,.F.);
#294=ORIENTED_EDGE('',*,*,#411,.F.);
#295=ORIENTED_EDGE('',*,*,#419,.F.);
#296=ORIENTED_EDGE('',*,*,#425,.F.);
#297=ORIENTED_EDGE('',*,*,#340,.F.);
#298=ORIENTED_EDGE('',*,*,#426,.F.);
#299=ORIENTED_EDGE('',*,*,#417,.F.);
#300=ORIENTED_EDGE('',*,*,#385,.F.);
#301=ORIENTED_EDGE('',*,*,#334,.F.);
#302=ORIENTED_EDGE('',*,*,#384,.F.);
#303=ORIENTED_EDGE('',*,*,#422,.F.);
#304=ORIENTED_EDGE('',*,*,#423,.F.);
#305=ORIENTED_EDGE('',*,*,#336,.F.);
#306=ORIENTED_EDGE('',*,*,#424,.F.);
#307=ORIENTED_EDGE('',*,*,#420,.F.);
#308=ORIENTED_EDGE('',*,*,#412,.F.);
#309=ORIENTED_EDGE('',*,*,#399,.F.);
#310=ORIENTED_EDGE('',*,*,#332,.T.);
#311=ORIENTED_EDGE('',*,*,#398,.F.);
#312=ORIENTED_EDGE('',*,*,#331,.T.);
#313=ORIENTED_EDGE('',*,*,#397,.F.);
#314=ORIENTED_EDGE('',*,*,#330,.T.);
#315=ORIENTED_EDGE('',*,*,#396,.F.);
#316=ORIENTED_EDGE('',*,*,#329,.T.);
#317=ORIENTED_EDGE('',*,*,#416,.T.);
#318=ORIENTED_EDGE('',*,*,#371,.T.);
#319=ORIENTED_EDGE('',*,*,#429,.F.);
#320=ORIENTED_EDGE('',*,*,#367,.T.);
#321=ORIENTED_EDGE('',*,*,#427,.T.);
#322=ORIENTED_EDGE('',*,*,#380,.F.);
#323=ORIENTED_EDGE('',*,*,#382,.T.);
#324=ORIENTED_EDGE('',*,*,#428,.F.);
#325=ORIENTED_EDGE('',*,*,#369,.F.);
#326=ORIENTED_EDGE('',*,*,#430,.T.);
#327=ORIENTED_EDGE('',*,*,#373,.F.);
#328=ORIENTED_EDGE('',*,*,#415,.F.);
#329=EDGE_CURVE('',#431,#431,#509,.F.);
#330=EDGE_CURVE('',#432,#432,#510,.F.);
#331=EDGE_CURVE('',#433,#433,#511,.F.);
#332=EDGE_CURVE('',#434,#434,#512,.F.);
#333=EDGE_CURVE('',#435,#436,#513,.T.);
#334=EDGE_CURVE('',#435,#437,#514,.T.);
#335=EDGE_CURVE('',#437,#438,#41,.T.);
#336=EDGE_CURVE('',#438,#439,#515,.T.);
#337=EDGE_CURVE('',#439,#440,#516,.T.);
#338=EDGE_CURVE('',#440,#441,#517,.T.);
#339=EDGE_CURVE('',#442,#441,#42,.T.);
#340=EDGE_CURVE('',#442,#436,#518,.T.);
#341=EDGE_CURVE('',#443,#443,#519,.F.);
#342=EDGE_CURVE('',#444,#444,#520,.F.);
#343=EDGE_CURVE('',#445,#445,#521,.F.);
#344=EDGE_CURVE('',#446,#446,#522,.F.);
#345=EDGE_CURVE('',#447,#447,#523,.F.);
#346=EDGE_CURVE('',#448,#448,#524,.F.);
#347=EDGE_CURVE('',#449,#450,#525,.F.);
#348=EDGE_CURVE('',#450,#449,#43,.T.);
#349=EDGE_CURVE('',#451,#452,#44,.T.);
#350=EDGE_CURVE('',#452,#453,#526,.F.);
#351=EDGE_CURVE('',#453,#454,#45,.T.);
#352=EDGE_CURVE('',#454,#455,#527,.F.);
#353=EDGE_CURVE('',#456,#455,#46,.T.);
#354=EDGE_CURVE('',#451,#456,#528,.T.);
#355=EDGE_CURVE('',#457,#457,#529,.T.);
#356=EDGE_CURVE('',#458,#458,#530,.T.);
#357=EDGE_CURVE('',#459,#459,#531,.T.);
#358=EDGE_CURVE('',#460,#461,#532,.F.);
#359=EDGE_CURVE('',#460,#461,#47,.T.);
#360=EDGE_CURVE('',#462,#462,#533,.T.);
#361=EDGE_CURVE('',#463,#463,#534,.T.);
#362=EDGE_CURVE('',#464,#464,#535,.T.);
#363=EDGE_CURVE('',#465,#466,#48,.T.);
#364=EDGE_CURVE('',#467,#465,#536,.F.);
#365=EDGE_CURVE('',#467,#468,#49,.T.);
#366=EDGE_CURVE('',#466,#468,#537,.F.);
#367=EDGE_CURVE('',#469,#470,#50,.F.);
#368=EDGE_CURVE('',#471,#469,#538,.F.);
#369=EDGE_CURVE('',#471,#472,#51,.F.);
#370=EDGE_CURVE('',#472,#470,#539,.T.);
#371=EDGE_CURVE('',#473,#474,#52,.F.);
#372=EDGE_CURVE('',#473,#475,#540,.T.);
#373=EDGE_CURVE('',#475,#476,#53,.F.);
#374=EDGE_CURVE('',#474,#476,#541,.F.);
#375=EDGE_CURVE('',#467,#450,#54,.T.);
#376=EDGE_CURVE('',#460,#465,#55,.T.);
#377=EDGE_CURVE('',#461,#466,#56,.T.);
#378=EDGE_CURVE('',#468,#449,#57,.T.);
#379=EDGE_CURVE('',#477,#478,#542,.T.);
#380=EDGE_CURVE('',#478,#479,#58,.F.);
#381=EDGE_CURVE('',#480,#479,#543,.T.);
#382=EDGE_CURVE('',#481,#480,#59,.F.);
#383=EDGE_CURVE('',#481,#482,#544,.T.);
#384=EDGE_CURVE('',#482,#435,#60,.T.);
#385=EDGE_CURVE('',#436,#477,#61,.F.);
#386=EDGE_CURVE('',#453,#483,#62,.F.);
#387=EDGE_CURVE('',#483,#484,#63,.T.);
#388=EDGE_CURVE('',#484,#454,#64,.T.);
#389=EDGE_CURVE('',#485,#486,#65,.T.);
#390=EDGE_CURVE('',#486,#452,#66,.T.);
#391=EDGE_CURVE('',#485,#451,#67,.T.);
#392=EDGE_CURVE('',#487,#456,#68,.T.);
#393=EDGE_CURVE('',#485,#487,#545,.T.);
#394=EDGE_CURVE('',#455,#488,#69,.F.);
#395=EDGE_CURVE('',#487,#488,#70,.T.);
#396=EDGE_CURVE('',#489,#489,#546,.T.);
#397=EDGE_CURVE('',#490,#490,#547,.T.);
#398=EDGE_CURVE('',#491,#491,#548,.T.);
#399=EDGE_CURVE('',#492,#492,#549,.T.);
#400=EDGE_CURVE('',#493,#493,#550,.F.);
#401=EDGE_CURVE('',#494,#494,#551,.T.);
#402=EDGE_CURVE('',#495,#495,#552,.T.);
#403=EDGE_CURVE('',#496,#496,#553,.T.);
#404=EDGE_CURVE('',#483,#486,#554,.T.);
#405=EDGE_CURVE('',#488,#484,#555,.T.);
#406=EDGE_CURVE('',#497,#497,#556,.T.);
#407=EDGE_CURVE('',#498,#498,#557,.T.);
#408=EDGE_CURVE('',#499,#499,#558,.T.);
#409=EDGE_CURVE('',#500,#500,#559,.T.);
#410=EDGE_CURVE('',#501,#502,#560,.T.);
#411=EDGE_CURVE('',#501,#440,#71,.T.);
#412=EDGE_CURVE('',#439,#502,#72,.F.);
#413=EDGE_CURVE('',#503,#503,#561,.T.);
#414=EDGE_CURVE('',#504,#504,#562,.T.);
#415=EDGE_CURVE('',#481,#475,#73,.T.);
#416=EDGE_CURVE('',#478,#473,#74,.T.);
#417=EDGE_CURVE('',#477,#505,#563,.F.);
#418=EDGE_CURVE('',#505,#506,#75,.T.);
#419=EDGE_CURVE('',#506,#501,#564,.F.);
#420=EDGE_CURVE('',#502,#507,#565,.F.);
#421=EDGE_CURVE('',#508,#507,#76,.T.);
#422=EDGE_CURVE('',#508,#482,#566,.F.);
#423=EDGE_CURVE('',#437,#508,#77,.T.);
#424=EDGE_CURVE('',#507,#438,#78,.T.);
#425=EDGE_CURVE('',#441,#506,#79,.T.);
#426=EDGE_CURVE('',#505,#442,#80,.T.);
#427=EDGE_CURVE('',#470,#479,#81,.T.);
#428=EDGE_CURVE('',#472,#480,#82,.T.);
#429=EDGE_CURVE('',#469,#474,#12,.T.);
#430=EDGE_CURVE('',#471,#476,#13,.T.);
#431=VERTEX_POINT('',#1164);
#432=VERTEX_POINT('',#1166);
#433=VERTEX_POINT('',#1168);
#434=VERTEX_POINT('',#1170);
#435=VERTEX_POINT('',#1172);
#436=VERTEX_POINT('',#1173);
#437=VERTEX_POINT('',#1175);
#438=VERTEX_POINT('',#1177);
#439=VERTEX_POINT('',#1179);
#440=VERTEX_POINT('',#1181);
#441=VERTEX_POINT('',#1183);
#442=VERTEX_POINT('',#1185);
#443=VERTEX_POINT('',#1188);
#444=VERTEX_POINT('',#1190);
#445=VERTEX_POINT('',#1192);
#446=VERTEX_POINT('',#1194);
#447=VERTEX_POINT('',#1196);
#448=VERTEX_POINT('',#1198);
#449=VERTEX_POINT('',#1200);
#450=VERTEX_POINT('',#1201);
#451=VERTEX_POINT('',#1204);
#452=VERTEX_POINT('',#1205);
#453=VERTEX_POINT('',#1207);
#454=VERTEX_POINT('',#1209);
#455=VERTEX_POINT('',#1211);
#456=VERTEX_POINT('',#1213);
#457=VERTEX_POINT('',#1216);
#458=VERTEX_POINT('',#1218);
#459=VERTEX_POINT('',#1220);
#460=VERTEX_POINT('',#1222);
#461=VERTEX_POINT('',#1223);
#462=VERTEX_POINT('',#1227);
#463=VERTEX_POINT('',#1229);
#464=VERTEX_POINT('',#1231);
#465=VERTEX_POINT('',#1233);
#466=VERTEX_POINT('',#1234);
#467=VERTEX_POINT('',#1236);
#468=VERTEX_POINT('',#1238);
#469=VERTEX_POINT('',#1242);
#470=VERTEX_POINT('',#1243);
#471=VERTEX_POINT('',#1245);
#472=VERTEX_POINT('',#1247);
#473=VERTEX_POINT('',#1251);
#474=VERTEX_POINT('',#1252);
#475=VERTEX_POINT('',#1254);
#476=VERTEX_POINT('',#1256);
#477=VERTEX_POINT('',#1264);
#478=VERTEX_POINT('',#1265);
#479=VERTEX_POINT('',#1267);
#480=VERTEX_POINT('',#1269);
#481=VERTEX_POINT('',#1271);
#482=VERTEX_POINT('',#1273);
#483=VERTEX_POINT('',#1278);
#484=VERTEX_POINT('',#1280);
#485=VERTEX_POINT('',#1284);
#486=VERTEX_POINT('',#1285);
#487=VERTEX_POINT('',#1290);
#488=VERTEX_POINT('',#1294);
#489=VERTEX_POINT('',#1298);
#490=VERTEX_POINT('',#1300);
#491=VERTEX_POINT('',#1302);
#492=VERTEX_POINT('',#1304);
#493=VERTEX_POINT('',#1306);
#494=VERTEX_POINT('',#1308);
#495=VERTEX_POINT('',#1310);
#496=VERTEX_POINT('',#1312);
#497=VERTEX_POINT('',#1316);
#498=VERTEX_POINT('',#1318);
#499=VERTEX_POINT('',#1320);
#500=VERTEX_POINT('',#1323);
#501=VERTEX_POINT('',#1325);
#502=VERTEX_POINT('',#1326);
#503=VERTEX_POINT('',#1331);
#504=VERTEX_POINT('',#1333);
#505=VERTEX_POINT('',#1339);
#506=VERTEX_POINT('',#1341);
#507=VERTEX_POINT('',#1344);
#508=VERTEX_POINT('',#1346);
#509=CIRCLE('',#818,0.0021);
#510=CIRCLE('',#819,0.0021);
#511=CIRCLE('',#820,0.0021);
#512=CIRCLE('',#821,0.0021);
#513=CIRCLE('',#822,0.067);
#514=CIRCLE('',#823,0.002);
#515=CIRCLE('',#824,0.002);
#516=CIRCLE('',#825,0.0745);
#517=CIRCLE('',#826,0.002);
#518=CIRCLE('',#827,0.002);
#519=CIRCLE('',#828,0.0017);
#520=CIRCLE('',#829,0.0017);
#521=CIRCLE('',#830,0.0017);
#522=CIRCLE('',#831,0.0017);
#523=CIRCLE('',#832,0.0017);
#524=CIRCLE('',#833,0.0017);
#525=CIRCLE('',#834,0.064);
#526=CIRCLE('',#835,0.01);
#527=CIRCLE('',#836,0.01);
#528=CIRCLE('',#837,0.095);
#529=CIRCLE('',#838,0.00215);
#530=CIRCLE('',#839,0.00215);
#531=CIRCLE('',#840,0.00215);
#532=CIRCLE('',#841,0.064);
#533=CIRCLE('',#843,0.00215);
#534=CIRCLE('',#844,0.00215);
#535=CIRCLE('',#845,0.00215);
#536=CIRCLE('',#846,0.064);
#537=CIRCLE('',#847,0.064);
#538=CIRCLE('',#849,0.064);
#539=CIRCLE('',#850,0.064);
#540=CIRCLE('',#852,0.064);
#541=CIRCLE('',#853,0.064);
#542=CIRCLE('',#855,0.067);
#543=CIRCLE('',#856,0.067);
#544=CIRCLE('',#857,0.067);
#545=CIRCLE('',#861,0.095);
#546=CIRCLE('',#864,0.0021);
#547=CIRCLE('',#865,0.0021);
#548=CIRCLE('',#866,0.0021);
#549=CIRCLE('',#867,0.0021);
#550=CIRCLE('',#868,0.0815);
#551=CIRCLE('',#869,0.0017);
#552=CIRCLE('',#870,0.0017);
#553=CIRCLE('',#871,0.0017);
#554=CIRCLE('',#872,0.01);
#555=CIRCLE('',#873,0.01);
#556=CIRCLE('',#874,0.0017);
#557=CIRCLE('',#875,0.0017);
#558=CIRCLE('',#876,0.0017);
#559=CIRCLE('',#878,0.0745);
#560=CIRCLE('',#879,0.0745);
#561=CIRCLE('',#881,0.0765);
#562=CIRCLE('',#882,0.0765);
#563=CIRCLE('',#885,0.002);
#564=CIRCLE('',#886,0.002);
#565=CIRCLE('',#887,0.002);
#566=CIRCLE('',#888,0.002);
#567=EDGE_LOOP('',(#125));
#568=EDGE_LOOP('',(#126));
#569=EDGE_LOOP('',(#127));
#570=EDGE_LOOP('',(#128));
#571=EDGE_LOOP('',(#129,#130,#131,#132,#133,#134,#135,#136));
#572=EDGE_LOOP('',(#137));
#573=EDGE_LOOP('',(#138));
#574=EDGE_LOOP('',(#139));
#575=EDGE_LOOP('',(#140));
#576=EDGE_LOOP('',(#141));
#577=EDGE_LOOP('',(#142));
#578=EDGE_LOOP('',(#143,#144));
#579=EDGE_LOOP('',(#145,#146,#147,#148,#149,#150));
#580=EDGE_LOOP('',(#151));
#581=EDGE_LOOP('',(#152));
#582=EDGE_LOOP('',(#153));
#583=EDGE_LOOP('',(#154,#155));
#584=EDGE_LOOP('',(#156));
#585=EDGE_LOOP('',(#157));
#586=EDGE_LOOP('',(#158));
#587=EDGE_LOOP('',(#159,#160,#161,#162));
#588=EDGE_LOOP('',(#163,#164,#165,#166));
#589=EDGE_LOOP('',(#167,#168,#169,#170));
#590=EDGE_LOOP('',(#171,#172,#173,#174,#175,#176,#177,#178));
#591=EDGE_LOOP('',(#179,#180,#181,#182,#183,#184,#185,#186));
#592=EDGE_LOOP('',(#187,#188,#189,#190));
#593=EDGE_LOOP('',(#191,#192,#193,#194));
#594=EDGE_LOOP('',(#195,#196,#197,#198));
#595=EDGE_LOOP('',(#199,#200,#201,#202));
#596=EDGE_LOOP('',(#203));
#597=EDGE_LOOP('',(#204));
#598=EDGE_LOOP('',(#205));
#599=EDGE_LOOP('',(#206));
#600=EDGE_LOOP('',(#207));
#601=EDGE_LOOP('',(#208));
#602=EDGE_LOOP('',(#209));
#603=EDGE_LOOP('',(#210));
#604=EDGE_LOOP('',(#211,#212,#213,#214,#215,#216));
#605=EDGE_LOOP('',(#217));
#606=EDGE_LOOP('',(#218));
#607=EDGE_LOOP('',(#219));
#608=EDGE_LOOP('',(#220));
#609=EDGE_LOOP('',(#221,#222,#223,#224));
#610=EDGE_LOOP('',(#225));
#611=EDGE_LOOP('',(#226));
#612=EDGE_LOOP('',(#227));
#613=EDGE_LOOP('',(#228));
#614=EDGE_LOOP('',(#229,#230,#231,#232,#233,#234,#235,#236,#237,#238,#239,
#240));
#615=EDGE_LOOP('',(#241,#242,#243,#244));
#616=EDGE_LOOP('',(#245,#246,#247,#248));
#617=EDGE_LOOP('',(#249));
#618=EDGE_LOOP('',(#250));
#619=EDGE_LOOP('',(#251));
#620=EDGE_LOOP('',(#252));
#621=EDGE_LOOP('',(#253));
#622=EDGE_LOOP('',(#254));
#623=EDGE_LOOP('',(#255));
#624=EDGE_LOOP('',(#256));
#625=EDGE_LOOP('',(#257));
#626=EDGE_LOOP('',(#258));
#627=EDGE_LOOP('',(#259));
#628=EDGE_LOOP('',(#260));
#629=EDGE_LOOP('',(#261));
#630=EDGE_LOOP('',(#262));
#631=EDGE_LOOP('',(#263,#264,#265,#266));
#632=EDGE_LOOP('',(#267,#268,#269,#270));
#633=EDGE_LOOP('',(#271,#272,#273,#274));
#634=EDGE_LOOP('',(#275,#276,#277,#278));
#635=EDGE_LOOP('',(#279,#280,#281,#282));
#636=EDGE_LOOP('',(#283));
#637=EDGE_LOOP('',(#284));
#638=EDGE_LOOP('',(#285));
#639=EDGE_LOOP('',(#286));
#640=EDGE_LOOP('',(#287));
#641=EDGE_LOOP('',(#288));
#642=EDGE_LOOP('',(#289,#290,#291,#292));
#643=EDGE_LOOP('',(#293,#294,#295,#296));
#644=EDGE_LOOP('',(#297,#298,#299,#300));
#645=EDGE_LOOP('',(#301,#302,#303,#304));
#646=EDGE_LOOP('',(#305,#306,#307,#308));
#647=EDGE_LOOP('',(#309));
#648=EDGE_LOOP('',(#310));
#649=EDGE_LOOP('',(#311));
#650=EDGE_LOOP('',(#312));
#651=EDGE_LOOP('',(#313));
#652=EDGE_LOOP('',(#314));
#653=EDGE_LOOP('',(#315));
#654=EDGE_LOOP('',(#316));
#655=EDGE_LOOP('',(#317,#318,#319,#320,#321,#322));
#656=EDGE_LOOP('',(#323,#324,#325,#326,#327,#328));
#657=FACE_BOUND('',#567,.T.);
#658=FACE_BOUND('',#568,.T.);
#659=FACE_BOUND('',#569,.T.);
#660=FACE_BOUND('',#570,.T.);
#661=FACE_BOUND('',#571,.T.);
#662=FACE_BOUND('',#572,.T.);
#663=FACE_BOUND('',#573,.T.);
#664=FACE_BOUND('',#574,.T.);
#665=FACE_BOUND('',#575,.T.);
#666=FACE_BOUND('',#576,.T.);
#667=FACE_BOUND('',#577,.T.);
#668=FACE_BOUND('',#578,.T.);
#669=FACE_BOUND('',#579,.T.);
#670=FACE_BOUND('',#580,.T.);
#671=FACE_BOUND('',#581,.T.);
#672=FACE_BOUND('',#582,.T.);
#673=FACE_BOUND('',#583,.T.);
#674=FACE_BOUND('',#584,.T.);
#675=FACE_BOUND('',#585,.T.);
#676=FACE_BOUND('',#586,.T.);
#677=FACE_BOUND('',#587,.T.);
#678=FACE_BOUND('',#588,.T.);
#679=FACE_BOUND('',#589,.T.);
#680=FACE_BOUND('',#590,.T.);
#681=FACE_BOUND('',#591,.T.);
#682=FACE_BOUND('',#592,.T.);
#683=FACE_BOUND('',#593,.T.);
#684=FACE_BOUND('',#594,.T.);
#685=FACE_BOUND('',#595,.T.);
#686=FACE_BOUND('',#596,.T.);
#687=FACE_BOUND('',#597,.T.);
#688=FACE_BOUND('',#598,.T.);
#689=FACE_BOUND('',#599,.T.);
#690=FACE_BOUND('',#600,.T.);
#691=FACE_BOUND('',#601,.T.);
#692=FACE_BOUND('',#602,.T.);
#693=FACE_BOUND('',#603,.T.);
#694=FACE_BOUND('',#604,.T.);
#695=FACE_BOUND('',#605,.T.);
#696=FACE_BOUND('',#606,.T.);
#697=FACE_BOUND('',#607,.T.);
#698=FACE_BOUND('',#608,.T.);
#699=FACE_BOUND('',#609,.T.);
#700=FACE_BOUND('',#610,.T.);
#701=FACE_BOUND('',#611,.T.);
#702=FACE_BOUND('',#612,.T.);
#703=FACE_BOUND('',#613,.T.);
#704=FACE_BOUND('',#614,.T.);
#705=FACE_BOUND('',#615,.T.);
#706=FACE_BOUND('',#616,.T.);
#707=FACE_BOUND('',#617,.T.);
#708=FACE_BOUND('',#618,.T.);
#709=FACE_BOUND('',#619,.T.);
#710=FACE_BOUND('',#620,.T.);
#711=FACE_BOUND('',#621,.T.);
#712=FACE_BOUND('',#622,.T.);
#713=FACE_BOUND('',#623,.T.);
#714=FACE_BOUND('',#624,.T.);
#715=FACE_BOUND('',#625,.T.);
#716=FACE_BOUND('',#626,.T.);
#717=FACE_BOUND('',#627,.T.);
#718=FACE_BOUND('',#628,.T.);
#719=FACE_BOUND('',#629,.T.);
#720=FACE_BOUND('',#630,.T.);
#721=FACE_BOUND('',#631,.T.);
#722=FACE_BOUND('',#632,.T.);
#723=FACE_BOUND('',#633,.T.);
#724=FACE_BOUND('',#634,.T.);
#725=FACE_BOUND('',#635,.T.);
#726=FACE_BOUND('',#636,.T.);
#727=FACE_BOUND('',#637,.T.);
#728=FACE_BOUND('',#638,.T.);
#729=FACE_BOUND('',#639,.T.);
#730=FACE_BOUND('',#640,.T.);
#731=FACE_BOUND('',#641,.T.);
#732=FACE_BOUND('',#642,.T.);
#733=FACE_BOUND('',#643,.T.);
#734=FACE_BOUND('',#644,.T.);
#735=FACE_BOUND('',#645,.T.);
#736=FACE_BOUND('',#646,.T.);
#737=FACE_BOUND('',#647,.T.);
#738=FACE_BOUND('',#648,.T.);
#739=FACE_BOUND('',#649,.T.);
#740=FACE_BOUND('',#650,.T.);
#741=FACE_BOUND('',#651,.T.);
#742=FACE_BOUND('',#652,.T.);
#743=FACE_BOUND('',#653,.T.);
#744=FACE_BOUND('',#654,.T.);
#745=FACE_BOUND('',#655,.T.);
#746=FACE_BOUND('',#656,.T.);
#747=PLANE('',#817);
#748=PLANE('',#842);
#749=PLANE('',#858);
#750=PLANE('',#859);
#751=PLANE('',#862);
#752=PLANE('',#863);
#753=PLANE('',#883);
#754=PLANE('',#884);
#755=PLANE('',#898);
#756=PLANE('',#899);
#757=PLANE('',#900);
#758=PLANE('',#902);
#759=PLANE('',#906);
#760=PLANE('',#915);
#761=PLANE('',#916);
#762=ADVANCED_FACE('',(#657,#658,#659,#660,#661,#662,#663,#664,#665,#666,
#667,#668,#669,#670,#671,#672,#673),#747,.F.);
#763=ADVANCED_FACE('',(#674,#675,#676,#677),#748,.F.);
#764=ADVANCED_FACE('',(#678),#16,.F.);
#765=ADVANCED_FACE('',(#679,#680),#17,.F.);
#766=ADVANCED_FACE('',(#681),#18,.T.);
#767=ADVANCED_FACE('',(#682),#749,.T.);
#768=ADVANCED_FACE('',(#683),#750,.T.);
#769=ADVANCED_FACE('',(#684),#19,.T.);
#770=ADVANCED_FACE('',(#685),#751,.F.);
#771=ADVANCED_FACE('',(#686,#687,#688,#689,#690,#691,#692,#693,#694,#695,
#696,#697),#752,.T.);
#772=ADVANCED_FACE('',(#698,#699),#20,.F.);
#773=ADVANCED_FACE('',(#700,#701),#21,.T.);
#774=ADVANCED_FACE('',(#702,#703),#753,.T.);
#775=ADVANCED_FACE('',(#704),#754,.T.);
#776=ADVANCED_FACE('',(#705),#22,.T.);
#777=ADVANCED_FACE('',(#706),#23,.T.);
#778=ADVANCED_FACE('',(#707,#708),#24,.F.);
#779=ADVANCED_FACE('',(#709,#710),#25,.F.);
#780=ADVANCED_FACE('',(#711,#712),#26,.F.);
#781=ADVANCED_FACE('',(#713,#714),#27,.F.);
#782=ADVANCED_FACE('',(#715,#716),#28,.F.);
#783=ADVANCED_FACE('',(#717,#718),#29,.F.);
#784=ADVANCED_FACE('',(#719,#720),#14,.F.);
#785=ADVANCED_FACE('',(#721),#755,.F.);
#786=ADVANCED_FACE('',(#722),#756,.T.);
#787=ADVANCED_FACE('',(#723),#757,.T.);
#788=ADVANCED_FACE('',(#724),#15,.F.);
#789=ADVANCED_FACE('',(#725),#758,.F.);
#790=ADVANCED_FACE('',(#726,#727),#30,.F.);
#791=ADVANCED_FACE('',(#728,#729),#31,.F.);
#792=ADVANCED_FACE('',(#730,#731),#32,.F.);
#793=ADVANCED_FACE('',(#732),#759,.F.);
#794=ADVANCED_FACE('',(#733),#33,.F.);
#795=ADVANCED_FACE('',(#734),#34,.F.);
#796=ADVANCED_FACE('',(#735),#35,.F.);
#797=ADVANCED_FACE('',(#736),#36,.F.);
#798=ADVANCED_FACE('',(#737,#738),#37,.F.);
#799=ADVANCED_FACE('',(#739,#740),#38,.F.);
#800=ADVANCED_FACE('',(#741,#742),#39,.F.);
#801=ADVANCED_FACE('',(#743,#744),#40,.F.);
#802=ADVANCED_FACE('',(#745),#760,.F.);
#803=ADVANCED_FACE('',(#746),#761,.T.);
#804=CLOSED_SHELL('',(#762,#763,#764,#765,#766,#767,#768,#769,#770,#771,
#772,#773,#774,#775,#776,#777,#778,#779,#780,#781,#782,#783,#784,#785,#786,
#787,#788,#789,#790,#791,#792,#793,#794,#795,#796,#797,#798,#799,#800,#801,
#802,#803));
#805=STYLED_ITEM('',(#806),#813);
#806=PRESENTATION_STYLE_ASSIGNMENT((#807));
#807=SURFACE_STYLE_USAGE(.BOTH.,#808);
#808=SURFACE_SIDE_STYLE('',(#809));
#809=SURFACE_STYLE_FILL_AREA(#810);
#810=FILL_AREA_STYLE('',(#811));
#811=FILL_AREA_STYLE_COLOUR('',#812);
#812=COLOUR_RGB('',0.615686274509804,0.811764705882353,0.929411764705882);
#813=MANIFOLD_SOLID_BREP('ARCADP003',#804);
#814=SHAPE_DEFINITION_REPRESENTATION(#1402,#815);
#815=SHAPE_REPRESENTATION('ARCADP003',(#816),#1397);
#816=AXIS2_PLACEMENT_3D('',#1161,#917,#918);
#817=AXIS2_PLACEMENT_3D('',#1162,#919,#920);
#818=AXIS2_PLACEMENT_3D('',#1163,#921,#922);
#819=AXIS2_PLACEMENT_3D('',#1165,#923,#924);
#820=AXIS2_PLACEMENT_3D('',#1167,#925,#926);
#821=AXIS2_PLACEMENT_3D('',#1169,#927,#928);
#822=AXIS2_PLACEMENT_3D('',#1171,#929,#930);
#823=AXIS2_PLACEMENT_3D('',#1174,#931,#932);
#824=AXIS2_PLACEMENT_3D('',#1178,#934,#935);
#825=AXIS2_PLACEMENT_3D('',#1180,#936,#937);
#826=AXIS2_PLACEMENT_3D('',#1182,#938,#939);
#827=AXIS2_PLACEMENT_3D('',#1186,#941,#942);
#828=AXIS2_PLACEMENT_3D('',#1187,#943,#944);
#829=AXIS2_PLACEMENT_3D('',#1189,#945,#946);
#830=AXIS2_PLACEMENT_3D('',#1191,#947,#948);
#831=AXIS2_PLACEMENT_3D('',#1193,#949,#950);
#832=AXIS2_PLACEMENT_3D('',#1195,#951,#952);
#833=AXIS2_PLACEMENT_3D('',#1197,#953,#954);
#834=AXIS2_PLACEMENT_3D('',#1199,#955,#956);
#835=AXIS2_PLACEMENT_3D('',#1206,#959,#960);
#836=AXIS2_PLACEMENT_3D('',#1210,#962,#963);
#837=AXIS2_PLACEMENT_3D('',#1214,#965,#966);
#838=AXIS2_PLACEMENT_3D('',#1215,#967,#968);
#839=AXIS2_PLACEMENT_3D('',#1217,#969,#970);
#840=AXIS2_PLACEMENT_3D('',#1219,#971,#972);
#841=AXIS2_PLACEMENT_3D('',#1221,#973,#974);
#842=AXIS2_PLACEMENT_3D('',#1225,#976,#977);
#843=AXIS2_PLACEMENT_3D('',#1226,#978,#979);
#844=AXIS2_PLACEMENT_3D('',#1228,#980,#981);
#845=AXIS2_PLACEMENT_3D('',#1230,#982,#983);
#846=AXIS2_PLACEMENT_3D('',#1235,#985,#986);
#847=AXIS2_PLACEMENT_3D('',#1239,#988,#989);
#848=AXIS2_PLACEMENT_3D('',#1240,#990,#991);
#849=AXIS2_PLACEMENT_3D('',#1244,#993,#994);
#850=AXIS2_PLACEMENT_3D('',#1248,#996,#997);
#851=AXIS2_PLACEMENT_3D('',#1249,#998,#999);
#852=AXIS2_PLACEMENT_3D('',#1253,#1001,#1002);
#853=AXIS2_PLACEMENT_3D('',#1257,#1004,#1005);
#854=AXIS2_PLACEMENT_3D('',#1262,#1010,#1011);
#855=AXIS2_PLACEMENT_3D('',#1263,#1012,#1013);
#856=AXIS2_PLACEMENT_3D('',#1268,#1015,#1016);
#857=AXIS2_PLACEMENT_3D('',#1272,#1018,#1019);
#858=AXIS2_PLACEMENT_3D('',#1276,#1022,#1023);
#859=AXIS2_PLACEMENT_3D('',#1282,#1027,#1028);
#860=AXIS2_PLACEMENT_3D('',#1288,#1032,#1033);
#861=AXIS2_PLACEMENT_3D('',#1291,#1035,#1036);
#862=AXIS2_PLACEMENT_3D('',#1292,#1037,#1038);
#863=AXIS2_PLACEMENT_3D('',#1296,#1041,#1042);
#864=AXIS2_PLACEMENT_3D('',#1297,#1043,#1044);
#865=AXIS2_PLACEMENT_3D('',#1299,#1045,#1046);
#866=AXIS2_PLACEMENT_3D('',#1301,#1047,#1048);
#867=AXIS2_PLACEMENT_3D('',#1303,#1049,#1050);
#868=AXIS2_PLACEMENT_3D('',#1305,#1051,#1052);
#869=AXIS2_PLACEMENT_3D('',#1307,#1053,#1054);
#870=AXIS2_PLACEMENT_3D('',#1309,#1055,#1056);
#871=AXIS2_PLACEMENT_3D('',#1311,#1057,#1058);
#872=AXIS2_PLACEMENT_3D('',#1313,#1059,#1060);
#873=AXIS2_PLACEMENT_3D('',#1314,#1061,#1062);
#874=AXIS2_PLACEMENT_3D('',#1315,#1063,#1064);
#875=AXIS2_PLACEMENT_3D('',#1317,#1065,#1066);
#876=AXIS2_PLACEMENT_3D('',#1319,#1067,#1068);
#877=AXIS2_PLACEMENT_3D('',#1321,#1069,#1070);
#878=AXIS2_PLACEMENT_3D('',#1322,#1071,#1072);
#879=AXIS2_PLACEMENT_3D('',#1324,#1073,#1074);
#880=AXIS2_PLACEMENT_3D('',#1329,#1077,#1078);
#881=AXIS2_PLACEMENT_3D('',#1330,#1079,#1080);
#882=AXIS2_PLACEMENT_3D('',#1332,#1081,#1082);
#883=AXIS2_PLACEMENT_3D('',#1334,#1083,#1084);
#884=AXIS2_PLACEMENT_3D('',#1335,#1085,#1086);
#885=AXIS2_PLACEMENT_3D('',#1338,#1089,#1090);
#886=AXIS2_PLACEMENT_3D('',#1342,#1092,#1093);
#887=AXIS2_PLACEMENT_3D('',#1343,#1094,#1095);
#888=AXIS2_PLACEMENT_3D('',#1347,#1097,#1098);
#889=AXIS2_PLACEMENT_3D('',#1348,#1099,#1100);
#890=AXIS2_PLACEMENT_3D('',#1349,#1101,#1102);
#891=AXIS2_PLACEMENT_3D('',#1350,#1103,#1104);
#892=AXIS2_PLACEMENT_3D('',#1351,#1105,#1106);
#893=AXIS2_PLACEMENT_3D('',#1352,#1107,#1108);
#894=AXIS2_PLACEMENT_3D('',#1353,#1109,#1110);
#895=AXIS2_PLACEMENT_3D('',#1354,#1111,#1112);
#896=AXIS2_PLACEMENT_3D('',#1355,#1113,#1114);
#897=AXIS2_PLACEMENT_3D('',#1356,#1115,#1116);
#898=AXIS2_PLACEMENT_3D('',#1357,#1117,#1118);
#899=AXIS2_PLACEMENT_3D('',#1360,#1121,#1122);
#900=AXIS2_PLACEMENT_3D('',#1363,#1125,#1126);
#901=AXIS2_PLACEMENT_3D('',#1366,#1129,#1130);
#902=AXIS2_PLACEMENT_3D('',#1381,#1131,#1132);
#903=AXIS2_PLACEMENT_3D('',#1382,#1133,#1134);
#904=AXIS2_PLACEMENT_3D('',#1383,#1135,#1136);
#905=AXIS2_PLACEMENT_3D('',#1384,#1137,#1138);
#906=AXIS2_PLACEMENT_3D('',#1385,#1139,#1140);
#907=AXIS2_PLACEMENT_3D('',#1386,#1141,#1142);
#908=AXIS2_PLACEMENT_3D('',#1387,#1143,#1144);
#909=AXIS2_PLACEMENT_3D('',#1388,#1145,#1146);
#910=AXIS2_PLACEMENT_3D('',#1389,#1147,#1148);
#911=AXIS2_PLACEMENT_3D('',#1390,#1149,#1150);
#912=AXIS2_PLACEMENT_3D('',#1391,#1151,#1152);
#913=AXIS2_PLACEMENT_3D('',#1392,#1153,#1154);
#914=AXIS2_PLACEMENT_3D('',#1393,#1155,#1156);
#915=AXIS2_PLACEMENT_3D('',#1394,#1157,#1158);
#916=AXIS2_PLACEMENT_3D('',#1395,#1159,#1160);
#917=DIRECTION('',(0.,0.,1.));
#918=DIRECTION('',(1.,0.,0.));
#919=DIRECTION('',(0.,1.,0.));
#920=DIRECTION('',(1.,0.,0.));
#921=DIRECTION('',(0.,1.,0.));
#922=DIRECTION('',(1.,0.,0.));
#923=DIRECTION('',(0.,1.,0.));
#924=DIRECTION('',(1.,0.,0.));
#925=DIRECTION('',(0.,1.,0.));
#926=DIRECTION('',(1.,0.,0.));
#927=DIRECTION('',(0.,1.,0.));
#928=DIRECTION('',(1.,0.,0.));
#929=DIRECTION('',(0.,1.,0.));
#930=DIRECTION('',(1.,0.,0.));
#931=DIRECTION('',(0.,1.,0.));
#932=DIRECTION('',(1.,0.,0.));
#933=DIRECTION('',(-0.984807753012208,0.,-0.17364817766693));
#934=DIRECTION('',(0.,1.,0.));
#935=DIRECTION('',(1.,0.,0.));
#936=DIRECTION('',(0.,1.,0.));
#937=DIRECTION('',(1.,0.,0.));
#938=DIRECTION('',(0.,1.,0.));
#939=DIRECTION('',(1.,0.,0.));
#940=DIRECTION('',(-0.984807753012208,0.,0.17364817766693));
#941=DIRECTION('',(0.,1.,0.));
#942=DIRECTION('',(1.,0.,0.));
#943=DIRECTION('',(0.,1.,0.));
#944=DIRECTION('',(1.,0.,0.));
#945=DIRECTION('',(0.,1.,0.));
#946=DIRECTION('',(1.,0.,0.));
#947=DIRECTION('',(0.,1.,0.));
#948=DIRECTION('',(1.,0.,0.));
#949=DIRECTION('',(0.,1.,0.));
#950=DIRECTION('',(1.,0.,0.));
#951=DIRECTION('',(0.,1.,0.));
#952=DIRECTION('',(1.,0.,0.));
#953=DIRECTION('',(0.,1.,0.));
#954=DIRECTION('',(1.,0.,0.));
#955=DIRECTION('',(0.,1.,0.));
#956=DIRECTION('',(1.,0.,0.));
#957=DIRECTION('',(0.,0.,1.));
#958=DIRECTION('',(1.,0.,0.));
#959=DIRECTION('',(0.,1.,0.));
#960=DIRECTION('',(1.,0.,0.));
#961=DIRECTION('',(0.,0.,1.));
#962=DIRECTION('',(0.,1.,0.));
#963=DIRECTION('',(1.,0.,0.));
#964=DIRECTION('',(1.,0.,0.));
#965=DIRECTION('',(0.,1.,0.));
#966=DIRECTION('',(1.,0.,0.));
#967=DIRECTION('',(0.,1.,0.));
#968=DIRECTION('',(1.,0.,0.));
#969=DIRECTION('',(0.,1.,0.));
#970=DIRECTION('',(1.,0.,0.));
#971=DIRECTION('',(0.,1.,0.));
#972=DIRECTION('',(1.,0.,0.));
#973=DIRECTION('',(0.,1.,0.));
#974=DIRECTION('',(1.,0.,0.));
#975=DIRECTION('',(0.,0.,1.));
#976=DIRECTION('',(0.,-1.,0.));
#977=DIRECTION('',(1.,0.,0.));
#978=DIRECTION('',(0.,1.,0.));
#979=DIRECTION('',(1.,0.,0.));
#980=DIRECTION('',(0.,1.,0.));
#981=DIRECTION('',(1.,0.,0.));
#982=DIRECTION('',(0.,1.,0.));
#983=DIRECTION('',(1.,0.,0.));
#984=DIRECTION('',(0.,0.,1.));
#985=DIRECTION('',(0.,1.,0.));
#986=DIRECTION('',(1.,0.,0.));
#987=DIRECTION('',(0.,0.,1.));
#988=DIRECTION('',(0.,1.,0.));
#989=DIRECTION('',(1.,0.,0.));
#990=DIRECTION('',(0.,-1.,0.));
#991=DIRECTION('',(-1.,0.,0.));
#992=DIRECTION('',(0.,-1.,0.));
#993=DIRECTION('',(0.,-1.,0.));
#994=DIRECTION('',(-1.,0.,0.));
#995=DIRECTION('',(0.,-1.,0.));
#996=DIRECTION('',(0.,1.,0.));
#997=DIRECTION('',(1.,0.,0.));
#998=DIRECTION('',(0.,-1.,0.));
#999=DIRECTION('',(-1.,0.,0.));
#1000=DIRECTION('',(0.,-1.,0.));
#1001=DIRECTION('',(0.,1.,0.));
#1002=DIRECTION('',(1.,0.,0.));
#1003=DIRECTION('',(0.,-1.,0.));
#1004=DIRECTION('',(0.,1.,0.));
#1005=DIRECTION('',(1.,0.,0.));
#1006=DIRECTION('',(0.,-1.,0.));
#1007=DIRECTION('',(0.,1.,0.));
#1008=DIRECTION('',(0.,1.,0.));
#1009=DIRECTION('',(0.,-1.,0.));
#1010=DIRECTION('',(0.,-1.,0.));
#1011=DIRECTION('',(-1.,0.,0.));
#1012=DIRECTION('',(0.,1.,0.));
#1013=DIRECTION('',(1.,0.,0.));
#1014=DIRECTION('',(0.,-1.,0.));
#1015=DIRECTION('',(0.,1.,0.));
#1016=DIRECTION('',(1.,0.,0.));
#1017=DIRECTION('',(0.,-1.,0.));
#1018=DIRECTION('',(0.,1.,0.));
#1019=DIRECTION('',(1.,0.,0.));
#1020=DIRECTION('',(0.,-1.,0.));
#1021=DIRECTION('',(0.,-1.,0.));
#1022=DIRECTION('',(1.,0.,0.));
#1023=DIRECTION('',(0.,-1.,0.));
#1024=DIRECTION('',(0.,-1.,0.));
#1025=DIRECTION('',(0.,0.,1.));
#1026=DIRECTION('',(0.,-1.,0.));
#1027=DIRECTION('',(0.,0.,-1.));
#1028=DIRECTION('',(0.,1.,0.));
#1029=DIRECTION('',(1.,0.,0.));
#1030=DIRECTION('',(0.,-1.,0.));
#1031=DIRECTION('',(0.,-1.,0.));
#1032=DIRECTION('',(0.,-1.,0.));
#1033=DIRECTION('',(-1.,0.,0.));
#1034=DIRECTION('',(0.,-1.,0.));
#1035=DIRECTION('',(0.,1.,0.));
#1036=DIRECTION('',(1.,0.,0.));
#1037=DIRECTION('',(0.,0.,-1.));
#1038=DIRECTION('',(0.,1.,0.));
#1039=DIRECTION('',(0.,-1.,0.));
#1040=DIRECTION('',(1.,0.,0.));
#1041=DIRECTION('',(0.,1.,0.));
#1042=DIRECTION('',(1.,0.,0.));
#1043=DIRECTION('',(0.,-1.,0.));
#1044=DIRECTION('',(-1.,0.,0.));
#1045=DIRECTION('',(0.,-1.,0.));
#1046=DIRECTION('',(-1.,0.,0.));
#1047=DIRECTION('',(0.,-1.,0.));
#1048=DIRECTION('',(-1.,0.,0.));
#1049=DIRECTION('',(0.,-1.,0.));
#1050=DIRECTION('',(-1.,0.,0.));
#1051=DIRECTION('',(0.,1.,0.));
#1052=DIRECTION('',(1.,0.,0.));
#1053=DIRECTION('',(0.,-1.,0.));
#1054=DIRECTION('',(-1.,0.,0.));
#1055=DIRECTION('',(0.,-1.,0.));
#1056=DIRECTION('',(-1.,0.,0.));
#1057=DIRECTION('',(0.,-1.,0.));
#1058=DIRECTION('',(-1.,0.,0.));
#1059=DIRECTION('',(0.,1.,0.));
#1060=DIRECTION('',(1.,0.,0.));
#1061=DIRECTION('',(0.,1.,0.));
#1062=DIRECTION('',(1.,0.,0.));
#1063=DIRECTION('',(0.,-1.,0.));
#1064=DIRECTION('',(-1.,0.,0.));
#1065=DIRECTION('',(0.,-1.,0.));
#1066=DIRECTION('',(-1.,0.,0.));
#1067=DIRECTION('',(0.,-1.,0.));
#1068=DIRECTION('',(-1.,0.,0.));
#1069=DIRECTION('',(0.,-1.,0.));
#1070=DIRECTION('',(-1.,0.,0.));
#1071=DIRECTION('',(0.,1.,0.));
#1072=DIRECTION('',(1.,0.,0.));
#1073=DIRECTION('',(0.,1.,0.));
#1074=DIRECTION('',(1.,0.,0.));
#1075=DIRECTION('',(0.,-1.,0.));
#1076=DIRECTION('',(0.,-1.,0.));
#1077=DIRECTION('',(0.,-1.,0.));
#1078=DIRECTION('',(-1.,0.,0.));
#1079=DIRECTION('',(0.,1.,0.));
#1080=DIRECTION('',(1.,0.,0.));
#1081=DIRECTION('',(0.,1.,0.));
#1082=DIRECTION('',(1.,0.,0.));
#1083=DIRECTION('',(0.,1.,0.));
#1084=DIRECTION('',(1.,0.,0.));
#1085=DIRECTION('',(0.,1.,0.));
#1086=DIRECTION('',(1.,0.,0.));
#1087=DIRECTION('',(-1.,0.,0.));
#1088=DIRECTION('',(-1.,0.,0.));
#1089=DIRECTION('',(0.,1.,0.));
#1090=DIRECTION('',(1.,0.,0.));
#1091=DIRECTION('',(-0.984807753012208,0.,0.17364817766693));
#1092=DIRECTION('',(0.,1.,0.));
#1093=DIRECTION('',(1.,0.,0.));
#1094=DIRECTION('',(0.,1.,0.));
#1095=DIRECTION('',(1.,0.,0.));
#1096=DIRECTION('',(-0.984807753012208,0.,-0.17364817766693));
#1097=DIRECTION('',(0.,1.,0.));
#1098=DIRECTION('',(1.,0.,0.));
#1099=DIRECTION('',(0.,-1.,0.));
#1100=DIRECTION('',(-1.,0.,0.));
#1101=DIRECTION('',(0.,1.,0.));
#1102=DIRECTION('',(1.,0.,0.));
#1103=DIRECTION('',(0.,-1.,0.));
#1104=DIRECTION('',(-1.,0.,0.));
#1105=DIRECTION('',(0.,-1.,0.));
#1106=DIRECTION('',(-1.,0.,0.));
#1107=DIRECTION('',(0.,-1.,0.));
#1108=DIRECTION('',(-1.,0.,0.));
#1109=DIRECTION('',(0.,-1.,0.));
#1110=DIRECTION('',(-1.,0.,0.));
#1111=DIRECTION('',(0.,-1.,0.));
#1112=DIRECTION('',(-1.,0.,0.));
#1113=DIRECTION('',(0.,-1.,0.));
#1114=DIRECTION('',(-1.,0.,0.));
#1115=DIRECTION('',(0.,1.,0.));
#1116=DIRECTION('',(1.,0.,0.));
#1117=DIRECTION('',(0.17364817766693,0.,-0.984807753012208));
#1118=DIRECTION('',(-0.984807753012208,0.,-0.17364817766693));
#1119=DIRECTION('',(0.,1.,0.));
#1120=DIRECTION('',(0.,-1.,0.));
#1121=DIRECTION('',(-0.17364817766693,0.,-0.984807753012208));
#1122=DIRECTION('',(-0.984807753012208,0.,0.17364817766693));
#1123=DIRECTION('',(0.,1.,0.));
#1124=DIRECTION('',(0.,-1.,0.));
#1125=DIRECTION('',(0.,1.,0.));
#1126=DIRECTION('',(1.,0.,0.));
#1127=DIRECTION('',(1.,0.,0.));
#1128=DIRECTION('',(1.,0.,0.));
#1129=DIRECTION('',(0.,1.,0.));
#1130=DIRECTION('',(1.,0.,0.));
#1131=DIRECTION('',(1.,0.,0.));
#1132=DIRECTION('',(0.,-1.,0.));
#1133=DIRECTION('',(0.,1.,0.));
#1134=DIRECTION('',(1.,0.,0.));
#1135=DIRECTION('',(0.,1.,0.));
#1136=DIRECTION('',(1.,0.,0.));
#1137=DIRECTION('',(0.,1.,0.));
#1138=DIRECTION('',(1.,0.,0.));
#1139=DIRECTION('',(-1.,0.,0.));
#1140=DIRECTION('',(0.,1.,0.));
#1141=DIRECTION('',(0.,-1.,0.));
#1142=DIRECTION('',(-1.,0.,0.));
#1143=DIRECTION('',(0.,-1.,0.));
#1144=DIRECTION('',(-1.,0.,0.));
#1145=DIRECTION('',(0.,-1.,0.));
#1146=DIRECTION('',(-1.,0.,0.));
#1147=DIRECTION('',(0.,-1.,0.));
#1148=DIRECTION('',(-1.,0.,0.));
#1149=DIRECTION('',(0.,-1.,0.));
#1150=DIRECTION('',(-1.,0.,0.));
#1151=DIRECTION('',(0.,-1.,0.));
#1152=DIRECTION('',(-1.,0.,0.));
#1153=DIRECTION('',(0.,-1.,0.));
#1154=DIRECTION('',(-1.,0.,0.));
#1155=DIRECTION('',(0.,-1.,0.));
#1156=DIRECTION('',(-1.,0.,0.));
#1157=DIRECTION('',(0.,0.,1.));
#1158=DIRECTION('',(0.,-1.,0.));
#1159=DIRECTION('',(0.,0.,1.));
#1160=DIRECTION('',(0.,-1.,0.));
#1161=CARTESIAN_POINT('',(0.,0.,0.));
#1162=CARTESIAN_POINT('',(0.025,0.,-1.38777878078145E-17));
#1163=CARTESIAN_POINT('',(0.1025,0.,-0.06));
#1164=CARTESIAN_POINT('',(0.1046,0.,-0.06));
#1165=CARTESIAN_POINT('',(0.1375,0.,-0.06));
#1166=CARTESIAN_POINT('',(0.1396,0.,-0.06));
#1167=CARTESIAN_POINT('',(0.1375,0.,0.06));
#1168=CARTESIAN_POINT('',(0.1396,0.,0.06));
#1169=CARTESIAN_POINT('',(0.1025,0.,0.06));
#1170=CARTESIAN_POINT('',(0.1046,0.,0.06));
#1171=CARTESIAN_POINT('',(0.,0.,-4.10256677714363E-18));
#1172=CARTESIAN_POINT('',(-0.0662916256653022,0.,-0.00971701428688099));
#1173=CARTESIAN_POINT('',(-0.0662916256653022,0.,0.00971701428688099));
#1174=CARTESIAN_POINT('',(-0.0682704801627739,0.,-0.0100070744148476));
#1175=CARTESIAN_POINT('',(-0.06792318380744,0.,-0.011976689920872));
#1176=CARTESIAN_POINT('',(0.0242461577598239,0.,0.00427525179157086));
#1177=CARTESIAN_POINT('',(-0.0713713898124549,0.,-0.0125847016745971));
#1178=CARTESIAN_POINT('',(-0.0717186861677888,0.,-0.0106150861685727));
#1179=CARTESIAN_POINT('',(-0.0736971326827623,0.,-0.0109079161318436));
#1180=CARTESIAN_POINT('',(0.,0.,-4.56180932682389E-18));
#1181=CARTESIAN_POINT('',(-0.0736971326827623,0.,0.0109079161318436));
#1182=CARTESIAN_POINT('',(-0.0717186861677888,0.,0.0106150861685727));
#1183=CARTESIAN_POINT('',(-0.0713713898124549,0.,0.0125847016745971));
#1184=CARTESIAN_POINT('',(0.0242461577598239,0.,-0.00427525179157088));
#1185=CARTESIAN_POINT('',(-0.06792318380744,0.,0.011976689920872));
#1186=CARTESIAN_POINT('',(-0.0682704801627739,0.,0.0100070744148476));
#1187=CARTESIAN_POINT('',(0.135,0.,0.085));
#1188=CARTESIAN_POINT('',(0.1367,0.,0.085));
#1189=CARTESIAN_POINT('',(0.,0.,0.092));
#1190=CARTESIAN_POINT('',(0.0017,0.,0.092));
#1191=CARTESIAN_POINT('',(-0.092,0.,0.));
#1192=CARTESIAN_POINT('',(-0.0903,0.,0.));
#1193=CARTESIAN_POINT('',(0.,0.,-0.092));
#1194=CARTESIAN_POINT('',(0.0017,0.,-0.092));
#1195=CARTESIAN_POINT('',(0.135,0.,0.));
#1196=CARTESIAN_POINT('',(0.1367,0.,0.));
#1197=CARTESIAN_POINT('',(0.135,0.,-0.085));
#1198=CARTESIAN_POINT('',(0.1367,0.,-0.085));
#1199=CARTESIAN_POINT('',(0.,0.,-3.91886975727153E-18));
#1200=CARTESIAN_POINT('',(-0.03292,0.,0.0548841835140143));
#1201=CARTESIAN_POINT('',(-0.03292,0.,-0.0548841835140143));
#1202=CARTESIAN_POINT('',(-0.03292,0.,0.0274420917570071));
#1203=CARTESIAN_POINT('',(0.0725,0.,-0.095));
#1204=CARTESIAN_POINT('',(5.81707229594993E-18,0.,-0.095));
#1205=CARTESIAN_POINT('',(0.135,0.,-0.095));
#1206=CARTESIAN_POINT('',(0.135,0.,-0.085));
#1207=CARTESIAN_POINT('',(0.145,0.,-0.085));
#1208=CARTESIAN_POINT('',(0.145,0.,-1.38777878078145E-17));
#1209=CARTESIAN_POINT('',(0.145,0.,0.085));
#1210=CARTESIAN_POINT('',(0.135,0.,0.085));
#1211=CARTESIAN_POINT('',(0.135,0.,0.095));
#1212=CARTESIAN_POINT('',(0.0725,0.,0.095));
#1213=CARTESIAN_POINT('',(-1.74512168878498E-17,0.,0.095));
#1214=CARTESIAN_POINT('',(-5.81707229594993E-18,0.,0.));
#1215=CARTESIAN_POINT('',(0.009,0.,-0.0234));
#1216=CARTESIAN_POINT('',(0.01115,0.,-0.0234));
#1217=CARTESIAN_POINT('',(0.009,0.,0.0234));
#1218=CARTESIAN_POINT('',(0.01115,0.,0.0234));
#1219=CARTESIAN_POINT('',(-0.02292,0.,2.56304175475688E-18));
#1220=CARTESIAN_POINT('',(-0.02077,0.,2.56304175475688E-18));
#1221=CARTESIAN_POINT('',(0.,0.,-3.91886975727153E-18));
#1222=CARTESIAN_POINT('',(0.0468131723539603,0.,-0.0436408855794473));
#1223=CARTESIAN_POINT('',(0.0468131723539603,0.,0.0436408855794472));
#1224=CARTESIAN_POINT('',(0.0468131723539603,0.,-1.38777878078145E-17));
#1225=CARTESIAN_POINT('',(0.025,0.005,0.));
#1226=CARTESIAN_POINT('',(0.009,0.005,-0.0234));
#1227=CARTESIAN_POINT('',(0.01115,0.005,-0.0234));
#1228=CARTESIAN_POINT('',(0.009,0.005,0.0234));
#1229=CARTESIAN_POINT('',(0.01115,0.005,0.0234));
#1230=CARTESIAN_POINT('',(-0.02292,0.005,2.56304175475688E-18));
#1231=CARTESIAN_POINT('',(-0.02077,0.005,2.56304175475688E-18));
#1232=CARTESIAN_POINT('',(0.0468131723539603,0.005,-8.67361737988404E-18));
#1233=CARTESIAN_POINT('',(0.0468131723539603,0.005,-0.0436408855794473));
#1234=CARTESIAN_POINT('',(0.0468131723539603,0.005,0.0436408855794472));
#1235=CARTESIAN_POINT('',(0.,0.005,-3.91886975727153E-18));
#1236=CARTESIAN_POINT('',(-0.03292,0.005,-0.0548841835140143));
#1237=CARTESIAN_POINT('',(-0.03292,0.005,0.0274420917570071));
#1238=CARTESIAN_POINT('',(-0.03292,0.005,0.0548841835140143));
#1239=CARTESIAN_POINT('',(0.,0.005,-3.91886975727153E-18));
#1240=CARTESIAN_POINT('',(0.,0.016,-3.91886975727153E-18));
#1241=CARTESIAN_POINT('',(0.0638043885637971,0.016,0.005));
#1242=CARTESIAN_POINT('',(0.0638043885637971,0.013,0.005));
#1243=CARTESIAN_POINT('',(0.0638043885637971,0.014,0.005));
#1244=CARTESIAN_POINT('',(0.,0.013,0.));
#1245=CARTESIAN_POINT('',(0.0638043885637971,0.013,-0.005));
#1246=CARTESIAN_POINT('',(0.0638043885637971,0.016,-0.005));
#1247=CARTESIAN_POINT('',(0.0638043885637971,0.014,-0.005));
#1248=CARTESIAN_POINT('',(0.,0.014,-3.91886975727153E-18));
#1249=CARTESIAN_POINT('',(0.,0.016,-3.91886975727153E-18));
#1250=CARTESIAN_POINT('',(0.0638043885637971,0.016,0.005));
#1251=CARTESIAN_POINT('',(0.0638043885637971,0.005,0.005));
#1252=CARTESIAN_POINT('',(0.0638043885637978,0.0119999999999941,0.005));
#1253=CARTESIAN_POINT('',(0.,0.005,-3.91886975727153E-18));
#1254=CARTESIAN_POINT('',(0.0638043885637971,0.005,-0.005));
#1255=CARTESIAN_POINT('',(0.0638043885637971,0.016,-0.005));
#1256=CARTESIAN_POINT('',(0.0638043885637978,0.0119999999999941,-0.005));
#1257=CARTESIAN_POINT('',(0.,0.012,0.));
#1258=CARTESIAN_POINT('',(-0.03292,0.005,-0.0548841835140143));
#1259=CARTESIAN_POINT('',(0.0468131723539603,-0.02,-0.0436408855794473));
#1260=CARTESIAN_POINT('',(0.0468131723539603,-0.02,0.0436408855794472));
#1261=CARTESIAN_POINT('',(-0.03292,0.005,0.0548841835140143));
#1262=CARTESIAN_POINT('',(0.,0.016,-4.10256677714363E-18));
#1263=CARTESIAN_POINT('',(0.,0.005,-4.10256677714363E-18));
#1264=CARTESIAN_POINT('',(-0.0662916256653022,0.005,0.00971701428688099));
#1265=CARTESIAN_POINT('',(0.0668131723539603,0.005,0.005));
#1266=CARTESIAN_POINT('',(0.0668131723539603,0.016,0.005));
#1267=CARTESIAN_POINT('',(0.0668131723539603,0.014,0.005));
#1268=CARTESIAN_POINT('',(0.,0.014,-4.10256677714363E-18));
#1269=CARTESIAN_POINT('',(0.0668131723539603,0.014,-0.005));
#1270=CARTESIAN_POINT('',(0.0668131723539603,0.016,-0.005));
#1271=CARTESIAN_POINT('',(0.0668131723539603,0.005,-0.005));
#1272=CARTESIAN_POINT('',(0.,0.005,-4.10256677714363E-18));
#1273=CARTESIAN_POINT('',(-0.0662916256653022,0.005,-0.00971701428688099));
#1274=CARTESIAN_POINT('',(-0.0662916256653022,0.016,-0.00971701428688099));
#1275=CARTESIAN_POINT('',(-0.0662916256653022,0.016,0.00971701428688099));
#1276=CARTESIAN_POINT('',(0.145,0.005,-1.38777878078145E-17));
#1277=CARTESIAN_POINT('',(0.145,0.005,-0.085));
#1278=CARTESIAN_POINT('',(0.145,0.005,-0.085));
#1279=CARTESIAN_POINT('',(0.145,0.005,-1.38777878078145E-17));
#1280=CARTESIAN_POINT('',(0.145,0.005,0.085));
#1281=CARTESIAN_POINT('',(0.145,0.,0.085));
#1282=CARTESIAN_POINT('',(0.0725,0.005,-0.095));
#1283=CARTESIAN_POINT('',(0.0725,0.005,-0.095));
#1284=CARTESIAN_POINT('',(5.81707229594993E-18,0.005,-0.095));
#1285=CARTESIAN_POINT('',(0.135,0.005,-0.095));
#1286=CARTESIAN_POINT('',(0.135,0.005,-0.095));
#1287=CARTESIAN_POINT('',(5.81707229594993E-18,0.005,-0.095));
#1288=CARTESIAN_POINT('',(-5.81707229594993E-18,0.005,0.));
#1289=CARTESIAN_POINT('',(-1.74512168878498E-17,0.005,0.095));
#1290=CARTESIAN_POINT('',(-1.74512168878498E-17,0.005,0.095));
#1291=CARTESIAN_POINT('',(-5.81707229594993E-18,0.005,0.));
#1292=CARTESIAN_POINT('',(0.0725,0.005,0.095));
#1293=CARTESIAN_POINT('',(0.135,0.005,0.095));
#1294=CARTESIAN_POINT('',(0.135,0.005,0.095));
#1295=CARTESIAN_POINT('',(0.0725,0.005,0.095));
#1296=CARTESIAN_POINT('',(0.025,0.005,-1.38777878078145E-17));
#1297=CARTESIAN_POINT('',(0.1025,0.005,-0.06));
#1298=CARTESIAN_POINT('',(0.1004,0.005,-0.06));
#1299=CARTESIAN_POINT('',(0.1375,0.005,-0.06));
#1300=CARTESIAN_POINT('',(0.1354,0.005,-0.06));
#1301=CARTESIAN_POINT('',(0.1375,0.005,0.06));
#1302=CARTESIAN_POINT('',(0.1354,0.005,0.06));
#1303=CARTESIAN_POINT('',(0.1025,0.005,0.06));
#1304=CARTESIAN_POINT('',(0.1004,0.005,0.06));
#1305=CARTESIAN_POINT('',(0.,0.005,-4.68427400673863E-18));
#1306=CARTESIAN_POINT('',(0.0815,0.005,-4.68427400673863E-18));
#1307=CARTESIAN_POINT('',(0.135,0.005,0.085));
#1308=CARTESIAN_POINT('',(0.1333,0.005,0.085));
#1309=CARTESIAN_POINT('',(0.135,0.005,0.));
#1310=CARTESIAN_POINT('',(0.1333,0.005,0.));
#1311=CARTESIAN_POINT('',(0.135,0.005,-0.085));
#1312=CARTESIAN_POINT('',(0.1333,0.005,-0.085));
#1313=CARTESIAN_POINT('',(0.135,0.005,-0.085));
#1314=CARTESIAN_POINT('',(0.135,0.005,0.085));
#1315=CARTESIAN_POINT('',(0.,0.005,-0.092));
#1316=CARTESIAN_POINT('',(-0.0017,0.005,-0.092));
#1317=CARTESIAN_POINT('',(0.,0.005,0.092));
#1318=CARTESIAN_POINT('',(-0.0017,0.005,0.092));
#1319=CARTESIAN_POINT('',(-0.092,0.005,0.));
#1320=CARTESIAN_POINT('',(-0.0937,0.005,0.));
#1321=CARTESIAN_POINT('',(0.,0.016,-4.56180932682389E-18));
#1322=CARTESIAN_POINT('',(0.,0.016,-4.56180932682389E-18));
#1323=CARTESIAN_POINT('',(0.0745,0.016,-4.56180932682389E-18));
#1324=CARTESIAN_POINT('',(0.,0.005,-4.56180932682389E-18));
#1325=CARTESIAN_POINT('',(-0.0736971326827623,0.005,0.0109079161318436));
#1326=CARTESIAN_POINT('',(-0.0736971326827623,0.005,-0.0109079161318436));
#1327=CARTESIAN_POINT('',(-0.0736971326827623,0.016,0.0109079161318436));
#1328=CARTESIAN_POINT('',(-0.0736971326827623,0.016,-0.0109079161318436));
#1329=CARTESIAN_POINT('',(0.,0.016,-4.68427400673863E-18));
#1330=CARTESIAN_POINT('',(0.,0.01,-4.68427400673863E-18));
#1331=CARTESIAN_POINT('',(0.0765,0.01,-4.68427400673863E-18));
#1332=CARTESIAN_POINT('',(0.,0.016,-4.68427400673863E-18));
#1333=CARTESIAN_POINT('',(0.0765,0.016,-4.68427400673863E-18));
#1334=CARTESIAN_POINT('',(0.025,0.016,0.));
#1335=CARTESIAN_POINT('',(0.025,0.005,-1.38777878078145E-17));
#1336=CARTESIAN_POINT('',(0.064,0.005,-0.005));
#1337=CARTESIAN_POINT('',(0.064,0.005,0.005));
#1338=CARTESIAN_POINT('',(-0.0682704801627739,0.005,0.0100070744148476));
#1339=CARTESIAN_POINT('',(-0.06792318380744,0.005,0.011976689920872));
#1340=CARTESIAN_POINT('',(-0.0696751485256137,0.005,0.0122856085699353));
#1341=CARTESIAN_POINT('',(-0.0713713898124549,0.005,0.0125847016745971));
#1342=CARTESIAN_POINT('',(-0.0717186861677888,0.005,0.0106150861685727));
#1343=CARTESIAN_POINT('',(-0.0717186861677888,0.005,-0.0106150861685727));
#1344=CARTESIAN_POINT('',(-0.0713713898124549,0.005,-0.0125847016745971));
#1345=CARTESIAN_POINT('',(-0.0696751485256137,0.005,-0.0122856085699353));
#1346=CARTESIAN_POINT('',(-0.06792318380744,0.005,-0.011976689920872));
#1347=CARTESIAN_POINT('',(-0.0682704801627739,0.005,-0.0100070744148476));
#1348=CARTESIAN_POINT('',(0.135,0.005,-0.085));
#1349=CARTESIAN_POINT('',(0.135,0.005,0.085));
#1350=CARTESIAN_POINT('',(0.135,0.005,-0.085));
#1351=CARTESIAN_POINT('',(0.135,0.005,0.));
#1352=CARTESIAN_POINT('',(0.,0.005,-0.092));
#1353=CARTESIAN_POINT('',(-0.092,0.005,0.));
#1354=CARTESIAN_POINT('',(0.,0.005,0.092));
#1355=CARTESIAN_POINT('',(0.135,0.005,0.085));
#1356=CARTESIAN_POINT('',(0.,0.01,-4.68427400673863E-18));
#1357=CARTESIAN_POINT('',(-0.0696751485256137,-0.02,-0.0122856085699353));
#1358=CARTESIAN_POINT('',(-0.06792318380744,0.005,-0.011976689920872));
#1359=CARTESIAN_POINT('',(-0.0713713898124549,-0.02,-0.0125847016745971));
#1360=CARTESIAN_POINT('',(-0.0696751485256137,-0.02,0.0122856085699353));
#1361=CARTESIAN_POINT('',(-0.0713713898124549,0.005,0.0125847016745971));
#1362=CARTESIAN_POINT('',(-0.06792318380744,-0.02,0.011976689920872));
#1363=CARTESIAN_POINT('',(0.025,0.014,0.));
#1364=CARTESIAN_POINT('',(0.064,0.014,0.005));
#1365=CARTESIAN_POINT('',(0.064,0.014,-0.005));
#1366=CARTESIAN_POINT('',(0.,0.0125,0.));
#1367=CARTESIAN_POINT('',(0.0638043885637971,0.013,0.005));
#1368=CARTESIAN_POINT('',(0.0639365268598375,0.013,0.005));
#1369=CARTESIAN_POINT('',(0.0641963849298203,0.01289211935334,0.005));
#1370=CARTESIAN_POINT('',(0.0643604969870501,0.0125003819299136,0.005));
#1371=CARTESIAN_POINT('',(0.0641970839636215,0.0121077276755969,0.005));
#1372=CARTESIAN_POINT('',(0.0639350487469876,0.0120000000000003,0.005));
#1373=CARTESIAN_POINT('',(0.0638043885637981,0.012,0.005));
#1374=CARTESIAN_POINT('',(0.0638043885637971,0.013,-0.005));
#1375=CARTESIAN_POINT('',(0.0639365268598375,0.013,-0.005));
#1376=CARTESIAN_POINT('',(0.0641963849298203,0.01289211935334,-0.005));
#1377=CARTESIAN_POINT('',(0.0643604969870501,0.0125003819299136,-0.005));
#1378=CARTESIAN_POINT('',(0.0641970839636215,0.0121077276755969,-0.005));
#1379=CARTESIAN_POINT('',(0.0639350487469876,0.0120000000000003,-0.005));
#1380=CARTESIAN_POINT('',(0.0638043885637981,0.012,-0.005));
#1381=CARTESIAN_POINT('',(-0.03292,0.005,0.0274420917570071));
#1382=CARTESIAN_POINT('',(0.009,0.,-0.0234));
#1383=CARTESIAN_POINT('',(0.009,0.,0.0234));
#1384=CARTESIAN_POINT('',(-0.02292,0.,2.56304175475688E-18));
#1385=CARTESIAN_POINT('',(0.0468131723539603,-0.02,-8.67361737988404E-18));
#1386=CARTESIAN_POINT('',(-0.0717186861677888,0.016,0.0106150861685727));
#1387=CARTESIAN_POINT('',(-0.0682704801627739,0.016,0.0100070744148476));
#1388=CARTESIAN_POINT('',(-0.0682704801627739,0.016,-0.0100070744148476));
#1389=CARTESIAN_POINT('',(-0.0717186861677888,0.016,-0.0106150861685727));
#1390=CARTESIAN_POINT('',(0.1025,0.005,0.06));
#1391=CARTESIAN_POINT('',(0.1375,0.005,0.06));
#1392=CARTESIAN_POINT('',(0.1375,0.005,-0.06));
#1393=CARTESIAN_POINT('',(0.1025,0.005,-0.06));
#1394=CARTESIAN_POINT('',(0.064,0.004998,0.005));
#1395=CARTESIAN_POINT('',(0.064,0.004998,-0.005));
#1396=MECHANICAL_DESIGN_GEOMETRIC_PRESENTATION_REPRESENTATION('',(#805),
#1397);
#1397=(
GEOMETRIC_REPRESENTATION_CONTEXT(3)
GLOBAL_UNCERTAINTY_ASSIGNED_CONTEXT((#1398))
GLOBAL_UNIT_ASSIGNED_CONTEXT((#1401,#1400,#1399))
REPRESENTATION_CONTEXT('ARCADP003','TOP_LEVEL_ASSEMBLY_PART')
);
#1398=UNCERTAINTY_MEASURE_WITH_UNIT(LENGTH_MEASURE(2.E-5),#1401,
'DISTANCE_ACCURACY_VALUE','Maximum Tolerance applied to model');
#1399=(
NAMED_UNIT(*)
SI_UNIT($,.STERADIAN.)
SOLID_ANGLE_UNIT()
);
#1400=(
NAMED_UNIT(*)
PLANE_ANGLE_UNIT()
SI_UNIT($,.RADIAN.)
);
#1401=(
LENGTH_UNIT()
NAMED_UNIT(*)
SI_UNIT($,.METRE.)
);
#1402=PRODUCT_DEFINITION_SHAPE('','',#1403);
#1403=PRODUCT_DEFINITION('','',#1405,#1404);
#1404=PRODUCT_DEFINITION_CONTEXT('',#1411,'design');
#1405=PRODUCT_DEFINITION_FORMATION_WITH_SPECIFIED_SOURCE('','',#1407,
 .NOT_KNOWN.);
#1406=PRODUCT_RELATED_PRODUCT_CATEGORY('','',(#1407));
#1407=PRODUCT('ARCADP003','ARCADP003','ARCADP003',(#1409));
#1408=PRODUCT_CATEGORY('','');
#1409=PRODUCT_CONTEXT('',#1411,'mechanical');
#1410=APPLICATION_PROTOCOL_DEFINITION('international standard',
'ap242_managed_model_based_3d_engineering',2020,#1411);
#1411=APPLICATION_CONTEXT('managed model based 3d engineering');
ENDSEC;
END-ISO-10303-21;
