ISO-10303-21;
HEADER;
/* Generated by software containing ST-Developer
 * from STEP Tools, Inc. (www.steptools.com) 
 */
/* OPTION: using custom renumber hook */

FILE_DESCRIPTION(
/* description */ ('STEP AP242 Edition 2',
'CAx-IF Rec.Pracs.---Representation and Presentation of Product Manufa
cturing Information (PMI)---4.0---2014-10-13',
'CAx-IF Rec.Pracs.---3D Tessellated Geometry---0.4---2014-09-14','2;1',
'CAx-IF Rec.Pracs.---User Defined Attributes---1.5---2016-08-15'),
/* implementation_level */ '2;1');

FILE_NAME(
/* name */ 'ARCADA001 - lcd screen ',
/* time_stamp */ '2026-07-17T02:50:50Z',
/* author */ (''),
/* organization */ (''),
/* preprocessor_version */ 'ST-DEVELOPER v20',
/* originating_system */ 'ONSHAPE BY PTC INC, 1.217',
/* authorisation */ '  ');

FILE_SCHEMA (('AP242_MANAGED_MODEL_BASED_3D_ENGINEERING_MIM_LF { 1 0 10303 442 3 1 4 }'));
ENDSEC;

DATA;
#10=SHAPE_REPRESENTATION_RELATIONSHIP('','',#331,#11);
#11=ADVANCED_BREP_SHAPE_REPRESENTATION('',(#329),#517);
#12=ORIENTED_EDGE('',*,*,#96,.F.);
#13=ORIENTED_EDGE('',*,*,#97,.F.);
#14=ORIENTED_EDGE('',*,*,#98,.F.);
#15=ORIENTED_EDGE('',*,*,#99,.F.);
#16=ORIENTED_EDGE('',*,*,#96,.T.);
#17=ORIENTED_EDGE('',*,*,#100,.T.);
#18=ORIENTED_EDGE('',*,*,#101,.F.);
#19=ORIENTED_EDGE('',*,*,#102,.T.);
#20=ORIENTED_EDGE('',*,*,#103,.F.);
#21=ORIENTED_EDGE('',*,*,#104,.F.);
#22=ORIENTED_EDGE('',*,*,#105,.F.);
#23=ORIENTED_EDGE('',*,*,#106,.F.);
#24=ORIENTED_EDGE('',*,*,#99,.T.);
#25=ORIENTED_EDGE('',*,*,#107,.T.);
#26=ORIENTED_EDGE('',*,*,#108,.F.);
#27=ORIENTED_EDGE('',*,*,#100,.F.);
#28=ORIENTED_EDGE('',*,*,#98,.T.);
#29=ORIENTED_EDGE('',*,*,#109,.T.);
#30=ORIENTED_EDGE('',*,*,#110,.F.);
#31=ORIENTED_EDGE('',*,*,#107,.F.);
#32=ORIENTED_EDGE('',*,*,#97,.T.);
#33=ORIENTED_EDGE('',*,*,#106,.T.);
#34=ORIENTED_EDGE('',*,*,#111,.F.);
#35=ORIENTED_EDGE('',*,*,#109,.F.);
#36=ORIENTED_EDGE('',*,*,#112,.T.);
#37=ORIENTED_EDGE('',*,*,#113,.T.);
#38=ORIENTED_EDGE('',*,*,#114,.T.);
#39=ORIENTED_EDGE('',*,*,#115,.T.);
#40=ORIENTED_EDGE('',*,*,#116,.F.);
#41=ORIENTED_EDGE('',*,*,#117,.T.);
#42=ORIENTED_EDGE('',*,*,#113,.F.);
#43=ORIENTED_EDGE('',*,*,#118,.F.);
#44=ORIENTED_EDGE('',*,*,#119,.F.);
#45=ORIENTED_EDGE('',*,*,#102,.F.);
#46=ORIENTED_EDGE('',*,*,#120,.F.);
#47=ORIENTED_EDGE('',*,*,#121,.T.);
#48=ORIENTED_EDGE('',*,*,#114,.F.);
#49=ORIENTED_EDGE('',*,*,#117,.F.);
#50=ORIENTED_EDGE('',*,*,#122,.F.);
#51=ORIENTED_EDGE('',*,*,#104,.T.);
#52=ORIENTED_EDGE('',*,*,#123,.F.);
#53=ORIENTED_EDGE('',*,*,#124,.T.);
#54=ORIENTED_EDGE('',*,*,#115,.F.);
#55=ORIENTED_EDGE('',*,*,#121,.F.);
#56=ORIENTED_EDGE('',*,*,#125,.T.);
#57=ORIENTED_EDGE('',*,*,#118,.T.);
#58=ORIENTED_EDGE('',*,*,#112,.F.);
#59=ORIENTED_EDGE('',*,*,#124,.F.);
#60=ORIENTED_EDGE('',*,*,#126,.T.);
#61=ORIENTED_EDGE('',*,*,#127,.T.);
#62=ORIENTED_EDGE('',*,*,#128,.T.);
#63=ORIENTED_EDGE('',*,*,#129,.T.);
#64=ORIENTED_EDGE('',*,*,#122,.T.);
#65=ORIENTED_EDGE('',*,*,#120,.T.);
#66=ORIENTED_EDGE('',*,*,#116,.T.);
#67=ORIENTED_EDGE('',*,*,#101,.T.);
#68=ORIENTED_EDGE('',*,*,#108,.T.);
#69=ORIENTED_EDGE('',*,*,#110,.T.);
#70=ORIENTED_EDGE('',*,*,#111,.T.);
#71=ORIENTED_EDGE('',*,*,#105,.T.);
#72=ORIENTED_EDGE('',*,*,#123,.T.);
#73=ORIENTED_EDGE('',*,*,#103,.T.);
#74=ORIENTED_EDGE('',*,*,#119,.T.);
#75=ORIENTED_EDGE('',*,*,#125,.F.);
#76=ORIENTED_EDGE('',*,*,#130,.T.);
#77=ORIENTED_EDGE('',*,*,#131,.T.);
#78=ORIENTED_EDGE('',*,*,#132,.T.);
#79=ORIENTED_EDGE('',*,*,#133,.T.);
#80=ORIENTED_EDGE('',*,*,#129,.F.);
#81=ORIENTED_EDGE('',*,*,#134,.T.);
#82=ORIENTED_EDGE('',*,*,#130,.F.);
#83=ORIENTED_EDGE('',*,*,#135,.F.);
#84=ORIENTED_EDGE('',*,*,#128,.F.);
#85=ORIENTED_EDGE('',*,*,#136,.T.);
#86=ORIENTED_EDGE('',*,*,#131,.F.);
#87=ORIENTED_EDGE('',*,*,#134,.F.);
#88=ORIENTED_EDGE('',*,*,#127,.F.);
#89=ORIENTED_EDGE('',*,*,#137,.T.);
#90=ORIENTED_EDGE('',*,*,#132,.F.);
#91=ORIENTED_EDGE('',*,*,#136,.F.);
#92=ORIENTED_EDGE('',*,*,#126,.F.);
#93=ORIENTED_EDGE('',*,*,#135,.T.);
#94=ORIENTED_EDGE('',*,*,#133,.F.);
#95=ORIENTED_EDGE('',*,*,#137,.F.);
#96=EDGE_CURVE('',#138,#139,#166,.T.);
#97=EDGE_CURVE('',#140,#138,#167,.T.);
#98=EDGE_CURVE('',#141,#140,#168,.T.);
#99=EDGE_CURVE('',#139,#141,#169,.T.);
#100=EDGE_CURVE('',#139,#142,#170,.T.);
#101=EDGE_CURVE('',#143,#142,#171,.T.);
#102=EDGE_CURVE('',#143,#144,#172,.T.);
#103=EDGE_CURVE('',#145,#144,#173,.T.);
#104=EDGE_CURVE('',#146,#145,#174,.T.);
#105=EDGE_CURVE('',#147,#146,#175,.T.);
#106=EDGE_CURVE('',#138,#147,#176,.T.);
#107=EDGE_CURVE('',#141,#148,#177,.T.);
#108=EDGE_CURVE('',#142,#148,#178,.T.);
#109=EDGE_CURVE('',#140,#149,#179,.T.);
#110=EDGE_CURVE('',#148,#149,#180,.T.);
#111=EDGE_CURVE('',#149,#147,#181,.T.);
#112=EDGE_CURVE('',#150,#151,#182,.T.);
#113=EDGE_CURVE('',#151,#152,#183,.T.);
#114=EDGE_CURVE('',#152,#153,#184,.T.);
#115=EDGE_CURVE('',#153,#150,#185,.T.);
#116=EDGE_CURVE('',#154,#143,#186,.T.);
#117=EDGE_CURVE('',#154,#152,#187,.T.);
#118=EDGE_CURVE('',#155,#151,#188,.T.);
#119=EDGE_CURVE('',#144,#155,#189,.T.);
#120=EDGE_CURVE('',#156,#154,#190,.T.);
#121=EDGE_CURVE('',#156,#153,#191,.T.);
#122=EDGE_CURVE('',#146,#156,#192,.T.);
#123=EDGE_CURVE('',#157,#145,#193,.T.);
#124=EDGE_CURVE('',#157,#150,#194,.T.);
#125=EDGE_CURVE('',#157,#155,#195,.T.);
#126=EDGE_CURVE('',#158,#159,#196,.T.);
#127=EDGE_CURVE('',#159,#160,#197,.T.);
#128=EDGE_CURVE('',#160,#161,#198,.T.);
#129=EDGE_CURVE('',#161,#158,#199,.T.);
#130=EDGE_CURVE('',#162,#163,#200,.T.);
#131=EDGE_CURVE('',#163,#164,#201,.T.);
#132=EDGE_CURVE('',#164,#165,#202,.T.);
#133=EDGE_CURVE('',#165,#162,#203,.T.);
#134=EDGE_CURVE('',#161,#163,#204,.T.);
#135=EDGE_CURVE('',#158,#162,#205,.T.);
#136=EDGE_CURVE('',#160,#164,#206,.T.);
#137=EDGE_CURVE('',#159,#165,#207,.T.);
#138=VERTEX_POINT('',#431);
#139=VERTEX_POINT('',#432);
#140=VERTEX_POINT('',#434);
#141=VERTEX_POINT('',#436);
#142=VERTEX_POINT('',#440);
#143=VERTEX_POINT('',#442);
#144=VERTEX_POINT('',#444);
#145=VERTEX_POINT('',#446);
#146=VERTEX_POINT('',#448);
#147=VERTEX_POINT('',#450);
#148=VERTEX_POINT('',#454);
#149=VERTEX_POINT('',#458);
#150=VERTEX_POINT('',#464);
#151=VERTEX_POINT('',#465);
#152=VERTEX_POINT('',#467);
#153=VERTEX_POINT('',#469);
#154=VERTEX_POINT('',#473);
#155=VERTEX_POINT('',#476);
#156=VERTEX_POINT('',#480);
#157=VERTEX_POINT('',#485);
#158=VERTEX_POINT('',#491);
#159=VERTEX_POINT('',#492);
#160=VERTEX_POINT('',#494);
#161=VERTEX_POINT('',#496);
#162=VERTEX_POINT('',#501);
#163=VERTEX_POINT('',#502);
#164=VERTEX_POINT('',#504);
#165=VERTEX_POINT('',#506);
#166=LINE('',#430,#208);
#167=LINE('',#433,#209);
#168=LINE('',#435,#210);
#169=LINE('',#437,#211);
#170=LINE('',#439,#212);
#171=LINE('',#441,#213);
#172=LINE('',#443,#214);
#173=LINE('',#445,#215);
#174=LINE('',#447,#216);
#175=LINE('',#449,#217);
#176=LINE('',#451,#218);
#177=LINE('',#453,#219);
#178=LINE('',#455,#220);
#179=LINE('',#457,#221);
#180=LINE('',#459,#222);
#181=LINE('',#461,#223);
#182=LINE('',#463,#224);
#183=LINE('',#466,#225);
#184=LINE('',#468,#226);
#185=LINE('',#470,#227);
#186=LINE('',#472,#228);
#187=LINE('',#474,#229);
#188=LINE('',#475,#230);
#189=LINE('',#477,#231);
#190=LINE('',#479,#232);
#191=LINE('',#481,#233);
#192=LINE('',#483,#234);
#193=LINE('',#484,#235);
#194=LINE('',#486,#236);
#195=LINE('',#488,#237);
#196=LINE('',#490,#238);
#197=LINE('',#493,#239);
#198=LINE('',#495,#240);
#199=LINE('',#497,#241);
#200=LINE('',#500,#242);
#201=LINE('',#503,#243);
#202=LINE('',#505,#244);
#203=LINE('',#507,#245);
#204=LINE('',#509,#246);
#205=LINE('',#510,#247);
#206=LINE('',#512,#248);
#207=LINE('',#514,#249);
#208=VECTOR('',#354,1.);
#209=VECTOR('',#355,1.);
#210=VECTOR('',#356,1.);
#211=VECTOR('',#357,1.);
#212=VECTOR('',#360,1.);
#213=VECTOR('',#361,1.);
#214=VECTOR('',#362,1.);
#215=VECTOR('',#363,1.);
#216=VECTOR('',#364,1.);
#217=VECTOR('',#365,1.);
#218=VECTOR('',#366,1.);
#219=VECTOR('',#369,1.);
#220=VECTOR('',#370,1.);
#221=VECTOR('',#373,1.);
#222=VECTOR('',#374,1.);
#223=VECTOR('',#377,1.);
#224=VECTOR('',#380,1.);
#225=VECTOR('',#381,1.);
#226=VECTOR('',#382,1.);
#227=VECTOR('',#383,1.);
#228=VECTOR('',#386,1.);
#229=VECTOR('',#387,1.);
#230=VECTOR('',#388,1.);
#231=VECTOR('',#389,1.);
#232=VECTOR('',#392,1.);
#233=VECTOR('',#393,1.);
#234=VECTOR('',#396,1.);
#235=VECTOR('',#397,1.);
#236=VECTOR('',#398,1.);
#237=VECTOR('',#401,1.);
#238=VECTOR('',#404,1.);
#239=VECTOR('',#405,1.);
#240=VECTOR('',#406,1.);
#241=VECTOR('',#407,1.);
#242=VECTOR('',#412,1.);
#243=VECTOR('',#413,1.);
#244=VECTOR('',#414,1.);
#245=VECTOR('',#415,1.);
#246=VECTOR('',#418,1.);
#247=VECTOR('',#419,1.);
#248=VECTOR('',#422,1.);
#249=VECTOR('',#425,1.);
#250=EDGE_LOOP('',(#12,#13,#14,#15));
#251=EDGE_LOOP('',(#16,#17,#18,#19,#20,#21,#22,#23));
#252=EDGE_LOOP('',(#24,#25,#26,#27));
#253=EDGE_LOOP('',(#28,#29,#30,#31));
#254=EDGE_LOOP('',(#32,#33,#34,#35));
#255=EDGE_LOOP('',(#36,#37,#38,#39));
#256=EDGE_LOOP('',(#40,#41,#42,#43,#44,#45));
#257=EDGE_LOOP('',(#46,#47,#48,#49));
#258=EDGE_LOOP('',(#50,#51,#52,#53,#54,#55));
#259=EDGE_LOOP('',(#56,#57,#58,#59));
#260=EDGE_LOOP('',(#60,#61,#62,#63));
#261=EDGE_LOOP('',(#64,#65,#66,#67,#68,#69,#70,#71));
#262=EDGE_LOOP('',(#72,#73,#74,#75));
#263=EDGE_LOOP('',(#76,#77,#78,#79));
#264=EDGE_LOOP('',(#80,#81,#82,#83));
#265=EDGE_LOOP('',(#84,#85,#86,#87));
#266=EDGE_LOOP('',(#88,#89,#90,#91));
#267=EDGE_LOOP('',(#92,#93,#94,#95));
#268=FACE_BOUND('',#250,.T.);
#269=FACE_BOUND('',#251,.T.);
#270=FACE_BOUND('',#252,.T.);
#271=FACE_BOUND('',#253,.T.);
#272=FACE_BOUND('',#254,.T.);
#273=FACE_BOUND('',#255,.T.);
#274=FACE_BOUND('',#256,.T.);
#275=FACE_BOUND('',#257,.T.);
#276=FACE_BOUND('',#258,.T.);
#277=FACE_BOUND('',#259,.T.);
#278=FACE_BOUND('',#260,.T.);
#279=FACE_BOUND('',#261,.T.);
#280=FACE_BOUND('',#262,.T.);
#281=FACE_BOUND('',#263,.T.);
#282=FACE_BOUND('',#264,.T.);
#283=FACE_BOUND('',#265,.T.);
#284=FACE_BOUND('',#266,.T.);
#285=FACE_BOUND('',#267,.T.);
#286=PLANE('',#333);
#287=PLANE('',#334);
#288=PLANE('',#335);
#289=PLANE('',#336);
#290=PLANE('',#337);
#291=PLANE('',#338);
#292=PLANE('',#339);
#293=PLANE('',#340);
#294=PLANE('',#341);
#295=PLANE('',#342);
#296=PLANE('',#343);
#297=PLANE('',#344);
#298=PLANE('',#345);
#299=PLANE('',#346);
#300=PLANE('',#347);
#301=PLANE('',#348);
#302=PLANE('',#349);
#303=ADVANCED_FACE('',(#268),#286,.F.);
#304=ADVANCED_FACE('',(#269),#287,.T.);
#305=ADVANCED_FACE('',(#270),#288,.T.);
#306=ADVANCED_FACE('',(#271),#289,.T.);
#307=ADVANCED_FACE('',(#272),#290,.T.);
#308=ADVANCED_FACE('',(#273),#291,.T.);
#309=ADVANCED_FACE('',(#274),#292,.T.);
#310=ADVANCED_FACE('',(#275),#293,.T.);
#311=ADVANCED_FACE('',(#276),#294,.T.);
#312=ADVANCED_FACE('',(#277),#295,.T.);
#313=ADVANCED_FACE('',(#278,#279),#296,.T.);
#314=ADVANCED_FACE('',(#280),#297,.T.);
#315=ADVANCED_FACE('',(#281),#298,.T.);
#316=ADVANCED_FACE('',(#282),#299,.T.);
#317=ADVANCED_FACE('',(#283),#300,.T.);
#318=ADVANCED_FACE('',(#284),#301,.T.);
#319=ADVANCED_FACE('',(#285),#302,.T.);
#320=CLOSED_SHELL('',(#303,#304,#305,#306,#307,#308,#309,#310,#311,#312,
#313,#314,#315,#316,#317,#318,#319));
#321=STYLED_ITEM('',(#322),#329);
#322=PRESENTATION_STYLE_ASSIGNMENT((#323));
#323=SURFACE_STYLE_USAGE(.BOTH.,#324);
#324=SURFACE_SIDE_STYLE('',(#325));
#325=SURFACE_STYLE_FILL_AREA(#326);
#326=FILL_AREA_STYLE('',(#327));
#327=FILL_AREA_STYLE_COLOUR('',#328);
#328=COLOUR_RGB('',0.627450980392157,0.627450980392157,0.627450980392157);
#329=MANIFOLD_SOLID_BREP('lcd screen ',#320);
#330=SHAPE_DEFINITION_REPRESENTATION(#522,#331);
#331=SHAPE_REPRESENTATION('lcd screen ',(#332),#517);
#332=AXIS2_PLACEMENT_3D('',#428,#350,#351);
#333=AXIS2_PLACEMENT_3D('',#429,#352,#353);
#334=AXIS2_PLACEMENT_3D('',#438,#358,#359);
#335=AXIS2_PLACEMENT_3D('',#452,#367,#368);
#336=AXIS2_PLACEMENT_3D('',#456,#371,#372);
#337=AXIS2_PLACEMENT_3D('',#460,#375,#376);
#338=AXIS2_PLACEMENT_3D('',#462,#378,#379);
#339=AXIS2_PLACEMENT_3D('',#471,#384,#385);
#340=AXIS2_PLACEMENT_3D('',#478,#390,#391);
#341=AXIS2_PLACEMENT_3D('',#482,#394,#395);
#342=AXIS2_PLACEMENT_3D('',#487,#399,#400);
#343=AXIS2_PLACEMENT_3D('',#489,#402,#403);
#344=AXIS2_PLACEMENT_3D('',#498,#408,#409);
#345=AXIS2_PLACEMENT_3D('',#499,#410,#411);
#346=AXIS2_PLACEMENT_3D('',#508,#416,#417);
#347=AXIS2_PLACEMENT_3D('',#511,#420,#421);
#348=AXIS2_PLACEMENT_3D('',#513,#423,#424);
#349=AXIS2_PLACEMENT_3D('',#515,#426,#427);
#350=DIRECTION('',(0.,0.,1.));
#351=DIRECTION('',(1.,0.,0.));
#352=DIRECTION('',(1.,0.,0.));
#353=DIRECTION('',(0.,0.,-1.));
#354=DIRECTION('',(0.,1.,0.));
#355=DIRECTION('',(0.,0.,-1.));
#356=DIRECTION('',(0.,-1.,1.83507937954571E-16));
#357=DIRECTION('',(0.,0.,1.));
#358=DIRECTION('',(0.,0.,-1.));
#359=DIRECTION('',(0.,1.,0.));
#360=DIRECTION('',(1.,0.,0.));
#361=DIRECTION('',(0.,1.,0.));
#362=DIRECTION('',(1.,0.,0.));
#363=DIRECTION('',(0.,1.,0.));
#364=DIRECTION('',(1.,0.,0.));
#365=DIRECTION('',(0.,1.,0.));
#366=DIRECTION('',(1.,0.,0.));
#367=DIRECTION('',(0.,1.,0.));
#368=DIRECTION('',(0.,0.,1.));
#369=DIRECTION('',(1.,0.,0.));
#370=DIRECTION('',(0.,0.,1.));
#371=DIRECTION('',(0.,1.83507937954571E-16,1.));
#372=DIRECTION('',(0.,-1.,1.83507937954571E-16));
#373=DIRECTION('',(1.,0.,0.));
#374=DIRECTION('',(0.,-1.,1.83507937954571E-16));
#375=DIRECTION('',(0.,-1.,0.));
#376=DIRECTION('',(0.,0.,-1.));
#377=DIRECTION('',(0.,0.,-1.));
#378=DIRECTION('',(1.,0.,0.));
#379=DIRECTION('',(0.,-1.,0.));
#380=DIRECTION('',(0.,1.,0.));
#381=DIRECTION('',(0.,0.,1.));
#382=DIRECTION('',(0.,-1.,0.));
#383=DIRECTION('',(0.,-4.11193712824132E-17,-1.));
#384=DIRECTION('',(0.,1.,0.));
#385=DIRECTION('',(0.,0.,1.));
#386=DIRECTION('',(0.,0.,-1.));
#387=DIRECTION('',(1.,0.,0.));
#388=DIRECTION('',(1.,0.,0.));
#389=DIRECTION('',(0.,0.,1.));
#390=DIRECTION('',(0.,0.,1.));
#391=DIRECTION('',(0.,-1.,0.));
#392=DIRECTION('',(0.,1.,0.));
#393=DIRECTION('',(1.,0.,0.));
#394=DIRECTION('',(0.,-1.,4.11193712824132E-17));
#395=DIRECTION('',(0.,-4.11193712824132E-17,-1.));
#396=DIRECTION('',(0.,4.11193712824132E-17,1.));
#397=DIRECTION('',(0.,-4.11193712824132E-17,-1.));
#398=DIRECTION('',(1.,0.,0.));
#399=DIRECTION('',(0.,0.,-1.));
#400=DIRECTION('',(0.,1.,0.));
#401=DIRECTION('',(0.,1.,0.));
#402=DIRECTION('',(1.,0.,0.));
#403=DIRECTION('',(0.,-1.,0.));
#404=DIRECTION('',(0.,1.,0.));
#405=DIRECTION('',(0.,0.,-1.));
#406=DIRECTION('',(0.,-1.,0.));
#407=DIRECTION('',(0.,0.,1.));
#408=DIRECTION('',(1.,0.,0.));
#409=DIRECTION('',(0.,-1.,0.));
#410=DIRECTION('',(1.,0.,0.));
#411=DIRECTION('',(0.,-1.,0.));
#412=DIRECTION('',(0.,0.,-1.));
#413=DIRECTION('',(0.,1.,0.));
#414=DIRECTION('',(0.,0.,1.));
#415=DIRECTION('',(0.,-1.,0.));
#416=DIRECTION('',(0.,-1.,0.));
#417=DIRECTION('',(0.,0.,-1.));
#418=DIRECTION('',(1.,0.,0.));
#419=DIRECTION('',(1.,0.,0.));
#420=DIRECTION('',(0.,0.,-1.));
#421=DIRECTION('',(0.,1.,0.));
#422=DIRECTION('',(1.,0.,0.));
#423=DIRECTION('',(0.,1.,0.));
#424=DIRECTION('',(0.,0.,1.));
#425=DIRECTION('',(1.,0.,0.));
#426=DIRECTION('',(0.,0.,1.));
#427=DIRECTION('',(0.,-1.,0.));
#428=CARTESIAN_POINT('',(0.,0.,0.));
#429=CARTESIAN_POINT('',(0.,-4.13002965160558E-16,4.38760139331862E-15));
#430=CARTESIAN_POINT('',(0.,-0.00605000000000041,-0.0189999999999956));
#431=CARTESIAN_POINT('',(0.,-0.00605000000000041,-0.0189999999999956));
#432=CARTESIAN_POINT('',(0.,0.00604999999999959,-0.0189999999999956));
#433=CARTESIAN_POINT('',(0.,-0.00605000000000041,0.0190000000000044));
#434=CARTESIAN_POINT('',(0.,-0.00605000000000041,0.0190000000000044));
#435=CARTESIAN_POINT('',(0.,0.00604999999999959,0.0190000000000044));
#436=CARTESIAN_POINT('',(0.,0.00604999999999959,0.0190000000000044));
#437=CARTESIAN_POINT('',(0.,0.00604999999999959,-0.0189999999999956));
#438=CARTESIAN_POINT('',(0.,-0.00605000000000041,-0.0189999999999956));
#439=CARTESIAN_POINT('',(0.,0.00604999999999959,-0.0189999999999956));
#440=CARTESIAN_POINT('',(0.00125,0.00604999999999959,-0.0189999999999956));
#441=CARTESIAN_POINT('',(0.00125,-0.00605000000000041,-0.0189999999999956));
#442=CARTESIAN_POINT('',(0.00125,0.00587499999999959,-0.0189999999999956));
#443=CARTESIAN_POINT('',(0.00125,0.00587499999999959,-0.0189999999999956));
#444=CARTESIAN_POINT('',(0.00275,0.00587499999999959,-0.0189999999999956));
#445=CARTESIAN_POINT('',(0.00275,-3.86912724081867E-16,-0.0189999999999956));
#446=CARTESIAN_POINT('',(0.00275,-0.00587500000000041,-0.0189999999999956));
#447=CARTESIAN_POINT('',(0.00125,-0.00587500000000041,-0.0189999999999956));
#448=CARTESIAN_POINT('',(0.00125,-0.00587500000000041,-0.0189999999999956));
#449=CARTESIAN_POINT('',(0.00125,-0.00605000000000041,-0.0189999999999956));
#450=CARTESIAN_POINT('',(0.00125,-0.00605000000000041,-0.0189999999999956));
#451=CARTESIAN_POINT('',(0.,-0.00605000000000041,-0.0189999999999956));
#452=CARTESIAN_POINT('',(0.,0.00604999999999959,-0.0189999999999956));
#453=CARTESIAN_POINT('',(0.,0.00604999999999959,0.0190000000000044));
#454=CARTESIAN_POINT('',(0.00125,0.00604999999999959,0.0190000000000044));
#455=CARTESIAN_POINT('',(0.00125,0.00604999999999959,-0.0189999999999956));
#456=CARTESIAN_POINT('',(0.,0.00604999999999959,0.0190000000000044));
#457=CARTESIAN_POINT('',(0.,-0.00605000000000041,0.0190000000000044));
#458=CARTESIAN_POINT('',(0.00125,-0.00605000000000041,0.0190000000000044));
#459=CARTESIAN_POINT('',(0.00125,0.00604999999999959,0.0190000000000044));
#460=CARTESIAN_POINT('',(0.,-0.00605000000000041,0.0190000000000044));
#461=CARTESIAN_POINT('',(0.00125,-0.00605000000000041,0.0190000000000044));
#462=CARTESIAN_POINT('',(0.00325,-4.11892742135933E-16,0.000500000000004386));
#463=CARTESIAN_POINT('',(0.00325,-0.00587500000000041,-0.0129999999999956));
#464=CARTESIAN_POINT('',(0.00325,-0.00587500000000041,-0.0129999999999956));
#465=CARTESIAN_POINT('',(0.00325,0.00587499999999959,-0.0129999999999956));
#466=CARTESIAN_POINT('',(0.00325,0.00587499999999959,-0.0129999999999956));
#467=CARTESIAN_POINT('',(0.00325,0.00587499999999959,0.0140000000000044));
#468=CARTESIAN_POINT('',(0.00325,0.00587499999999959,0.0140000000000044));
#469=CARTESIAN_POINT('',(0.00325,-0.00587500000000041,0.0140000000000044));
#470=CARTESIAN_POINT('',(0.00325,-0.00587500000000041,0.0140000000000044));
#471=CARTESIAN_POINT('',(0.00125,0.00587499999999959,-0.0129999999999956));
#472=CARTESIAN_POINT('',(0.00125,0.00587499999999959,-0.00649999999999561));
#473=CARTESIAN_POINT('',(0.00125,0.00587499999999959,0.0140000000000044));
#474=CARTESIAN_POINT('',(0.00125,0.00587499999999959,0.0140000000000044));
#475=CARTESIAN_POINT('',(0.00125,0.00587499999999959,-0.0129999999999956));
#476=CARTESIAN_POINT('',(0.00275,0.00587499999999959,-0.0129999999999956));
#477=CARTESIAN_POINT('',(0.00275,0.00587499999999959,0.0178000000000044));
#478=CARTESIAN_POINT('',(0.00125,0.00587499999999959,0.0140000000000044));
#479=CARTESIAN_POINT('',(0.00125,0.00293749999999959,0.0140000000000044));
#480=CARTESIAN_POINT('',(0.00125,-0.00587500000000041,0.0140000000000044));
#481=CARTESIAN_POINT('',(0.00125,-0.00587500000000041,0.0140000000000044));
#482=CARTESIAN_POINT('',(0.00125,-0.00587500000000041,0.0140000000000044));
#483=CARTESIAN_POINT('',(0.00125,-0.00587500000000041,0.00700000000000439));
#484=CARTESIAN_POINT('',(0.00275,-0.00587500000000041,0.0178000000000044));
#485=CARTESIAN_POINT('',(0.00275,-0.00587500000000041,-0.0129999999999956));
#486=CARTESIAN_POINT('',(0.00125,-0.00587500000000041,-0.0129999999999956));
#487=CARTESIAN_POINT('',(0.00125,-0.00587500000000041,-0.0129999999999956));
#488=CARTESIAN_POINT('',(0.00275,-0.00587500000000041,-0.0129999999999956));
#489=CARTESIAN_POINT('',(0.00125,-4.13002965160558E-16,4.38760139331862E-15));
#490=CARTESIAN_POINT('',(0.00125,0.0024374999999996,0.0185500000000044));
#491=CARTESIAN_POINT('',(0.00125,-0.00487500000000039,0.0185500000000044));
#492=CARTESIAN_POINT('',(0.00125,0.00487499999999961,0.0185500000000044));
#493=CARTESIAN_POINT('',(0.00125,0.00487499999999961,0.00852500000000439));
#494=CARTESIAN_POINT('',(0.00125,0.00487499999999961,0.0170500000000044));
#495=CARTESIAN_POINT('',(0.00125,-0.0024375000000004,0.0170500000000044));
#496=CARTESIAN_POINT('',(0.00125,-0.00487500000000039,0.0170500000000044));
#497=CARTESIAN_POINT('',(0.00125,-0.00487500000000039,0.00927500000000439));
#498=CARTESIAN_POINT('',(0.00275,-3.86912724081867E-16,0.0178000000000044));
#499=CARTESIAN_POINT('',(0.00275,-3.86912724081867E-16,0.0178000000000044));
#500=CARTESIAN_POINT('',(0.00275,-0.00487500000000039,0.0170500000000044));
#501=CARTESIAN_POINT('',(0.00275,-0.00487500000000039,0.0185500000000044));
#502=CARTESIAN_POINT('',(0.00275,-0.00487500000000039,0.0170500000000044));
#503=CARTESIAN_POINT('',(0.00275,0.00487499999999961,0.0170500000000044));
#504=CARTESIAN_POINT('',(0.00275,0.00487499999999961,0.0170500000000044));
#505=CARTESIAN_POINT('',(0.00275,0.00487499999999961,0.0185500000000044));
#506=CARTESIAN_POINT('',(0.00275,0.00487499999999961,0.0185500000000044));
#507=CARTESIAN_POINT('',(0.00275,-0.00487500000000039,0.0185500000000044));
#508=CARTESIAN_POINT('',(0.00125,-0.00487500000000039,0.0185500000000044));
#509=CARTESIAN_POINT('',(0.00125,-0.00487500000000039,0.0170500000000044));
#510=CARTESIAN_POINT('',(0.00125,-0.00487500000000039,0.0185500000000044));
#511=CARTESIAN_POINT('',(0.00125,-0.00487500000000039,0.0170500000000044));
#512=CARTESIAN_POINT('',(0.00125,0.00487499999999961,0.0170500000000044));
#513=CARTESIAN_POINT('',(0.00125,0.00487499999999961,0.0170500000000044));
#514=CARTESIAN_POINT('',(0.00125,0.00487499999999961,0.0185500000000044));
#515=CARTESIAN_POINT('',(0.00125,0.00487499999999961,0.0185500000000044));
#516=MECHANICAL_DESIGN_GEOMETRIC_PRESENTATION_REPRESENTATION('',(#321),
#517);
#517=(
GEOMETRIC_REPRESENTATION_CONTEXT(3)
GLOBAL_UNCERTAINTY_ASSIGNED_CONTEXT((#518))
GLOBAL_UNIT_ASSIGNED_CONTEXT((#521,#520,#519))
REPRESENTATION_CONTEXT('lcd screen ','TOP_LEVEL_ASSEMBLY_PART')
);
#518=UNCERTAINTY_MEASURE_WITH_UNIT(LENGTH_MEASURE(1.E-6),#521,
'DISTANCE_ACCURACY_VALUE','Maximum Tolerance applied to model');
#519=(
NAMED_UNIT(*)
SI_UNIT($,.STERADIAN.)
SOLID_ANGLE_UNIT()
);
#520=(
NAMED_UNIT(*)
PLANE_ANGLE_UNIT()
SI_UNIT($,.RADIAN.)
);
#521=(
LENGTH_UNIT()
NAMED_UNIT(*)
SI_UNIT($,.METRE.)
);
#522=PRODUCT_DEFINITION_SHAPE('','',#523);
#523=PRODUCT_DEFINITION('','',#525,#524);
#524=PRODUCT_DEFINITION_CONTEXT('',#531,'design');
#525=PRODUCT_DEFINITION_FORMATION_WITH_SPECIFIED_SOURCE('','',#527,
 .NOT_KNOWN.);
#526=PRODUCT_RELATED_PRODUCT_CATEGORY('','',(#527));
#527=PRODUCT('lcd screen ','lcd screen ','lcd screen ',(#529));
#528=PRODUCT_CATEGORY('','');
#529=PRODUCT_CONTEXT('',#531,'mechanical');
#530=APPLICATION_PROTOCOL_DEFINITION('international standard',
'ap242_managed_model_based_3d_engineering',2020,#531);
#531=APPLICATION_CONTEXT('managed model based 3d engineering');
ENDSEC;
END-ISO-10303-21;
