ISO-10303-21;
HEADER;
/* Generated by software containing ST-Developer
 * from STEP Tools, Inc. (www.steptools.com) 
 */
/* OPTION: using custom renumber hook */

FILE_DESCRIPTION(
/* description */ ('STEP AP242 Edition 2',
'CAx-IF Rec.Pracs.---Representation and Presentation of Product Manufa
cturing Information (PMI)---4.0---2014-10-13',
'CAx-IF Rec.Pracs.---3D Tessellated Geometry---0.4---2014-09-14','2;1',
'CAx-IF Rec.Pracs.---User Defined Attributes---1.5---2016-08-15'),
/* implementation_level */ '2;1');

FILE_NAME(
/* name */ 'ARCADA001 - -------- v2',
/* time_stamp */ '2026-07-17T02:50:49Z',
/* author */ (''),
/* organization */ (''),
/* preprocessor_version */ 'ST-DEVELOPER v20',
/* originating_system */ 'ONSHAPE BY PTC INC, 1.217',
/* authorisation */ '  ');

FILE_SCHEMA (('AP242_MANAGED_MODEL_BASED_3D_ENGINEERING_MIM_LF { 1 0 10303 442 3 1 4 }'));
ENDSEC;

DATA;
#10=SHAPE_REPRESENTATION_RELATIONSHIP('','',#202,#11);
#11=ADVANCED_BREP_SHAPE_REPRESENTATION('',(#200),#345);
#12=CONICAL_SURFACE('',#211,0.003175,0.785398163408968);
#13=CONICAL_SURFACE('',#219,0.009499999999999,0.78539816341368);
#14=CONICAL_SURFACE('',#223,0.009500000000004,0.785398163395354);
#15=PLANE('',#207);
#16=PLANE('',#213);
#17=PLANE('',#225);
#18=ORIENTED_EDGE('',*,*,#52,.F.);
#19=ORIENTED_EDGE('',*,*,#53,.F.);
#20=ORIENTED_EDGE('',*,*,#52,.T.);
#21=ORIENTED_EDGE('',*,*,#54,.T.);
#22=ORIENTED_EDGE('',*,*,#55,.T.);
#23=ORIENTED_EDGE('',*,*,#54,.F.);
#24=ORIENTED_EDGE('',*,*,#55,.F.);
#25=ORIENTED_EDGE('',*,*,#56,.T.);
#26=ORIENTED_EDGE('',*,*,#57,.F.);
#27=ORIENTED_EDGE('',*,*,#58,.F.);
#28=ORIENTED_EDGE('',*,*,#59,.F.);
#29=ORIENTED_EDGE('',*,*,#60,.F.);
#30=ORIENTED_EDGE('',*,*,#61,.F.);
#31=ORIENTED_EDGE('',*,*,#56,.F.);
#32=ORIENTED_EDGE('',*,*,#62,.F.);
#33=ORIENTED_EDGE('',*,*,#57,.T.);
#34=ORIENTED_EDGE('',*,*,#63,.T.);
#35=ORIENTED_EDGE('',*,*,#62,.T.);
#36=ORIENTED_EDGE('',*,*,#63,.F.);
#37=ORIENTED_EDGE('',*,*,#64,.T.);
#38=ORIENTED_EDGE('',*,*,#64,.F.);
#39=ORIENTED_EDGE('',*,*,#53,.T.);
#40=ORIENTED_EDGE('',*,*,#65,.F.);
#41=ORIENTED_EDGE('',*,*,#66,.F.);
#42=ORIENTED_EDGE('',*,*,#67,.F.);
#43=ORIENTED_EDGE('',*,*,#68,.F.);
#44=ORIENTED_EDGE('',*,*,#59,.T.);
#45=ORIENTED_EDGE('',*,*,#65,.T.);
#46=ORIENTED_EDGE('',*,*,#58,.T.);
#47=ORIENTED_EDGE('',*,*,#66,.T.);
#48=ORIENTED_EDGE('',*,*,#61,.T.);
#49=ORIENTED_EDGE('',*,*,#67,.T.);
#50=ORIENTED_EDGE('',*,*,#60,.T.);
#51=ORIENTED_EDGE('',*,*,#68,.T.);
#52=EDGE_CURVE('',#69,#69,#86,.T.);
#53=EDGE_CURVE('',#70,#70,#87,.T.);
#54=EDGE_CURVE('',#71,#71,#88,.T.);
#55=EDGE_CURVE('',#72,#72,#89,.T.);
#56=EDGE_CURVE('',#73,#73,#90,.T.);
#57=EDGE_CURVE('',#74,#74,#91,.T.);
#58=EDGE_CURVE('',#75,#75,#92,.T.);
#59=EDGE_CURVE('',#76,#76,#93,.T.);
#60=EDGE_CURVE('',#77,#77,#94,.T.);
#61=EDGE_CURVE('',#78,#78,#95,.T.);
#62=EDGE_CURVE('',#79,#79,#96,.T.);
#63=EDGE_CURVE('',#80,#80,#97,.T.);
#64=EDGE_CURVE('',#81,#81,#98,.T.);
#65=EDGE_CURVE('',#82,#82,#99,.T.);
#66=EDGE_CURVE('',#83,#83,#100,.T.);
#67=EDGE_CURVE('',#84,#84,#101,.T.);
#68=EDGE_CURVE('',#85,#85,#102,.T.);
#69=VERTEX_POINT('',#299);
#70=VERTEX_POINT('',#301);
#71=VERTEX_POINT('',#304);
#72=VERTEX_POINT('',#307);
#73=VERTEX_POINT('',#310);
#74=VERTEX_POINT('',#313);
#75=VERTEX_POINT('',#315);
#76=VERTEX_POINT('',#317);
#77=VERTEX_POINT('',#319);
#78=VERTEX_POINT('',#321);
#79=VERTEX_POINT('',#324);
#80=VERTEX_POINT('',#327);
#81=VERTEX_POINT('',#330);
#82=VERTEX_POINT('',#333);
#83=VERTEX_POINT('',#335);
#84=VERTEX_POINT('',#337);
#85=VERTEX_POINT('',#339);
#86=CIRCLE('',#205,0.00446);
#87=CIRCLE('',#206,0.00446);
#88=CIRCLE('',#208,0.003025);
#89=CIRCLE('',#210,0.003024999999997);
#90=CIRCLE('',#212,0.003325000000003);
#91=CIRCLE('',#214,0.009399999999997);
#92=CIRCLE('',#215,0.00125);
#93=CIRCLE('',#216,0.00125);
#94=CIRCLE('',#217,0.00125);
#95=CIRCLE('',#218,0.00125);
#96=CIRCLE('',#220,0.009600000000002);
#97=CIRCLE('',#222,0.009600000000004);
#98=CIRCLE('',#224,0.009400000000004);
#99=CIRCLE('',#226,0.00125);
#100=CIRCLE('',#227,0.00125);
#101=CIRCLE('',#228,0.00125);
#102=CIRCLE('',#229,0.00125);
#103=EDGE_LOOP('',(#18));
#104=EDGE_LOOP('',(#19));
#105=EDGE_LOOP('',(#20));
#106=EDGE_LOOP('',(#21));
#107=EDGE_LOOP('',(#22));
#108=EDGE_LOOP('',(#23));
#109=EDGE_LOOP('',(#24));
#110=EDGE_LOOP('',(#25));
#111=EDGE_LOOP('',(#26));
#112=EDGE_LOOP('',(#27));
#113=EDGE_LOOP('',(#28));
#114=EDGE_LOOP('',(#29));
#115=EDGE_LOOP('',(#30));
#116=EDGE_LOOP('',(#31));
#117=EDGE_LOOP('',(#32));
#118=EDGE_LOOP('',(#33));
#119=EDGE_LOOP('',(#34));
#120=EDGE_LOOP('',(#35));
#121=EDGE_LOOP('',(#36));
#122=EDGE_LOOP('',(#37));
#123=EDGE_LOOP('',(#38));
#124=EDGE_LOOP('',(#39));
#125=EDGE_LOOP('',(#40));
#126=EDGE_LOOP('',(#41));
#127=EDGE_LOOP('',(#42));
#128=EDGE_LOOP('',(#43));
#129=EDGE_LOOP('',(#44));
#130=EDGE_LOOP('',(#45));
#131=EDGE_LOOP('',(#46));
#132=EDGE_LOOP('',(#47));
#133=EDGE_LOOP('',(#48));
#134=EDGE_LOOP('',(#49));
#135=EDGE_LOOP('',(#50));
#136=EDGE_LOOP('',(#51));
#137=FACE_BOUND('',#103,.T.);
#138=FACE_BOUND('',#104,.T.);
#139=FACE_BOUND('',#105,.T.);
#140=FACE_BOUND('',#106,.T.);
#141=FACE_BOUND('',#107,.T.);
#142=FACE_BOUND('',#108,.T.);
#143=FACE_BOUND('',#109,.T.);
#144=FACE_BOUND('',#110,.T.);
#145=FACE_BOUND('',#111,.T.);
#146=FACE_BOUND('',#112,.T.);
#147=FACE_BOUND('',#113,.T.);
#148=FACE_BOUND('',#114,.T.);
#149=FACE_BOUND('',#115,.T.);
#150=FACE_BOUND('',#116,.T.);
#151=FACE_BOUND('',#117,.T.);
#152=FACE_BOUND('',#118,.T.);
#153=FACE_BOUND('',#119,.T.);
#154=FACE_BOUND('',#120,.T.);
#155=FACE_BOUND('',#121,.T.);
#156=FACE_BOUND('',#122,.T.);
#157=FACE_BOUND('',#123,.T.);
#158=FACE_BOUND('',#124,.T.);
#159=FACE_BOUND('',#125,.T.);
#160=FACE_BOUND('',#126,.T.);
#161=FACE_BOUND('',#127,.T.);
#162=FACE_BOUND('',#128,.T.);
#163=FACE_BOUND('',#129,.T.);
#164=FACE_BOUND('',#130,.T.);
#165=FACE_BOUND('',#131,.T.);
#166=FACE_BOUND('',#132,.T.);
#167=FACE_BOUND('',#133,.T.);
#168=FACE_BOUND('',#134,.T.);
#169=FACE_BOUND('',#135,.T.);
#170=FACE_BOUND('',#136,.T.);
#171=CYLINDRICAL_SURFACE('',#204,0.00446);
#172=CYLINDRICAL_SURFACE('',#209,0.003025);
#173=CYLINDRICAL_SURFACE('',#221,0.0096);
#174=CYLINDRICAL_SURFACE('',#230,0.00125);
#175=CYLINDRICAL_SURFACE('',#231,0.00125);
#176=CYLINDRICAL_SURFACE('',#232,0.00125);
#177=CYLINDRICAL_SURFACE('',#233,0.00125);
#178=ADVANCED_FACE('',(#137,#138),#171,.T.);
#179=ADVANCED_FACE('',(#139,#140),#15,.T.);
#180=ADVANCED_FACE('',(#141,#142),#172,.F.);
#181=ADVANCED_FACE('',(#143,#144),#12,.F.);
#182=ADVANCED_FACE('',(#145,#146,#147,#148,#149,#150),#16,.T.);
#183=ADVANCED_FACE('',(#151,#152),#13,.T.);
#184=ADVANCED_FACE('',(#153,#154),#173,.T.);
#185=ADVANCED_FACE('',(#155,#156),#14,.T.);
#186=ADVANCED_FACE('',(#157,#158,#159,#160,#161,#162),#17,.F.);
#187=ADVANCED_FACE('',(#163,#164),#174,.F.);
#188=ADVANCED_FACE('',(#165,#166),#175,.F.);
#189=ADVANCED_FACE('',(#167,#168),#176,.F.);
#190=ADVANCED_FACE('',(#169,#170),#177,.F.);
#191=CLOSED_SHELL('',(#178,#179,#180,#181,#182,#183,#184,#185,#186,#187,
#188,#189,#190));
#192=STYLED_ITEM('',(#193),#200);
#193=PRESENTATION_STYLE_ASSIGNMENT((#194));
#194=SURFACE_STYLE_USAGE(.BOTH.,#195);
#195=SURFACE_SIDE_STYLE('',(#196));
#196=SURFACE_STYLE_FILL_AREA(#197);
#197=FILL_AREA_STYLE('',(#198));
#198=FILL_AREA_STYLE_COLOUR('',#199);
#199=COLOUR_RGB('',0.96078431372549,0.96078431372549,0.964705882352941);
#200=MANIFOLD_SOLID_BREP('???????? v2',#191);
#201=SHAPE_DEFINITION_REPRESENTATION(#350,#202);
#202=SHAPE_REPRESENTATION('???????? v2',(#203),#345);
#203=AXIS2_PLACEMENT_3D('',#296,#234,#235);
#204=AXIS2_PLACEMENT_3D('',#297,#236,#237);
#205=AXIS2_PLACEMENT_3D('',#298,#238,#239);
#206=AXIS2_PLACEMENT_3D('',#300,#240,#241);
#207=AXIS2_PLACEMENT_3D('',#302,#242,#243);
#208=AXIS2_PLACEMENT_3D('',#303,#244,#245);
#209=AXIS2_PLACEMENT_3D('',#305,#246,#247);
#210=AXIS2_PLACEMENT_3D('',#306,#248,#249);
#211=AXIS2_PLACEMENT_3D('',#308,#250,#251);
#212=AXIS2_PLACEMENT_3D('',#309,#252,#253);
#213=AXIS2_PLACEMENT_3D('',#311,#254,#255);
#214=AXIS2_PLACEMENT_3D('',#312,#256,#257);
#215=AXIS2_PLACEMENT_3D('',#314,#258,#259);
#216=AXIS2_PLACEMENT_3D('',#316,#260,#261);
#217=AXIS2_PLACEMENT_3D('',#318,#262,#263);
#218=AXIS2_PLACEMENT_3D('',#320,#264,#265);
#219=AXIS2_PLACEMENT_3D('',#322,#266,#267);
#220=AXIS2_PLACEMENT_3D('',#323,#268,#269);
#221=AXIS2_PLACEMENT_3D('',#325,#270,#271);
#222=AXIS2_PLACEMENT_3D('',#326,#272,#273);
#223=AXIS2_PLACEMENT_3D('',#328,#274,#275);
#224=AXIS2_PLACEMENT_3D('',#329,#276,#277);
#225=AXIS2_PLACEMENT_3D('',#331,#278,#279);
#226=AXIS2_PLACEMENT_3D('',#332,#280,#281);
#227=AXIS2_PLACEMENT_3D('',#334,#282,#283);
#228=AXIS2_PLACEMENT_3D('',#336,#284,#285);
#229=AXIS2_PLACEMENT_3D('',#338,#286,#287);
#230=AXIS2_PLACEMENT_3D('',#340,#288,#289);
#231=AXIS2_PLACEMENT_3D('',#341,#290,#291);
#232=AXIS2_PLACEMENT_3D('',#342,#292,#293);
#233=AXIS2_PLACEMENT_3D('',#343,#294,#295);
#234=DIRECTION('',(0.,0.,1.));
#235=DIRECTION('',(1.,0.,0.));
#236=DIRECTION('',(5.76229885063625E-16,1.,0.));
#237=DIRECTION('',(1.,-5.76229885063625E-16,0.));
#238=DIRECTION('',(-9.46633086265214E-30,1.,0.));
#239=DIRECTION('',(1.,9.72810533344297E-30,0.));
#240=DIRECTION('',(0.,-1.,0.));
#241=DIRECTION('',(1.,-5.76229885063625E-16,0.));
#242=DIRECTION('',(-9.46633086265214E-30,1.,0.));
#243=DIRECTION('',(1.,9.46633086265214E-30,0.));
#244=DIRECTION('',(0.,-1.,0.));
#245=DIRECTION('',(-1.,-9.12731625875551E-30,0.));
#246=DIRECTION('',(0.,1.,0.));
#247=DIRECTION('',(1.,0.,0.));
#248=DIRECTION('',(0.,-1.,0.));
#249=DIRECTION('',(-1.,0.,1.218757202866E-10));
#250=DIRECTION('',(0.,-1.,0.));
#251=DIRECTION('',(0.,0.,1.));
#252=DIRECTION('',(0.,-1.,0.));
#253=DIRECTION('',(-1.,0.,0.));
#254=DIRECTION('',(0.,-1.,0.));
#255=DIRECTION('',(1.,0.,0.));
#256=DIRECTION('',(0.,1.,0.));
#257=DIRECTION('',(-1.,0.,0.));
#258=DIRECTION('',(0.,-1.,0.));
#259=DIRECTION('',(0.,0.,-1.));
#260=DIRECTION('',(0.,-1.,0.));
#261=DIRECTION('',(1.,0.,0.));
#262=DIRECTION('',(0.,-1.,0.));
#263=DIRECTION('',(0.,0.,1.));
#264=DIRECTION('',(0.,-1.,0.));
#265=DIRECTION('',(-1.,0.,0.));
#266=DIRECTION('',(0.,1.,0.));
#267=DIRECTION('',(0.,0.,1.));
#268=DIRECTION('',(0.,1.,0.));
#269=DIRECTION('',(0.,0.,-1.));
#270=DIRECTION('',(0.,1.,0.));
#271=DIRECTION('',(1.,0.,0.));
#272=DIRECTION('',(0.,-1.,0.));
#273=DIRECTION('',(-1.,0.,-1.511103579004E-10));
#274=DIRECTION('',(0.,-1.,0.));
#275=DIRECTION('',(0.,0.,1.));
#276=DIRECTION('',(0.,-1.,0.));
#277=DIRECTION('',(-1.,0.,0.));
#278=DIRECTION('',(0.,-1.,0.));
#279=DIRECTION('',(1.,0.,0.));
#280=DIRECTION('',(0.,1.,0.));
#281=DIRECTION('',(-1.,0.,0.));
#282=DIRECTION('',(0.,1.,0.));
#283=DIRECTION('',(0.,0.,1.));
#284=DIRECTION('',(0.,1.,0.));
#285=DIRECTION('',(1.,0.,0.));
#286=DIRECTION('',(0.,1.,0.));
#287=DIRECTION('',(0.,0.,-1.));
#288=DIRECTION('',(0.,1.,0.));
#289=DIRECTION('',(-1.,0.,0.));
#290=DIRECTION('',(0.,1.,0.));
#291=DIRECTION('',(0.,0.,1.));
#292=DIRECTION('',(0.,1.,0.));
#293=DIRECTION('',(1.,0.,0.));
#294=DIRECTION('',(0.,1.,0.));
#295=DIRECTION('',(0.,0.,-1.));
#296=CARTESIAN_POINT('',(0.,0.,0.));
#297=CARTESIAN_POINT('',(0.01,0.024,0.));
#298=CARTESIAN_POINT('',(0.01,0.02515,0.));
#299=CARTESIAN_POINT('',(0.01446,0.02515,0.));
#300=CARTESIAN_POINT('',(0.01,0.024,0.));
#301=CARTESIAN_POINT('',(0.01446,0.024,0.));
#302=CARTESIAN_POINT('',(0.01,0.0251500023711079,0.));
#303=CARTESIAN_POINT('',(0.01,0.02515,0.));
#304=CARTESIAN_POINT('',(0.006975,0.02515,0.));
#305=CARTESIAN_POINT('',(0.01,0.022044,0.));
#306=CARTESIAN_POINT('',(0.01,0.0221,0.));
#307=CARTESIAN_POINT('',(0.006975000000003,0.0221,3.68674053866599E-13));
#308=CARTESIAN_POINT('',(0.01,0.02195,0.));
#309=CARTESIAN_POINT('',(0.01,0.0218,0.));
#310=CARTESIAN_POINT('',(0.006674999999997,0.0218,0.));
#311=CARTESIAN_POINT('',(0.01,0.0218,0.));
#312=CARTESIAN_POINT('',(0.01,0.0218,0.));
#313=CARTESIAN_POINT('',(0.000600000000003001,0.0218,0.));
#314=CARTESIAN_POINT('',(0.0169999981269,0.0218,0.));
#315=CARTESIAN_POINT('',(0.0169999981269,0.0218,-0.00125));
#316=CARTESIAN_POINT('',(0.01,0.0218,0.0069999981269));
#317=CARTESIAN_POINT('',(0.01125,0.0218,0.0069999981269));
#318=CARTESIAN_POINT('',(0.0030000018731,0.0218,0.));
#319=CARTESIAN_POINT('',(0.0030000018731,0.0218,0.00125));
#320=CARTESIAN_POINT('',(0.01,0.0218,-0.0069999981269));
#321=CARTESIAN_POINT('',(0.00875,0.0218,-0.0069999981269));
#322=CARTESIAN_POINT('',(0.01,0.0219,0.));
#323=CARTESIAN_POINT('',(0.01,0.022,0.));
#324=CARTESIAN_POINT('',(0.01,0.022,-0.009600000000002));
#325=CARTESIAN_POINT('',(0.01,0.021946,0.));
#326=CARTESIAN_POINT('',(0.01,0.0238,0.));
#327=CARTESIAN_POINT('',(0.000399999999996001,0.0238,-1.45065943584444E-12));
#328=CARTESIAN_POINT('',(0.01,0.0239,0.));
#329=CARTESIAN_POINT('',(0.01,0.024,0.));
#330=CARTESIAN_POINT('',(0.000599999999996,0.024,0.));
#331=CARTESIAN_POINT('',(0.01,0.024,0.));
#332=CARTESIAN_POINT('',(0.01,0.024,0.0069999981269));
#333=CARTESIAN_POINT('',(0.00875,0.024,0.0069999981269));
#334=CARTESIAN_POINT('',(0.0169999981269,0.024,0.));
#335=CARTESIAN_POINT('',(0.0169999981269,0.024,0.00125));
#336=CARTESIAN_POINT('',(0.01,0.024,-0.0069999981269));
#337=CARTESIAN_POINT('',(0.01125,0.024,-0.0069999981269));
#338=CARTESIAN_POINT('',(0.0030000018731,0.024,0.));
#339=CARTESIAN_POINT('',(0.0030000018731,0.024,-0.00125));
#340=CARTESIAN_POINT('',(0.01,0.021738,0.0069999981269));
#341=CARTESIAN_POINT('',(0.0169999981269,0.021738,0.));
#342=CARTESIAN_POINT('',(0.01,0.021738,-0.0069999981269));
#343=CARTESIAN_POINT('',(0.0030000018731,0.021738,0.));
#344=MECHANICAL_DESIGN_GEOMETRIC_PRESENTATION_REPRESENTATION('',(#192),
#345);
#345=(
GEOMETRIC_REPRESENTATION_CONTEXT(3)
GLOBAL_UNCERTAINTY_ASSIGNED_CONTEXT((#346))
GLOBAL_UNIT_ASSIGNED_CONTEXT((#349,#348,#347))
REPRESENTATION_CONTEXT('???????? v2','TOP_LEVEL_ASSEMBLY_PART')
);
#346=UNCERTAINTY_MEASURE_WITH_UNIT(LENGTH_MEASURE(1.E-8),#349,
'DISTANCE_ACCURACY_VALUE','Maximum Tolerance applied to model');
#347=(
NAMED_UNIT(*)
SI_UNIT($,.STERADIAN.)
SOLID_ANGLE_UNIT()
);
#348=(
NAMED_UNIT(*)
PLANE_ANGLE_UNIT()
SI_UNIT($,.RADIAN.)
);
#349=(
LENGTH_UNIT()
NAMED_UNIT(*)
SI_UNIT($,.METRE.)
);
#350=PRODUCT_DEFINITION_SHAPE('','',#351);
#351=PRODUCT_DEFINITION('','',#353,#352);
#352=PRODUCT_DEFINITION_CONTEXT('',#359,'design');
#353=PRODUCT_DEFINITION_FORMATION_WITH_SPECIFIED_SOURCE('','',#355,
 .NOT_KNOWN.);
#354=PRODUCT_RELATED_PRODUCT_CATEGORY('','',(#355));
#355=PRODUCT('???????? v2','???????? v2','???????? v2',(#357));
#356=PRODUCT_CATEGORY('','');
#357=PRODUCT_CONTEXT('',#359,'mechanical');
#358=APPLICATION_PROTOCOL_DEFINITION('international standard',
'ap242_managed_model_based_3d_engineering',2020,#359);
#359=APPLICATION_CONTEXT('managed model based 3d engineering');
ENDSEC;
END-ISO-10303-21;
