ISO-10303-21;
HEADER;
/* Generated by software containing ST-Developer
 * from STEP Tools, Inc. (www.steptools.com) 
 */
/* OPTION: using custom renumber hook */

FILE_DESCRIPTION(
/* description */ ('STEP AP242 Edition 2',
'CAx-IF Rec.Pracs.---Representation and Presentation of Product Manufa
cturing Information (PMI)---4.0---2014-10-13',
'CAx-IF Rec.Pracs.---3D Tessellated Geometry---0.4---2014-09-14','2;1',
'CAx-IF Rec.Pracs.---User Defined Attributes---1.5---2016-08-15'),
/* implementation_level */ '2;1');

FILE_NAME(
/* name */ 'ARCADA001 - ARCAD004',
/* time_stamp */ '2026-07-17T02:50:49Z',
/* author */ (''),
/* organization */ (''),
/* preprocessor_version */ 'ST-DEVELOPER v20',
/* originating_system */ 'ONSHAPE BY PTC INC, 1.217',
/* authorisation */ '  ');

FILE_SCHEMA (('AP242_MANAGED_MODEL_BASED_3D_ENGINEERING_MIM_LF { 1 0 10303 442 3 1 4 }'));
ENDSEC;

DATA;
#10=SHAPE_REPRESENTATION_RELATIONSHIP('','',#1005,#11);
#11=ADVANCED_BREP_SHAPE_REPRESENTATION('',(#1003),#1745);
#12=B_SPLINE_CURVE_WITH_KNOTS('',3,(#1493,#1494,#1495,#1496,#1497,#1498,
#1499),.UNSPECIFIED.,.F.,.F.,(4,1,1,1,4),(0.00265154629794332,0.00304234193126479,
0.00343313756458626,0.00382393319790773,0.0042147288312292),
 .UNSPECIFIED.);
#13=B_SPLINE_CURVE_WITH_KNOTS('',3,(#1500,#1501,#1502,#1503,#1504,#1505,
#1506),.UNSPECIFIED.,.F.,.F.,(4,1,1,1,4),(0.00265154629794332,0.00304234193126479,
0.00343313756458626,0.00382393319790773,0.0042147288312292),
 .UNSPECIFIED.);
#14=B_SPLINE_CURVE_WITH_KNOTS('',3,(#1508,#1509,#1510,#1511,#1512,#1513,
#1514),.UNSPECIFIED.,.F.,.F.,(4,1,1,1,4),(0.000514328803525002,0.000905312132557933,
0.00129629546159086,0.0016872787906238,0.00207826211965673),
 .UNSPECIFIED.);
#15=B_SPLINE_CURVE_WITH_KNOTS('',3,(#1515,#1516,#1517,#1518,#1519,#1520,
#1521),.UNSPECIFIED.,.F.,.F.,(4,1,1,1,4),(0.000514328803525002,0.000905312132557933,
0.00129629546159086,0.0016872787906238,0.00207826211965673),
 .UNSPECIFIED.);
#16=B_SPLINE_CURVE_WITH_KNOTS('',3,(#1523,#1524,#1525,#1526,#1527,#1528,
#1529),.UNSPECIFIED.,.F.,.F.,(4,1,1,1,4),(0.00104940013974552,0.00144044254169307,
0.00183148494364063,0.00222252734558818,0.00261356974753574),
 .UNSPECIFIED.);
#17=B_SPLINE_CURVE_WITH_KNOTS('',3,(#1530,#1531,#1532,#1533,#1534,#1535,
#1536),.UNSPECIFIED.,.F.,.F.,(4,1,1,1,4),(0.00104940013974549,0.00144044254169305,
0.00183148494364061,0.00222252734558817,0.00261356974753574),
 .UNSPECIFIED.);
#18=B_SPLINE_CURVE_WITH_KNOTS('',3,(#1538,#1539,#1540,#1541,#1542,#1543,
#1544),.UNSPECIFIED.,.F.,.F.,(4,1,1,1,4),(0.00204034546735734,0.00243125209236982,
0.0028221587173823,0.00321306534239478,0.00360397196740725),
 .UNSPECIFIED.);
#19=B_SPLINE_CURVE_WITH_KNOTS('',3,(#1545,#1546,#1547,#1548,#1549,#1550,
#1551),.UNSPECIFIED.,.F.,.F.,(4,1,1,1,4),(0.00204034546735734,0.00243125209236982,
0.0028221587173823,0.00321306534239478,0.00360397196740725),
 .UNSPECIFIED.);
#20=B_SPLINE_CURVE_WITH_KNOTS('',3,(#1691,#1692,#1693,#1694,#1695),
 .UNSPECIFIED.,.F.,.F.,(4,1,4),(0.,0.000781394555219599,0.0015627891104392),
 .UNSPECIFIED.);
#21=B_SPLINE_CURVE_WITH_KNOTS('',3,(#1697,#1698,#1699,#1700,#1701),
 .UNSPECIFIED.,.F.,.F.,(4,1,4),(0.,0.000781394074442273,0.00156278814888455),
 .UNSPECIFIED.);
#22=B_SPLINE_CURVE_WITH_KNOTS('',3,(#1704,#1705,#1706,#1707,#1708),
 .UNSPECIFIED.,.F.,.F.,(4,1,4),(0.,0.000781394555219589,0.00156278911043918),
 .UNSPECIFIED.);
#23=B_SPLINE_CURVE_WITH_KNOTS('',3,(#1710,#1711,#1712,#1713,#1714),
 .UNSPECIFIED.,.F.,.F.,(4,1,4),(0.,0.000781394074442272,0.00156278814888454),
 .UNSPECIFIED.);
#24=B_SPLINE_CURVE_WITH_KNOTS('',3,(#1717,#1718,#1719,#1720,#1721),
 .UNSPECIFIED.,.F.,.F.,(4,1,4),(0.,0.000781394555219588,0.00156278911043918),
 .UNSPECIFIED.);
#25=B_SPLINE_CURVE_WITH_KNOTS('',3,(#1723,#1724,#1725,#1726,#1727),
 .UNSPECIFIED.,.F.,.F.,(4,1,4),(0.,0.000781394074442273,0.00156278814888455),
 .UNSPECIFIED.);
#26=B_SPLINE_CURVE_WITH_KNOTS('',3,(#1729,#1730,#1731,#1732,#1733),
 .UNSPECIFIED.,.F.,.F.,(4,1,4),(0.,0.000781394074442274,0.00156278814888455),
 .UNSPECIFIED.);
#27=B_SPLINE_CURVE_WITH_KNOTS('',3,(#1735,#1736,#1737,#1738,#1739),
 .UNSPECIFIED.,.F.,.F.,(4,1,4),(0.,0.000781394555219589,0.00156278911043918),
 .UNSPECIFIED.);
#28=TOROIDAL_SURFACE('',#1042,0.0639,0.0005);
#29=TOROIDAL_SURFACE('',#1043,0.0639,0.0005);
#30=TOROIDAL_SURFACE('',#1044,0.0639,0.0005);
#31=TOROIDAL_SURFACE('',#1045,0.0639,0.0005);
#32=TOROIDAL_SURFACE('',#1096,0.0619,0.001);
#33=TOROIDAL_SURFACE('',#1097,0.0619,0.001);
#34=TOROIDAL_SURFACE('',#1098,0.0619,0.001);
#35=TOROIDAL_SURFACE('',#1099,0.0619,0.001);
#36=PLANE('',#1019);
#37=PLANE('',#1022);
#38=PLANE('',#1025);
#39=PLANE('',#1028);
#40=PLANE('',#1031);
#41=PLANE('',#1046);
#42=PLANE('',#1058);
#43=PLANE('',#1059);
#44=PLANE('',#1060);
#45=PLANE('',#1061);
#46=PLANE('',#1062);
#47=PLANE('',#1069);
#48=PLANE('',#1070);
#49=PLANE('',#1071);
#50=PLANE('',#1072);
#51=PLANE('',#1073);
#52=PLANE('',#1074);
#53=PLANE('',#1075);
#54=PLANE('',#1076);
#55=PLANE('',#1077);
#56=PLANE('',#1078);
#57=PLANE('',#1079);
#58=PLANE('',#1080);
#59=PLANE('',#1081);
#60=PLANE('',#1086);
#61=PLANE('',#1087);
#62=PLANE('',#1089);
#63=PLANE('',#1090);
#64=PLANE('',#1092);
#65=PLANE('',#1093);
#66=PLANE('',#1094);
#67=PLANE('',#1095);
#68=CIRCLE('',#1008,0.0639);
#69=CIRCLE('',#1009,0.0639);
#70=CIRCLE('',#1011,0.0639);
#71=CIRCLE('',#1012,0.0639);
#72=CIRCLE('',#1014,0.0639);
#73=CIRCLE('',#1015,0.0639);
#74=CIRCLE('',#1017,0.0639);
#75=CIRCLE('',#1018,0.0639);
#76=CIRCLE('',#1020,0.0629);
#77=CIRCLE('',#1021,0.0639);
#78=CIRCLE('',#1023,0.0629);
#79=CIRCLE('',#1024,0.0629);
#80=CIRCLE('',#1026,0.0629);
#81=CIRCLE('',#1027,0.0639);
#82=CIRCLE('',#1029,0.0639);
#83=CIRCLE('',#1030,0.0629);
#84=CIRCLE('',#1032,0.0639);
#85=CIRCLE('',#1033,0.0629);
#86=CIRCLE('',#1035,0.0629);
#87=CIRCLE('',#1037,0.0629);
#88=CIRCLE('',#1039,0.0629);
#89=CIRCLE('',#1041,0.0629);
#90=CIRCLE('',#1047,0.0619);
#91=CIRCLE('',#1048,0.0619);
#92=CIRCLE('',#1049,0.0629);
#93=CIRCLE('',#1050,0.0629);
#94=CIRCLE('',#1051,0.0619);
#95=CIRCLE('',#1052,0.067);
#96=CIRCLE('',#1053,0.0619);
#97=CIRCLE('',#1054,0.005);
#98=CIRCLE('',#1055,0.005);
#99=CIRCLE('',#1056,0.005);
#100=CIRCLE('',#1057,0.005);
#101=CIRCLE('',#1063,0.067);
#102=CIRCLE('',#1064,0.005);
#103=CIRCLE('',#1065,0.005);
#104=CIRCLE('',#1066,0.005);
#105=CIRCLE('',#1067,0.005);
#106=ORIENTED_EDGE('',*,*,#386,.F.);
#107=ORIENTED_EDGE('',*,*,#387,.T.);
#108=ORIENTED_EDGE('',*,*,#388,.T.);
#109=ORIENTED_EDGE('',*,*,#389,.F.);
#110=ORIENTED_EDGE('',*,*,#390,.T.);
#111=ORIENTED_EDGE('',*,*,#391,.T.);
#112=ORIENTED_EDGE('',*,*,#392,.F.);
#113=ORIENTED_EDGE('',*,*,#393,.F.);
#114=ORIENTED_EDGE('',*,*,#394,.F.);
#115=ORIENTED_EDGE('',*,*,#395,.T.);
#116=ORIENTED_EDGE('',*,*,#396,.T.);
#117=ORIENTED_EDGE('',*,*,#397,.F.);
#118=ORIENTED_EDGE('',*,*,#398,.F.);
#119=ORIENTED_EDGE('',*,*,#399,.T.);
#120=ORIENTED_EDGE('',*,*,#400,.T.);
#121=ORIENTED_EDGE('',*,*,#401,.F.);
#122=ORIENTED_EDGE('',*,*,#402,.F.);
#123=ORIENTED_EDGE('',*,*,#403,.T.);
#124=ORIENTED_EDGE('',*,*,#404,.T.);
#125=ORIENTED_EDGE('',*,*,#405,.F.);
#126=ORIENTED_EDGE('',*,*,#406,.F.);
#127=ORIENTED_EDGE('',*,*,#407,.T.);
#128=ORIENTED_EDGE('',*,*,#408,.T.);
#129=ORIENTED_EDGE('',*,*,#409,.F.);
#130=ORIENTED_EDGE('',*,*,#410,.T.);
#131=ORIENTED_EDGE('',*,*,#411,.T.);
#132=ORIENTED_EDGE('',*,*,#412,.F.);
#133=ORIENTED_EDGE('',*,*,#413,.T.);
#134=ORIENTED_EDGE('',*,*,#414,.F.);
#135=ORIENTED_EDGE('',*,*,#415,.T.);
#136=ORIENTED_EDGE('',*,*,#416,.F.);
#137=ORIENTED_EDGE('',*,*,#417,.F.);
#138=ORIENTED_EDGE('',*,*,#418,.T.);
#139=ORIENTED_EDGE('',*,*,#419,.T.);
#140=ORIENTED_EDGE('',*,*,#420,.F.);
#141=ORIENTED_EDGE('',*,*,#421,.T.);
#142=ORIENTED_EDGE('',*,*,#422,.T.);
#143=ORIENTED_EDGE('',*,*,#423,.F.);
#144=ORIENTED_EDGE('',*,*,#424,.F.);
#145=ORIENTED_EDGE('',*,*,#425,.T.);
#146=ORIENTED_EDGE('',*,*,#426,.T.);
#147=ORIENTED_EDGE('',*,*,#427,.F.);
#148=ORIENTED_EDGE('',*,*,#428,.F.);
#149=ORIENTED_EDGE('',*,*,#429,.T.);
#150=ORIENTED_EDGE('',*,*,#430,.T.);
#151=ORIENTED_EDGE('',*,*,#423,.T.);
#152=ORIENTED_EDGE('',*,*,#431,.F.);
#153=ORIENTED_EDGE('',*,*,#432,.T.);
#154=ORIENTED_EDGE('',*,*,#433,.T.);
#155=ORIENTED_EDGE('',*,*,#402,.T.);
#156=ORIENTED_EDGE('',*,*,#434,.F.);
#157=ORIENTED_EDGE('',*,*,#435,.T.);
#158=ORIENTED_EDGE('',*,*,#436,.T.);
#159=ORIENTED_EDGE('',*,*,#427,.T.);
#160=ORIENTED_EDGE('',*,*,#437,.F.);
#161=ORIENTED_EDGE('',*,*,#438,.T.);
#162=ORIENTED_EDGE('',*,*,#439,.T.);
#163=ORIENTED_EDGE('',*,*,#417,.T.);
#164=ORIENTED_EDGE('',*,*,#440,.F.);
#165=ORIENTED_EDGE('',*,*,#419,.F.);
#166=ORIENTED_EDGE('',*,*,#441,.T.);
#167=ORIENTED_EDGE('',*,*,#392,.T.);
#168=ORIENTED_EDGE('',*,*,#404,.F.);
#169=ORIENTED_EDGE('',*,*,#442,.T.);
#170=ORIENTED_EDGE('',*,*,#389,.T.);
#171=ORIENTED_EDGE('',*,*,#443,.F.);
#172=ORIENTED_EDGE('',*,*,#444,.F.);
#173=ORIENTED_EDGE('',*,*,#394,.T.);
#174=ORIENTED_EDGE('',*,*,#445,.T.);
#175=ORIENTED_EDGE('',*,*,#421,.F.);
#176=ORIENTED_EDGE('',*,*,#446,.F.);
#177=ORIENTED_EDGE('',*,*,#398,.T.);
#178=ORIENTED_EDGE('',*,*,#447,.T.);
#179=ORIENTED_EDGE('',*,*,#425,.F.);
#180=ORIENTED_EDGE('',*,*,#448,.T.);
#181=ORIENTED_EDGE('',*,*,#449,.F.);
#182=ORIENTED_EDGE('',*,*,#396,.F.);
#183=ORIENTED_EDGE('',*,*,#450,.T.);
#184=ORIENTED_EDGE('',*,*,#451,.T.);
#185=ORIENTED_EDGE('',*,*,#452,.T.);
#186=ORIENTED_EDGE('',*,*,#387,.F.);
#187=ORIENTED_EDGE('',*,*,#453,.F.);
#188=ORIENTED_EDGE('',*,*,#454,.F.);
#189=ORIENTED_EDGE('',*,*,#455,.F.);
#190=ORIENTED_EDGE('',*,*,#456,.F.);
#191=ORIENTED_EDGE('',*,*,#457,.T.);
#192=ORIENTED_EDGE('',*,*,#458,.F.);
#193=ORIENTED_EDGE('',*,*,#459,.T.);
#194=ORIENTED_EDGE('',*,*,#460,.T.);
#195=ORIENTED_EDGE('',*,*,#461,.F.);
#196=ORIENTED_EDGE('',*,*,#400,.F.);
#197=ORIENTED_EDGE('',*,*,#462,.T.);
#198=ORIENTED_EDGE('',*,*,#463,.F.);
#199=ORIENTED_EDGE('',*,*,#464,.T.);
#200=ORIENTED_EDGE('',*,*,#465,.T.);
#201=ORIENTED_EDGE('',*,*,#390,.F.);
#202=ORIENTED_EDGE('',*,*,#466,.F.);
#203=ORIENTED_EDGE('',*,*,#467,.F.);
#204=ORIENTED_EDGE('',*,*,#468,.T.);
#205=ORIENTED_EDGE('',*,*,#469,.T.);
#206=ORIENTED_EDGE('',*,*,#470,.T.);
#207=ORIENTED_EDGE('',*,*,#471,.T.);
#208=ORIENTED_EDGE('',*,*,#472,.T.);
#209=ORIENTED_EDGE('',*,*,#473,.F.);
#210=ORIENTED_EDGE('',*,*,#474,.T.);
#211=ORIENTED_EDGE('',*,*,#475,.F.);
#212=ORIENTED_EDGE('',*,*,#476,.T.);
#213=ORIENTED_EDGE('',*,*,#477,.T.);
#214=ORIENTED_EDGE('',*,*,#478,.F.);
#215=ORIENTED_EDGE('',*,*,#479,.F.);
#216=ORIENTED_EDGE('',*,*,#475,.T.);
#217=ORIENTED_EDGE('',*,*,#480,.T.);
#218=ORIENTED_EDGE('',*,*,#481,.F.);
#219=ORIENTED_EDGE('',*,*,#482,.F.);
#220=ORIENTED_EDGE('',*,*,#481,.T.);
#221=ORIENTED_EDGE('',*,*,#483,.T.);
#222=ORIENTED_EDGE('',*,*,#484,.F.);
#223=ORIENTED_EDGE('',*,*,#477,.F.);
#224=ORIENTED_EDGE('',*,*,#485,.T.);
#225=ORIENTED_EDGE('',*,*,#484,.T.);
#226=ORIENTED_EDGE('',*,*,#486,.F.);
#227=ORIENTED_EDGE('',*,*,#487,.T.);
#228=ORIENTED_EDGE('',*,*,#488,.F.);
#229=ORIENTED_EDGE('',*,*,#489,.T.);
#230=ORIENTED_EDGE('',*,*,#490,.T.);
#231=ORIENTED_EDGE('',*,*,#491,.T.);
#232=ORIENTED_EDGE('',*,*,#492,.T.);
#233=ORIENTED_EDGE('',*,*,#493,.T.);
#234=ORIENTED_EDGE('',*,*,#494,.F.);
#235=ORIENTED_EDGE('',*,*,#495,.T.);
#236=ORIENTED_EDGE('',*,*,#480,.F.);
#237=ORIENTED_EDGE('',*,*,#478,.T.);
#238=ORIENTED_EDGE('',*,*,#486,.T.);
#239=ORIENTED_EDGE('',*,*,#483,.F.);
#240=ORIENTED_EDGE('',*,*,#487,.F.);
#241=ORIENTED_EDGE('',*,*,#463,.T.);
#242=ORIENTED_EDGE('',*,*,#490,.F.);
#243=ORIENTED_EDGE('',*,*,#496,.T.);
#244=ORIENTED_EDGE('',*,*,#467,.T.);
#245=ORIENTED_EDGE('',*,*,#497,.T.);
#246=ORIENTED_EDGE('',*,*,#469,.F.);
#247=ORIENTED_EDGE('',*,*,#498,.T.);
#248=ORIENTED_EDGE('',*,*,#488,.T.);
#249=ORIENTED_EDGE('',*,*,#499,.T.);
#250=ORIENTED_EDGE('',*,*,#471,.F.);
#251=ORIENTED_EDGE('',*,*,#500,.T.);
#252=ORIENTED_EDGE('',*,*,#494,.T.);
#253=ORIENTED_EDGE('',*,*,#501,.T.);
#254=ORIENTED_EDGE('',*,*,#492,.F.);
#255=ORIENTED_EDGE('',*,*,#502,.T.);
#256=ORIENTED_EDGE('',*,*,#473,.T.);
#257=ORIENTED_EDGE('',*,*,#503,.T.);
#258=ORIENTED_EDGE('',*,*,#504,.T.);
#259=ORIENTED_EDGE('',*,*,#407,.F.);
#260=ORIENTED_EDGE('',*,*,#505,.F.);
#261=ORIENTED_EDGE('',*,*,#506,.T.);
#262=ORIENTED_EDGE('',*,*,#505,.T.);
#263=ORIENTED_EDGE('',*,*,#406,.T.);
#264=ORIENTED_EDGE('',*,*,#507,.F.);
#265=ORIENTED_EDGE('',*,*,#508,.F.);
#266=ORIENTED_EDGE('',*,*,#507,.T.);
#267=ORIENTED_EDGE('',*,*,#409,.T.);
#268=ORIENTED_EDGE('',*,*,#509,.F.);
#269=ORIENTED_EDGE('',*,*,#510,.F.);
#270=ORIENTED_EDGE('',*,*,#509,.T.);
#271=ORIENTED_EDGE('',*,*,#408,.F.);
#272=ORIENTED_EDGE('',*,*,#504,.F.);
#273=ORIENTED_EDGE('',*,*,#511,.T.);
#274=ORIENTED_EDGE('',*,*,#476,.F.);
#275=ORIENTED_EDGE('',*,*,#479,.T.);
#276=ORIENTED_EDGE('',*,*,#482,.T.);
#277=ORIENTED_EDGE('',*,*,#485,.F.);
#278=ORIENTED_EDGE('',*,*,#506,.F.);
#279=ORIENTED_EDGE('',*,*,#508,.T.);
#280=ORIENTED_EDGE('',*,*,#510,.T.);
#281=ORIENTED_EDGE('',*,*,#511,.F.);
#282=ORIENTED_EDGE('',*,*,#512,.F.);
#283=ORIENTED_EDGE('',*,*,#459,.F.);
#284=ORIENTED_EDGE('',*,*,#513,.F.);
#285=ORIENTED_EDGE('',*,*,#412,.T.);
#286=ORIENTED_EDGE('',*,*,#514,.F.);
#287=ORIENTED_EDGE('',*,*,#457,.F.);
#288=ORIENTED_EDGE('',*,*,#515,.F.);
#289=ORIENTED_EDGE('',*,*,#414,.T.);
#290=ORIENTED_EDGE('',*,*,#456,.T.);
#291=ORIENTED_EDGE('',*,*,#516,.F.);
#292=ORIENTED_EDGE('',*,*,#415,.F.);
#293=ORIENTED_EDGE('',*,*,#515,.T.);
#294=ORIENTED_EDGE('',*,*,#455,.T.);
#295=ORIENTED_EDGE('',*,*,#517,.T.);
#296=ORIENTED_EDGE('',*,*,#410,.F.);
#297=ORIENTED_EDGE('',*,*,#516,.T.);
#298=ORIENTED_EDGE('',*,*,#468,.F.);
#299=ORIENTED_EDGE('',*,*,#496,.F.);
#300=ORIENTED_EDGE('',*,*,#489,.F.);
#301=ORIENTED_EDGE('',*,*,#498,.F.);
#302=ORIENTED_EDGE('',*,*,#470,.F.);
#303=ORIENTED_EDGE('',*,*,#499,.F.);
#304=ORIENTED_EDGE('',*,*,#495,.F.);
#305=ORIENTED_EDGE('',*,*,#500,.F.);
#306=ORIENTED_EDGE('',*,*,#474,.F.);
#307=ORIENTED_EDGE('',*,*,#502,.F.);
#308=ORIENTED_EDGE('',*,*,#491,.F.);
#309=ORIENTED_EDGE('',*,*,#497,.F.);
#310=ORIENTED_EDGE('',*,*,#472,.F.);
#311=ORIENTED_EDGE('',*,*,#501,.F.);
#312=ORIENTED_EDGE('',*,*,#493,.F.);
#313=ORIENTED_EDGE('',*,*,#503,.F.);
#314=ORIENTED_EDGE('',*,*,#401,.T.);
#315=ORIENTED_EDGE('',*,*,#461,.T.);
#316=ORIENTED_EDGE('',*,*,#518,.T.);
#317=ORIENTED_EDGE('',*,*,#434,.T.);
#318=ORIENTED_EDGE('',*,*,#426,.F.);
#319=ORIENTED_EDGE('',*,*,#447,.F.);
#320=ORIENTED_EDGE('',*,*,#393,.T.);
#321=ORIENTED_EDGE('',*,*,#441,.F.);
#322=ORIENTED_EDGE('',*,*,#418,.F.);
#323=ORIENTED_EDGE('',*,*,#439,.F.);
#324=ORIENTED_EDGE('',*,*,#519,.T.);
#325=ORIENTED_EDGE('',*,*,#466,.T.);
#326=ORIENTED_EDGE('',*,*,#513,.T.);
#327=ORIENTED_EDGE('',*,*,#458,.T.);
#328=ORIENTED_EDGE('',*,*,#514,.T.);
#329=ORIENTED_EDGE('',*,*,#413,.F.);
#330=ORIENTED_EDGE('',*,*,#397,.T.);
#331=ORIENTED_EDGE('',*,*,#449,.T.);
#332=ORIENTED_EDGE('',*,*,#520,.T.);
#333=ORIENTED_EDGE('',*,*,#428,.T.);
#334=ORIENTED_EDGE('',*,*,#422,.F.);
#335=ORIENTED_EDGE('',*,*,#445,.F.);
#336=ORIENTED_EDGE('',*,*,#446,.T.);
#337=ORIENTED_EDGE('',*,*,#424,.T.);
#338=ORIENTED_EDGE('',*,*,#436,.F.);
#339=ORIENTED_EDGE('',*,*,#521,.T.);
#340=ORIENTED_EDGE('',*,*,#462,.F.);
#341=ORIENTED_EDGE('',*,*,#399,.F.);
#342=ORIENTED_EDGE('',*,*,#512,.T.);
#343=ORIENTED_EDGE('',*,*,#411,.F.);
#344=ORIENTED_EDGE('',*,*,#517,.F.);
#345=ORIENTED_EDGE('',*,*,#454,.T.);
#346=ORIENTED_EDGE('',*,*,#452,.F.);
#347=ORIENTED_EDGE('',*,*,#522,.T.);
#348=ORIENTED_EDGE('',*,*,#431,.T.);
#349=ORIENTED_EDGE('',*,*,#405,.T.);
#350=ORIENTED_EDGE('',*,*,#443,.T.);
#351=ORIENTED_EDGE('',*,*,#388,.F.);
#352=ORIENTED_EDGE('',*,*,#444,.T.);
#353=ORIENTED_EDGE('',*,*,#420,.T.);
#354=ORIENTED_EDGE('',*,*,#430,.F.);
#355=ORIENTED_EDGE('',*,*,#523,.T.);
#356=ORIENTED_EDGE('',*,*,#450,.F.);
#357=ORIENTED_EDGE('',*,*,#395,.F.);
#358=ORIENTED_EDGE('',*,*,#386,.T.);
#359=ORIENTED_EDGE('',*,*,#442,.F.);
#360=ORIENTED_EDGE('',*,*,#403,.F.);
#361=ORIENTED_EDGE('',*,*,#433,.F.);
#362=ORIENTED_EDGE('',*,*,#524,.T.);
#363=ORIENTED_EDGE('',*,*,#453,.T.);
#364=ORIENTED_EDGE('',*,*,#465,.F.);
#365=ORIENTED_EDGE('',*,*,#525,.T.);
#366=ORIENTED_EDGE('',*,*,#437,.T.);
#367=ORIENTED_EDGE('',*,*,#416,.T.);
#368=ORIENTED_EDGE('',*,*,#440,.T.);
#369=ORIENTED_EDGE('',*,*,#391,.F.);
#370=ORIENTED_EDGE('',*,*,#521,.F.);
#371=ORIENTED_EDGE('',*,*,#435,.F.);
#372=ORIENTED_EDGE('',*,*,#518,.F.);
#373=ORIENTED_EDGE('',*,*,#460,.F.);
#374=ORIENTED_EDGE('',*,*,#519,.F.);
#375=ORIENTED_EDGE('',*,*,#438,.F.);
#376=ORIENTED_EDGE('',*,*,#525,.F.);
#377=ORIENTED_EDGE('',*,*,#464,.F.);
#378=ORIENTED_EDGE('',*,*,#524,.F.);
#379=ORIENTED_EDGE('',*,*,#432,.F.);
#380=ORIENTED_EDGE('',*,*,#522,.F.);
#381=ORIENTED_EDGE('',*,*,#451,.F.);
#382=ORIENTED_EDGE('',*,*,#523,.F.);
#383=ORIENTED_EDGE('',*,*,#429,.F.);
#384=ORIENTED_EDGE('',*,*,#520,.F.);
#385=ORIENTED_EDGE('',*,*,#448,.F.);
#386=EDGE_CURVE('',#526,#527,#620,.F.);
#387=EDGE_CURVE('',#526,#528,#68,.F.);
#388=EDGE_CURVE('',#528,#529,#621,.F.);
#389=EDGE_CURVE('',#527,#529,#69,.T.);
#390=EDGE_CURVE('',#530,#531,#70,.F.);
#391=EDGE_CURVE('',#531,#532,#622,.F.);
#392=EDGE_CURVE('',#533,#532,#71,.T.);
#393=EDGE_CURVE('',#530,#533,#623,.F.);
#394=EDGE_CURVE('',#534,#535,#72,.T.);
#395=EDGE_CURVE('',#534,#536,#624,.T.);
#396=EDGE_CURVE('',#536,#537,#73,.F.);
#397=EDGE_CURVE('',#535,#537,#625,.T.);
#398=EDGE_CURVE('',#538,#539,#74,.T.);
#399=EDGE_CURVE('',#538,#540,#626,.T.);
#400=EDGE_CURVE('',#540,#541,#75,.F.);
#401=EDGE_CURVE('',#539,#541,#627,.T.);
#402=EDGE_CURVE('',#542,#543,#76,.T.);
#403=EDGE_CURVE('',#542,#544,#628,.T.);
#404=EDGE_CURVE('',#544,#545,#77,.T.);
#405=EDGE_CURVE('',#543,#545,#629,.T.);
#406=EDGE_CURVE('',#546,#547,#630,.T.);
#407=EDGE_CURVE('',#546,#548,#631,.T.);
#408=EDGE_CURVE('',#548,#549,#632,.T.);
#409=EDGE_CURVE('',#547,#549,#633,.T.);
#410=EDGE_CURVE('',#550,#551,#634,.T.);
#411=EDGE_CURVE('',#551,#552,#78,.T.);
#412=EDGE_CURVE('',#553,#552,#635,.T.);
#413=EDGE_CURVE('',#553,#554,#79,.T.);
#414=EDGE_CURVE('',#555,#554,#636,.T.);
#415=EDGE_CURVE('',#555,#550,#637,.T.);
#416=EDGE_CURVE('',#556,#557,#638,.T.);
#417=EDGE_CURVE('',#558,#556,#80,.T.);
#418=EDGE_CURVE('',#558,#559,#639,.T.);
#419=EDGE_CURVE('',#559,#557,#81,.T.);
#420=EDGE_CURVE('',#560,#561,#640,.T.);
#421=EDGE_CURVE('',#560,#562,#82,.T.);
#422=EDGE_CURVE('',#562,#563,#641,.T.);
#423=EDGE_CURVE('',#561,#563,#83,.T.);
#424=EDGE_CURVE('',#564,#565,#642,.T.);
#425=EDGE_CURVE('',#564,#566,#84,.T.);
#426=EDGE_CURVE('',#566,#567,#643,.T.);
#427=EDGE_CURVE('',#565,#567,#85,.T.);
#428=EDGE_CURVE('',#568,#563,#644,.T.);
#429=EDGE_CURVE('',#568,#569,#86,.T.);
#430=EDGE_CURVE('',#569,#561,#645,.T.);
#431=EDGE_CURVE('',#570,#543,#646,.T.);
#432=EDGE_CURVE('',#570,#571,#87,.T.);
#433=EDGE_CURVE('',#571,#542,#647,.T.);
#434=EDGE_CURVE('',#572,#567,#648,.T.);
#435=EDGE_CURVE('',#572,#573,#88,.T.);
#436=EDGE_CURVE('',#573,#565,#649,.T.);
#437=EDGE_CURVE('',#574,#556,#650,.T.);
#438=EDGE_CURVE('',#574,#575,#89,.T.);
#439=EDGE_CURVE('',#575,#558,#651,.T.);
#440=EDGE_CURVE('',#557,#532,#12,.T.);
#441=EDGE_CURVE('',#559,#533,#13,.T.);
#442=EDGE_CURVE('',#544,#527,#14,.T.);
#443=EDGE_CURVE('',#545,#529,#15,.T.);
#444=EDGE_CURVE('',#534,#560,#16,.T.);
#445=EDGE_CURVE('',#535,#562,#17,.T.);
#446=EDGE_CURVE('',#538,#564,#18,.T.);
#447=EDGE_CURVE('',#539,#566,#19,.T.);
#448=EDGE_CURVE('',#576,#577,#90,.F.);
#449=EDGE_CURVE('',#537,#577,#652,.T.);
#450=EDGE_CURVE('',#536,#576,#653,.T.);
#451=EDGE_CURVE('',#578,#579,#91,.F.);
#452=EDGE_CURVE('',#579,#528,#654,.T.);
#453=EDGE_CURVE('',#578,#526,#655,.T.);
#454=EDGE_CURVE('',#580,#581,#92,.F.);
#455=EDGE_CURVE('',#582,#580,#656,.T.);
#456=EDGE_CURVE('',#583,#582,#657,.T.);
#457=EDGE_CURVE('',#583,#584,#658,.T.);
#458=EDGE_CURVE('',#585,#584,#93,.F.);
#459=EDGE_CURVE('',#585,#581,#659,.T.);
#460=EDGE_CURVE('',#586,#587,#94,.F.);
#461=EDGE_CURVE('',#541,#587,#660,.T.);
#462=EDGE_CURVE('',#540,#586,#661,.T.);
#463=EDGE_CURVE('',#588,#588,#95,.T.);
#464=EDGE_CURVE('',#589,#590,#96,.F.);
#465=EDGE_CURVE('',#590,#531,#662,.T.);
#466=EDGE_CURVE('',#589,#530,#663,.T.);
#467=EDGE_CURVE('',#591,#592,#664,.T.);
#468=EDGE_CURVE('',#591,#593,#97,.T.);
#469=EDGE_CURVE('',#593,#594,#665,.T.);
#470=EDGE_CURVE('',#594,#595,#98,.T.);
#471=EDGE_CURVE('',#595,#596,#666,.T.);
#472=EDGE_CURVE('',#596,#597,#99,.T.);
#473=EDGE_CURVE('',#598,#597,#667,.T.);
#474=EDGE_CURVE('',#598,#592,#100,.T.);
#475=EDGE_CURVE('',#599,#600,#668,.T.);
#476=EDGE_CURVE('',#599,#601,#669,.T.);
#477=EDGE_CURVE('',#601,#602,#670,.T.);
#478=EDGE_CURVE('',#600,#602,#671,.T.);
#479=EDGE_CURVE('',#599,#603,#672,.T.);
#480=EDGE_CURVE('',#600,#604,#673,.T.);
#481=EDGE_CURVE('',#603,#604,#674,.T.);
#482=EDGE_CURVE('',#603,#605,#675,.T.);
#483=EDGE_CURVE('',#604,#606,#676,.T.);
#484=EDGE_CURVE('',#605,#606,#677,.T.);
#485=EDGE_CURVE('',#601,#605,#678,.T.);
#486=EDGE_CURVE('',#602,#606,#679,.T.);
#487=EDGE_CURVE('',#607,#607,#101,.T.);
#488=EDGE_CURVE('',#608,#609,#680,.T.);
#489=EDGE_CURVE('',#608,#610,#102,.F.);
#490=EDGE_CURVE('',#610,#611,#681,.T.);
#491=EDGE_CURVE('',#611,#612,#103,.F.);
#492=EDGE_CURVE('',#612,#613,#682,.T.);
#493=EDGE_CURVE('',#613,#614,#104,.F.);
#494=EDGE_CURVE('',#615,#614,#683,.T.);
#495=EDGE_CURVE('',#615,#609,#105,.F.);
#496=EDGE_CURVE('',#610,#591,#684,.F.);
#497=EDGE_CURVE('',#592,#611,#685,.T.);
#498=EDGE_CURVE('',#593,#608,#686,.T.);
#499=EDGE_CURVE('',#609,#594,#687,.F.);
#500=EDGE_CURVE('',#595,#615,#688,.T.);
#501=EDGE_CURVE('',#614,#596,#689,.F.);
#502=EDGE_CURVE('',#612,#598,#690,.F.);
#503=EDGE_CURVE('',#597,#613,#691,.T.);
#504=EDGE_CURVE('',#616,#548,#692,.T.);
#505=EDGE_CURVE('',#617,#546,#693,.T.);
#506=EDGE_CURVE('',#617,#616,#694,.T.);
#507=EDGE_CURVE('',#618,#547,#695,.T.);
#508=EDGE_CURVE('',#617,#618,#696,.T.);
#509=EDGE_CURVE('',#619,#549,#697,.T.);
#510=EDGE_CURVE('',#618,#619,#698,.T.);
#511=EDGE_CURVE('',#616,#619,#699,.T.);
#512=EDGE_CURVE('',#581,#552,#700,.F.);
#513=EDGE_CURVE('',#553,#585,#701,.T.);
#514=EDGE_CURVE('',#584,#554,#702,.F.);
#515=EDGE_CURVE('',#555,#583,#703,.T.);
#516=EDGE_CURVE('',#550,#582,#704,.T.);
#517=EDGE_CURVE('',#580,#551,#705,.F.);
#518=EDGE_CURVE('',#587,#572,#20,.T.);
#519=EDGE_CURVE('',#575,#589,#21,.T.);
#520=EDGE_CURVE('',#577,#568,#22,.T.);
#521=EDGE_CURVE('',#573,#586,#23,.T.);
#522=EDGE_CURVE('',#579,#570,#24,.T.);
#523=EDGE_CURVE('',#569,#576,#25,.T.);
#524=EDGE_CURVE('',#571,#578,#26,.T.);
#525=EDGE_CURVE('',#590,#574,#27,.T.);
#526=VERTEX_POINT('',#1377);
#527=VERTEX_POINT('',#1378);
#528=VERTEX_POINT('',#1380);
#529=VERTEX_POINT('',#1382);
#530=VERTEX_POINT('',#1386);
#531=VERTEX_POINT('',#1387);
#532=VERTEX_POINT('',#1389);
#533=VERTEX_POINT('',#1391);
#534=VERTEX_POINT('',#1395);
#535=VERTEX_POINT('',#1396);
#536=VERTEX_POINT('',#1398);
#537=VERTEX_POINT('',#1400);
#538=VERTEX_POINT('',#1404);
#539=VERTEX_POINT('',#1405);
#540=VERTEX_POINT('',#1407);
#541=VERTEX_POINT('',#1409);
#542=VERTEX_POINT('',#1413);
#543=VERTEX_POINT('',#1414);
#544=VERTEX_POINT('',#1416);
#545=VERTEX_POINT('',#1418);
#546=VERTEX_POINT('',#1422);
#547=VERTEX_POINT('',#1423);
#548=VERTEX_POINT('',#1425);
#549=VERTEX_POINT('',#1427);
#550=VERTEX_POINT('',#1430);
#551=VERTEX_POINT('',#1431);
#552=VERTEX_POINT('',#1433);
#553=VERTEX_POINT('',#1435);
#554=VERTEX_POINT('',#1437);
#555=VERTEX_POINT('',#1439);
#556=VERTEX_POINT('',#1443);
#557=VERTEX_POINT('',#1444);
#558=VERTEX_POINT('',#1446);
#559=VERTEX_POINT('',#1448);
#560=VERTEX_POINT('',#1452);
#561=VERTEX_POINT('',#1453);
#562=VERTEX_POINT('',#1455);
#563=VERTEX_POINT('',#1457);
#564=VERTEX_POINT('',#1461);
#565=VERTEX_POINT('',#1462);
#566=VERTEX_POINT('',#1464);
#567=VERTEX_POINT('',#1466);
#568=VERTEX_POINT('',#1470);
#569=VERTEX_POINT('',#1472);
#570=VERTEX_POINT('',#1476);
#571=VERTEX_POINT('',#1478);
#572=VERTEX_POINT('',#1482);
#573=VERTEX_POINT('',#1484);
#574=VERTEX_POINT('',#1488);
#575=VERTEX_POINT('',#1490);
#576=VERTEX_POINT('',#1554);
#577=VERTEX_POINT('',#1555);
#578=VERTEX_POINT('',#1559);
#579=VERTEX_POINT('',#1560);
#580=VERTEX_POINT('',#1564);
#581=VERTEX_POINT('',#1565);
#582=VERTEX_POINT('',#1567);
#583=VERTEX_POINT('',#1569);
#584=VERTEX_POINT('',#1571);
#585=VERTEX_POINT('',#1573);
#586=VERTEX_POINT('',#1576);
#587=VERTEX_POINT('',#1577);
#588=VERTEX_POINT('',#1581);
#589=VERTEX_POINT('',#1583);
#590=VERTEX_POINT('',#1584);
#591=VERTEX_POINT('',#1588);
#592=VERTEX_POINT('',#1589);
#593=VERTEX_POINT('',#1591);
#594=VERTEX_POINT('',#1593);
#595=VERTEX_POINT('',#1595);
#596=VERTEX_POINT('',#1597);
#597=VERTEX_POINT('',#1599);
#598=VERTEX_POINT('',#1601);
#599=VERTEX_POINT('',#1605);
#600=VERTEX_POINT('',#1606);
#601=VERTEX_POINT('',#1608);
#602=VERTEX_POINT('',#1610);
#603=VERTEX_POINT('',#1614);
#604=VERTEX_POINT('',#1616);
#605=VERTEX_POINT('',#1620);
#606=VERTEX_POINT('',#1622);
#607=VERTEX_POINT('',#1629);
#608=VERTEX_POINT('',#1631);
#609=VERTEX_POINT('',#1632);
#610=VERTEX_POINT('',#1634);
#611=VERTEX_POINT('',#1636);
#612=VERTEX_POINT('',#1638);
#613=VERTEX_POINT('',#1640);
#614=VERTEX_POINT('',#1642);
#615=VERTEX_POINT('',#1644);
#616=VERTEX_POINT('',#1661);
#617=VERTEX_POINT('',#1663);
#618=VERTEX_POINT('',#1667);
#619=VERTEX_POINT('',#1671);
#620=LINE('',#1376,#706);
#621=LINE('',#1381,#707);
#622=LINE('',#1388,#708);
#623=LINE('',#1392,#709);
#624=LINE('',#1397,#710);
#625=LINE('',#1401,#711);
#626=LINE('',#1406,#712);
#627=LINE('',#1410,#713);
#628=LINE('',#1415,#714);
#629=LINE('',#1419,#715);
#630=LINE('',#1421,#716);
#631=LINE('',#1424,#717);
#632=LINE('',#1426,#718);
#633=LINE('',#1428,#719);
#634=LINE('',#1429,#720);
#635=LINE('',#1434,#721);
#636=LINE('',#1438,#722);
#637=LINE('',#1440,#723);
#638=LINE('',#1442,#724);
#639=LINE('',#1447,#725);
#640=LINE('',#1451,#726);
#641=LINE('',#1456,#727);
#642=LINE('',#1460,#728);
#643=LINE('',#1465,#729);
#644=LINE('',#1469,#730);
#645=LINE('',#1473,#731);
#646=LINE('',#1475,#732);
#647=LINE('',#1479,#733);
#648=LINE('',#1481,#734);
#649=LINE('',#1485,#735);
#650=LINE('',#1487,#736);
#651=LINE('',#1491,#737);
#652=LINE('',#1556,#738);
#653=LINE('',#1557,#739);
#654=LINE('',#1561,#740);
#655=LINE('',#1562,#741);
#656=LINE('',#1566,#742);
#657=LINE('',#1568,#743);
#658=LINE('',#1570,#744);
#659=LINE('',#1574,#745);
#660=LINE('',#1578,#746);
#661=LINE('',#1579,#747);
#662=LINE('',#1585,#748);
#663=LINE('',#1586,#749);
#664=LINE('',#1587,#750);
#665=LINE('',#1592,#751);
#666=LINE('',#1596,#752);
#667=LINE('',#1600,#753);
#668=LINE('',#1604,#754);
#669=LINE('',#1607,#755);
#670=LINE('',#1609,#756);
#671=LINE('',#1611,#757);
#672=LINE('',#1613,#758);
#673=LINE('',#1615,#759);
#674=LINE('',#1617,#760);
#675=LINE('',#1619,#761);
#676=LINE('',#1621,#762);
#677=LINE('',#1623,#763);
#678=LINE('',#1625,#764);
#679=LINE('',#1626,#765);
#680=LINE('',#1630,#766);
#681=LINE('',#1635,#767);
#682=LINE('',#1639,#768);
#683=LINE('',#1643,#769);
#684=LINE('',#1648,#770);
#685=LINE('',#1649,#771);
#686=LINE('',#1651,#772);
#687=LINE('',#1652,#773);
#688=LINE('',#1654,#774);
#689=LINE('',#1655,#775);
#690=LINE('',#1657,#776);
#691=LINE('',#1658,#777);
#692=LINE('',#1660,#778);
#693=LINE('',#1662,#779);
#694=LINE('',#1664,#780);
#695=LINE('',#1666,#781);
#696=LINE('',#1668,#782);
#697=LINE('',#1670,#783);
#698=LINE('',#1672,#784);
#699=LINE('',#1674,#785);
#700=LINE('',#1677,#786);
#701=LINE('',#1678,#787);
#702=LINE('',#1680,#788);
#703=LINE('',#1681,#789);
#704=LINE('',#1683,#790);
#705=LINE('',#1685,#791);
#706=VECTOR('',#1104,1.);
#707=VECTOR('',#1107,1.);
#708=VECTOR('',#1114,1.);
#709=VECTOR('',#1117,1.);
#710=VECTOR('',#1122,1.);
#711=VECTOR('',#1125,1.);
#712=VECTOR('',#1130,1.);
#713=VECTOR('',#1133,1.);
#714=VECTOR('',#1138,1.);
#715=VECTOR('',#1141,1.);
#716=VECTOR('',#1144,1.);
#717=VECTOR('',#1145,1.);
#718=VECTOR('',#1146,1.);
#719=VECTOR('',#1147,1.);
#720=VECTOR('',#1148,1.);
#721=VECTOR('',#1151,1.);
#722=VECTOR('',#1154,1.);
#723=VECTOR('',#1155,1.);
#724=VECTOR('',#1158,1.);
#725=VECTOR('',#1161,1.);
#726=VECTOR('',#1166,1.);
#727=VECTOR('',#1169,1.);
#728=VECTOR('',#1174,1.);
#729=VECTOR('',#1177,1.);
#730=VECTOR('',#1182,1.);
#731=VECTOR('',#1185,1.);
#732=VECTOR('',#1188,1.);
#733=VECTOR('',#1191,1.);
#734=VECTOR('',#1194,1.);
#735=VECTOR('',#1197,1.);
#736=VECTOR('',#1200,1.);
#737=VECTOR('',#1203,1.);
#738=VECTOR('',#1216,1.);
#739=VECTOR('',#1217,1.);
#740=VECTOR('',#1220,1.);
#741=VECTOR('',#1221,1.);
#742=VECTOR('',#1224,1.);
#743=VECTOR('',#1225,1.);
#744=VECTOR('',#1226,1.);
#745=VECTOR('',#1229,1.);
#746=VECTOR('',#1232,1.);
#747=VECTOR('',#1233,1.);
#748=VECTOR('',#1238,1.);
#749=VECTOR('',#1239,1.);
#750=VECTOR('',#1240,1.);
#751=VECTOR('',#1243,1.);
#752=VECTOR('',#1246,1.);
#753=VECTOR('',#1249,1.);
#754=VECTOR('',#1254,1.);
#755=VECTOR('',#1255,1.);
#756=VECTOR('',#1256,1.);
#757=VECTOR('',#1257,1.);
#758=VECTOR('',#1260,1.);
#759=VECTOR('',#1261,1.);
#760=VECTOR('',#1262,1.);
#761=VECTOR('',#1265,1.);
#762=VECTOR('',#1266,1.);
#763=VECTOR('',#1267,1.);
#764=VECTOR('',#1270,1.);
#765=VECTOR('',#1271,1.);
#766=VECTOR('',#1276,1.);
#767=VECTOR('',#1279,1.);
#768=VECTOR('',#1282,1.);
#769=VECTOR('',#1285,1.);
#770=VECTOR('',#1292,1.);
#771=VECTOR('',#1293,1.);
#772=VECTOR('',#1296,1.);
#773=VECTOR('',#1297,1.);
#774=VECTOR('',#1300,1.);
#775=VECTOR('',#1301,1.);
#776=VECTOR('',#1304,1.);
#777=VECTOR('',#1305,1.);
#778=VECTOR('',#1308,1.);
#779=VECTOR('',#1309,1.);
#780=VECTOR('',#1310,1.);
#781=VECTOR('',#1313,1.);
#782=VECTOR('',#1314,1.);
#783=VECTOR('',#1317,1.);
#784=VECTOR('',#1318,1.);
#785=VECTOR('',#1321,1.);
#786=VECTOR('',#1326,1.);
#787=VECTOR('',#1327,1.);
#788=VECTOR('',#1330,1.);
#789=VECTOR('',#1331,1.);
#790=VECTOR('',#1334,1.);
#791=VECTOR('',#1337,1.);
#792=EDGE_LOOP('',(#106,#107,#108,#109));
#793=EDGE_LOOP('',(#110,#111,#112,#113));
#794=EDGE_LOOP('',(#114,#115,#116,#117));
#795=EDGE_LOOP('',(#118,#119,#120,#121));
#796=EDGE_LOOP('',(#122,#123,#124,#125));
#797=EDGE_LOOP('',(#126,#127,#128,#129));
#798=EDGE_LOOP('',(#130,#131,#132,#133,#134,#135));
#799=EDGE_LOOP('',(#136,#137,#138,#139));
#800=EDGE_LOOP('',(#140,#141,#142,#143));
#801=EDGE_LOOP('',(#144,#145,#146,#147));
#802=EDGE_LOOP('',(#148,#149,#150,#151));
#803=EDGE_LOOP('',(#152,#153,#154,#155));
#804=EDGE_LOOP('',(#156,#157,#158,#159));
#805=EDGE_LOOP('',(#160,#161,#162,#163));
#806=EDGE_LOOP('',(#164,#165,#166,#167));
#807=EDGE_LOOP('',(#168,#169,#170,#171));
#808=EDGE_LOOP('',(#172,#173,#174,#175));
#809=EDGE_LOOP('',(#176,#177,#178,#179));
#810=EDGE_LOOP('',(#180,#181,#182,#183));
#811=EDGE_LOOP('',(#184,#185,#186,#187));
#812=EDGE_LOOP('',(#188,#189,#190,#191,#192,#193));
#813=EDGE_LOOP('',(#194,#195,#196,#197));
#814=EDGE_LOOP('',(#198));
#815=EDGE_LOOP('',(#199,#200,#201,#202));
#816=EDGE_LOOP('',(#203,#204,#205,#206,#207,#208,#209,#210));
#817=EDGE_LOOP('',(#211,#212,#213,#214));
#818=EDGE_LOOP('',(#215,#216,#217,#218));
#819=EDGE_LOOP('',(#219,#220,#221,#222));
#820=EDGE_LOOP('',(#223,#224,#225,#226));
#821=EDGE_LOOP('',(#227));
#822=EDGE_LOOP('',(#228,#229,#230,#231,#232,#233,#234,#235));
#823=EDGE_LOOP('',(#236,#237,#238,#239));
#824=EDGE_LOOP('',(#240));
#825=EDGE_LOOP('',(#241));
#826=EDGE_LOOP('',(#242,#243,#244,#245));
#827=EDGE_LOOP('',(#246,#247,#248,#249));
#828=EDGE_LOOP('',(#250,#251,#252,#253));
#829=EDGE_LOOP('',(#254,#255,#256,#257));
#830=EDGE_LOOP('',(#258,#259,#260,#261));
#831=EDGE_LOOP('',(#262,#263,#264,#265));
#832=EDGE_LOOP('',(#266,#267,#268,#269));
#833=EDGE_LOOP('',(#270,#271,#272,#273));
#834=EDGE_LOOP('',(#274,#275,#276,#277));
#835=EDGE_LOOP('',(#278,#279,#280,#281));
#836=EDGE_LOOP('',(#282,#283,#284,#285));
#837=EDGE_LOOP('',(#286,#287,#288,#289));
#838=EDGE_LOOP('',(#290,#291,#292,#293));
#839=EDGE_LOOP('',(#294,#295,#296,#297));
#840=EDGE_LOOP('',(#298,#299,#300,#301));
#841=EDGE_LOOP('',(#302,#303,#304,#305));
#842=EDGE_LOOP('',(#306,#307,#308,#309));
#843=EDGE_LOOP('',(#310,#311,#312,#313));
#844=EDGE_LOOP('',(#314,#315,#316,#317,#318,#319));
#845=EDGE_LOOP('',(#320,#321,#322,#323,#324,#325));
#846=EDGE_LOOP('',(#326,#327,#328,#329));
#847=EDGE_LOOP('',(#330,#331,#332,#333,#334,#335));
#848=EDGE_LOOP('',(#336,#337,#338,#339,#340,#341));
#849=EDGE_LOOP('',(#342,#343,#344,#345));
#850=EDGE_LOOP('',(#346,#347,#348,#349,#350,#351));
#851=EDGE_LOOP('',(#352,#353,#354,#355,#356,#357));
#852=EDGE_LOOP('',(#358,#359,#360,#361,#362,#363));
#853=EDGE_LOOP('',(#364,#365,#366,#367,#368,#369));
#854=EDGE_LOOP('',(#370,#371,#372,#373));
#855=EDGE_LOOP('',(#374,#375,#376,#377));
#856=EDGE_LOOP('',(#378,#379,#380,#381));
#857=EDGE_LOOP('',(#382,#383,#384,#385));
#858=FACE_BOUND('',#792,.T.);
#859=FACE_BOUND('',#793,.T.);
#860=FACE_BOUND('',#794,.T.);
#861=FACE_BOUND('',#795,.T.);
#862=FACE_BOUND('',#796,.T.);
#863=FACE_BOUND('',#797,.T.);
#864=FACE_BOUND('',#798,.T.);
#865=FACE_BOUND('',#799,.T.);
#866=FACE_BOUND('',#800,.T.);
#867=FACE_BOUND('',#801,.T.);
#868=FACE_BOUND('',#802,.T.);
#869=FACE_BOUND('',#803,.T.);
#870=FACE_BOUND('',#804,.T.);
#871=FACE_BOUND('',#805,.T.);
#872=FACE_BOUND('',#806,.T.);
#873=FACE_BOUND('',#807,.T.);
#874=FACE_BOUND('',#808,.T.);
#875=FACE_BOUND('',#809,.T.);
#876=FACE_BOUND('',#810,.T.);
#877=FACE_BOUND('',#811,.T.);
#878=FACE_BOUND('',#812,.T.);
#879=FACE_BOUND('',#813,.T.);
#880=FACE_BOUND('',#814,.T.);
#881=FACE_BOUND('',#815,.T.);
#882=FACE_BOUND('',#816,.T.);
#883=FACE_BOUND('',#817,.T.);
#884=FACE_BOUND('',#818,.T.);
#885=FACE_BOUND('',#819,.T.);
#886=FACE_BOUND('',#820,.T.);
#887=FACE_BOUND('',#821,.T.);
#888=FACE_BOUND('',#822,.T.);
#889=FACE_BOUND('',#823,.T.);
#890=FACE_BOUND('',#824,.T.);
#891=FACE_BOUND('',#825,.T.);
#892=FACE_BOUND('',#826,.T.);
#893=FACE_BOUND('',#827,.T.);
#894=FACE_BOUND('',#828,.T.);
#895=FACE_BOUND('',#829,.T.);
#896=FACE_BOUND('',#830,.T.);
#897=FACE_BOUND('',#831,.T.);
#898=FACE_BOUND('',#832,.T.);
#899=FACE_BOUND('',#833,.T.);
#900=FACE_BOUND('',#834,.T.);
#901=FACE_BOUND('',#835,.T.);
#902=FACE_BOUND('',#836,.T.);
#903=FACE_BOUND('',#837,.T.);
#904=FACE_BOUND('',#838,.T.);
#905=FACE_BOUND('',#839,.T.);
#906=FACE_BOUND('',#840,.T.);
#907=FACE_BOUND('',#841,.T.);
#908=FACE_BOUND('',#842,.T.);
#909=FACE_BOUND('',#843,.T.);
#910=FACE_BOUND('',#844,.T.);
#911=FACE_BOUND('',#845,.T.);
#912=FACE_BOUND('',#846,.T.);
#913=FACE_BOUND('',#847,.T.);
#914=FACE_BOUND('',#848,.T.);
#915=FACE_BOUND('',#849,.T.);
#916=FACE_BOUND('',#850,.T.);
#917=FACE_BOUND('',#851,.T.);
#918=FACE_BOUND('',#852,.T.);
#919=FACE_BOUND('',#853,.T.);
#920=FACE_BOUND('',#854,.T.);
#921=FACE_BOUND('',#855,.T.);
#922=FACE_BOUND('',#856,.T.);
#923=FACE_BOUND('',#857,.T.);
#924=CYLINDRICAL_SURFACE('',#1007,0.0639);
#925=CYLINDRICAL_SURFACE('',#1010,0.0639);
#926=CYLINDRICAL_SURFACE('',#1013,0.0639);
#927=CYLINDRICAL_SURFACE('',#1016,0.0639);
#928=CYLINDRICAL_SURFACE('',#1034,0.0629);
#929=CYLINDRICAL_SURFACE('',#1036,0.0629);
#930=CYLINDRICAL_SURFACE('',#1038,0.0629);
#931=CYLINDRICAL_SURFACE('',#1040,0.0629);
#932=CYLINDRICAL_SURFACE('',#1068,0.067);
#933=CYLINDRICAL_SURFACE('',#1082,0.005);
#934=CYLINDRICAL_SURFACE('',#1083,0.005);
#935=CYLINDRICAL_SURFACE('',#1084,0.005);
#936=CYLINDRICAL_SURFACE('',#1085,0.005);
#937=CYLINDRICAL_SURFACE('',#1088,0.0629);
#938=CYLINDRICAL_SURFACE('',#1091,0.0629);
#939=ADVANCED_FACE('',(#858),#924,.T.);
#940=ADVANCED_FACE('',(#859),#925,.T.);
#941=ADVANCED_FACE('',(#860),#926,.T.);
#942=ADVANCED_FACE('',(#861),#927,.T.);
#943=ADVANCED_FACE('',(#862),#36,.T.);
#944=ADVANCED_FACE('',(#863,#864),#37,.T.);
#945=ADVANCED_FACE('',(#865),#38,.T.);
#946=ADVANCED_FACE('',(#866),#39,.T.);
#947=ADVANCED_FACE('',(#867),#40,.T.);
#948=ADVANCED_FACE('',(#868),#928,.F.);
#949=ADVANCED_FACE('',(#869),#929,.F.);
#950=ADVANCED_FACE('',(#870),#930,.F.);
#951=ADVANCED_FACE('',(#871),#931,.F.);
#952=ADVANCED_FACE('',(#872),#28,.T.);
#953=ADVANCED_FACE('',(#873),#29,.T.);
#954=ADVANCED_FACE('',(#874),#30,.T.);
#955=ADVANCED_FACE('',(#875),#31,.T.);
#956=ADVANCED_FACE('',(#876,#877,#878,#879,#880,#881,#882),#41,.F.);
#957=ADVANCED_FACE('',(#883),#42,.T.);
#958=ADVANCED_FACE('',(#884),#43,.F.);
#959=ADVANCED_FACE('',(#885),#44,.F.);
#960=ADVANCED_FACE('',(#886),#45,.T.);
#961=ADVANCED_FACE('',(#887,#888,#889),#46,.T.);
#962=ADVANCED_FACE('',(#890,#891),#932,.T.);
#963=ADVANCED_FACE('',(#892),#47,.T.);
#964=ADVANCED_FACE('',(#893),#48,.F.);
#965=ADVANCED_FACE('',(#894),#49,.F.);
#966=ADVANCED_FACE('',(#895),#50,.T.);
#967=ADVANCED_FACE('',(#896),#51,.T.);
#968=ADVANCED_FACE('',(#897),#52,.F.);
#969=ADVANCED_FACE('',(#898),#53,.F.);
#970=ADVANCED_FACE('',(#899),#54,.T.);
#971=ADVANCED_FACE('',(#900,#901),#55,.T.);
#972=ADVANCED_FACE('',(#902),#56,.T.);
#973=ADVANCED_FACE('',(#903),#57,.T.);
#974=ADVANCED_FACE('',(#904),#58,.F.);
#975=ADVANCED_FACE('',(#905),#59,.F.);
#976=ADVANCED_FACE('',(#906),#933,.F.);
#977=ADVANCED_FACE('',(#907),#934,.F.);
#978=ADVANCED_FACE('',(#908),#935,.F.);
#979=ADVANCED_FACE('',(#909),#936,.F.);
#980=ADVANCED_FACE('',(#910),#60,.T.);
#981=ADVANCED_FACE('',(#911),#61,.T.);
#982=ADVANCED_FACE('',(#912),#937,.T.);
#983=ADVANCED_FACE('',(#913),#62,.T.);
#984=ADVANCED_FACE('',(#914),#63,.F.);
#985=ADVANCED_FACE('',(#915),#938,.T.);
#986=ADVANCED_FACE('',(#916),#64,.F.);
#987=ADVANCED_FACE('',(#917),#65,.F.);
#988=ADVANCED_FACE('',(#918),#66,.T.);
#989=ADVANCED_FACE('',(#919),#67,.F.);
#990=ADVANCED_FACE('',(#920),#32,.F.);
#991=ADVANCED_FACE('',(#921),#33,.F.);
#992=ADVANCED_FACE('',(#922),#34,.F.);
#993=ADVANCED_FACE('',(#923),#35,.F.);
#994=CLOSED_SHELL('',(#939,#940,#941,#942,#943,#944,#945,#946,#947,#948,
#949,#950,#951,#952,#953,#954,#955,#956,#957,#958,#959,#960,#961,#962,#963,
#964,#965,#966,#967,#968,#969,#970,#971,#972,#973,#974,#975,#976,#977,#978,
#979,#980,#981,#982,#983,#984,#985,#986,#987,#988,#989,#990,#991,#992,#993));
#995=STYLED_ITEM('',(#996),#1003);
#996=PRESENTATION_STYLE_ASSIGNMENT((#997));
#997=SURFACE_STYLE_USAGE(.BOTH.,#998);
#998=SURFACE_SIDE_STYLE('',(#999));
#999=SURFACE_STYLE_FILL_AREA(#1000);
#1000=FILL_AREA_STYLE('',(#1001));
#1001=FILL_AREA_STYLE_COLOUR('',#1002);
#1002=COLOUR_RGB('',0.615686274509804,0.811764705882353,0.929411764705882);
#1003=MANIFOLD_SOLID_BREP('ARCAD004',#994);
#1004=SHAPE_DEFINITION_REPRESENTATION(#1750,#1005);
#1005=SHAPE_REPRESENTATION('ARCAD004',(#1006),#1745);
#1006=AXIS2_PLACEMENT_3D('',#1374,#1100,#1101);
#1007=AXIS2_PLACEMENT_3D('',#1375,#1102,#1103);
#1008=AXIS2_PLACEMENT_3D('',#1379,#1105,#1106);
#1009=AXIS2_PLACEMENT_3D('',#1383,#1108,#1109);
#1010=AXIS2_PLACEMENT_3D('',#1384,#1110,#1111);
#1011=AXIS2_PLACEMENT_3D('',#1385,#1112,#1113);
#1012=AXIS2_PLACEMENT_3D('',#1390,#1115,#1116);
#1013=AXIS2_PLACEMENT_3D('',#1393,#1118,#1119);
#1014=AXIS2_PLACEMENT_3D('',#1394,#1120,#1121);
#1015=AXIS2_PLACEMENT_3D('',#1399,#1123,#1124);
#1016=AXIS2_PLACEMENT_3D('',#1402,#1126,#1127);
#1017=AXIS2_PLACEMENT_3D('',#1403,#1128,#1129);
#1018=AXIS2_PLACEMENT_3D('',#1408,#1131,#1132);
#1019=AXIS2_PLACEMENT_3D('',#1411,#1134,#1135);
#1020=AXIS2_PLACEMENT_3D('',#1412,#1136,#1137);
#1021=AXIS2_PLACEMENT_3D('',#1417,#1139,#1140);
#1022=AXIS2_PLACEMENT_3D('',#1420,#1142,#1143);
#1023=AXIS2_PLACEMENT_3D('',#1432,#1149,#1150);
#1024=AXIS2_PLACEMENT_3D('',#1436,#1152,#1153);
#1025=AXIS2_PLACEMENT_3D('',#1441,#1156,#1157);
#1026=AXIS2_PLACEMENT_3D('',#1445,#1159,#1160);
#1027=AXIS2_PLACEMENT_3D('',#1449,#1162,#1163);
#1028=AXIS2_PLACEMENT_3D('',#1450,#1164,#1165);
#1029=AXIS2_PLACEMENT_3D('',#1454,#1167,#1168);
#1030=AXIS2_PLACEMENT_3D('',#1458,#1170,#1171);
#1031=AXIS2_PLACEMENT_3D('',#1459,#1172,#1173);
#1032=AXIS2_PLACEMENT_3D('',#1463,#1175,#1176);
#1033=AXIS2_PLACEMENT_3D('',#1467,#1178,#1179);
#1034=AXIS2_PLACEMENT_3D('',#1468,#1180,#1181);
#1035=AXIS2_PLACEMENT_3D('',#1471,#1183,#1184);
#1036=AXIS2_PLACEMENT_3D('',#1474,#1186,#1187);
#1037=AXIS2_PLACEMENT_3D('',#1477,#1189,#1190);
#1038=AXIS2_PLACEMENT_3D('',#1480,#1192,#1193);
#1039=AXIS2_PLACEMENT_3D('',#1483,#1195,#1196);
#1040=AXIS2_PLACEMENT_3D('',#1486,#1198,#1199);
#1041=AXIS2_PLACEMENT_3D('',#1489,#1201,#1202);
#1042=AXIS2_PLACEMENT_3D('',#1492,#1204,#1205);
#1043=AXIS2_PLACEMENT_3D('',#1507,#1206,#1207);
#1044=AXIS2_PLACEMENT_3D('',#1522,#1208,#1209);
#1045=AXIS2_PLACEMENT_3D('',#1537,#1210,#1211);
#1046=AXIS2_PLACEMENT_3D('',#1552,#1212,#1213);
#1047=AXIS2_PLACEMENT_3D('',#1553,#1214,#1215);
#1048=AXIS2_PLACEMENT_3D('',#1558,#1218,#1219);
#1049=AXIS2_PLACEMENT_3D('',#1563,#1222,#1223);
#1050=AXIS2_PLACEMENT_3D('',#1572,#1227,#1228);
#1051=AXIS2_PLACEMENT_3D('',#1575,#1230,#1231);
#1052=AXIS2_PLACEMENT_3D('',#1580,#1234,#1235);
#1053=AXIS2_PLACEMENT_3D('',#1582,#1236,#1237);
#1054=AXIS2_PLACEMENT_3D('',#1590,#1241,#1242);
#1055=AXIS2_PLACEMENT_3D('',#1594,#1244,#1245);
#1056=AXIS2_PLACEMENT_3D('',#1598,#1247,#1248);
#1057=AXIS2_PLACEMENT_3D('',#1602,#1250,#1251);
#1058=AXIS2_PLACEMENT_3D('',#1603,#1252,#1253);
#1059=AXIS2_PLACEMENT_3D('',#1612,#1258,#1259);
#1060=AXIS2_PLACEMENT_3D('',#1618,#1263,#1264);
#1061=AXIS2_PLACEMENT_3D('',#1624,#1268,#1269);
#1062=AXIS2_PLACEMENT_3D('',#1627,#1272,#1273);
#1063=AXIS2_PLACEMENT_3D('',#1628,#1274,#1275);
#1064=AXIS2_PLACEMENT_3D('',#1633,#1277,#1278);
#1065=AXIS2_PLACEMENT_3D('',#1637,#1280,#1281);
#1066=AXIS2_PLACEMENT_3D('',#1641,#1283,#1284);
#1067=AXIS2_PLACEMENT_3D('',#1645,#1286,#1287);
#1068=AXIS2_PLACEMENT_3D('',#1646,#1288,#1289);
#1069=AXIS2_PLACEMENT_3D('',#1647,#1290,#1291);
#1070=AXIS2_PLACEMENT_3D('',#1650,#1294,#1295);
#1071=AXIS2_PLACEMENT_3D('',#1653,#1298,#1299);
#1072=AXIS2_PLACEMENT_3D('',#1656,#1302,#1303);
#1073=AXIS2_PLACEMENT_3D('',#1659,#1306,#1307);
#1074=AXIS2_PLACEMENT_3D('',#1665,#1311,#1312);
#1075=AXIS2_PLACEMENT_3D('',#1669,#1315,#1316);
#1076=AXIS2_PLACEMENT_3D('',#1673,#1319,#1320);
#1077=AXIS2_PLACEMENT_3D('',#1675,#1322,#1323);
#1078=AXIS2_PLACEMENT_3D('',#1676,#1324,#1325);
#1079=AXIS2_PLACEMENT_3D('',#1679,#1328,#1329);
#1080=AXIS2_PLACEMENT_3D('',#1682,#1332,#1333);
#1081=AXIS2_PLACEMENT_3D('',#1684,#1335,#1336);
#1082=AXIS2_PLACEMENT_3D('',#1686,#1338,#1339);
#1083=AXIS2_PLACEMENT_3D('',#1687,#1340,#1341);
#1084=AXIS2_PLACEMENT_3D('',#1688,#1342,#1343);
#1085=AXIS2_PLACEMENT_3D('',#1689,#1344,#1345);
#1086=AXIS2_PLACEMENT_3D('',#1690,#1346,#1347);
#1087=AXIS2_PLACEMENT_3D('',#1696,#1348,#1349);
#1088=AXIS2_PLACEMENT_3D('',#1702,#1350,#1351);
#1089=AXIS2_PLACEMENT_3D('',#1703,#1352,#1353);
#1090=AXIS2_PLACEMENT_3D('',#1709,#1354,#1355);
#1091=AXIS2_PLACEMENT_3D('',#1715,#1356,#1357);
#1092=AXIS2_PLACEMENT_3D('',#1716,#1358,#1359);
#1093=AXIS2_PLACEMENT_3D('',#1722,#1360,#1361);
#1094=AXIS2_PLACEMENT_3D('',#1728,#1362,#1363);
#1095=AXIS2_PLACEMENT_3D('',#1734,#1364,#1365);
#1096=AXIS2_PLACEMENT_3D('',#1740,#1366,#1367);
#1097=AXIS2_PLACEMENT_3D('',#1741,#1368,#1369);
#1098=AXIS2_PLACEMENT_3D('',#1742,#1370,#1371);
#1099=AXIS2_PLACEMENT_3D('',#1743,#1372,#1373);
#1100=DIRECTION('',(0.,0.,1.));
#1101=DIRECTION('',(1.,0.,0.));
#1102=DIRECTION('',(0.,1.,0.));
#1103=DIRECTION('',(1.,0.,0.));
#1104=DIRECTION('',(0.,1.,0.));
#1105=DIRECTION('',(0.,1.,0.));
#1106=DIRECTION('',(1.,0.,0.));
#1107=DIRECTION('',(0.,1.,0.));
#1108=DIRECTION('',(0.,-1.,0.));
#1109=DIRECTION('',(-1.,0.,0.));
#1110=DIRECTION('',(0.,1.,0.));
#1111=DIRECTION('',(1.,0.,0.));
#1112=DIRECTION('',(0.,1.,0.));
#1113=DIRECTION('',(1.,0.,0.));
#1114=DIRECTION('',(0.,1.,0.));
#1115=DIRECTION('',(0.,-1.,0.));
#1116=DIRECTION('',(-1.,0.,0.));
#1117=DIRECTION('',(0.,1.,0.));
#1118=DIRECTION('',(0.,1.,0.));
#1119=DIRECTION('',(1.,0.,0.));
#1120=DIRECTION('',(0.,-1.,0.));
#1121=DIRECTION('',(-1.,0.,0.));
#1122=DIRECTION('',(0.,1.,0.));
#1123=DIRECTION('',(0.,1.,0.));
#1124=DIRECTION('',(1.,0.,0.));
#1125=DIRECTION('',(0.,1.,0.));
#1126=DIRECTION('',(0.,1.,0.));
#1127=DIRECTION('',(1.,0.,0.));
#1128=DIRECTION('',(0.,-1.,0.));
#1129=DIRECTION('',(-1.,0.,0.));
#1130=DIRECTION('',(0.,1.,0.));
#1131=DIRECTION('',(0.,1.,0.));
#1132=DIRECTION('',(1.,0.,0.));
#1133=DIRECTION('',(0.,1.,0.));
#1134=DIRECTION('',(0.,-1.,0.));
#1135=DIRECTION('',(1.,0.,0.));
#1136=DIRECTION('',(0.,-1.,0.));
#1137=DIRECTION('',(-1.,0.,0.));
#1138=DIRECTION('',(0.,0.,-1.));
#1139=DIRECTION('',(0.,-1.,0.));
#1140=DIRECTION('',(-1.,0.,0.));
#1141=DIRECTION('',(0.,0.,-1.));
#1142=DIRECTION('',(0.,-1.,0.));
#1143=DIRECTION('',(1.,0.,0.));
#1144=DIRECTION('',(0.,0.,-1.));
#1145=DIRECTION('',(1.,0.,0.));
#1146=DIRECTION('',(0.,0.,-1.));
#1147=DIRECTION('',(1.,0.,0.));
#1148=DIRECTION('',(1.,0.,0.));
#1149=DIRECTION('',(0.,-1.,0.));
#1150=DIRECTION('',(-1.,0.,0.));
#1151=DIRECTION('',(0.,0.,-1.));
#1152=DIRECTION('',(0.,-1.,0.));
#1153=DIRECTION('',(-1.,0.,0.));
#1154=DIRECTION('',(1.,0.,0.));
#1155=DIRECTION('',(0.,0.,-1.));
#1156=DIRECTION('',(0.,-1.,0.));
#1157=DIRECTION('',(1.,0.,0.));
#1158=DIRECTION('',(-1.,0.,0.));
#1159=DIRECTION('',(0.,-1.,0.));
#1160=DIRECTION('',(-1.,0.,0.));
#1161=DIRECTION('',(-1.,0.,0.));
#1162=DIRECTION('',(0.,-1.,0.));
#1163=DIRECTION('',(-1.,0.,0.));
#1164=DIRECTION('',(0.,-1.,0.));
#1165=DIRECTION('',(1.,0.,0.));
#1166=DIRECTION('',(-1.,0.,0.));
#1167=DIRECTION('',(0.,-1.,0.));
#1168=DIRECTION('',(-1.,0.,0.));
#1169=DIRECTION('',(-1.,0.,0.));
#1170=DIRECTION('',(0.,-1.,0.));
#1171=DIRECTION('',(-1.,0.,0.));
#1172=DIRECTION('',(0.,-1.,0.));
#1173=DIRECTION('',(1.,0.,0.));
#1174=DIRECTION('',(0.,0.,-1.));
#1175=DIRECTION('',(0.,-1.,0.));
#1176=DIRECTION('',(-1.,0.,0.));
#1177=DIRECTION('',(0.,0.,-1.));
#1178=DIRECTION('',(0.,-1.,0.));
#1179=DIRECTION('',(-1.,0.,0.));
#1180=DIRECTION('',(0.,1.,0.));
#1181=DIRECTION('',(1.,0.,0.));
#1182=DIRECTION('',(0.,-1.,0.));
#1183=DIRECTION('',(0.,1.,0.));
#1184=DIRECTION('',(1.,0.,0.));
#1185=DIRECTION('',(0.,-1.,0.));
#1186=DIRECTION('',(0.,1.,0.));
#1187=DIRECTION('',(1.,0.,0.));
#1188=DIRECTION('',(0.,-1.,0.));
#1189=DIRECTION('',(0.,1.,0.));
#1190=DIRECTION('',(1.,0.,0.));
#1191=DIRECTION('',(0.,-1.,0.));
#1192=DIRECTION('',(0.,1.,0.));
#1193=DIRECTION('',(1.,0.,0.));
#1194=DIRECTION('',(0.,-1.,0.));
#1195=DIRECTION('',(0.,1.,0.));
#1196=DIRECTION('',(1.,0.,0.));
#1197=DIRECTION('',(0.,-1.,0.));
#1198=DIRECTION('',(0.,1.,0.));
#1199=DIRECTION('',(1.,0.,0.));
#1200=DIRECTION('',(0.,-1.,0.));
#1201=DIRECTION('',(0.,1.,0.));
#1202=DIRECTION('',(1.,0.,0.));
#1203=DIRECTION('',(0.,-1.,0.));
#1204=DIRECTION('',(0.,-1.,0.));
#1205=DIRECTION('',(-1.,0.,0.));
#1206=DIRECTION('',(0.,-1.,0.));
#1207=DIRECTION('',(-1.,0.,0.));
#1208=DIRECTION('',(0.,-1.,0.));
#1209=DIRECTION('',(-1.,0.,0.));
#1210=DIRECTION('',(0.,-1.,0.));
#1211=DIRECTION('',(-1.,0.,0.));
#1212=DIRECTION('',(0.,1.,0.));
#1213=DIRECTION('',(1.,0.,0.));
#1214=DIRECTION('',(0.,1.,0.));
#1215=DIRECTION('',(1.,0.,0.));
#1216=DIRECTION('',(-1.,0.,0.));
#1217=DIRECTION('',(-1.,0.,0.));
#1218=DIRECTION('',(0.,1.,0.));
#1219=DIRECTION('',(1.,0.,0.));
#1220=DIRECTION('',(0.,0.,-1.));
#1221=DIRECTION('',(0.,0.,-1.));
#1222=DIRECTION('',(0.,1.,0.));
#1223=DIRECTION('',(1.,0.,0.));
#1224=DIRECTION('',(1.,0.,0.));
#1225=DIRECTION('',(0.,0.,-1.));
#1226=DIRECTION('',(1.,0.,0.));
#1227=DIRECTION('',(0.,1.,0.));
#1228=DIRECTION('',(1.,0.,0.));
#1229=DIRECTION('',(0.,0.,-1.));
#1230=DIRECTION('',(0.,1.,0.));
#1231=DIRECTION('',(1.,0.,0.));
#1232=DIRECTION('',(0.,0.,-1.));
#1233=DIRECTION('',(0.,0.,-1.));
#1234=DIRECTION('',(0.,1.,0.));
#1235=DIRECTION('',(1.,0.,0.));
#1236=DIRECTION('',(0.,1.,0.));
#1237=DIRECTION('',(1.,0.,0.));
#1238=DIRECTION('',(-1.,0.,0.));
#1239=DIRECTION('',(-1.,0.,0.));
#1240=DIRECTION('',(8.67361737988404E-17,0.,1.));
#1241=DIRECTION('',(0.,1.,0.));
#1242=DIRECTION('',(1.,0.,0.));
#1243=DIRECTION('',(-1.,0.,8.67361737988404E-17));
#1244=DIRECTION('',(0.,1.,0.));
#1245=DIRECTION('',(1.,0.,0.));
#1246=DIRECTION('',(8.67361737988404E-17,0.,1.));
#1247=DIRECTION('',(0.,1.,0.));
#1248=DIRECTION('',(1.,0.,0.));
#1249=DIRECTION('',(-1.,0.,8.67361737988404E-17));
#1250=DIRECTION('',(0.,1.,0.));
#1251=DIRECTION('',(1.,0.,0.));
#1252=DIRECTION('',(0.,0.,1.));
#1253=DIRECTION('',(0.,-1.,0.));
#1254=DIRECTION('',(0.,1.,0.));
#1255=DIRECTION('',(1.,0.,0.));
#1256=DIRECTION('',(0.,1.,0.));
#1257=DIRECTION('',(1.,0.,0.));
#1258=DIRECTION('',(-1.,0.,0.));
#1259=DIRECTION('',(0.,1.,0.));
#1260=DIRECTION('',(0.,0.,1.));
#1261=DIRECTION('',(0.,0.,1.));
#1262=DIRECTION('',(0.,1.,0.));
#1263=DIRECTION('',(0.,0.,1.));
#1264=DIRECTION('',(0.,-1.,0.));
#1265=DIRECTION('',(1.,0.,0.));
#1266=DIRECTION('',(1.,0.,0.));
#1267=DIRECTION('',(0.,1.,0.));
#1268=DIRECTION('',(-1.,0.,0.));
#1269=DIRECTION('',(0.,1.,0.));
#1270=DIRECTION('',(0.,0.,1.));
#1271=DIRECTION('',(0.,0.,1.));
#1272=DIRECTION('',(0.,1.,0.));
#1273=DIRECTION('',(1.,0.,0.));
#1274=DIRECTION('',(0.,1.,0.));
#1275=DIRECTION('',(1.,0.,0.));
#1276=DIRECTION('',(-1.,0.,8.67361737988404E-17));
#1277=DIRECTION('',(0.,1.,0.));
#1278=DIRECTION('',(1.,0.,0.));
#1279=DIRECTION('',(8.67361737988404E-17,0.,1.));
#1280=DIRECTION('',(0.,1.,0.));
#1281=DIRECTION('',(1.,0.,0.));
#1282=DIRECTION('',(-1.,0.,8.67361737988404E-17));
#1283=DIRECTION('',(0.,1.,0.));
#1284=DIRECTION('',(1.,0.,0.));
#1285=DIRECTION('',(8.67361737988404E-17,0.,1.));
#1286=DIRECTION('',(0.,1.,0.));
#1287=DIRECTION('',(1.,0.,0.));
#1288=DIRECTION('',(0.,-1.,0.));
#1289=DIRECTION('',(-1.,0.,0.));
#1290=DIRECTION('',(-1.,0.,8.67361737988404E-17));
#1291=DIRECTION('',(8.67361737988404E-17,0.,1.));
#1292=DIRECTION('',(0.,1.,0.));
#1293=DIRECTION('',(0.,1.,0.));
#1294=DIRECTION('',(-8.67361737988404E-17,0.,-1.));
#1295=DIRECTION('',(-1.,0.,8.67361737988404E-17));
#1296=DIRECTION('',(0.,1.,0.));
#1297=DIRECTION('',(0.,1.,0.));
#1298=DIRECTION('',(-1.,0.,8.67361737988404E-17));
#1299=DIRECTION('',(8.67361737988404E-17,0.,1.));
#1300=DIRECTION('',(0.,1.,0.));
#1301=DIRECTION('',(0.,1.,0.));
#1302=DIRECTION('',(-8.67361737988404E-17,0.,-1.));
#1303=DIRECTION('',(-1.,0.,8.67361737988404E-17));
#1304=DIRECTION('',(0.,1.,0.));
#1305=DIRECTION('',(0.,1.,0.));
#1306=DIRECTION('',(0.,0.,-1.));
#1307=DIRECTION('',(0.,1.,0.));
#1308=DIRECTION('',(0.,-1.,0.));
#1309=DIRECTION('',(0.,-1.,0.));
#1310=DIRECTION('',(1.,0.,0.));
#1311=DIRECTION('',(-1.,0.,0.));
#1312=DIRECTION('',(0.,1.,0.));
#1313=DIRECTION('',(0.,-1.,0.));
#1314=DIRECTION('',(0.,0.,-1.));
#1315=DIRECTION('',(0.,0.,-1.));
#1316=DIRECTION('',(0.,1.,0.));
#1317=DIRECTION('',(0.,-1.,0.));
#1318=DIRECTION('',(1.,0.,0.));
#1319=DIRECTION('',(-1.,0.,0.));
#1320=DIRECTION('',(0.,1.,0.));
#1321=DIRECTION('',(0.,0.,-1.));
#1322=DIRECTION('',(0.,-1.,0.));
#1323=DIRECTION('',(1.,0.,0.));
#1324=DIRECTION('',(1.,0.,0.));
#1325=DIRECTION('',(0.,-1.,0.));
#1326=DIRECTION('',(0.,1.,0.));
#1327=DIRECTION('',(0.,1.,0.));
#1328=DIRECTION('',(0.,0.,1.));
#1329=DIRECTION('',(0.,-1.,0.));
#1330=DIRECTION('',(0.,1.,0.));
#1331=DIRECTION('',(0.,1.,0.));
#1332=DIRECTION('',(1.,0.,0.));
#1333=DIRECTION('',(0.,-1.,0.));
#1334=DIRECTION('',(0.,1.,0.));
#1335=DIRECTION('',(0.,0.,1.));
#1336=DIRECTION('',(0.,-1.,0.));
#1337=DIRECTION('',(0.,1.,0.));
#1338=DIRECTION('',(0.,1.,0.));
#1339=DIRECTION('',(1.,0.,0.));
#1340=DIRECTION('',(0.,-1.,0.));
#1341=DIRECTION('',(-1.,0.,0.));
#1342=DIRECTION('',(0.,-1.,0.));
#1343=DIRECTION('',(-1.,0.,0.));
#1344=DIRECTION('',(0.,1.,0.));
#1345=DIRECTION('',(1.,0.,0.));
#1346=DIRECTION('',(-1.,0.,0.));
#1347=DIRECTION('',(0.,1.,0.));
#1348=DIRECTION('',(0.,0.,1.));
#1349=DIRECTION('',(0.,-1.,0.));
#1350=DIRECTION('',(0.,-1.,0.));
#1351=DIRECTION('',(-1.,0.,0.));
#1352=DIRECTION('',(0.,0.,1.));
#1353=DIRECTION('',(0.,-1.,0.));
#1354=DIRECTION('',(-1.,0.,0.));
#1355=DIRECTION('',(0.,1.,0.));
#1356=DIRECTION('',(0.,-1.,0.));
#1357=DIRECTION('',(-1.,0.,0.));
#1358=DIRECTION('',(-1.,0.,0.));
#1359=DIRECTION('',(0.,1.,0.));
#1360=DIRECTION('',(0.,0.,1.));
#1361=DIRECTION('',(0.,-1.,0.));
#1362=DIRECTION('',(-1.,0.,0.));
#1363=DIRECTION('',(0.,1.,0.));
#1364=DIRECTION('',(0.,0.,1.));
#1365=DIRECTION('',(0.,-1.,0.));
#1366=DIRECTION('',(0.,1.,0.));
#1367=DIRECTION('',(1.,0.,0.));
#1368=DIRECTION('',(0.,1.,0.));
#1369=DIRECTION('',(1.,0.,0.));
#1370=DIRECTION('',(0.,1.,0.));
#1371=DIRECTION('',(1.,0.,0.));
#1372=DIRECTION('',(0.,1.,0.));
#1373=DIRECTION('',(1.,0.,0.));
#1374=CARTESIAN_POINT('',(0.,0.,0.));
#1375=CARTESIAN_POINT('',(0.,-0.002,3.9127465232758E-18));
#1376=CARTESIAN_POINT('',(-0.0025,-0.002,-0.0638510767332862));
#1377=CARTESIAN_POINT('',(-0.0025,0.,-0.0638510767332862));
#1378=CARTESIAN_POINT('',(-0.0025,-0.000999999999984602,-0.0638510767332882));
#1379=CARTESIAN_POINT('',(0.,0.,3.9127465232758E-18));
#1380=CARTESIAN_POINT('',(0.0025,0.,-0.0638510767332862));
#1381=CARTESIAN_POINT('',(0.0025,-0.002,-0.0638510767332862));
#1382=CARTESIAN_POINT('',(0.0025,-0.000999999999984602,-0.0638510767332882));
#1383=CARTESIAN_POINT('',(0.,-0.001,3.9127465232758E-18));
#1384=CARTESIAN_POINT('',(0.,-0.002,3.9127465232758E-18));
#1385=CARTESIAN_POINT('',(0.,0.,3.9127465232758E-18));
#1386=CARTESIAN_POINT('',(-0.0638510767332862,0.,0.0025));
#1387=CARTESIAN_POINT('',(-0.0638510767332862,0.,-0.0025));
#1388=CARTESIAN_POINT('',(-0.0638510767332862,-0.002,-0.0025));
#1389=CARTESIAN_POINT('',(-0.0638510767332862,-0.001,-0.0025));
#1390=CARTESIAN_POINT('',(0.,-0.001,3.9127465232758E-18));
#1391=CARTESIAN_POINT('',(-0.0638510767332862,-0.001,0.0025));
#1392=CARTESIAN_POINT('',(-0.0638510767332862,-0.002,0.0025));
#1393=CARTESIAN_POINT('',(0.,-0.002,3.9127465232758E-18));
#1394=CARTESIAN_POINT('',(0.,-0.001,3.9127465232758E-18));
#1395=CARTESIAN_POINT('',(0.0638510767332862,-0.001,-0.0025));
#1396=CARTESIAN_POINT('',(0.0638510767332862,-0.000999999999999688,0.0025));
#1397=CARTESIAN_POINT('',(0.0638510767332862,-0.002,-0.0025));
#1398=CARTESIAN_POINT('',(0.0638510767332862,0.,-0.0025));
#1399=CARTESIAN_POINT('',(0.,0.,3.9127465232758E-18));
#1400=CARTESIAN_POINT('',(0.0638510767332862,0.,0.0025));
#1401=CARTESIAN_POINT('',(0.0638510767332862,-0.002,0.0025));
#1402=CARTESIAN_POINT('',(0.,-0.002,3.9127465232758E-18));
#1403=CARTESIAN_POINT('',(0.,-0.001,3.9127465232758E-18));
#1404=CARTESIAN_POINT('',(0.0025,-0.001,0.0638510767332862));
#1405=CARTESIAN_POINT('',(-0.0025,-0.001,0.0638510767332862));
#1406=CARTESIAN_POINT('',(0.0025,-0.002,0.0638510767332862));
#1407=CARTESIAN_POINT('',(0.0025,0.,0.0638510767332862));
#1408=CARTESIAN_POINT('',(0.,0.,3.9127465232758E-18));
#1409=CARTESIAN_POINT('',(-0.0025,0.,0.0638510767332862));
#1410=CARTESIAN_POINT('',(-0.0025,-0.002,0.0638510767332862));
#1411=CARTESIAN_POINT('',(0.,-0.002,0.));
#1412=CARTESIAN_POINT('',(0.,-0.002,3.85151418331842E-18));
#1413=CARTESIAN_POINT('',(-0.0025,-0.002,-0.0628502983286476));
#1414=CARTESIAN_POINT('',(0.0025,-0.002,-0.0628502983286476));
#1415=CARTESIAN_POINT('',(-0.0025,-0.002,-0.06490182014577));
#1416=CARTESIAN_POINT('',(-0.0025,-0.002,-0.0638510767332862));
#1417=CARTESIAN_POINT('',(0.,-0.002,7.84692436553667E-18));
#1418=CARTESIAN_POINT('',(0.0025,-0.002,-0.0638510767332862));
#1419=CARTESIAN_POINT('',(0.0025,-0.002,-0.06490182014577));
#1420=CARTESIAN_POINT('',(0.,-0.002,0.));
#1421=CARTESIAN_POINT('',(0.0435,-0.002,3.46944695195361E-18));
#1422=CARTESIAN_POINT('',(0.0435,-0.002,0.0213));
#1423=CARTESIAN_POINT('',(0.0435,-0.002,-0.0213));
#1424=CARTESIAN_POINT('',(0.05,-0.002,0.0213));
#1425=CARTESIAN_POINT('',(0.0565,-0.002,0.0213));
#1426=CARTESIAN_POINT('',(0.0565,-0.002,3.46944695195361E-18));
#1427=CARTESIAN_POINT('',(0.0565,-0.002,-0.0213));
#1428=CARTESIAN_POINT('',(0.05,-0.002,-0.0213));
#1429=CARTESIAN_POINT('',(0.05,-0.002,-0.0233));
#1430=CARTESIAN_POINT('',(0.0415,-0.002,-0.0233));
#1431=CARTESIAN_POINT('',(0.0584253369695032,-0.002,-0.0233));
#1432=CARTESIAN_POINT('',(0.,-0.002,3.85151418331842E-18));
#1433=CARTESIAN_POINT('',(0.0585,-0.002,-0.0231119016958795));
#1434=CARTESIAN_POINT('',(0.0585,-0.002,0.));
#1435=CARTESIAN_POINT('',(0.0585,-0.002,0.0231119016958795));
#1436=CARTESIAN_POINT('',(0.,-0.002,3.85151418331842E-18));
#1437=CARTESIAN_POINT('',(0.0584253369695032,-0.002,0.0233));
#1438=CARTESIAN_POINT('',(0.05,-0.002,0.0233));
#1439=CARTESIAN_POINT('',(0.0415,-0.002,0.0233));
#1440=CARTESIAN_POINT('',(0.0415,-0.002,0.));
#1441=CARTESIAN_POINT('',(0.,-0.002,0.));
#1442=CARTESIAN_POINT('',(-0.06490182014577,-0.002,-0.0025));
#1443=CARTESIAN_POINT('',(-0.0628502983286476,-0.002,-0.00249999999999997));
#1444=CARTESIAN_POINT('',(-0.0638510767332862,-0.002,-0.0025));
#1445=CARTESIAN_POINT('',(0.,-0.002,3.85151418331842E-18));
#1446=CARTESIAN_POINT('',(-0.0628502983286476,-0.002,0.00249999999999997));
#1447=CARTESIAN_POINT('',(-0.06490182014577,-0.002,0.0025));
#1448=CARTESIAN_POINT('',(-0.0638510767332862,-0.002,0.0025));
#1449=CARTESIAN_POINT('',(0.,-0.002,7.84692436553667E-18));
#1450=CARTESIAN_POINT('',(0.,-0.002,0.));
#1451=CARTESIAN_POINT('',(0.06490182014577,-0.002,-0.0025));
#1452=CARTESIAN_POINT('',(0.0638510767332862,-0.002,-0.0025));
#1453=CARTESIAN_POINT('',(0.0628502983286476,-0.002,-0.0025));
#1454=CARTESIAN_POINT('',(0.,-0.002,7.84692436553667E-18));
#1455=CARTESIAN_POINT('',(0.0638510767332862,-0.002,0.0025));
#1456=CARTESIAN_POINT('',(0.06490182014577,-0.002,0.0025));
#1457=CARTESIAN_POINT('',(0.0628502983286476,-0.002,0.0025));
#1458=CARTESIAN_POINT('',(0.,-0.002,3.85151418331842E-18));
#1459=CARTESIAN_POINT('',(0.,-0.002,0.));
#1460=CARTESIAN_POINT('',(0.0025,-0.002,0.06490182014577));
#1461=CARTESIAN_POINT('',(0.0025,-0.002,0.0638510767332862));
#1462=CARTESIAN_POINT('',(0.0025,-0.002,0.0628502983286476));
#1463=CARTESIAN_POINT('',(0.,-0.002,7.84692436553667E-18));
#1464=CARTESIAN_POINT('',(-0.0025,-0.002,0.0638510767332862));
#1465=CARTESIAN_POINT('',(-0.0025,-0.002,0.06490182014577));
#1466=CARTESIAN_POINT('',(-0.0025,-0.002,0.0628502983286476));
#1467=CARTESIAN_POINT('',(0.,-0.002,3.85151418331842E-18));
#1468=CARTESIAN_POINT('',(0.,-0.002,3.85151418331842E-18));
#1469=CARTESIAN_POINT('',(0.0628502983286476,1.99999999999983E-6,0.0025));
#1470=CARTESIAN_POINT('',(0.0628502983286476,-0.001,0.0025));
#1471=CARTESIAN_POINT('',(0.,-0.001,3.85151418331842E-18));
#1472=CARTESIAN_POINT('',(0.0628502983286476,-0.001,-0.0025));
#1473=CARTESIAN_POINT('',(0.0628502983286476,1.99999999999983E-6,-0.0025));
#1474=CARTESIAN_POINT('',(0.,-0.002,3.85151418331842E-18));
#1475=CARTESIAN_POINT('',(0.0025,1.99999999999983E-6,-0.0628502983286476));
#1476=CARTESIAN_POINT('',(0.0025,-0.001,-0.0628502983286476));
#1477=CARTESIAN_POINT('',(0.,-0.001,3.85151418331842E-18));
#1478=CARTESIAN_POINT('',(-0.0025,-0.001,-0.0628502983286476));
#1479=CARTESIAN_POINT('',(-0.0025,1.99999999999983E-6,-0.0628502983286476));
#1480=CARTESIAN_POINT('',(0.,-0.002,3.85151418331842E-18));
#1481=CARTESIAN_POINT('',(-0.0025,1.99999999999983E-6,0.0628502983286476));
#1482=CARTESIAN_POINT('',(-0.0025,-0.001,0.0628502983286476));
#1483=CARTESIAN_POINT('',(0.,-0.001,3.85151418331842E-18));
#1484=CARTESIAN_POINT('',(0.0025,-0.001,0.0628502983286476));
#1485=CARTESIAN_POINT('',(0.0025,1.99999999999983E-6,0.0628502983286476));
#1486=CARTESIAN_POINT('',(0.,-0.002,3.85151418331842E-18));
#1487=CARTESIAN_POINT('',(-0.0628502983286476,1.99999999999983E-6,-0.00249999999999997));
#1488=CARTESIAN_POINT('',(-0.0628502983286476,-0.001,-0.00249999999999997));
#1489=CARTESIAN_POINT('',(0.,-0.001,3.85151418331842E-18));
#1490=CARTESIAN_POINT('',(-0.0628502983286476,-0.001,0.00249999999999997));
#1491=CARTESIAN_POINT('',(-0.0628502983286476,1.99999999999983E-6,0.00249999999999997));
#1492=CARTESIAN_POINT('',(0.,-0.0015,7.84692436553667E-18));
#1493=CARTESIAN_POINT('',(-0.0638510767332862,-0.00200000000000001,-0.0025));
#1494=CARTESIAN_POINT('',(-0.0639819675339862,-0.002,-0.0025));
#1495=CARTESIAN_POINT('',(-0.0642430780362856,-0.00189186223123644,-0.0025));
#1496=CARTESIAN_POINT('',(-0.0644057084685894,-0.0014997668282533,-0.0025));
#1497=CARTESIAN_POINT('',(-0.0642428289607061,-0.00110775540490211,-0.0025));
#1498=CARTESIAN_POINT('',(-0.0639813437361172,-0.001,-0.0025));
#1499=CARTESIAN_POINT('',(-0.0638510767332862,-0.000999999999999999,-0.0025));
#1500=CARTESIAN_POINT('',(-0.0638510767332862,-0.00200000000000001,0.0025));
#1501=CARTESIAN_POINT('',(-0.0639819675339862,-0.002,0.0025));
#1502=CARTESIAN_POINT('',(-0.0642430780362856,-0.00189186223123644,0.0025));
#1503=CARTESIAN_POINT('',(-0.0644057084685894,-0.0014997668282533,0.0025));
#1504=CARTESIAN_POINT('',(-0.0642428289607061,-0.00110775540490211,0.0025));
#1505=CARTESIAN_POINT('',(-0.0639813437361172,-0.001,0.0025));
#1506=CARTESIAN_POINT('',(-0.0638510767332862,-0.000999999999999999,0.0025));
#1507=CARTESIAN_POINT('',(0.,-0.0015,7.84692436553667E-18));
#1508=CARTESIAN_POINT('',(-0.0025,-0.002,-0.0638510767332862));
#1509=CARTESIAN_POINT('',(-0.0025,-0.00199999999999999,-0.0639828380540958));
#1510=CARTESIAN_POINT('',(-0.0025,-0.00189181239449305,-0.0642425606853858));
#1511=CARTESIAN_POINT('',(-0.0025,-0.00150040066126032,-0.0644057535799301));
#1512=CARTESIAN_POINT('',(-0.0025,-0.00110799967379973,-0.0642431658208663));
#1513=CARTESIAN_POINT('',(-0.0025,-0.00100000000000069,-0.0639815218833192));
#1514=CARTESIAN_POINT('',(-0.0025,-0.000999999999999988,-0.0638510767332889));
#1515=CARTESIAN_POINT('',(0.0025,-0.002,-0.0638510767332862));
#1516=CARTESIAN_POINT('',(0.0025,-0.00199999999999999,-0.0639828380540958));
#1517=CARTESIAN_POINT('',(0.0025,-0.00189181239449305,-0.0642425606853858));
#1518=CARTESIAN_POINT('',(0.0025,-0.00150040066126032,-0.0644057535799301));
#1519=CARTESIAN_POINT('',(0.0025,-0.00110799967379973,-0.0642431658208663));
#1520=CARTESIAN_POINT('',(0.0025,-0.00100000000000069,-0.0639815218833192));
#1521=CARTESIAN_POINT('',(0.0025,-0.000999999999999988,-0.0638510767332889));
#1522=CARTESIAN_POINT('',(0.,-0.0015,7.84692436553667E-18));
#1523=CARTESIAN_POINT('',(0.0638510767332862,-0.000999999999999992,-0.0025));
#1524=CARTESIAN_POINT('',(0.0639818763748443,-0.000999999999999995,-0.0025));
#1525=CARTESIAN_POINT('',(0.0642427797469127,-0.00110796041900116,-0.0025));
#1526=CARTESIAN_POINT('',(0.0644057457345084,-0.00149971185287573,-0.0025));
#1527=CARTESIAN_POINT('',(0.0642429783062742,-0.00189218684812623,-0.0025));
#1528=CARTESIAN_POINT('',(0.0639814537145006,-0.002,-0.0025));
#1529=CARTESIAN_POINT('',(0.0638510767332862,-0.00200000000000001,-0.0025));
#1530=CARTESIAN_POINT('',(0.0638510767332862,-0.000999999999999992,0.0025));
#1531=CARTESIAN_POINT('',(0.0639818763748443,-0.000999999999999988,0.0025));
#1532=CARTESIAN_POINT('',(0.0642427797469127,-0.00110796041900114,0.0025));
#1533=CARTESIAN_POINT('',(0.0644057457345084,-0.00149971185287571,0.0025));
#1534=CARTESIAN_POINT('',(0.0642429783062742,-0.00189218684812623,0.0025));
#1535=CARTESIAN_POINT('',(0.0639814537145006,-0.002,0.0025));
#1536=CARTESIAN_POINT('',(0.0638510767332862,-0.00200000000000001,0.0025));
#1537=CARTESIAN_POINT('',(0.,-0.0015,7.84692436553667E-18));
#1538=CARTESIAN_POINT('',(0.0025,-0.000999999999999998,0.0638510767332862));
#1539=CARTESIAN_POINT('',(0.0025,-0.000999999999999998,0.0639822998146002));
#1540=CARTESIAN_POINT('',(0.0025,-0.00110806227447098,0.0642424959952438));
#1541=CARTESIAN_POINT('',(0.0025,-0.00149918474752292,0.0644059327732316));
#1542=CARTESIAN_POINT('',(0.0025,-0.00189241956784327,0.0642425127833563));
#1543=CARTESIAN_POINT('',(0.0025,-0.002,0.0639822232726836));
#1544=CARTESIAN_POINT('',(0.0025,-0.002,0.0638510767332862));
#1545=CARTESIAN_POINT('',(-0.0025,-0.000999999999999998,0.0638510767332862));
#1546=CARTESIAN_POINT('',(-0.0025,-0.000999999999999998,0.0639822998146002));
#1547=CARTESIAN_POINT('',(-0.0025,-0.00110806227447098,0.0642424959952438));
#1548=CARTESIAN_POINT('',(-0.0025,-0.00149918474752292,0.0644059327732316));
#1549=CARTESIAN_POINT('',(-0.0025,-0.00189241956784327,0.0642425127833563));
#1550=CARTESIAN_POINT('',(-0.0025,-0.002,0.0639822232726836));
#1551=CARTESIAN_POINT('',(-0.0025,-0.002,0.0638510767332862));
#1552=CARTESIAN_POINT('',(0.,0.,0.));
#1553=CARTESIAN_POINT('',(0.,0.,3.85151418331842E-18));
#1554=CARTESIAN_POINT('',(0.0618494947432879,0.,-0.0025));
#1555=CARTESIAN_POINT('',(0.0618494947432879,0.,0.0025));
#1556=CARTESIAN_POINT('',(0.06490182014577,0.,0.0025));
#1557=CARTESIAN_POINT('',(0.06490182014577,0.,-0.0025));
#1558=CARTESIAN_POINT('',(0.,0.,3.85151418331842E-18));
#1559=CARTESIAN_POINT('',(-0.0025,0.,-0.0618494947432879));
#1560=CARTESIAN_POINT('',(0.0025,0.,-0.0618494947432879));
#1561=CARTESIAN_POINT('',(0.0025,0.,-0.06490182014577));
#1562=CARTESIAN_POINT('',(-0.0025,0.,-0.06490182014577));
#1563=CARTESIAN_POINT('',(0.,0.,3.85151418331842E-18));
#1564=CARTESIAN_POINT('',(0.0584253369695032,0.,-0.0233));
#1565=CARTESIAN_POINT('',(0.0585,0.,-0.0231119016958795));
#1566=CARTESIAN_POINT('',(0.05,0.,-0.0233));
#1567=CARTESIAN_POINT('',(0.0415,0.,-0.0233));
#1568=CARTESIAN_POINT('',(0.0415,0.,0.));
#1569=CARTESIAN_POINT('',(0.0415,0.,0.0233));
#1570=CARTESIAN_POINT('',(0.05,0.,0.0233));
#1571=CARTESIAN_POINT('',(0.0584253369695032,0.,0.0233));
#1572=CARTESIAN_POINT('',(0.,0.,3.85151418331842E-18));
#1573=CARTESIAN_POINT('',(0.0585,0.,0.0231119016958795));
#1574=CARTESIAN_POINT('',(0.0585,0.,0.));
#1575=CARTESIAN_POINT('',(0.,0.,3.85151418331842E-18));
#1576=CARTESIAN_POINT('',(0.0025,0.,0.0618494947432879));
#1577=CARTESIAN_POINT('',(-0.0025,0.,0.0618494947432879));
#1578=CARTESIAN_POINT('',(-0.0025,0.,0.06490182014577));
#1579=CARTESIAN_POINT('',(0.0025,0.,0.06490182014577));
#1580=CARTESIAN_POINT('',(0.,0.,-4.10256677714363E-18));
#1581=CARTESIAN_POINT('',(0.067,0.,-4.10256677714363E-18));
#1582=CARTESIAN_POINT('',(0.,0.,3.85151418331842E-18));
#1583=CARTESIAN_POINT('',(-0.0618494947432879,0.,0.0025));
#1584=CARTESIAN_POINT('',(-0.0618494947432879,0.,-0.0025));
#1585=CARTESIAN_POINT('',(-0.06490182014577,0.,-0.0025));
#1586=CARTESIAN_POINT('',(-0.06490182014577,0.,0.0025));
#1587=CARTESIAN_POINT('',(0.02,0.,0.));
#1588=CARTESIAN_POINT('',(0.02,0.,-0.015));
#1589=CARTESIAN_POINT('',(0.02,0.,0.015));
#1590=CARTESIAN_POINT('',(0.015,0.,-0.015));
#1591=CARTESIAN_POINT('',(0.015,0.,-0.02));
#1592=CARTESIAN_POINT('',(0.,0.,-0.02));
#1593=CARTESIAN_POINT('',(-0.015,0.,-0.02));
#1594=CARTESIAN_POINT('',(-0.015,0.,-0.015));
#1595=CARTESIAN_POINT('',(-0.02,0.,-0.015));
#1596=CARTESIAN_POINT('',(-0.02,0.,3.46944695195361E-18));
#1597=CARTESIAN_POINT('',(-0.02,0.,0.015));
#1598=CARTESIAN_POINT('',(-0.015,0.,0.015));
#1599=CARTESIAN_POINT('',(-0.015,0.,0.02));
#1600=CARTESIAN_POINT('',(3.46944695195361E-18,0.,0.02));
#1601=CARTESIAN_POINT('',(0.015,0.,0.02));
#1602=CARTESIAN_POINT('',(0.015,0.,0.015));
#1603=CARTESIAN_POINT('',(0.05,-0.023,-0.0133));
#1604=CARTESIAN_POINT('',(0.044,-0.023,-0.0133));
#1605=CARTESIAN_POINT('',(0.044,0.001,-0.0133));
#1606=CARTESIAN_POINT('',(0.044,0.002,-0.0133));
#1607=CARTESIAN_POINT('',(0.,0.001,-0.0133));
#1608=CARTESIAN_POINT('',(0.056,0.001,-0.0133));
#1609=CARTESIAN_POINT('',(0.056,-0.023,-0.0133));
#1610=CARTESIAN_POINT('',(0.056,0.002,-0.0133));
#1611=CARTESIAN_POINT('',(0.05,0.002,-0.0133));
#1612=CARTESIAN_POINT('',(0.044,-0.023,0.));
#1613=CARTESIAN_POINT('',(0.044,0.001,0.));
#1614=CARTESIAN_POINT('',(0.044,0.001,0.0133));
#1615=CARTESIAN_POINT('',(0.044,0.002,0.));
#1616=CARTESIAN_POINT('',(0.044,0.002,0.0133));
#1617=CARTESIAN_POINT('',(0.044,-0.023,0.0133));
#1618=CARTESIAN_POINT('',(0.05,-0.023,0.0133));
#1619=CARTESIAN_POINT('',(0.,0.001,0.0133));
#1620=CARTESIAN_POINT('',(0.056,0.001,0.0133));
#1621=CARTESIAN_POINT('',(0.05,0.002,0.0133));
#1622=CARTESIAN_POINT('',(0.056,0.002,0.0133));
#1623=CARTESIAN_POINT('',(0.056,-0.023,0.0133));
#1624=CARTESIAN_POINT('',(0.056,-0.023,0.));
#1625=CARTESIAN_POINT('',(0.056,0.001,0.));
#1626=CARTESIAN_POINT('',(0.056,0.002,0.));
#1627=CARTESIAN_POINT('',(0.,0.002,0.));
#1628=CARTESIAN_POINT('',(0.,0.002,-4.10256677714363E-18));
#1629=CARTESIAN_POINT('',(0.067,0.002,-4.10256677714363E-18));
#1630=CARTESIAN_POINT('',(0.,0.002,-0.02));
#1631=CARTESIAN_POINT('',(0.015,0.002,-0.02));
#1632=CARTESIAN_POINT('',(-0.015,0.002,-0.02));
#1633=CARTESIAN_POINT('',(0.015,0.002,-0.015));
#1634=CARTESIAN_POINT('',(0.02,0.002,-0.015));
#1635=CARTESIAN_POINT('',(0.02,0.002,0.));
#1636=CARTESIAN_POINT('',(0.02,0.002,0.015));
#1637=CARTESIAN_POINT('',(0.015,0.002,0.015));
#1638=CARTESIAN_POINT('',(0.015,0.002,0.02));
#1639=CARTESIAN_POINT('',(3.46944695195361E-18,0.002,0.02));
#1640=CARTESIAN_POINT('',(-0.015,0.002,0.02));
#1641=CARTESIAN_POINT('',(-0.015,0.002,0.015));
#1642=CARTESIAN_POINT('',(-0.02,0.002,0.015));
#1643=CARTESIAN_POINT('',(-0.02,0.002,3.46944695195361E-18));
#1644=CARTESIAN_POINT('',(-0.02,0.002,-0.015));
#1645=CARTESIAN_POINT('',(-0.015,0.002,-0.015));
#1646=CARTESIAN_POINT('',(0.,0.002,-4.10256677714363E-18));
#1647=CARTESIAN_POINT('',(0.02,0.,0.));
#1648=CARTESIAN_POINT('',(0.02,0.,-0.015));
#1649=CARTESIAN_POINT('',(0.02,0.002,0.015));
#1650=CARTESIAN_POINT('',(0.,0.,-0.02));
#1651=CARTESIAN_POINT('',(0.015,0.,-0.02));
#1652=CARTESIAN_POINT('',(-0.015,0.,-0.02));
#1653=CARTESIAN_POINT('',(-0.02,0.,3.46944695195361E-18));
#1654=CARTESIAN_POINT('',(-0.02,0.002,-0.015));
#1655=CARTESIAN_POINT('',(-0.02,0.,0.015));
#1656=CARTESIAN_POINT('',(3.46944695195361E-18,0.,0.02));
#1657=CARTESIAN_POINT('',(0.015,0.,0.02));
#1658=CARTESIAN_POINT('',(-0.015,0.,0.02));
#1659=CARTESIAN_POINT('',(0.05,0.001,0.0213));
#1660=CARTESIAN_POINT('',(0.0565,0.001,0.0213));
#1661=CARTESIAN_POINT('',(0.0565,0.001,0.0213));
#1662=CARTESIAN_POINT('',(0.0435,0.001,0.0213));
#1663=CARTESIAN_POINT('',(0.0435,0.001,0.0213));
#1664=CARTESIAN_POINT('',(0.05,0.001,0.0213));
#1665=CARTESIAN_POINT('',(0.0435,0.001,3.46944695195361E-18));
#1666=CARTESIAN_POINT('',(0.0435,0.001,-0.0213));
#1667=CARTESIAN_POINT('',(0.0435,0.001,-0.0213));
#1668=CARTESIAN_POINT('',(0.0435,0.001,3.46944695195361E-18));
#1669=CARTESIAN_POINT('',(0.05,0.001,-0.0213));
#1670=CARTESIAN_POINT('',(0.0565,0.001,-0.0213));
#1671=CARTESIAN_POINT('',(0.0565,0.001,-0.0213));
#1672=CARTESIAN_POINT('',(0.05,0.001,-0.0213));
#1673=CARTESIAN_POINT('',(0.0565,0.001,3.46944695195361E-18));
#1674=CARTESIAN_POINT('',(0.0565,0.001,3.46944695195361E-18));
#1675=CARTESIAN_POINT('',(0.,0.001,0.));
#1676=CARTESIAN_POINT('',(0.0585,-0.002,0.));
#1677=CARTESIAN_POINT('',(0.0585,-0.002,-0.0231119016958795));
#1678=CARTESIAN_POINT('',(0.0585,-0.002,0.0231119016958795));
#1679=CARTESIAN_POINT('',(0.05,-0.002,0.0233));
#1680=CARTESIAN_POINT('',(0.0584253369695032,-0.002,0.0233));
#1681=CARTESIAN_POINT('',(0.0415,-0.002,0.0233));
#1682=CARTESIAN_POINT('',(0.0415,-0.002,0.));
#1683=CARTESIAN_POINT('',(0.0415,-0.002,-0.0233));
#1684=CARTESIAN_POINT('',(0.05,-0.002,-0.0233));
#1685=CARTESIAN_POINT('',(0.0584253369695032,-0.002,-0.0233));
#1686=CARTESIAN_POINT('',(0.015,0.,-0.015));
#1687=CARTESIAN_POINT('',(-0.015,0.,-0.015));
#1688=CARTESIAN_POINT('',(0.015,0.,0.015));
#1689=CARTESIAN_POINT('',(-0.015,0.,0.015));
#1690=CARTESIAN_POINT('',(-0.0025,1.99999999999983E-6,0.06490182014577));
#1691=CARTESIAN_POINT('',(-0.0025,0.,0.0618494947432879));
#1692=CARTESIAN_POINT('',(-0.0025,5.50005228319906E-18,0.062113708433028));
#1693=CARTESIAN_POINT('',(-0.0025,-0.000217103602945056,0.0626315476599623));
#1694=CARTESIAN_POINT('',(-0.0025,-0.000735780279853508,0.0628502983286476));
#1695=CARTESIAN_POINT('',(-0.0025,-0.001,0.0628502983286476));
#1696=CARTESIAN_POINT('',(-0.06490182014577,1.99999999999983E-6,0.0025));
#1697=CARTESIAN_POINT('',(-0.0628502983286476,-0.001,0.00249999999999997));
#1698=CARTESIAN_POINT('',(-0.0628502983286476,-0.000735783972885262,0.00249999999999997));
#1699=CARTESIAN_POINT('',(-0.062632561813641,-0.000218112868340625,0.00250000000000002));
#1700=CARTESIAN_POINT('',(-0.0621137047860205,3.73185590429285E-18,0.0025));
#1701=CARTESIAN_POINT('',(-0.0618494947432879,6.52049945561642E-20,0.0025));
#1702=CARTESIAN_POINT('',(0.,1.99999999999983E-6,3.85151418331842E-18));
#1703=CARTESIAN_POINT('',(0.06490182014577,1.99999999999983E-6,0.0025));
#1704=CARTESIAN_POINT('',(0.0618494947432879,0.,0.0025));
#1705=CARTESIAN_POINT('',(0.062113708433028,3.66670152213269E-18,0.0025));
#1706=CARTESIAN_POINT('',(0.0626315476599623,-0.000217103602945041,0.0025));
#1707=CARTESIAN_POINT('',(0.0628502983286476,-0.000735780279853508,0.0025));
#1708=CARTESIAN_POINT('',(0.0628502983286476,-0.001,0.0025));
#1709=CARTESIAN_POINT('',(0.0025,1.99999999999983E-6,0.06490182014577));
#1710=CARTESIAN_POINT('',(0.0025,-0.001,0.0628502983286476));
#1711=CARTESIAN_POINT('',(0.0025,-0.000735783972885263,0.0628502983286476));
#1712=CARTESIAN_POINT('',(0.0025,-0.000218112868340626,0.062632561813641));
#1713=CARTESIAN_POINT('',(0.0025,5.39238663792133E-18,0.0621137047860205));
#1714=CARTESIAN_POINT('',(0.0025,-1.07589726683713E-19,0.0618494947432879));
#1715=CARTESIAN_POINT('',(0.,1.99999999999983E-6,3.85151418331842E-18));
#1716=CARTESIAN_POINT('',(0.0025,1.99999999999983E-6,-0.06490182014577));
#1717=CARTESIAN_POINT('',(0.0025,0.,-0.0618494947432879));
#1718=CARTESIAN_POINT('',(0.0025,1.83335076106634E-18,-0.062113708433028));
#1719=CARTESIAN_POINT('',(0.0025,-0.000217103602945039,-0.0626315476599623));
#1720=CARTESIAN_POINT('',(0.0025,-0.000735780279853508,-0.0628502983286476));
#1721=CARTESIAN_POINT('',(0.0025,-0.001,-0.0628502983286476));
#1722=CARTESIAN_POINT('',(0.06490182014577,1.99999999999983E-6,-0.0025));
#1723=CARTESIAN_POINT('',(0.0628502983286476,-0.001,-0.0025));
#1724=CARTESIAN_POINT('',(0.0628502983286476,-0.000735783972885262,-0.0025));
#1725=CARTESIAN_POINT('',(0.062632561813641,-0.000218112868340625,-0.0025));
#1726=CARTESIAN_POINT('',(0.0621137047860205,3.73185590429285E-18,-0.0025));
#1727=CARTESIAN_POINT('',(0.0618494947432879,6.52049945561642E-20,-0.0025));
#1728=CARTESIAN_POINT('',(-0.0025,1.99999999999983E-6,-0.06490182014577));
#1729=CARTESIAN_POINT('',(-0.0025,-0.001,-0.0628502983286476));
#1730=CARTESIAN_POINT('',(-0.0025,-0.000735783972885262,-0.0628502983286476));
#1731=CARTESIAN_POINT('',(-0.0025,-0.00021811286834061,-0.062632561813641));
#1732=CARTESIAN_POINT('',(-0.0025,1.91547110837037E-18,-0.0621137047860205));
#1733=CARTESIAN_POINT('',(-0.0025,8.21456535020391E-20,-0.0618494947432879));
#1734=CARTESIAN_POINT('',(-0.06490182014577,1.99999999999983E-6,-0.0025));
#1735=CARTESIAN_POINT('',(-0.0618494947432879,0.,-0.0025));
#1736=CARTESIAN_POINT('',(-0.062113708433028,3.66670152213269E-18,-0.0025));
#1737=CARTESIAN_POINT('',(-0.0626315476599623,-0.000217103602945041,-0.0025));
#1738=CARTESIAN_POINT('',(-0.0628502983286476,-0.000735780279853508,-0.0025));
#1739=CARTESIAN_POINT('',(-0.0628502983286476,-0.001,-0.0025));
#1740=CARTESIAN_POINT('',(0.,-0.001,3.85151418331842E-18));
#1741=CARTESIAN_POINT('',(0.,-0.001,3.85151418331842E-18));
#1742=CARTESIAN_POINT('',(0.,-0.001,3.85151418331842E-18));
#1743=CARTESIAN_POINT('',(0.,-0.001,3.85151418331842E-18));
#1744=MECHANICAL_DESIGN_GEOMETRIC_PRESENTATION_REPRESENTATION('',(#995),
#1745);
#1745=(
GEOMETRIC_REPRESENTATION_CONTEXT(3)
GLOBAL_UNCERTAINTY_ASSIGNED_CONTEXT((#1746))
GLOBAL_UNIT_ASSIGNED_CONTEXT((#1749,#1748,#1747))
REPRESENTATION_CONTEXT('ARCAD004','TOP_LEVEL_ASSEMBLY_PART')
);
#1746=UNCERTAINTY_MEASURE_WITH_UNIT(LENGTH_MEASURE(2.E-5),#1749,
'DISTANCE_ACCURACY_VALUE','Maximum Tolerance applied to model');
#1747=(
NAMED_UNIT(*)
SI_UNIT($,.STERADIAN.)
SOLID_ANGLE_UNIT()
);
#1748=(
NAMED_UNIT(*)
PLANE_ANGLE_UNIT()
SI_UNIT($,.RADIAN.)
);
#1749=(
LENGTH_UNIT()
NAMED_UNIT(*)
SI_UNIT($,.METRE.)
);
#1750=PRODUCT_DEFINITION_SHAPE('','',#1751);
#1751=PRODUCT_DEFINITION('','',#1753,#1752);
#1752=PRODUCT_DEFINITION_CONTEXT('',#1759,'design');
#1753=PRODUCT_DEFINITION_FORMATION_WITH_SPECIFIED_SOURCE('','',#1755,
 .NOT_KNOWN.);
#1754=PRODUCT_RELATED_PRODUCT_CATEGORY('','',(#1755));
#1755=PRODUCT('ARCAD004','ARCAD004','ARCAD004',(#1757));
#1756=PRODUCT_CATEGORY('','');
#1757=PRODUCT_CONTEXT('',#1759,'mechanical');
#1758=APPLICATION_PROTOCOL_DEFINITION('international standard',
'ap242_managed_model_based_3d_engineering',2020,#1759);
#1759=APPLICATION_CONTEXT('managed model based 3d engineering');
ENDSEC;
END-ISO-10303-21;
