ISO-10303-21;
HEADER;
/* Generated by software containing ST-Developer
 * from STEP Tools, Inc. (www.steptools.com) 
 */
/* OPTION: using custom renumber hook */

FILE_DESCRIPTION(
/* description */ ('STEP AP242 Edition 2',
'CAx-IF Rec.Pracs.---Representation and Presentation of Product Manufa
cturing Information (PMI)---4.0---2014-10-13',
'CAx-IF Rec.Pracs.---3D Tessellated Geometry---0.4---2014-09-14','2;1',
'CAx-IF Rec.Pracs.---User Defined Attributes---1.5---2016-08-15'),
/* implementation_level */ '2;1');

FILE_NAME(
/* name */ 'ARCADA001 - Part 1 (1)',
/* time_stamp */ '2026-07-17T02:50:50Z',
/* author */ (''),
/* organization */ (''),
/* preprocessor_version */ 'ST-DEVELOPER v20',
/* originating_system */ 'ONSHAPE BY PTC INC, 1.217',
/* authorisation */ '  ');

FILE_SCHEMA (('AP242_MANAGED_MODEL_BASED_3D_ENGINEERING_MIM_LF { 1 0 10303 442 3 1 4 }'));
ENDSEC;

DATA;
#10=SHAPE_REPRESENTATION_RELATIONSHIP('','',#818,#11);
#11=ADVANCED_BREP_SHAPE_REPRESENTATION('',(#816),#1415);
#12=TOROIDAL_SURFACE('',#890,0.016645,0.001);
#13=TOROIDAL_SURFACE('',#905,0.004,0.001);
#14=TOROIDAL_SURFACE('',#912,0.004,0.001);
#15=TOROIDAL_SURFACE('',#914,0.004,0.001);
#16=TOROIDAL_SURFACE('',#920,0.004,0.001);
#17=CYLINDRICAL_SURFACE('',#857,0.0036);
#18=CYLINDRICAL_SURFACE('',#860,0.00125);
#19=CYLINDRICAL_SURFACE('',#861,0.0036);
#20=CYLINDRICAL_SURFACE('',#864,0.00125);
#21=CYLINDRICAL_SURFACE('',#867,0.0036);
#22=CYLINDRICAL_SURFACE('',#870,0.00125);
#23=CYLINDRICAL_SURFACE('',#871,0.002225);
#24=CYLINDRICAL_SURFACE('',#876,0.002225);
#25=CYLINDRICAL_SURFACE('',#881,0.002225);
#26=CYLINDRICAL_SURFACE('',#886,0.017645);
#27=CYLINDRICAL_SURFACE('',#891,0.005);
#28=CYLINDRICAL_SURFACE('',#893,0.005);
#29=CYLINDRICAL_SURFACE('',#895,0.005);
#30=CYLINDRICAL_SURFACE('',#897,0.005);
#31=CYLINDRICAL_SURFACE('',#899,0.001);
#32=CYLINDRICAL_SURFACE('',#900,0.001);
#33=CYLINDRICAL_SURFACE('',#901,0.001);
#34=CYLINDRICAL_SURFACE('',#902,0.001);
#35=CYLINDRICAL_SURFACE('',#903,0.001);
#36=CYLINDRICAL_SURFACE('',#904,0.001);
#37=CYLINDRICAL_SURFACE('',#908,0.001);
#38=CYLINDRICAL_SURFACE('',#910,0.001);
#39=CYLINDRICAL_SURFACE('',#916,0.001);
#40=CYLINDRICAL_SURFACE('',#918,0.001);
#41=LINE('',#1188,#97);
#42=LINE('',#1191,#98);
#43=LINE('',#1193,#99);
#44=LINE('',#1195,#100);
#45=LINE('',#1197,#101);
#46=LINE('',#1199,#102);
#47=LINE('',#1201,#103);
#48=LINE('',#1203,#104);
#49=LINE('',#1210,#105);
#50=LINE('',#1213,#106);
#51=LINE('',#1215,#107);
#52=LINE('',#1217,#108);
#53=LINE('',#1219,#109);
#54=LINE('',#1221,#110);
#55=LINE('',#1223,#111);
#56=LINE('',#1225,#112);
#57=LINE('',#1232,#113);
#58=LINE('',#1235,#114);
#59=LINE('',#1237,#115);
#60=LINE('',#1239,#116);
#61=LINE('',#1241,#117);
#62=LINE('',#1244,#118);
#63=LINE('',#1246,#119);
#64=LINE('',#1248,#120);
#65=LINE('',#1250,#121);
#66=LINE('',#1252,#122);
#67=LINE('',#1254,#123);
#68=LINE('',#1256,#124);
#69=LINE('',#1258,#125);
#70=LINE('',#1263,#126);
#71=LINE('',#1267,#127);
#72=LINE('',#1271,#128);
#73=LINE('',#1280,#129);
#74=LINE('',#1284,#130);
#75=LINE('',#1291,#131);
#76=LINE('',#1295,#132);
#77=LINE('',#1301,#133);
#78=LINE('',#1305,#134);
#79=LINE('',#1315,#135);
#80=LINE('',#1318,#136);
#81=LINE('',#1319,#137);
#82=LINE('',#1321,#138);
#83=LINE('',#1325,#139);
#84=LINE('',#1327,#140);
#85=LINE('',#1330,#141);
#86=LINE('',#1334,#142);
#87=LINE('',#1336,#143);
#88=LINE('',#1338,#144);
#89=LINE('',#1341,#145);
#90=LINE('',#1343,#146);
#91=LINE('',#1345,#147);
#92=LINE('',#1348,#148);
#93=LINE('',#1349,#149);
#94=LINE('',#1351,#150);
#95=LINE('',#1355,#151);
#96=LINE('',#1357,#152);
#97=VECTOR('',#931,1.);
#98=VECTOR('',#932,1.);
#99=VECTOR('',#933,1.);
#100=VECTOR('',#934,1.);
#101=VECTOR('',#935,1.);
#102=VECTOR('',#936,1.);
#103=VECTOR('',#937,1.);
#104=VECTOR('',#938,1.);
#105=VECTOR('',#947,1.);
#106=VECTOR('',#948,1.);
#107=VECTOR('',#949,1.);
#108=VECTOR('',#950,1.);
#109=VECTOR('',#951,1.);
#110=VECTOR('',#952,1.);
#111=VECTOR('',#953,1.);
#112=VECTOR('',#954,1.);
#113=VECTOR('',#963,1.);
#114=VECTOR('',#964,1.);
#115=VECTOR('',#965,1.);
#116=VECTOR('',#966,1.);
#117=VECTOR('',#969,1.);
#118=VECTOR('',#970,1.);
#119=VECTOR('',#971,1.);
#120=VECTOR('',#972,1.);
#121=VECTOR('',#973,1.);
#122=VECTOR('',#974,1.);
#123=VECTOR('',#975,1.);
#124=VECTOR('',#976,1.);
#125=VECTOR('',#979,1.);
#126=VECTOR('',#982,1.);
#127=VECTOR('',#985,1.);
#128=VECTOR('',#988,1.);
#129=VECTOR('',#999,1.);
#130=VECTOR('',#1002,1.);
#131=VECTOR('',#1011,1.);
#132=VECTOR('',#1014,1.);
#133=VECTOR('',#1021,1.);
#134=VECTOR('',#1024,1.);
#135=VECTOR('',#1035,1.);
#136=VECTOR('',#1036,1.);
#137=VECTOR('',#1037,1.);
#138=VECTOR('',#1040,1.);
#139=VECTOR('',#1045,1.);
#140=VECTOR('',#1046,1.);
#141=VECTOR('',#1051,1.);
#142=VECTOR('',#1054,1.);
#143=VECTOR('',#1057,1.);
#144=VECTOR('',#1058,1.);
#145=VECTOR('',#1063,1.);
#146=VECTOR('',#1064,1.);
#147=VECTOR('',#1067,1.);
#148=VECTOR('',#1068,1.);
#149=VECTOR('',#1069,1.);
#150=VECTOR('',#1072,1.);
#151=VECTOR('',#1077,1.);
#152=VECTOR('',#1078,1.);
#153=ORIENTED_EDGE('',*,*,#371,.F.);
#154=ORIENTED_EDGE('',*,*,#372,.F.);
#155=ORIENTED_EDGE('',*,*,#373,.T.);
#156=ORIENTED_EDGE('',*,*,#374,.T.);
#157=ORIENTED_EDGE('',*,*,#375,.T.);
#158=ORIENTED_EDGE('',*,*,#376,.T.);
#159=ORIENTED_EDGE('',*,*,#377,.T.);
#160=ORIENTED_EDGE('',*,*,#378,.F.);
#161=ORIENTED_EDGE('',*,*,#379,.T.);
#162=ORIENTED_EDGE('',*,*,#380,.T.);
#163=ORIENTED_EDGE('',*,*,#381,.F.);
#164=ORIENTED_EDGE('',*,*,#382,.F.);
#165=ORIENTED_EDGE('',*,*,#383,.T.);
#166=ORIENTED_EDGE('',*,*,#384,.T.);
#167=ORIENTED_EDGE('',*,*,#385,.T.);
#168=ORIENTED_EDGE('',*,*,#386,.T.);
#169=ORIENTED_EDGE('',*,*,#387,.T.);
#170=ORIENTED_EDGE('',*,*,#388,.F.);
#171=ORIENTED_EDGE('',*,*,#389,.T.);
#172=ORIENTED_EDGE('',*,*,#390,.T.);
#173=ORIENTED_EDGE('',*,*,#391,.F.);
#174=ORIENTED_EDGE('',*,*,#392,.F.);
#175=ORIENTED_EDGE('',*,*,#393,.T.);
#176=ORIENTED_EDGE('',*,*,#394,.T.);
#177=ORIENTED_EDGE('',*,*,#395,.T.);
#178=ORIENTED_EDGE('',*,*,#396,.F.);
#179=ORIENTED_EDGE('',*,*,#397,.T.);
#180=ORIENTED_EDGE('',*,*,#398,.T.);
#181=ORIENTED_EDGE('',*,*,#399,.T.);
#182=ORIENTED_EDGE('',*,*,#400,.F.);
#183=ORIENTED_EDGE('',*,*,#401,.T.);
#184=ORIENTED_EDGE('',*,*,#402,.F.);
#185=ORIENTED_EDGE('',*,*,#403,.T.);
#186=ORIENTED_EDGE('',*,*,#404,.F.);
#187=ORIENTED_EDGE('',*,*,#405,.T.);
#188=ORIENTED_EDGE('',*,*,#406,.T.);
#189=ORIENTED_EDGE('',*,*,#407,.T.);
#190=ORIENTED_EDGE('',*,*,#408,.T.);
#191=ORIENTED_EDGE('',*,*,#409,.T.);
#192=ORIENTED_EDGE('',*,*,#410,.T.);
#193=ORIENTED_EDGE('',*,*,#411,.T.);
#194=ORIENTED_EDGE('',*,*,#412,.T.);
#195=ORIENTED_EDGE('',*,*,#413,.F.);
#196=ORIENTED_EDGE('',*,*,#386,.F.);
#197=ORIENTED_EDGE('',*,*,#414,.T.);
#198=ORIENTED_EDGE('',*,*,#380,.F.);
#199=ORIENTED_EDGE('',*,*,#415,.T.);
#200=ORIENTED_EDGE('',*,*,#416,.F.);
#201=ORIENTED_EDGE('',*,*,#417,.F.);
#202=ORIENTED_EDGE('',*,*,#418,.T.);
#203=ORIENTED_EDGE('',*,*,#419,.T.);
#204=ORIENTED_EDGE('',*,*,#376,.F.);
#205=ORIENTED_EDGE('',*,*,#420,.T.);
#206=ORIENTED_EDGE('',*,*,#396,.T.);
#207=ORIENTED_EDGE('',*,*,#421,.T.);
#208=ORIENTED_EDGE('',*,*,#404,.T.);
#209=ORIENTED_EDGE('',*,*,#422,.T.);
#210=ORIENTED_EDGE('',*,*,#423,.F.);
#211=ORIENTED_EDGE('',*,*,#424,.F.);
#212=ORIENTED_EDGE('',*,*,#425,.T.);
#213=ORIENTED_EDGE('',*,*,#426,.T.);
#214=ORIENTED_EDGE('',*,*,#400,.T.);
#215=ORIENTED_EDGE('',*,*,#427,.T.);
#216=ORIENTED_EDGE('',*,*,#390,.F.);
#217=ORIENTED_EDGE('',*,*,#428,.T.);
#218=ORIENTED_EDGE('',*,*,#429,.F.);
#219=ORIENTED_EDGE('',*,*,#430,.F.);
#220=ORIENTED_EDGE('',*,*,#431,.T.);
#221=ORIENTED_EDGE('',*,*,#432,.T.);
#222=ORIENTED_EDGE('',*,*,#433,.T.);
#223=ORIENTED_EDGE('',*,*,#434,.T.);
#224=ORIENTED_EDGE('',*,*,#435,.T.);
#225=ORIENTED_EDGE('',*,*,#436,.T.);
#226=ORIENTED_EDGE('',*,*,#437,.T.);
#227=ORIENTED_EDGE('',*,*,#431,.F.);
#228=ORIENTED_EDGE('',*,*,#438,.F.);
#229=ORIENTED_EDGE('',*,*,#430,.T.);
#230=ORIENTED_EDGE('',*,*,#439,.F.);
#231=ORIENTED_EDGE('',*,*,#440,.F.);
#232=ORIENTED_EDGE('',*,*,#438,.T.);
#233=ORIENTED_EDGE('',*,*,#429,.T.);
#234=ORIENTED_EDGE('',*,*,#441,.T.);
#235=ORIENTED_EDGE('',*,*,#442,.F.);
#236=ORIENTED_EDGE('',*,*,#439,.T.);
#237=ORIENTED_EDGE('',*,*,#391,.T.);
#238=ORIENTED_EDGE('',*,*,#434,.F.);
#239=ORIENTED_EDGE('',*,*,#417,.T.);
#240=ORIENTED_EDGE('',*,*,#443,.F.);
#241=ORIENTED_EDGE('',*,*,#444,.F.);
#242=ORIENTED_EDGE('',*,*,#445,.T.);
#243=ORIENTED_EDGE('',*,*,#416,.T.);
#244=ORIENTED_EDGE('',*,*,#446,.T.);
#245=ORIENTED_EDGE('',*,*,#447,.F.);
#246=ORIENTED_EDGE('',*,*,#443,.T.);
#247=ORIENTED_EDGE('',*,*,#381,.T.);
#248=ORIENTED_EDGE('',*,*,#435,.F.);
#249=ORIENTED_EDGE('',*,*,#448,.T.);
#250=ORIENTED_EDGE('',*,*,#449,.T.);
#251=ORIENTED_EDGE('',*,*,#418,.F.);
#252=ORIENTED_EDGE('',*,*,#445,.F.);
#253=ORIENTED_EDGE('',*,*,#450,.T.);
#254=ORIENTED_EDGE('',*,*,#451,.T.);
#255=ORIENTED_EDGE('',*,*,#425,.F.);
#256=ORIENTED_EDGE('',*,*,#452,.F.);
#257=ORIENTED_EDGE('',*,*,#424,.T.);
#258=ORIENTED_EDGE('',*,*,#453,.F.);
#259=ORIENTED_EDGE('',*,*,#454,.F.);
#260=ORIENTED_EDGE('',*,*,#452,.T.);
#261=ORIENTED_EDGE('',*,*,#423,.T.);
#262=ORIENTED_EDGE('',*,*,#455,.T.);
#263=ORIENTED_EDGE('',*,*,#456,.F.);
#264=ORIENTED_EDGE('',*,*,#453,.T.);
#265=ORIENTED_EDGE('',*,*,#371,.T.);
#266=ORIENTED_EDGE('',*,*,#433,.F.);
#267=ORIENTED_EDGE('',*,*,#392,.T.);
#268=ORIENTED_EDGE('',*,*,#457,.T.);
#269=ORIENTED_EDGE('',*,*,#457,.F.);
#270=ORIENTED_EDGE('',*,*,#442,.T.);
#271=ORIENTED_EDGE('',*,*,#458,.T.);
#272=ORIENTED_EDGE('',*,*,#388,.T.);
#273=ORIENTED_EDGE('',*,*,#459,.T.);
#274=ORIENTED_EDGE('',*,*,#436,.F.);
#275=ORIENTED_EDGE('',*,*,#440,.T.);
#276=ORIENTED_EDGE('',*,*,#382,.T.);
#277=ORIENTED_EDGE('',*,*,#460,.T.);
#278=ORIENTED_EDGE('',*,*,#460,.F.);
#279=ORIENTED_EDGE('',*,*,#444,.T.);
#280=ORIENTED_EDGE('',*,*,#447,.T.);
#281=ORIENTED_EDGE('',*,*,#461,.T.);
#282=ORIENTED_EDGE('',*,*,#378,.T.);
#283=ORIENTED_EDGE('',*,*,#462,.T.);
#284=ORIENTED_EDGE('',*,*,#448,.F.);
#285=ORIENTED_EDGE('',*,*,#372,.T.);
#286=ORIENTED_EDGE('',*,*,#463,.T.);
#287=ORIENTED_EDGE('',*,*,#450,.F.);
#288=ORIENTED_EDGE('',*,*,#454,.T.);
#289=ORIENTED_EDGE('',*,*,#456,.T.);
#290=ORIENTED_EDGE('',*,*,#464,.T.);
#291=ORIENTED_EDGE('',*,*,#402,.T.);
#292=ORIENTED_EDGE('',*,*,#465,.T.);
#293=ORIENTED_EDGE('',*,*,#463,.F.);
#294=ORIENTED_EDGE('',*,*,#466,.T.);
#295=ORIENTED_EDGE('',*,*,#413,.T.);
#296=ORIENTED_EDGE('',*,*,#467,.T.);
#297=ORIENTED_EDGE('',*,*,#466,.F.);
#298=ORIENTED_EDGE('',*,*,#467,.F.);
#299=ORIENTED_EDGE('',*,*,#385,.F.);
#300=ORIENTED_EDGE('',*,*,#468,.T.);
#301=ORIENTED_EDGE('',*,*,#373,.F.);
#302=ORIENTED_EDGE('',*,*,#414,.F.);
#303=ORIENTED_EDGE('',*,*,#375,.F.);
#304=ORIENTED_EDGE('',*,*,#469,.T.);
#305=ORIENTED_EDGE('',*,*,#393,.F.);
#306=ORIENTED_EDGE('',*,*,#420,.F.);
#307=ORIENTED_EDGE('',*,*,#399,.F.);
#308=ORIENTED_EDGE('',*,*,#470,.T.);
#309=ORIENTED_EDGE('',*,*,#383,.F.);
#310=ORIENTED_EDGE('',*,*,#427,.F.);
#311=ORIENTED_EDGE('',*,*,#395,.F.);
#312=ORIENTED_EDGE('',*,*,#471,.T.);
#313=ORIENTED_EDGE('',*,*,#397,.F.);
#314=ORIENTED_EDGE('',*,*,#421,.F.);
#315=ORIENTED_EDGE('',*,*,#462,.F.);
#316=ORIENTED_EDGE('',*,*,#377,.F.);
#317=ORIENTED_EDGE('',*,*,#419,.F.);
#318=ORIENTED_EDGE('',*,*,#449,.F.);
#319=ORIENTED_EDGE('',*,*,#461,.F.);
#320=ORIENTED_EDGE('',*,*,#446,.F.);
#321=ORIENTED_EDGE('',*,*,#415,.F.);
#322=ORIENTED_EDGE('',*,*,#379,.F.);
#323=ORIENTED_EDGE('',*,*,#464,.F.);
#324=ORIENTED_EDGE('',*,*,#455,.F.);
#325=ORIENTED_EDGE('',*,*,#422,.F.);
#326=ORIENTED_EDGE('',*,*,#403,.F.);
#327=ORIENTED_EDGE('',*,*,#465,.F.);
#328=ORIENTED_EDGE('',*,*,#401,.F.);
#329=ORIENTED_EDGE('',*,*,#426,.F.);
#330=ORIENTED_EDGE('',*,*,#451,.F.);
#331=ORIENTED_EDGE('',*,*,#458,.F.);
#332=ORIENTED_EDGE('',*,*,#441,.F.);
#333=ORIENTED_EDGE('',*,*,#428,.F.);
#334=ORIENTED_EDGE('',*,*,#389,.F.);
#335=ORIENTED_EDGE('',*,*,#459,.F.);
#336=ORIENTED_EDGE('',*,*,#387,.F.);
#337=ORIENTED_EDGE('',*,*,#432,.F.);
#338=ORIENTED_EDGE('',*,*,#437,.F.);
#339=ORIENTED_EDGE('',*,*,#472,.F.);
#340=ORIENTED_EDGE('',*,*,#470,.F.);
#341=ORIENTED_EDGE('',*,*,#473,.F.);
#342=ORIENTED_EDGE('',*,*,#410,.F.);
#343=ORIENTED_EDGE('',*,*,#473,.T.);
#344=ORIENTED_EDGE('',*,*,#398,.F.);
#345=ORIENTED_EDGE('',*,*,#474,.F.);
#346=ORIENTED_EDGE('',*,*,#411,.F.);
#347=ORIENTED_EDGE('',*,*,#472,.T.);
#348=ORIENTED_EDGE('',*,*,#409,.F.);
#349=ORIENTED_EDGE('',*,*,#475,.F.);
#350=ORIENTED_EDGE('',*,*,#384,.F.);
#351=ORIENTED_EDGE('',*,*,#474,.T.);
#352=ORIENTED_EDGE('',*,*,#471,.F.);
#353=ORIENTED_EDGE('',*,*,#476,.F.);
#354=ORIENTED_EDGE('',*,*,#412,.F.);
#355=ORIENTED_EDGE('',*,*,#475,.T.);
#356=ORIENTED_EDGE('',*,*,#408,.F.);
#357=ORIENTED_EDGE('',*,*,#477,.F.);
#358=ORIENTED_EDGE('',*,*,#468,.F.);
#359=ORIENTED_EDGE('',*,*,#476,.T.);
#360=ORIENTED_EDGE('',*,*,#394,.F.);
#361=ORIENTED_EDGE('',*,*,#478,.F.);
#362=ORIENTED_EDGE('',*,*,#405,.F.);
#363=ORIENTED_EDGE('',*,*,#477,.T.);
#364=ORIENTED_EDGE('',*,*,#407,.F.);
#365=ORIENTED_EDGE('',*,*,#479,.F.);
#366=ORIENTED_EDGE('',*,*,#374,.F.);
#367=ORIENTED_EDGE('',*,*,#478,.T.);
#368=ORIENTED_EDGE('',*,*,#469,.F.);
#369=ORIENTED_EDGE('',*,*,#479,.T.);
#370=ORIENTED_EDGE('',*,*,#406,.F.);
#371=EDGE_CURVE('',#480,#480,#555,.T.);
#372=EDGE_CURVE('',#481,#481,#556,.F.);
#373=EDGE_CURVE('',#482,#483,#41,.F.);
#374=EDGE_CURVE('',#483,#484,#42,.F.);
#375=EDGE_CURVE('',#484,#485,#43,.T.);
#376=EDGE_CURVE('',#485,#486,#44,.T.);
#377=EDGE_CURVE('',#486,#487,#45,.F.);
#378=EDGE_CURVE('',#488,#487,#46,.T.);
#379=EDGE_CURVE('',#488,#489,#47,.T.);
#380=EDGE_CURVE('',#489,#482,#48,.T.);
#381=EDGE_CURVE('',#490,#490,#557,.T.);
#382=EDGE_CURVE('',#491,#491,#558,.F.);
#383=EDGE_CURVE('',#492,#493,#49,.F.);
#384=EDGE_CURVE('',#493,#494,#50,.F.);
#385=EDGE_CURVE('',#494,#495,#51,.T.);
#386=EDGE_CURVE('',#495,#496,#52,.T.);
#387=EDGE_CURVE('',#496,#497,#53,.F.);
#388=EDGE_CURVE('',#498,#497,#54,.T.);
#389=EDGE_CURVE('',#498,#499,#55,.T.);
#390=EDGE_CURVE('',#499,#492,#56,.T.);
#391=EDGE_CURVE('',#500,#500,#559,.T.);
#392=EDGE_CURVE('',#501,#501,#560,.F.);
#393=EDGE_CURVE('',#502,#503,#57,.F.);
#394=EDGE_CURVE('',#503,#504,#58,.T.);
#395=EDGE_CURVE('',#504,#505,#59,.T.);
#396=EDGE_CURVE('',#502,#505,#60,.T.);
#397=EDGE_CURVE('',#506,#507,#61,.F.);
#398=EDGE_CURVE('',#507,#508,#62,.T.);
#399=EDGE_CURVE('',#508,#509,#63,.T.);
#400=EDGE_CURVE('',#510,#509,#64,.T.);
#401=EDGE_CURVE('',#510,#511,#65,.F.);
#402=EDGE_CURVE('',#512,#511,#66,.T.);
#403=EDGE_CURVE('',#512,#513,#67,.T.);
#404=EDGE_CURVE('',#506,#513,#68,.T.);
#405=EDGE_CURVE('',#514,#515,#69,.F.);
#406=EDGE_CURVE('',#515,#516,#561,.T.);
#407=EDGE_CURVE('',#516,#517,#70,.T.);
#408=EDGE_CURVE('',#517,#518,#562,.T.);
#409=EDGE_CURVE('',#518,#519,#71,.T.);
#410=EDGE_CURVE('',#519,#520,#563,.T.);
#411=EDGE_CURVE('',#520,#521,#72,.F.);
#412=EDGE_CURVE('',#521,#514,#564,.T.);
#413=EDGE_CURVE('',#522,#522,#565,.T.);
#414=EDGE_CURVE('',#495,#482,#566,.F.);
#415=EDGE_CURVE('',#489,#523,#567,.T.);
#416=EDGE_CURVE('',#524,#523,#73,.T.);
#417=EDGE_CURVE('',#525,#524,#568,.T.);
#418=EDGE_CURVE('',#525,#526,#74,.T.);
#419=EDGE_CURVE('',#526,#486,#569,.T.);
#420=EDGE_CURVE('',#485,#502,#570,.F.);
#421=EDGE_CURVE('',#505,#506,#571,.F.);
#422=EDGE_CURVE('',#513,#527,#572,.T.);
#423=EDGE_CURVE('',#528,#527,#75,.T.);
#424=EDGE_CURVE('',#529,#528,#573,.T.);
#425=EDGE_CURVE('',#529,#530,#76,.T.);
#426=EDGE_CURVE('',#530,#510,#574,.T.);
#427=EDGE_CURVE('',#509,#492,#575,.F.);
#428=EDGE_CURVE('',#499,#531,#576,.T.);
#429=EDGE_CURVE('',#532,#531,#77,.T.);
#430=EDGE_CURVE('',#533,#532,#577,.T.);
#431=EDGE_CURVE('',#533,#534,#78,.T.);
#432=EDGE_CURVE('',#534,#496,#578,.T.);
#433=EDGE_CURVE('',#535,#535,#579,.T.);
#434=EDGE_CURVE('',#536,#536,#580,.T.);
#435=EDGE_CURVE('',#537,#537,#581,.T.);
#436=EDGE_CURVE('',#538,#539,#79,.T.);
#437=EDGE_CURVE('',#539,#534,#80,.T.);
#438=EDGE_CURVE('',#538,#533,#81,.T.);
#439=EDGE_CURVE('',#540,#532,#82,.T.);
#440=EDGE_CURVE('',#538,#540,#582,.T.);
#441=EDGE_CURVE('',#531,#541,#83,.F.);
#442=EDGE_CURVE('',#540,#541,#84,.T.);
#443=EDGE_CURVE('',#542,#524,#85,.T.);
#444=EDGE_CURVE('',#543,#542,#583,.T.);
#445=EDGE_CURVE('',#543,#525,#86,.T.);
#446=EDGE_CURVE('',#523,#544,#87,.F.);
#447=EDGE_CURVE('',#542,#544,#88,.T.);
#448=EDGE_CURVE('',#543,#545,#89,.T.);
#449=EDGE_CURVE('',#545,#526,#90,.T.);
#450=EDGE_CURVE('',#546,#547,#91,.T.);
#451=EDGE_CURVE('',#547,#530,#92,.T.);
#452=EDGE_CURVE('',#546,#529,#93,.T.);
#453=EDGE_CURVE('',#548,#528,#94,.T.);
#454=EDGE_CURVE('',#546,#548,#584,.T.);
#455=EDGE_CURVE('',#527,#549,#95,.F.);
#456=EDGE_CURVE('',#548,#549,#96,.T.);
#457=EDGE_CURVE('',#550,#550,#585,.T.);
#458=EDGE_CURVE('',#541,#498,#586,.F.);
#459=EDGE_CURVE('',#497,#539,#587,.F.);
#460=EDGE_CURVE('',#551,#551,#588,.T.);
#461=EDGE_CURVE('',#544,#488,#589,.F.);
#462=EDGE_CURVE('',#487,#545,#590,.F.);
#463=EDGE_CURVE('',#552,#552,#591,.T.);
#464=EDGE_CURVE('',#549,#512,#592,.F.);
#465=EDGE_CURVE('',#511,#547,#593,.F.);
#466=EDGE_CURVE('',#553,#553,#594,.F.);
#467=EDGE_CURVE('',#554,#554,#595,.T.);
#468=EDGE_CURVE('',#494,#483,#596,.F.);
#469=EDGE_CURVE('',#484,#503,#597,.F.);
#470=EDGE_CURVE('',#508,#493,#598,.F.);
#471=EDGE_CURVE('',#504,#507,#599,.F.);
#472=EDGE_CURVE('',#493,#519,#600,.T.);
#473=EDGE_CURVE('',#520,#508,#601,.T.);
#474=EDGE_CURVE('',#521,#507,#602,.T.);
#475=EDGE_CURVE('',#494,#518,#603,.T.);
#476=EDGE_CURVE('',#514,#504,#604,.T.);
#477=EDGE_CURVE('',#483,#517,#605,.T.);
#478=EDGE_CURVE('',#515,#503,#606,.T.);
#479=EDGE_CURVE('',#484,#516,#607,.T.);
#480=VERTEX_POINT('',#1184);
#481=VERTEX_POINT('',#1186);
#482=VERTEX_POINT('',#1189);
#483=VERTEX_POINT('',#1190);
#484=VERTEX_POINT('',#1192);
#485=VERTEX_POINT('',#1194);
#486=VERTEX_POINT('',#1196);
#487=VERTEX_POINT('',#1198);
#488=VERTEX_POINT('',#1200);
#489=VERTEX_POINT('',#1202);
#490=VERTEX_POINT('',#1206);
#491=VERTEX_POINT('',#1208);
#492=VERTEX_POINT('',#1211);
#493=VERTEX_POINT('',#1212);
#494=VERTEX_POINT('',#1214);
#495=VERTEX_POINT('',#1216);
#496=VERTEX_POINT('',#1218);
#497=VERTEX_POINT('',#1220);
#498=VERTEX_POINT('',#1222);
#499=VERTEX_POINT('',#1224);
#500=VERTEX_POINT('',#1228);
#501=VERTEX_POINT('',#1230);
#502=VERTEX_POINT('',#1233);
#503=VERTEX_POINT('',#1234);
#504=VERTEX_POINT('',#1236);
#505=VERTEX_POINT('',#1238);
#506=VERTEX_POINT('',#1242);
#507=VERTEX_POINT('',#1243);
#508=VERTEX_POINT('',#1245);
#509=VERTEX_POINT('',#1247);
#510=VERTEX_POINT('',#1249);
#511=VERTEX_POINT('',#1251);
#512=VERTEX_POINT('',#1253);
#513=VERTEX_POINT('',#1255);
#514=VERTEX_POINT('',#1259);
#515=VERTEX_POINT('',#1260);
#516=VERTEX_POINT('',#1262);
#517=VERTEX_POINT('',#1264);
#518=VERTEX_POINT('',#1266);
#519=VERTEX_POINT('',#1268);
#520=VERTEX_POINT('',#1270);
#521=VERTEX_POINT('',#1272);
#522=VERTEX_POINT('',#1275);
#523=VERTEX_POINT('',#1279);
#524=VERTEX_POINT('',#1281);
#525=VERTEX_POINT('',#1283);
#526=VERTEX_POINT('',#1285);
#527=VERTEX_POINT('',#1290);
#528=VERTEX_POINT('',#1292);
#529=VERTEX_POINT('',#1294);
#530=VERTEX_POINT('',#1296);
#531=VERTEX_POINT('',#1300);
#532=VERTEX_POINT('',#1302);
#533=VERTEX_POINT('',#1304);
#534=VERTEX_POINT('',#1306);
#535=VERTEX_POINT('',#1309);
#536=VERTEX_POINT('',#1311);
#537=VERTEX_POINT('',#1313);
#538=VERTEX_POINT('',#1316);
#539=VERTEX_POINT('',#1317);
#540=VERTEX_POINT('',#1322);
#541=VERTEX_POINT('',#1326);
#542=VERTEX_POINT('',#1331);
#543=VERTEX_POINT('',#1333);
#544=VERTEX_POINT('',#1337);
#545=VERTEX_POINT('',#1342);
#546=VERTEX_POINT('',#1346);
#547=VERTEX_POINT('',#1347);
#548=VERTEX_POINT('',#1352);
#549=VERTEX_POINT('',#1356);
#550=VERTEX_POINT('',#1361);
#551=VERTEX_POINT('',#1367);
#552=VERTEX_POINT('',#1373);
#553=VERTEX_POINT('',#1379);
#554=VERTEX_POINT('',#1382);
#555=CIRCLE('',#821,0.00125);
#556=CIRCLE('',#822,0.002225);
#557=CIRCLE('',#825,0.00125);
#558=CIRCLE('',#826,0.002225);
#559=CIRCLE('',#829,0.00125);
#560=CIRCLE('',#830,0.002225);
#561=CIRCLE('',#834,0.004);
#562=CIRCLE('',#835,0.004);
#563=CIRCLE('',#836,0.004);
#564=CIRCLE('',#837,0.004);
#565=CIRCLE('',#838,0.017645);
#566=CIRCLE('',#840,0.005);
#567=CIRCLE('',#841,0.001);
#568=CIRCLE('',#842,0.0036);
#569=CIRCLE('',#843,0.001);
#570=CIRCLE('',#844,0.005);
#571=CIRCLE('',#845,0.005);
#572=CIRCLE('',#846,0.001);
#573=CIRCLE('',#847,0.0036);
#574=CIRCLE('',#848,0.001);
#575=CIRCLE('',#849,0.005);
#576=CIRCLE('',#850,0.001);
#577=CIRCLE('',#851,0.0036);
#578=CIRCLE('',#852,0.001);
#579=CIRCLE('',#853,0.00125);
#580=CIRCLE('',#854,0.00125);
#581=CIRCLE('',#855,0.00125);
#582=CIRCLE('',#858,0.0036);
#583=CIRCLE('',#862,0.0036);
#584=CIRCLE('',#868,0.0036);
#585=CIRCLE('',#872,0.002225);
#586=CIRCLE('',#874,0.001);
#587=CIRCLE('',#875,0.001);
#588=CIRCLE('',#877,0.002225);
#589=CIRCLE('',#879,0.001);
#590=CIRCLE('',#880,0.001);
#591=CIRCLE('',#882,0.002225);
#592=CIRCLE('',#884,0.001);
#593=CIRCLE('',#885,0.001);
#594=CIRCLE('',#887,0.017645);
#595=CIRCLE('',#889,0.016645);
#596=CIRCLE('',#892,0.005);
#597=CIRCLE('',#894,0.005);
#598=CIRCLE('',#896,0.005);
#599=CIRCLE('',#898,0.005);
#600=CIRCLE('',#906,0.001);
#601=CIRCLE('',#907,0.001);
#602=CIRCLE('',#909,0.001);
#603=CIRCLE('',#911,0.001);
#604=CIRCLE('',#913,0.001);
#605=CIRCLE('',#915,0.001);
#606=CIRCLE('',#917,0.001);
#607=CIRCLE('',#919,0.001);
#608=EDGE_LOOP('',(#153));
#609=EDGE_LOOP('',(#154));
#610=EDGE_LOOP('',(#155,#156,#157,#158,#159,#160,#161,#162));
#611=EDGE_LOOP('',(#163));
#612=EDGE_LOOP('',(#164));
#613=EDGE_LOOP('',(#165,#166,#167,#168,#169,#170,#171,#172));
#614=EDGE_LOOP('',(#173));
#615=EDGE_LOOP('',(#174));
#616=EDGE_LOOP('',(#175,#176,#177,#178));
#617=EDGE_LOOP('',(#179,#180,#181,#182,#183,#184,#185,#186));
#618=EDGE_LOOP('',(#187,#188,#189,#190,#191,#192,#193,#194));
#619=EDGE_LOOP('',(#195));
#620=EDGE_LOOP('',(#196,#197,#198,#199,#200,#201,#202,#203,#204,#205,#206,
#207,#208,#209,#210,#211,#212,#213,#214,#215,#216,#217,#218,#219,#220,#221));
#621=EDGE_LOOP('',(#222));
#622=EDGE_LOOP('',(#223));
#623=EDGE_LOOP('',(#224));
#624=EDGE_LOOP('',(#225,#226,#227,#228));
#625=EDGE_LOOP('',(#229,#230,#231,#232));
#626=EDGE_LOOP('',(#233,#234,#235,#236));
#627=EDGE_LOOP('',(#237));
#628=EDGE_LOOP('',(#238));
#629=EDGE_LOOP('',(#239,#240,#241,#242));
#630=EDGE_LOOP('',(#243,#244,#245,#246));
#631=EDGE_LOOP('',(#247));
#632=EDGE_LOOP('',(#248));
#633=EDGE_LOOP('',(#249,#250,#251,#252));
#634=EDGE_LOOP('',(#253,#254,#255,#256));
#635=EDGE_LOOP('',(#257,#258,#259,#260));
#636=EDGE_LOOP('',(#261,#262,#263,#264));
#637=EDGE_LOOP('',(#265));
#638=EDGE_LOOP('',(#266));
#639=EDGE_LOOP('',(#267));
#640=EDGE_LOOP('',(#268));
#641=EDGE_LOOP('',(#269));
#642=EDGE_LOOP('',(#270,#271,#272,#273,#274,#275));
#643=EDGE_LOOP('',(#276));
#644=EDGE_LOOP('',(#277));
#645=EDGE_LOOP('',(#278));
#646=EDGE_LOOP('',(#279,#280,#281,#282,#283,#284));
#647=EDGE_LOOP('',(#285));
#648=EDGE_LOOP('',(#286));
#649=EDGE_LOOP('',(#287,#288,#289,#290,#291,#292));
#650=EDGE_LOOP('',(#293));
#651=EDGE_LOOP('',(#294));
#652=EDGE_LOOP('',(#295));
#653=EDGE_LOOP('',(#296));
#654=EDGE_LOOP('',(#297));
#655=EDGE_LOOP('',(#298));
#656=EDGE_LOOP('',(#299,#300,#301,#302));
#657=EDGE_LOOP('',(#303,#304,#305,#306));
#658=EDGE_LOOP('',(#307,#308,#309,#310));
#659=EDGE_LOOP('',(#311,#312,#313,#314));
#660=EDGE_LOOP('',(#315,#316,#317,#318));
#661=EDGE_LOOP('',(#319,#320,#321,#322));
#662=EDGE_LOOP('',(#323,#324,#325,#326));
#663=EDGE_LOOP('',(#327,#328,#329,#330));
#664=EDGE_LOOP('',(#331,#332,#333,#334));
#665=EDGE_LOOP('',(#335,#336,#337,#338));
#666=EDGE_LOOP('',(#339,#340,#341,#342));
#667=EDGE_LOOP('',(#343,#344,#345,#346));
#668=EDGE_LOOP('',(#347,#348,#349,#350));
#669=EDGE_LOOP('',(#351,#352,#353,#354));
#670=EDGE_LOOP('',(#355,#356,#357,#358));
#671=EDGE_LOOP('',(#359,#360,#361,#362));
#672=EDGE_LOOP('',(#363,#364,#365,#366));
#673=EDGE_LOOP('',(#367,#368,#369,#370));
#674=FACE_BOUND('',#608,.T.);
#675=FACE_BOUND('',#609,.T.);
#676=FACE_BOUND('',#610,.T.);
#677=FACE_BOUND('',#611,.T.);
#678=FACE_BOUND('',#612,.T.);
#679=FACE_BOUND('',#613,.T.);
#680=FACE_BOUND('',#614,.T.);
#681=FACE_BOUND('',#615,.T.);
#682=FACE_BOUND('',#616,.T.);
#683=FACE_BOUND('',#617,.T.);
#684=FACE_BOUND('',#618,.T.);
#685=FACE_BOUND('',#619,.T.);
#686=FACE_BOUND('',#620,.T.);
#687=FACE_BOUND('',#621,.T.);
#688=FACE_BOUND('',#622,.T.);
#689=FACE_BOUND('',#623,.T.);
#690=FACE_BOUND('',#624,.T.);
#691=FACE_BOUND('',#625,.T.);
#692=FACE_BOUND('',#626,.T.);
#693=FACE_BOUND('',#627,.T.);
#694=FACE_BOUND('',#628,.T.);
#695=FACE_BOUND('',#629,.T.);
#696=FACE_BOUND('',#630,.T.);
#697=FACE_BOUND('',#631,.T.);
#698=FACE_BOUND('',#632,.T.);
#699=FACE_BOUND('',#633,.T.);
#700=FACE_BOUND('',#634,.T.);
#701=FACE_BOUND('',#635,.T.);
#702=FACE_BOUND('',#636,.T.);
#703=FACE_BOUND('',#637,.T.);
#704=FACE_BOUND('',#638,.T.);
#705=FACE_BOUND('',#639,.T.);
#706=FACE_BOUND('',#640,.T.);
#707=FACE_BOUND('',#641,.T.);
#708=FACE_BOUND('',#642,.T.);
#709=FACE_BOUND('',#643,.T.);
#710=FACE_BOUND('',#644,.T.);
#711=FACE_BOUND('',#645,.T.);
#712=FACE_BOUND('',#646,.T.);
#713=FACE_BOUND('',#647,.T.);
#714=FACE_BOUND('',#648,.T.);
#715=FACE_BOUND('',#649,.T.);
#716=FACE_BOUND('',#650,.T.);
#717=FACE_BOUND('',#651,.T.);
#718=FACE_BOUND('',#652,.T.);
#719=FACE_BOUND('',#653,.T.);
#720=FACE_BOUND('',#654,.T.);
#721=FACE_BOUND('',#655,.T.);
#722=FACE_BOUND('',#656,.T.);
#723=FACE_BOUND('',#657,.T.);
#724=FACE_BOUND('',#658,.T.);
#725=FACE_BOUND('',#659,.T.);
#726=FACE_BOUND('',#660,.T.);
#727=FACE_BOUND('',#661,.T.);
#728=FACE_BOUND('',#662,.T.);
#729=FACE_BOUND('',#663,.T.);
#730=FACE_BOUND('',#664,.T.);
#731=FACE_BOUND('',#665,.T.);
#732=FACE_BOUND('',#666,.T.);
#733=FACE_BOUND('',#667,.T.);
#734=FACE_BOUND('',#668,.T.);
#735=FACE_BOUND('',#669,.T.);
#736=FACE_BOUND('',#670,.T.);
#737=FACE_BOUND('',#671,.T.);
#738=FACE_BOUND('',#672,.T.);
#739=FACE_BOUND('',#673,.T.);
#740=PLANE('',#820);
#741=PLANE('',#823);
#742=PLANE('',#824);
#743=PLANE('',#827);
#744=PLANE('',#828);
#745=PLANE('',#831);
#746=PLANE('',#832);
#747=PLANE('',#833);
#748=PLANE('',#839);
#749=PLANE('',#856);
#750=PLANE('',#859);
#751=PLANE('',#863);
#752=PLANE('',#865);
#753=PLANE('',#866);
#754=PLANE('',#869);
#755=PLANE('',#873);
#756=PLANE('',#878);
#757=PLANE('',#883);
#758=PLANE('',#888);
#759=ADVANCED_FACE('',(#674,#675),#740,.T.);
#760=ADVANCED_FACE('',(#676),#741,.F.);
#761=ADVANCED_FACE('',(#677,#678),#742,.T.);
#762=ADVANCED_FACE('',(#679),#743,.F.);
#763=ADVANCED_FACE('',(#680,#681),#744,.T.);
#764=ADVANCED_FACE('',(#682),#745,.T.);
#765=ADVANCED_FACE('',(#683),#746,.T.);
#766=ADVANCED_FACE('',(#684,#685),#747,.T.);
#767=ADVANCED_FACE('',(#686,#687,#688,#689),#748,.F.);
#768=ADVANCED_FACE('',(#690),#749,.T.);
#769=ADVANCED_FACE('',(#691),#17,.T.);
#770=ADVANCED_FACE('',(#692),#750,.F.);
#771=ADVANCED_FACE('',(#693,#694),#18,.F.);
#772=ADVANCED_FACE('',(#695),#19,.T.);
#773=ADVANCED_FACE('',(#696),#751,.F.);
#774=ADVANCED_FACE('',(#697,#698),#20,.F.);
#775=ADVANCED_FACE('',(#699),#752,.T.);
#776=ADVANCED_FACE('',(#700),#753,.T.);
#777=ADVANCED_FACE('',(#701),#21,.T.);
#778=ADVANCED_FACE('',(#702),#754,.F.);
#779=ADVANCED_FACE('',(#703,#704),#22,.F.);
#780=ADVANCED_FACE('',(#705,#706),#23,.F.);
#781=ADVANCED_FACE('',(#707,#708),#755,.T.);
#782=ADVANCED_FACE('',(#709,#710),#24,.F.);
#783=ADVANCED_FACE('',(#711,#712),#756,.T.);
#784=ADVANCED_FACE('',(#713,#714),#25,.F.);
#785=ADVANCED_FACE('',(#715,#716),#757,.T.);
#786=ADVANCED_FACE('',(#717,#718),#26,.T.);
#787=ADVANCED_FACE('',(#719),#758,.T.);
#788=ADVANCED_FACE('',(#720,#721),#12,.T.);
#789=ADVANCED_FACE('',(#722),#27,.T.);
#790=ADVANCED_FACE('',(#723),#28,.T.);
#791=ADVANCED_FACE('',(#724),#29,.T.);
#792=ADVANCED_FACE('',(#725),#30,.T.);
#793=ADVANCED_FACE('',(#726),#31,.F.);
#794=ADVANCED_FACE('',(#727),#32,.F.);
#795=ADVANCED_FACE('',(#728),#33,.F.);
#796=ADVANCED_FACE('',(#729),#34,.F.);
#797=ADVANCED_FACE('',(#730),#35,.F.);
#798=ADVANCED_FACE('',(#731),#36,.F.);
#799=ADVANCED_FACE('',(#732),#13,.T.);
#800=ADVANCED_FACE('',(#733),#37,.T.);
#801=ADVANCED_FACE('',(#734),#38,.T.);
#802=ADVANCED_FACE('',(#735),#14,.T.);
#803=ADVANCED_FACE('',(#736),#15,.T.);
#804=ADVANCED_FACE('',(#737),#39,.T.);
#805=ADVANCED_FACE('',(#738),#40,.T.);
#806=ADVANCED_FACE('',(#739),#16,.T.);
#807=CLOSED_SHELL('',(#759,#760,#761,#762,#763,#764,#765,#766,#767,#768,
#769,#770,#771,#772,#773,#774,#775,#776,#777,#778,#779,#780,#781,#782,#783,
#784,#785,#786,#787,#788,#789,#790,#791,#792,#793,#794,#795,#796,#797,#798,
#799,#800,#801,#802,#803,#804,#805,#806));
#808=STYLED_ITEM('',(#809),#816);
#809=PRESENTATION_STYLE_ASSIGNMENT((#810));
#810=SURFACE_STYLE_USAGE(.BOTH.,#811);
#811=SURFACE_SIDE_STYLE('',(#812));
#812=SURFACE_STYLE_FILL_AREA(#813);
#813=FILL_AREA_STYLE('',(#814));
#814=FILL_AREA_STYLE_COLOUR('',#815);
#815=COLOUR_RGB('',0.615686274509804,0.811764705882353,0.929411764705882);
#816=MANIFOLD_SOLID_BREP('Part 1',#807);
#817=SHAPE_DEFINITION_REPRESENTATION(#1420,#818);
#818=SHAPE_REPRESENTATION('Part 1',(#819),#1415);
#819=AXIS2_PLACEMENT_3D('',#1181,#921,#922);
#820=AXIS2_PLACEMENT_3D('',#1182,#923,#924);
#821=AXIS2_PLACEMENT_3D('',#1183,#925,#926);
#822=AXIS2_PLACEMENT_3D('',#1185,#927,#928);
#823=AXIS2_PLACEMENT_3D('',#1187,#929,#930);
#824=AXIS2_PLACEMENT_3D('',#1204,#939,#940);
#825=AXIS2_PLACEMENT_3D('',#1205,#941,#942);
#826=AXIS2_PLACEMENT_3D('',#1207,#943,#944);
#827=AXIS2_PLACEMENT_3D('',#1209,#945,#946);
#828=AXIS2_PLACEMENT_3D('',#1226,#955,#956);
#829=AXIS2_PLACEMENT_3D('',#1227,#957,#958);
#830=AXIS2_PLACEMENT_3D('',#1229,#959,#960);
#831=AXIS2_PLACEMENT_3D('',#1231,#961,#962);
#832=AXIS2_PLACEMENT_3D('',#1240,#967,#968);
#833=AXIS2_PLACEMENT_3D('',#1257,#977,#978);
#834=AXIS2_PLACEMENT_3D('',#1261,#980,#981);
#835=AXIS2_PLACEMENT_3D('',#1265,#983,#984);
#836=AXIS2_PLACEMENT_3D('',#1269,#986,#987);
#837=AXIS2_PLACEMENT_3D('',#1273,#989,#990);
#838=AXIS2_PLACEMENT_3D('',#1274,#991,#992);
#839=AXIS2_PLACEMENT_3D('',#1276,#993,#994);
#840=AXIS2_PLACEMENT_3D('',#1277,#995,#996);
#841=AXIS2_PLACEMENT_3D('',#1278,#997,#998);
#842=AXIS2_PLACEMENT_3D('',#1282,#1000,#1001);
#843=AXIS2_PLACEMENT_3D('',#1286,#1003,#1004);
#844=AXIS2_PLACEMENT_3D('',#1287,#1005,#1006);
#845=AXIS2_PLACEMENT_3D('',#1288,#1007,#1008);
#846=AXIS2_PLACEMENT_3D('',#1289,#1009,#1010);
#847=AXIS2_PLACEMENT_3D('',#1293,#1012,#1013);
#848=AXIS2_PLACEMENT_3D('',#1297,#1015,#1016);
#849=AXIS2_PLACEMENT_3D('',#1298,#1017,#1018);
#850=AXIS2_PLACEMENT_3D('',#1299,#1019,#1020);
#851=AXIS2_PLACEMENT_3D('',#1303,#1022,#1023);
#852=AXIS2_PLACEMENT_3D('',#1307,#1025,#1026);
#853=AXIS2_PLACEMENT_3D('',#1308,#1027,#1028);
#854=AXIS2_PLACEMENT_3D('',#1310,#1029,#1030);
#855=AXIS2_PLACEMENT_3D('',#1312,#1031,#1032);
#856=AXIS2_PLACEMENT_3D('',#1314,#1033,#1034);
#857=AXIS2_PLACEMENT_3D('',#1320,#1038,#1039);
#858=AXIS2_PLACEMENT_3D('',#1323,#1041,#1042);
#859=AXIS2_PLACEMENT_3D('',#1324,#1043,#1044);
#860=AXIS2_PLACEMENT_3D('',#1328,#1047,#1048);
#861=AXIS2_PLACEMENT_3D('',#1329,#1049,#1050);
#862=AXIS2_PLACEMENT_3D('',#1332,#1052,#1053);
#863=AXIS2_PLACEMENT_3D('',#1335,#1055,#1056);
#864=AXIS2_PLACEMENT_3D('',#1339,#1059,#1060);
#865=AXIS2_PLACEMENT_3D('',#1340,#1061,#1062);
#866=AXIS2_PLACEMENT_3D('',#1344,#1065,#1066);
#867=AXIS2_PLACEMENT_3D('',#1350,#1070,#1071);
#868=AXIS2_PLACEMENT_3D('',#1353,#1073,#1074);
#869=AXIS2_PLACEMENT_3D('',#1354,#1075,#1076);
#870=AXIS2_PLACEMENT_3D('',#1358,#1079,#1080);
#871=AXIS2_PLACEMENT_3D('',#1359,#1081,#1082);
#872=AXIS2_PLACEMENT_3D('',#1360,#1083,#1084);
#873=AXIS2_PLACEMENT_3D('',#1362,#1085,#1086);
#874=AXIS2_PLACEMENT_3D('',#1363,#1087,#1088);
#875=AXIS2_PLACEMENT_3D('',#1364,#1089,#1090);
#876=AXIS2_PLACEMENT_3D('',#1365,#1091,#1092);
#877=AXIS2_PLACEMENT_3D('',#1366,#1093,#1094);
#878=AXIS2_PLACEMENT_3D('',#1368,#1095,#1096);
#879=AXIS2_PLACEMENT_3D('',#1369,#1097,#1098);
#880=AXIS2_PLACEMENT_3D('',#1370,#1099,#1100);
#881=AXIS2_PLACEMENT_3D('',#1371,#1101,#1102);
#882=AXIS2_PLACEMENT_3D('',#1372,#1103,#1104);
#883=AXIS2_PLACEMENT_3D('',#1374,#1105,#1106);
#884=AXIS2_PLACEMENT_3D('',#1375,#1107,#1108);
#885=AXIS2_PLACEMENT_3D('',#1376,#1109,#1110);
#886=AXIS2_PLACEMENT_3D('',#1377,#1111,#1112);
#887=AXIS2_PLACEMENT_3D('',#1378,#1113,#1114);
#888=AXIS2_PLACEMENT_3D('',#1380,#1115,#1116);
#889=AXIS2_PLACEMENT_3D('',#1381,#1117,#1118);
#890=AXIS2_PLACEMENT_3D('',#1383,#1119,#1120);
#891=AXIS2_PLACEMENT_3D('',#1384,#1121,#1122);
#892=AXIS2_PLACEMENT_3D('',#1385,#1123,#1124);
#893=AXIS2_PLACEMENT_3D('',#1386,#1125,#1126);
#894=AXIS2_PLACEMENT_3D('',#1387,#1127,#1128);
#895=AXIS2_PLACEMENT_3D('',#1388,#1129,#1130);
#896=AXIS2_PLACEMENT_3D('',#1389,#1131,#1132);
#897=AXIS2_PLACEMENT_3D('',#1390,#1133,#1134);
#898=AXIS2_PLACEMENT_3D('',#1391,#1135,#1136);
#899=AXIS2_PLACEMENT_3D('',#1392,#1137,#1138);
#900=AXIS2_PLACEMENT_3D('',#1393,#1139,#1140);
#901=AXIS2_PLACEMENT_3D('',#1394,#1141,#1142);
#902=AXIS2_PLACEMENT_3D('',#1395,#1143,#1144);
#903=AXIS2_PLACEMENT_3D('',#1396,#1145,#1146);
#904=AXIS2_PLACEMENT_3D('',#1397,#1147,#1148);
#905=AXIS2_PLACEMENT_3D('',#1398,#1149,#1150);
#906=AXIS2_PLACEMENT_3D('',#1399,#1151,#1152);
#907=AXIS2_PLACEMENT_3D('',#1400,#1153,#1154);
#908=AXIS2_PLACEMENT_3D('',#1401,#1155,#1156);
#909=AXIS2_PLACEMENT_3D('',#1402,#1157,#1158);
#910=AXIS2_PLACEMENT_3D('',#1403,#1159,#1160);
#911=AXIS2_PLACEMENT_3D('',#1404,#1161,#1162);
#912=AXIS2_PLACEMENT_3D('',#1405,#1163,#1164);
#913=AXIS2_PLACEMENT_3D('',#1406,#1165,#1166);
#914=AXIS2_PLACEMENT_3D('',#1407,#1167,#1168);
#915=AXIS2_PLACEMENT_3D('',#1408,#1169,#1170);
#916=AXIS2_PLACEMENT_3D('',#1409,#1171,#1172);
#917=AXIS2_PLACEMENT_3D('',#1410,#1173,#1174);
#918=AXIS2_PLACEMENT_3D('',#1411,#1175,#1176);
#919=AXIS2_PLACEMENT_3D('',#1412,#1177,#1178);
#920=AXIS2_PLACEMENT_3D('',#1413,#1179,#1180);
#921=DIRECTION('',(0.,0.,1.));
#922=DIRECTION('',(1.,0.,0.));
#923=DIRECTION('',(0.,1.,0.));
#924=DIRECTION('',(1.,0.,0.));
#925=DIRECTION('',(0.,1.,0.));
#926=DIRECTION('',(1.,0.,0.));
#927=DIRECTION('',(0.,1.,0.));
#928=DIRECTION('',(1.,0.,0.));
#929=DIRECTION('',(1.,0.,1.75224593533011E-16));
#930=DIRECTION('',(1.75224593533011E-16,0.,-1.));
#931=DIRECTION('',(0.,-1.,0.));
#932=DIRECTION('',(-1.75224593533011E-16,0.,1.));
#933=DIRECTION('',(0.,-1.,0.));
#934=DIRECTION('',(-1.75224593533011E-16,0.,1.));
#935=DIRECTION('',(0.,-1.,0.));
#936=DIRECTION('',(0.,0.,-1.));
#937=DIRECTION('',(0.,-1.,0.));
#938=DIRECTION('',(-1.75224593533011E-16,0.,1.));
#939=DIRECTION('',(0.,1.,0.));
#940=DIRECTION('',(1.,0.,0.));
#941=DIRECTION('',(0.,1.,0.));
#942=DIRECTION('',(1.,0.,0.));
#943=DIRECTION('',(0.,1.,0.));
#944=DIRECTION('',(1.,0.,0.));
#945=DIRECTION('',(0.,0.,-1.));
#946=DIRECTION('',(0.,1.,0.));
#947=DIRECTION('',(0.,-1.,0.));
#948=DIRECTION('',(1.,0.,0.));
#949=DIRECTION('',(0.,-1.,0.));
#950=DIRECTION('',(1.,0.,0.));
#951=DIRECTION('',(0.,-1.,0.));
#952=DIRECTION('',(-1.,0.,0.));
#953=DIRECTION('',(0.,-1.,0.));
#954=DIRECTION('',(1.,0.,0.));
#955=DIRECTION('',(0.,1.,0.));
#956=DIRECTION('',(1.,0.,0.));
#957=DIRECTION('',(0.,1.,0.));
#958=DIRECTION('',(1.,0.,0.));
#959=DIRECTION('',(0.,1.,0.));
#960=DIRECTION('',(1.,0.,0.));
#961=DIRECTION('',(0.,0.,-1.));
#962=DIRECTION('',(0.,1.,0.));
#963=DIRECTION('',(0.,-1.,0.));
#964=DIRECTION('',(1.,0.,0.));
#965=DIRECTION('',(0.,-1.,0.));
#966=DIRECTION('',(1.,0.,0.));
#967=DIRECTION('',(1.,0.,1.75224593533011E-16));
#968=DIRECTION('',(1.75224593533011E-16,0.,-1.));
#969=DIRECTION('',(0.,-1.,0.));
#970=DIRECTION('',(-1.75224593533011E-16,0.,1.));
#971=DIRECTION('',(0.,-1.,0.));
#972=DIRECTION('',(-1.75224593533011E-16,0.,1.));
#973=DIRECTION('',(0.,-1.,0.));
#974=DIRECTION('',(0.,0.,1.));
#975=DIRECTION('',(0.,-1.,0.));
#976=DIRECTION('',(-1.75224593533011E-16,0.,1.));
#977=DIRECTION('',(0.,1.,0.));
#978=DIRECTION('',(1.,0.,0.));
#979=DIRECTION('',(1.,0.,0.));
#980=DIRECTION('',(0.,1.,0.));
#981=DIRECTION('',(1.,0.,0.));
#982=DIRECTION('',(-1.75224593533011E-16,0.,1.));
#983=DIRECTION('',(0.,1.,0.));
#984=DIRECTION('',(1.,0.,0.));
#985=DIRECTION('',(1.,0.,0.));
#986=DIRECTION('',(0.,1.,0.));
#987=DIRECTION('',(1.,0.,0.));
#988=DIRECTION('',(-1.75224593533011E-16,0.,1.));
#989=DIRECTION('',(0.,1.,0.));
#990=DIRECTION('',(1.,0.,0.));
#991=DIRECTION('',(0.,1.,0.));
#992=DIRECTION('',(1.,0.,0.));
#993=DIRECTION('',(0.,1.,0.));
#994=DIRECTION('',(1.,0.,0.));
#995=DIRECTION('',(0.,1.,0.));
#996=DIRECTION('',(1.,0.,0.));
#997=DIRECTION('',(0.,1.,0.));
#998=DIRECTION('',(1.,0.,0.));
#999=DIRECTION('',(1.,0.,0.));
#1000=DIRECTION('',(0.,1.,0.));
#1001=DIRECTION('',(1.,0.,0.));
#1002=DIRECTION('',(1.,0.,0.));
#1003=DIRECTION('',(0.,1.,0.));
#1004=DIRECTION('',(1.,0.,0.));
#1005=DIRECTION('',(0.,1.,0.));
#1006=DIRECTION('',(1.,0.,0.));
#1007=DIRECTION('',(0.,1.,0.));
#1008=DIRECTION('',(1.,0.,0.));
#1009=DIRECTION('',(0.,1.,0.));
#1010=DIRECTION('',(1.,0.,0.));
#1011=DIRECTION('',(-1.,0.,0.));
#1012=DIRECTION('',(0.,1.,0.));
#1013=DIRECTION('',(1.,0.,0.));
#1014=DIRECTION('',(-1.,0.,0.));
#1015=DIRECTION('',(0.,1.,0.));
#1016=DIRECTION('',(1.,0.,0.));
#1017=DIRECTION('',(0.,1.,0.));
#1018=DIRECTION('',(1.,0.,0.));
#1019=DIRECTION('',(0.,1.,0.));
#1020=DIRECTION('',(1.,0.,0.));
#1021=DIRECTION('',(-1.40349795791004E-16,0.,-1.));
#1022=DIRECTION('',(0.,1.,0.));
#1023=DIRECTION('',(1.,0.,0.));
#1024=DIRECTION('',(0.,0.,-1.));
#1025=DIRECTION('',(0.,1.,0.));
#1026=DIRECTION('',(1.,0.,0.));
#1027=DIRECTION('',(0.,1.,0.));
#1028=DIRECTION('',(1.,0.,0.));
#1029=DIRECTION('',(0.,1.,0.));
#1030=DIRECTION('',(1.,0.,0.));
#1031=DIRECTION('',(0.,1.,0.));
#1032=DIRECTION('',(1.,0.,0.));
#1033=DIRECTION('',(-1.,0.,0.));
#1034=DIRECTION('',(0.,1.,0.));
#1035=DIRECTION('',(0.,0.,-1.));
#1036=DIRECTION('',(0.,-1.,0.));
#1037=DIRECTION('',(0.,-1.,0.));
#1038=DIRECTION('',(0.,-1.,0.));
#1039=DIRECTION('',(-1.,0.,0.));
#1040=DIRECTION('',(0.,-1.,0.));
#1041=DIRECTION('',(0.,1.,0.));
#1042=DIRECTION('',(1.,0.,0.));
#1043=DIRECTION('',(-1.,0.,1.40349795791004E-16));
#1044=DIRECTION('',(1.40349795791004E-16,0.,1.));
#1045=DIRECTION('',(0.,-1.,0.));
#1046=DIRECTION('',(-1.40349795791004E-16,0.,-1.));
#1047=DIRECTION('',(0.,-1.,0.));
#1048=DIRECTION('',(-1.,0.,0.));
#1049=DIRECTION('',(0.,-1.,0.));
#1050=DIRECTION('',(-1.,0.,0.));
#1051=DIRECTION('',(0.,-1.,0.));
#1052=DIRECTION('',(0.,1.,0.));
#1053=DIRECTION('',(1.,0.,0.));
#1054=DIRECTION('',(0.,-1.,0.));
#1055=DIRECTION('',(0.,0.,-1.));
#1056=DIRECTION('',(0.,1.,0.));
#1057=DIRECTION('',(0.,-1.,0.));
#1058=DIRECTION('',(1.,0.,0.));
#1059=DIRECTION('',(0.,-1.,0.));
#1060=DIRECTION('',(-1.,0.,0.));
#1061=DIRECTION('',(0.,0.,-1.));
#1062=DIRECTION('',(0.,1.,0.));
#1063=DIRECTION('',(1.,0.,0.));
#1064=DIRECTION('',(0.,-1.,0.));
#1065=DIRECTION('',(0.,0.,1.));
#1066=DIRECTION('',(0.,-1.,0.));
#1067=DIRECTION('',(-1.,0.,0.));
#1068=DIRECTION('',(0.,-1.,0.));
#1069=DIRECTION('',(0.,-1.,0.));
#1070=DIRECTION('',(0.,-1.,0.));
#1071=DIRECTION('',(-1.,0.,0.));
#1072=DIRECTION('',(0.,-1.,0.));
#1073=DIRECTION('',(0.,1.,0.));
#1074=DIRECTION('',(1.,0.,0.));
#1075=DIRECTION('',(0.,0.,1.));
#1076=DIRECTION('',(0.,-1.,0.));
#1077=DIRECTION('',(0.,-1.,0.));
#1078=DIRECTION('',(-1.,0.,0.));
#1079=DIRECTION('',(0.,-1.,0.));
#1080=DIRECTION('',(-1.,0.,0.));
#1081=DIRECTION('',(0.,-1.,0.));
#1082=DIRECTION('',(-1.,0.,0.));
#1083=DIRECTION('',(0.,1.,0.));
#1084=DIRECTION('',(1.,0.,0.));
#1085=DIRECTION('',(0.,1.,0.));
#1086=DIRECTION('',(1.,0.,0.));
#1087=DIRECTION('',(0.,1.,0.));
#1088=DIRECTION('',(1.,0.,0.));
#1089=DIRECTION('',(0.,1.,0.));
#1090=DIRECTION('',(1.,0.,0.));
#1091=DIRECTION('',(0.,-1.,0.));
#1092=DIRECTION('',(-1.,0.,0.));
#1093=DIRECTION('',(0.,1.,0.));
#1094=DIRECTION('',(1.,0.,0.));
#1095=DIRECTION('',(0.,1.,0.));
#1096=DIRECTION('',(1.,0.,0.));
#1097=DIRECTION('',(0.,1.,0.));
#1098=DIRECTION('',(1.,0.,0.));
#1099=DIRECTION('',(0.,1.,0.));
#1100=DIRECTION('',(1.,0.,0.));
#1101=DIRECTION('',(0.,-1.,0.));
#1102=DIRECTION('',(-1.,0.,0.));
#1103=DIRECTION('',(0.,1.,0.));
#1104=DIRECTION('',(1.,0.,0.));
#1105=DIRECTION('',(0.,1.,0.));
#1106=DIRECTION('',(1.,0.,0.));
#1107=DIRECTION('',(0.,1.,0.));
#1108=DIRECTION('',(1.,0.,0.));
#1109=DIRECTION('',(0.,1.,0.));
#1110=DIRECTION('',(1.,0.,0.));
#1111=DIRECTION('',(0.,-1.,0.));
#1112=DIRECTION('',(-1.,0.,0.));
#1113=DIRECTION('',(0.,1.,0.));
#1114=DIRECTION('',(1.,0.,0.));
#1115=DIRECTION('',(0.,1.,0.));
#1116=DIRECTION('',(1.,0.,0.));
#1117=DIRECTION('',(0.,1.,0.));
#1118=DIRECTION('',(1.,0.,0.));
#1119=DIRECTION('',(0.,1.,0.));
#1120=DIRECTION('',(1.,0.,0.));
#1121=DIRECTION('',(0.,-1.,0.));
#1122=DIRECTION('',(-1.,0.,0.));
#1123=DIRECTION('',(0.,1.,0.));
#1124=DIRECTION('',(1.,0.,0.));
#1125=DIRECTION('',(0.,1.,0.));
#1126=DIRECTION('',(1.,0.,0.));
#1127=DIRECTION('',(0.,1.,0.));
#1128=DIRECTION('',(1.,0.,0.));
#1129=DIRECTION('',(0.,1.,0.));
#1130=DIRECTION('',(1.,0.,0.));
#1131=DIRECTION('',(0.,1.,0.));
#1132=DIRECTION('',(1.,0.,0.));
#1133=DIRECTION('',(0.,-1.,0.));
#1134=DIRECTION('',(-1.,0.,0.));
#1135=DIRECTION('',(0.,1.,0.));
#1136=DIRECTION('',(1.,0.,0.));
#1137=DIRECTION('',(0.,-1.,0.));
#1138=DIRECTION('',(-1.,0.,0.));
#1139=DIRECTION('',(0.,1.,0.));
#1140=DIRECTION('',(1.,0.,0.));
#1141=DIRECTION('',(0.,-1.,0.));
#1142=DIRECTION('',(-1.,0.,0.));
#1143=DIRECTION('',(0.,1.,0.));
#1144=DIRECTION('',(1.,0.,0.));
#1145=DIRECTION('',(0.,1.,0.));
#1146=DIRECTION('',(1.,0.,0.));
#1147=DIRECTION('',(0.,-1.,0.));
#1148=DIRECTION('',(-1.,0.,0.));
#1149=DIRECTION('',(0.,1.,0.));
#1150=DIRECTION('',(1.,0.,0.));
#1151=DIRECTION('',(-1.,0.,0.));
#1152=DIRECTION('',(0.,1.,0.));
#1153=DIRECTION('',(0.,0.,-1.));
#1154=DIRECTION('',(0.,1.,0.));
#1155=DIRECTION('',(-1.75224593533011E-16,0.,1.));
#1156=DIRECTION('',(1.,0.,1.75224593533011E-16));
#1157=DIRECTION('',(0.,0.,-1.));
#1158=DIRECTION('',(0.,1.,0.));
#1159=DIRECTION('',(-1.,0.,0.));
#1160=DIRECTION('',(0.,1.,0.));
#1161=DIRECTION('',(-1.,0.,0.));
#1162=DIRECTION('',(0.,1.,0.));
#1163=DIRECTION('',(0.,1.,0.));
#1164=DIRECTION('',(1.,0.,0.));
#1165=DIRECTION('',(-1.,0.,0.));
#1166=DIRECTION('',(0.,1.,0.));
#1167=DIRECTION('',(0.,1.,0.));
#1168=DIRECTION('',(1.,0.,0.));
#1169=DIRECTION('',(0.,0.,-1.));
#1170=DIRECTION('',(0.,1.,0.));
#1171=DIRECTION('',(1.,0.,0.));
#1172=DIRECTION('',(0.,-1.,0.));
#1173=DIRECTION('',(-1.,0.,0.));
#1174=DIRECTION('',(0.,1.,0.));
#1175=DIRECTION('',(1.75224593533011E-16,0.,-1.));
#1176=DIRECTION('',(-1.,0.,-1.75224593533011E-16));
#1177=DIRECTION('',(0.,0.,-1.));
#1178=DIRECTION('',(0.,1.,0.));
#1179=DIRECTION('',(0.,1.,0.));
#1180=DIRECTION('',(1.,0.,0.));
#1181=CARTESIAN_POINT('',(0.,0.,0.));
#1182=CARTESIAN_POINT('',(0.,0.001,0.003345));
#1183=CARTESIAN_POINT('',(0.0234,0.001,-0.00903));
#1184=CARTESIAN_POINT('',(0.02465,0.001,-0.00903));
#1185=CARTESIAN_POINT('',(0.0234,0.001,-0.00903));
#1186=CARTESIAN_POINT('',(0.025625,0.001,-0.00903));
#1187=CARTESIAN_POINT('',(-0.0198,0.0224,3.46944695195361E-18));
#1188=CARTESIAN_POINT('',(-0.0198,0.0224,0.0148));
#1189=CARTESIAN_POINT('',(-0.0198,0.,0.0148));
#1190=CARTESIAN_POINT('',(-0.0198,0.0214,0.0148));
#1191=CARTESIAN_POINT('',(-0.0198,0.0214,-0.0148));
#1192=CARTESIAN_POINT('',(-0.0198,0.0214,-0.0148));
#1193=CARTESIAN_POINT('',(-0.0198,0.,-0.0148));
#1194=CARTESIAN_POINT('',(-0.0198,0.,-0.0148));
#1195=CARTESIAN_POINT('',(-0.0198,0.,3.46944695195361E-18));
#1196=CARTESIAN_POINT('',(-0.0198,0.,-0.01363));
#1197=CARTESIAN_POINT('',(-0.0198,0.0224,-0.01363));
#1198=CARTESIAN_POINT('',(-0.0198,0.004,-0.01363));
#1199=CARTESIAN_POINT('',(-0.0198,0.004,-0.00723));
#1200=CARTESIAN_POINT('',(-0.0198,0.004,-0.00443));
#1201=CARTESIAN_POINT('',(-0.0198,0.,-0.00443));
#1202=CARTESIAN_POINT('',(-0.0198,0.,-0.00443));
#1203=CARTESIAN_POINT('',(-0.0198,0.,3.46944695195361E-18));
#1204=CARTESIAN_POINT('',(0.,0.001,0.003345));
#1205=CARTESIAN_POINT('',(-0.0234,0.001,-0.00903));
#1206=CARTESIAN_POINT('',(-0.02215,0.001,-0.00903));
#1207=CARTESIAN_POINT('',(-0.0234,0.001,-0.00903));
#1208=CARTESIAN_POINT('',(-0.021175,0.001,-0.00903));
#1209=CARTESIAN_POINT('',(-3.46944695195361E-18,0.0224,0.0198));
#1210=CARTESIAN_POINT('',(0.0148,0.0224,0.0198));
#1211=CARTESIAN_POINT('',(0.0148,0.,0.0198));
#1212=CARTESIAN_POINT('',(0.0148,0.0214,0.0198));
#1213=CARTESIAN_POINT('',(-0.0148,0.0214,0.0198));
#1214=CARTESIAN_POINT('',(-0.0148,0.0214,0.0198));
#1215=CARTESIAN_POINT('',(-0.0148,0.0224,0.0198));
#1216=CARTESIAN_POINT('',(-0.0148,0.,0.0198));
#1217=CARTESIAN_POINT('',(-3.46944695195361E-18,0.,0.0198));
#1218=CARTESIAN_POINT('',(-0.0046,0.,0.0198));
#1219=CARTESIAN_POINT('',(-0.0046,0.0224,0.0198));
#1220=CARTESIAN_POINT('',(-0.0046,0.004,0.0198));
#1221=CARTESIAN_POINT('',(-0.00272356645673175,0.004,0.0198));
#1222=CARTESIAN_POINT('',(0.0046,0.004,0.0198));
#1223=CARTESIAN_POINT('',(0.0046,0.,0.0198));
#1224=CARTESIAN_POINT('',(0.0046,0.,0.0198));
#1225=CARTESIAN_POINT('',(-3.46944695195361E-18,0.,0.0198));
#1226=CARTESIAN_POINT('',(0.,0.001,0.003345));
#1227=CARTESIAN_POINT('',(7.80625564189563E-18,0.001,0.02289));
#1228=CARTESIAN_POINT('',(0.00125000000000001,0.001,0.02289));
#1229=CARTESIAN_POINT('',(7.80625564189563E-18,0.001,0.02289));
#1230=CARTESIAN_POINT('',(0.00222500000000001,0.001,0.02289));
#1231=CARTESIAN_POINT('',(6.93889390390723E-18,0.0224,-0.0198));
#1232=CARTESIAN_POINT('',(-0.0148,0.0224,-0.0198));
#1233=CARTESIAN_POINT('',(-0.0148,0.,-0.0198));
#1234=CARTESIAN_POINT('',(-0.0148,0.0214,-0.0198));
#1235=CARTESIAN_POINT('',(6.93889390390723E-18,0.0214,-0.0198));
#1236=CARTESIAN_POINT('',(0.0148,0.0214,-0.0198));
#1237=CARTESIAN_POINT('',(0.0148,0.0224,-0.0198));
#1238=CARTESIAN_POINT('',(0.0148,0.,-0.0198));
#1239=CARTESIAN_POINT('',(6.93889390390723E-18,0.,-0.0198));
#1240=CARTESIAN_POINT('',(0.0198,0.0224,3.46944695195361E-18));
#1241=CARTESIAN_POINT('',(0.0198,0.0224,-0.0148));
#1242=CARTESIAN_POINT('',(0.0198,0.,-0.0148));
#1243=CARTESIAN_POINT('',(0.0198,0.0214,-0.0148));
#1244=CARTESIAN_POINT('',(0.0198,0.0214,3.46944695195361E-18));
#1245=CARTESIAN_POINT('',(0.0198,0.0214,0.0148));
#1246=CARTESIAN_POINT('',(0.0198,0.,0.0148));
#1247=CARTESIAN_POINT('',(0.0198,0.,0.0148));
#1248=CARTESIAN_POINT('',(0.0198,0.,3.46944695195361E-18));
#1249=CARTESIAN_POINT('',(0.0198,0.,-0.00443));
#1250=CARTESIAN_POINT('',(0.0198,0.004,-0.00443));
#1251=CARTESIAN_POINT('',(0.0198,0.004,-0.00443));
#1252=CARTESIAN_POINT('',(0.0198,0.004,-0.00723));
#1253=CARTESIAN_POINT('',(0.0198,0.004,-0.01363));
#1254=CARTESIAN_POINT('',(0.0198,0.0224,-0.01363));
#1255=CARTESIAN_POINT('',(0.0198,0.,-0.01363));
#1256=CARTESIAN_POINT('',(0.0198,0.,3.46944695195361E-18));
#1257=CARTESIAN_POINT('',(0.,0.0224,3.46944695195361E-18));
#1258=CARTESIAN_POINT('',(0.,0.0224,-0.0188));
#1259=CARTESIAN_POINT('',(0.0148,0.0224,-0.0188));
#1260=CARTESIAN_POINT('',(-0.0148,0.0224,-0.0188));
#1261=CARTESIAN_POINT('',(-0.0148,0.0224,-0.0148));
#1262=CARTESIAN_POINT('',(-0.0188,0.0224,-0.0148));
#1263=CARTESIAN_POINT('',(-0.0188,0.0224,0.0148));
#1264=CARTESIAN_POINT('',(-0.0188,0.0224,0.0148));
#1265=CARTESIAN_POINT('',(-0.0148,0.0224,0.0148));
#1266=CARTESIAN_POINT('',(-0.0148,0.0224,0.0188));
#1267=CARTESIAN_POINT('',(0.0148,0.0224,0.0188));
#1268=CARTESIAN_POINT('',(0.0148,0.0224,0.0188));
#1269=CARTESIAN_POINT('',(0.0148,0.0224,0.0148));
#1270=CARTESIAN_POINT('',(0.0188,0.0224,0.0148));
#1271=CARTESIAN_POINT('',(0.0188,0.0224,6.76366931037422E-18));
#1272=CARTESIAN_POINT('',(0.0188,0.0224,-0.0148));
#1273=CARTESIAN_POINT('',(0.0148,0.0224,-0.0148));
#1274=CARTESIAN_POINT('',(0.,0.0224,-1.08044463854775E-18));
#1275=CARTESIAN_POINT('',(0.017645,0.0224,-1.08044463854775E-18));
#1276=CARTESIAN_POINT('',(0.,0.,3.46944695195361E-18));
#1277=CARTESIAN_POINT('',(-0.0148,0.,0.0148));
#1278=CARTESIAN_POINT('',(-0.0208,0.,-0.00443));
#1279=CARTESIAN_POINT('',(-0.0208,0.,-0.00543));
#1280=CARTESIAN_POINT('',(-0.0216,0.,-0.00543));
#1281=CARTESIAN_POINT('',(-0.0234,0.,-0.00543));
#1282=CARTESIAN_POINT('',(-0.0234,0.,-0.00903));
#1283=CARTESIAN_POINT('',(-0.0234,0.,-0.01263));
#1284=CARTESIAN_POINT('',(-0.0216,0.,-0.01263));
#1285=CARTESIAN_POINT('',(-0.0208,0.,-0.01263));
#1286=CARTESIAN_POINT('',(-0.0208,0.,-0.01363));
#1287=CARTESIAN_POINT('',(-0.0148,0.,-0.0148));
#1288=CARTESIAN_POINT('',(0.0148,0.,-0.0148));
#1289=CARTESIAN_POINT('',(0.0208,0.,-0.01363));
#1290=CARTESIAN_POINT('',(0.0208,0.,-0.01263));
#1291=CARTESIAN_POINT('',(0.0216,0.,-0.01263));
#1292=CARTESIAN_POINT('',(0.0234,0.,-0.01263));
#1293=CARTESIAN_POINT('',(0.0234,0.,-0.00903));
#1294=CARTESIAN_POINT('',(0.0234,0.,-0.00543));
#1295=CARTESIAN_POINT('',(0.0216,0.,-0.00543));
#1296=CARTESIAN_POINT('',(0.0208,0.,-0.00543));
#1297=CARTESIAN_POINT('',(0.0208,0.,-0.00443));
#1298=CARTESIAN_POINT('',(0.0148,0.,0.0148));
#1299=CARTESIAN_POINT('',(0.0046,0.,0.0208));
#1300=CARTESIAN_POINT('',(0.0036,0.,0.0208));
#1301=CARTESIAN_POINT('',(0.0036,0.,0.021345));
#1302=CARTESIAN_POINT('',(0.0036,0.,0.02289));
#1303=CARTESIAN_POINT('',(7.80625564189563E-18,0.,0.02289));
#1304=CARTESIAN_POINT('',(-0.0036,0.,0.02289));
#1305=CARTESIAN_POINT('',(-0.0036,0.,0.021345));
#1306=CARTESIAN_POINT('',(-0.0036,0.,0.0208));
#1307=CARTESIAN_POINT('',(-0.0046,0.,0.0208));
#1308=CARTESIAN_POINT('',(0.0234,0.,-0.00903));
#1309=CARTESIAN_POINT('',(0.02465,0.,-0.00903));
#1310=CARTESIAN_POINT('',(7.80625564189563E-18,0.,0.02289));
#1311=CARTESIAN_POINT('',(0.00125000000000001,0.,0.02289));
#1312=CARTESIAN_POINT('',(-0.0234,0.,-0.00903));
#1313=CARTESIAN_POINT('',(-0.02215,0.,-0.00903));
#1314=CARTESIAN_POINT('',(-0.0036,0.001,0.021345));
#1315=CARTESIAN_POINT('',(-0.0036,0.004,0.021345));
#1316=CARTESIAN_POINT('',(-0.0036,0.004,0.02289));
#1317=CARTESIAN_POINT('',(-0.0036,0.004,0.0208));
#1318=CARTESIAN_POINT('',(-0.0036,0.001,0.0208));
#1319=CARTESIAN_POINT('',(-0.0036,0.001,0.02289));
#1320=CARTESIAN_POINT('',(7.80625564189563E-18,0.001,0.02289));
#1321=CARTESIAN_POINT('',(0.0036,0.001,0.02289));
#1322=CARTESIAN_POINT('',(0.0036,0.004,0.02289));
#1323=CARTESIAN_POINT('',(7.80625564189563E-18,0.004,0.02289));
#1324=CARTESIAN_POINT('',(0.0036,0.001,0.021345));
#1325=CARTESIAN_POINT('',(0.0036,0.004,0.0208));
#1326=CARTESIAN_POINT('',(0.0036,0.004,0.0208));
#1327=CARTESIAN_POINT('',(0.0036,0.004,0.021345));
#1328=CARTESIAN_POINT('',(7.80625564189563E-18,0.001,0.02289));
#1329=CARTESIAN_POINT('',(-0.0234,0.001,-0.00903));
#1330=CARTESIAN_POINT('',(-0.0234,0.001,-0.00543));
#1331=CARTESIAN_POINT('',(-0.0234,0.004,-0.00543));
#1332=CARTESIAN_POINT('',(-0.0234,0.004,-0.00903));
#1333=CARTESIAN_POINT('',(-0.0234,0.004,-0.01263));
#1334=CARTESIAN_POINT('',(-0.0234,0.001,-0.01263));
#1335=CARTESIAN_POINT('',(-0.0216,0.001,-0.00543));
#1336=CARTESIAN_POINT('',(-0.0208,0.004,-0.00543));
#1337=CARTESIAN_POINT('',(-0.0208,0.004,-0.00543));
#1338=CARTESIAN_POINT('',(-0.0216,0.004,-0.00543));
#1339=CARTESIAN_POINT('',(-0.0234,0.001,-0.00903));
#1340=CARTESIAN_POINT('',(-0.0216,0.001,-0.01263));
#1341=CARTESIAN_POINT('',(-0.0216,0.004,-0.01263));
#1342=CARTESIAN_POINT('',(-0.0208,0.004,-0.01263));
#1343=CARTESIAN_POINT('',(-0.0208,0.001,-0.01263));
#1344=CARTESIAN_POINT('',(0.0216,0.001,-0.00543));
#1345=CARTESIAN_POINT('',(0.0216,0.004,-0.00543));
#1346=CARTESIAN_POINT('',(0.0234,0.004,-0.00543));
#1347=CARTESIAN_POINT('',(0.0208,0.004,-0.00543));
#1348=CARTESIAN_POINT('',(0.0208,0.,-0.00543));
#1349=CARTESIAN_POINT('',(0.0234,0.001,-0.00543));
#1350=CARTESIAN_POINT('',(0.0234,0.001,-0.00903));
#1351=CARTESIAN_POINT('',(0.0234,0.001,-0.01263));
#1352=CARTESIAN_POINT('',(0.0234,0.004,-0.01263));
#1353=CARTESIAN_POINT('',(0.0234,0.004,-0.00903));
#1354=CARTESIAN_POINT('',(0.0216,0.001,-0.01263));
#1355=CARTESIAN_POINT('',(0.0208,0.001,-0.01263));
#1356=CARTESIAN_POINT('',(0.0208,0.004,-0.01263));
#1357=CARTESIAN_POINT('',(0.0216,0.004,-0.01263));
#1358=CARTESIAN_POINT('',(0.0234,0.001,-0.00903));
#1359=CARTESIAN_POINT('',(7.80625564189563E-18,0.004,0.02289));
#1360=CARTESIAN_POINT('',(7.80625564189563E-18,0.004,0.02289));
#1361=CARTESIAN_POINT('',(0.00222500000000001,0.004,0.02289));
#1362=CARTESIAN_POINT('',(0.,0.004,0.003345));
#1363=CARTESIAN_POINT('',(0.0046,0.004,0.0208));
#1364=CARTESIAN_POINT('',(-0.0046,0.004,0.0208));
#1365=CARTESIAN_POINT('',(-0.0234,0.004,-0.00903));
#1366=CARTESIAN_POINT('',(-0.0234,0.004,-0.00903));
#1367=CARTESIAN_POINT('',(-0.021175,0.004,-0.00903));
#1368=CARTESIAN_POINT('',(0.,0.004,0.003345));
#1369=CARTESIAN_POINT('',(-0.0208,0.004,-0.00443));
#1370=CARTESIAN_POINT('',(-0.0208,0.004,-0.01363));
#1371=CARTESIAN_POINT('',(0.0234,0.004,-0.00903));
#1372=CARTESIAN_POINT('',(0.0234,0.004,-0.00903));
#1373=CARTESIAN_POINT('',(0.025625,0.004,-0.00903));
#1374=CARTESIAN_POINT('',(0.,0.004,0.003345));
#1375=CARTESIAN_POINT('',(0.0208,0.004,-0.01363));
#1376=CARTESIAN_POINT('',(0.0208,0.004,-0.00443));
#1377=CARTESIAN_POINT('',(0.,0.035,-1.08044463854775E-18));
#1378=CARTESIAN_POINT('',(0.,0.034,-1.08044463854775E-18));
#1379=CARTESIAN_POINT('',(0.017645,0.034,-1.08044463854775E-18));
#1380=CARTESIAN_POINT('',(3.46944695195361E-18,0.035,3.46944695195361E-18));
#1381=CARTESIAN_POINT('',(0.,0.035,-1.08044463854775E-18));
#1382=CARTESIAN_POINT('',(0.016645,0.035,-1.08044463854775E-18));
#1383=CARTESIAN_POINT('',(0.,0.034,-1.08044463854775E-18));
#1384=CARTESIAN_POINT('',(-0.0148,0.0224,0.0148));
#1385=CARTESIAN_POINT('',(-0.0148,0.0214,0.0148));
#1386=CARTESIAN_POINT('',(-0.0148,0.0224,-0.0148));
#1387=CARTESIAN_POINT('',(-0.0148,0.0214,-0.0148));
#1388=CARTESIAN_POINT('',(0.0148,0.0224,0.0148));
#1389=CARTESIAN_POINT('',(0.0148,0.0214,0.0148));
#1390=CARTESIAN_POINT('',(0.0148,0.0224,-0.0148));
#1391=CARTESIAN_POINT('',(0.0148,0.0214,-0.0148));
#1392=CARTESIAN_POINT('',(-0.0208,0.001,-0.01363));
#1393=CARTESIAN_POINT('',(-0.0208,0.0224,-0.00443));
#1394=CARTESIAN_POINT('',(0.0208,0.0224,-0.01363));
#1395=CARTESIAN_POINT('',(0.0208,0.001,-0.00443));
#1396=CARTESIAN_POINT('',(0.0046,0.0224,0.0208));
#1397=CARTESIAN_POINT('',(-0.0046,0.001,0.0208));
#1398=CARTESIAN_POINT('',(0.0148,0.0214,0.0148));
#1399=CARTESIAN_POINT('',(0.0148,0.0214,0.0188));
#1400=CARTESIAN_POINT('',(0.0188,0.0214,0.0148));
#1401=CARTESIAN_POINT('',(0.0188,0.0214,3.2942223584206E-18));
#1402=CARTESIAN_POINT('',(0.0188,0.0214,-0.0148));
#1403=CARTESIAN_POINT('',(0.,0.0214,0.0188));
#1404=CARTESIAN_POINT('',(-0.0148,0.0214,0.0188));
#1405=CARTESIAN_POINT('',(0.0148,0.0214,-0.0148));
#1406=CARTESIAN_POINT('',(0.0148,0.0214,-0.0188));
#1407=CARTESIAN_POINT('',(-0.0148,0.0214,0.0148));
#1408=CARTESIAN_POINT('',(-0.0188,0.0214,0.0148));
#1409=CARTESIAN_POINT('',(6.93889390390723E-18,0.0214,-0.0188));
#1410=CARTESIAN_POINT('',(-0.0148,0.0214,-0.0188));
#1411=CARTESIAN_POINT('',(-0.0188,0.0214,1.7522459353301E-19));
#1412=CARTESIAN_POINT('',(-0.0188,0.0214,-0.0148));
#1413=CARTESIAN_POINT('',(-0.0148,0.0214,-0.0148));
#1414=MECHANICAL_DESIGN_GEOMETRIC_PRESENTATION_REPRESENTATION('',(#808),
#1415);
#1415=(
GEOMETRIC_REPRESENTATION_CONTEXT(3)
GLOBAL_UNCERTAINTY_ASSIGNED_CONTEXT((#1416))
GLOBAL_UNIT_ASSIGNED_CONTEXT((#1419,#1418,#1417))
REPRESENTATION_CONTEXT('Part 1','TOP_LEVEL_ASSEMBLY_PART')
);
#1416=UNCERTAINTY_MEASURE_WITH_UNIT(LENGTH_MEASURE(1.E-8),#1419,
'DISTANCE_ACCURACY_VALUE','Maximum Tolerance applied to model');
#1417=(
NAMED_UNIT(*)
SI_UNIT($,.STERADIAN.)
SOLID_ANGLE_UNIT()
);
#1418=(
NAMED_UNIT(*)
PLANE_ANGLE_UNIT()
SI_UNIT($,.RADIAN.)
);
#1419=(
LENGTH_UNIT()
NAMED_UNIT(*)
SI_UNIT($,.METRE.)
);
#1420=PRODUCT_DEFINITION_SHAPE('','',#1421);
#1421=PRODUCT_DEFINITION('','',#1423,#1422);
#1422=PRODUCT_DEFINITION_CONTEXT('',#1429,'design');
#1423=PRODUCT_DEFINITION_FORMATION_WITH_SPECIFIED_SOURCE('','',#1425,
 .NOT_KNOWN.);
#1424=PRODUCT_RELATED_PRODUCT_CATEGORY('','',(#1425));
#1425=PRODUCT('Part 1','Part 1','Part 1',(#1427));
#1426=PRODUCT_CATEGORY('','');
#1427=PRODUCT_CONTEXT('',#1429,'mechanical');
#1428=APPLICATION_PROTOCOL_DEFINITION('international standard',
'ap242_managed_model_based_3d_engineering',2020,#1429);
#1429=APPLICATION_CONTEXT('managed model based 3d engineering');
ENDSEC;
END-ISO-10303-21;
