ISO-10303-21;
HEADER;
/* Generated by software containing ST-Developer
 * from STEP Tools, Inc. (www.steptools.com) 
 */
/* OPTION: using custom renumber hook */

FILE_DESCRIPTION(
/* description */ ('STEP AP242 Edition 2',
'CAx-IF Rec.Pracs.---Representation and Presentation of Product Manufa
cturing Information (PMI)---4.0---2014-10-13',
'CAx-IF Rec.Pracs.---3D Tessellated Geometry---0.4---2014-09-14','2;1',
'CAx-IF Rec.Pracs.---User Defined Attributes---1.5---2016-08-15'),
/* implementation_level */ '2;1');

FILE_NAME(
/* name */ 'ARCADA001 - Part 1 (7)',
/* time_stamp */ '2026-07-17T02:50:55Z',
/* author */ (''),
/* organization */ (''),
/* preprocessor_version */ 'ST-DEVELOPER v20',
/* originating_system */ 'ONSHAPE BY PTC INC, 1.217',
/* authorisation */ '  ');

FILE_SCHEMA (('AP242_MANAGED_MODEL_BASED_3D_ENGINEERING_MIM_LF { 1 0 10303 442 3 1 4 }'));
ENDSEC;

DATA;
#10=SHAPE_REPRESENTATION_RELATIONSHIP('','',#325,#11);
#11=ADVANCED_BREP_SHAPE_REPRESENTATION('',(#323),#553);
#12=CYLINDRICAL_SURFACE('',#349,0.002);
#13=CYLINDRICAL_SURFACE('',#352,0.002);
#14=CYLINDRICAL_SURFACE('',#353,0.0017);
#15=CYLINDRICAL_SURFACE('',#357,0.00325);
#16=CYLINDRICAL_SURFACE('',#358,0.0017);
#17=CYLINDRICAL_SURFACE('',#362,0.00325);
#18=CYLINDRICAL_SURFACE('',#363,0.013);
#19=CYLINDRICAL_SURFACE('',#364,0.013);
#20=CYLINDRICAL_SURFACE('',#365,0.013);
#21=CYLINDRICAL_SURFACE('',#366,0.013);
#22=VERTEX_LOOP('',#176);
#23=VERTEX_LOOP('',#178);
#24=CONICAL_SURFACE('',#347,0.002,1.02974425867665);
#25=CONICAL_SURFACE('',#350,0.002,1.02974425867665);
#26=CIRCLE('',#332,0.0017);
#27=CIRCLE('',#333,0.0017);
#28=CIRCLE('',#334,0.013);
#29=CIRCLE('',#335,0.013);
#30=CIRCLE('',#336,0.013);
#31=CIRCLE('',#337,0.013);
#32=CIRCLE('',#339,0.00325);
#33=CIRCLE('',#340,0.00325);
#34=CIRCLE('',#341,0.002);
#35=CIRCLE('',#342,0.002);
#36=CIRCLE('',#343,0.013);
#37=CIRCLE('',#344,0.013);
#38=CIRCLE('',#345,0.013);
#39=CIRCLE('',#346,0.013);
#40=CIRCLE('',#348,0.002);
#41=CIRCLE('',#351,0.002);
#42=CIRCLE('',#354,0.0017);
#43=CIRCLE('',#356,0.00325);
#44=CIRCLE('',#359,0.0017);
#45=CIRCLE('',#361,0.00325);
#46=ORIENTED_EDGE('',*,*,#118,.F.);
#47=ORIENTED_EDGE('',*,*,#119,.T.);
#48=ORIENTED_EDGE('',*,*,#120,.T.);
#49=ORIENTED_EDGE('',*,*,#121,.T.);
#50=ORIENTED_EDGE('',*,*,#122,.F.);
#51=ORIENTED_EDGE('',*,*,#123,.T.);
#52=ORIENTED_EDGE('',*,*,#124,.T.);
#53=ORIENTED_EDGE('',*,*,#125,.T.);
#54=ORIENTED_EDGE('',*,*,#126,.T.);
#55=ORIENTED_EDGE('',*,*,#127,.T.);
#56=ORIENTED_EDGE('',*,*,#128,.F.);
#57=ORIENTED_EDGE('',*,*,#129,.T.);
#58=ORIENTED_EDGE('',*,*,#130,.F.);
#59=ORIENTED_EDGE('',*,*,#131,.T.);
#60=ORIENTED_EDGE('',*,*,#132,.T.);
#61=ORIENTED_EDGE('',*,*,#133,.T.);
#62=ORIENTED_EDGE('',*,*,#134,.T.);
#63=ORIENTED_EDGE('',*,*,#135,.T.);
#64=ORIENTED_EDGE('',*,*,#120,.F.);
#65=ORIENTED_EDGE('',*,*,#136,.T.);
#66=ORIENTED_EDGE('',*,*,#122,.T.);
#67=ORIENTED_EDGE('',*,*,#137,.T.);
#68=ORIENTED_EDGE('',*,*,#128,.T.);
#69=ORIENTED_EDGE('',*,*,#138,.T.);
#70=ORIENTED_EDGE('',*,*,#132,.F.);
#71=ORIENTED_EDGE('',*,*,#139,.T.);
#72=ORIENTED_EDGE('',*,*,#140,.T.);
#73=ORIENTED_EDGE('',*,*,#141,.T.);
#74=ORIENTED_EDGE('',*,*,#142,.T.);
#75=ORIENTED_EDGE('',*,*,#143,.T.);
#76=ORIENTED_EDGE('',*,*,#124,.F.);
#77=ORIENTED_EDGE('',*,*,#144,.T.);
#78=ORIENTED_EDGE('',*,*,#118,.T.);
#79=ORIENTED_EDGE('',*,*,#145,.T.);
#80=ORIENTED_EDGE('',*,*,#130,.T.);
#81=ORIENTED_EDGE('',*,*,#146,.T.);
#82=ORIENTED_EDGE('',*,*,#126,.F.);
#83=ORIENTED_EDGE('',*,*,#147,.T.);
#84=ORIENTED_EDGE('',*,*,#148,.F.);
#85=ORIENTED_EDGE('',*,*,#148,.T.);
#86=ORIENTED_EDGE('',*,*,#143,.F.);
#87=ORIENTED_EDGE('',*,*,#149,.F.);
#88=ORIENTED_EDGE('',*,*,#149,.T.);
#89=ORIENTED_EDGE('',*,*,#142,.F.);
#90=ORIENTED_EDGE('',*,*,#135,.F.);
#91=ORIENTED_EDGE('',*,*,#150,.F.);
#92=ORIENTED_EDGE('',*,*,#150,.T.);
#93=ORIENTED_EDGE('',*,*,#151,.F.);
#94=ORIENTED_EDGE('',*,*,#151,.T.);
#95=ORIENTED_EDGE('',*,*,#141,.F.);
#96=ORIENTED_EDGE('',*,*,#134,.F.);
#97=ORIENTED_EDGE('',*,*,#152,.F.);
#98=ORIENTED_EDGE('',*,*,#152,.T.);
#99=ORIENTED_EDGE('',*,*,#153,.F.);
#100=ORIENTED_EDGE('',*,*,#153,.T.);
#101=ORIENTED_EDGE('',*,*,#140,.F.);
#102=ORIENTED_EDGE('',*,*,#136,.F.);
#103=ORIENTED_EDGE('',*,*,#119,.F.);
#104=ORIENTED_EDGE('',*,*,#144,.F.);
#105=ORIENTED_EDGE('',*,*,#123,.F.);
#106=ORIENTED_EDGE('',*,*,#139,.F.);
#107=ORIENTED_EDGE('',*,*,#131,.F.);
#108=ORIENTED_EDGE('',*,*,#145,.F.);
#109=ORIENTED_EDGE('',*,*,#121,.F.);
#110=ORIENTED_EDGE('',*,*,#138,.F.);
#111=ORIENTED_EDGE('',*,*,#127,.F.);
#112=ORIENTED_EDGE('',*,*,#146,.F.);
#113=ORIENTED_EDGE('',*,*,#133,.F.);
#114=ORIENTED_EDGE('',*,*,#137,.F.);
#115=ORIENTED_EDGE('',*,*,#125,.F.);
#116=ORIENTED_EDGE('',*,*,#147,.F.);
#117=ORIENTED_EDGE('',*,*,#129,.F.);
#118=EDGE_CURVE('',#154,#155,#184,.T.);
#119=EDGE_CURVE('',#154,#156,#185,.F.);
#120=EDGE_CURVE('',#156,#157,#186,.T.);
#121=EDGE_CURVE('',#157,#155,#187,.T.);
#122=EDGE_CURVE('',#158,#159,#188,.T.);
#123=EDGE_CURVE('',#158,#160,#189,.T.);
#124=EDGE_CURVE('',#160,#161,#190,.T.);
#125=EDGE_CURVE('',#161,#159,#191,.F.);
#126=EDGE_CURVE('',#162,#163,#192,.T.);
#127=EDGE_CURVE('',#163,#164,#193,.F.);
#128=EDGE_CURVE('',#165,#164,#194,.T.);
#129=EDGE_CURVE('',#165,#162,#195,.T.);
#130=EDGE_CURVE('',#166,#167,#196,.T.);
#131=EDGE_CURVE('',#166,#168,#197,.F.);
#132=EDGE_CURVE('',#168,#169,#198,.T.);
#133=EDGE_CURVE('',#169,#167,#199,.T.);
#134=EDGE_CURVE('',#170,#170,#26,.F.);
#135=EDGE_CURVE('',#171,#171,#27,.F.);
#136=EDGE_CURVE('',#156,#158,#28,.T.);
#137=EDGE_CURVE('',#159,#165,#29,.T.);
#138=EDGE_CURVE('',#164,#169,#30,.T.);
#139=EDGE_CURVE('',#168,#157,#31,.T.);
#140=EDGE_CURVE('',#172,#172,#32,.T.);
#141=EDGE_CURVE('',#173,#173,#33,.T.);
#142=EDGE_CURVE('',#174,#174,#34,.T.);
#143=EDGE_CURVE('',#175,#175,#35,.T.);
#144=EDGE_CURVE('',#160,#154,#36,.F.);
#145=EDGE_CURVE('',#155,#166,#37,.F.);
#146=EDGE_CURVE('',#167,#163,#38,.F.);
#147=EDGE_CURVE('',#162,#161,#39,.F.);
#148=EDGE_CURVE('',#177,#177,#40,.T.);
#149=EDGE_CURVE('',#179,#179,#41,.T.);
#150=EDGE_CURVE('',#180,#180,#42,.T.);
#151=EDGE_CURVE('',#181,#181,#43,.T.);
#152=EDGE_CURVE('',#182,#182,#44,.T.);
#153=EDGE_CURVE('',#183,#183,#45,.T.);
#154=VERTEX_POINT('',#468);
#155=VERTEX_POINT('',#469);
#156=VERTEX_POINT('',#471);
#157=VERTEX_POINT('',#473);
#158=VERTEX_POINT('',#477);
#159=VERTEX_POINT('',#478);
#160=VERTEX_POINT('',#480);
#161=VERTEX_POINT('',#482);
#162=VERTEX_POINT('',#486);
#163=VERTEX_POINT('',#487);
#164=VERTEX_POINT('',#489);
#165=VERTEX_POINT('',#491);
#166=VERTEX_POINT('',#495);
#167=VERTEX_POINT('',#496);
#168=VERTEX_POINT('',#498);
#169=VERTEX_POINT('',#500);
#170=VERTEX_POINT('',#504);
#171=VERTEX_POINT('',#506);
#172=VERTEX_POINT('',#513);
#173=VERTEX_POINT('',#515);
#174=VERTEX_POINT('',#517);
#175=VERTEX_POINT('',#519);
#176=VERTEX_POINT('',#525);
#177=VERTEX_POINT('',#527);
#178=VERTEX_POINT('',#530);
#179=VERTEX_POINT('',#532);
#180=VERTEX_POINT('',#536);
#181=VERTEX_POINT('',#539);
#182=VERTEX_POINT('',#543);
#183=VERTEX_POINT('',#546);
#184=LINE('',#467,#200);
#185=LINE('',#470,#201);
#186=LINE('',#472,#202);
#187=LINE('',#474,#203);
#188=LINE('',#476,#204);
#189=LINE('',#479,#205);
#190=LINE('',#481,#206);
#191=LINE('',#483,#207);
#192=LINE('',#485,#208);
#193=LINE('',#488,#209);
#194=LINE('',#490,#210);
#195=LINE('',#492,#211);
#196=LINE('',#494,#212);
#197=LINE('',#497,#213);
#198=LINE('',#499,#214);
#199=LINE('',#501,#215);
#200=VECTOR('',#371,1.);
#201=VECTOR('',#372,1.);
#202=VECTOR('',#373,1.);
#203=VECTOR('',#374,1.);
#204=VECTOR('',#377,1.);
#205=VECTOR('',#378,1.);
#206=VECTOR('',#379,1.);
#207=VECTOR('',#380,1.);
#208=VECTOR('',#383,1.);
#209=VECTOR('',#384,1.);
#210=VECTOR('',#385,1.);
#211=VECTOR('',#386,1.);
#212=VECTOR('',#389,1.);
#213=VECTOR('',#390,1.);
#214=VECTOR('',#391,1.);
#215=VECTOR('',#392,1.);
#216=EDGE_LOOP('',(#46,#47,#48,#49));
#217=EDGE_LOOP('',(#50,#51,#52,#53));
#218=EDGE_LOOP('',(#54,#55,#56,#57));
#219=EDGE_LOOP('',(#58,#59,#60,#61));
#220=EDGE_LOOP('',(#62));
#221=EDGE_LOOP('',(#63));
#222=EDGE_LOOP('',(#64,#65,#66,#67,#68,#69,#70,#71));
#223=EDGE_LOOP('',(#72));
#224=EDGE_LOOP('',(#73));
#225=EDGE_LOOP('',(#74));
#226=EDGE_LOOP('',(#75));
#227=EDGE_LOOP('',(#76,#77,#78,#79,#80,#81,#82,#83));
#228=EDGE_LOOP('',(#84));
#229=EDGE_LOOP('',(#85));
#230=EDGE_LOOP('',(#86));
#231=EDGE_LOOP('',(#87));
#232=EDGE_LOOP('',(#88));
#233=EDGE_LOOP('',(#89));
#234=EDGE_LOOP('',(#90));
#235=EDGE_LOOP('',(#91));
#236=EDGE_LOOP('',(#92));
#237=EDGE_LOOP('',(#93));
#238=EDGE_LOOP('',(#94));
#239=EDGE_LOOP('',(#95));
#240=EDGE_LOOP('',(#96));
#241=EDGE_LOOP('',(#97));
#242=EDGE_LOOP('',(#98));
#243=EDGE_LOOP('',(#99));
#244=EDGE_LOOP('',(#100));
#245=EDGE_LOOP('',(#101));
#246=EDGE_LOOP('',(#102,#103,#104,#105));
#247=EDGE_LOOP('',(#106,#107,#108,#109));
#248=EDGE_LOOP('',(#110,#111,#112,#113));
#249=EDGE_LOOP('',(#114,#115,#116,#117));
#250=FACE_BOUND('',#216,.T.);
#251=FACE_BOUND('',#217,.T.);
#252=FACE_BOUND('',#218,.T.);
#253=FACE_BOUND('',#219,.T.);
#254=FACE_BOUND('',#220,.T.);
#255=FACE_BOUND('',#221,.T.);
#256=FACE_BOUND('',#222,.T.);
#257=FACE_BOUND('',#223,.T.);
#258=FACE_BOUND('',#224,.T.);
#259=FACE_BOUND('',#225,.T.);
#260=FACE_BOUND('',#226,.T.);
#261=FACE_BOUND('',#227,.T.);
#262=FACE_BOUND('',#22,.T.);
#263=FACE_BOUND('',#228,.T.);
#264=FACE_BOUND('',#229,.T.);
#265=FACE_BOUND('',#230,.T.);
#266=FACE_BOUND('',#23,.T.);
#267=FACE_BOUND('',#231,.T.);
#268=FACE_BOUND('',#232,.T.);
#269=FACE_BOUND('',#233,.T.);
#270=FACE_BOUND('',#234,.T.);
#271=FACE_BOUND('',#235,.T.);
#272=FACE_BOUND('',#236,.T.);
#273=FACE_BOUND('',#237,.T.);
#274=FACE_BOUND('',#238,.T.);
#275=FACE_BOUND('',#239,.T.);
#276=FACE_BOUND('',#240,.T.);
#277=FACE_BOUND('',#241,.T.);
#278=FACE_BOUND('',#242,.T.);
#279=FACE_BOUND('',#243,.T.);
#280=FACE_BOUND('',#244,.T.);
#281=FACE_BOUND('',#245,.T.);
#282=FACE_BOUND('',#246,.T.);
#283=FACE_BOUND('',#247,.T.);
#284=FACE_BOUND('',#248,.T.);
#285=FACE_BOUND('',#249,.T.);
#286=PLANE('',#327);
#287=PLANE('',#328);
#288=PLANE('',#329);
#289=PLANE('',#330);
#290=PLANE('',#331);
#291=PLANE('',#338);
#292=PLANE('',#355);
#293=PLANE('',#360);
#294=ADVANCED_FACE('',(#250),#286,.T.);
#295=ADVANCED_FACE('',(#251),#287,.F.);
#296=ADVANCED_FACE('',(#252),#288,.F.);
#297=ADVANCED_FACE('',(#253),#289,.T.);
#298=ADVANCED_FACE('',(#254,#255,#256),#290,.T.);
#299=ADVANCED_FACE('',(#257,#258,#259,#260,#261),#291,.F.);
#300=ADVANCED_FACE('',(#262,#263),#24,.F.);
#301=ADVANCED_FACE('',(#264,#265),#12,.F.);
#302=ADVANCED_FACE('',(#266,#267),#25,.F.);
#303=ADVANCED_FACE('',(#268,#269),#13,.F.);
#304=ADVANCED_FACE('',(#270,#271),#14,.F.);
#305=ADVANCED_FACE('',(#272,#273),#292,.T.);
#306=ADVANCED_FACE('',(#274,#275),#15,.F.);
#307=ADVANCED_FACE('',(#276,#277),#16,.F.);
#308=ADVANCED_FACE('',(#278,#279),#293,.T.);
#309=ADVANCED_FACE('',(#280,#281),#17,.F.);
#310=ADVANCED_FACE('',(#282),#18,.T.);
#311=ADVANCED_FACE('',(#283),#19,.T.);
#312=ADVANCED_FACE('',(#284),#20,.T.);
#313=ADVANCED_FACE('',(#285),#21,.T.);
#314=CLOSED_SHELL('',(#294,#295,#296,#297,#298,#299,#300,#301,#302,#303,
#304,#305,#306,#307,#308,#309,#310,#311,#312,#313));
#315=STYLED_ITEM('',(#316),#323);
#316=PRESENTATION_STYLE_ASSIGNMENT((#317));
#317=SURFACE_STYLE_USAGE(.BOTH.,#318);
#318=SURFACE_SIDE_STYLE('',(#319));
#319=SURFACE_STYLE_FILL_AREA(#320);
#320=FILL_AREA_STYLE('',(#321));
#321=FILL_AREA_STYLE_COLOUR('',#322);
#322=COLOUR_RGB('',0.615686274509804,0.811764705882353,0.929411764705882);
#323=MANIFOLD_SOLID_BREP('Part 1',#314);
#324=SHAPE_DEFINITION_REPRESENTATION(#558,#325);
#325=SHAPE_REPRESENTATION('Part 1',(#326),#553);
#326=AXIS2_PLACEMENT_3D('',#465,#367,#368);
#327=AXIS2_PLACEMENT_3D('',#466,#369,#370);
#328=AXIS2_PLACEMENT_3D('',#475,#375,#376);
#329=AXIS2_PLACEMENT_3D('',#484,#381,#382);
#330=AXIS2_PLACEMENT_3D('',#493,#387,#388);
#331=AXIS2_PLACEMENT_3D('',#502,#393,#394);
#332=AXIS2_PLACEMENT_3D('',#503,#395,#396);
#333=AXIS2_PLACEMENT_3D('',#505,#397,#398);
#334=AXIS2_PLACEMENT_3D('',#507,#399,#400);
#335=AXIS2_PLACEMENT_3D('',#508,#401,#402);
#336=AXIS2_PLACEMENT_3D('',#509,#403,#404);
#337=AXIS2_PLACEMENT_3D('',#510,#405,#406);
#338=AXIS2_PLACEMENT_3D('',#511,#407,#408);
#339=AXIS2_PLACEMENT_3D('',#512,#409,#410);
#340=AXIS2_PLACEMENT_3D('',#514,#411,#412);
#341=AXIS2_PLACEMENT_3D('',#516,#413,#414);
#342=AXIS2_PLACEMENT_3D('',#518,#415,#416);
#343=AXIS2_PLACEMENT_3D('',#520,#417,#418);
#344=AXIS2_PLACEMENT_3D('',#521,#419,#420);
#345=AXIS2_PLACEMENT_3D('',#522,#421,#422);
#346=AXIS2_PLACEMENT_3D('',#523,#423,#424);
#347=AXIS2_PLACEMENT_3D('',#524,#425,#426);
#348=AXIS2_PLACEMENT_3D('',#526,#427,#428);
#349=AXIS2_PLACEMENT_3D('',#528,#429,#430);
#350=AXIS2_PLACEMENT_3D('',#529,#431,#432);
#351=AXIS2_PLACEMENT_3D('',#531,#433,#434);
#352=AXIS2_PLACEMENT_3D('',#533,#435,#436);
#353=AXIS2_PLACEMENT_3D('',#534,#437,#438);
#354=AXIS2_PLACEMENT_3D('',#535,#439,#440);
#355=AXIS2_PLACEMENT_3D('',#537,#441,#442);
#356=AXIS2_PLACEMENT_3D('',#538,#443,#444);
#357=AXIS2_PLACEMENT_3D('',#540,#445,#446);
#358=AXIS2_PLACEMENT_3D('',#541,#447,#448);
#359=AXIS2_PLACEMENT_3D('',#542,#449,#450);
#360=AXIS2_PLACEMENT_3D('',#544,#451,#452);
#361=AXIS2_PLACEMENT_3D('',#545,#453,#454);
#362=AXIS2_PLACEMENT_3D('',#547,#455,#456);
#363=AXIS2_PLACEMENT_3D('',#548,#457,#458);
#364=AXIS2_PLACEMENT_3D('',#549,#459,#460);
#365=AXIS2_PLACEMENT_3D('',#550,#461,#462);
#366=AXIS2_PLACEMENT_3D('',#551,#463,#464);
#367=DIRECTION('',(0.,0.,1.));
#368=DIRECTION('',(1.,0.,0.));
#369=DIRECTION('',(1.,0.,-1.26161707343768E-16));
#370=DIRECTION('',(-1.26161707343768E-16,0.,-1.));
#371=DIRECTION('',(1.26161707343768E-16,0.,1.));
#372=DIRECTION('',(0.,-1.,0.));
#373=DIRECTION('',(1.26161707343768E-16,0.,1.));
#374=DIRECTION('',(0.,-1.,0.));
#375=DIRECTION('',(0.,0.,1.));
#376=DIRECTION('',(0.,-1.,0.));
#377=DIRECTION('',(-1.,0.,0.));
#378=DIRECTION('',(0.,-1.,0.));
#379=DIRECTION('',(-1.,0.,0.));
#380=DIRECTION('',(0.,-1.,0.));
#381=DIRECTION('',(1.,0.,-1.26161707343768E-16));
#382=DIRECTION('',(-1.26161707343768E-16,0.,-1.));
#383=DIRECTION('',(1.26161707343768E-16,0.,1.));
#384=DIRECTION('',(0.,-1.,0.));
#385=DIRECTION('',(1.26161707343768E-16,0.,1.));
#386=DIRECTION('',(0.,-1.,0.));
#387=DIRECTION('',(0.,0.,1.));
#388=DIRECTION('',(0.,-1.,0.));
#389=DIRECTION('',(-1.,0.,0.));
#390=DIRECTION('',(0.,-1.,0.));
#391=DIRECTION('',(-1.,0.,0.));
#392=DIRECTION('',(0.,-1.,0.));
#393=DIRECTION('',(0.,1.,0.));
#394=DIRECTION('',(1.,0.,0.));
#395=DIRECTION('',(0.,1.,0.));
#396=DIRECTION('',(1.,0.,0.));
#397=DIRECTION('',(0.,1.,0.));
#398=DIRECTION('',(1.,0.,0.));
#399=DIRECTION('',(0.,1.,0.));
#400=DIRECTION('',(1.,0.,0.));
#401=DIRECTION('',(0.,1.,0.));
#402=DIRECTION('',(1.,0.,0.));
#403=DIRECTION('',(0.,1.,0.));
#404=DIRECTION('',(1.,0.,0.));
#405=DIRECTION('',(0.,1.,0.));
#406=DIRECTION('',(1.,0.,0.));
#407=DIRECTION('',(0.,1.,0.));
#408=DIRECTION('',(1.,0.,0.));
#409=DIRECTION('',(0.,1.,0.));
#410=DIRECTION('',(1.,0.,0.));
#411=DIRECTION('',(0.,1.,0.));
#412=DIRECTION('',(1.,0.,0.));
#413=DIRECTION('',(0.,1.,0.));
#414=DIRECTION('',(1.,0.,0.));
#415=DIRECTION('',(0.,1.,0.));
#416=DIRECTION('',(1.,0.,0.));
#417=DIRECTION('',(0.,1.,0.));
#418=DIRECTION('',(1.,0.,0.));
#419=DIRECTION('',(0.,1.,0.));
#420=DIRECTION('',(1.,0.,0.));
#421=DIRECTION('',(0.,1.,0.));
#422=DIRECTION('',(1.,0.,0.));
#423=DIRECTION('',(0.,1.,0.));
#424=DIRECTION('',(1.,0.,0.));
#425=DIRECTION('',(0.,-1.,0.));
#426=DIRECTION('',(-1.,0.,0.));
#427=DIRECTION('',(0.,1.,0.));
#428=DIRECTION('',(1.,0.,0.));
#429=DIRECTION('',(0.,1.,0.));
#430=DIRECTION('',(1.,0.,0.));
#431=DIRECTION('',(0.,-1.,0.));
#432=DIRECTION('',(-1.,0.,0.));
#433=DIRECTION('',(0.,1.,0.));
#434=DIRECTION('',(1.,0.,0.));
#435=DIRECTION('',(0.,1.,0.));
#436=DIRECTION('',(1.,0.,0.));
#437=DIRECTION('',(0.,1.,0.));
#438=DIRECTION('',(1.,0.,0.));
#439=DIRECTION('',(0.,1.,0.));
#440=DIRECTION('',(1.,0.,0.));
#441=DIRECTION('',(0.,-1.,0.));
#442=DIRECTION('',(-1.,0.,0.));
#443=DIRECTION('',(0.,1.,0.));
#444=DIRECTION('',(1.,0.,0.));
#445=DIRECTION('',(0.,1.,0.));
#446=DIRECTION('',(1.,0.,0.));
#447=DIRECTION('',(0.,1.,0.));
#448=DIRECTION('',(1.,0.,0.));
#449=DIRECTION('',(0.,1.,0.));
#450=DIRECTION('',(1.,0.,0.));
#451=DIRECTION('',(0.,-1.,0.));
#452=DIRECTION('',(-1.,0.,0.));
#453=DIRECTION('',(0.,1.,0.));
#454=DIRECTION('',(1.,0.,0.));
#455=DIRECTION('',(0.,1.,0.));
#456=DIRECTION('',(1.,0.,0.));
#457=DIRECTION('',(0.,1.,0.));
#458=DIRECTION('',(1.,0.,0.));
#459=DIRECTION('',(0.,-1.,0.));
#460=DIRECTION('',(-1.,0.,0.));
#461=DIRECTION('',(0.,1.,0.));
#462=DIRECTION('',(1.,0.,0.));
#463=DIRECTION('',(0.,-1.,0.));
#464=DIRECTION('',(-1.,0.,0.));
#465=CARTESIAN_POINT('',(0.,0.,0.));
#466=CARTESIAN_POINT('',(0.021,0.02,-3.46944695195361E-18));
#467=CARTESIAN_POINT('',(0.021,0.,-3.46944695195361E-18));
#468=CARTESIAN_POINT('',(0.021,0.,-0.00075));
#469=CARTESIAN_POINT('',(0.021,0.,0.00075));
#470=CARTESIAN_POINT('',(0.021,0.02,-0.00075));
#471=CARTESIAN_POINT('',(0.021,0.02,-0.00075));
#472=CARTESIAN_POINT('',(0.021,0.02,-3.46944695195361E-18));
#473=CARTESIAN_POINT('',(0.021,0.02,0.00075));
#474=CARTESIAN_POINT('',(0.021,0.02,0.00075));
#475=CARTESIAN_POINT('',(-3.46944695195361E-18,0.02,-0.01375));
#476=CARTESIAN_POINT('',(-3.46944695195361E-18,0.02,-0.01375));
#477=CARTESIAN_POINT('',(0.008,0.02,-0.01375));
#478=CARTESIAN_POINT('',(-0.008,0.02,-0.01375));
#479=CARTESIAN_POINT('',(0.008,0.,-0.01375));
#480=CARTESIAN_POINT('',(0.008,0.,-0.01375));
#481=CARTESIAN_POINT('',(-3.46944695195361E-18,0.,-0.01375));
#482=CARTESIAN_POINT('',(-0.008,0.,-0.01375));
#483=CARTESIAN_POINT('',(-0.008,0.02,-0.01375));
#484=CARTESIAN_POINT('',(-0.021,0.02,-3.46944695195361E-18));
#485=CARTESIAN_POINT('',(-0.021,0.,-3.46944695195361E-18));
#486=CARTESIAN_POINT('',(-0.021,0.,-0.00075));
#487=CARTESIAN_POINT('',(-0.021,0.,0.00075));
#488=CARTESIAN_POINT('',(-0.021,0.02,0.00075));
#489=CARTESIAN_POINT('',(-0.021,0.02,0.00075));
#490=CARTESIAN_POINT('',(-0.021,0.02,-3.46944695195361E-18));
#491=CARTESIAN_POINT('',(-0.021,0.02,-0.00075));
#492=CARTESIAN_POINT('',(-0.021,0.02,-0.00075));
#493=CARTESIAN_POINT('',(3.46944695195361E-18,0.02,0.01375));
#494=CARTESIAN_POINT('',(3.46944695195361E-18,0.,0.01375));
#495=CARTESIAN_POINT('',(0.008,0.,0.01375));
#496=CARTESIAN_POINT('',(-0.008,0.,0.01375));
#497=CARTESIAN_POINT('',(0.008,0.02,0.01375));
#498=CARTESIAN_POINT('',(0.008,0.02,0.01375));
#499=CARTESIAN_POINT('',(3.46944695195361E-18,0.02,0.01375));
#500=CARTESIAN_POINT('',(-0.008,0.02,0.01375));
#501=CARTESIAN_POINT('',(-0.008,0.,0.01375));
#502=CARTESIAN_POINT('',(0.,0.02,-3.46944695195361E-18));
#503=CARTESIAN_POINT('',(-0.01,0.02,0.));
#504=CARTESIAN_POINT('',(-0.0083,0.02,0.));
#505=CARTESIAN_POINT('',(0.01,0.02,0.));
#506=CARTESIAN_POINT('',(0.0117,0.02,0.));
#507=CARTESIAN_POINT('',(0.008,0.02,-0.00075));
#508=CARTESIAN_POINT('',(-0.008,0.02,-0.00075));
#509=CARTESIAN_POINT('',(-0.008,0.02,0.00075));
#510=CARTESIAN_POINT('',(0.008,0.02,0.00075));
#511=CARTESIAN_POINT('',(0.,0.,-3.46944695195361E-18));
#512=CARTESIAN_POINT('',(-0.01,0.,0.));
#513=CARTESIAN_POINT('',(-0.00675,0.,0.));
#514=CARTESIAN_POINT('',(0.01,0.,0.));
#515=CARTESIAN_POINT('',(0.01325,0.,0.));
#516=CARTESIAN_POINT('',(-0.017,0.,0.));
#517=CARTESIAN_POINT('',(-0.015,0.,0.));
#518=CARTESIAN_POINT('',(0.017,0.,0.));
#519=CARTESIAN_POINT('',(0.019,0.,0.));
#520=CARTESIAN_POINT('',(0.008,0.,-0.00075));
#521=CARTESIAN_POINT('',(0.008,0.,0.00075));
#522=CARTESIAN_POINT('',(-0.008,0.,0.00075));
#523=CARTESIAN_POINT('',(-0.008,0.,-0.00075));
#524=CARTESIAN_POINT('',(0.017,0.008,0.));
#525=CARTESIAN_POINT('',(0.017,0.00920172123805512,0.));
#526=CARTESIAN_POINT('',(0.017,0.008,0.));
#527=CARTESIAN_POINT('',(0.019,0.008,0.));
#528=CARTESIAN_POINT('',(0.017,0.,0.));
#529=CARTESIAN_POINT('',(-0.017,0.008,0.));
#530=CARTESIAN_POINT('',(-0.017,0.00920172123805512,0.));
#531=CARTESIAN_POINT('',(-0.017,0.008,0.));
#532=CARTESIAN_POINT('',(-0.015,0.008,0.));
#533=CARTESIAN_POINT('',(-0.017,0.,0.));
#534=CARTESIAN_POINT('',(0.01,0.,0.));
#535=CARTESIAN_POINT('',(0.01,0.015,0.));
#536=CARTESIAN_POINT('',(0.0117,0.015,0.));
#537=CARTESIAN_POINT('',(0.01325,0.015,0.));
#538=CARTESIAN_POINT('',(0.01,0.015,0.));
#539=CARTESIAN_POINT('',(0.01325,0.015,0.));
#540=CARTESIAN_POINT('',(0.01,0.,0.));
#541=CARTESIAN_POINT('',(-0.01,0.,0.));
#542=CARTESIAN_POINT('',(-0.01,0.015,0.));
#543=CARTESIAN_POINT('',(-0.0083,0.015,0.));
#544=CARTESIAN_POINT('',(-0.00675,0.015,0.));
#545=CARTESIAN_POINT('',(-0.01,0.015,0.));
#546=CARTESIAN_POINT('',(-0.00675,0.015,0.));
#547=CARTESIAN_POINT('',(-0.01,0.,0.));
#548=CARTESIAN_POINT('',(0.008,0.02,-0.00075));
#549=CARTESIAN_POINT('',(0.008,0.02,0.00075));
#550=CARTESIAN_POINT('',(-0.008,0.02,0.00075));
#551=CARTESIAN_POINT('',(-0.008,0.02,-0.00075));
#552=MECHANICAL_DESIGN_GEOMETRIC_PRESENTATION_REPRESENTATION('',(#315),
#553);
#553=(
GEOMETRIC_REPRESENTATION_CONTEXT(3)
GLOBAL_UNCERTAINTY_ASSIGNED_CONTEXT((#554))
GLOBAL_UNIT_ASSIGNED_CONTEXT((#557,#556,#555))
REPRESENTATION_CONTEXT('Part 1','TOP_LEVEL_ASSEMBLY_PART')
);
#554=UNCERTAINTY_MEASURE_WITH_UNIT(LENGTH_MEASURE(1.E-8),#557,
'DISTANCE_ACCURACY_VALUE','Maximum Tolerance applied to model');
#555=(
NAMED_UNIT(*)
SI_UNIT($,.STERADIAN.)
SOLID_ANGLE_UNIT()
);
#556=(
NAMED_UNIT(*)
PLANE_ANGLE_UNIT()
SI_UNIT($,.RADIAN.)
);
#557=(
LENGTH_UNIT()
NAMED_UNIT(*)
SI_UNIT($,.METRE.)
);
#558=PRODUCT_DEFINITION_SHAPE('','',#559);
#559=PRODUCT_DEFINITION('','',#561,#560);
#560=PRODUCT_DEFINITION_CONTEXT('',#567,'design');
#561=PRODUCT_DEFINITION_FORMATION_WITH_SPECIFIED_SOURCE('','',#563,
 .NOT_KNOWN.);
#562=PRODUCT_RELATED_PRODUCT_CATEGORY('','',(#563));
#563=PRODUCT('Part 1','Part 1','Part 1',(#565));
#564=PRODUCT_CATEGORY('','');
#565=PRODUCT_CONTEXT('',#567,'mechanical');
#566=APPLICATION_PROTOCOL_DEFINITION('international standard',
'ap242_managed_model_based_3d_engineering',2020,#567);
#567=APPLICATION_CONTEXT('managed model based 3d engineering');
ENDSEC;
END-ISO-10303-21;
