ISO-10303-21;
HEADER;
/* Generated by software containing ST-Developer
 * from STEP Tools, Inc. (www.steptools.com) 
 */
/* OPTION: using custom renumber hook */

FILE_DESCRIPTION(
/* description */ ('STEP AP242 Edition 2',
'CAx-IF Rec.Pracs.---Representation and Presentation of Product Manufa
cturing Information (PMI)---4.0---2014-10-13',
'CAx-IF Rec.Pracs.---3D Tessellated Geometry---0.4---2014-09-14','2;1',
'CAx-IF Rec.Pracs.---User Defined Attributes---1.5---2016-08-15'),
/* implementation_level */ '2;1');

FILE_NAME(
/* name */ 'ARCADA001 - MOTOR-1723_3 (1)',
/* time_stamp */ '2026-07-17T02:50:50Z',
/* author */ (''),
/* organization */ (''),
/* preprocessor_version */ 'ST-DEVELOPER v20',
/* originating_system */ 'ONSHAPE BY PTC INC, 1.217',
/* authorisation */ '  ');

FILE_SCHEMA (('AP242_MANAGED_MODEL_BASED_3D_ENGINEERING_MIM_LF { 1 0 10303 442 3 1 4 }'));
ENDSEC;

DATA;
#10=SHAPE_REPRESENTATION_RELATIONSHIP('','',#457,#11);
#11=ADVANCED_BREP_SHAPE_REPRESENTATION('',(#455),#779);
#12=TOROIDAL_SURFACE('',#464,0.008025,0.0005);
#13=TOROIDAL_SURFACE('',#472,0.00285,0.0002);
#14=TOROIDAL_SURFACE('',#478,0.00055,0.0002);
#15=TOROIDAL_SURFACE('',#489,0.00185,0.0005);
#16=CYLINDRICAL_SURFACE('',#462,0.008525);
#17=CYLINDRICAL_SURFACE('',#470,0.00305);
#18=CYLINDRICAL_SURFACE('',#476,0.00075);
#19=CYLINDRICAL_SURFACE('',#481,0.001);
#20=CYLINDRICAL_SURFACE('',#484,0.001);
#21=CYLINDRICAL_SURFACE('',#487,0.00235);
#22=CYLINDRICAL_SURFACE('',#495,0.0005);
#23=CYLINDRICAL_SURFACE('',#500,0.0005);
#24=CYLINDRICAL_SURFACE('',#506,0.0005);
#25=CYLINDRICAL_SURFACE('',#512,0.0005);
#26=LINE('',#660,#54);
#27=LINE('',#663,#55);
#28=LINE('',#665,#56);
#29=LINE('',#667,#57);
#30=LINE('',#668,#58);
#31=LINE('',#671,#59);
#32=LINE('',#673,#60);
#33=LINE('',#675,#61);
#34=LINE('',#724,#62);
#35=LINE('',#728,#63);
#36=LINE('',#729,#64);
#37=LINE('',#734,#65);
#38=LINE('',#735,#66);
#39=LINE('',#737,#67);
#40=LINE('',#738,#68);
#41=LINE('',#742,#69);
#42=LINE('',#744,#70);
#43=LINE('',#746,#71);
#44=LINE('',#753,#72);
#45=LINE('',#754,#73);
#46=LINE('',#758,#74);
#47=LINE('',#760,#75);
#48=LINE('',#764,#76);
#49=LINE('',#766,#77);
#50=LINE('',#768,#78);
#51=LINE('',#772,#79);
#52=LINE('',#774,#80);
#53=LINE('',#776,#81);
#54=VECTOR('',#522,1.);
#55=VECTOR('',#523,1.);
#56=VECTOR('',#524,1.);
#57=VECTOR('',#525,1.);
#58=VECTOR('',#526,1.);
#59=VECTOR('',#527,1.);
#60=VECTOR('',#528,1.);
#61=VECTOR('',#529,1.);
#62=VECTOR('',#594,1.);
#63=VECTOR('',#597,1.);
#64=VECTOR('',#598,1.);
#65=VECTOR('',#603,1.);
#66=VECTOR('',#604,1.);
#67=VECTOR('',#607,1.);
#68=VECTOR('',#608,1.);
#69=VECTOR('',#611,1.);
#70=VECTOR('',#614,1.);
#71=VECTOR('',#617,1.);
#72=VECTOR('',#626,1.);
#73=VECTOR('',#627,1.);
#74=VECTOR('',#630,1.);
#75=VECTOR('',#633,1.);
#76=VECTOR('',#636,1.);
#77=VECTOR('',#639,1.);
#78=VECTOR('',#642,1.);
#79=VECTOR('',#645,1.);
#80=VECTOR('',#648,1.);
#81=VECTOR('',#651,1.);
#82=ORIENTED_EDGE('',*,*,#186,.F.);
#83=ORIENTED_EDGE('',*,*,#187,.F.);
#84=ORIENTED_EDGE('',*,*,#188,.T.);
#85=ORIENTED_EDGE('',*,*,#189,.T.);
#86=ORIENTED_EDGE('',*,*,#190,.T.);
#87=ORIENTED_EDGE('',*,*,#191,.T.);
#88=ORIENTED_EDGE('',*,*,#192,.T.);
#89=ORIENTED_EDGE('',*,*,#193,.T.);
#90=ORIENTED_EDGE('',*,*,#194,.T.);
#91=ORIENTED_EDGE('',*,*,#195,.T.);
#92=ORIENTED_EDGE('',*,*,#196,.T.);
#93=ORIENTED_EDGE('',*,*,#186,.T.);
#94=ORIENTED_EDGE('',*,*,#197,.F.);
#95=ORIENTED_EDGE('',*,*,#196,.F.);
#96=ORIENTED_EDGE('',*,*,#197,.T.);
#97=ORIENTED_EDGE('',*,*,#198,.F.);
#98=ORIENTED_EDGE('',*,*,#199,.F.);
#99=ORIENTED_EDGE('',*,*,#200,.F.);
#100=ORIENTED_EDGE('',*,*,#201,.T.);
#101=ORIENTED_EDGE('',*,*,#198,.T.);
#102=ORIENTED_EDGE('',*,*,#202,.T.);
#103=ORIENTED_EDGE('',*,*,#201,.F.);
#104=ORIENTED_EDGE('',*,*,#202,.F.);
#105=ORIENTED_EDGE('',*,*,#203,.F.);
#106=ORIENTED_EDGE('',*,*,#204,.T.);
#107=ORIENTED_EDGE('',*,*,#203,.T.);
#108=ORIENTED_EDGE('',*,*,#205,.T.);
#109=ORIENTED_EDGE('',*,*,#204,.F.);
#110=ORIENTED_EDGE('',*,*,#205,.F.);
#111=ORIENTED_EDGE('',*,*,#206,.T.);
#112=ORIENTED_EDGE('',*,*,#199,.T.);
#113=ORIENTED_EDGE('',*,*,#206,.F.);
#114=ORIENTED_EDGE('',*,*,#207,.T.);
#115=ORIENTED_EDGE('',*,*,#200,.T.);
#116=ORIENTED_EDGE('',*,*,#207,.F.);
#117=ORIENTED_EDGE('',*,*,#208,.T.);
#118=ORIENTED_EDGE('',*,*,#187,.T.);
#119=ORIENTED_EDGE('',*,*,#209,.T.);
#120=ORIENTED_EDGE('',*,*,#208,.F.);
#121=ORIENTED_EDGE('',*,*,#209,.F.);
#122=ORIENTED_EDGE('',*,*,#210,.F.);
#123=ORIENTED_EDGE('',*,*,#211,.T.);
#124=ORIENTED_EDGE('',*,*,#212,.F.);
#125=ORIENTED_EDGE('',*,*,#213,.T.);
#126=ORIENTED_EDGE('',*,*,#188,.F.);
#127=ORIENTED_EDGE('',*,*,#214,.F.);
#128=ORIENTED_EDGE('',*,*,#215,.T.);
#129=ORIENTED_EDGE('',*,*,#216,.F.);
#130=ORIENTED_EDGE('',*,*,#210,.T.);
#131=ORIENTED_EDGE('',*,*,#217,.F.);
#132=ORIENTED_EDGE('',*,*,#215,.F.);
#133=ORIENTED_EDGE('',*,*,#218,.T.);
#134=ORIENTED_EDGE('',*,*,#190,.F.);
#135=ORIENTED_EDGE('',*,*,#219,.F.);
#136=ORIENTED_EDGE('',*,*,#220,.F.);
#137=ORIENTED_EDGE('',*,*,#221,.T.);
#138=ORIENTED_EDGE('',*,*,#216,.T.);
#139=ORIENTED_EDGE('',*,*,#221,.F.);
#140=ORIENTED_EDGE('',*,*,#222,.T.);
#141=ORIENTED_EDGE('',*,*,#211,.F.);
#142=ORIENTED_EDGE('',*,*,#212,.T.);
#143=ORIENTED_EDGE('',*,*,#222,.F.);
#144=ORIENTED_EDGE('',*,*,#220,.T.);
#145=ORIENTED_EDGE('',*,*,#223,.F.);
#146=ORIENTED_EDGE('',*,*,#223,.T.);
#147=ORIENTED_EDGE('',*,*,#219,.T.);
#148=ORIENTED_EDGE('',*,*,#189,.F.);
#149=ORIENTED_EDGE('',*,*,#213,.F.);
#150=ORIENTED_EDGE('',*,*,#217,.T.);
#151=ORIENTED_EDGE('',*,*,#214,.T.);
#152=ORIENTED_EDGE('',*,*,#191,.F.);
#153=ORIENTED_EDGE('',*,*,#218,.F.);
#154=ORIENTED_EDGE('',*,*,#224,.F.);
#155=ORIENTED_EDGE('',*,*,#225,.T.);
#156=ORIENTED_EDGE('',*,*,#192,.F.);
#157=ORIENTED_EDGE('',*,*,#226,.F.);
#158=ORIENTED_EDGE('',*,*,#227,.F.);
#159=ORIENTED_EDGE('',*,*,#228,.T.);
#160=ORIENTED_EDGE('',*,*,#224,.T.);
#161=ORIENTED_EDGE('',*,*,#229,.F.);
#162=ORIENTED_EDGE('',*,*,#230,.T.);
#163=ORIENTED_EDGE('',*,*,#231,.F.);
#164=ORIENTED_EDGE('',*,*,#231,.T.);
#165=ORIENTED_EDGE('',*,*,#232,.T.);
#166=ORIENTED_EDGE('',*,*,#193,.F.);
#167=ORIENTED_EDGE('',*,*,#225,.F.);
#168=ORIENTED_EDGE('',*,*,#230,.F.);
#169=ORIENTED_EDGE('',*,*,#233,.T.);
#170=ORIENTED_EDGE('',*,*,#234,.F.);
#171=ORIENTED_EDGE('',*,*,#235,.T.);
#172=ORIENTED_EDGE('',*,*,#194,.F.);
#173=ORIENTED_EDGE('',*,*,#232,.F.);
#174=ORIENTED_EDGE('',*,*,#236,.T.);
#175=ORIENTED_EDGE('',*,*,#226,.T.);
#176=ORIENTED_EDGE('',*,*,#195,.F.);
#177=ORIENTED_EDGE('',*,*,#235,.F.);
#178=ORIENTED_EDGE('',*,*,#234,.T.);
#179=ORIENTED_EDGE('',*,*,#237,.F.);
#180=ORIENTED_EDGE('',*,*,#227,.T.);
#181=ORIENTED_EDGE('',*,*,#236,.F.);
#182=ORIENTED_EDGE('',*,*,#229,.T.);
#183=ORIENTED_EDGE('',*,*,#228,.F.);
#184=ORIENTED_EDGE('',*,*,#237,.T.);
#185=ORIENTED_EDGE('',*,*,#233,.F.);
#186=EDGE_CURVE('',#238,#238,#278,.T.);
#187=EDGE_CURVE('',#239,#239,#279,.T.);
#188=EDGE_CURVE('',#240,#241,#26,.T.);
#189=EDGE_CURVE('',#241,#242,#27,.T.);
#190=EDGE_CURVE('',#242,#243,#28,.T.);
#191=EDGE_CURVE('',#243,#240,#29,.T.);
#192=EDGE_CURVE('',#244,#245,#30,.T.);
#193=EDGE_CURVE('',#245,#246,#31,.T.);
#194=EDGE_CURVE('',#246,#247,#32,.T.);
#195=EDGE_CURVE('',#247,#244,#33,.T.);
#196=EDGE_CURVE('',#248,#248,#280,.T.);
#197=EDGE_CURVE('',#249,#249,#281,.T.);
#198=EDGE_CURVE('',#250,#250,#282,.T.);
#199=EDGE_CURVE('',#251,#251,#283,.T.);
#200=EDGE_CURVE('',#252,#252,#284,.T.);
#201=EDGE_CURVE('',#253,#253,#285,.T.);
#202=EDGE_CURVE('',#254,#254,#286,.T.);
#203=EDGE_CURVE('',#255,#255,#287,.T.);
#204=EDGE_CURVE('',#256,#256,#288,.T.);
#205=EDGE_CURVE('',#257,#257,#289,.T.);
#206=EDGE_CURVE('',#258,#258,#290,.T.);
#207=EDGE_CURVE('',#259,#259,#291,.T.);
#208=EDGE_CURVE('',#260,#260,#292,.T.);
#209=EDGE_CURVE('',#261,#261,#293,.T.);
#210=EDGE_CURVE('',#262,#263,#294,.T.);
#211=EDGE_CURVE('',#262,#264,#34,.T.);
#212=EDGE_CURVE('',#265,#264,#295,.T.);
#213=EDGE_CURVE('',#265,#241,#35,.T.);
#214=EDGE_CURVE('',#263,#240,#36,.T.);
#215=EDGE_CURVE('',#266,#267,#296,.T.);
#216=EDGE_CURVE('',#262,#267,#37,.T.);
#217=EDGE_CURVE('',#266,#263,#38,.T.);
#218=EDGE_CURVE('',#266,#243,#39,.T.);
#219=EDGE_CURVE('',#268,#242,#40,.T.);
#220=EDGE_CURVE('',#269,#268,#297,.T.);
#221=EDGE_CURVE('',#269,#267,#41,.T.);
#222=EDGE_CURVE('',#269,#264,#42,.T.);
#223=EDGE_CURVE('',#265,#268,#43,.T.);
#224=EDGE_CURVE('',#270,#271,#298,.T.);
#225=EDGE_CURVE('',#270,#245,#44,.T.);
#226=EDGE_CURVE('',#272,#244,#45,.T.);
#227=EDGE_CURVE('',#273,#272,#299,.T.);
#228=EDGE_CURVE('',#273,#271,#46,.T.);
#229=EDGE_CURVE('',#274,#271,#47,.T.);
#230=EDGE_CURVE('',#274,#275,#300,.T.);
#231=EDGE_CURVE('',#270,#275,#48,.T.);
#232=EDGE_CURVE('',#275,#246,#49,.T.);
#233=EDGE_CURVE('',#274,#276,#50,.T.);
#234=EDGE_CURVE('',#277,#276,#301,.T.);
#235=EDGE_CURVE('',#277,#247,#51,.T.);
#236=EDGE_CURVE('',#277,#272,#52,.T.);
#237=EDGE_CURVE('',#273,#276,#53,.T.);
#238=VERTEX_POINT('',#657);
#239=VERTEX_POINT('',#659);
#240=VERTEX_POINT('',#661);
#241=VERTEX_POINT('',#662);
#242=VERTEX_POINT('',#664);
#243=VERTEX_POINT('',#666);
#244=VERTEX_POINT('',#669);
#245=VERTEX_POINT('',#670);
#246=VERTEX_POINT('',#672);
#247=VERTEX_POINT('',#674);
#248=VERTEX_POINT('',#678);
#249=VERTEX_POINT('',#681);
#250=VERTEX_POINT('',#684);
#251=VERTEX_POINT('',#686);
#252=VERTEX_POINT('',#688);
#253=VERTEX_POINT('',#691);
#254=VERTEX_POINT('',#694);
#255=VERTEX_POINT('',#697);
#256=VERTEX_POINT('',#700);
#257=VERTEX_POINT('',#703);
#258=VERTEX_POINT('',#707);
#259=VERTEX_POINT('',#711);
#260=VERTEX_POINT('',#715);
#261=VERTEX_POINT('',#718);
#262=VERTEX_POINT('',#722);
#263=VERTEX_POINT('',#723);
#264=VERTEX_POINT('',#725);
#265=VERTEX_POINT('',#727);
#266=VERTEX_POINT('',#732);
#267=VERTEX_POINT('',#733);
#268=VERTEX_POINT('',#739);
#269=VERTEX_POINT('',#741);
#270=VERTEX_POINT('',#751);
#271=VERTEX_POINT('',#752);
#272=VERTEX_POINT('',#755);
#273=VERTEX_POINT('',#757);
#274=VERTEX_POINT('',#761);
#275=VERTEX_POINT('',#763);
#276=VERTEX_POINT('',#769);
#277=VERTEX_POINT('',#771);
#278=CIRCLE('',#460,0.008525);
#279=CIRCLE('',#461,0.00235);
#280=CIRCLE('',#463,0.008525);
#281=CIRCLE('',#465,0.008025);
#282=CIRCLE('',#467,0.00305);
#283=CIRCLE('',#468,0.001);
#284=CIRCLE('',#469,0.001);
#285=CIRCLE('',#471,0.00305);
#286=CIRCLE('',#473,0.00285);
#287=CIRCLE('',#475,0.00075);
#288=CIRCLE('',#477,0.00075);
#289=CIRCLE('',#479,0.00055);
#290=CIRCLE('',#482,0.001);
#291=CIRCLE('',#485,0.001);
#292=CIRCLE('',#488,0.00235);
#293=CIRCLE('',#490,0.00185);
#294=CIRCLE('',#493,0.0005);
#295=CIRCLE('',#494,0.0005);
#296=CIRCLE('',#496,0.0005);
#297=CIRCLE('',#498,0.0005);
#298=CIRCLE('',#504,0.0005);
#299=CIRCLE('',#505,0.0005);
#300=CIRCLE('',#507,0.0005);
#301=CIRCLE('',#510,0.0005);
#302=EDGE_LOOP('',(#82));
#303=EDGE_LOOP('',(#83));
#304=EDGE_LOOP('',(#84,#85,#86,#87));
#305=EDGE_LOOP('',(#88,#89,#90,#91));
#306=EDGE_LOOP('',(#92));
#307=EDGE_LOOP('',(#93));
#308=EDGE_LOOP('',(#94));
#309=EDGE_LOOP('',(#95));
#310=EDGE_LOOP('',(#96));
#311=EDGE_LOOP('',(#97));
#312=EDGE_LOOP('',(#98));
#313=EDGE_LOOP('',(#99));
#314=EDGE_LOOP('',(#100));
#315=EDGE_LOOP('',(#101));
#316=EDGE_LOOP('',(#102));
#317=EDGE_LOOP('',(#103));
#318=EDGE_LOOP('',(#104));
#319=EDGE_LOOP('',(#105));
#320=EDGE_LOOP('',(#106));
#321=EDGE_LOOP('',(#107));
#322=EDGE_LOOP('',(#108));
#323=EDGE_LOOP('',(#109));
#324=EDGE_LOOP('',(#110));
#325=EDGE_LOOP('',(#111));
#326=EDGE_LOOP('',(#112));
#327=EDGE_LOOP('',(#113));
#328=EDGE_LOOP('',(#114));
#329=EDGE_LOOP('',(#115));
#330=EDGE_LOOP('',(#116));
#331=EDGE_LOOP('',(#117));
#332=EDGE_LOOP('',(#118));
#333=EDGE_LOOP('',(#119));
#334=EDGE_LOOP('',(#120));
#335=EDGE_LOOP('',(#121));
#336=EDGE_LOOP('',(#122,#123,#124,#125,#126,#127));
#337=EDGE_LOOP('',(#128,#129,#130,#131));
#338=EDGE_LOOP('',(#132,#133,#134,#135,#136,#137));
#339=EDGE_LOOP('',(#138,#139,#140,#141));
#340=EDGE_LOOP('',(#142,#143,#144,#145));
#341=EDGE_LOOP('',(#146,#147,#148,#149));
#342=EDGE_LOOP('',(#150,#151,#152,#153));
#343=EDGE_LOOP('',(#154,#155,#156,#157,#158,#159));
#344=EDGE_LOOP('',(#160,#161,#162,#163));
#345=EDGE_LOOP('',(#164,#165,#166,#167));
#346=EDGE_LOOP('',(#168,#169,#170,#171,#172,#173));
#347=EDGE_LOOP('',(#174,#175,#176,#177));
#348=EDGE_LOOP('',(#178,#179,#180,#181));
#349=EDGE_LOOP('',(#182,#183,#184,#185));
#350=FACE_BOUND('',#302,.T.);
#351=FACE_BOUND('',#303,.T.);
#352=FACE_BOUND('',#304,.T.);
#353=FACE_BOUND('',#305,.T.);
#354=FACE_BOUND('',#306,.T.);
#355=FACE_BOUND('',#307,.T.);
#356=FACE_BOUND('',#308,.T.);
#357=FACE_BOUND('',#309,.T.);
#358=FACE_BOUND('',#310,.T.);
#359=FACE_BOUND('',#311,.T.);
#360=FACE_BOUND('',#312,.T.);
#361=FACE_BOUND('',#313,.T.);
#362=FACE_BOUND('',#314,.T.);
#363=FACE_BOUND('',#315,.T.);
#364=FACE_BOUND('',#316,.T.);
#365=FACE_BOUND('',#317,.T.);
#366=FACE_BOUND('',#318,.T.);
#367=FACE_BOUND('',#319,.T.);
#368=FACE_BOUND('',#320,.T.);
#369=FACE_BOUND('',#321,.T.);
#370=FACE_BOUND('',#322,.T.);
#371=FACE_BOUND('',#323,.T.);
#372=FACE_BOUND('',#324,.T.);
#373=FACE_BOUND('',#325,.T.);
#374=FACE_BOUND('',#326,.T.);
#375=FACE_BOUND('',#327,.T.);
#376=FACE_BOUND('',#328,.T.);
#377=FACE_BOUND('',#329,.T.);
#378=FACE_BOUND('',#330,.T.);
#379=FACE_BOUND('',#331,.T.);
#380=FACE_BOUND('',#332,.T.);
#381=FACE_BOUND('',#333,.T.);
#382=FACE_BOUND('',#334,.T.);
#383=FACE_BOUND('',#335,.T.);
#384=FACE_BOUND('',#336,.T.);
#385=FACE_BOUND('',#337,.T.);
#386=FACE_BOUND('',#338,.T.);
#387=FACE_BOUND('',#339,.T.);
#388=FACE_BOUND('',#340,.T.);
#389=FACE_BOUND('',#341,.T.);
#390=FACE_BOUND('',#342,.T.);
#391=FACE_BOUND('',#343,.T.);
#392=FACE_BOUND('',#344,.T.);
#393=FACE_BOUND('',#345,.T.);
#394=FACE_BOUND('',#346,.T.);
#395=FACE_BOUND('',#347,.T.);
#396=FACE_BOUND('',#348,.T.);
#397=FACE_BOUND('',#349,.T.);
#398=PLANE('',#459);
#399=PLANE('',#466);
#400=PLANE('',#474);
#401=PLANE('',#480);
#402=PLANE('',#483);
#403=PLANE('',#486);
#404=PLANE('',#491);
#405=PLANE('',#492);
#406=PLANE('',#497);
#407=PLANE('',#499);
#408=PLANE('',#501);
#409=PLANE('',#502);
#410=PLANE('',#503);
#411=PLANE('',#508);
#412=PLANE('',#509);
#413=PLANE('',#511);
#414=PLANE('',#513);
#415=ADVANCED_FACE('',(#350,#351,#352,#353),#398,.F.);
#416=ADVANCED_FACE('',(#354,#355),#16,.T.);
#417=ADVANCED_FACE('',(#356,#357),#12,.T.);
#418=ADVANCED_FACE('',(#358,#359,#360,#361),#399,.T.);
#419=ADVANCED_FACE('',(#362,#363),#17,.T.);
#420=ADVANCED_FACE('',(#364,#365),#13,.T.);
#421=ADVANCED_FACE('',(#366,#367),#400,.T.);
#422=ADVANCED_FACE('',(#368,#369),#18,.T.);
#423=ADVANCED_FACE('',(#370,#371),#14,.T.);
#424=ADVANCED_FACE('',(#372),#401,.T.);
#425=ADVANCED_FACE('',(#373,#374),#19,.F.);
#426=ADVANCED_FACE('',(#375),#402,.T.);
#427=ADVANCED_FACE('',(#376,#377),#20,.F.);
#428=ADVANCED_FACE('',(#378),#403,.T.);
#429=ADVANCED_FACE('',(#379,#380),#21,.T.);
#430=ADVANCED_FACE('',(#381,#382),#15,.T.);
#431=ADVANCED_FACE('',(#383),#404,.T.);
#432=ADVANCED_FACE('',(#384),#405,.T.);
#433=ADVANCED_FACE('',(#385),#22,.T.);
#434=ADVANCED_FACE('',(#386),#406,.T.);
#435=ADVANCED_FACE('',(#387),#407,.T.);
#436=ADVANCED_FACE('',(#388),#23,.T.);
#437=ADVANCED_FACE('',(#389),#408,.T.);
#438=ADVANCED_FACE('',(#390),#409,.T.);
#439=ADVANCED_FACE('',(#391),#410,.T.);
#440=ADVANCED_FACE('',(#392),#24,.T.);
#441=ADVANCED_FACE('',(#393),#411,.T.);
#442=ADVANCED_FACE('',(#394),#412,.T.);
#443=ADVANCED_FACE('',(#395),#413,.T.);
#444=ADVANCED_FACE('',(#396),#25,.T.);
#445=ADVANCED_FACE('',(#397),#414,.T.);
#446=CLOSED_SHELL('',(#415,#416,#417,#418,#419,#420,#421,#422,#423,#424,
#425,#426,#427,#428,#429,#430,#431,#432,#433,#434,#435,#436,#437,#438,#439,
#440,#441,#442,#443,#444,#445));
#447=STYLED_ITEM('',(#448),#455);
#448=PRESENTATION_STYLE_ASSIGNMENT((#449));
#449=SURFACE_STYLE_USAGE(.BOTH.,#450);
#450=SURFACE_SIDE_STYLE('',(#451));
#451=SURFACE_STYLE_FILL_AREA(#452);
#452=FILL_AREA_STYLE('',(#453));
#453=FILL_AREA_STYLE_COLOUR('',#454);
#454=COLOUR_RGB('',0.0980392156862745,0.0980392156862745,0.0980392156862745);
#455=MANIFOLD_SOLID_BREP('MOTOR-1723_3',#446);
#456=SHAPE_DEFINITION_REPRESENTATION(#784,#457);
#457=SHAPE_REPRESENTATION('MOTOR-1723_3',(#458),#779);
#458=AXIS2_PLACEMENT_3D('',#654,#514,#515);
#459=AXIS2_PLACEMENT_3D('',#655,#516,#517);
#460=AXIS2_PLACEMENT_3D('',#656,#518,#519);
#461=AXIS2_PLACEMENT_3D('',#658,#520,#521);
#462=AXIS2_PLACEMENT_3D('',#676,#530,#531);
#463=AXIS2_PLACEMENT_3D('',#677,#532,#533);
#464=AXIS2_PLACEMENT_3D('',#679,#534,#535);
#465=AXIS2_PLACEMENT_3D('',#680,#536,#537);
#466=AXIS2_PLACEMENT_3D('',#682,#538,#539);
#467=AXIS2_PLACEMENT_3D('',#683,#540,#541);
#468=AXIS2_PLACEMENT_3D('',#685,#542,#543);
#469=AXIS2_PLACEMENT_3D('',#687,#544,#545);
#470=AXIS2_PLACEMENT_3D('',#689,#546,#547);
#471=AXIS2_PLACEMENT_3D('',#690,#548,#549);
#472=AXIS2_PLACEMENT_3D('',#692,#550,#551);
#473=AXIS2_PLACEMENT_3D('',#693,#552,#553);
#474=AXIS2_PLACEMENT_3D('',#695,#554,#555);
#475=AXIS2_PLACEMENT_3D('',#696,#556,#557);
#476=AXIS2_PLACEMENT_3D('',#698,#558,#559);
#477=AXIS2_PLACEMENT_3D('',#699,#560,#561);
#478=AXIS2_PLACEMENT_3D('',#701,#562,#563);
#479=AXIS2_PLACEMENT_3D('',#702,#564,#565);
#480=AXIS2_PLACEMENT_3D('',#704,#566,#567);
#481=AXIS2_PLACEMENT_3D('',#705,#568,#569);
#482=AXIS2_PLACEMENT_3D('',#706,#570,#571);
#483=AXIS2_PLACEMENT_3D('',#708,#572,#573);
#484=AXIS2_PLACEMENT_3D('',#709,#574,#575);
#485=AXIS2_PLACEMENT_3D('',#710,#576,#577);
#486=AXIS2_PLACEMENT_3D('',#712,#578,#579);
#487=AXIS2_PLACEMENT_3D('',#713,#580,#581);
#488=AXIS2_PLACEMENT_3D('',#714,#582,#583);
#489=AXIS2_PLACEMENT_3D('',#716,#584,#585);
#490=AXIS2_PLACEMENT_3D('',#717,#586,#587);
#491=AXIS2_PLACEMENT_3D('',#719,#588,#589);
#492=AXIS2_PLACEMENT_3D('',#720,#590,#591);
#493=AXIS2_PLACEMENT_3D('',#721,#592,#593);
#494=AXIS2_PLACEMENT_3D('',#726,#595,#596);
#495=AXIS2_PLACEMENT_3D('',#730,#599,#600);
#496=AXIS2_PLACEMENT_3D('',#731,#601,#602);
#497=AXIS2_PLACEMENT_3D('',#736,#605,#606);
#498=AXIS2_PLACEMENT_3D('',#740,#609,#610);
#499=AXIS2_PLACEMENT_3D('',#743,#612,#613);
#500=AXIS2_PLACEMENT_3D('',#745,#615,#616);
#501=AXIS2_PLACEMENT_3D('',#747,#618,#619);
#502=AXIS2_PLACEMENT_3D('',#748,#620,#621);
#503=AXIS2_PLACEMENT_3D('',#749,#622,#623);
#504=AXIS2_PLACEMENT_3D('',#750,#624,#625);
#505=AXIS2_PLACEMENT_3D('',#756,#628,#629);
#506=AXIS2_PLACEMENT_3D('',#759,#631,#632);
#507=AXIS2_PLACEMENT_3D('',#762,#634,#635);
#508=AXIS2_PLACEMENT_3D('',#765,#637,#638);
#509=AXIS2_PLACEMENT_3D('',#767,#640,#641);
#510=AXIS2_PLACEMENT_3D('',#770,#643,#644);
#511=AXIS2_PLACEMENT_3D('',#773,#646,#647);
#512=AXIS2_PLACEMENT_3D('',#775,#649,#650);
#513=AXIS2_PLACEMENT_3D('',#777,#652,#653);
#514=DIRECTION('',(0.,0.,1.));
#515=DIRECTION('',(1.,0.,0.));
#516=DIRECTION('',(0.,-1.,0.));
#517=DIRECTION('',(1.,0.,0.));
#518=DIRECTION('',(0.,-1.,0.));
#519=DIRECTION('',(1.,0.,0.));
#520=DIRECTION('',(0.,1.,0.));
#521=DIRECTION('',(0.,0.,-1.));
#522=DIRECTION('',(0.,0.,1.));
#523=DIRECTION('',(-1.,0.,0.));
#524=DIRECTION('',(0.,0.,-1.));
#525=DIRECTION('',(1.,0.,0.));
#526=DIRECTION('',(0.,0.,-1.));
#527=DIRECTION('',(1.,0.,0.));
#528=DIRECTION('',(0.,0.,1.));
#529=DIRECTION('',(-1.,0.,0.));
#530=DIRECTION('',(0.,-1.,0.));
#531=DIRECTION('',(1.,0.,0.));
#532=DIRECTION('',(0.,1.,0.));
#533=DIRECTION('',(-1.,0.,7.073264904607E-14));
#534=DIRECTION('',(0.,-1.,0.));
#535=DIRECTION('',(0.99997886016339,0.,-0.00650224779032094));
#536=DIRECTION('',(0.,-1.,0.));
#537=DIRECTION('',(-0.999979963256423,0.,0.00633033061406515));
#538=DIRECTION('',(0.,-1.,0.));
#539=DIRECTION('',(1.,0.,0.));
#540=DIRECTION('',(0.,-1.,0.));
#541=DIRECTION('',(1.,0.,0.));
#542=DIRECTION('',(0.,-1.,0.));
#543=DIRECTION('',(1.,0.,0.));
#544=DIRECTION('',(0.,-1.,0.));
#545=DIRECTION('',(1.,0.,0.));
#546=DIRECTION('',(0.,-1.,0.));
#547=DIRECTION('',(1.,0.,0.));
#548=DIRECTION('',(0.,1.,0.));
#549=DIRECTION('',(-1.,0.,3.180223896046E-11));
#550=DIRECTION('',(0.,-1.,0.));
#551=DIRECTION('',(0.999807909320328,0.,-0.0195996035805705));
#552=DIRECTION('',(0.,1.,0.));
#553=DIRECTION('',(-1.,0.,0.));
#554=DIRECTION('',(0.,-1.,0.));
#555=DIRECTION('',(1.,0.,0.));
#556=DIRECTION('',(0.,-1.,0.));
#557=DIRECTION('',(1.,0.,0.));
#558=DIRECTION('',(0.,-1.,0.));
#559=DIRECTION('',(1.,0.,0.));
#560=DIRECTION('',(0.,1.,0.));
#561=DIRECTION('',(-1.,0.,1.625375956389E-9));
#562=DIRECTION('',(0.,-1.,0.));
#563=DIRECTION('',(0.996824827028486,0.,-0.0796257761006389));
#564=DIRECTION('',(0.,1.,0.));
#565=DIRECTION('',(-1.,0.,0.));
#566=DIRECTION('',(0.,-1.,0.));
#567=DIRECTION('',(1.,0.,0.));
#568=DIRECTION('',(0.,-1.,0.));
#569=DIRECTION('',(1.,0.,0.));
#570=DIRECTION('',(0.,1.,0.));
#571=DIRECTION('',(-1.,0.,0.));
#572=DIRECTION('',(0.,-1.,0.));
#573=DIRECTION('',(1.,0.,0.));
#574=DIRECTION('',(0.,-1.,0.));
#575=DIRECTION('',(1.,0.,0.));
#576=DIRECTION('',(0.,1.,0.));
#577=DIRECTION('',(-1.,0.,0.));
#578=DIRECTION('',(0.,-1.,0.));
#579=DIRECTION('',(1.,0.,0.));
#580=DIRECTION('',(0.,1.,0.));
#581=DIRECTION('',(0.,0.,-1.));
#582=DIRECTION('',(0.,-1.,0.));
#583=DIRECTION('',(-4.029189238517E-11,0.,1.));
#584=DIRECTION('',(0.,1.,0.));
#585=DIRECTION('',(0.02437400957894,0.,-0.999702909697199));
#586=DIRECTION('',(0.,-1.,0.));
#587=DIRECTION('',(0.,0.,1.));
#588=DIRECTION('',(0.,1.,0.));
#589=DIRECTION('',(0.,0.,-1.));
#590=DIRECTION('',(1.,0.,0.));
#591=DIRECTION('',(0.,0.,-1.));
#592=DIRECTION('',(-1.,0.,0.));
#593=DIRECTION('',(0.,1.,0.));
#594=DIRECTION('',(0.,0.,1.));
#595=DIRECTION('',(-1.,0.,0.));
#596=DIRECTION('',(0.,0.,1.));
#597=DIRECTION('',(0.,-1.,0.));
#598=DIRECTION('',(0.,-1.,0.));
#599=DIRECTION('',(-1.,0.,0.));
#600=DIRECTION('',(0.,1.,0.));
#601=DIRECTION('',(1.,0.,0.));
#602=DIRECTION('',(0.,0.,-1.));
#603=DIRECTION('',(-1.,0.,0.));
#604=DIRECTION('',(1.,0.,0.));
#605=DIRECTION('',(-1.,0.,0.));
#606=DIRECTION('',(0.,0.,1.));
#607=DIRECTION('',(0.,-1.,0.));
#608=DIRECTION('',(0.,-1.,0.));
#609=DIRECTION('',(1.,0.,0.));
#610=DIRECTION('',(0.,1.,0.));
#611=DIRECTION('',(0.,0.,-1.));
#612=DIRECTION('',(0.,1.,0.));
#613=DIRECTION('',(0.,0.,-1.));
#614=DIRECTION('',(1.,0.,0.));
#615=DIRECTION('',(1.,0.,0.));
#616=DIRECTION('',(0.,1.,0.));
#617=DIRECTION('',(-1.,0.,0.));
#618=DIRECTION('',(0.,0.,1.));
#619=DIRECTION('',(1.,0.,0.));
#620=DIRECTION('',(0.,0.,-1.));
#621=DIRECTION('',(-1.,0.,0.));
#622=DIRECTION('',(-1.,0.,0.));
#623=DIRECTION('',(0.,0.,1.));
#624=DIRECTION('',(1.,0.,0.));
#625=DIRECTION('',(0.,0.,-1.));
#626=DIRECTION('',(0.,-1.,0.));
#627=DIRECTION('',(0.,-1.,0.));
#628=DIRECTION('',(1.,0.,0.));
#629=DIRECTION('',(0.,1.,0.));
#630=DIRECTION('',(0.,0.,-1.));
#631=DIRECTION('',(-1.,0.,0.));
#632=DIRECTION('',(0.,1.,0.));
#633=DIRECTION('',(-1.,0.,0.));
#634=DIRECTION('',(-1.,0.,0.));
#635=DIRECTION('',(0.,1.,0.));
#636=DIRECTION('',(1.,0.,0.));
#637=DIRECTION('',(0.,0.,-1.));
#638=DIRECTION('',(-1.,0.,0.));
#639=DIRECTION('',(0.,-1.,0.));
#640=DIRECTION('',(1.,0.,0.));
#641=DIRECTION('',(0.,0.,-1.));
#642=DIRECTION('',(0.,0.,1.));
#643=DIRECTION('',(-1.,0.,0.));
#644=DIRECTION('',(0.,0.,1.));
#645=DIRECTION('',(0.,-1.,0.));
#646=DIRECTION('',(0.,0.,1.));
#647=DIRECTION('',(1.,0.,0.));
#648=DIRECTION('',(-1.,0.,0.));
#649=DIRECTION('',(1.,0.,0.));
#650=DIRECTION('',(0.,1.,0.));
#651=DIRECTION('',(1.,0.,0.));
#652=DIRECTION('',(0.,1.,0.));
#653=DIRECTION('',(0.,0.,-1.));
#654=CARTESIAN_POINT('',(0.,0.,0.));
#655=CARTESIAN_POINT('',(0.,0.,0.));
#656=CARTESIAN_POINT('',(0.,0.,0.));
#657=CARTESIAN_POINT('',(0.008525,0.,0.));
#658=CARTESIAN_POINT('',(0.,0.,0.));
#659=CARTESIAN_POINT('',(0.,0.,-0.00235));
#660=CARTESIAN_POINT('',(-0.006,0.,-0.001265));
#661=CARTESIAN_POINT('',(-0.006,0.,-0.001265));
#662=CARTESIAN_POINT('',(-0.006,0.,0.001265));
#663=CARTESIAN_POINT('',(-0.006,0.,0.001265));
#664=CARTESIAN_POINT('',(-0.0065,0.,0.001265));
#665=CARTESIAN_POINT('',(-0.0065,0.,0.001265));
#666=CARTESIAN_POINT('',(-0.0065,0.,-0.001265));
#667=CARTESIAN_POINT('',(-0.0065,0.,-0.001265));
#668=CARTESIAN_POINT('',(0.006,0.,0.001265));
#669=CARTESIAN_POINT('',(0.006,0.,0.001265));
#670=CARTESIAN_POINT('',(0.006,0.,-0.001265));
#671=CARTESIAN_POINT('',(0.,0.,-0.001265));
#672=CARTESIAN_POINT('',(0.0065,0.,-0.001265));
#673=CARTESIAN_POINT('',(0.0065,0.,-0.001265));
#674=CARTESIAN_POINT('',(0.0065,0.,0.001265));
#675=CARTESIAN_POINT('',(0.,0.,0.001265));
#676=CARTESIAN_POINT('',(0.,0.,0.));
#677=CARTESIAN_POINT('',(0.,-0.02235,0.));
#678=CARTESIAN_POINT('',(-0.008525,-0.02235,6.02995833117747E-16));
#679=CARTESIAN_POINT('',(0.,-0.02235,0.));
#680=CARTESIAN_POINT('',(0.,-0.02285,0.));
#681=CARTESIAN_POINT('',(-0.00802483920513279,-0.02285,5.08009031778728E-5));
#682=CARTESIAN_POINT('',(0.,-0.02285,0.));
#683=CARTESIAN_POINT('',(0.,-0.02285,0.));
#684=CARTESIAN_POINT('',(0.00305,-0.02285,0.));
#685=CARTESIAN_POINT('',(-0.00525,-0.02285,0.));
#686=CARTESIAN_POINT('',(-0.00425,-0.02285,0.));
#687=CARTESIAN_POINT('',(0.00525,-0.02285,0.));
#688=CARTESIAN_POINT('',(0.00625,-0.02285,0.));
#689=CARTESIAN_POINT('',(0.,0.,0.));
#690=CARTESIAN_POINT('',(0.,-0.02415,0.));
#691=CARTESIAN_POINT('',(-0.00305,-0.02415,9.6996828829403E-14));
#692=CARTESIAN_POINT('',(0.,-0.02415,0.));
#693=CARTESIAN_POINT('',(0.,-0.02435,0.));
#694=CARTESIAN_POINT('',(-0.00285,-0.02435,0.));
#695=CARTESIAN_POINT('',(0.,-0.02435,0.));
#696=CARTESIAN_POINT('',(0.,-0.02435,0.));
#697=CARTESIAN_POINT('',(0.00075,-0.02435,0.));
#698=CARTESIAN_POINT('',(0.,-0.0246,0.));
#699=CARTESIAN_POINT('',(0.,-0.02665,0.));
#700=CARTESIAN_POINT('',(-0.00075,-0.02665,1.21903196729175E-12));
#701=CARTESIAN_POINT('',(0.,-0.02665,0.));
#702=CARTESIAN_POINT('',(0.,-0.02685,0.));
#703=CARTESIAN_POINT('',(-0.00055,-0.02685,0.));
#704=CARTESIAN_POINT('',(0.,-0.02685,0.));
#705=CARTESIAN_POINT('',(-0.00525,-0.02285,0.));
#706=CARTESIAN_POINT('',(-0.00525,-0.02085,0.));
#707=CARTESIAN_POINT('',(-0.00625,-0.02085,0.));
#708=CARTESIAN_POINT('',(0.,-0.02085,0.));
#709=CARTESIAN_POINT('',(0.00525,-0.02285,0.));
#710=CARTESIAN_POINT('',(0.00525,-0.02085,0.));
#711=CARTESIAN_POINT('',(0.00425,-0.02085,0.));
#712=CARTESIAN_POINT('',(0.,-0.02085,0.));
#713=CARTESIAN_POINT('',(0.,0.,0.));
#714=CARTESIAN_POINT('',(0.,0.0011,0.));
#715=CARTESIAN_POINT('',(-9.46859471051495E-14,0.0011,0.00235));
#716=CARTESIAN_POINT('',(0.,0.0011,0.));
#717=CARTESIAN_POINT('',(0.,0.0016,0.));
#718=CARTESIAN_POINT('',(0.,0.0016,0.00185));
#719=CARTESIAN_POINT('',(0.,0.0016,0.));
#720=CARTESIAN_POINT('',(-0.006,0.,0.001265));
#721=CARTESIAN_POINT('',(-0.006,0.00315,-0.000765));
#722=CARTESIAN_POINT('',(-0.006,0.00365,-0.000765));
#723=CARTESIAN_POINT('',(-0.006,0.00315,-0.001265));
#724=CARTESIAN_POINT('',(-0.006,0.00365,-0.000765));
#725=CARTESIAN_POINT('',(-0.006,0.00365,0.000765));
#726=CARTESIAN_POINT('',(-0.006,0.00315,0.000765));
#727=CARTESIAN_POINT('',(-0.006,0.00315,0.001265));
#728=CARTESIAN_POINT('',(-0.006,0.00315,0.001265));
#729=CARTESIAN_POINT('',(-0.006,0.00315,-0.001265));
#730=CARTESIAN_POINT('',(0.03075138,0.00315,-0.000765));
#731=CARTESIAN_POINT('',(-0.0065,0.00315,-0.000765));
#732=CARTESIAN_POINT('',(-0.0065,0.00315,-0.001265));
#733=CARTESIAN_POINT('',(-0.0065,0.00365,-0.000765));
#734=CARTESIAN_POINT('',(-0.006,0.00365,-0.000765));
#735=CARTESIAN_POINT('',(-0.0065,0.00315,-0.001265));
#736=CARTESIAN_POINT('',(-0.0065,0.,-0.001265));
#737=CARTESIAN_POINT('',(-0.0065,0.00315,-0.001265));
#738=CARTESIAN_POINT('',(-0.0065,0.00315,0.001265));
#739=CARTESIAN_POINT('',(-0.0065,0.00315,0.001265));
#740=CARTESIAN_POINT('',(-0.0065,0.00315,0.000765));
#741=CARTESIAN_POINT('',(-0.0065,0.00365,0.000765));
#742=CARTESIAN_POINT('',(-0.0065,0.00365,0.000765));
#743=CARTESIAN_POINT('',(0.,0.00365,0.));
#744=CARTESIAN_POINT('',(-0.0065,0.00365,0.000765));
#745=CARTESIAN_POINT('',(-0.03075138,0.00315,0.000765));
#746=CARTESIAN_POINT('',(-0.006,0.00315,0.001265));
#747=CARTESIAN_POINT('',(-0.0065,0.,0.001265));
#748=CARTESIAN_POINT('',(-0.006,0.,-0.001265));
#749=CARTESIAN_POINT('',(0.006,0.,-0.001265));
#750=CARTESIAN_POINT('',(0.006,0.00315,-0.000765));
#751=CARTESIAN_POINT('',(0.006,0.00315,-0.001265));
#752=CARTESIAN_POINT('',(0.006,0.00365,-0.000765));
#753=CARTESIAN_POINT('',(0.006,0.,-0.001265));
#754=CARTESIAN_POINT('',(0.006,0.,0.001265));
#755=CARTESIAN_POINT('',(0.006,0.00315,0.001265));
#756=CARTESIAN_POINT('',(0.006,0.00315,0.000765));
#757=CARTESIAN_POINT('',(0.006,0.00365,0.000765));
#758=CARTESIAN_POINT('',(0.006,0.00365,-0.001265));
#759=CARTESIAN_POINT('',(0.03075138,0.00315,-0.000765));
#760=CARTESIAN_POINT('',(0.03075138,0.00365,-0.000765));
#761=CARTESIAN_POINT('',(0.0065,0.00365,-0.000765));
#762=CARTESIAN_POINT('',(0.0065,0.00315,-0.000765));
#763=CARTESIAN_POINT('',(0.0065,0.00315,-0.001265));
#764=CARTESIAN_POINT('',(0.03075138,0.00315,-0.001265));
#765=CARTESIAN_POINT('',(-0.006,0.,-0.001265));
#766=CARTESIAN_POINT('',(0.0065,0.,-0.001265));
#767=CARTESIAN_POINT('',(0.0065,0.,0.001265));
#768=CARTESIAN_POINT('',(0.0065,0.00365,0.001265));
#769=CARTESIAN_POINT('',(0.0065,0.00365,0.000765));
#770=CARTESIAN_POINT('',(0.0065,0.00315,0.000765));
#771=CARTESIAN_POINT('',(0.0065,0.00315,0.001265));
#772=CARTESIAN_POINT('',(0.0065,0.,0.001265));
#773=CARTESIAN_POINT('',(-0.0065,0.,0.001265));
#774=CARTESIAN_POINT('',(-0.03075138,0.00315,0.001265));
#775=CARTESIAN_POINT('',(-0.03075138,0.00315,0.000765));
#776=CARTESIAN_POINT('',(-0.03075138,0.00365,0.000765));
#777=CARTESIAN_POINT('',(0.,0.00365,0.));
#778=MECHANICAL_DESIGN_GEOMETRIC_PRESENTATION_REPRESENTATION('',(#447),
#779);
#779=(
GEOMETRIC_REPRESENTATION_CONTEXT(3)
GLOBAL_UNCERTAINTY_ASSIGNED_CONTEXT((#780))
GLOBAL_UNIT_ASSIGNED_CONTEXT((#783,#782,#781))
REPRESENTATION_CONTEXT('MOTOR-1723_3','TOP_LEVEL_ASSEMBLY_PART')
);
#780=UNCERTAINTY_MEASURE_WITH_UNIT(LENGTH_MEASURE(1.E-6),#783,
'DISTANCE_ACCURACY_VALUE','Maximum Tolerance applied to model');
#781=(
NAMED_UNIT(*)
SI_UNIT($,.STERADIAN.)
SOLID_ANGLE_UNIT()
);
#782=(
NAMED_UNIT(*)
PLANE_ANGLE_UNIT()
SI_UNIT($,.RADIAN.)
);
#783=(
LENGTH_UNIT()
NAMED_UNIT(*)
SI_UNIT($,.METRE.)
);
#784=PRODUCT_DEFINITION_SHAPE('','',#785);
#785=PRODUCT_DEFINITION('','',#787,#786);
#786=PRODUCT_DEFINITION_CONTEXT('',#793,'design');
#787=PRODUCT_DEFINITION_FORMATION_WITH_SPECIFIED_SOURCE('','',#789,
 .NOT_KNOWN.);
#788=PRODUCT_RELATED_PRODUCT_CATEGORY('','',(#789));
#789=PRODUCT('MOTOR-1723_3','MOTOR-1723_3','MOTOR-1723_3',(#791));
#790=PRODUCT_CATEGORY('','');
#791=PRODUCT_CONTEXT('',#793,'mechanical');
#792=APPLICATION_PROTOCOL_DEFINITION('international standard',
'ap242_managed_model_based_3d_engineering',2020,#793);
#793=APPLICATION_CONTEXT('managed model based 3d engineering');
ENDSEC;
END-ISO-10303-21;
