ISO-10303-21;
HEADER;
/* Generated by software containing ST-Developer
 * from STEP Tools, Inc. (www.steptools.com) 
 */
/* OPTION: using custom renumber hook */

FILE_DESCRIPTION(
/* description */ ('STEP AP242 Edition 2',
'CAx-IF Rec.Pracs.---Representation and Presentation of Product Manufa
cturing Information (PMI)---4.0---2014-10-13',
'CAx-IF Rec.Pracs.---3D Tessellated Geometry---0.4---2014-09-14','2;1',
'CAx-IF Rec.Pracs.---User Defined Attributes---1.5---2016-08-15'),
/* implementation_level */ '2;1');

FILE_NAME(
/* name */ 'ARCADA001 - PCB-CHAZUO_92 (1)',
/* time_stamp */ '2026-07-17T02:50:55Z',
/* author */ (''),
/* organization */ (''),
/* preprocessor_version */ 'ST-DEVELOPER v20',
/* originating_system */ 'ONSHAPE BY PTC INC, 1.217',
/* authorisation */ '  ');

FILE_SCHEMA (('AP242_MANAGED_MODEL_BASED_3D_ENGINEERING_MIM_LF { 1 0 10303 442 3 1 4 }'));
ENDSEC;

DATA;
#10=SHAPE_REPRESENTATION_RELATIONSHIP('','',#427,#11);
#11=ADVANCED_BREP_SHAPE_REPRESENTATION('',(#425),#691);
#12=CIRCLE('',#431,0.0088);
#13=CIRCLE('',#432,0.0088);
#14=CIRCLE('',#434,0.0021);
#15=CIRCLE('',#435,0.0021);
#16=CIRCLE('',#436,0.0006);
#17=CIRCLE('',#437,0.0011);
#18=CIRCLE('',#438,0.002);
#19=CIRCLE('',#442,0.0021);
#20=CIRCLE('',#443,0.0021);
#21=CIRCLE('',#444,0.0011);
#22=CIRCLE('',#445,0.002);
#23=CIRCLE('',#446,0.0006);
#24=CYLINDRICAL_SURFACE('',#430,0.0088);
#25=CYLINDRICAL_SURFACE('',#447,0.0021);
#26=CYLINDRICAL_SURFACE('',#453,0.0021);
#27=CYLINDRICAL_SURFACE('',#455,0.0011);
#28=CYLINDRICAL_SURFACE('',#456,0.002);
#29=CYLINDRICAL_SURFACE('',#457,0.0006);
#30=ORIENTED_EDGE('',*,*,#138,.T.);
#31=ORIENTED_EDGE('',*,*,#139,.T.);
#32=ORIENTED_EDGE('',*,*,#140,.F.);
#33=ORIENTED_EDGE('',*,*,#141,.F.);
#34=ORIENTED_EDGE('',*,*,#142,.T.);
#35=ORIENTED_EDGE('',*,*,#138,.F.);
#36=ORIENTED_EDGE('',*,*,#143,.T.);
#37=ORIENTED_EDGE('',*,*,#144,.F.);
#38=ORIENTED_EDGE('',*,*,#145,.F.);
#39=ORIENTED_EDGE('',*,*,#146,.F.);
#40=ORIENTED_EDGE('',*,*,#147,.T.);
#41=ORIENTED_EDGE('',*,*,#148,.F.);
#42=ORIENTED_EDGE('',*,*,#139,.F.);
#43=ORIENTED_EDGE('',*,*,#142,.F.);
#44=ORIENTED_EDGE('',*,*,#149,.F.);
#45=ORIENTED_EDGE('',*,*,#150,.F.);
#46=ORIENTED_EDGE('',*,*,#151,.F.);
#47=ORIENTED_EDGE('',*,*,#152,.F.);
#48=ORIENTED_EDGE('',*,*,#153,.T.);
#49=ORIENTED_EDGE('',*,*,#154,.F.);
#50=ORIENTED_EDGE('',*,*,#155,.F.);
#51=ORIENTED_EDGE('',*,*,#156,.F.);
#52=ORIENTED_EDGE('',*,*,#157,.F.);
#53=ORIENTED_EDGE('',*,*,#158,.F.);
#54=ORIENTED_EDGE('',*,*,#159,.F.);
#55=ORIENTED_EDGE('',*,*,#160,.F.);
#56=ORIENTED_EDGE('',*,*,#161,.F.);
#57=ORIENTED_EDGE('',*,*,#162,.T.);
#58=ORIENTED_EDGE('',*,*,#163,.F.);
#59=ORIENTED_EDGE('',*,*,#164,.T.);
#60=ORIENTED_EDGE('',*,*,#145,.T.);
#61=ORIENTED_EDGE('',*,*,#162,.F.);
#62=ORIENTED_EDGE('',*,*,#154,.T.);
#63=ORIENTED_EDGE('',*,*,#165,.T.);
#64=ORIENTED_EDGE('',*,*,#166,.F.);
#65=ORIENTED_EDGE('',*,*,#163,.T.);
#66=ORIENTED_EDGE('',*,*,#166,.T.);
#67=ORIENTED_EDGE('',*,*,#167,.F.);
#68=ORIENTED_EDGE('',*,*,#168,.F.);
#69=ORIENTED_EDGE('',*,*,#169,.T.);
#70=ORIENTED_EDGE('',*,*,#170,.T.);
#71=ORIENTED_EDGE('',*,*,#171,.T.);
#72=ORIENTED_EDGE('',*,*,#143,.F.);
#73=ORIENTED_EDGE('',*,*,#141,.T.);
#74=ORIENTED_EDGE('',*,*,#172,.T.);
#75=ORIENTED_EDGE('',*,*,#173,.F.);
#76=ORIENTED_EDGE('',*,*,#174,.F.);
#77=ORIENTED_EDGE('',*,*,#175,.F.);
#78=ORIENTED_EDGE('',*,*,#176,.F.);
#79=ORIENTED_EDGE('',*,*,#177,.F.);
#80=ORIENTED_EDGE('',*,*,#164,.F.);
#81=ORIENTED_EDGE('',*,*,#174,.T.);
#82=ORIENTED_EDGE('',*,*,#178,.F.);
#83=ORIENTED_EDGE('',*,*,#146,.T.);
#84=ORIENTED_EDGE('',*,*,#147,.F.);
#85=ORIENTED_EDGE('',*,*,#178,.T.);
#86=ORIENTED_EDGE('',*,*,#173,.T.);
#87=ORIENTED_EDGE('',*,*,#179,.F.);
#88=ORIENTED_EDGE('',*,*,#179,.T.);
#89=ORIENTED_EDGE('',*,*,#172,.F.);
#90=ORIENTED_EDGE('',*,*,#140,.T.);
#91=ORIENTED_EDGE('',*,*,#148,.T.);
#92=ORIENTED_EDGE('',*,*,#144,.T.);
#93=ORIENTED_EDGE('',*,*,#171,.F.);
#94=ORIENTED_EDGE('',*,*,#180,.T.);
#95=ORIENTED_EDGE('',*,*,#149,.T.);
#96=ORIENTED_EDGE('',*,*,#181,.F.);
#97=ORIENTED_EDGE('',*,*,#150,.T.);
#98=ORIENTED_EDGE('',*,*,#180,.F.);
#99=ORIENTED_EDGE('',*,*,#170,.F.);
#100=ORIENTED_EDGE('',*,*,#181,.T.);
#101=ORIENTED_EDGE('',*,*,#169,.F.);
#102=ORIENTED_EDGE('',*,*,#182,.T.);
#103=ORIENTED_EDGE('',*,*,#151,.T.);
#104=ORIENTED_EDGE('',*,*,#183,.F.);
#105=ORIENTED_EDGE('',*,*,#152,.T.);
#106=ORIENTED_EDGE('',*,*,#182,.F.);
#107=ORIENTED_EDGE('',*,*,#168,.T.);
#108=ORIENTED_EDGE('',*,*,#153,.F.);
#109=ORIENTED_EDGE('',*,*,#183,.T.);
#110=ORIENTED_EDGE('',*,*,#167,.T.);
#111=ORIENTED_EDGE('',*,*,#165,.F.);
#112=ORIENTED_EDGE('',*,*,#175,.T.);
#113=ORIENTED_EDGE('',*,*,#156,.T.);
#114=ORIENTED_EDGE('',*,*,#176,.T.);
#115=ORIENTED_EDGE('',*,*,#157,.T.);
#116=ORIENTED_EDGE('',*,*,#177,.T.);
#117=ORIENTED_EDGE('',*,*,#155,.T.);
#118=ORIENTED_EDGE('',*,*,#184,.F.);
#119=ORIENTED_EDGE('',*,*,#185,.F.);
#120=ORIENTED_EDGE('',*,*,#158,.T.);
#121=ORIENTED_EDGE('',*,*,#186,.T.);
#122=ORIENTED_EDGE('',*,*,#184,.T.);
#123=ORIENTED_EDGE('',*,*,#187,.T.);
#124=ORIENTED_EDGE('',*,*,#188,.T.);
#125=ORIENTED_EDGE('',*,*,#189,.T.);
#126=ORIENTED_EDGE('',*,*,#189,.F.);
#127=ORIENTED_EDGE('',*,*,#190,.F.);
#128=ORIENTED_EDGE('',*,*,#159,.T.);
#129=ORIENTED_EDGE('',*,*,#185,.T.);
#130=ORIENTED_EDGE('',*,*,#188,.F.);
#131=ORIENTED_EDGE('',*,*,#191,.F.);
#132=ORIENTED_EDGE('',*,*,#160,.T.);
#133=ORIENTED_EDGE('',*,*,#190,.T.);
#134=ORIENTED_EDGE('',*,*,#187,.F.);
#135=ORIENTED_EDGE('',*,*,#186,.F.);
#136=ORIENTED_EDGE('',*,*,#161,.T.);
#137=ORIENTED_EDGE('',*,*,#191,.T.);
#138=EDGE_CURVE('',#192,#193,#230,.T.);
#139=EDGE_CURVE('',#193,#194,#231,.T.);
#140=EDGE_CURVE('',#195,#194,#232,.T.);
#141=EDGE_CURVE('',#192,#195,#233,.T.);
#142=EDGE_CURVE('',#196,#193,#12,.T.);
#143=EDGE_CURVE('',#192,#197,#13,.T.);
#144=EDGE_CURVE('',#196,#197,#234,.T.);
#145=EDGE_CURVE('',#198,#199,#235,.T.);
#146=EDGE_CURVE('',#200,#198,#14,.T.);
#147=EDGE_CURVE('',#200,#201,#236,.T.);
#148=EDGE_CURVE('',#194,#201,#237,.T.);
#149=EDGE_CURVE('',#202,#196,#238,.T.);
#150=EDGE_CURVE('',#203,#202,#239,.T.);
#151=EDGE_CURVE('',#204,#203,#240,.T.);
#152=EDGE_CURVE('',#205,#204,#15,.T.);
#153=EDGE_CURVE('',#205,#206,#241,.T.);
#154=EDGE_CURVE('',#199,#206,#242,.T.);
#155=EDGE_CURVE('',#207,#207,#16,.T.);
#156=EDGE_CURVE('',#208,#208,#17,.T.);
#157=EDGE_CURVE('',#209,#209,#18,.T.);
#158=EDGE_CURVE('',#210,#211,#243,.T.);
#159=EDGE_CURVE('',#212,#210,#244,.T.);
#160=EDGE_CURVE('',#213,#212,#245,.T.);
#161=EDGE_CURVE('',#211,#213,#246,.T.);
#162=EDGE_CURVE('',#199,#214,#247,.T.);
#163=EDGE_CURVE('',#215,#214,#248,.T.);
#164=EDGE_CURVE('',#215,#198,#249,.T.);
#165=EDGE_CURVE('',#206,#216,#250,.T.);
#166=EDGE_CURVE('',#214,#216,#251,.T.);
#167=EDGE_CURVE('',#217,#216,#252,.T.);
#168=EDGE_CURVE('',#218,#217,#19,.T.);
#169=EDGE_CURVE('',#218,#219,#253,.T.);
#170=EDGE_CURVE('',#219,#220,#254,.T.);
#171=EDGE_CURVE('',#220,#197,#255,.T.);
#172=EDGE_CURVE('',#195,#221,#256,.T.);
#173=EDGE_CURVE('',#222,#221,#257,.T.);
#174=EDGE_CURVE('',#215,#222,#20,.T.);
#175=EDGE_CURVE('',#223,#223,#21,.T.);
#176=EDGE_CURVE('',#224,#224,#22,.T.);
#177=EDGE_CURVE('',#225,#225,#23,.T.);
#178=EDGE_CURVE('',#200,#222,#258,.T.);
#179=EDGE_CURVE('',#201,#221,#259,.T.);
#180=EDGE_CURVE('',#220,#202,#260,.T.);
#181=EDGE_CURVE('',#203,#219,#261,.T.);
#182=EDGE_CURVE('',#218,#204,#262,.T.);
#183=EDGE_CURVE('',#205,#217,#263,.T.);
#184=EDGE_CURVE('',#226,#227,#264,.T.);
#185=EDGE_CURVE('',#210,#226,#265,.T.);
#186=EDGE_CURVE('',#211,#227,#266,.T.);
#187=EDGE_CURVE('',#227,#228,#267,.T.);
#188=EDGE_CURVE('',#228,#229,#268,.T.);
#189=EDGE_CURVE('',#229,#226,#269,.T.);
#190=EDGE_CURVE('',#212,#229,#270,.T.);
#191=EDGE_CURVE('',#213,#228,#271,.T.);
#192=VERTEX_POINT('',#578);
#193=VERTEX_POINT('',#579);
#194=VERTEX_POINT('',#581);
#195=VERTEX_POINT('',#583);
#196=VERTEX_POINT('',#587);
#197=VERTEX_POINT('',#589);
#198=VERTEX_POINT('',#593);
#199=VERTEX_POINT('',#594);
#200=VERTEX_POINT('',#596);
#201=VERTEX_POINT('',#598);
#202=VERTEX_POINT('',#601);
#203=VERTEX_POINT('',#603);
#204=VERTEX_POINT('',#605);
#205=VERTEX_POINT('',#607);
#206=VERTEX_POINT('',#609);
#207=VERTEX_POINT('',#612);
#208=VERTEX_POINT('',#614);
#209=VERTEX_POINT('',#616);
#210=VERTEX_POINT('',#618);
#211=VERTEX_POINT('',#619);
#212=VERTEX_POINT('',#621);
#213=VERTEX_POINT('',#623);
#214=VERTEX_POINT('',#627);
#215=VERTEX_POINT('',#629);
#216=VERTEX_POINT('',#633);
#217=VERTEX_POINT('',#637);
#218=VERTEX_POINT('',#639);
#219=VERTEX_POINT('',#641);
#220=VERTEX_POINT('',#643);
#221=VERTEX_POINT('',#646);
#222=VERTEX_POINT('',#648);
#223=VERTEX_POINT('',#651);
#224=VERTEX_POINT('',#653);
#225=VERTEX_POINT('',#655);
#226=VERTEX_POINT('',#675);
#227=VERTEX_POINT('',#676);
#228=VERTEX_POINT('',#681);
#229=VERTEX_POINT('',#683);
#230=LINE('',#577,#272);
#231=LINE('',#580,#273);
#232=LINE('',#582,#274);
#233=LINE('',#584,#275);
#234=LINE('',#590,#276);
#235=LINE('',#592,#277);
#236=LINE('',#597,#278);
#237=LINE('',#599,#279);
#238=LINE('',#600,#280);
#239=LINE('',#602,#281);
#240=LINE('',#604,#282);
#241=LINE('',#608,#283);
#242=LINE('',#610,#284);
#243=LINE('',#617,#285);
#244=LINE('',#620,#286);
#245=LINE('',#622,#287);
#246=LINE('',#624,#288);
#247=LINE('',#626,#289);
#248=LINE('',#628,#290);
#249=LINE('',#630,#291);
#250=LINE('',#632,#292);
#251=LINE('',#634,#293);
#252=LINE('',#636,#294);
#253=LINE('',#640,#295);
#254=LINE('',#642,#296);
#255=LINE('',#644,#297);
#256=LINE('',#645,#298);
#257=LINE('',#647,#299);
#258=LINE('',#657,#300);
#259=LINE('',#659,#301);
#260=LINE('',#662,#302);
#261=LINE('',#664,#303);
#262=LINE('',#666,#304);
#263=LINE('',#668,#305);
#264=LINE('',#674,#306);
#265=LINE('',#677,#307);
#266=LINE('',#678,#308);
#267=LINE('',#680,#309);
#268=LINE('',#682,#310);
#269=LINE('',#684,#311);
#270=LINE('',#686,#312);
#271=LINE('',#688,#313);
#272=VECTOR('',#467,1.);
#273=VECTOR('',#468,1.);
#274=VECTOR('',#469,1.);
#275=VECTOR('',#470,1.);
#276=VECTOR('',#477,1.);
#277=VECTOR('',#480,1.);
#278=VECTOR('',#483,1.);
#279=VECTOR('',#484,1.);
#280=VECTOR('',#485,1.);
#281=VECTOR('',#486,1.);
#282=VECTOR('',#487,1.);
#283=VECTOR('',#490,1.);
#284=VECTOR('',#491,1.);
#285=VECTOR('',#498,1.);
#286=VECTOR('',#499,1.);
#287=VECTOR('',#500,1.);
#288=VECTOR('',#501,1.);
#289=VECTOR('',#504,1.);
#290=VECTOR('',#505,1.);
#291=VECTOR('',#506,1.);
#292=VECTOR('',#509,1.);
#293=VECTOR('',#510,1.);
#294=VECTOR('',#513,1.);
#295=VECTOR('',#516,1.);
#296=VECTOR('',#517,1.);
#297=VECTOR('',#518,1.);
#298=VECTOR('',#519,1.);
#299=VECTOR('',#520,1.);
#300=VECTOR('',#531,1.);
#301=VECTOR('',#534,1.);
#302=VECTOR('',#539,1.);
#303=VECTOR('',#542,1.);
#304=VECTOR('',#545,1.);
#305=VECTOR('',#548,1.);
#306=VECTOR('',#559,1.);
#307=VECTOR('',#560,1.);
#308=VECTOR('',#561,1.);
#309=VECTOR('',#564,1.);
#310=VECTOR('',#565,1.);
#311=VECTOR('',#566,1.);
#312=VECTOR('',#569,1.);
#313=VECTOR('',#572,1.);
#314=EDGE_LOOP('',(#30,#31,#32,#33));
#315=EDGE_LOOP('',(#34,#35,#36,#37));
#316=EDGE_LOOP('',(#38,#39,#40,#41,#42,#43,#44,#45,#46,#47,#48,#49));
#317=EDGE_LOOP('',(#50));
#318=EDGE_LOOP('',(#51));
#319=EDGE_LOOP('',(#52));
#320=EDGE_LOOP('',(#53,#54,#55,#56));
#321=EDGE_LOOP('',(#57,#58,#59,#60));
#322=EDGE_LOOP('',(#61,#62,#63,#64));
#323=EDGE_LOOP('',(#65,#66,#67,#68,#69,#70,#71,#72,#73,#74,#75,#76));
#324=EDGE_LOOP('',(#77));
#325=EDGE_LOOP('',(#78));
#326=EDGE_LOOP('',(#79));
#327=EDGE_LOOP('',(#80,#81,#82,#83));
#328=EDGE_LOOP('',(#84,#85,#86,#87));
#329=EDGE_LOOP('',(#88,#89,#90,#91));
#330=EDGE_LOOP('',(#92,#93,#94,#95));
#331=EDGE_LOOP('',(#96,#97,#98,#99));
#332=EDGE_LOOP('',(#100,#101,#102,#103));
#333=EDGE_LOOP('',(#104,#105,#106,#107));
#334=EDGE_LOOP('',(#108,#109,#110,#111));
#335=EDGE_LOOP('',(#112));
#336=EDGE_LOOP('',(#113));
#337=EDGE_LOOP('',(#114));
#338=EDGE_LOOP('',(#115));
#339=EDGE_LOOP('',(#116));
#340=EDGE_LOOP('',(#117));
#341=EDGE_LOOP('',(#118,#119,#120,#121));
#342=EDGE_LOOP('',(#122,#123,#124,#125));
#343=EDGE_LOOP('',(#126,#127,#128,#129));
#344=EDGE_LOOP('',(#130,#131,#132,#133));
#345=EDGE_LOOP('',(#134,#135,#136,#137));
#346=FACE_BOUND('',#314,.T.);
#347=FACE_BOUND('',#315,.T.);
#348=FACE_BOUND('',#316,.T.);
#349=FACE_BOUND('',#317,.T.);
#350=FACE_BOUND('',#318,.T.);
#351=FACE_BOUND('',#319,.T.);
#352=FACE_BOUND('',#320,.T.);
#353=FACE_BOUND('',#321,.T.);
#354=FACE_BOUND('',#322,.T.);
#355=FACE_BOUND('',#323,.T.);
#356=FACE_BOUND('',#324,.T.);
#357=FACE_BOUND('',#325,.T.);
#358=FACE_BOUND('',#326,.T.);
#359=FACE_BOUND('',#327,.T.);
#360=FACE_BOUND('',#328,.T.);
#361=FACE_BOUND('',#329,.T.);
#362=FACE_BOUND('',#330,.T.);
#363=FACE_BOUND('',#331,.T.);
#364=FACE_BOUND('',#332,.T.);
#365=FACE_BOUND('',#333,.T.);
#366=FACE_BOUND('',#334,.T.);
#367=FACE_BOUND('',#335,.T.);
#368=FACE_BOUND('',#336,.T.);
#369=FACE_BOUND('',#337,.T.);
#370=FACE_BOUND('',#338,.T.);
#371=FACE_BOUND('',#339,.T.);
#372=FACE_BOUND('',#340,.T.);
#373=FACE_BOUND('',#341,.T.);
#374=FACE_BOUND('',#342,.T.);
#375=FACE_BOUND('',#343,.T.);
#376=FACE_BOUND('',#344,.T.);
#377=FACE_BOUND('',#345,.T.);
#378=PLANE('',#429);
#379=PLANE('',#433);
#380=PLANE('',#439);
#381=PLANE('',#440);
#382=PLANE('',#441);
#383=PLANE('',#448);
#384=PLANE('',#449);
#385=PLANE('',#450);
#386=PLANE('',#451);
#387=PLANE('',#452);
#388=PLANE('',#454);
#389=PLANE('',#458);
#390=PLANE('',#459);
#391=PLANE('',#460);
#392=PLANE('',#461);
#393=PLANE('',#462);
#394=ADVANCED_FACE('',(#346),#378,.T.);
#395=ADVANCED_FACE('',(#347),#24,.F.);
#396=ADVANCED_FACE('',(#348,#349,#350,#351,#352),#379,.T.);
#397=ADVANCED_FACE('',(#353),#380,.F.);
#398=ADVANCED_FACE('',(#354),#381,.T.);
#399=ADVANCED_FACE('',(#355,#356,#357,#358),#382,.F.);
#400=ADVANCED_FACE('',(#359),#25,.F.);
#401=ADVANCED_FACE('',(#360),#383,.F.);
#402=ADVANCED_FACE('',(#361),#384,.T.);
#403=ADVANCED_FACE('',(#362),#385,.T.);
#404=ADVANCED_FACE('',(#363),#386,.T.);
#405=ADVANCED_FACE('',(#364),#387,.F.);
#406=ADVANCED_FACE('',(#365),#26,.F.);
#407=ADVANCED_FACE('',(#366),#388,.F.);
#408=ADVANCED_FACE('',(#367,#368),#27,.F.);
#409=ADVANCED_FACE('',(#369,#370),#28,.F.);
#410=ADVANCED_FACE('',(#371,#372),#29,.F.);
#411=ADVANCED_FACE('',(#373),#389,.F.);
#412=ADVANCED_FACE('',(#374),#390,.T.);
#413=ADVANCED_FACE('',(#375),#391,.F.);
#414=ADVANCED_FACE('',(#376),#392,.F.);
#415=ADVANCED_FACE('',(#377),#393,.F.);
#416=CLOSED_SHELL('',(#394,#395,#396,#397,#398,#399,#400,#401,#402,#403,
#404,#405,#406,#407,#408,#409,#410,#411,#412,#413,#414,#415));
#417=STYLED_ITEM('',(#418),#425);
#418=PRESENTATION_STYLE_ASSIGNMENT((#419));
#419=SURFACE_STYLE_USAGE(.BOTH.,#420);
#420=SURFACE_SIDE_STYLE('',(#421));
#421=SURFACE_STYLE_FILL_AREA(#422);
#422=FILL_AREA_STYLE('',(#423));
#423=FILL_AREA_STYLE_COLOUR('',#424);
#424=COLOUR_RGB('',0.0980392156862745,0.0980392156862745,0.0980392156862745);
#425=MANIFOLD_SOLID_BREP('PCB-CHAZUO_92',#416);
#426=SHAPE_DEFINITION_REPRESENTATION(#696,#427);
#427=SHAPE_REPRESENTATION('PCB-CHAZUO_92',(#428),#691);
#428=AXIS2_PLACEMENT_3D('',#575,#463,#464);
#429=AXIS2_PLACEMENT_3D('',#576,#465,#466);
#430=AXIS2_PLACEMENT_3D('',#585,#471,#472);
#431=AXIS2_PLACEMENT_3D('',#586,#473,#474);
#432=AXIS2_PLACEMENT_3D('',#588,#475,#476);
#433=AXIS2_PLACEMENT_3D('',#591,#478,#479);
#434=AXIS2_PLACEMENT_3D('',#595,#481,#482);
#435=AXIS2_PLACEMENT_3D('',#606,#488,#489);
#436=AXIS2_PLACEMENT_3D('',#611,#492,#493);
#437=AXIS2_PLACEMENT_3D('',#613,#494,#495);
#438=AXIS2_PLACEMENT_3D('',#615,#496,#497);
#439=AXIS2_PLACEMENT_3D('',#625,#502,#503);
#440=AXIS2_PLACEMENT_3D('',#631,#507,#508);
#441=AXIS2_PLACEMENT_3D('',#635,#511,#512);
#442=AXIS2_PLACEMENT_3D('',#638,#514,#515);
#443=AXIS2_PLACEMENT_3D('',#649,#521,#522);
#444=AXIS2_PLACEMENT_3D('',#650,#523,#524);
#445=AXIS2_PLACEMENT_3D('',#652,#525,#526);
#446=AXIS2_PLACEMENT_3D('',#654,#527,#528);
#447=AXIS2_PLACEMENT_3D('',#656,#529,#530);
#448=AXIS2_PLACEMENT_3D('',#658,#532,#533);
#449=AXIS2_PLACEMENT_3D('',#660,#535,#536);
#450=AXIS2_PLACEMENT_3D('',#661,#537,#538);
#451=AXIS2_PLACEMENT_3D('',#663,#540,#541);
#452=AXIS2_PLACEMENT_3D('',#665,#543,#544);
#453=AXIS2_PLACEMENT_3D('',#667,#546,#547);
#454=AXIS2_PLACEMENT_3D('',#669,#549,#550);
#455=AXIS2_PLACEMENT_3D('',#670,#551,#552);
#456=AXIS2_PLACEMENT_3D('',#671,#553,#554);
#457=AXIS2_PLACEMENT_3D('',#672,#555,#556);
#458=AXIS2_PLACEMENT_3D('',#673,#557,#558);
#459=AXIS2_PLACEMENT_3D('',#679,#562,#563);
#460=AXIS2_PLACEMENT_3D('',#685,#567,#568);
#461=AXIS2_PLACEMENT_3D('',#687,#570,#571);
#462=AXIS2_PLACEMENT_3D('',#689,#573,#574);
#463=DIRECTION('',(0.,0.,1.));
#464=DIRECTION('',(1.,0.,0.));
#465=DIRECTION('',(1.,0.,0.));
#466=DIRECTION('',(0.,0.,-1.));
#467=DIRECTION('',(0.,1.,0.));
#468=DIRECTION('',(-2.545723490961E-14,0.,1.));
#469=DIRECTION('',(0.,1.,0.));
#470=DIRECTION('',(-2.545723490961E-14,0.,1.));
#471=DIRECTION('',(0.,1.,0.));
#472=DIRECTION('',(-1.,0.,0.));
#473=DIRECTION('',(0.,1.,0.));
#474=DIRECTION('',(-1.,0.,0.));
#475=DIRECTION('',(0.,-1.,0.));
#476=DIRECTION('',(-0.56818181818182,0.,0.822903045010529));
#477=DIRECTION('',(0.,-1.,0.));
#478=DIRECTION('',(0.,1.,0.));
#479=DIRECTION('',(-1.,0.,0.));
#480=DIRECTION('',(-1.,0.,0.));
#481=DIRECTION('',(0.,1.,0.));
#482=DIRECTION('',(1.,0.,0.));
#483=DIRECTION('',(0.,0.,1.));
#484=DIRECTION('',(-1.,0.,0.));
#485=DIRECTION('',(1.149568163108E-14,0.,1.));
#486=DIRECTION('',(1.,0.,0.));
#487=DIRECTION('',(0.,0.,-1.));
#488=DIRECTION('',(0.,1.,0.));
#489=DIRECTION('',(0.,0.,1.));
#490=DIRECTION('',(-1.,0.,0.));
#491=DIRECTION('',(0.,0.,-1.));
#492=DIRECTION('',(0.,1.,0.));
#493=DIRECTION('',(-1.,0.,0.));
#494=DIRECTION('',(0.,1.,0.));
#495=DIRECTION('',(-1.,0.,0.));
#496=DIRECTION('',(0.,1.,0.));
#497=DIRECTION('',(-1.,0.,0.));
#498=DIRECTION('',(1.,0.,0.));
#499=DIRECTION('',(0.,0.,1.));
#500=DIRECTION('',(-1.,0.,0.));
#501=DIRECTION('',(0.,0.,-1.));
#502=DIRECTION('',(0.,0.,-1.));
#503=DIRECTION('',(1.,0.,0.));
#504=DIRECTION('',(0.,-1.,0.));
#505=DIRECTION('',(-1.,0.,0.));
#506=DIRECTION('',(0.,1.,0.));
#507=DIRECTION('',(-1.,0.,0.));
#508=DIRECTION('',(0.,0.,1.));
#509=DIRECTION('',(0.,-1.,0.));
#510=DIRECTION('',(0.,0.,-1.));
#511=DIRECTION('',(0.,1.,0.));
#512=DIRECTION('',(-1.,0.,0.));
#513=DIRECTION('',(-1.,0.,0.));
#514=DIRECTION('',(0.,-1.,0.));
#515=DIRECTION('',(1.,0.,0.));
#516=DIRECTION('',(0.,0.,-1.));
#517=DIRECTION('',(1.,0.,0.));
#518=DIRECTION('',(1.149568163108E-14,0.,1.));
#519=DIRECTION('',(-1.,0.,0.));
#520=DIRECTION('',(0.,0.,1.));
#521=DIRECTION('',(0.,-1.,0.));
#522=DIRECTION('',(0.,0.,-1.));
#523=DIRECTION('',(0.,-1.,0.));
#524=DIRECTION('',(1.,0.,0.));
#525=DIRECTION('',(0.,-1.,0.));
#526=DIRECTION('',(1.,0.,0.));
#527=DIRECTION('',(0.,-1.,0.));
#528=DIRECTION('',(1.,0.,0.));
#529=DIRECTION('',(0.,-1.,0.));
#530=DIRECTION('',(1.,0.,0.));
#531=DIRECTION('',(0.,-1.,0.));
#532=DIRECTION('',(1.,0.,0.));
#533=DIRECTION('',(0.,0.,1.));
#534=DIRECTION('',(0.,-1.,0.));
#535=DIRECTION('',(0.,0.,1.));
#536=DIRECTION('',(1.,0.,0.));
#537=DIRECTION('',(1.,0.,0.));
#538=DIRECTION('',(0.,0.,-1.));
#539=DIRECTION('',(0.,1.,0.));
#540=DIRECTION('',(0.,0.,-1.));
#541=DIRECTION('',(-1.,0.,0.));
#542=DIRECTION('',(0.,-1.,0.));
#543=DIRECTION('',(1.,0.,0.));
#544=DIRECTION('',(0.,0.,1.));
#545=DIRECTION('',(0.,1.,0.));
#546=DIRECTION('',(0.,-1.,0.));
#547=DIRECTION('',(1.,0.,0.));
#548=DIRECTION('',(0.,-1.,0.));
#549=DIRECTION('',(0.,0.,1.));
#550=DIRECTION('',(-1.,0.,0.));
#551=DIRECTION('',(0.,1.,0.));
#552=DIRECTION('',(-1.,0.,0.));
#553=DIRECTION('',(0.,1.,0.));
#554=DIRECTION('',(-1.,0.,0.));
#555=DIRECTION('',(0.,1.,0.));
#556=DIRECTION('',(-1.,0.,0.));
#557=DIRECTION('',(0.,0.,-1.));
#558=DIRECTION('',(-1.,0.,0.));
#559=DIRECTION('',(1.,0.,0.));
#560=DIRECTION('',(0.,1.,0.));
#561=DIRECTION('',(0.,1.,0.));
#562=DIRECTION('',(0.,1.,0.));
#563=DIRECTION('',(-1.,0.,0.));
#564=DIRECTION('',(0.,0.,-1.));
#565=DIRECTION('',(-1.,0.,0.));
#566=DIRECTION('',(0.,0.,1.));
#567=DIRECTION('',(1.,0.,0.));
#568=DIRECTION('',(0.,0.,-1.));
#569=DIRECTION('',(0.,1.,0.));
#570=DIRECTION('',(0.,0.,1.));
#571=DIRECTION('',(1.,0.,0.));
#572=DIRECTION('',(0.,1.,0.));
#573=DIRECTION('',(-1.,0.,0.));
#574=DIRECTION('',(0.,0.,1.));
#575=CARTESIAN_POINT('',(0.,0.,0.));
#576=CARTESIAN_POINT('',(-0.005,0.0205,0.01));
#577=CARTESIAN_POINT('',(-0.005,0.0133,0.008491546796093));
#578=CARTESIAN_POINT('',(-0.005,0.0133,0.008491546796093));
#579=CARTESIAN_POINT('',(-0.005,0.0145,0.008491546796093));
#580=CARTESIAN_POINT('',(-0.005,0.0145,0.008491546796093));
#581=CARTESIAN_POINT('',(-0.005,0.0145,0.01055));
#582=CARTESIAN_POINT('',(-0.005,0.0133,0.01055));
#583=CARTESIAN_POINT('',(-0.005,0.0133,0.01055));
#584=CARTESIAN_POINT('',(-0.005,0.0133,0.008491546796093));
#585=CARTESIAN_POINT('',(0.,0.0147,0.00125));
#586=CARTESIAN_POINT('',(0.,0.0145,0.00125));
#587=CARTESIAN_POINT('',(-0.005,0.0145,-0.005991546796093));
#588=CARTESIAN_POINT('',(0.,0.0133,0.00125));
#589=CARTESIAN_POINT('',(-0.005,0.0133,-0.005991546796093));
#590=CARTESIAN_POINT('',(-0.005,0.0145,-0.005991546796093));
#591=CARTESIAN_POINT('',(0.,0.0145,0.));
#592=CARTESIAN_POINT('',(-0.0326,0.0145,0.00725));
#593=CARTESIAN_POINT('',(-0.0326,0.0145,0.00725));
#594=CARTESIAN_POINT('',(-0.0338,0.0145,0.00725));
#595=CARTESIAN_POINT('',(-0.0326,0.0145,0.00935));
#596=CARTESIAN_POINT('',(-0.0305,0.0145,0.00935));
#597=CARTESIAN_POINT('',(-0.0305,0.0145,0.00935));
#598=CARTESIAN_POINT('',(-0.0305,0.0145,0.01055));
#599=CARTESIAN_POINT('',(-0.005,0.0145,0.01055));
#600=CARTESIAN_POINT('',(-0.005,0.0145,-0.01055));
#601=CARTESIAN_POINT('',(-0.005,0.0145,-0.01055));
#602=CARTESIAN_POINT('',(-0.0305,0.0145,-0.01055));
#603=CARTESIAN_POINT('',(-0.0305,0.0145,-0.01055));
#604=CARTESIAN_POINT('',(-0.0305,0.0145,0.00935));
#605=CARTESIAN_POINT('',(-0.0305,0.0145,-0.00935));
#606=CARTESIAN_POINT('',(-0.0326,0.0145,-0.00935));
#607=CARTESIAN_POINT('',(-0.0326,0.0145,-0.00725));
#608=CARTESIAN_POINT('',(-0.0326,0.0145,-0.00725));
#609=CARTESIAN_POINT('',(-0.0338,0.0145,-0.00725));
#610=CARTESIAN_POINT('',(-0.0338,0.0145,0.00725));
#611=CARTESIAN_POINT('',(-0.0069,0.0145,-0.0066));
#612=CARTESIAN_POINT('',(-0.0075,0.0145,-0.0066));
#613=CARTESIAN_POINT('',(-0.032,0.0145,0.0055));
#614=CARTESIAN_POINT('',(-0.0331,0.0145,0.0055));
#615=CARTESIAN_POINT('',(-0.0255,0.0145,0.));
#616=CARTESIAN_POINT('',(-0.0275,0.0145,0.));
#617=CARTESIAN_POINT('',(-0.01405,0.0145,0.01));
#618=CARTESIAN_POINT('',(-0.01405,0.0145,0.01));
#619=CARTESIAN_POINT('',(-0.00905,0.0145,0.01));
#620=CARTESIAN_POINT('',(-0.01405,0.0145,-0.01));
#621=CARTESIAN_POINT('',(-0.01405,0.0145,-0.01));
#622=CARTESIAN_POINT('',(-0.00905,0.0145,-0.01));
#623=CARTESIAN_POINT('',(-0.00905,0.0145,-0.01));
#624=CARTESIAN_POINT('',(-0.00905,0.0145,0.01));
#625=CARTESIAN_POINT('',(-0.03739248662508,0.0133,0.00725));
#626=CARTESIAN_POINT('',(-0.0338,0.0145,0.00725));
#627=CARTESIAN_POINT('',(-0.0338,0.0133,0.00725));
#628=CARTESIAN_POINT('',(-0.0326,0.0133,0.00725));
#629=CARTESIAN_POINT('',(-0.0326,0.0133,0.00725));
#630=CARTESIAN_POINT('',(-0.0326,0.0133,0.00725));
#631=CARTESIAN_POINT('',(-0.0338,0.0205,-0.01));
#632=CARTESIAN_POINT('',(-0.0338,0.0145,-0.00725));
#633=CARTESIAN_POINT('',(-0.0338,0.0133,-0.00725));
#634=CARTESIAN_POINT('',(-0.0338,0.0133,0.00725));
#635=CARTESIAN_POINT('',(0.,0.0133,0.));
#636=CARTESIAN_POINT('',(-0.0326,0.0133,-0.00725));
#637=CARTESIAN_POINT('',(-0.0326,0.0133,-0.00725));
#638=CARTESIAN_POINT('',(-0.0326,0.0133,-0.00935));
#639=CARTESIAN_POINT('',(-0.0305,0.0133,-0.00935));
#640=CARTESIAN_POINT('',(-0.0305,0.0133,0.));
#641=CARTESIAN_POINT('',(-0.0305,0.0133,-0.01055));
#642=CARTESIAN_POINT('',(-0.0305,0.0133,-0.01055));
#643=CARTESIAN_POINT('',(-0.005,0.0133,-0.01055));
#644=CARTESIAN_POINT('',(-0.005,0.0133,-0.01055));
#645=CARTESIAN_POINT('',(-0.005,0.0133,0.01055));
#646=CARTESIAN_POINT('',(-0.0305,0.0133,0.01055));
#647=CARTESIAN_POINT('',(-0.0305,0.0133,0.00935));
#648=CARTESIAN_POINT('',(-0.0305,0.0133,0.00935));
#649=CARTESIAN_POINT('',(-0.0326,0.0133,0.00935));
#650=CARTESIAN_POINT('',(-0.032,0.0133,0.0055));
#651=CARTESIAN_POINT('',(-0.0309,0.0133,0.0055));
#652=CARTESIAN_POINT('',(-0.0255,0.0133,0.));
#653=CARTESIAN_POINT('',(-0.0235,0.0133,0.));
#654=CARTESIAN_POINT('',(-0.0069,0.0133,-0.0066));
#655=CARTESIAN_POINT('',(-0.0063,0.0133,-0.0066));
#656=CARTESIAN_POINT('',(-0.0326,0.0151,0.00935));
#657=CARTESIAN_POINT('',(-0.0305,0.0145,0.00935));
#658=CARTESIAN_POINT('',(-0.0305,0.0133,0.00935));
#659=CARTESIAN_POINT('',(-0.0305,0.0145,0.01055));
#660=CARTESIAN_POINT('',(-0.034,0.0205,0.01055));
#661=CARTESIAN_POINT('',(-0.005,0.0205,0.01));
#662=CARTESIAN_POINT('',(-0.005,0.0133,-0.01055));
#663=CARTESIAN_POINT('',(-0.005,0.0205,-0.01055));
#664=CARTESIAN_POINT('',(-0.0305,0.0133,-0.01055));
#665=CARTESIAN_POINT('',(-0.0305,0.0133,0.00935));
#666=CARTESIAN_POINT('',(-0.0305,0.0151,-0.00935));
#667=CARTESIAN_POINT('',(-0.0326,0.0151,-0.00935));
#668=CARTESIAN_POINT('',(-0.0326,0.0145,-0.00725));
#669=CARTESIAN_POINT('',(-0.0326,0.0133,-0.00725));
#670=CARTESIAN_POINT('',(-0.032,0.019,0.0055));
#671=CARTESIAN_POINT('',(-0.0255,0.019,0.));
#672=CARTESIAN_POINT('',(-0.0069,0.019,-0.0066));
#673=CARTESIAN_POINT('',(-0.0093,0.0205,0.01));
#674=CARTESIAN_POINT('',(-0.01405,0.0205,0.01));
#675=CARTESIAN_POINT('',(-0.01405,0.0205,0.01));
#676=CARTESIAN_POINT('',(-0.00905,0.0205,0.01));
#677=CARTESIAN_POINT('',(-0.01405,0.0145,0.01));
#678=CARTESIAN_POINT('',(-0.00905,0.0145,0.01));
#679=CARTESIAN_POINT('',(0.,0.0205,0.));
#680=CARTESIAN_POINT('',(-0.00905,0.0205,0.01));
#681=CARTESIAN_POINT('',(-0.00905,0.0205,-0.01));
#682=CARTESIAN_POINT('',(-0.00905,0.0205,-0.01));
#683=CARTESIAN_POINT('',(-0.01405,0.0205,-0.01));
#684=CARTESIAN_POINT('',(-0.01405,0.0205,-0.01));
#685=CARTESIAN_POINT('',(-0.01405,0.0205,0.008));
#686=CARTESIAN_POINT('',(-0.01405,0.0145,-0.01));
#687=CARTESIAN_POINT('',(-0.0138,0.0205,-0.01));
#688=CARTESIAN_POINT('',(-0.00905,0.0145,-0.01));
#689=CARTESIAN_POINT('',(-0.00905,0.0205,-0.008));
#690=MECHANICAL_DESIGN_GEOMETRIC_PRESENTATION_REPRESENTATION('',(#417),
#691);
#691=(
GEOMETRIC_REPRESENTATION_CONTEXT(3)
GLOBAL_UNCERTAINTY_ASSIGNED_CONTEXT((#692))
GLOBAL_UNIT_ASSIGNED_CONTEXT((#695,#694,#693))
REPRESENTATION_CONTEXT('PCB-CHAZUO_92','TOP_LEVEL_ASSEMBLY_PART')
);
#692=UNCERTAINTY_MEASURE_WITH_UNIT(LENGTH_MEASURE(1.E-6),#695,
'DISTANCE_ACCURACY_VALUE','Maximum Tolerance applied to model');
#693=(
NAMED_UNIT(*)
SI_UNIT($,.STERADIAN.)
SOLID_ANGLE_UNIT()
);
#694=(
NAMED_UNIT(*)
PLANE_ANGLE_UNIT()
SI_UNIT($,.RADIAN.)
);
#695=(
LENGTH_UNIT()
NAMED_UNIT(*)
SI_UNIT($,.METRE.)
);
#696=PRODUCT_DEFINITION_SHAPE('','',#697);
#697=PRODUCT_DEFINITION('','',#699,#698);
#698=PRODUCT_DEFINITION_CONTEXT('',#705,'design');
#699=PRODUCT_DEFINITION_FORMATION_WITH_SPECIFIED_SOURCE('','',#701,
 .NOT_KNOWN.);
#700=PRODUCT_RELATED_PRODUCT_CATEGORY('','',(#701));
#701=PRODUCT('PCB-CHAZUO_92','PCB-CHAZUO_92','PCB-CHAZUO_92',(#703));
#702=PRODUCT_CATEGORY('','');
#703=PRODUCT_CONTEXT('',#705,'mechanical');
#704=APPLICATION_PROTOCOL_DEFINITION('international standard',
'ap242_managed_model_based_3d_engineering',2020,#705);
#705=APPLICATION_CONTEXT('managed model based 3d engineering');
ENDSEC;
END-ISO-10303-21;
