ISO-10303-21;
HEADER;
/* Generated by software containing ST-Developer
 * from STEP Tools, Inc. (www.steptools.com) 
 */
/* OPTION: using custom renumber hook */

FILE_DESCRIPTION(
/* description */ ('STEP AP242 Edition 2',
'CAx-IF Rec.Pracs.---Representation and Presentation of Product Manufa
cturing Information (PMI)---4.0---2014-10-13',
'CAx-IF Rec.Pracs.---3D Tessellated Geometry---0.4---2014-09-14','2;1',
'CAx-IF Rec.Pracs.---User Defined Attributes---1.5---2016-08-15'),
/* implementation_level */ '2;1');

FILE_NAME(
/* name */ 'ARCADA001 - Part 1 (3)',
/* time_stamp */ '2026-07-17T02:50:55Z',
/* author */ (''),
/* organization */ (''),
/* preprocessor_version */ 'ST-DEVELOPER v20',
/* originating_system */ 'ONSHAPE BY PTC INC, 1.217',
/* authorisation */ '  ');

FILE_SCHEMA (('AP242_MANAGED_MODEL_BASED_3D_ENGINEERING_MIM_LF { 1 0 10303 442 3 1 4 }'));
ENDSEC;

DATA;
#10=SHAPE_REPRESENTATION_RELATIONSHIP('','',#1069,#11);
#11=ADVANCED_BREP_SHAPE_REPRESENTATION('',(#1067),#1677);
#12=ORIENTED_EDGE('',*,*,#308,.F.);
#13=ORIENTED_EDGE('',*,*,#309,.F.);
#14=ORIENTED_EDGE('',*,*,#310,.F.);
#15=ORIENTED_EDGE('',*,*,#311,.F.);
#16=ORIENTED_EDGE('',*,*,#312,.T.);
#17=ORIENTED_EDGE('',*,*,#313,.T.);
#18=ORIENTED_EDGE('',*,*,#314,.T.);
#19=ORIENTED_EDGE('',*,*,#315,.T.);
#20=ORIENTED_EDGE('',*,*,#316,.F.);
#21=ORIENTED_EDGE('',*,*,#317,.F.);
#22=ORIENTED_EDGE('',*,*,#318,.F.);
#23=ORIENTED_EDGE('',*,*,#319,.T.);
#24=ORIENTED_EDGE('',*,*,#320,.T.);
#25=ORIENTED_EDGE('',*,*,#321,.F.);
#26=ORIENTED_EDGE('',*,*,#322,.F.);
#27=ORIENTED_EDGE('',*,*,#323,.T.);
#28=ORIENTED_EDGE('',*,*,#324,.T.);
#29=ORIENTED_EDGE('',*,*,#325,.F.);
#30=ORIENTED_EDGE('',*,*,#326,.F.);
#31=ORIENTED_EDGE('',*,*,#327,.T.);
#32=ORIENTED_EDGE('',*,*,#328,.T.);
#33=ORIENTED_EDGE('',*,*,#329,.F.);
#34=ORIENTED_EDGE('',*,*,#330,.F.);
#35=ORIENTED_EDGE('',*,*,#331,.T.);
#36=ORIENTED_EDGE('',*,*,#332,.T.);
#37=ORIENTED_EDGE('',*,*,#333,.F.);
#38=ORIENTED_EDGE('',*,*,#334,.F.);
#39=ORIENTED_EDGE('',*,*,#335,.F.);
#40=ORIENTED_EDGE('',*,*,#332,.F.);
#41=ORIENTED_EDGE('',*,*,#336,.T.);
#42=ORIENTED_EDGE('',*,*,#337,.F.);
#43=ORIENTED_EDGE('',*,*,#338,.F.);
#44=ORIENTED_EDGE('',*,*,#320,.F.);
#45=ORIENTED_EDGE('',*,*,#339,.T.);
#46=ORIENTED_EDGE('',*,*,#340,.F.);
#47=ORIENTED_EDGE('',*,*,#341,.F.);
#48=ORIENTED_EDGE('',*,*,#313,.F.);
#49=ORIENTED_EDGE('',*,*,#342,.T.);
#50=ORIENTED_EDGE('',*,*,#343,.T.);
#51=ORIENTED_EDGE('',*,*,#344,.T.);
#52=ORIENTED_EDGE('',*,*,#345,.T.);
#53=ORIENTED_EDGE('',*,*,#346,.T.);
#54=ORIENTED_EDGE('',*,*,#347,.F.);
#55=ORIENTED_EDGE('',*,*,#348,.F.);
#56=ORIENTED_EDGE('',*,*,#349,.F.);
#57=ORIENTED_EDGE('',*,*,#350,.T.);
#58=ORIENTED_EDGE('',*,*,#351,.F.);
#59=ORIENTED_EDGE('',*,*,#352,.T.);
#60=ORIENTED_EDGE('',*,*,#353,.F.);
#61=ORIENTED_EDGE('',*,*,#354,.F.);
#62=ORIENTED_EDGE('',*,*,#328,.F.);
#63=ORIENTED_EDGE('',*,*,#355,.T.);
#64=ORIENTED_EDGE('',*,*,#356,.F.);
#65=ORIENTED_EDGE('',*,*,#357,.F.);
#66=ORIENTED_EDGE('',*,*,#324,.F.);
#67=ORIENTED_EDGE('',*,*,#358,.T.);
#68=ORIENTED_EDGE('',*,*,#359,.F.);
#69=ORIENTED_EDGE('',*,*,#360,.T.);
#70=ORIENTED_EDGE('',*,*,#351,.T.);
#71=ORIENTED_EDGE('',*,*,#361,.T.);
#72=ORIENTED_EDGE('',*,*,#362,.F.);
#73=ORIENTED_EDGE('',*,*,#363,.T.);
#74=ORIENTED_EDGE('',*,*,#364,.F.);
#75=ORIENTED_EDGE('',*,*,#365,.T.);
#76=ORIENTED_EDGE('',*,*,#349,.T.);
#77=ORIENTED_EDGE('',*,*,#366,.F.);
#78=ORIENTED_EDGE('',*,*,#343,.F.);
#79=ORIENTED_EDGE('',*,*,#367,.T.);
#80=ORIENTED_EDGE('',*,*,#368,.T.);
#81=ORIENTED_EDGE('',*,*,#369,.T.);
#82=ORIENTED_EDGE('',*,*,#370,.T.);
#83=ORIENTED_EDGE('',*,*,#371,.T.);
#84=ORIENTED_EDGE('',*,*,#372,.T.);
#85=ORIENTED_EDGE('',*,*,#373,.T.);
#86=ORIENTED_EDGE('',*,*,#374,.F.);
#87=ORIENTED_EDGE('',*,*,#375,.T.);
#88=ORIENTED_EDGE('',*,*,#376,.F.);
#89=ORIENTED_EDGE('',*,*,#377,.T.);
#90=ORIENTED_EDGE('',*,*,#378,.T.);
#91=ORIENTED_EDGE('',*,*,#379,.T.);
#92=ORIENTED_EDGE('',*,*,#380,.T.);
#93=ORIENTED_EDGE('',*,*,#346,.F.);
#94=ORIENTED_EDGE('',*,*,#381,.F.);
#95=ORIENTED_EDGE('',*,*,#382,.T.);
#96=ORIENTED_EDGE('',*,*,#383,.F.);
#97=ORIENTED_EDGE('',*,*,#384,.T.);
#98=ORIENTED_EDGE('',*,*,#385,.F.);
#99=ORIENTED_EDGE('',*,*,#386,.T.);
#100=ORIENTED_EDGE('',*,*,#383,.T.);
#101=ORIENTED_EDGE('',*,*,#387,.T.);
#102=ORIENTED_EDGE('',*,*,#370,.F.);
#103=ORIENTED_EDGE('',*,*,#388,.T.);
#104=ORIENTED_EDGE('',*,*,#389,.T.);
#105=ORIENTED_EDGE('',*,*,#390,.T.);
#106=ORIENTED_EDGE('',*,*,#391,.T.);
#107=ORIENTED_EDGE('',*,*,#378,.F.);
#108=ORIENTED_EDGE('',*,*,#381,.T.);
#109=ORIENTED_EDGE('',*,*,#392,.T.);
#110=ORIENTED_EDGE('',*,*,#372,.F.);
#111=ORIENTED_EDGE('',*,*,#393,.T.);
#112=ORIENTED_EDGE('',*,*,#348,.T.);
#113=ORIENTED_EDGE('',*,*,#394,.F.);
#114=ORIENTED_EDGE('',*,*,#395,.F.);
#115=ORIENTED_EDGE('',*,*,#396,.F.);
#116=ORIENTED_EDGE('',*,*,#397,.T.);
#117=ORIENTED_EDGE('',*,*,#366,.T.);
#118=ORIENTED_EDGE('',*,*,#344,.F.);
#119=ORIENTED_EDGE('',*,*,#369,.F.);
#120=ORIENTED_EDGE('',*,*,#398,.T.);
#121=ORIENTED_EDGE('',*,*,#399,.T.);
#122=ORIENTED_EDGE('',*,*,#400,.T.);
#123=ORIENTED_EDGE('',*,*,#401,.T.);
#124=ORIENTED_EDGE('',*,*,#402,.T.);
#125=ORIENTED_EDGE('',*,*,#309,.T.);
#126=ORIENTED_EDGE('',*,*,#403,.F.);
#127=ORIENTED_EDGE('',*,*,#404,.F.);
#128=ORIENTED_EDGE('',*,*,#405,.T.);
#129=ORIENTED_EDGE('',*,*,#318,.T.);
#130=ORIENTED_EDGE('',*,*,#406,.F.);
#131=ORIENTED_EDGE('',*,*,#407,.F.);
#132=ORIENTED_EDGE('',*,*,#408,.T.);
#133=ORIENTED_EDGE('',*,*,#330,.T.);
#134=ORIENTED_EDGE('',*,*,#409,.F.);
#135=ORIENTED_EDGE('',*,*,#410,.F.);
#136=ORIENTED_EDGE('',*,*,#411,.T.);
#137=ORIENTED_EDGE('',*,*,#317,.T.);
#138=ORIENTED_EDGE('',*,*,#412,.F.);
#139=ORIENTED_EDGE('',*,*,#413,.F.);
#140=ORIENTED_EDGE('',*,*,#414,.T.);
#141=ORIENTED_EDGE('',*,*,#322,.T.);
#142=ORIENTED_EDGE('',*,*,#415,.F.);
#143=ORIENTED_EDGE('',*,*,#416,.F.);
#144=ORIENTED_EDGE('',*,*,#417,.T.);
#145=ORIENTED_EDGE('',*,*,#326,.T.);
#146=ORIENTED_EDGE('',*,*,#418,.F.);
#147=ORIENTED_EDGE('',*,*,#419,.F.);
#148=ORIENTED_EDGE('',*,*,#420,.T.);
#149=ORIENTED_EDGE('',*,*,#359,.T.);
#150=ORIENTED_EDGE('',*,*,#421,.F.);
#151=ORIENTED_EDGE('',*,*,#395,.T.);
#152=ORIENTED_EDGE('',*,*,#422,.F.);
#153=ORIENTED_EDGE('',*,*,#423,.T.);
#154=ORIENTED_EDGE('',*,*,#424,.T.);
#155=ORIENTED_EDGE('',*,*,#400,.F.);
#156=ORIENTED_EDGE('',*,*,#425,.T.);
#157=ORIENTED_EDGE('',*,*,#426,.T.);
#158=ORIENTED_EDGE('',*,*,#374,.T.);
#159=ORIENTED_EDGE('',*,*,#427,.T.);
#160=ORIENTED_EDGE('',*,*,#424,.F.);
#161=ORIENTED_EDGE('',*,*,#428,.T.);
#162=ORIENTED_EDGE('',*,*,#425,.F.);
#163=ORIENTED_EDGE('',*,*,#429,.T.);
#164=ORIENTED_EDGE('',*,*,#376,.T.);
#165=ORIENTED_EDGE('',*,*,#345,.F.);
#166=ORIENTED_EDGE('',*,*,#401,.F.);
#167=ORIENTED_EDGE('',*,*,#385,.T.);
#168=ORIENTED_EDGE('',*,*,#430,.T.);
#169=ORIENTED_EDGE('',*,*,#431,.F.);
#170=ORIENTED_EDGE('',*,*,#432,.T.);
#171=ORIENTED_EDGE('',*,*,#431,.T.);
#172=ORIENTED_EDGE('',*,*,#433,.T.);
#173=ORIENTED_EDGE('',*,*,#422,.T.);
#174=ORIENTED_EDGE('',*,*,#394,.T.);
#175=ORIENTED_EDGE('',*,*,#347,.T.);
#176=ORIENTED_EDGE('',*,*,#380,.F.);
#177=ORIENTED_EDGE('',*,*,#434,.T.);
#178=ORIENTED_EDGE('',*,*,#373,.F.);
#179=ORIENTED_EDGE('',*,*,#435,.T.);
#180=ORIENTED_EDGE('',*,*,#389,.F.);
#181=ORIENTED_EDGE('',*,*,#377,.F.);
#182=ORIENTED_EDGE('',*,*,#429,.F.);
#183=ORIENTED_EDGE('',*,*,#427,.F.);
#184=ORIENTED_EDGE('',*,*,#391,.F.);
#185=ORIENTED_EDGE('',*,*,#436,.T.);
#186=ORIENTED_EDGE('',*,*,#386,.F.);
#187=ORIENTED_EDGE('',*,*,#432,.F.);
#188=ORIENTED_EDGE('',*,*,#434,.F.);
#189=ORIENTED_EDGE('',*,*,#379,.F.);
#190=ORIENTED_EDGE('',*,*,#384,.F.);
#191=ORIENTED_EDGE('',*,*,#388,.F.);
#192=ORIENTED_EDGE('',*,*,#375,.F.);
#193=ORIENTED_EDGE('',*,*,#426,.F.);
#194=ORIENTED_EDGE('',*,*,#428,.F.);
#195=ORIENTED_EDGE('',*,*,#423,.F.);
#196=ORIENTED_EDGE('',*,*,#433,.F.);
#197=ORIENTED_EDGE('',*,*,#430,.F.);
#198=ORIENTED_EDGE('',*,*,#437,.T.);
#199=ORIENTED_EDGE('',*,*,#310,.T.);
#200=ORIENTED_EDGE('',*,*,#402,.F.);
#201=ORIENTED_EDGE('',*,*,#399,.F.);
#202=ORIENTED_EDGE('',*,*,#368,.F.);
#203=ORIENTED_EDGE('',*,*,#438,.T.);
#204=ORIENTED_EDGE('',*,*,#311,.T.);
#205=ORIENTED_EDGE('',*,*,#437,.F.);
#206=ORIENTED_EDGE('',*,*,#398,.F.);
#207=ORIENTED_EDGE('',*,*,#396,.T.);
#208=ORIENTED_EDGE('',*,*,#421,.T.);
#209=ORIENTED_EDGE('',*,*,#363,.F.);
#210=ORIENTED_EDGE('',*,*,#439,.F.);
#211=ORIENTED_EDGE('',*,*,#362,.T.);
#212=ORIENTED_EDGE('',*,*,#440,.T.);
#213=ORIENTED_EDGE('',*,*,#364,.T.);
#214=ORIENTED_EDGE('',*,*,#397,.F.);
#215=ORIENTED_EDGE('',*,*,#439,.T.);
#216=ORIENTED_EDGE('',*,*,#440,.F.);
#217=ORIENTED_EDGE('',*,*,#361,.F.);
#218=ORIENTED_EDGE('',*,*,#350,.F.);
#219=ORIENTED_EDGE('',*,*,#365,.F.);
#220=ORIENTED_EDGE('',*,*,#438,.F.);
#221=ORIENTED_EDGE('',*,*,#367,.F.);
#222=ORIENTED_EDGE('',*,*,#342,.F.);
#223=ORIENTED_EDGE('',*,*,#312,.F.);
#224=ORIENTED_EDGE('',*,*,#436,.F.);
#225=ORIENTED_EDGE('',*,*,#390,.F.);
#226=ORIENTED_EDGE('',*,*,#435,.F.);
#227=ORIENTED_EDGE('',*,*,#392,.F.);
#228=ORIENTED_EDGE('',*,*,#382,.F.);
#229=ORIENTED_EDGE('',*,*,#393,.F.);
#230=ORIENTED_EDGE('',*,*,#371,.F.);
#231=ORIENTED_EDGE('',*,*,#387,.F.);
#232=ORIENTED_EDGE('',*,*,#441,.F.);
#233=ORIENTED_EDGE('',*,*,#314,.F.);
#234=ORIENTED_EDGE('',*,*,#411,.F.);
#235=ORIENTED_EDGE('',*,*,#442,.T.);
#236=ORIENTED_EDGE('',*,*,#409,.T.);
#237=ORIENTED_EDGE('',*,*,#333,.T.);
#238=ORIENTED_EDGE('',*,*,#335,.T.);
#239=ORIENTED_EDGE('',*,*,#443,.F.);
#240=ORIENTED_EDGE('',*,*,#444,.T.);
#241=ORIENTED_EDGE('',*,*,#352,.F.);
#242=ORIENTED_EDGE('',*,*,#360,.F.);
#243=ORIENTED_EDGE('',*,*,#420,.F.);
#244=ORIENTED_EDGE('',*,*,#419,.T.);
#245=ORIENTED_EDGE('',*,*,#445,.T.);
#246=ORIENTED_EDGE('',*,*,#353,.T.);
#247=ORIENTED_EDGE('',*,*,#444,.F.);
#248=ORIENTED_EDGE('',*,*,#418,.T.);
#249=ORIENTED_EDGE('',*,*,#329,.T.);
#250=ORIENTED_EDGE('',*,*,#354,.T.);
#251=ORIENTED_EDGE('',*,*,#445,.F.);
#252=ORIENTED_EDGE('',*,*,#416,.T.);
#253=ORIENTED_EDGE('',*,*,#446,.T.);
#254=ORIENTED_EDGE('',*,*,#356,.T.);
#255=ORIENTED_EDGE('',*,*,#447,.F.);
#256=ORIENTED_EDGE('',*,*,#415,.T.);
#257=ORIENTED_EDGE('',*,*,#325,.T.);
#258=ORIENTED_EDGE('',*,*,#357,.T.);
#259=ORIENTED_EDGE('',*,*,#446,.F.);
#260=ORIENTED_EDGE('',*,*,#447,.T.);
#261=ORIENTED_EDGE('',*,*,#355,.F.);
#262=ORIENTED_EDGE('',*,*,#327,.F.);
#263=ORIENTED_EDGE('',*,*,#417,.F.);
#264=ORIENTED_EDGE('',*,*,#407,.T.);
#265=ORIENTED_EDGE('',*,*,#448,.T.);
#266=ORIENTED_EDGE('',*,*,#337,.T.);
#267=ORIENTED_EDGE('',*,*,#449,.F.);
#268=ORIENTED_EDGE('',*,*,#406,.T.);
#269=ORIENTED_EDGE('',*,*,#321,.T.);
#270=ORIENTED_EDGE('',*,*,#338,.T.);
#271=ORIENTED_EDGE('',*,*,#448,.F.);
#272=ORIENTED_EDGE('',*,*,#449,.T.);
#273=ORIENTED_EDGE('',*,*,#336,.F.);
#274=ORIENTED_EDGE('',*,*,#331,.F.);
#275=ORIENTED_EDGE('',*,*,#408,.F.);
#276=ORIENTED_EDGE('',*,*,#413,.T.);
#277=ORIENTED_EDGE('',*,*,#450,.T.);
#278=ORIENTED_EDGE('',*,*,#451,.F.);
#279=ORIENTED_EDGE('',*,*,#442,.F.);
#280=ORIENTED_EDGE('',*,*,#410,.T.);
#281=ORIENTED_EDGE('',*,*,#443,.T.);
#282=ORIENTED_EDGE('',*,*,#334,.T.);
#283=ORIENTED_EDGE('',*,*,#452,.F.);
#284=ORIENTED_EDGE('',*,*,#316,.T.);
#285=ORIENTED_EDGE('',*,*,#453,.T.);
#286=ORIENTED_EDGE('',*,*,#450,.F.);
#287=ORIENTED_EDGE('',*,*,#412,.T.);
#288=ORIENTED_EDGE('',*,*,#452,.T.);
#289=ORIENTED_EDGE('',*,*,#358,.F.);
#290=ORIENTED_EDGE('',*,*,#323,.F.);
#291=ORIENTED_EDGE('',*,*,#414,.F.);
#292=ORIENTED_EDGE('',*,*,#404,.T.);
#293=ORIENTED_EDGE('',*,*,#454,.T.);
#294=ORIENTED_EDGE('',*,*,#340,.T.);
#295=ORIENTED_EDGE('',*,*,#455,.F.);
#296=ORIENTED_EDGE('',*,*,#403,.T.);
#297=ORIENTED_EDGE('',*,*,#308,.T.);
#298=ORIENTED_EDGE('',*,*,#341,.T.);
#299=ORIENTED_EDGE('',*,*,#454,.F.);
#300=ORIENTED_EDGE('',*,*,#455,.T.);
#301=ORIENTED_EDGE('',*,*,#339,.F.);
#302=ORIENTED_EDGE('',*,*,#319,.F.);
#303=ORIENTED_EDGE('',*,*,#405,.F.);
#304=ORIENTED_EDGE('',*,*,#441,.T.);
#305=ORIENTED_EDGE('',*,*,#451,.T.);
#306=ORIENTED_EDGE('',*,*,#453,.F.);
#307=ORIENTED_EDGE('',*,*,#315,.F.);
#308=EDGE_CURVE('',#456,#457,#554,.T.);
#309=EDGE_CURVE('',#458,#456,#555,.T.);
#310=EDGE_CURVE('',#459,#458,#556,.T.);
#311=EDGE_CURVE('',#460,#459,#557,.T.);
#312=EDGE_CURVE('',#460,#461,#558,.T.);
#313=EDGE_CURVE('',#461,#457,#559,.T.);
#314=EDGE_CURVE('',#462,#463,#560,.T.);
#315=EDGE_CURVE('',#463,#464,#561,.T.);
#316=EDGE_CURVE('',#465,#464,#562,.T.);
#317=EDGE_CURVE('',#462,#465,#563,.T.);
#318=EDGE_CURVE('',#466,#467,#564,.T.);
#319=EDGE_CURVE('',#466,#468,#565,.T.);
#320=EDGE_CURVE('',#468,#469,#566,.T.);
#321=EDGE_CURVE('',#467,#469,#567,.T.);
#322=EDGE_CURVE('',#470,#471,#568,.T.);
#323=EDGE_CURVE('',#470,#472,#569,.T.);
#324=EDGE_CURVE('',#472,#473,#570,.T.);
#325=EDGE_CURVE('',#471,#473,#571,.T.);
#326=EDGE_CURVE('',#474,#475,#572,.T.);
#327=EDGE_CURVE('',#474,#476,#573,.T.);
#328=EDGE_CURVE('',#476,#477,#574,.T.);
#329=EDGE_CURVE('',#475,#477,#575,.T.);
#330=EDGE_CURVE('',#478,#479,#576,.T.);
#331=EDGE_CURVE('',#478,#480,#577,.T.);
#332=EDGE_CURVE('',#480,#481,#578,.T.);
#333=EDGE_CURVE('',#479,#481,#579,.T.);
#334=EDGE_CURVE('',#482,#483,#580,.T.);
#335=EDGE_CURVE('',#481,#482,#581,.T.);
#336=EDGE_CURVE('',#480,#484,#582,.T.);
#337=EDGE_CURVE('',#485,#484,#583,.T.);
#338=EDGE_CURVE('',#469,#485,#584,.T.);
#339=EDGE_CURVE('',#468,#486,#585,.T.);
#340=EDGE_CURVE('',#487,#486,#586,.T.);
#341=EDGE_CURVE('',#457,#487,#587,.T.);
#342=EDGE_CURVE('',#461,#488,#588,.T.);
#343=EDGE_CURVE('',#488,#489,#589,.T.);
#344=EDGE_CURVE('',#489,#490,#590,.T.);
#345=EDGE_CURVE('',#490,#491,#591,.T.);
#346=EDGE_CURVE('',#491,#492,#592,.T.);
#347=EDGE_CURVE('',#493,#492,#593,.T.);
#348=EDGE_CURVE('',#494,#493,#594,.T.);
#349=EDGE_CURVE('',#495,#494,#595,.T.);
#350=EDGE_CURVE('',#495,#496,#596,.F.);
#351=EDGE_CURVE('',#497,#496,#597,.T.);
#352=EDGE_CURVE('',#497,#498,#598,.T.);
#353=EDGE_CURVE('',#499,#498,#599,.T.);
#354=EDGE_CURVE('',#477,#499,#600,.T.);
#355=EDGE_CURVE('',#476,#500,#601,.T.);
#356=EDGE_CURVE('',#501,#500,#602,.T.);
#357=EDGE_CURVE('',#473,#501,#603,.T.);
#358=EDGE_CURVE('',#472,#483,#604,.T.);
#359=EDGE_CURVE('',#502,#503,#605,.T.);
#360=EDGE_CURVE('',#502,#497,#606,.T.);
#361=EDGE_CURVE('',#496,#504,#607,.T.);
#362=EDGE_CURVE('',#505,#504,#608,.T.);
#363=EDGE_CURVE('',#505,#503,#609,.T.);
#364=EDGE_CURVE('',#506,#507,#610,.T.);
#365=EDGE_CURVE('',#506,#495,#611,.T.);
#366=EDGE_CURVE('',#507,#494,#612,.T.);
#367=EDGE_CURVE('',#488,#508,#613,.T.);
#368=EDGE_CURVE('',#508,#509,#614,.T.);
#369=EDGE_CURVE('',#509,#489,#615,.T.);
#370=EDGE_CURVE('',#510,#511,#616,.T.);
#371=EDGE_CURVE('',#511,#512,#617,.F.);
#372=EDGE_CURVE('',#512,#513,#618,.T.);
#373=EDGE_CURVE('',#513,#514,#619,.T.);
#374=EDGE_CURVE('',#515,#514,#620,.T.);
#375=EDGE_CURVE('',#515,#510,#621,.T.);
#376=EDGE_CURVE('',#516,#491,#622,.T.);
#377=EDGE_CURVE('',#516,#517,#623,.T.);
#378=EDGE_CURVE('',#517,#518,#624,.T.);
#379=EDGE_CURVE('',#518,#519,#625,.F.);
#380=EDGE_CURVE('',#519,#492,#626,.T.);
#381=EDGE_CURVE('',#520,#521,#627,.T.);
#382=EDGE_CURVE('',#520,#522,#628,.F.);
#383=EDGE_CURVE('',#523,#522,#629,.T.);
#384=EDGE_CURVE('',#523,#524,#630,.T.);
#385=EDGE_CURVE('',#525,#524,#631,.T.);
#386=EDGE_CURVE('',#525,#521,#632,.T.);
#387=EDGE_CURVE('',#522,#511,#633,.T.);
#388=EDGE_CURVE('',#510,#523,#634,.T.);
#389=EDGE_CURVE('',#517,#526,#635,.T.);
#390=EDGE_CURVE('',#526,#527,#636,.T.);
#391=EDGE_CURVE('',#527,#518,#637,.T.);
#392=EDGE_CURVE('',#521,#513,#638,.T.);
#393=EDGE_CURVE('',#512,#520,#639,.T.);
#394=EDGE_CURVE('',#528,#493,#640,.T.);
#395=EDGE_CURVE('',#529,#528,#641,.T.);
#396=EDGE_CURVE('',#530,#529,#642,.T.);
#397=EDGE_CURVE('',#530,#507,#643,.T.);
#398=EDGE_CURVE('',#509,#531,#644,.T.);
#399=EDGE_CURVE('',#531,#532,#645,.T.);
#400=EDGE_CURVE('',#532,#533,#646,.T.);
#401=EDGE_CURVE('',#533,#490,#647,.T.);
#402=EDGE_CURVE('',#532,#458,#648,.T.);
#403=EDGE_CURVE('',#534,#456,#649,.T.);
#404=EDGE_CURVE('',#535,#534,#650,.T.);
#405=EDGE_CURVE('',#535,#466,#651,.T.);
#406=EDGE_CURVE('',#536,#467,#652,.T.);
#407=EDGE_CURVE('',#537,#536,#653,.T.);
#408=EDGE_CURVE('',#537,#478,#654,.T.);
#409=EDGE_CURVE('',#538,#479,#655,.T.);
#410=EDGE_CURVE('',#539,#538,#656,.T.);
#411=EDGE_CURVE('',#539,#462,#657,.T.);
#412=EDGE_CURVE('',#540,#465,#658,.T.);
#413=EDGE_CURVE('',#541,#540,#659,.T.);
#414=EDGE_CURVE('',#541,#470,#660,.T.);
#415=EDGE_CURVE('',#542,#471,#661,.T.);
#416=EDGE_CURVE('',#543,#542,#662,.T.);
#417=EDGE_CURVE('',#543,#474,#663,.T.);
#418=EDGE_CURVE('',#544,#475,#664,.T.);
#419=EDGE_CURVE('',#545,#544,#665,.T.);
#420=EDGE_CURVE('',#545,#502,#666,.T.);
#421=EDGE_CURVE('',#529,#503,#667,.T.);
#422=EDGE_CURVE('',#546,#528,#668,.T.);
#423=EDGE_CURVE('',#546,#547,#669,.T.);
#424=EDGE_CURVE('',#547,#533,#670,.T.);
#425=EDGE_CURVE('',#548,#549,#671,.T.);
#426=EDGE_CURVE('',#549,#515,#672,.T.);
#427=EDGE_CURVE('',#514,#548,#673,.T.);
#428=EDGE_CURVE('',#547,#549,#674,.T.);
#429=EDGE_CURVE('',#548,#516,#675,.T.);
#430=EDGE_CURVE('',#524,#550,#676,.T.);
#431=EDGE_CURVE('',#551,#550,#677,.T.);
#432=EDGE_CURVE('',#551,#525,#678,.F.);
#433=EDGE_CURVE('',#550,#546,#679,.T.);
#434=EDGE_CURVE('',#519,#551,#680,.F.);
#435=EDGE_CURVE('',#513,#526,#681,.T.);
#436=EDGE_CURVE('',#527,#521,#682,.F.);
#437=EDGE_CURVE('',#531,#459,#683,.T.);
#438=EDGE_CURVE('',#508,#460,#684,.T.);
#439=EDGE_CURVE('',#530,#505,#685,.T.);
#440=EDGE_CURVE('',#504,#506,#686,.F.);
#441=EDGE_CURVE('',#463,#552,#687,.T.);
#442=EDGE_CURVE('',#539,#552,#688,.T.);
#443=EDGE_CURVE('',#538,#482,#689,.T.);
#444=EDGE_CURVE('',#545,#498,#690,.T.);
#445=EDGE_CURVE('',#544,#499,#691,.T.);
#446=EDGE_CURVE('',#542,#501,#692,.T.);
#447=EDGE_CURVE('',#543,#500,#693,.T.);
#448=EDGE_CURVE('',#536,#485,#694,.T.);
#449=EDGE_CURVE('',#537,#484,#695,.T.);
#450=EDGE_CURVE('',#540,#553,#696,.T.);
#451=EDGE_CURVE('',#552,#553,#697,.T.);
#452=EDGE_CURVE('',#541,#483,#698,.T.);
#453=EDGE_CURVE('',#464,#553,#699,.T.);
#454=EDGE_CURVE('',#534,#487,#700,.T.);
#455=EDGE_CURVE('',#535,#486,#701,.T.);
#456=VERTEX_POINT('',#1380);
#457=VERTEX_POINT('',#1381);
#458=VERTEX_POINT('',#1383);
#459=VERTEX_POINT('',#1385);
#460=VERTEX_POINT('',#1387);
#461=VERTEX_POINT('',#1389);
#462=VERTEX_POINT('',#1393);
#463=VERTEX_POINT('',#1394);
#464=VERTEX_POINT('',#1396);
#465=VERTEX_POINT('',#1398);
#466=VERTEX_POINT('',#1402);
#467=VERTEX_POINT('',#1403);
#468=VERTEX_POINT('',#1405);
#469=VERTEX_POINT('',#1407);
#470=VERTEX_POINT('',#1411);
#471=VERTEX_POINT('',#1412);
#472=VERTEX_POINT('',#1414);
#473=VERTEX_POINT('',#1416);
#474=VERTEX_POINT('',#1420);
#475=VERTEX_POINT('',#1421);
#476=VERTEX_POINT('',#1423);
#477=VERTEX_POINT('',#1425);
#478=VERTEX_POINT('',#1429);
#479=VERTEX_POINT('',#1430);
#480=VERTEX_POINT('',#1432);
#481=VERTEX_POINT('',#1434);
#482=VERTEX_POINT('',#1438);
#483=VERTEX_POINT('',#1439);
#484=VERTEX_POINT('',#1442);
#485=VERTEX_POINT('',#1444);
#486=VERTEX_POINT('',#1447);
#487=VERTEX_POINT('',#1449);
#488=VERTEX_POINT('',#1452);
#489=VERTEX_POINT('',#1454);
#490=VERTEX_POINT('',#1456);
#491=VERTEX_POINT('',#1458);
#492=VERTEX_POINT('',#1460);
#493=VERTEX_POINT('',#1462);
#494=VERTEX_POINT('',#1464);
#495=VERTEX_POINT('',#1466);
#496=VERTEX_POINT('',#1468);
#497=VERTEX_POINT('',#1470);
#498=VERTEX_POINT('',#1472);
#499=VERTEX_POINT('',#1474);
#500=VERTEX_POINT('',#1477);
#501=VERTEX_POINT('',#1479);
#502=VERTEX_POINT('',#1484);
#503=VERTEX_POINT('',#1485);
#504=VERTEX_POINT('',#1488);
#505=VERTEX_POINT('',#1490);
#506=VERTEX_POINT('',#1494);
#507=VERTEX_POINT('',#1495);
#508=VERTEX_POINT('',#1500);
#509=VERTEX_POINT('',#1502);
#510=VERTEX_POINT('',#1506);
#511=VERTEX_POINT('',#1507);
#512=VERTEX_POINT('',#1509);
#513=VERTEX_POINT('',#1511);
#514=VERTEX_POINT('',#1513);
#515=VERTEX_POINT('',#1515);
#516=VERTEX_POINT('',#1519);
#517=VERTEX_POINT('',#1521);
#518=VERTEX_POINT('',#1523);
#519=VERTEX_POINT('',#1525);
#520=VERTEX_POINT('',#1529);
#521=VERTEX_POINT('',#1530);
#522=VERTEX_POINT('',#1532);
#523=VERTEX_POINT('',#1534);
#524=VERTEX_POINT('',#1536);
#525=VERTEX_POINT('',#1538);
#526=VERTEX_POINT('',#1545);
#527=VERTEX_POINT('',#1547);
#528=VERTEX_POINT('',#1554);
#529=VERTEX_POINT('',#1556);
#530=VERTEX_POINT('',#1558);
#531=VERTEX_POINT('',#1562);
#532=VERTEX_POINT('',#1564);
#533=VERTEX_POINT('',#1566);
#534=VERTEX_POINT('',#1571);
#535=VERTEX_POINT('',#1573);
#536=VERTEX_POINT('',#1576);
#537=VERTEX_POINT('',#1578);
#538=VERTEX_POINT('',#1581);
#539=VERTEX_POINT('',#1583);
#540=VERTEX_POINT('',#1586);
#541=VERTEX_POINT('',#1588);
#542=VERTEX_POINT('',#1591);
#543=VERTEX_POINT('',#1593);
#544=VERTEX_POINT('',#1596);
#545=VERTEX_POINT('',#1598);
#546=VERTEX_POINT('',#1602);
#547=VERTEX_POINT('',#1604);
#548=VERTEX_POINT('',#1608);
#549=VERTEX_POINT('',#1609);
#550=VERTEX_POINT('',#1617);
#551=VERTEX_POINT('',#1619);
#552=VERTEX_POINT('',#1643);
#553=VERTEX_POINT('',#1664);
#554=LINE('',#1379,#702);
#555=LINE('',#1382,#703);
#556=LINE('',#1384,#704);
#557=LINE('',#1386,#705);
#558=LINE('',#1388,#706);
#559=LINE('',#1390,#707);
#560=LINE('',#1392,#708);
#561=LINE('',#1395,#709);
#562=LINE('',#1397,#710);
#563=LINE('',#1399,#711);
#564=LINE('',#1401,#712);
#565=LINE('',#1404,#713);
#566=LINE('',#1406,#714);
#567=LINE('',#1408,#715);
#568=LINE('',#1410,#716);
#569=LINE('',#1413,#717);
#570=LINE('',#1415,#718);
#571=LINE('',#1417,#719);
#572=LINE('',#1419,#720);
#573=LINE('',#1422,#721);
#574=LINE('',#1424,#722);
#575=LINE('',#1426,#723);
#576=LINE('',#1428,#724);
#577=LINE('',#1431,#725);
#578=LINE('',#1433,#726);
#579=LINE('',#1435,#727);
#580=LINE('',#1437,#728);
#581=LINE('',#1440,#729);
#582=LINE('',#1441,#730);
#583=LINE('',#1443,#731);
#584=LINE('',#1445,#732);
#585=LINE('',#1446,#733);
#586=LINE('',#1448,#734);
#587=LINE('',#1450,#735);
#588=LINE('',#1451,#736);
#589=LINE('',#1453,#737);
#590=LINE('',#1455,#738);
#591=LINE('',#1457,#739);
#592=LINE('',#1459,#740);
#593=LINE('',#1461,#741);
#594=LINE('',#1463,#742);
#595=LINE('',#1465,#743);
#596=LINE('',#1467,#744);
#597=LINE('',#1469,#745);
#598=LINE('',#1471,#746);
#599=LINE('',#1473,#747);
#600=LINE('',#1475,#748);
#601=LINE('',#1476,#749);
#602=LINE('',#1478,#750);
#603=LINE('',#1480,#751);
#604=LINE('',#1481,#752);
#605=LINE('',#1483,#753);
#606=LINE('',#1486,#754);
#607=LINE('',#1487,#755);
#608=LINE('',#1489,#756);
#609=LINE('',#1491,#757);
#610=LINE('',#1493,#758);
#611=LINE('',#1496,#759);
#612=LINE('',#1497,#760);
#613=LINE('',#1499,#761);
#614=LINE('',#1501,#762);
#615=LINE('',#1503,#763);
#616=LINE('',#1505,#764);
#617=LINE('',#1508,#765);
#618=LINE('',#1510,#766);
#619=LINE('',#1512,#767);
#620=LINE('',#1514,#768);
#621=LINE('',#1516,#769);
#622=LINE('',#1518,#770);
#623=LINE('',#1520,#771);
#624=LINE('',#1522,#772);
#625=LINE('',#1524,#773);
#626=LINE('',#1526,#774);
#627=LINE('',#1528,#775);
#628=LINE('',#1531,#776);
#629=LINE('',#1533,#777);
#630=LINE('',#1535,#778);
#631=LINE('',#1537,#779);
#632=LINE('',#1539,#780);
#633=LINE('',#1541,#781);
#634=LINE('',#1542,#782);
#635=LINE('',#1544,#783);
#636=LINE('',#1546,#784);
#637=LINE('',#1548,#785);
#638=LINE('',#1550,#786);
#639=LINE('',#1551,#787);
#640=LINE('',#1553,#788);
#641=LINE('',#1555,#789);
#642=LINE('',#1557,#790);
#643=LINE('',#1559,#791);
#644=LINE('',#1561,#792);
#645=LINE('',#1563,#793);
#646=LINE('',#1565,#794);
#647=LINE('',#1567,#795);
#648=LINE('',#1569,#796);
#649=LINE('',#1570,#797);
#650=LINE('',#1572,#798);
#651=LINE('',#1574,#799);
#652=LINE('',#1575,#800);
#653=LINE('',#1577,#801);
#654=LINE('',#1579,#802);
#655=LINE('',#1580,#803);
#656=LINE('',#1582,#804);
#657=LINE('',#1584,#805);
#658=LINE('',#1585,#806);
#659=LINE('',#1587,#807);
#660=LINE('',#1589,#808);
#661=LINE('',#1590,#809);
#662=LINE('',#1592,#810);
#663=LINE('',#1594,#811);
#664=LINE('',#1595,#812);
#665=LINE('',#1597,#813);
#666=LINE('',#1599,#814);
#667=LINE('',#1600,#815);
#668=LINE('',#1601,#816);
#669=LINE('',#1603,#817);
#670=LINE('',#1605,#818);
#671=LINE('',#1607,#819);
#672=LINE('',#1610,#820);
#673=LINE('',#1611,#821);
#674=LINE('',#1613,#822);
#675=LINE('',#1614,#823);
#676=LINE('',#1616,#824);
#677=LINE('',#1618,#825);
#678=LINE('',#1620,#826);
#679=LINE('',#1622,#827);
#680=LINE('',#1623,#828);
#681=LINE('',#1625,#829);
#682=LINE('',#1627,#830);
#683=LINE('',#1630,#831);
#684=LINE('',#1632,#832);
#685=LINE('',#1634,#833);
#686=LINE('',#1636,#834);
#687=LINE('',#1642,#835);
#688=LINE('',#1644,#836);
#689=LINE('',#1646,#837);
#690=LINE('',#1648,#838);
#691=LINE('',#1650,#839);
#692=LINE('',#1653,#840);
#693=LINE('',#1654,#841);
#694=LINE('',#1658,#842);
#695=LINE('',#1659,#843);
#696=LINE('',#1663,#844);
#697=LINE('',#1665,#845);
#698=LINE('',#1666,#846);
#699=LINE('',#1668,#847);
#700=LINE('',#1671,#848);
#701=LINE('',#1672,#849);
#702=VECTOR('',#1127,1.);
#703=VECTOR('',#1128,1.);
#704=VECTOR('',#1129,1.);
#705=VECTOR('',#1130,1.);
#706=VECTOR('',#1131,1.);
#707=VECTOR('',#1132,1.);
#708=VECTOR('',#1135,1.);
#709=VECTOR('',#1136,1.);
#710=VECTOR('',#1137,1.);
#711=VECTOR('',#1138,1.);
#712=VECTOR('',#1141,1.);
#713=VECTOR('',#1142,1.);
#714=VECTOR('',#1143,1.);
#715=VECTOR('',#1144,1.);
#716=VECTOR('',#1147,1.);
#717=VECTOR('',#1148,1.);
#718=VECTOR('',#1149,1.);
#719=VECTOR('',#1150,1.);
#720=VECTOR('',#1153,1.);
#721=VECTOR('',#1154,1.);
#722=VECTOR('',#1155,1.);
#723=VECTOR('',#1156,1.);
#724=VECTOR('',#1159,1.);
#725=VECTOR('',#1160,1.);
#726=VECTOR('',#1161,1.);
#727=VECTOR('',#1162,1.);
#728=VECTOR('',#1165,1.);
#729=VECTOR('',#1166,1.);
#730=VECTOR('',#1167,1.);
#731=VECTOR('',#1168,1.);
#732=VECTOR('',#1169,1.);
#733=VECTOR('',#1170,1.);
#734=VECTOR('',#1171,1.);
#735=VECTOR('',#1172,1.);
#736=VECTOR('',#1173,1.);
#737=VECTOR('',#1174,1.);
#738=VECTOR('',#1175,1.);
#739=VECTOR('',#1176,1.);
#740=VECTOR('',#1177,1.);
#741=VECTOR('',#1178,1.);
#742=VECTOR('',#1179,1.);
#743=VECTOR('',#1180,1.);
#744=VECTOR('',#1181,1.);
#745=VECTOR('',#1182,1.);
#746=VECTOR('',#1183,1.);
#747=VECTOR('',#1184,1.);
#748=VECTOR('',#1185,1.);
#749=VECTOR('',#1186,1.);
#750=VECTOR('',#1187,1.);
#751=VECTOR('',#1188,1.);
#752=VECTOR('',#1189,1.);
#753=VECTOR('',#1192,1.);
#754=VECTOR('',#1193,1.);
#755=VECTOR('',#1194,1.);
#756=VECTOR('',#1195,1.);
#757=VECTOR('',#1196,1.);
#758=VECTOR('',#1199,1.);
#759=VECTOR('',#1200,1.);
#760=VECTOR('',#1201,1.);
#761=VECTOR('',#1204,1.);
#762=VECTOR('',#1205,1.);
#763=VECTOR('',#1206,1.);
#764=VECTOR('',#1209,1.);
#765=VECTOR('',#1210,1.);
#766=VECTOR('',#1211,1.);
#767=VECTOR('',#1212,1.);
#768=VECTOR('',#1213,1.);
#769=VECTOR('',#1214,1.);
#770=VECTOR('',#1217,1.);
#771=VECTOR('',#1218,1.);
#772=VECTOR('',#1219,1.);
#773=VECTOR('',#1220,1.);
#774=VECTOR('',#1221,1.);
#775=VECTOR('',#1224,1.);
#776=VECTOR('',#1225,1.);
#777=VECTOR('',#1226,1.);
#778=VECTOR('',#1227,1.);
#779=VECTOR('',#1228,1.);
#780=VECTOR('',#1229,1.);
#781=VECTOR('',#1232,1.);
#782=VECTOR('',#1233,1.);
#783=VECTOR('',#1236,1.);
#784=VECTOR('',#1237,1.);
#785=VECTOR('',#1238,1.);
#786=VECTOR('',#1241,1.);
#787=VECTOR('',#1242,1.);
#788=VECTOR('',#1245,1.);
#789=VECTOR('',#1246,1.);
#790=VECTOR('',#1247,1.);
#791=VECTOR('',#1248,1.);
#792=VECTOR('',#1251,1.);
#793=VECTOR('',#1252,1.);
#794=VECTOR('',#1253,1.);
#795=VECTOR('',#1254,1.);
#796=VECTOR('',#1257,1.);
#797=VECTOR('',#1258,1.);
#798=VECTOR('',#1259,1.);
#799=VECTOR('',#1260,1.);
#800=VECTOR('',#1261,1.);
#801=VECTOR('',#1262,1.);
#802=VECTOR('',#1263,1.);
#803=VECTOR('',#1264,1.);
#804=VECTOR('',#1265,1.);
#805=VECTOR('',#1266,1.);
#806=VECTOR('',#1267,1.);
#807=VECTOR('',#1268,1.);
#808=VECTOR('',#1269,1.);
#809=VECTOR('',#1270,1.);
#810=VECTOR('',#1271,1.);
#811=VECTOR('',#1272,1.);
#812=VECTOR('',#1273,1.);
#813=VECTOR('',#1274,1.);
#814=VECTOR('',#1275,1.);
#815=VECTOR('',#1276,1.);
#816=VECTOR('',#1277,1.);
#817=VECTOR('',#1278,1.);
#818=VECTOR('',#1279,1.);
#819=VECTOR('',#1282,1.);
#820=VECTOR('',#1283,1.);
#821=VECTOR('',#1284,1.);
#822=VECTOR('',#1287,1.);
#823=VECTOR('',#1288,1.);
#824=VECTOR('',#1291,1.);
#825=VECTOR('',#1292,1.);
#826=VECTOR('',#1293,1.);
#827=VECTOR('',#1296,1.);
#828=VECTOR('',#1297,1.);
#829=VECTOR('',#1300,1.);
#830=VECTOR('',#1303,1.);
#831=VECTOR('',#1308,1.);
#832=VECTOR('',#1311,1.);
#833=VECTOR('',#1314,1.);
#834=VECTOR('',#1317,1.);
#835=VECTOR('',#1328,1.);
#836=VECTOR('',#1329,1.);
#837=VECTOR('',#1332,1.);
#838=VECTOR('',#1335,1.);
#839=VECTOR('',#1338,1.);
#840=VECTOR('',#1343,1.);
#841=VECTOR('',#1344,1.);
#842=VECTOR('',#1351,1.);
#843=VECTOR('',#1352,1.);
#844=VECTOR('',#1359,1.);
#845=VECTOR('',#1360,1.);
#846=VECTOR('',#1361,1.);
#847=VECTOR('',#1364,1.);
#848=VECTOR('',#1369,1.);
#849=VECTOR('',#1370,1.);
#850=EDGE_LOOP('',(#12,#13,#14,#15,#16,#17));
#851=EDGE_LOOP('',(#18,#19,#20,#21));
#852=EDGE_LOOP('',(#22,#23,#24,#25));
#853=EDGE_LOOP('',(#26,#27,#28,#29));
#854=EDGE_LOOP('',(#30,#31,#32,#33));
#855=EDGE_LOOP('',(#34,#35,#36,#37));
#856=EDGE_LOOP('',(#38,#39,#40,#41,#42,#43,#44,#45,#46,#47,#48,#49,#50,
#51,#52,#53,#54,#55,#56,#57,#58,#59,#60,#61,#62,#63,#64,#65,#66,#67));
#857=EDGE_LOOP('',(#68,#69,#70,#71,#72,#73));
#858=EDGE_LOOP('',(#74,#75,#76,#77));
#859=EDGE_LOOP('',(#78,#79,#80,#81));
#860=EDGE_LOOP('',(#82,#83,#84,#85,#86,#87));
#861=EDGE_LOOP('',(#88,#89,#90,#91,#92,#93));
#862=EDGE_LOOP('',(#94,#95,#96,#97,#98,#99));
#863=EDGE_LOOP('',(#100,#101,#102,#103));
#864=EDGE_LOOP('',(#104,#105,#106,#107));
#865=EDGE_LOOP('',(#108,#109,#110,#111));
#866=EDGE_LOOP('',(#112,#113,#114,#115,#116,#117));
#867=EDGE_LOOP('',(#118,#119,#120,#121,#122,#123));
#868=EDGE_LOOP('',(#124,#125,#126,#127,#128,#129,#130,#131,#132,#133,#134,
#135,#136,#137,#138,#139,#140,#141,#142,#143,#144,#145,#146,#147,#148,#149,
#150,#151,#152,#153,#154,#155));
#869=EDGE_LOOP('',(#156,#157,#158,#159));
#870=EDGE_LOOP('',(#160,#161,#162,#163,#164,#165,#166));
#871=EDGE_LOOP('',(#167,#168,#169,#170));
#872=EDGE_LOOP('',(#171,#172,#173,#174,#175,#176,#177));
#873=EDGE_LOOP('',(#178,#179,#180,#181,#182,#183));
#874=EDGE_LOOP('',(#184,#185,#186,#187,#188,#189));
#875=EDGE_LOOP('',(#190,#191,#192,#193,#194,#195,#196,#197));
#876=EDGE_LOOP('',(#198,#199,#200,#201));
#877=EDGE_LOOP('',(#202,#203,#204,#205,#206));
#878=EDGE_LOOP('',(#207,#208,#209,#210));
#879=EDGE_LOOP('',(#211,#212,#213,#214,#215));
#880=EDGE_LOOP('',(#216,#217,#218,#219));
#881=EDGE_LOOP('',(#220,#221,#222,#223));
#882=EDGE_LOOP('',(#224,#225,#226,#227));
#883=EDGE_LOOP('',(#228,#229,#230,#231));
#884=EDGE_LOOP('',(#232,#233,#234,#235));
#885=EDGE_LOOP('',(#236,#237,#238,#239));
#886=EDGE_LOOP('',(#240,#241,#242,#243));
#887=EDGE_LOOP('',(#244,#245,#246,#247));
#888=EDGE_LOOP('',(#248,#249,#250,#251));
#889=EDGE_LOOP('',(#252,#253,#254,#255));
#890=EDGE_LOOP('',(#256,#257,#258,#259));
#891=EDGE_LOOP('',(#260,#261,#262,#263));
#892=EDGE_LOOP('',(#264,#265,#266,#267));
#893=EDGE_LOOP('',(#268,#269,#270,#271));
#894=EDGE_LOOP('',(#272,#273,#274,#275));
#895=EDGE_LOOP('',(#276,#277,#278,#279,#280,#281,#282,#283));
#896=EDGE_LOOP('',(#284,#285,#286,#287));
#897=EDGE_LOOP('',(#288,#289,#290,#291));
#898=EDGE_LOOP('',(#292,#293,#294,#295));
#899=EDGE_LOOP('',(#296,#297,#298,#299));
#900=EDGE_LOOP('',(#300,#301,#302,#303));
#901=EDGE_LOOP('',(#304,#305,#306,#307));
#902=FACE_BOUND('',#850,.T.);
#903=FACE_BOUND('',#851,.T.);
#904=FACE_BOUND('',#852,.T.);
#905=FACE_BOUND('',#853,.T.);
#906=FACE_BOUND('',#854,.T.);
#907=FACE_BOUND('',#855,.T.);
#908=FACE_BOUND('',#856,.T.);
#909=FACE_BOUND('',#857,.T.);
#910=FACE_BOUND('',#858,.T.);
#911=FACE_BOUND('',#859,.T.);
#912=FACE_BOUND('',#860,.T.);
#913=FACE_BOUND('',#861,.T.);
#914=FACE_BOUND('',#862,.T.);
#915=FACE_BOUND('',#863,.T.);
#916=FACE_BOUND('',#864,.T.);
#917=FACE_BOUND('',#865,.T.);
#918=FACE_BOUND('',#866,.T.);
#919=FACE_BOUND('',#867,.T.);
#920=FACE_BOUND('',#868,.T.);
#921=FACE_BOUND('',#869,.T.);
#922=FACE_BOUND('',#870,.T.);
#923=FACE_BOUND('',#871,.T.);
#924=FACE_BOUND('',#872,.T.);
#925=FACE_BOUND('',#873,.T.);
#926=FACE_BOUND('',#874,.T.);
#927=FACE_BOUND('',#875,.T.);
#928=FACE_BOUND('',#876,.T.);
#929=FACE_BOUND('',#877,.T.);
#930=FACE_BOUND('',#878,.T.);
#931=FACE_BOUND('',#879,.T.);
#932=FACE_BOUND('',#880,.T.);
#933=FACE_BOUND('',#881,.T.);
#934=FACE_BOUND('',#882,.T.);
#935=FACE_BOUND('',#883,.T.);
#936=FACE_BOUND('',#884,.T.);
#937=FACE_BOUND('',#885,.T.);
#938=FACE_BOUND('',#886,.T.);
#939=FACE_BOUND('',#887,.T.);
#940=FACE_BOUND('',#888,.T.);
#941=FACE_BOUND('',#889,.T.);
#942=FACE_BOUND('',#890,.T.);
#943=FACE_BOUND('',#891,.T.);
#944=FACE_BOUND('',#892,.T.);
#945=FACE_BOUND('',#893,.T.);
#946=FACE_BOUND('',#894,.T.);
#947=FACE_BOUND('',#895,.T.);
#948=FACE_BOUND('',#896,.T.);
#949=FACE_BOUND('',#897,.T.);
#950=FACE_BOUND('',#898,.T.);
#951=FACE_BOUND('',#899,.T.);
#952=FACE_BOUND('',#900,.T.);
#953=FACE_BOUND('',#901,.T.);
#954=PLANE('',#1071);
#955=PLANE('',#1072);
#956=PLANE('',#1073);
#957=PLANE('',#1074);
#958=PLANE('',#1075);
#959=PLANE('',#1076);
#960=PLANE('',#1077);
#961=PLANE('',#1078);
#962=PLANE('',#1079);
#963=PLANE('',#1080);
#964=PLANE('',#1081);
#965=PLANE('',#1082);
#966=PLANE('',#1083);
#967=PLANE('',#1084);
#968=PLANE('',#1085);
#969=PLANE('',#1086);
#970=PLANE('',#1087);
#971=PLANE('',#1088);
#972=PLANE('',#1089);
#973=PLANE('',#1090);
#974=PLANE('',#1091);
#975=PLANE('',#1092);
#976=PLANE('',#1093);
#977=PLANE('',#1094);
#978=PLANE('',#1095);
#979=PLANE('',#1096);
#980=PLANE('',#1097);
#981=PLANE('',#1098);
#982=PLANE('',#1099);
#983=PLANE('',#1100);
#984=PLANE('',#1101);
#985=PLANE('',#1102);
#986=PLANE('',#1103);
#987=PLANE('',#1104);
#988=PLANE('',#1105);
#989=PLANE('',#1106);
#990=PLANE('',#1107);
#991=PLANE('',#1108);
#992=PLANE('',#1109);
#993=PLANE('',#1110);
#994=PLANE('',#1111);
#995=PLANE('',#1112);
#996=PLANE('',#1113);
#997=PLANE('',#1114);
#998=PLANE('',#1115);
#999=PLANE('',#1116);
#1000=PLANE('',#1117);
#1001=PLANE('',#1118);
#1002=PLANE('',#1119);
#1003=PLANE('',#1120);
#1004=PLANE('',#1121);
#1005=PLANE('',#1122);
#1006=ADVANCED_FACE('',(#902),#954,.F.);
#1007=ADVANCED_FACE('',(#903),#955,.F.);
#1008=ADVANCED_FACE('',(#904),#956,.F.);
#1009=ADVANCED_FACE('',(#905),#957,.F.);
#1010=ADVANCED_FACE('',(#906),#958,.F.);
#1011=ADVANCED_FACE('',(#907),#959,.F.);
#1012=ADVANCED_FACE('',(#908),#960,.T.);
#1013=ADVANCED_FACE('',(#909),#961,.F.);
#1014=ADVANCED_FACE('',(#910),#962,.F.);
#1015=ADVANCED_FACE('',(#911),#963,.T.);
#1016=ADVANCED_FACE('',(#912),#964,.F.);
#1017=ADVANCED_FACE('',(#913),#965,.F.);
#1018=ADVANCED_FACE('',(#914),#966,.T.);
#1019=ADVANCED_FACE('',(#915),#967,.F.);
#1020=ADVANCED_FACE('',(#916),#968,.T.);
#1021=ADVANCED_FACE('',(#917),#969,.F.);
#1022=ADVANCED_FACE('',(#918),#970,.F.);
#1023=ADVANCED_FACE('',(#919),#971,.T.);
#1024=ADVANCED_FACE('',(#920),#972,.T.);
#1025=ADVANCED_FACE('',(#921),#973,.T.);
#1026=ADVANCED_FACE('',(#922),#974,.T.);
#1027=ADVANCED_FACE('',(#923),#975,.T.);
#1028=ADVANCED_FACE('',(#924),#976,.F.);
#1029=ADVANCED_FACE('',(#925),#977,.T.);
#1030=ADVANCED_FACE('',(#926),#978,.F.);
#1031=ADVANCED_FACE('',(#927),#979,.T.);
#1032=ADVANCED_FACE('',(#928),#980,.T.);
#1033=ADVANCED_FACE('',(#929),#981,.F.);
#1034=ADVANCED_FACE('',(#930),#982,.F.);
#1035=ADVANCED_FACE('',(#931),#983,.F.);
#1036=ADVANCED_FACE('',(#932),#984,.F.);
#1037=ADVANCED_FACE('',(#933),#985,.T.);
#1038=ADVANCED_FACE('',(#934),#986,.T.);
#1039=ADVANCED_FACE('',(#935),#987,.F.);
#1040=ADVANCED_FACE('',(#936),#988,.T.);
#1041=ADVANCED_FACE('',(#937),#989,.F.);
#1042=ADVANCED_FACE('',(#938),#990,.T.);
#1043=ADVANCED_FACE('',(#939),#991,.F.);
#1044=ADVANCED_FACE('',(#940),#992,.F.);
#1045=ADVANCED_FACE('',(#941),#993,.F.);
#1046=ADVANCED_FACE('',(#942),#994,.F.);
#1047=ADVANCED_FACE('',(#943),#995,.T.);
#1048=ADVANCED_FACE('',(#944),#996,.F.);
#1049=ADVANCED_FACE('',(#945),#997,.F.);
#1050=ADVANCED_FACE('',(#946),#998,.T.);
#1051=ADVANCED_FACE('',(#947),#999,.F.);
#1052=ADVANCED_FACE('',(#948),#1000,.F.);
#1053=ADVANCED_FACE('',(#949),#1001,.T.);
#1054=ADVANCED_FACE('',(#950),#1002,.F.);
#1055=ADVANCED_FACE('',(#951),#1003,.F.);
#1056=ADVANCED_FACE('',(#952),#1004,.T.);
#1057=ADVANCED_FACE('',(#953),#1005,.T.);
#1058=CLOSED_SHELL('',(#1006,#1007,#1008,#1009,#1010,#1011,#1012,#1013,
#1014,#1015,#1016,#1017,#1018,#1019,#1020,#1021,#1022,#1023,#1024,#1025,
#1026,#1027,#1028,#1029,#1030,#1031,#1032,#1033,#1034,#1035,#1036,#1037,
#1038,#1039,#1040,#1041,#1042,#1043,#1044,#1045,#1046,#1047,#1048,#1049,
#1050,#1051,#1052,#1053,#1054,#1055,#1056,#1057));
#1059=STYLED_ITEM('',(#1060),#1067);
#1060=PRESENTATION_STYLE_ASSIGNMENT((#1061));
#1061=SURFACE_STYLE_USAGE(.BOTH.,#1062);
#1062=SURFACE_SIDE_STYLE('',(#1063));
#1063=SURFACE_STYLE_FILL_AREA(#1064);
#1064=FILL_AREA_STYLE('',(#1065));
#1065=FILL_AREA_STYLE_COLOUR('',#1066);
#1066=COLOUR_RGB('',0.615686274509804,0.811764705882353,0.929411764705882);
#1067=MANIFOLD_SOLID_BREP('Part 1',#1058);
#1068=SHAPE_DEFINITION_REPRESENTATION(#1682,#1069);
#1069=SHAPE_REPRESENTATION('Part 1',(#1070),#1677);
#1070=AXIS2_PLACEMENT_3D('',#1377,#1123,#1124);
#1071=AXIS2_PLACEMENT_3D('',#1378,#1125,#1126);
#1072=AXIS2_PLACEMENT_3D('',#1391,#1133,#1134);
#1073=AXIS2_PLACEMENT_3D('',#1400,#1139,#1140);
#1074=AXIS2_PLACEMENT_3D('',#1409,#1145,#1146);
#1075=AXIS2_PLACEMENT_3D('',#1418,#1151,#1152);
#1076=AXIS2_PLACEMENT_3D('',#1427,#1157,#1158);
#1077=AXIS2_PLACEMENT_3D('',#1436,#1163,#1164);
#1078=AXIS2_PLACEMENT_3D('',#1482,#1190,#1191);
#1079=AXIS2_PLACEMENT_3D('',#1492,#1197,#1198);
#1080=AXIS2_PLACEMENT_3D('',#1498,#1202,#1203);
#1081=AXIS2_PLACEMENT_3D('',#1504,#1207,#1208);
#1082=AXIS2_PLACEMENT_3D('',#1517,#1215,#1216);
#1083=AXIS2_PLACEMENT_3D('',#1527,#1222,#1223);
#1084=AXIS2_PLACEMENT_3D('',#1540,#1230,#1231);
#1085=AXIS2_PLACEMENT_3D('',#1543,#1234,#1235);
#1086=AXIS2_PLACEMENT_3D('',#1549,#1239,#1240);
#1087=AXIS2_PLACEMENT_3D('',#1552,#1243,#1244);
#1088=AXIS2_PLACEMENT_3D('',#1560,#1249,#1250);
#1089=AXIS2_PLACEMENT_3D('',#1568,#1255,#1256);
#1090=AXIS2_PLACEMENT_3D('',#1606,#1280,#1281);
#1091=AXIS2_PLACEMENT_3D('',#1612,#1285,#1286);
#1092=AXIS2_PLACEMENT_3D('',#1615,#1289,#1290);
#1093=AXIS2_PLACEMENT_3D('',#1621,#1294,#1295);
#1094=AXIS2_PLACEMENT_3D('',#1624,#1298,#1299);
#1095=AXIS2_PLACEMENT_3D('',#1626,#1301,#1302);
#1096=AXIS2_PLACEMENT_3D('',#1628,#1304,#1305);
#1097=AXIS2_PLACEMENT_3D('',#1629,#1306,#1307);
#1098=AXIS2_PLACEMENT_3D('',#1631,#1309,#1310);
#1099=AXIS2_PLACEMENT_3D('',#1633,#1312,#1313);
#1100=AXIS2_PLACEMENT_3D('',#1635,#1315,#1316);
#1101=AXIS2_PLACEMENT_3D('',#1637,#1318,#1319);
#1102=AXIS2_PLACEMENT_3D('',#1638,#1320,#1321);
#1103=AXIS2_PLACEMENT_3D('',#1639,#1322,#1323);
#1104=AXIS2_PLACEMENT_3D('',#1640,#1324,#1325);
#1105=AXIS2_PLACEMENT_3D('',#1641,#1326,#1327);
#1106=AXIS2_PLACEMENT_3D('',#1645,#1330,#1331);
#1107=AXIS2_PLACEMENT_3D('',#1647,#1333,#1334);
#1108=AXIS2_PLACEMENT_3D('',#1649,#1336,#1337);
#1109=AXIS2_PLACEMENT_3D('',#1651,#1339,#1340);
#1110=AXIS2_PLACEMENT_3D('',#1652,#1341,#1342);
#1111=AXIS2_PLACEMENT_3D('',#1655,#1345,#1346);
#1112=AXIS2_PLACEMENT_3D('',#1656,#1347,#1348);
#1113=AXIS2_PLACEMENT_3D('',#1657,#1349,#1350);
#1114=AXIS2_PLACEMENT_3D('',#1660,#1353,#1354);
#1115=AXIS2_PLACEMENT_3D('',#1661,#1355,#1356);
#1116=AXIS2_PLACEMENT_3D('',#1662,#1357,#1358);
#1117=AXIS2_PLACEMENT_3D('',#1667,#1362,#1363);
#1118=AXIS2_PLACEMENT_3D('',#1669,#1365,#1366);
#1119=AXIS2_PLACEMENT_3D('',#1670,#1367,#1368);
#1120=AXIS2_PLACEMENT_3D('',#1673,#1371,#1372);
#1121=AXIS2_PLACEMENT_3D('',#1674,#1373,#1374);
#1122=AXIS2_PLACEMENT_3D('',#1675,#1375,#1376);
#1123=DIRECTION('',(0.,0.,1.));
#1124=DIRECTION('',(1.,0.,0.));
#1125=DIRECTION('',(-1.,0.,0.));
#1126=DIRECTION('',(0.,1.,0.));
#1127=DIRECTION('',(0.,1.,0.));
#1128=DIRECTION('',(0.,0.,1.));
#1129=DIRECTION('',(0.,-1.,0.));
#1130=DIRECTION('',(0.,0.,1.));
#1131=DIRECTION('',(0.,1.,0.));
#1132=DIRECTION('',(0.,0.,1.));
#1133=DIRECTION('',(-1.,0.,0.));
#1134=DIRECTION('',(0.,1.,0.));
#1135=DIRECTION('',(0.,1.,0.));
#1136=DIRECTION('',(0.,0.,1.));
#1137=DIRECTION('',(0.,1.,0.));
#1138=DIRECTION('',(0.,0.,1.));
#1139=DIRECTION('',(-1.,0.,0.));
#1140=DIRECTION('',(0.,1.,0.));
#1141=DIRECTION('',(0.,0.,1.));
#1142=DIRECTION('',(0.,1.,0.));
#1143=DIRECTION('',(0.,0.,1.));
#1144=DIRECTION('',(0.,1.,0.));
#1145=DIRECTION('',(-1.,0.,0.));
#1146=DIRECTION('',(0.,1.,0.));
#1147=DIRECTION('',(0.,0.,1.));
#1148=DIRECTION('',(0.,1.,0.));
#1149=DIRECTION('',(0.,0.,1.));
#1150=DIRECTION('',(0.,1.,0.));
#1151=DIRECTION('',(-1.,0.,0.));
#1152=DIRECTION('',(0.,1.,0.));
#1153=DIRECTION('',(0.,0.,1.));
#1154=DIRECTION('',(0.,1.,0.));
#1155=DIRECTION('',(0.,0.,1.));
#1156=DIRECTION('',(0.,1.,0.));
#1157=DIRECTION('',(-1.,0.,0.));
#1158=DIRECTION('',(0.,1.,0.));
#1159=DIRECTION('',(0.,0.,1.));
#1160=DIRECTION('',(0.,1.,0.));
#1161=DIRECTION('',(0.,0.,1.));
#1162=DIRECTION('',(0.,1.,0.));
#1163=DIRECTION('',(0.,1.,0.));
#1164=DIRECTION('',(1.,0.,0.));
#1165=DIRECTION('',(0.,0.,1.));
#1166=DIRECTION('',(-1.,0.,0.));
#1167=DIRECTION('',(-1.,0.,0.));
#1168=DIRECTION('',(0.,0.,1.));
#1169=DIRECTION('',(-1.,0.,0.));
#1170=DIRECTION('',(-1.,0.,0.));
#1171=DIRECTION('',(0.,0.,1.));
#1172=DIRECTION('',(-1.,0.,0.));
#1173=DIRECTION('',(-0.965925826289068,0.,-0.258819045102522));
#1174=DIRECTION('',(-1.,0.,-3.1540426835942E-16));
#1175=DIRECTION('',(0.,0.,-1.));
#1176=DIRECTION('',(-1.,0.,-2.31296463463574E-16));
#1177=DIRECTION('',(1.05134756119806E-16,0.,1.));
#1178=DIRECTION('',(-1.,0.,-4.62592926927149E-16));
#1179=DIRECTION('',(0.,0.,1.));
#1180=DIRECTION('',(-1.,0.,-3.1540426835942E-16));
#1181=DIRECTION('',(-0.965925826289068,0.,0.258819045102522));
#1182=DIRECTION('',(0.,0.,1.));
#1183=DIRECTION('',(-1.,0.,0.));
#1184=DIRECTION('',(0.,0.,1.));
#1185=DIRECTION('',(-1.,0.,0.));
#1186=DIRECTION('',(-1.,0.,0.));
#1187=DIRECTION('',(0.,0.,1.));
#1188=DIRECTION('',(-1.,0.,0.));
#1189=DIRECTION('',(-1.,0.,0.));
#1190=DIRECTION('',(-1.,0.,0.));
#1191=DIRECTION('',(0.,1.,0.));
#1192=DIRECTION('',(0.,0.,1.));
#1193=DIRECTION('',(0.,1.,0.));
#1194=DIRECTION('',(0.,-1.,0.));
#1195=DIRECTION('',(0.,0.,1.));
#1196=DIRECTION('',(0.,-1.,0.));
#1197=DIRECTION('',(3.1540426835942E-16,0.,-1.));
#1198=DIRECTION('',(-1.,0.,-3.1540426835942E-16));
#1199=DIRECTION('',(-1.,0.,-3.1540426835942E-16));
#1200=DIRECTION('',(0.,1.,0.));
#1201=DIRECTION('',(0.,1.,0.));
#1202=DIRECTION('',(3.1540426835942E-16,0.,-1.));
#1203=DIRECTION('',(-1.,0.,-3.1540426835942E-16));
#1204=DIRECTION('',(0.,-1.,0.));
#1205=DIRECTION('',(-1.,0.,-3.1540426835942E-16));
#1206=DIRECTION('',(0.,1.,0.));
#1207=DIRECTION('',(1.05134756119806E-16,0.,1.));
#1208=DIRECTION('',(1.,0.,-1.05134756119806E-16));
#1209=DIRECTION('',(0.,-1.,0.));
#1210=DIRECTION('',(0.996194698091746,0.0871557427476584,-1.0473468663172E-16));
#1211=DIRECTION('',(-1.,0.,1.05134756119806E-16));
#1212=DIRECTION('',(0.,1.,0.));
#1213=DIRECTION('',(-1.,0.,1.05134756119806E-16));
#1214=DIRECTION('',(0.707106781186547,-0.707106781186548,-7.4341498990709E-17));
#1215=DIRECTION('',(0.539053696423367,-0.842271400661511,-5.66732789089509E-17));
#1216=DIRECTION('',(-0.842271400661511,-0.539053696423367,0.));
#1217=DIRECTION('',(0.842271400661511,0.539053696423367,1.94814396249519E-16));
#1218=DIRECTION('',(-0.644210090037592,-0.412294457624059,0.644210090037591));
#1219=DIRECTION('',(1.05134756119806E-16,0.,1.));
#1220=DIRECTION('',(-0.644210090037591,-0.412294457624059,-0.644210090037592));
#1221=DIRECTION('',(0.842271400661511,0.539053696423367,3.89628792499038E-16));
#1222=DIRECTION('',(1.05134756119806E-16,0.,1.));
#1223=DIRECTION('',(1.,0.,-1.05134756119806E-16));
#1224=DIRECTION('',(-1.,0.,1.05134756119806E-16));
#1225=DIRECTION('',(-0.996194698091746,-0.0871557427476584,1.0473468663172E-16));
#1226=DIRECTION('',(0.,-1.,0.));
#1227=DIRECTION('',(-0.707106781186547,0.707106781186548,7.4341498990709E-17));
#1228=DIRECTION('',(1.,0.,-1.05134756119806E-16));
#1229=DIRECTION('',(0.,-1.,0.));
#1230=DIRECTION('',(-1.,0.,0.));
#1231=DIRECTION('',(0.,1.,0.));
#1232=DIRECTION('',(0.,0.,-1.));
#1233=DIRECTION('',(0.,0.,1.));
#1234=DIRECTION('',(-1.,0.,0.));
#1235=DIRECTION('',(0.,1.,0.));
#1236=DIRECTION('',(0.,-1.,0.));
#1237=DIRECTION('',(0.,0.,1.));
#1238=DIRECTION('',(0.,1.,0.));
#1239=DIRECTION('',(0.,1.,0.));
#1240=DIRECTION('',(1.,0.,0.));
#1241=DIRECTION('',(0.,0.,-1.));
#1242=DIRECTION('',(0.,0.,1.));
#1243=DIRECTION('',(-1.,0.,0.));
#1244=DIRECTION('',(0.,1.,0.));
#1245=DIRECTION('',(0.,1.,0.));
#1246=DIRECTION('',(0.,0.,1.));
#1247=DIRECTION('',(0.,-1.,0.));
#1248=DIRECTION('',(0.,0.,1.));
#1249=DIRECTION('',(1.,0.,0.));
#1250=DIRECTION('',(0.,-1.,0.));
#1251=DIRECTION('',(0.,0.,1.));
#1252=DIRECTION('',(0.,-1.,0.));
#1253=DIRECTION('',(0.,0.,-1.));
#1254=DIRECTION('',(0.,1.,0.));
#1255=DIRECTION('',(0.,1.,0.));
#1256=DIRECTION('',(1.,0.,0.));
#1257=DIRECTION('',(1.,0.,0.));
#1258=DIRECTION('',(1.,0.,0.));
#1259=DIRECTION('',(0.,0.,-1.));
#1260=DIRECTION('',(1.,0.,0.));
#1261=DIRECTION('',(1.,0.,0.));
#1262=DIRECTION('',(0.,0.,-1.));
#1263=DIRECTION('',(1.,0.,0.));
#1264=DIRECTION('',(1.,0.,0.));
#1265=DIRECTION('',(0.,0.,-1.));
#1266=DIRECTION('',(1.,0.,0.));
#1267=DIRECTION('',(1.,0.,0.));
#1268=DIRECTION('',(0.,0.,-1.));
#1269=DIRECTION('',(1.,0.,0.));
#1270=DIRECTION('',(1.,0.,0.));
#1271=DIRECTION('',(0.,0.,-1.));
#1272=DIRECTION('',(1.,0.,0.));
#1273=DIRECTION('',(1.,0.,0.));
#1274=DIRECTION('',(0.,0.,-1.));
#1275=DIRECTION('',(1.,0.,0.));
#1276=DIRECTION('',(1.,0.,0.));
#1277=DIRECTION('',(-1.,0.,-2.72113486427734E-16));
#1278=DIRECTION('',(0.,0.,-1.));
#1279=DIRECTION('',(-1.,0.,-3.40141858034668E-16));
#1280=DIRECTION('',(0.,1.,0.));
#1281=DIRECTION('',(1.,0.,0.));
#1282=DIRECTION('',(1.,0.,2.31296463463574E-16));
#1283=DIRECTION('',(0.,0.,-1.));
#1284=DIRECTION('',(-0.707106781186548,0.,0.707106781186548));
#1285=DIRECTION('',(2.31296463463574E-16,0.,-1.));
#1286=DIRECTION('',(-1.,0.,-2.31296463463574E-16));
#1287=DIRECTION('',(0.707106781186548,-0.707106781186548,1.6355129777956E-16));
#1288=DIRECTION('',(0.,1.,0.));
#1289=DIRECTION('',(0.,1.,0.));
#1290=DIRECTION('',(1.,0.,0.));
#1291=DIRECTION('',(0.,0.,-1.));
#1292=DIRECTION('',(1.,0.,4.62592926927149E-16));
#1293=DIRECTION('',(-0.707106781186547,0.,-0.707106781186548));
#1294=DIRECTION('',(4.62592926927149E-16,0.,-1.));
#1295=DIRECTION('',(-1.,0.,-4.62592926927149E-16));
#1296=DIRECTION('',(-0.707106781186548,0.707106781186548,-3.2710259555912E-16));
#1297=DIRECTION('',(0.,1.,0.));
#1298=DIRECTION('',(-0.707106781186548,0.,-0.707106781186548));
#1299=DIRECTION('',(0.,1.,0.));
#1300=DIRECTION('',(-0.705757556807952,0.0617457854184492,0.705757556807952));
#1301=DIRECTION('',(0.707106781186548,0.,-0.707106781186547));
#1302=DIRECTION('',(0.,-1.,0.));
#1303=DIRECTION('',(-0.705757556807952,0.0617457854184492,-0.705757556807952));
#1304=DIRECTION('',(0.707106781186548,0.707106781186547,0.));
#1305=DIRECTION('',(0.,0.,1.));
#1306=DIRECTION('',(0.,0.,-1.));
#1307=DIRECTION('',(0.,1.,0.));
#1308=DIRECTION('',(1.,0.,0.));
#1309=DIRECTION('',(0.,1.,0.));
#1310=DIRECTION('',(1.,0.,0.));
#1311=DIRECTION('',(0.965925826289068,0.,0.258819045102522));
#1312=DIRECTION('',(0.,0.,-1.));
#1313=DIRECTION('',(0.,1.,0.));
#1314=DIRECTION('',(1.,0.,0.));
#1315=DIRECTION('',(0.,1.,0.));
#1316=DIRECTION('',(1.,0.,0.));
#1317=DIRECTION('',(0.965925826289068,0.,-0.258819045102522));
#1318=DIRECTION('',(-0.258819045102522,0.,-0.965925826289068));
#1319=DIRECTION('',(0.,1.,0.));
#1320=DIRECTION('',(0.258819045102522,0.,-0.965925826289068));
#1321=DIRECTION('',(0.,-1.,0.));
#1322=DIRECTION('',(-0.0871557427476584,-0.996194698091745,0.));
#1323=DIRECTION('',(0.,0.,1.));
#1324=DIRECTION('',(-0.0871557427476584,0.996194698091745,0.));
#1325=DIRECTION('',(0.,0.,-1.));
#1326=DIRECTION('',(0.,0.,-1.));
#1327=DIRECTION('',(0.,1.,0.));
#1328=DIRECTION('',(-1.,0.,0.));
#1329=DIRECTION('',(0.,1.,0.));
#1330=DIRECTION('',(0.,0.,-1.));
#1331=DIRECTION('',(0.,1.,0.));
#1332=DIRECTION('',(0.,1.,0.));
#1333=DIRECTION('',(0.,0.,-1.));
#1334=DIRECTION('',(0.,1.,0.));
#1335=DIRECTION('',(0.,1.,0.));
#1336=DIRECTION('',(-1.,0.,0.));
#1337=DIRECTION('',(0.,1.,0.));
#1338=DIRECTION('',(0.,1.,0.));
#1339=DIRECTION('',(0.,0.,-1.));
#1340=DIRECTION('',(0.,1.,0.));
#1341=DIRECTION('',(-1.,0.,0.));
#1342=DIRECTION('',(0.,1.,0.));
#1343=DIRECTION('',(0.,1.,0.));
#1344=DIRECTION('',(0.,1.,0.));
#1345=DIRECTION('',(0.,0.,-1.));
#1346=DIRECTION('',(0.,1.,0.));
#1347=DIRECTION('',(0.,0.,-1.));
#1348=DIRECTION('',(0.,1.,0.));
#1349=DIRECTION('',(-1.,0.,0.));
#1350=DIRECTION('',(0.,1.,0.));
#1351=DIRECTION('',(0.,1.,0.));
#1352=DIRECTION('',(0.,1.,0.));
#1353=DIRECTION('',(0.,0.,-1.));
#1354=DIRECTION('',(0.,1.,0.));
#1355=DIRECTION('',(0.,0.,-1.));
#1356=DIRECTION('',(0.,1.,0.));
#1357=DIRECTION('',(-1.,0.,0.));
#1358=DIRECTION('',(0.,1.,0.));
#1359=DIRECTION('',(0.,1.,0.));
#1360=DIRECTION('',(0.,0.,1.));
#1361=DIRECTION('',(0.,1.,0.));
#1362=DIRECTION('',(0.,0.,-1.));
#1363=DIRECTION('',(0.,1.,0.));
#1364=DIRECTION('',(-1.,0.,0.));
#1365=DIRECTION('',(0.,0.,-1.));
#1366=DIRECTION('',(0.,1.,0.));
#1367=DIRECTION('',(-1.,0.,0.));
#1368=DIRECTION('',(0.,1.,0.));
#1369=DIRECTION('',(0.,1.,0.));
#1370=DIRECTION('',(0.,1.,0.));
#1371=DIRECTION('',(0.,0.,-1.));
#1372=DIRECTION('',(0.,1.,0.));
#1373=DIRECTION('',(0.,0.,-1.));
#1374=DIRECTION('',(0.,1.,0.));
#1375=DIRECTION('',(0.,1.,0.));
#1376=DIRECTION('',(1.,0.,0.));
#1377=CARTESIAN_POINT('',(0.,0.,0.));
#1378=CARTESIAN_POINT('',(0.041,0.033,-0.014));
#1379=CARTESIAN_POINT('',(0.041,0.032998,-0.01685));
#1380=CARTESIAN_POINT('',(0.041,0.033,-0.01685));
#1381=CARTESIAN_POINT('',(0.041,0.045,-0.01685));
#1382=CARTESIAN_POINT('',(0.041,0.033,-0.014));
#1383=CARTESIAN_POINT('',(0.041,0.033,-0.023));
#1384=CARTESIAN_POINT('',(0.041,0.287817621135332,-0.023));
#1385=CARTESIAN_POINT('',(0.041,0.04,-0.023));
#1386=CARTESIAN_POINT('',(0.041,0.04,-0.014));
#1387=CARTESIAN_POINT('',(0.041,0.04,-0.0239807621135332));
#1388=CARTESIAN_POINT('',(0.041,0.045,-0.0239807621135332));
#1389=CARTESIAN_POINT('',(0.041,0.045,-0.0239807621135332));
#1390=CARTESIAN_POINT('',(0.041,0.045,-0.014));
#1391=CARTESIAN_POINT('',(0.041,0.033,-0.014));
#1392=CARTESIAN_POINT('',(0.041,0.032998,-0.00415));
#1393=CARTESIAN_POINT('',(0.041,0.033,-0.00415));
#1394=CARTESIAN_POINT('',(0.041,0.043,-0.00415));
#1395=CARTESIAN_POINT('',(0.041,0.043,-0.014));
#1396=CARTESIAN_POINT('',(0.041,0.043,0.00415));
#1397=CARTESIAN_POINT('',(0.041,0.032998,0.00415));
#1398=CARTESIAN_POINT('',(0.041,0.033,0.00415));
#1399=CARTESIAN_POINT('',(0.041,0.033,-0.014));
#1400=CARTESIAN_POINT('',(0.041,0.033,-0.014));
#1401=CARTESIAN_POINT('',(0.041,0.033,-0.014));
#1402=CARTESIAN_POINT('',(0.041,0.033,-0.01465));
#1403=CARTESIAN_POINT('',(0.041,0.033,-0.0116));
#1404=CARTESIAN_POINT('',(0.041,0.032998,-0.01465));
#1405=CARTESIAN_POINT('',(0.041,0.045,-0.01465));
#1406=CARTESIAN_POINT('',(0.041,0.045,-0.014));
#1407=CARTESIAN_POINT('',(0.041,0.045,-0.0116));
#1408=CARTESIAN_POINT('',(0.041,0.032998,-0.0116));
#1409=CARTESIAN_POINT('',(0.041,0.033,-0.014));
#1410=CARTESIAN_POINT('',(0.041,0.033,-0.014));
#1411=CARTESIAN_POINT('',(0.041,0.033,0.00635));
#1412=CARTESIAN_POINT('',(0.041,0.033,0.0094));
#1413=CARTESIAN_POINT('',(0.041,0.032998,0.00635));
#1414=CARTESIAN_POINT('',(0.041,0.045,0.00635));
#1415=CARTESIAN_POINT('',(0.041,0.045,-0.014));
#1416=CARTESIAN_POINT('',(0.041,0.045,0.0094));
#1417=CARTESIAN_POINT('',(0.041,0.032998,0.0094));
#1418=CARTESIAN_POINT('',(0.041,0.033,-0.014));
#1419=CARTESIAN_POINT('',(0.041,0.033,-0.014));
#1420=CARTESIAN_POINT('',(0.041,0.033,0.0116));
#1421=CARTESIAN_POINT('',(0.041,0.033,0.01465));
#1422=CARTESIAN_POINT('',(0.041,0.032998,0.0116));
#1423=CARTESIAN_POINT('',(0.041,0.045,0.0116));
#1424=CARTESIAN_POINT('',(0.041,0.045,-0.014));
#1425=CARTESIAN_POINT('',(0.041,0.045,0.01465));
#1426=CARTESIAN_POINT('',(0.041,0.032998,0.01465));
#1427=CARTESIAN_POINT('',(0.041,0.033,-0.014));
#1428=CARTESIAN_POINT('',(0.041,0.033,-0.014));
#1429=CARTESIAN_POINT('',(0.041,0.033,-0.0094));
#1430=CARTESIAN_POINT('',(0.041,0.033,-0.00635));
#1431=CARTESIAN_POINT('',(0.041,0.032998,-0.0094));
#1432=CARTESIAN_POINT('',(0.041,0.045,-0.0094));
#1433=CARTESIAN_POINT('',(0.041,0.045,-0.014));
#1434=CARTESIAN_POINT('',(0.041,0.045,-0.00635));
#1435=CARTESIAN_POINT('',(0.041,0.032998,-0.00635));
#1436=CARTESIAN_POINT('',(0.,0.045,0.));
#1437=CARTESIAN_POINT('',(0.027,0.045,0.00525));
#1438=CARTESIAN_POINT('',(0.027,0.045,-0.00635));
#1439=CARTESIAN_POINT('',(0.027,0.045,0.00635));
#1440=CARTESIAN_POINT('',(0.0375,0.045,-0.00635));
#1441=CARTESIAN_POINT('',(0.0305,0.045,-0.0094));
#1442=CARTESIAN_POINT('',(0.027,0.045,-0.0094));
#1443=CARTESIAN_POINT('',(0.027,0.045,-0.0105));
#1444=CARTESIAN_POINT('',(0.027,0.045,-0.0116));
#1445=CARTESIAN_POINT('',(0.0305,0.045,-0.0116));
#1446=CARTESIAN_POINT('',(0.0305,0.045,-0.01465));
#1447=CARTESIAN_POINT('',(0.027,0.045,-0.01465));
#1448=CARTESIAN_POINT('',(0.027,0.045,-0.01575));
#1449=CARTESIAN_POINT('',(0.027,0.045,-0.01685));
#1450=CARTESIAN_POINT('',(0.034,0.045,-0.01685));
#1451=CARTESIAN_POINT('',(0.00874166975080232,0.045,-0.0326243556529822));
#1452=CARTESIAN_POINT('',(0.026,0.045,-0.028));
#1453=CARTESIAN_POINT('',(0.0025,0.045,-0.028));
#1454=CARTESIAN_POINT('',(-0.036,0.045,-0.028));
#1455=CARTESIAN_POINT('',(-0.036,0.045,-0.031));
#1456=CARTESIAN_POINT('',(-0.036,0.045,-0.034));
#1457=CARTESIAN_POINT('',(-0.051,0.045,-0.034));
#1458=CARTESIAN_POINT('',(-0.041,0.045,-0.034));
#1459=CARTESIAN_POINT('',(-0.041,0.045,-0.120800487827029));
#1460=CARTESIAN_POINT('',(-0.041,0.045,0.034));
#1461=CARTESIAN_POINT('',(-0.051,0.045,0.034));
#1462=CARTESIAN_POINT('',(-0.036,0.045,0.034));
#1463=CARTESIAN_POINT('',(-0.036,0.045,0.031));
#1464=CARTESIAN_POINT('',(-0.036,0.045,0.028));
#1465=CARTESIAN_POINT('',(0.0025,0.045,0.028));
#1466=CARTESIAN_POINT('',(0.026,0.045,0.028));
#1467=CARTESIAN_POINT('',(0.00874166975080235,0.045,0.0326243556529822));
#1468=CARTESIAN_POINT('',(0.041,0.045,0.0239807621135332));
#1469=CARTESIAN_POINT('',(0.041,0.045,-0.014));
#1470=CARTESIAN_POINT('',(0.041,0.045,0.01685));
#1471=CARTESIAN_POINT('',(0.034,0.045,0.01685));
#1472=CARTESIAN_POINT('',(0.027,0.045,0.01685));
#1473=CARTESIAN_POINT('',(0.027,0.045,0.01575));
#1474=CARTESIAN_POINT('',(0.027,0.045,0.01465));
#1475=CARTESIAN_POINT('',(0.0375,0.045,0.01465));
#1476=CARTESIAN_POINT('',(0.0305,0.045,0.0116));
#1477=CARTESIAN_POINT('',(0.027,0.045,0.0116));
#1478=CARTESIAN_POINT('',(0.027,0.045,0.0105));
#1479=CARTESIAN_POINT('',(0.027,0.045,0.0094));
#1480=CARTESIAN_POINT('',(0.0305,0.045,0.0094));
#1481=CARTESIAN_POINT('',(0.0375,0.045,0.00635));
#1482=CARTESIAN_POINT('',(0.041,0.033,-0.014));
#1483=CARTESIAN_POINT('',(0.041,0.033,-0.014));
#1484=CARTESIAN_POINT('',(0.041,0.033,0.01685));
#1485=CARTESIAN_POINT('',(0.041,0.033,0.023));
#1486=CARTESIAN_POINT('',(0.041,0.032998,0.01685));
#1487=CARTESIAN_POINT('',(0.041,0.033,0.0239807621135332));
#1488=CARTESIAN_POINT('',(0.041,0.04,0.0239807621135332));
#1489=CARTESIAN_POINT('',(0.041,0.04,-0.014));
#1490=CARTESIAN_POINT('',(0.041,0.04,0.023));
#1491=CARTESIAN_POINT('',(0.041,0.287817621135332,0.023));
#1492=CARTESIAN_POINT('',(0.0025,0.033,0.028));
#1493=CARTESIAN_POINT('',(0.0025,0.04,0.028));
#1494=CARTESIAN_POINT('',(0.026,0.04,0.028));
#1495=CARTESIAN_POINT('',(-0.036,0.04,0.028));
#1496=CARTESIAN_POINT('',(0.026,0.033,0.028));
#1497=CARTESIAN_POINT('',(-0.036,0.033,0.028));
#1498=CARTESIAN_POINT('',(0.0025,0.033,-0.028));
#1499=CARTESIAN_POINT('',(0.026,0.04,-0.028));
#1500=CARTESIAN_POINT('',(0.026,0.04,-0.028));
#1501=CARTESIAN_POINT('',(0.0025,0.04,-0.028));
#1502=CARTESIAN_POINT('',(-0.036,0.04,-0.028));
#1503=CARTESIAN_POINT('',(-0.036,0.033,-0.028));
#1504=CARTESIAN_POINT('',(0.,0.045,-0.039));
#1505=CARTESIAN_POINT('',(0.066,0.045,-0.039));
#1506=CARTESIAN_POINT('',(0.066,0.021,-0.039));
#1507=CARTESIAN_POINT('',(0.066,0.0010498639623111,-0.039));
#1508=CARTESIAN_POINT('',(0.066,0.00104986396231109,-0.039));
#1509=CARTESIAN_POINT('',(0.054,0.,-0.039));
#1510=CARTESIAN_POINT('',(0.,0.,-0.039));
#1511=CARTESIAN_POINT('',(-0.054,0.,-0.039));
#1512=CARTESIAN_POINT('',(-0.054,0.029,-0.039));
#1513=CARTESIAN_POINT('',(-0.054,0.03,-0.039));
#1514=CARTESIAN_POINT('',(0.,0.03,-0.039));
#1515=CARTESIAN_POINT('',(0.057,0.03,-0.039));
#1516=CARTESIAN_POINT('',(0.054,0.033,-0.039));
#1517=CARTESIAN_POINT('',(-0.0535,0.037,-0.120800487827029));
#1518=CARTESIAN_POINT('',(-0.0535,0.037,-0.034));
#1519=CARTESIAN_POINT('',(-0.059,0.03348,-0.034));
#1520=CARTESIAN_POINT('',(-0.0617503320053121,0.0317197875166002,-0.0312496679946879));
#1521=CARTESIAN_POINT('',(-0.066,0.029,-0.027));
#1522=CARTESIAN_POINT('',(-0.066,0.029,-0.120800487827029));
#1523=CARTESIAN_POINT('',(-0.066,0.029,0.027));
#1524=CARTESIAN_POINT('',(-0.0517901726427623,0.0380942895086321,0.0412098273572378));
#1525=CARTESIAN_POINT('',(-0.059,0.03348,0.034));
#1526=CARTESIAN_POINT('',(-0.0535,0.037,0.034));
#1527=CARTESIAN_POINT('',(0.,0.045,0.039));
#1528=CARTESIAN_POINT('',(0.,0.,0.039));
#1529=CARTESIAN_POINT('',(0.054,0.,0.039));
#1530=CARTESIAN_POINT('',(-0.054,0.,0.039));
#1531=CARTESIAN_POINT('',(0.00431727466617633,-0.00434667523978181,0.039));
#1532=CARTESIAN_POINT('',(0.066,0.0010498639623111,0.039));
#1533=CARTESIAN_POINT('',(0.066,0.045,0.039));
#1534=CARTESIAN_POINT('',(0.066,0.021,0.039));
#1535=CARTESIAN_POINT('',(0.021,0.066,0.039));
#1536=CARTESIAN_POINT('',(0.057,0.03,0.039));
#1537=CARTESIAN_POINT('',(0.,0.03,0.039));
#1538=CARTESIAN_POINT('',(-0.054,0.03,0.039));
#1539=CARTESIAN_POINT('',(-0.054,0.045,0.039));
#1540=CARTESIAN_POINT('',(0.066,0.045,-6.93889390390723E-18));
#1541=CARTESIAN_POINT('',(0.066,0.00104986396231109,-6.93889390390723E-18));
#1542=CARTESIAN_POINT('',(0.066,0.021,0.034));
#1543=CARTESIAN_POINT('',(-0.066,0.045,6.93889390390723E-18));
#1544=CARTESIAN_POINT('',(-0.066,0.,-0.027));
#1545=CARTESIAN_POINT('',(-0.066,0.00104986396231109,-0.027));
#1546=CARTESIAN_POINT('',(-0.066,0.00104986396231109,0.027));
#1547=CARTESIAN_POINT('',(-0.066,0.00104986396231109,0.027));
#1548=CARTESIAN_POINT('',(-0.066,0.045,0.027));
#1549=CARTESIAN_POINT('',(0.,0.,0.));
#1550=CARTESIAN_POINT('',(-0.054,0.,-0.027));
#1551=CARTESIAN_POINT('',(0.054,0.,0.));
#1552=CARTESIAN_POINT('',(-0.036,0.033,0.031));
#1553=CARTESIAN_POINT('',(-0.036,0.033,0.034));
#1554=CARTESIAN_POINT('',(-0.036,0.033,0.034));
#1555=CARTESIAN_POINT('',(-0.036,0.033,0.031));
#1556=CARTESIAN_POINT('',(-0.036,0.033,0.023));
#1557=CARTESIAN_POINT('',(-0.036,0.287817621135332,0.023));
#1558=CARTESIAN_POINT('',(-0.036,0.04,0.023));
#1559=CARTESIAN_POINT('',(-0.036,0.04,0.0285));
#1560=CARTESIAN_POINT('',(-0.036,0.033,-0.031));
#1561=CARTESIAN_POINT('',(-0.036,0.04,-0.0285));
#1562=CARTESIAN_POINT('',(-0.036,0.04,-0.023));
#1563=CARTESIAN_POINT('',(-0.036,0.287817621135332,-0.023));
#1564=CARTESIAN_POINT('',(-0.036,0.033,-0.023));
#1565=CARTESIAN_POINT('',(-0.036,0.033,-0.031));
#1566=CARTESIAN_POINT('',(-0.036,0.033,-0.034));
#1567=CARTESIAN_POINT('',(-0.036,0.033,-0.034));
#1568=CARTESIAN_POINT('',(0.,0.033,0.));
#1569=CARTESIAN_POINT('',(0.009,0.033,-0.023));
#1570=CARTESIAN_POINT('',(0.034,0.033,-0.01685));
#1571=CARTESIAN_POINT('',(0.027,0.033,-0.01685));
#1572=CARTESIAN_POINT('',(0.027,0.033,-0.01575));
#1573=CARTESIAN_POINT('',(0.027,0.033,-0.01465));
#1574=CARTESIAN_POINT('',(0.0305,0.033,-0.01465));
#1575=CARTESIAN_POINT('',(0.0305,0.033,-0.0116));
#1576=CARTESIAN_POINT('',(0.027,0.033,-0.0116));
#1577=CARTESIAN_POINT('',(0.027,0.033,-0.0105));
#1578=CARTESIAN_POINT('',(0.027,0.033,-0.0094));
#1579=CARTESIAN_POINT('',(0.0305,0.033,-0.0094));
#1580=CARTESIAN_POINT('',(0.0375,0.033,-0.00635));
#1581=CARTESIAN_POINT('',(0.027,0.033,-0.00635));
#1582=CARTESIAN_POINT('',(0.027,0.033,-0.00525));
#1583=CARTESIAN_POINT('',(0.027,0.033,-0.00415));
#1584=CARTESIAN_POINT('',(0.0375,0.033,-0.00415));
#1585=CARTESIAN_POINT('',(0.0375,0.033,0.00415));
#1586=CARTESIAN_POINT('',(0.027,0.033,0.00415));
#1587=CARTESIAN_POINT('',(0.027,0.033,0.00525));
#1588=CARTESIAN_POINT('',(0.027,0.033,0.00635));
#1589=CARTESIAN_POINT('',(0.0375,0.033,0.00635));
#1590=CARTESIAN_POINT('',(0.0305,0.033,0.0094));
#1591=CARTESIAN_POINT('',(0.027,0.033,0.0094));
#1592=CARTESIAN_POINT('',(0.027,0.033,0.0105));
#1593=CARTESIAN_POINT('',(0.027,0.033,0.0116));
#1594=CARTESIAN_POINT('',(0.0305,0.033,0.0116));
#1595=CARTESIAN_POINT('',(0.0375,0.033,0.01465));
#1596=CARTESIAN_POINT('',(0.027,0.033,0.01465));
#1597=CARTESIAN_POINT('',(0.027,0.033,0.01575));
#1598=CARTESIAN_POINT('',(0.027,0.033,0.01685));
#1599=CARTESIAN_POINT('',(0.034,0.033,0.01685));
#1600=CARTESIAN_POINT('',(0.009,0.033,0.023));
#1601=CARTESIAN_POINT('',(0.015,0.033,0.034));
#1602=CARTESIAN_POINT('',(0.054,0.033,0.034));
#1603=CARTESIAN_POINT('',(0.054,0.033,-0.034));
#1604=CARTESIAN_POINT('',(0.054,0.033,-0.034));
#1605=CARTESIAN_POINT('',(0.015,0.033,-0.034));
#1606=CARTESIAN_POINT('',(0.,0.03,0.));
#1607=CARTESIAN_POINT('',(-0.051,0.03,-0.034));
#1608=CARTESIAN_POINT('',(-0.059,0.03,-0.034));
#1609=CARTESIAN_POINT('',(0.057,0.03,-0.034));
#1610=CARTESIAN_POINT('',(0.057,0.03,0.));
#1611=CARTESIAN_POINT('',(-0.0465,0.03,-0.0465));
#1612=CARTESIAN_POINT('',(-0.051,-0.184817621135331,-0.034));
#1613=CARTESIAN_POINT('',(0.110408810567666,-0.0234088105676658,-0.034));
#1614=CARTESIAN_POINT('',(-0.059,-0.184817621135331,-0.034));
#1615=CARTESIAN_POINT('',(0.,0.03,0.));
#1616=CARTESIAN_POINT('',(0.057,0.03,0.));
#1617=CARTESIAN_POINT('',(0.057,0.03,0.034));
#1618=CARTESIAN_POINT('',(-0.051,0.03,0.034));
#1619=CARTESIAN_POINT('',(-0.059,0.03,0.034));
#1620=CARTESIAN_POINT('',(-0.0465,0.03,0.0465));
#1621=CARTESIAN_POINT('',(-0.051,-0.184817621135331,0.034));
#1622=CARTESIAN_POINT('',(0.054,0.033,0.034));
#1623=CARTESIAN_POINT('',(-0.059,0.045,0.034));
#1624=CARTESIAN_POINT('',(-0.066,0.045,-0.027));
#1625=CARTESIAN_POINT('',(-0.0679152394555018,0.00121742570260506,-0.0250847605444982));
#1626=CARTESIAN_POINT('',(-0.054,0.045,0.039));
#1627=CARTESIAN_POINT('',(-0.0559609899597051,0.000171564390762352,0.0370390100402949));
#1628=CARTESIAN_POINT('',(0.054,0.033,0.));
#1629=CARTESIAN_POINT('',(0.009,0.287817621135332,-0.023));
#1630=CARTESIAN_POINT('',(0.009,0.04,-0.023));
#1631=CARTESIAN_POINT('',(0.,0.04,0.));
#1632=CARTESIAN_POINT('',(0.041,0.04,-0.0239807621135332));
#1633=CARTESIAN_POINT('',(0.009,0.287817621135332,0.023));
#1634=CARTESIAN_POINT('',(0.009,0.04,0.023));
#1635=CARTESIAN_POINT('',(0.,0.04,0.));
#1636=CARTESIAN_POINT('',(0.026,0.04,0.028));
#1637=CARTESIAN_POINT('',(0.026,0.033,0.028));
#1638=CARTESIAN_POINT('',(0.041,0.033,-0.0239807621135332));
#1639=CARTESIAN_POINT('',(-0.054,0.,0.));
#1640=CARTESIAN_POINT('',(0.066,0.00104986396231109,-6.93889390390723E-18));
#1641=CARTESIAN_POINT('',(0.0375,0.032998,-0.00415));
#1642=CARTESIAN_POINT('',(0.0305,0.043,-0.00415));
#1643=CARTESIAN_POINT('',(0.027,0.043,-0.00415));
#1644=CARTESIAN_POINT('',(0.027,0.032998,-0.00415));
#1645=CARTESIAN_POINT('',(0.0375,0.032998,-0.00635));
#1646=CARTESIAN_POINT('',(0.027,0.032998,-0.00635));
#1647=CARTESIAN_POINT('',(0.034,0.032998,0.01685));
#1648=CARTESIAN_POINT('',(0.027,0.032998,0.01685));
#1649=CARTESIAN_POINT('',(0.027,0.032998,0.01575));
#1650=CARTESIAN_POINT('',(0.027,0.032998,0.01465));
#1651=CARTESIAN_POINT('',(0.0375,0.032998,0.01465));
#1652=CARTESIAN_POINT('',(0.027,0.032998,0.0105));
#1653=CARTESIAN_POINT('',(0.027,0.032998,0.0094));
#1654=CARTESIAN_POINT('',(0.027,0.032998,0.0116));
#1655=CARTESIAN_POINT('',(0.0305,0.032998,0.0094));
#1656=CARTESIAN_POINT('',(0.0305,0.032998,0.0116));
#1657=CARTESIAN_POINT('',(0.027,0.032998,-0.0105));
#1658=CARTESIAN_POINT('',(0.027,0.032998,-0.0116));
#1659=CARTESIAN_POINT('',(0.027,0.032998,-0.0094));
#1660=CARTESIAN_POINT('',(0.0305,0.032998,-0.0116));
#1661=CARTESIAN_POINT('',(0.0305,0.032998,-0.0094));
#1662=CARTESIAN_POINT('',(0.027,0.032998,0.00525));
#1663=CARTESIAN_POINT('',(0.027,0.032998,0.00415));
#1664=CARTESIAN_POINT('',(0.027,0.043,0.00415));
#1665=CARTESIAN_POINT('',(0.027,0.043,-0.002075));
#1666=CARTESIAN_POINT('',(0.027,0.032998,0.00635));
#1667=CARTESIAN_POINT('',(0.0375,0.032998,0.00415));
#1668=CARTESIAN_POINT('',(0.0305,0.043,0.00415));
#1669=CARTESIAN_POINT('',(0.0375,0.032998,0.00635));
#1670=CARTESIAN_POINT('',(0.027,0.032998,-0.01575));
#1671=CARTESIAN_POINT('',(0.027,0.032998,-0.01685));
#1672=CARTESIAN_POINT('',(0.027,0.032998,-0.01465));
#1673=CARTESIAN_POINT('',(0.034,0.032998,-0.01685));
#1674=CARTESIAN_POINT('',(0.0305,0.032998,-0.01465));
#1675=CARTESIAN_POINT('',(6.93889390390723E-18,0.043,-2.77555756156289E-17));
#1676=MECHANICAL_DESIGN_GEOMETRIC_PRESENTATION_REPRESENTATION('',(#1059),
#1677);
#1677=(
GEOMETRIC_REPRESENTATION_CONTEXT(3)
GLOBAL_UNCERTAINTY_ASSIGNED_CONTEXT((#1678))
GLOBAL_UNIT_ASSIGNED_CONTEXT((#1681,#1680,#1679))
REPRESENTATION_CONTEXT('Part 1','TOP_LEVEL_ASSEMBLY_PART')
);
#1678=UNCERTAINTY_MEASURE_WITH_UNIT(LENGTH_MEASURE(1.E-8),#1681,
'DISTANCE_ACCURACY_VALUE','Maximum Tolerance applied to model');
#1679=(
NAMED_UNIT(*)
SI_UNIT($,.STERADIAN.)
SOLID_ANGLE_UNIT()
);
#1680=(
NAMED_UNIT(*)
PLANE_ANGLE_UNIT()
SI_UNIT($,.RADIAN.)
);
#1681=(
LENGTH_UNIT()
NAMED_UNIT(*)
SI_UNIT($,.METRE.)
);
#1682=PRODUCT_DEFINITION_SHAPE('','',#1683);
#1683=PRODUCT_DEFINITION('','',#1685,#1684);
#1684=PRODUCT_DEFINITION_CONTEXT('',#1691,'design');
#1685=PRODUCT_DEFINITION_FORMATION_WITH_SPECIFIED_SOURCE('','',#1687,
 .NOT_KNOWN.);
#1686=PRODUCT_RELATED_PRODUCT_CATEGORY('','',(#1687));
#1687=PRODUCT('Part 1','Part 1','Part 1',(#1689));
#1688=PRODUCT_CATEGORY('','');
#1689=PRODUCT_CONTEXT('',#1691,'mechanical');
#1690=APPLICATION_PROTOCOL_DEFINITION('international standard',
'ap242_managed_model_based_3d_engineering',2020,#1691);
#1691=APPLICATION_CONTEXT('managed model based 3d engineering');
ENDSEC;
END-ISO-10303-21;
