ISO-10303-21;
HEADER;
/* Generated by software containing ST-Developer
 * from STEP Tools, Inc. (www.steptools.com) 
 */
/* OPTION: using custom renumber hook */

FILE_DESCRIPTION(
/* description */ ('STEP AP242 Edition 2',
'CAx-IF Rec.Pracs.---Representation and Presentation of Product Manufa
cturing Information (PMI)---4.0---2014-10-13',
'CAx-IF Rec.Pracs.---3D Tessellated Geometry---0.4---2014-09-14','2;1',
'CAx-IF Rec.Pracs.---User Defined Attributes---1.5---2016-08-15'),
/* implementation_level */ '2;1');

FILE_NAME(
/* name */ 'ARCADA001 - Part 1 (9)',
/* time_stamp */ '2026-07-17T02:50:55Z',
/* author */ (''),
/* organization */ (''),
/* preprocessor_version */ 'ST-DEVELOPER v20',
/* originating_system */ 'ONSHAPE BY PTC INC, 1.217',
/* authorisation */ '  ');

FILE_SCHEMA (('AP242_MANAGED_MODEL_BASED_3D_ENGINEERING_MIM_LF { 1 0 10303 442 3 1 4 }'));
ENDSEC;

DATA;
#10=SHAPE_REPRESENTATION_RELATIONSHIP('','',#111,#11);
#11=ADVANCED_BREP_SHAPE_REPRESENTATION('',(#109),#171);
#12=TOROIDAL_SURFACE('',#123,0.07015,0.003);
#13=TOROIDAL_SURFACE('',#124,0.071,0.003);
#14=PLANE('',#119);
#15=PLANE('',#122);
#16=OVER_RIDING_STYLED_ITEM('',(#84),#77,#82);
#17=OVER_RIDING_STYLED_ITEM('',(#85),#79,#82);
#18=OVER_RIDING_STYLED_ITEM('',(#86),#80,#82);
#19=ORIENTED_EDGE('',*,*,#31,.T.);
#20=ORIENTED_EDGE('',*,*,#32,.F.);
#21=ORIENTED_EDGE('',*,*,#33,.T.);
#22=ORIENTED_EDGE('',*,*,#34,.T.);
#23=ORIENTED_EDGE('',*,*,#35,.T.);
#24=ORIENTED_EDGE('',*,*,#36,.T.);
#25=ORIENTED_EDGE('',*,*,#32,.T.);
#26=ORIENTED_EDGE('',*,*,#34,.F.);
#27=ORIENTED_EDGE('',*,*,#35,.F.);
#28=ORIENTED_EDGE('',*,*,#31,.F.);
#29=ORIENTED_EDGE('',*,*,#33,.F.);
#30=ORIENTED_EDGE('',*,*,#36,.F.);
#31=EDGE_CURVE('',#37,#37,#43,.T.);
#32=EDGE_CURVE('',#38,#38,#44,.T.);
#33=EDGE_CURVE('',#39,#39,#45,.F.);
#34=EDGE_CURVE('',#40,#40,#46,.T.);
#35=EDGE_CURVE('',#41,#41,#47,.F.);
#36=EDGE_CURVE('',#42,#42,#48,.T.);
#37=VERTEX_POINT('',#154);
#38=VERTEX_POINT('',#156);
#39=VERTEX_POINT('',#159);
#40=VERTEX_POINT('',#161);
#41=VERTEX_POINT('',#164);
#42=VERTEX_POINT('',#166);
#43=CIRCLE('',#114,0.06715);
#44=CIRCLE('',#115,0.06715);
#45=CIRCLE('',#117,0.074);
#46=CIRCLE('',#118,0.074);
#47=CIRCLE('',#120,0.07015);
#48=CIRCLE('',#121,0.071);
#49=EDGE_LOOP('',(#19));
#50=EDGE_LOOP('',(#20));
#51=EDGE_LOOP('',(#21));
#52=EDGE_LOOP('',(#22));
#53=EDGE_LOOP('',(#23));
#54=EDGE_LOOP('',(#24));
#55=EDGE_LOOP('',(#25));
#56=EDGE_LOOP('',(#26));
#57=EDGE_LOOP('',(#27));
#58=EDGE_LOOP('',(#28));
#59=EDGE_LOOP('',(#29));
#60=EDGE_LOOP('',(#30));
#61=FACE_BOUND('',#49,.T.);
#62=FACE_BOUND('',#50,.T.);
#63=FACE_BOUND('',#51,.T.);
#64=FACE_BOUND('',#52,.T.);
#65=FACE_BOUND('',#53,.T.);
#66=FACE_BOUND('',#54,.T.);
#67=FACE_BOUND('',#55,.T.);
#68=FACE_BOUND('',#56,.T.);
#69=FACE_BOUND('',#57,.T.);
#70=FACE_BOUND('',#58,.T.);
#71=FACE_BOUND('',#59,.T.);
#72=FACE_BOUND('',#60,.T.);
#73=CYLINDRICAL_SURFACE('',#113,0.06715);
#74=CYLINDRICAL_SURFACE('',#116,0.074);
#75=ADVANCED_FACE('',(#61,#62),#73,.F.);
#76=ADVANCED_FACE('',(#63,#64),#74,.T.);
#77=ADVANCED_FACE('',(#65,#66),#14,.T.);
#78=ADVANCED_FACE('',(#67,#68),#15,.F.);
#79=ADVANCED_FACE('',(#69,#70),#12,.T.);
#80=ADVANCED_FACE('',(#71,#72),#13,.T.);
#81=CLOSED_SHELL('',(#75,#76,#77,#78,#79,#80));
#82=STYLED_ITEM('',(#83),#109);
#83=PRESENTATION_STYLE_ASSIGNMENT((#87));
#84=PRESENTATION_STYLE_ASSIGNMENT((#88));
#85=PRESENTATION_STYLE_ASSIGNMENT((#89));
#86=PRESENTATION_STYLE_ASSIGNMENT((#90));
#87=SURFACE_STYLE_USAGE(.BOTH.,#91);
#88=SURFACE_STYLE_USAGE(.BOTH.,#92);
#89=SURFACE_STYLE_USAGE(.BOTH.,#93);
#90=SURFACE_STYLE_USAGE(.BOTH.,#94);
#91=SURFACE_SIDE_STYLE('',(#95));
#92=SURFACE_SIDE_STYLE('',(#96));
#93=SURFACE_SIDE_STYLE('',(#97));
#94=SURFACE_SIDE_STYLE('',(#98));
#95=SURFACE_STYLE_FILL_AREA(#99);
#96=SURFACE_STYLE_FILL_AREA(#100);
#97=SURFACE_STYLE_FILL_AREA(#101);
#98=SURFACE_STYLE_FILL_AREA(#102);
#99=FILL_AREA_STYLE('',(#103));
#100=FILL_AREA_STYLE('',(#104));
#101=FILL_AREA_STYLE('',(#105));
#102=FILL_AREA_STYLE('',(#106));
#103=FILL_AREA_STYLE_COLOUR('',#107);
#104=FILL_AREA_STYLE_COLOUR('',#108);
#105=FILL_AREA_STYLE_COLOUR('',#108);
#106=FILL_AREA_STYLE_COLOUR('',#108);
#107=COLOUR_RGB('',0.901960784313726,0.901960784313726,0.901960784313726);
#108=COLOUR_RGB('',0.325490196078431,0.529411764705882,0.752941176470588);
#109=MANIFOLD_SOLID_BREP('Part 1',#81);
#110=SHAPE_DEFINITION_REPRESENTATION(#176,#111);
#111=SHAPE_REPRESENTATION('Part 1',(#112),#171);
#112=AXIS2_PLACEMENT_3D('',#151,#125,#126);
#113=AXIS2_PLACEMENT_3D('',#152,#127,#128);
#114=AXIS2_PLACEMENT_3D('',#153,#129,#130);
#115=AXIS2_PLACEMENT_3D('',#155,#131,#132);
#116=AXIS2_PLACEMENT_3D('',#157,#133,#134);
#117=AXIS2_PLACEMENT_3D('',#158,#135,#136);
#118=AXIS2_PLACEMENT_3D('',#160,#137,#138);
#119=AXIS2_PLACEMENT_3D('',#162,#139,#140);
#120=AXIS2_PLACEMENT_3D('',#163,#141,#142);
#121=AXIS2_PLACEMENT_3D('',#165,#143,#144);
#122=AXIS2_PLACEMENT_3D('',#167,#145,#146);
#123=AXIS2_PLACEMENT_3D('',#168,#147,#148);
#124=AXIS2_PLACEMENT_3D('',#169,#149,#150);
#125=DIRECTION('',(0.,0.,1.));
#126=DIRECTION('',(1.,0.,0.));
#127=DIRECTION('',(0.,-1.,0.));
#128=DIRECTION('',(-1.,0.,0.));
#129=DIRECTION('',(0.,1.,0.));
#130=DIRECTION('',(1.,0.,0.));
#131=DIRECTION('',(0.,1.,0.));
#132=DIRECTION('',(1.,0.,0.));
#133=DIRECTION('',(0.,-1.,0.));
#134=DIRECTION('',(-1.,0.,0.));
#135=DIRECTION('',(0.,1.,0.));
#136=DIRECTION('',(1.,0.,0.));
#137=DIRECTION('',(0.,1.,0.));
#138=DIRECTION('',(1.,0.,0.));
#139=DIRECTION('',(0.,1.,0.));
#140=DIRECTION('',(1.,0.,0.));
#141=DIRECTION('',(0.,1.,0.));
#142=DIRECTION('',(1.,0.,0.));
#143=DIRECTION('',(0.,1.,0.));
#144=DIRECTION('',(1.,0.,0.));
#145=DIRECTION('',(0.,1.,0.));
#146=DIRECTION('',(1.,0.,0.));
#147=DIRECTION('',(0.,1.,0.));
#148=DIRECTION('',(1.,0.,0.));
#149=DIRECTION('',(0.,1.,0.));
#150=DIRECTION('',(1.,0.,0.));
#151=CARTESIAN_POINT('',(0.,0.,0.));
#152=CARTESIAN_POINT('',(0.,0.014,-4.11175162813724E-18));
#153=CARTESIAN_POINT('',(0.,0.011,-4.11175162813724E-18));
#154=CARTESIAN_POINT('',(0.06715,0.011,-4.11175162813724E-18));
#155=CARTESIAN_POINT('',(0.,0.,-4.11175162813724E-18));
#156=CARTESIAN_POINT('',(0.06715,0.,-4.11175162813724E-18));
#157=CARTESIAN_POINT('',(0.,0.014,-4.53119315684521E-18));
#158=CARTESIAN_POINT('',(0.,0.011,-4.53119315684521E-18));
#159=CARTESIAN_POINT('',(0.074,0.011,-4.53119315684521E-18));
#160=CARTESIAN_POINT('',(0.,0.,-4.53119315684521E-18));
#161=CARTESIAN_POINT('',(0.074,0.,-4.53119315684521E-18));
#162=CARTESIAN_POINT('',(0.,0.014,0.));
#163=CARTESIAN_POINT('',(0.,0.014,-4.11175162813724E-18));
#164=CARTESIAN_POINT('',(0.07015,0.014,-4.11175162813724E-18));
#165=CARTESIAN_POINT('',(0.,0.014,-4.53119315684521E-18));
#166=CARTESIAN_POINT('',(0.071,0.014,-4.53119315684521E-18));
#167=CARTESIAN_POINT('',(0.,0.,0.));
#168=CARTESIAN_POINT('',(0.,0.011,-4.11175162813724E-18));
#169=CARTESIAN_POINT('',(0.,0.011,-4.53119315684521E-18));
#170=MECHANICAL_DESIGN_GEOMETRIC_PRESENTATION_REPRESENTATION('',(#82,#16,
#17,#18),#171);
#171=(
GEOMETRIC_REPRESENTATION_CONTEXT(3)
GLOBAL_UNCERTAINTY_ASSIGNED_CONTEXT((#172))
GLOBAL_UNIT_ASSIGNED_CONTEXT((#175,#174,#173))
REPRESENTATION_CONTEXT('Part 1','TOP_LEVEL_ASSEMBLY_PART')
);
#172=UNCERTAINTY_MEASURE_WITH_UNIT(LENGTH_MEASURE(1.E-8),#175,
'DISTANCE_ACCURACY_VALUE','Maximum Tolerance applied to model');
#173=(
NAMED_UNIT(*)
SI_UNIT($,.STERADIAN.)
SOLID_ANGLE_UNIT()
);
#174=(
NAMED_UNIT(*)
PLANE_ANGLE_UNIT()
SI_UNIT($,.RADIAN.)
);
#175=(
LENGTH_UNIT()
NAMED_UNIT(*)
SI_UNIT($,.METRE.)
);
#176=PRODUCT_DEFINITION_SHAPE('','',#177);
#177=PRODUCT_DEFINITION('','',#179,#178);
#178=PRODUCT_DEFINITION_CONTEXT('',#185,'design');
#179=PRODUCT_DEFINITION_FORMATION_WITH_SPECIFIED_SOURCE('','',#181,
 .NOT_KNOWN.);
#180=PRODUCT_RELATED_PRODUCT_CATEGORY('','',(#181));
#181=PRODUCT('Part 1','Part 1','Part 1',(#183));
#182=PRODUCT_CATEGORY('','');
#183=PRODUCT_CONTEXT('',#185,'mechanical');
#184=APPLICATION_PROTOCOL_DEFINITION('international standard',
'ap242_managed_model_based_3d_engineering',2020,#185);
#185=APPLICATION_CONTEXT('managed model based 3d engineering');
ENDSEC;
END-ISO-10303-21;
