ISO-10303-21;
HEADER;
/* Generated by software containing ST-Developer
 * from STEP Tools, Inc. (www.steptools.com) 
 */
/* OPTION: using custom renumber hook */

FILE_DESCRIPTION(
/* description */ ('STEP AP242 Edition 2',
'CAx-IF Rec.Pracs.---Representation and Presentation of Product Manufa
cturing Information (PMI)---4.0---2014-10-13',
'CAx-IF Rec.Pracs.---3D Tessellated Geometry---0.4---2014-09-14','2;1',
'CAx-IF Rec.Pracs.---User Defined Attributes---1.5---2016-08-15'),
/* implementation_level */ '2;1');

FILE_NAME(
/* name */ 'ARCADA001 - ZK_122',
/* time_stamp */ '2026-07-17T02:50:56Z',
/* author */ (''),
/* organization */ (''),
/* preprocessor_version */ 'ST-DEVELOPER v20',
/* originating_system */ 'ONSHAPE BY PTC INC, 1.217',
/* authorisation */ '  ');

FILE_SCHEMA (('AP242_MANAGED_MODEL_BASED_3D_ENGINEERING_MIM_LF { 1 0 10303 442 3 1 4 }'));
ENDSEC;

DATA;
#10=SHAPE_REPRESENTATION_RELATIONSHIP('','',#1243,#11);
#11=ADVANCED_BREP_SHAPE_REPRESENTATION('',(#1241),#2100);
#12=TOROIDAL_SURFACE('',#1369,0.0004,0.0001);
#13=CYLINDRICAL_SURFACE('',#1258,0.002);
#14=CYLINDRICAL_SURFACE('',#1261,0.002);
#15=CYLINDRICAL_SURFACE('',#1264,0.002);
#16=CYLINDRICAL_SURFACE('',#1267,0.002);
#17=CYLINDRICAL_SURFACE('',#1270,0.002);
#18=CYLINDRICAL_SURFACE('',#1273,0.002);
#19=CYLINDRICAL_SURFACE('',#1278,0.001249559769307);
#20=CYLINDRICAL_SURFACE('',#1302,0.001249559769307);
#21=CYLINDRICAL_SURFACE('',#1304,0.001249559769311);
#22=CYLINDRICAL_SURFACE('',#1306,0.001249559769311);
#23=CYLINDRICAL_SURFACE('',#1308,0.001249559769294);
#24=CYLINDRICAL_SURFACE('',#1310,0.001249559769307);
#25=CYLINDRICAL_SURFACE('',#1311,0.0019);
#26=CYLINDRICAL_SURFACE('',#1317,0.00965);
#27=CYLINDRICAL_SURFACE('',#1318,0.0011);
#28=CYLINDRICAL_SURFACE('',#1321,0.0011);
#29=CYLINDRICAL_SURFACE('',#1324,0.0011);
#30=CYLINDRICAL_SURFACE('',#1327,0.0011);
#31=CYLINDRICAL_SURFACE('',#1334,0.0019);
#32=CYLINDRICAL_SURFACE('',#1336,0.00965);
#33=CYLINDRICAL_SURFACE('',#1349,0.0019);
#34=CYLINDRICAL_SURFACE('',#1351,0.0019);
#35=CYLINDRICAL_SURFACE('',#1354,0.008525);
#36=CYLINDRICAL_SURFACE('',#1358,0.008525);
#37=CYLINDRICAL_SURFACE('',#1360,0.0019);
#38=CYLINDRICAL_SURFACE('',#1362,0.008525);
#39=CYLINDRICAL_SURFACE('',#1366,0.008525);
#40=CYLINDRICAL_SURFACE('',#1367,0.0005);
#41=CIRCLE('',#1247,0.00199991757206401);
#42=CIRCLE('',#1248,0.00199991757206402);
#43=CIRCLE('',#1249,0.00199991757206401);
#44=CIRCLE('',#1250,0.00199991757206401);
#45=CIRCLE('',#1252,0.001249559769307);
#46=CIRCLE('',#1253,0.001249559769307);
#47=CIRCLE('',#1254,0.001249559769311);
#48=CIRCLE('',#1255,0.001249559769311);
#49=CIRCLE('',#1256,0.001249559769294);
#50=CIRCLE('',#1257,0.001249559769307);
#51=CIRCLE('',#1262,0.00199991757206402);
#52=CIRCLE('',#1265,0.00199991757206402);
#53=CIRCLE('',#1268,0.00199991757206402);
#54=CIRCLE('',#1271,0.00199991757206402);
#55=CIRCLE('',#1279,0.001249559769307);
#56=CIRCLE('',#1281,0.001249559769307);
#57=CIRCLE('',#1282,0.001249559769294);
#58=CIRCLE('',#1283,0.001249559769311);
#59=CIRCLE('',#1284,0.001249559769311);
#60=CIRCLE('',#1285,0.001249559769307);
#61=CIRCLE('',#1286,0.0019);
#62=CIRCLE('',#1287,0.00965);
#63=CIRCLE('',#1288,0.0011);
#64=CIRCLE('',#1289,0.0011);
#65=CIRCLE('',#1290,0.0011);
#66=CIRCLE('',#1291,0.0011);
#67=CIRCLE('',#1292,0.0019);
#68=CIRCLE('',#1293,0.00965);
#69=CIRCLE('',#1294,0.0019);
#70=CIRCLE('',#1295,0.0019);
#71=CIRCLE('',#1296,0.008525);
#72=CIRCLE('',#1297,0.008525);
#73=CIRCLE('',#1298,0.0019);
#74=CIRCLE('',#1299,0.008525);
#75=CIRCLE('',#1300,0.008525);
#76=CIRCLE('',#1312,0.0019);
#77=CIRCLE('',#1314,0.00965);
#78=CIRCLE('',#1319,0.0011);
#79=CIRCLE('',#1322,0.0011);
#80=CIRCLE('',#1325,0.0011);
#81=CIRCLE('',#1328,0.0011);
#82=CIRCLE('',#1332,0.00965);
#83=CIRCLE('',#1333,0.0019);
#84=CIRCLE('',#1340,0.0019);
#85=CIRCLE('',#1341,0.008525);
#86=CIRCLE('',#1342,0.008525);
#87=CIRCLE('',#1343,0.0019);
#88=CIRCLE('',#1344,0.008525);
#89=CIRCLE('',#1345,0.008525);
#90=CIRCLE('',#1346,0.0019);
#91=CIRCLE('',#1347,0.0005);
#92=CIRCLE('',#1368,0.0005);
#93=CIRCLE('',#1370,0.0004);
#94=LINE('',#1746,#207);
#95=LINE('',#1750,#208);
#96=LINE('',#1754,#209);
#97=LINE('',#1758,#210);
#98=LINE('',#1762,#211);
#99=LINE('',#1766,#212);
#100=LINE('',#1767,#213);
#101=LINE('',#1772,#214);
#102=LINE('',#1776,#215);
#103=LINE('',#1780,#216);
#104=LINE('',#1784,#217);
#105=LINE('',#1788,#218);
#106=LINE('',#1792,#219);
#107=LINE('',#1796,#220);
#108=LINE('',#1798,#221);
#109=LINE('',#1800,#222);
#110=LINE('',#1804,#223);
#111=LINE('',#1806,#224);
#112=LINE('',#1808,#225);
#113=LINE('',#1812,#226);
#114=LINE('',#1814,#227);
#115=LINE('',#1816,#228);
#116=LINE('',#1820,#229);
#117=LINE('',#1822,#230);
#118=LINE('',#1824,#231);
#119=LINE('',#1828,#232);
#120=LINE('',#1830,#233);
#121=LINE('',#1832,#234);
#122=LINE('',#1836,#235);
#123=LINE('',#1838,#236);
#124=LINE('',#1841,#237);
#125=LINE('',#1843,#238);
#126=LINE('',#1845,#239);
#127=LINE('',#1849,#240);
#128=LINE('',#1853,#241);
#129=LINE('',#1857,#242);
#130=LINE('',#1861,#243);
#131=LINE('',#1865,#244);
#132=LINE('',#1869,#245);
#133=LINE('',#1873,#246);
#134=LINE('',#1875,#247);
#135=LINE('',#1886,#248);
#136=LINE('',#1891,#249);
#137=LINE('',#1895,#250);
#138=LINE('',#1896,#251);
#139=LINE('',#1899,#252);
#140=LINE('',#1903,#253);
#141=LINE('',#1907,#254);
#142=LINE('',#1909,#255);
#143=LINE('',#1913,#256);
#144=LINE('',#1915,#257);
#145=LINE('',#1917,#258);
#146=LINE('',#1921,#259);
#147=LINE('',#1925,#260);
#148=LINE('',#1929,#261);
#149=LINE('',#1931,#262);
#150=LINE('',#1933,#263);
#151=LINE('',#1937,#264);
#152=LINE('',#1939,#265);
#153=LINE('',#1941,#266);
#154=LINE('',#1943,#267);
#155=LINE('',#1945,#268);
#156=LINE('',#1947,#269);
#157=LINE('',#1949,#270);
#158=LINE('',#1951,#271);
#159=LINE('',#1953,#272);
#160=LINE('',#1959,#273);
#161=LINE('',#1960,#274);
#162=LINE('',#1962,#275);
#163=LINE('',#1966,#276);
#164=LINE('',#1968,#277);
#165=LINE('',#1970,#278);
#166=LINE('',#1989,#279);
#167=LINE('',#1992,#280);
#168=LINE('',#1993,#281);
#169=LINE('',#1995,#282);
#170=LINE('',#1999,#283);
#171=LINE('',#2003,#284);
#172=LINE('',#2005,#285);
#173=LINE('',#2007,#286);
#174=LINE('',#2010,#287);
#175=LINE('',#2013,#288);
#176=LINE('',#2014,#289);
#177=LINE('',#2016,#290);
#178=LINE('',#2021,#291);
#179=LINE('',#2024,#292);
#180=LINE('',#2026,#293);
#181=LINE('',#2028,#294);
#182=LINE('',#2032,#295);
#183=LINE('',#2036,#296);
#184=LINE('',#2040,#297);
#185=LINE('',#2042,#298);
#186=LINE('',#2044,#299);
#187=LINE('',#2048,#300);
#188=LINE('',#2050,#301);
#189=LINE('',#2056,#302);
#190=LINE('',#2057,#303);
#191=LINE('',#2059,#304);
#192=LINE('',#2062,#305);
#193=LINE('',#2064,#306);
#194=LINE('',#2066,#307);
#195=LINE('',#2068,#308);
#196=LINE('',#2070,#309);
#197=LINE('',#2072,#310);
#198=LINE('',#2074,#311);
#199=LINE('',#2076,#312);
#200=LINE('',#2078,#313);
#201=LINE('',#2080,#314);
#202=LINE('',#2082,#315);
#203=LINE('',#2084,#316);
#204=LINE('',#2086,#317);
#205=LINE('',#2088,#318);
#206=LINE('',#2090,#319);
#207=VECTOR('',#1378,1.);
#208=VECTOR('',#1381,1.);
#209=VECTOR('',#1384,1.);
#210=VECTOR('',#1387,1.);
#211=VECTOR('',#1390,1.);
#212=VECTOR('',#1393,1.);
#213=VECTOR('',#1394,1.);
#214=VECTOR('',#1397,1.);
#215=VECTOR('',#1400,1.);
#216=VECTOR('',#1403,1.);
#217=VECTOR('',#1406,1.);
#218=VECTOR('',#1409,1.);
#219=VECTOR('',#1414,1.);
#220=VECTOR('',#1417,1.);
#221=VECTOR('',#1420,1.);
#222=VECTOR('',#1421,1.);
#223=VECTOR('',#1426,1.);
#224=VECTOR('',#1429,1.);
#225=VECTOR('',#1430,1.);
#226=VECTOR('',#1435,1.);
#227=VECTOR('',#1438,1.);
#228=VECTOR('',#1439,1.);
#229=VECTOR('',#1444,1.);
#230=VECTOR('',#1447,1.);
#231=VECTOR('',#1448,1.);
#232=VECTOR('',#1453,1.);
#233=VECTOR('',#1456,1.);
#234=VECTOR('',#1457,1.);
#235=VECTOR('',#1462,1.);
#236=VECTOR('',#1465,1.);
#237=VECTOR('',#1470,1.);
#238=VECTOR('',#1471,1.);
#239=VECTOR('',#1472,1.);
#240=VECTOR('',#1477,1.);
#241=VECTOR('',#1482,1.);
#242=VECTOR('',#1485,1.);
#243=VECTOR('',#1488,1.);
#244=VECTOR('',#1491,1.);
#245=VECTOR('',#1494,1.);
#246=VECTOR('',#1497,1.);
#247=VECTOR('',#1498,1.);
#248=VECTOR('',#1509,1.);
#249=VECTOR('',#1512,1.);
#250=VECTOR('',#1515,1.);
#251=VECTOR('',#1516,1.);
#252=VECTOR('',#1517,1.);
#253=VECTOR('',#1520,1.);
#254=VECTOR('',#1523,1.);
#255=VECTOR('',#1524,1.);
#256=VECTOR('',#1527,1.);
#257=VECTOR('',#1528,1.);
#258=VECTOR('',#1529,1.);
#259=VECTOR('',#1532,1.);
#260=VECTOR('',#1535,1.);
#261=VECTOR('',#1538,1.);
#262=VECTOR('',#1539,1.);
#263=VECTOR('',#1540,1.);
#264=VECTOR('',#1545,1.);
#265=VECTOR('',#1548,1.);
#266=VECTOR('',#1551,1.);
#267=VECTOR('',#1554,1.);
#268=VECTOR('',#1557,1.);
#269=VECTOR('',#1560,1.);
#270=VECTOR('',#1563,1.);
#271=VECTOR('',#1566,1.);
#272=VECTOR('',#1569,1.);
#273=VECTOR('',#1576,1.);
#274=VECTOR('',#1577,1.);
#275=VECTOR('',#1580,1.);
#276=VECTOR('',#1583,1.);
#277=VECTOR('',#1586,1.);
#278=VECTOR('',#1589,1.);
#279=VECTOR('',#1618,1.);
#280=VECTOR('',#1619,1.);
#281=VECTOR('',#1620,1.);
#282=VECTOR('',#1623,1.);
#283=VECTOR('',#1626,1.);
#284=VECTOR('',#1631,1.);
#285=VECTOR('',#1634,1.);
#286=VECTOR('',#1637,1.);
#287=VECTOR('',#1642,1.);
#288=VECTOR('',#1643,1.);
#289=VECTOR('',#1644,1.);
#290=VECTOR('',#1647,1.);
#291=VECTOR('',#1650,1.);
#292=VECTOR('',#1653,1.);
#293=VECTOR('',#1654,1.);
#294=VECTOR('',#1655,1.);
#295=VECTOR('',#1658,1.);
#296=VECTOR('',#1661,1.);
#297=VECTOR('',#1664,1.);
#298=VECTOR('',#1665,1.);
#299=VECTOR('',#1666,1.);
#300=VECTOR('',#1669,1.);
#301=VECTOR('',#1670,1.);
#302=VECTOR('',#1677,1.);
#303=VECTOR('',#1678,1.);
#304=VECTOR('',#1681,1.);
#305=VECTOR('',#1686,1.);
#306=VECTOR('',#1689,1.);
#307=VECTOR('',#1692,1.);
#308=VECTOR('',#1695,1.);
#309=VECTOR('',#1698,1.);
#310=VECTOR('',#1701,1.);
#311=VECTOR('',#1704,1.);
#312=VECTOR('',#1707,1.);
#313=VECTOR('',#1710,1.);
#314=VECTOR('',#1713,1.);
#315=VECTOR('',#1716,1.);
#316=VECTOR('',#1719,1.);
#317=VECTOR('',#1722,1.);
#318=VECTOR('',#1725,1.);
#319=VECTOR('',#1728,1.);
#320=ORIENTED_EDGE('',*,*,#660,.F.);
#321=ORIENTED_EDGE('',*,*,#661,.F.);
#322=ORIENTED_EDGE('',*,*,#662,.F.);
#323=ORIENTED_EDGE('',*,*,#663,.F.);
#324=ORIENTED_EDGE('',*,*,#664,.F.);
#325=ORIENTED_EDGE('',*,*,#665,.F.);
#326=ORIENTED_EDGE('',*,*,#666,.F.);
#327=ORIENTED_EDGE('',*,*,#667,.F.);
#328=ORIENTED_EDGE('',*,*,#668,.F.);
#329=ORIENTED_EDGE('',*,*,#669,.F.);
#330=ORIENTED_EDGE('',*,*,#670,.F.);
#331=ORIENTED_EDGE('',*,*,#671,.F.);
#332=ORIENTED_EDGE('',*,*,#672,.T.);
#333=ORIENTED_EDGE('',*,*,#673,.F.);
#334=ORIENTED_EDGE('',*,*,#674,.T.);
#335=ORIENTED_EDGE('',*,*,#675,.F.);
#336=ORIENTED_EDGE('',*,*,#676,.F.);
#337=ORIENTED_EDGE('',*,*,#677,.F.);
#338=ORIENTED_EDGE('',*,*,#678,.T.);
#339=ORIENTED_EDGE('',*,*,#679,.F.);
#340=ORIENTED_EDGE('',*,*,#680,.F.);
#341=ORIENTED_EDGE('',*,*,#681,.F.);
#342=ORIENTED_EDGE('',*,*,#682,.T.);
#343=ORIENTED_EDGE('',*,*,#683,.F.);
#344=ORIENTED_EDGE('',*,*,#660,.T.);
#345=ORIENTED_EDGE('',*,*,#684,.T.);
#346=ORIENTED_EDGE('',*,*,#685,.T.);
#347=ORIENTED_EDGE('',*,*,#686,.T.);
#348=ORIENTED_EDGE('',*,*,#686,.F.);
#349=ORIENTED_EDGE('',*,*,#687,.F.);
#350=ORIENTED_EDGE('',*,*,#688,.F.);
#351=ORIENTED_EDGE('',*,*,#661,.T.);
#352=ORIENTED_EDGE('',*,*,#662,.T.);
#353=ORIENTED_EDGE('',*,*,#688,.T.);
#354=ORIENTED_EDGE('',*,*,#689,.T.);
#355=ORIENTED_EDGE('',*,*,#690,.T.);
#356=ORIENTED_EDGE('',*,*,#690,.F.);
#357=ORIENTED_EDGE('',*,*,#691,.T.);
#358=ORIENTED_EDGE('',*,*,#692,.F.);
#359=ORIENTED_EDGE('',*,*,#663,.T.);
#360=ORIENTED_EDGE('',*,*,#664,.T.);
#361=ORIENTED_EDGE('',*,*,#692,.T.);
#362=ORIENTED_EDGE('',*,*,#693,.T.);
#363=ORIENTED_EDGE('',*,*,#694,.T.);
#364=ORIENTED_EDGE('',*,*,#694,.F.);
#365=ORIENTED_EDGE('',*,*,#695,.T.);
#366=ORIENTED_EDGE('',*,*,#696,.F.);
#367=ORIENTED_EDGE('',*,*,#665,.T.);
#368=ORIENTED_EDGE('',*,*,#666,.T.);
#369=ORIENTED_EDGE('',*,*,#696,.T.);
#370=ORIENTED_EDGE('',*,*,#697,.T.);
#371=ORIENTED_EDGE('',*,*,#698,.T.);
#372=ORIENTED_EDGE('',*,*,#698,.F.);
#373=ORIENTED_EDGE('',*,*,#699,.T.);
#374=ORIENTED_EDGE('',*,*,#700,.F.);
#375=ORIENTED_EDGE('',*,*,#667,.T.);
#376=ORIENTED_EDGE('',*,*,#668,.T.);
#377=ORIENTED_EDGE('',*,*,#700,.T.);
#378=ORIENTED_EDGE('',*,*,#701,.T.);
#379=ORIENTED_EDGE('',*,*,#702,.T.);
#380=ORIENTED_EDGE('',*,*,#702,.F.);
#381=ORIENTED_EDGE('',*,*,#703,.T.);
#382=ORIENTED_EDGE('',*,*,#704,.F.);
#383=ORIENTED_EDGE('',*,*,#669,.T.);
#384=ORIENTED_EDGE('',*,*,#670,.T.);
#385=ORIENTED_EDGE('',*,*,#704,.T.);
#386=ORIENTED_EDGE('',*,*,#705,.T.);
#387=ORIENTED_EDGE('',*,*,#706,.T.);
#388=ORIENTED_EDGE('',*,*,#707,.F.);
#389=ORIENTED_EDGE('',*,*,#684,.F.);
#390=ORIENTED_EDGE('',*,*,#671,.T.);
#391=ORIENTED_EDGE('',*,*,#706,.F.);
#392=ORIENTED_EDGE('',*,*,#707,.T.);
#393=ORIENTED_EDGE('',*,*,#705,.F.);
#394=ORIENTED_EDGE('',*,*,#703,.F.);
#395=ORIENTED_EDGE('',*,*,#701,.F.);
#396=ORIENTED_EDGE('',*,*,#699,.F.);
#397=ORIENTED_EDGE('',*,*,#697,.F.);
#398=ORIENTED_EDGE('',*,*,#695,.F.);
#399=ORIENTED_EDGE('',*,*,#693,.F.);
#400=ORIENTED_EDGE('',*,*,#691,.F.);
#401=ORIENTED_EDGE('',*,*,#689,.F.);
#402=ORIENTED_EDGE('',*,*,#687,.T.);
#403=ORIENTED_EDGE('',*,*,#685,.F.);
#404=ORIENTED_EDGE('',*,*,#672,.F.);
#405=ORIENTED_EDGE('',*,*,#708,.T.);
#406=ORIENTED_EDGE('',*,*,#709,.T.);
#407=ORIENTED_EDGE('',*,*,#710,.T.);
#408=ORIENTED_EDGE('',*,*,#711,.F.);
#409=ORIENTED_EDGE('',*,*,#712,.F.);
#410=ORIENTED_EDGE('',*,*,#673,.T.);
#411=ORIENTED_EDGE('',*,*,#710,.F.);
#412=ORIENTED_EDGE('',*,*,#709,.F.);
#413=ORIENTED_EDGE('',*,*,#713,.T.);
#414=ORIENTED_EDGE('',*,*,#714,.F.);
#415=ORIENTED_EDGE('',*,*,#715,.F.);
#416=ORIENTED_EDGE('',*,*,#716,.F.);
#417=ORIENTED_EDGE('',*,*,#717,.F.);
#418=ORIENTED_EDGE('',*,*,#718,.F.);
#419=ORIENTED_EDGE('',*,*,#719,.F.);
#420=ORIENTED_EDGE('',*,*,#720,.F.);
#421=ORIENTED_EDGE('',*,*,#721,.F.);
#422=ORIENTED_EDGE('',*,*,#722,.F.);
#423=ORIENTED_EDGE('',*,*,#711,.T.);
#424=ORIENTED_EDGE('',*,*,#723,.F.);
#425=ORIENTED_EDGE('',*,*,#724,.F.);
#426=ORIENTED_EDGE('',*,*,#725,.F.);
#427=ORIENTED_EDGE('',*,*,#726,.F.);
#428=ORIENTED_EDGE('',*,*,#727,.F.);
#429=ORIENTED_EDGE('',*,*,#728,.F.);
#430=ORIENTED_EDGE('',*,*,#729,.F.);
#431=ORIENTED_EDGE('',*,*,#730,.F.);
#432=ORIENTED_EDGE('',*,*,#731,.F.);
#433=ORIENTED_EDGE('',*,*,#732,.F.);
#434=ORIENTED_EDGE('',*,*,#733,.F.);
#435=ORIENTED_EDGE('',*,*,#734,.F.);
#436=ORIENTED_EDGE('',*,*,#735,.T.);
#437=ORIENTED_EDGE('',*,*,#736,.F.);
#438=ORIENTED_EDGE('',*,*,#737,.F.);
#439=ORIENTED_EDGE('',*,*,#738,.F.);
#440=ORIENTED_EDGE('',*,*,#739,.F.);
#441=ORIENTED_EDGE('',*,*,#740,.F.);
#442=ORIENTED_EDGE('',*,*,#741,.F.);
#443=ORIENTED_EDGE('',*,*,#742,.F.);
#444=ORIENTED_EDGE('',*,*,#743,.F.);
#445=ORIENTED_EDGE('',*,*,#744,.T.);
#446=ORIENTED_EDGE('',*,*,#745,.T.);
#447=ORIENTED_EDGE('',*,*,#746,.T.);
#448=ORIENTED_EDGE('',*,*,#747,.F.);
#449=ORIENTED_EDGE('',*,*,#748,.F.);
#450=ORIENTED_EDGE('',*,*,#749,.F.);
#451=ORIENTED_EDGE('',*,*,#750,.F.);
#452=ORIENTED_EDGE('',*,*,#751,.F.);
#453=ORIENTED_EDGE('',*,*,#752,.T.);
#454=ORIENTED_EDGE('',*,*,#753,.T.);
#455=ORIENTED_EDGE('',*,*,#754,.T.);
#456=ORIENTED_EDGE('',*,*,#755,.F.);
#457=ORIENTED_EDGE('',*,*,#722,.T.);
#458=ORIENTED_EDGE('',*,*,#756,.F.);
#459=ORIENTED_EDGE('',*,*,#674,.F.);
#460=ORIENTED_EDGE('',*,*,#712,.T.);
#461=ORIENTED_EDGE('',*,*,#675,.T.);
#462=ORIENTED_EDGE('',*,*,#756,.T.);
#463=ORIENTED_EDGE('',*,*,#721,.T.);
#464=ORIENTED_EDGE('',*,*,#757,.F.);
#465=ORIENTED_EDGE('',*,*,#676,.T.);
#466=ORIENTED_EDGE('',*,*,#757,.T.);
#467=ORIENTED_EDGE('',*,*,#720,.T.);
#468=ORIENTED_EDGE('',*,*,#758,.F.);
#469=ORIENTED_EDGE('',*,*,#677,.T.);
#470=ORIENTED_EDGE('',*,*,#758,.T.);
#471=ORIENTED_EDGE('',*,*,#719,.T.);
#472=ORIENTED_EDGE('',*,*,#759,.F.);
#473=ORIENTED_EDGE('',*,*,#678,.F.);
#474=ORIENTED_EDGE('',*,*,#759,.T.);
#475=ORIENTED_EDGE('',*,*,#718,.T.);
#476=ORIENTED_EDGE('',*,*,#760,.F.);
#477=ORIENTED_EDGE('',*,*,#679,.T.);
#478=ORIENTED_EDGE('',*,*,#760,.T.);
#479=ORIENTED_EDGE('',*,*,#717,.T.);
#480=ORIENTED_EDGE('',*,*,#761,.F.);
#481=ORIENTED_EDGE('',*,*,#680,.T.);
#482=ORIENTED_EDGE('',*,*,#761,.T.);
#483=ORIENTED_EDGE('',*,*,#716,.T.);
#484=ORIENTED_EDGE('',*,*,#762,.F.);
#485=ORIENTED_EDGE('',*,*,#681,.T.);
#486=ORIENTED_EDGE('',*,*,#762,.T.);
#487=ORIENTED_EDGE('',*,*,#715,.T.);
#488=ORIENTED_EDGE('',*,*,#763,.F.);
#489=ORIENTED_EDGE('',*,*,#682,.F.);
#490=ORIENTED_EDGE('',*,*,#763,.T.);
#491=ORIENTED_EDGE('',*,*,#714,.T.);
#492=ORIENTED_EDGE('',*,*,#764,.T.);
#493=ORIENTED_EDGE('',*,*,#713,.F.);
#494=ORIENTED_EDGE('',*,*,#708,.F.);
#495=ORIENTED_EDGE('',*,*,#683,.T.);
#496=ORIENTED_EDGE('',*,*,#764,.F.);
#497=ORIENTED_EDGE('',*,*,#765,.T.);
#498=ORIENTED_EDGE('',*,*,#766,.F.);
#499=ORIENTED_EDGE('',*,*,#723,.T.);
#500=ORIENTED_EDGE('',*,*,#767,.T.);
#501=ORIENTED_EDGE('',*,*,#768,.T.);
#502=ORIENTED_EDGE('',*,*,#765,.F.);
#503=ORIENTED_EDGE('',*,*,#769,.F.);
#504=ORIENTED_EDGE('',*,*,#770,.F.);
#505=ORIENTED_EDGE('',*,*,#768,.F.);
#506=ORIENTED_EDGE('',*,*,#771,.F.);
#507=ORIENTED_EDGE('',*,*,#724,.T.);
#508=ORIENTED_EDGE('',*,*,#766,.T.);
#509=ORIENTED_EDGE('',*,*,#770,.T.);
#510=ORIENTED_EDGE('',*,*,#772,.T.);
#511=ORIENTED_EDGE('',*,*,#725,.T.);
#512=ORIENTED_EDGE('',*,*,#771,.T.);
#513=ORIENTED_EDGE('',*,*,#769,.T.);
#514=ORIENTED_EDGE('',*,*,#767,.F.);
#515=ORIENTED_EDGE('',*,*,#726,.T.);
#516=ORIENTED_EDGE('',*,*,#772,.F.);
#517=ORIENTED_EDGE('',*,*,#727,.T.);
#518=ORIENTED_EDGE('',*,*,#773,.T.);
#519=ORIENTED_EDGE('',*,*,#773,.F.);
#520=ORIENTED_EDGE('',*,*,#728,.T.);
#521=ORIENTED_EDGE('',*,*,#774,.T.);
#522=ORIENTED_EDGE('',*,*,#774,.F.);
#523=ORIENTED_EDGE('',*,*,#729,.T.);
#524=ORIENTED_EDGE('',*,*,#775,.T.);
#525=ORIENTED_EDGE('',*,*,#775,.F.);
#526=ORIENTED_EDGE('',*,*,#730,.T.);
#527=ORIENTED_EDGE('',*,*,#776,.T.);
#528=ORIENTED_EDGE('',*,*,#776,.F.);
#529=ORIENTED_EDGE('',*,*,#777,.F.);
#530=ORIENTED_EDGE('',*,*,#778,.T.);
#531=ORIENTED_EDGE('',*,*,#731,.T.);
#532=ORIENTED_EDGE('',*,*,#779,.F.);
#533=ORIENTED_EDGE('',*,*,#777,.T.);
#534=ORIENTED_EDGE('',*,*,#780,.F.);
#535=ORIENTED_EDGE('',*,*,#781,.F.);
#536=ORIENTED_EDGE('',*,*,#782,.T.);
#537=ORIENTED_EDGE('',*,*,#783,.F.);
#538=ORIENTED_EDGE('',*,*,#783,.T.);
#539=ORIENTED_EDGE('',*,*,#784,.F.);
#540=ORIENTED_EDGE('',*,*,#732,.T.);
#541=ORIENTED_EDGE('',*,*,#778,.F.);
#542=ORIENTED_EDGE('',*,*,#782,.F.);
#543=ORIENTED_EDGE('',*,*,#785,.T.);
#544=ORIENTED_EDGE('',*,*,#733,.T.);
#545=ORIENTED_EDGE('',*,*,#784,.T.);
#546=ORIENTED_EDGE('',*,*,#781,.T.);
#547=ORIENTED_EDGE('',*,*,#786,.F.);
#548=ORIENTED_EDGE('',*,*,#734,.T.);
#549=ORIENTED_EDGE('',*,*,#785,.F.);
#550=ORIENTED_EDGE('',*,*,#780,.T.);
#551=ORIENTED_EDGE('',*,*,#779,.T.);
#552=ORIENTED_EDGE('',*,*,#735,.F.);
#553=ORIENTED_EDGE('',*,*,#786,.T.);
#554=ORIENTED_EDGE('',*,*,#787,.T.);
#555=ORIENTED_EDGE('',*,*,#788,.T.);
#556=ORIENTED_EDGE('',*,*,#736,.T.);
#557=ORIENTED_EDGE('',*,*,#789,.T.);
#558=ORIENTED_EDGE('',*,*,#790,.T.);
#559=ORIENTED_EDGE('',*,*,#791,.F.);
#560=ORIENTED_EDGE('',*,*,#792,.T.);
#561=ORIENTED_EDGE('',*,*,#787,.F.);
#562=ORIENTED_EDGE('',*,*,#793,.F.);
#563=ORIENTED_EDGE('',*,*,#794,.F.);
#564=ORIENTED_EDGE('',*,*,#795,.F.);
#565=ORIENTED_EDGE('',*,*,#796,.F.);
#566=ORIENTED_EDGE('',*,*,#797,.F.);
#567=ORIENTED_EDGE('',*,*,#798,.F.);
#568=ORIENTED_EDGE('',*,*,#799,.F.);
#569=ORIENTED_EDGE('',*,*,#800,.T.);
#570=ORIENTED_EDGE('',*,*,#801,.F.);
#571=ORIENTED_EDGE('',*,*,#802,.F.);
#572=ORIENTED_EDGE('',*,*,#803,.F.);
#573=ORIENTED_EDGE('',*,*,#804,.F.);
#574=ORIENTED_EDGE('',*,*,#805,.F.);
#575=ORIENTED_EDGE('',*,*,#806,.F.);
#576=ORIENTED_EDGE('',*,*,#807,.T.);
#577=ORIENTED_EDGE('',*,*,#808,.F.);
#578=ORIENTED_EDGE('',*,*,#809,.F.);
#579=ORIENTED_EDGE('',*,*,#790,.F.);
#580=ORIENTED_EDGE('',*,*,#810,.T.);
#581=ORIENTED_EDGE('',*,*,#739,.T.);
#582=ORIENTED_EDGE('',*,*,#811,.T.);
#583=ORIENTED_EDGE('',*,*,#791,.T.);
#584=ORIENTED_EDGE('',*,*,#811,.F.);
#585=ORIENTED_EDGE('',*,*,#738,.T.);
#586=ORIENTED_EDGE('',*,*,#812,.F.);
#587=ORIENTED_EDGE('',*,*,#792,.F.);
#588=ORIENTED_EDGE('',*,*,#812,.T.);
#589=ORIENTED_EDGE('',*,*,#737,.T.);
#590=ORIENTED_EDGE('',*,*,#788,.F.);
#591=ORIENTED_EDGE('',*,*,#808,.T.);
#592=ORIENTED_EDGE('',*,*,#813,.F.);
#593=ORIENTED_EDGE('',*,*,#740,.T.);
#594=ORIENTED_EDGE('',*,*,#810,.F.);
#595=ORIENTED_EDGE('',*,*,#807,.F.);
#596=ORIENTED_EDGE('',*,*,#814,.T.);
#597=ORIENTED_EDGE('',*,*,#741,.T.);
#598=ORIENTED_EDGE('',*,*,#813,.T.);
#599=ORIENTED_EDGE('',*,*,#806,.T.);
#600=ORIENTED_EDGE('',*,*,#815,.T.);
#601=ORIENTED_EDGE('',*,*,#742,.T.);
#602=ORIENTED_EDGE('',*,*,#814,.F.);
#603=ORIENTED_EDGE('',*,*,#805,.T.);
#604=ORIENTED_EDGE('',*,*,#816,.F.);
#605=ORIENTED_EDGE('',*,*,#743,.T.);
#606=ORIENTED_EDGE('',*,*,#815,.F.);
#607=ORIENTED_EDGE('',*,*,#804,.T.);
#608=ORIENTED_EDGE('',*,*,#817,.T.);
#609=ORIENTED_EDGE('',*,*,#744,.F.);
#610=ORIENTED_EDGE('',*,*,#816,.T.);
#611=ORIENTED_EDGE('',*,*,#803,.T.);
#612=ORIENTED_EDGE('',*,*,#818,.T.);
#613=ORIENTED_EDGE('',*,*,#745,.F.);
#614=ORIENTED_EDGE('',*,*,#817,.F.);
#615=ORIENTED_EDGE('',*,*,#802,.T.);
#616=ORIENTED_EDGE('',*,*,#819,.T.);
#617=ORIENTED_EDGE('',*,*,#746,.F.);
#618=ORIENTED_EDGE('',*,*,#818,.F.);
#619=ORIENTED_EDGE('',*,*,#747,.T.);
#620=ORIENTED_EDGE('',*,*,#819,.F.);
#621=ORIENTED_EDGE('',*,*,#801,.T.);
#622=ORIENTED_EDGE('',*,*,#820,.F.);
#623=ORIENTED_EDGE('',*,*,#800,.F.);
#624=ORIENTED_EDGE('',*,*,#821,.T.);
#625=ORIENTED_EDGE('',*,*,#748,.T.);
#626=ORIENTED_EDGE('',*,*,#820,.T.);
#627=ORIENTED_EDGE('',*,*,#799,.T.);
#628=ORIENTED_EDGE('',*,*,#822,.F.);
#629=ORIENTED_EDGE('',*,*,#749,.T.);
#630=ORIENTED_EDGE('',*,*,#821,.F.);
#631=ORIENTED_EDGE('',*,*,#798,.T.);
#632=ORIENTED_EDGE('',*,*,#823,.T.);
#633=ORIENTED_EDGE('',*,*,#750,.T.);
#634=ORIENTED_EDGE('',*,*,#822,.T.);
#635=ORIENTED_EDGE('',*,*,#797,.T.);
#636=ORIENTED_EDGE('',*,*,#824,.F.);
#637=ORIENTED_EDGE('',*,*,#751,.T.);
#638=ORIENTED_EDGE('',*,*,#823,.F.);
#639=ORIENTED_EDGE('',*,*,#796,.T.);
#640=ORIENTED_EDGE('',*,*,#825,.T.);
#641=ORIENTED_EDGE('',*,*,#752,.F.);
#642=ORIENTED_EDGE('',*,*,#824,.T.);
#643=ORIENTED_EDGE('',*,*,#795,.T.);
#644=ORIENTED_EDGE('',*,*,#826,.T.);
#645=ORIENTED_EDGE('',*,*,#753,.F.);
#646=ORIENTED_EDGE('',*,*,#825,.F.);
#647=ORIENTED_EDGE('',*,*,#794,.T.);
#648=ORIENTED_EDGE('',*,*,#827,.T.);
#649=ORIENTED_EDGE('',*,*,#754,.F.);
#650=ORIENTED_EDGE('',*,*,#826,.F.);
#651=ORIENTED_EDGE('',*,*,#793,.T.);
#652=ORIENTED_EDGE('',*,*,#789,.F.);
#653=ORIENTED_EDGE('',*,*,#755,.T.);
#654=ORIENTED_EDGE('',*,*,#827,.F.);
#655=ORIENTED_EDGE('',*,*,#828,.T.);
#656=ORIENTED_EDGE('',*,*,#809,.T.);
#657=ORIENTED_EDGE('',*,*,#829,.T.);
#658=ORIENTED_EDGE('',*,*,#828,.F.);
#659=ORIENTED_EDGE('',*,*,#829,.F.);
#660=EDGE_CURVE('',#830,#831,#947,.T.);
#661=EDGE_CURVE('',#832,#830,#94,.T.);
#662=EDGE_CURVE('',#833,#832,#41,.T.);
#663=EDGE_CURVE('',#834,#833,#95,.T.);
#664=EDGE_CURVE('',#835,#834,#42,.T.);
#665=EDGE_CURVE('',#836,#835,#96,.T.);
#666=EDGE_CURVE('',#837,#836,#43,.T.);
#667=EDGE_CURVE('',#838,#837,#97,.T.);
#668=EDGE_CURVE('',#839,#838,#44,.T.);
#669=EDGE_CURVE('',#840,#839,#98,.T.);
#670=EDGE_CURVE('',#841,#840,#948,.T.);
#671=EDGE_CURVE('',#831,#841,#99,.T.);
#672=EDGE_CURVE('',#842,#843,#100,.T.);
#673=EDGE_CURVE('',#844,#843,#45,.F.);
#674=EDGE_CURVE('',#844,#845,#101,.T.);
#675=EDGE_CURVE('',#846,#845,#46,.T.);
#676=EDGE_CURVE('',#847,#846,#102,.T.);
#677=EDGE_CURVE('',#848,#847,#47,.T.);
#678=EDGE_CURVE('',#848,#849,#103,.T.);
#679=EDGE_CURVE('',#850,#849,#48,.T.);
#680=EDGE_CURVE('',#851,#850,#104,.T.);
#681=EDGE_CURVE('',#852,#851,#49,.T.);
#682=EDGE_CURVE('',#852,#853,#105,.T.);
#683=EDGE_CURVE('',#842,#853,#50,.F.);
#684=EDGE_CURVE('',#831,#854,#106,.T.);
#685=EDGE_CURVE('',#854,#855,#949,.T.);
#686=EDGE_CURVE('',#855,#830,#107,.T.);
#687=EDGE_CURVE('',#856,#855,#108,.T.);
#688=EDGE_CURVE('',#832,#856,#109,.T.);
#689=EDGE_CURVE('',#856,#857,#51,.T.);
#690=EDGE_CURVE('',#857,#833,#110,.T.);
#691=EDGE_CURVE('',#857,#858,#111,.T.);
#692=EDGE_CURVE('',#834,#858,#112,.T.);
#693=EDGE_CURVE('',#858,#859,#52,.T.);
#694=EDGE_CURVE('',#859,#835,#113,.T.);
#695=EDGE_CURVE('',#859,#860,#114,.T.);
#696=EDGE_CURVE('',#836,#860,#115,.T.);
#697=EDGE_CURVE('',#860,#861,#53,.T.);
#698=EDGE_CURVE('',#861,#837,#116,.T.);
#699=EDGE_CURVE('',#861,#862,#117,.T.);
#700=EDGE_CURVE('',#838,#862,#118,.T.);
#701=EDGE_CURVE('',#862,#863,#54,.T.);
#702=EDGE_CURVE('',#863,#839,#119,.T.);
#703=EDGE_CURVE('',#863,#864,#120,.T.);
#704=EDGE_CURVE('',#840,#864,#121,.T.);
#705=EDGE_CURVE('',#864,#865,#950,.T.);
#706=EDGE_CURVE('',#865,#841,#122,.T.);
#707=EDGE_CURVE('',#854,#865,#123,.T.);
#708=EDGE_CURVE('',#842,#866,#124,.T.);
#709=EDGE_CURVE('',#866,#867,#125,.T.);
#710=EDGE_CURVE('',#867,#843,#126,.F.);
#711=EDGE_CURVE('',#868,#867,#55,.T.);
#712=EDGE_CURVE('',#844,#868,#127,.T.);
#713=EDGE_CURVE('',#866,#869,#56,.T.);
#714=EDGE_CURVE('',#870,#869,#128,.T.);
#715=EDGE_CURVE('',#871,#870,#57,.T.);
#716=EDGE_CURVE('',#872,#871,#129,.T.);
#717=EDGE_CURVE('',#873,#872,#58,.T.);
#718=EDGE_CURVE('',#874,#873,#130,.T.);
#719=EDGE_CURVE('',#875,#874,#59,.T.);
#720=EDGE_CURVE('',#876,#875,#131,.T.);
#721=EDGE_CURVE('',#877,#876,#60,.T.);
#722=EDGE_CURVE('',#868,#877,#132,.T.);
#723=EDGE_CURVE('',#878,#879,#61,.T.);
#724=EDGE_CURVE('',#880,#878,#133,.T.);
#725=EDGE_CURVE('',#881,#880,#134,.T.);
#726=EDGE_CURVE('',#879,#881,#62,.T.);
#727=EDGE_CURVE('',#882,#882,#63,.T.);
#728=EDGE_CURVE('',#883,#883,#64,.T.);
#729=EDGE_CURVE('',#884,#884,#65,.T.);
#730=EDGE_CURVE('',#885,#885,#66,.T.);
#731=EDGE_CURVE('',#886,#887,#135,.T.);
#732=EDGE_CURVE('',#888,#886,#67,.T.);
#733=EDGE_CURVE('',#889,#888,#136,.T.);
#734=EDGE_CURVE('',#890,#889,#68,.T.);
#735=EDGE_CURVE('',#890,#887,#137,.T.);
#736=EDGE_CURVE('',#891,#892,#138,.T.);
#737=EDGE_CURVE('',#893,#891,#139,.T.);
#738=EDGE_CURVE('',#894,#893,#69,.T.);
#739=EDGE_CURVE('',#895,#894,#140,.T.);
#740=EDGE_CURVE('',#896,#895,#70,.T.);
#741=EDGE_CURVE('',#897,#896,#141,.T.);
#742=EDGE_CURVE('',#898,#897,#142,.T.);
#743=EDGE_CURVE('',#899,#898,#71,.T.);
#744=EDGE_CURVE('',#899,#900,#143,.T.);
#745=EDGE_CURVE('',#900,#901,#144,.T.);
#746=EDGE_CURVE('',#901,#902,#145,.T.);
#747=EDGE_CURVE('',#903,#902,#72,.T.);
#748=EDGE_CURVE('',#904,#903,#146,.T.);
#749=EDGE_CURVE('',#905,#904,#73,.T.);
#750=EDGE_CURVE('',#906,#905,#147,.T.);
#751=EDGE_CURVE('',#907,#906,#74,.T.);
#752=EDGE_CURVE('',#907,#908,#148,.T.);
#753=EDGE_CURVE('',#908,#909,#149,.T.);
#754=EDGE_CURVE('',#909,#910,#150,.T.);
#755=EDGE_CURVE('',#892,#910,#75,.T.);
#756=EDGE_CURVE('',#845,#877,#151,.T.);
#757=EDGE_CURVE('',#846,#876,#152,.T.);
#758=EDGE_CURVE('',#847,#875,#153,.T.);
#759=EDGE_CURVE('',#848,#874,#154,.T.);
#760=EDGE_CURVE('',#849,#873,#155,.T.);
#761=EDGE_CURVE('',#850,#872,#156,.T.);
#762=EDGE_CURVE('',#851,#871,#157,.T.);
#763=EDGE_CURVE('',#852,#870,#158,.T.);
#764=EDGE_CURVE('',#869,#853,#159,.F.);
#765=EDGE_CURVE('',#911,#912,#76,.T.);
#766=EDGE_CURVE('',#878,#912,#160,.T.);
#767=EDGE_CURVE('',#879,#911,#161,.T.);
#768=EDGE_CURVE('',#913,#912,#162,.T.);
#769=EDGE_CURVE('',#914,#911,#77,.T.);
#770=EDGE_CURVE('',#913,#914,#163,.T.);
#771=EDGE_CURVE('',#880,#913,#164,.T.);
#772=EDGE_CURVE('',#914,#881,#165,.T.);
#773=EDGE_CURVE('',#915,#915,#78,.T.);
#774=EDGE_CURVE('',#916,#916,#79,.T.);
#775=EDGE_CURVE('',#917,#917,#80,.T.);
#776=EDGE_CURVE('',#918,#918,#81,.T.);
#777=EDGE_CURVE('',#919,#920,#166,.T.);
#778=EDGE_CURVE('',#919,#886,#167,.T.);
#779=EDGE_CURVE('',#920,#887,#168,.T.);
#780=EDGE_CURVE('',#921,#920,#169,.T.);
#781=EDGE_CURVE('',#922,#921,#82,.T.);
#782=EDGE_CURVE('',#922,#923,#170,.T.);
#783=EDGE_CURVE('',#919,#923,#83,.T.);
#784=EDGE_CURVE('',#888,#923,#171,.T.);
#785=EDGE_CURVE('',#922,#889,#172,.T.);
#786=EDGE_CURVE('',#890,#921,#173,.T.);
#787=EDGE_CURVE('',#924,#925,#174,.T.);
#788=EDGE_CURVE('',#925,#891,#175,.T.);
#789=EDGE_CURVE('',#892,#924,#176,.T.);
#790=EDGE_CURVE('',#926,#927,#177,.T.);
#791=EDGE_CURVE('',#928,#927,#84,.T.);
#792=EDGE_CURVE('',#928,#925,#178,.T.);
#793=EDGE_CURVE('',#929,#924,#85,.T.);
#794=EDGE_CURVE('',#930,#929,#179,.T.);
#795=EDGE_CURVE('',#931,#930,#180,.T.);
#796=EDGE_CURVE('',#932,#931,#181,.T.);
#797=EDGE_CURVE('',#933,#932,#86,.T.);
#798=EDGE_CURVE('',#934,#933,#182,.T.);
#799=EDGE_CURVE('',#935,#934,#87,.T.);
#800=EDGE_CURVE('',#935,#936,#183,.T.);
#801=EDGE_CURVE('',#937,#936,#88,.T.);
#802=EDGE_CURVE('',#938,#937,#184,.T.);
#803=EDGE_CURVE('',#939,#938,#185,.T.);
#804=EDGE_CURVE('',#940,#939,#186,.T.);
#805=EDGE_CURVE('',#941,#940,#89,.T.);
#806=EDGE_CURVE('',#942,#941,#187,.T.);
#807=EDGE_CURVE('',#942,#943,#188,.T.);
#808=EDGE_CURVE('',#926,#943,#90,.T.);
#809=EDGE_CURVE('',#944,#944,#91,.T.);
#810=EDGE_CURVE('',#926,#895,#189,.T.);
#811=EDGE_CURVE('',#894,#927,#190,.T.);
#812=EDGE_CURVE('',#928,#893,#191,.T.);
#813=EDGE_CURVE('',#896,#943,#192,.T.);
#814=EDGE_CURVE('',#942,#897,#193,.T.);
#815=EDGE_CURVE('',#941,#898,#194,.T.);
#816=EDGE_CURVE('',#899,#940,#195,.T.);
#817=EDGE_CURVE('',#939,#900,#196,.T.);
#818=EDGE_CURVE('',#938,#901,#197,.T.);
#819=EDGE_CURVE('',#937,#902,#198,.T.);
#820=EDGE_CURVE('',#903,#936,#199,.T.);
#821=EDGE_CURVE('',#935,#904,#200,.T.);
#822=EDGE_CURVE('',#905,#934,#201,.T.);
#823=EDGE_CURVE('',#933,#906,#202,.T.);
#824=EDGE_CURVE('',#907,#932,#203,.T.);
#825=EDGE_CURVE('',#931,#908,#204,.T.);
#826=EDGE_CURVE('',#930,#909,#205,.T.);
#827=EDGE_CURVE('',#929,#910,#206,.T.);
#828=EDGE_CURVE('',#945,#945,#92,.T.);
#829=EDGE_CURVE('',#946,#946,#93,.T.);
#830=VERTEX_POINT('',#1744);
#831=VERTEX_POINT('',#1745);
#832=VERTEX_POINT('',#1747);
#833=VERTEX_POINT('',#1749);
#834=VERTEX_POINT('',#1751);
#835=VERTEX_POINT('',#1753);
#836=VERTEX_POINT('',#1755);
#837=VERTEX_POINT('',#1757);
#838=VERTEX_POINT('',#1759);
#839=VERTEX_POINT('',#1761);
#840=VERTEX_POINT('',#1763);
#841=VERTEX_POINT('',#1765);
#842=VERTEX_POINT('',#1768);
#843=VERTEX_POINT('',#1769);
#844=VERTEX_POINT('',#1771);
#845=VERTEX_POINT('',#1773);
#846=VERTEX_POINT('',#1775);
#847=VERTEX_POINT('',#1777);
#848=VERTEX_POINT('',#1779);
#849=VERTEX_POINT('',#1781);
#850=VERTEX_POINT('',#1783);
#851=VERTEX_POINT('',#1785);
#852=VERTEX_POINT('',#1787);
#853=VERTEX_POINT('',#1789);
#854=VERTEX_POINT('',#1793);
#855=VERTEX_POINT('',#1795);
#856=VERTEX_POINT('',#1799);
#857=VERTEX_POINT('',#1803);
#858=VERTEX_POINT('',#1807);
#859=VERTEX_POINT('',#1811);
#860=VERTEX_POINT('',#1815);
#861=VERTEX_POINT('',#1819);
#862=VERTEX_POINT('',#1823);
#863=VERTEX_POINT('',#1827);
#864=VERTEX_POINT('',#1831);
#865=VERTEX_POINT('',#1835);
#866=VERTEX_POINT('',#1842);
#867=VERTEX_POINT('',#1844);
#868=VERTEX_POINT('',#1848);
#869=VERTEX_POINT('',#1852);
#870=VERTEX_POINT('',#1854);
#871=VERTEX_POINT('',#1856);
#872=VERTEX_POINT('',#1858);
#873=VERTEX_POINT('',#1860);
#874=VERTEX_POINT('',#1862);
#875=VERTEX_POINT('',#1864);
#876=VERTEX_POINT('',#1866);
#877=VERTEX_POINT('',#1868);
#878=VERTEX_POINT('',#1871);
#879=VERTEX_POINT('',#1872);
#880=VERTEX_POINT('',#1874);
#881=VERTEX_POINT('',#1876);
#882=VERTEX_POINT('',#1879);
#883=VERTEX_POINT('',#1881);
#884=VERTEX_POINT('',#1883);
#885=VERTEX_POINT('',#1885);
#886=VERTEX_POINT('',#1887);
#887=VERTEX_POINT('',#1888);
#888=VERTEX_POINT('',#1890);
#889=VERTEX_POINT('',#1892);
#890=VERTEX_POINT('',#1894);
#891=VERTEX_POINT('',#1897);
#892=VERTEX_POINT('',#1898);
#893=VERTEX_POINT('',#1900);
#894=VERTEX_POINT('',#1902);
#895=VERTEX_POINT('',#1904);
#896=VERTEX_POINT('',#1906);
#897=VERTEX_POINT('',#1908);
#898=VERTEX_POINT('',#1910);
#899=VERTEX_POINT('',#1912);
#900=VERTEX_POINT('',#1914);
#901=VERTEX_POINT('',#1916);
#902=VERTEX_POINT('',#1918);
#903=VERTEX_POINT('',#1920);
#904=VERTEX_POINT('',#1922);
#905=VERTEX_POINT('',#1924);
#906=VERTEX_POINT('',#1926);
#907=VERTEX_POINT('',#1928);
#908=VERTEX_POINT('',#1930);
#909=VERTEX_POINT('',#1932);
#910=VERTEX_POINT('',#1934);
#911=VERTEX_POINT('',#1957);
#912=VERTEX_POINT('',#1958);
#913=VERTEX_POINT('',#1963);
#914=VERTEX_POINT('',#1965);
#915=VERTEX_POINT('',#1974);
#916=VERTEX_POINT('',#1978);
#917=VERTEX_POINT('',#1982);
#918=VERTEX_POINT('',#1986);
#919=VERTEX_POINT('',#1990);
#920=VERTEX_POINT('',#1991);
#921=VERTEX_POINT('',#1996);
#922=VERTEX_POINT('',#1998);
#923=VERTEX_POINT('',#2000);
#924=VERTEX_POINT('',#2011);
#925=VERTEX_POINT('',#2012);
#926=VERTEX_POINT('',#2017);
#927=VERTEX_POINT('',#2018);
#928=VERTEX_POINT('',#2020);
#929=VERTEX_POINT('',#2023);
#930=VERTEX_POINT('',#2025);
#931=VERTEX_POINT('',#2027);
#932=VERTEX_POINT('',#2029);
#933=VERTEX_POINT('',#2031);
#934=VERTEX_POINT('',#2033);
#935=VERTEX_POINT('',#2035);
#936=VERTEX_POINT('',#2037);
#937=VERTEX_POINT('',#2039);
#938=VERTEX_POINT('',#2041);
#939=VERTEX_POINT('',#2043);
#940=VERTEX_POINT('',#2045);
#941=VERTEX_POINT('',#2047);
#942=VERTEX_POINT('',#2049);
#943=VERTEX_POINT('',#2051);
#944=VERTEX_POINT('',#2054);
#945=VERTEX_POINT('',#2094);
#946=VERTEX_POINT('',#2097);
#947=ELLIPSE('',#1246,0.00200015231064324,0.002);
#948=ELLIPSE('',#1251,0.00200015231064324,0.002);
#949=ELLIPSE('',#1259,0.00200015231064324,0.002);
#950=ELLIPSE('',#1274,0.00200015231064324,0.002);
#951=EDGE_LOOP('',(#320,#321,#322,#323,#324,#325,#326,#327,#328,#329,#330,
#331));
#952=EDGE_LOOP('',(#332,#333,#334,#335,#336,#337,#338,#339,#340,#341,#342,
#343));
#953=EDGE_LOOP('',(#344,#345,#346,#347));
#954=EDGE_LOOP('',(#348,#349,#350,#351));
#955=EDGE_LOOP('',(#352,#353,#354,#355));
#956=EDGE_LOOP('',(#356,#357,#358,#359));
#957=EDGE_LOOP('',(#360,#361,#362,#363));
#958=EDGE_LOOP('',(#364,#365,#366,#367));
#959=EDGE_LOOP('',(#368,#369,#370,#371));
#960=EDGE_LOOP('',(#372,#373,#374,#375));
#961=EDGE_LOOP('',(#376,#377,#378,#379));
#962=EDGE_LOOP('',(#380,#381,#382,#383));
#963=EDGE_LOOP('',(#384,#385,#386,#387));
#964=EDGE_LOOP('',(#388,#389,#390,#391));
#965=EDGE_LOOP('',(#392,#393,#394,#395,#396,#397,#398,#399,#400,#401,#402,
#403));
#966=EDGE_LOOP('',(#404,#405,#406,#407));
#967=EDGE_LOOP('',(#408,#409,#410,#411));
#968=EDGE_LOOP('',(#412,#413,#414,#415,#416,#417,#418,#419,#420,#421,#422,
#423));
#969=EDGE_LOOP('',(#424,#425,#426,#427));
#970=EDGE_LOOP('',(#428));
#971=EDGE_LOOP('',(#429));
#972=EDGE_LOOP('',(#430));
#973=EDGE_LOOP('',(#431));
#974=EDGE_LOOP('',(#432,#433,#434,#435,#436));
#975=EDGE_LOOP('',(#437,#438,#439,#440,#441,#442,#443,#444,#445,#446,#447,
#448,#449,#450,#451,#452,#453,#454,#455,#456));
#976=EDGE_LOOP('',(#457,#458,#459,#460));
#977=EDGE_LOOP('',(#461,#462,#463,#464));
#978=EDGE_LOOP('',(#465,#466,#467,#468));
#979=EDGE_LOOP('',(#469,#470,#471,#472));
#980=EDGE_LOOP('',(#473,#474,#475,#476));
#981=EDGE_LOOP('',(#477,#478,#479,#480));
#982=EDGE_LOOP('',(#481,#482,#483,#484));
#983=EDGE_LOOP('',(#485,#486,#487,#488));
#984=EDGE_LOOP('',(#489,#490,#491,#492));
#985=EDGE_LOOP('',(#493,#494,#495,#496));
#986=EDGE_LOOP('',(#497,#498,#499,#500));
#987=EDGE_LOOP('',(#501,#502,#503,#504));
#988=EDGE_LOOP('',(#505,#506,#507,#508));
#989=EDGE_LOOP('',(#509,#510,#511,#512));
#990=EDGE_LOOP('',(#513,#514,#515,#516));
#991=EDGE_LOOP('',(#517));
#992=EDGE_LOOP('',(#518));
#993=EDGE_LOOP('',(#519));
#994=EDGE_LOOP('',(#520));
#995=EDGE_LOOP('',(#521));
#996=EDGE_LOOP('',(#522));
#997=EDGE_LOOP('',(#523));
#998=EDGE_LOOP('',(#524));
#999=EDGE_LOOP('',(#525));
#1000=EDGE_LOOP('',(#526));
#1001=EDGE_LOOP('',(#527));
#1002=EDGE_LOOP('',(#528));
#1003=EDGE_LOOP('',(#529,#530,#531,#532));
#1004=EDGE_LOOP('',(#533,#534,#535,#536,#537));
#1005=EDGE_LOOP('',(#538,#539,#540,#541));
#1006=EDGE_LOOP('',(#542,#543,#544,#545));
#1007=EDGE_LOOP('',(#546,#547,#548,#549));
#1008=EDGE_LOOP('',(#550,#551,#552,#553));
#1009=EDGE_LOOP('',(#554,#555,#556,#557));
#1010=EDGE_LOOP('',(#558,#559,#560,#561,#562,#563,#564,#565,#566,#567,#568,
#569,#570,#571,#572,#573,#574,#575,#576,#577));
#1011=EDGE_LOOP('',(#578));
#1012=EDGE_LOOP('',(#579,#580,#581,#582));
#1013=EDGE_LOOP('',(#583,#584,#585,#586));
#1014=EDGE_LOOP('',(#587,#588,#589,#590));
#1015=EDGE_LOOP('',(#591,#592,#593,#594));
#1016=EDGE_LOOP('',(#595,#596,#597,#598));
#1017=EDGE_LOOP('',(#599,#600,#601,#602));
#1018=EDGE_LOOP('',(#603,#604,#605,#606));
#1019=EDGE_LOOP('',(#607,#608,#609,#610));
#1020=EDGE_LOOP('',(#611,#612,#613,#614));
#1021=EDGE_LOOP('',(#615,#616,#617,#618));
#1022=EDGE_LOOP('',(#619,#620,#621,#622));
#1023=EDGE_LOOP('',(#623,#624,#625,#626));
#1024=EDGE_LOOP('',(#627,#628,#629,#630));
#1025=EDGE_LOOP('',(#631,#632,#633,#634));
#1026=EDGE_LOOP('',(#635,#636,#637,#638));
#1027=EDGE_LOOP('',(#639,#640,#641,#642));
#1028=EDGE_LOOP('',(#643,#644,#645,#646));
#1029=EDGE_LOOP('',(#647,#648,#649,#650));
#1030=EDGE_LOOP('',(#651,#652,#653,#654));
#1031=EDGE_LOOP('',(#655));
#1032=EDGE_LOOP('',(#656));
#1033=EDGE_LOOP('',(#657));
#1034=EDGE_LOOP('',(#658));
#1035=EDGE_LOOP('',(#659));
#1036=FACE_BOUND('',#951,.T.);
#1037=FACE_BOUND('',#952,.T.);
#1038=FACE_BOUND('',#953,.T.);
#1039=FACE_BOUND('',#954,.T.);
#1040=FACE_BOUND('',#955,.T.);
#1041=FACE_BOUND('',#956,.T.);
#1042=FACE_BOUND('',#957,.T.);
#1043=FACE_BOUND('',#958,.T.);
#1044=FACE_BOUND('',#959,.T.);
#1045=FACE_BOUND('',#960,.T.);
#1046=FACE_BOUND('',#961,.T.);
#1047=FACE_BOUND('',#962,.T.);
#1048=FACE_BOUND('',#963,.T.);
#1049=FACE_BOUND('',#964,.T.);
#1050=FACE_BOUND('',#965,.T.);
#1051=FACE_BOUND('',#966,.T.);
#1052=FACE_BOUND('',#967,.T.);
#1053=FACE_BOUND('',#968,.T.);
#1054=FACE_BOUND('',#969,.T.);
#1055=FACE_BOUND('',#970,.T.);
#1056=FACE_BOUND('',#971,.T.);
#1057=FACE_BOUND('',#972,.T.);
#1058=FACE_BOUND('',#973,.T.);
#1059=FACE_BOUND('',#974,.T.);
#1060=FACE_BOUND('',#975,.T.);
#1061=FACE_BOUND('',#976,.T.);
#1062=FACE_BOUND('',#977,.T.);
#1063=FACE_BOUND('',#978,.T.);
#1064=FACE_BOUND('',#979,.T.);
#1065=FACE_BOUND('',#980,.T.);
#1066=FACE_BOUND('',#981,.T.);
#1067=FACE_BOUND('',#982,.T.);
#1068=FACE_BOUND('',#983,.T.);
#1069=FACE_BOUND('',#984,.T.);
#1070=FACE_BOUND('',#985,.T.);
#1071=FACE_BOUND('',#986,.T.);
#1072=FACE_BOUND('',#987,.T.);
#1073=FACE_BOUND('',#988,.T.);
#1074=FACE_BOUND('',#989,.T.);
#1075=FACE_BOUND('',#990,.T.);
#1076=FACE_BOUND('',#991,.T.);
#1077=FACE_BOUND('',#992,.T.);
#1078=FACE_BOUND('',#993,.T.);
#1079=FACE_BOUND('',#994,.T.);
#1080=FACE_BOUND('',#995,.T.);
#1081=FACE_BOUND('',#996,.T.);
#1082=FACE_BOUND('',#997,.T.);
#1083=FACE_BOUND('',#998,.T.);
#1084=FACE_BOUND('',#999,.T.);
#1085=FACE_BOUND('',#1000,.T.);
#1086=FACE_BOUND('',#1001,.T.);
#1087=FACE_BOUND('',#1002,.T.);
#1088=FACE_BOUND('',#1003,.T.);
#1089=FACE_BOUND('',#1004,.T.);
#1090=FACE_BOUND('',#1005,.T.);
#1091=FACE_BOUND('',#1006,.T.);
#1092=FACE_BOUND('',#1007,.T.);
#1093=FACE_BOUND('',#1008,.T.);
#1094=FACE_BOUND('',#1009,.T.);
#1095=FACE_BOUND('',#1010,.T.);
#1096=FACE_BOUND('',#1011,.T.);
#1097=FACE_BOUND('',#1012,.T.);
#1098=FACE_BOUND('',#1013,.T.);
#1099=FACE_BOUND('',#1014,.T.);
#1100=FACE_BOUND('',#1015,.T.);
#1101=FACE_BOUND('',#1016,.T.);
#1102=FACE_BOUND('',#1017,.T.);
#1103=FACE_BOUND('',#1018,.T.);
#1104=FACE_BOUND('',#1019,.T.);
#1105=FACE_BOUND('',#1020,.T.);
#1106=FACE_BOUND('',#1021,.T.);
#1107=FACE_BOUND('',#1022,.T.);
#1108=FACE_BOUND('',#1023,.T.);
#1109=FACE_BOUND('',#1024,.T.);
#1110=FACE_BOUND('',#1025,.T.);
#1111=FACE_BOUND('',#1026,.T.);
#1112=FACE_BOUND('',#1027,.T.);
#1113=FACE_BOUND('',#1028,.T.);
#1114=FACE_BOUND('',#1029,.T.);
#1115=FACE_BOUND('',#1030,.T.);
#1116=FACE_BOUND('',#1031,.T.);
#1117=FACE_BOUND('',#1032,.T.);
#1118=FACE_BOUND('',#1033,.T.);
#1119=FACE_BOUND('',#1034,.T.);
#1120=FACE_BOUND('',#1035,.T.);
#1121=PLANE('',#1245);
#1122=PLANE('',#1260);
#1123=PLANE('',#1263);
#1124=PLANE('',#1266);
#1125=PLANE('',#1269);
#1126=PLANE('',#1272);
#1127=PLANE('',#1275);
#1128=PLANE('',#1276);
#1129=PLANE('',#1277);
#1130=PLANE('',#1280);
#1131=PLANE('',#1301);
#1132=PLANE('',#1303);
#1133=PLANE('',#1305);
#1134=PLANE('',#1307);
#1135=PLANE('',#1309);
#1136=PLANE('',#1313);
#1137=PLANE('',#1315);
#1138=PLANE('',#1316);
#1139=PLANE('',#1320);
#1140=PLANE('',#1323);
#1141=PLANE('',#1326);
#1142=PLANE('',#1329);
#1143=PLANE('',#1330);
#1144=PLANE('',#1331);
#1145=PLANE('',#1335);
#1146=PLANE('',#1337);
#1147=PLANE('',#1338);
#1148=PLANE('',#1339);
#1149=PLANE('',#1348);
#1150=PLANE('',#1350);
#1151=PLANE('',#1352);
#1152=PLANE('',#1353);
#1153=PLANE('',#1355);
#1154=PLANE('',#1356);
#1155=PLANE('',#1357);
#1156=PLANE('',#1359);
#1157=PLANE('',#1361);
#1158=PLANE('',#1363);
#1159=PLANE('',#1364);
#1160=PLANE('',#1365);
#1161=PLANE('',#1371);
#1162=ADVANCED_FACE('',(#1036,#1037),#1121,.F.);
#1163=ADVANCED_FACE('',(#1038),#13,.T.);
#1164=ADVANCED_FACE('',(#1039),#1122,.T.);
#1165=ADVANCED_FACE('',(#1040),#14,.T.);
#1166=ADVANCED_FACE('',(#1041),#1123,.T.);
#1167=ADVANCED_FACE('',(#1042),#15,.T.);
#1168=ADVANCED_FACE('',(#1043),#1124,.T.);
#1169=ADVANCED_FACE('',(#1044),#16,.T.);
#1170=ADVANCED_FACE('',(#1045),#1125,.T.);
#1171=ADVANCED_FACE('',(#1046),#17,.T.);
#1172=ADVANCED_FACE('',(#1047),#1126,.T.);
#1173=ADVANCED_FACE('',(#1048),#18,.T.);
#1174=ADVANCED_FACE('',(#1049),#1127,.T.);
#1175=ADVANCED_FACE('',(#1050),#1128,.F.);
#1176=ADVANCED_FACE('',(#1051),#1129,.T.);
#1177=ADVANCED_FACE('',(#1052),#19,.T.);
#1178=ADVANCED_FACE('',(#1053,#1054,#1055,#1056,#1057,#1058,#1059,#1060),
#1130,.T.);
#1179=ADVANCED_FACE('',(#1061),#1131,.T.);
#1180=ADVANCED_FACE('',(#1062),#20,.T.);
#1181=ADVANCED_FACE('',(#1063),#1132,.T.);
#1182=ADVANCED_FACE('',(#1064),#21,.T.);
#1183=ADVANCED_FACE('',(#1065),#1133,.T.);
#1184=ADVANCED_FACE('',(#1066),#22,.T.);
#1185=ADVANCED_FACE('',(#1067),#1134,.T.);
#1186=ADVANCED_FACE('',(#1068),#23,.T.);
#1187=ADVANCED_FACE('',(#1069),#1135,.T.);
#1188=ADVANCED_FACE('',(#1070),#24,.T.);
#1189=ADVANCED_FACE('',(#1071),#25,.T.);
#1190=ADVANCED_FACE('',(#1072),#1136,.F.);
#1191=ADVANCED_FACE('',(#1073),#1137,.F.);
#1192=ADVANCED_FACE('',(#1074),#1138,.T.);
#1193=ADVANCED_FACE('',(#1075),#26,.T.);
#1194=ADVANCED_FACE('',(#1076,#1077),#27,.F.);
#1195=ADVANCED_FACE('',(#1078),#1139,.F.);
#1196=ADVANCED_FACE('',(#1079,#1080),#28,.F.);
#1197=ADVANCED_FACE('',(#1081),#1140,.F.);
#1198=ADVANCED_FACE('',(#1082,#1083),#29,.F.);
#1199=ADVANCED_FACE('',(#1084),#1141,.F.);
#1200=ADVANCED_FACE('',(#1085,#1086),#30,.F.);
#1201=ADVANCED_FACE('',(#1087),#1142,.F.);
#1202=ADVANCED_FACE('',(#1088),#1143,.F.);
#1203=ADVANCED_FACE('',(#1089),#1144,.F.);
#1204=ADVANCED_FACE('',(#1090),#31,.T.);
#1205=ADVANCED_FACE('',(#1091),#1145,.F.);
#1206=ADVANCED_FACE('',(#1092),#32,.T.);
#1207=ADVANCED_FACE('',(#1093),#1146,.T.);
#1208=ADVANCED_FACE('',(#1094),#1147,.T.);
#1209=ADVANCED_FACE('',(#1095,#1096),#1148,.F.);
#1210=ADVANCED_FACE('',(#1097),#1149,.F.);
#1211=ADVANCED_FACE('',(#1098),#33,.T.);
#1212=ADVANCED_FACE('',(#1099),#1150,.F.);
#1213=ADVANCED_FACE('',(#1100),#34,.T.);
#1214=ADVANCED_FACE('',(#1101),#1151,.F.);
#1215=ADVANCED_FACE('',(#1102),#1152,.T.);
#1216=ADVANCED_FACE('',(#1103),#35,.F.);
#1217=ADVANCED_FACE('',(#1104),#1153,.F.);
#1218=ADVANCED_FACE('',(#1105),#1154,.F.);
#1219=ADVANCED_FACE('',(#1106),#1155,.F.);
#1220=ADVANCED_FACE('',(#1107),#36,.F.);
#1221=ADVANCED_FACE('',(#1108),#1156,.F.);
#1222=ADVANCED_FACE('',(#1109),#37,.T.);
#1223=ADVANCED_FACE('',(#1110),#1157,.F.);
#1224=ADVANCED_FACE('',(#1111),#38,.F.);
#1225=ADVANCED_FACE('',(#1112),#1158,.F.);
#1226=ADVANCED_FACE('',(#1113),#1159,.F.);
#1227=ADVANCED_FACE('',(#1114),#1160,.F.);
#1228=ADVANCED_FACE('',(#1115),#39,.F.);
#1229=ADVANCED_FACE('',(#1116,#1117),#40,.T.);
#1230=ADVANCED_FACE('',(#1118,#1119),#12,.T.);
#1231=ADVANCED_FACE('',(#1120),#1161,.T.);
#1232=CLOSED_SHELL('',(#1162,#1163,#1164,#1165,#1166,#1167,#1168,#1169,
#1170,#1171,#1172,#1173,#1174,#1175,#1176,#1177,#1178,#1179,#1180,#1181,
#1182,#1183,#1184,#1185,#1186,#1187,#1188,#1189,#1190,#1191,#1192,#1193,
#1194,#1195,#1196,#1197,#1198,#1199,#1200,#1201,#1202,#1203,#1204,#1205,
#1206,#1207,#1208,#1209,#1210,#1211,#1212,#1213,#1214,#1215,#1216,#1217,
#1218,#1219,#1220,#1221,#1222,#1223,#1224,#1225,#1226,#1227,#1228,#1229,
#1230,#1231));
#1233=STYLED_ITEM('',(#1234),#1241);
#1234=PRESENTATION_STYLE_ASSIGNMENT((#1235));
#1235=SURFACE_STYLE_USAGE(.BOTH.,#1236);
#1236=SURFACE_SIDE_STYLE('',(#1237));
#1237=SURFACE_STYLE_FILL_AREA(#1238);
#1238=FILL_AREA_STYLE('',(#1239));
#1239=FILL_AREA_STYLE_COLOUR('',#1240);
#1240=COLOUR_RGB('',0.0980392156862745,0.0980392156862745,0.0980392156862745);
#1241=MANIFOLD_SOLID_BREP('ZK_122',#1232);
#1242=SHAPE_DEFINITION_REPRESENTATION(#2105,#1243);
#1243=SHAPE_REPRESENTATION('ZK_122',(#1244),#2100);
#1244=AXIS2_PLACEMENT_3D('',#1741,#1372,#1373);
#1245=AXIS2_PLACEMENT_3D('',#1742,#1374,#1375);
#1246=AXIS2_PLACEMENT_3D('',#1743,#1376,#1377);
#1247=AXIS2_PLACEMENT_3D('',#1748,#1379,#1380);
#1248=AXIS2_PLACEMENT_3D('',#1752,#1382,#1383);
#1249=AXIS2_PLACEMENT_3D('',#1756,#1385,#1386);
#1250=AXIS2_PLACEMENT_3D('',#1760,#1388,#1389);
#1251=AXIS2_PLACEMENT_3D('',#1764,#1391,#1392);
#1252=AXIS2_PLACEMENT_3D('',#1770,#1395,#1396);
#1253=AXIS2_PLACEMENT_3D('',#1774,#1398,#1399);
#1254=AXIS2_PLACEMENT_3D('',#1778,#1401,#1402);
#1255=AXIS2_PLACEMENT_3D('',#1782,#1404,#1405);
#1256=AXIS2_PLACEMENT_3D('',#1786,#1407,#1408);
#1257=AXIS2_PLACEMENT_3D('',#1790,#1410,#1411);
#1258=AXIS2_PLACEMENT_3D('',#1791,#1412,#1413);
#1259=AXIS2_PLACEMENT_3D('',#1794,#1415,#1416);
#1260=AXIS2_PLACEMENT_3D('',#1797,#1418,#1419);
#1261=AXIS2_PLACEMENT_3D('',#1801,#1422,#1423);
#1262=AXIS2_PLACEMENT_3D('',#1802,#1424,#1425);
#1263=AXIS2_PLACEMENT_3D('',#1805,#1427,#1428);
#1264=AXIS2_PLACEMENT_3D('',#1809,#1431,#1432);
#1265=AXIS2_PLACEMENT_3D('',#1810,#1433,#1434);
#1266=AXIS2_PLACEMENT_3D('',#1813,#1436,#1437);
#1267=AXIS2_PLACEMENT_3D('',#1817,#1440,#1441);
#1268=AXIS2_PLACEMENT_3D('',#1818,#1442,#1443);
#1269=AXIS2_PLACEMENT_3D('',#1821,#1445,#1446);
#1270=AXIS2_PLACEMENT_3D('',#1825,#1449,#1450);
#1271=AXIS2_PLACEMENT_3D('',#1826,#1451,#1452);
#1272=AXIS2_PLACEMENT_3D('',#1829,#1454,#1455);
#1273=AXIS2_PLACEMENT_3D('',#1833,#1458,#1459);
#1274=AXIS2_PLACEMENT_3D('',#1834,#1460,#1461);
#1275=AXIS2_PLACEMENT_3D('',#1837,#1463,#1464);
#1276=AXIS2_PLACEMENT_3D('',#1839,#1466,#1467);
#1277=AXIS2_PLACEMENT_3D('',#1840,#1468,#1469);
#1278=AXIS2_PLACEMENT_3D('',#1846,#1473,#1474);
#1279=AXIS2_PLACEMENT_3D('',#1847,#1475,#1476);
#1280=AXIS2_PLACEMENT_3D('',#1850,#1478,#1479);
#1281=AXIS2_PLACEMENT_3D('',#1851,#1480,#1481);
#1282=AXIS2_PLACEMENT_3D('',#1855,#1483,#1484);
#1283=AXIS2_PLACEMENT_3D('',#1859,#1486,#1487);
#1284=AXIS2_PLACEMENT_3D('',#1863,#1489,#1490);
#1285=AXIS2_PLACEMENT_3D('',#1867,#1492,#1493);
#1286=AXIS2_PLACEMENT_3D('',#1870,#1495,#1496);
#1287=AXIS2_PLACEMENT_3D('',#1877,#1499,#1500);
#1288=AXIS2_PLACEMENT_3D('',#1878,#1501,#1502);
#1289=AXIS2_PLACEMENT_3D('',#1880,#1503,#1504);
#1290=AXIS2_PLACEMENT_3D('',#1882,#1505,#1506);
#1291=AXIS2_PLACEMENT_3D('',#1884,#1507,#1508);
#1292=AXIS2_PLACEMENT_3D('',#1889,#1510,#1511);
#1293=AXIS2_PLACEMENT_3D('',#1893,#1513,#1514);
#1294=AXIS2_PLACEMENT_3D('',#1901,#1518,#1519);
#1295=AXIS2_PLACEMENT_3D('',#1905,#1521,#1522);
#1296=AXIS2_PLACEMENT_3D('',#1911,#1525,#1526);
#1297=AXIS2_PLACEMENT_3D('',#1919,#1530,#1531);
#1298=AXIS2_PLACEMENT_3D('',#1923,#1533,#1534);
#1299=AXIS2_PLACEMENT_3D('',#1927,#1536,#1537);
#1300=AXIS2_PLACEMENT_3D('',#1935,#1541,#1542);
#1301=AXIS2_PLACEMENT_3D('',#1936,#1543,#1544);
#1302=AXIS2_PLACEMENT_3D('',#1938,#1546,#1547);
#1303=AXIS2_PLACEMENT_3D('',#1940,#1549,#1550);
#1304=AXIS2_PLACEMENT_3D('',#1942,#1552,#1553);
#1305=AXIS2_PLACEMENT_3D('',#1944,#1555,#1556);
#1306=AXIS2_PLACEMENT_3D('',#1946,#1558,#1559);
#1307=AXIS2_PLACEMENT_3D('',#1948,#1561,#1562);
#1308=AXIS2_PLACEMENT_3D('',#1950,#1564,#1565);
#1309=AXIS2_PLACEMENT_3D('',#1952,#1567,#1568);
#1310=AXIS2_PLACEMENT_3D('',#1954,#1570,#1571);
#1311=AXIS2_PLACEMENT_3D('',#1955,#1572,#1573);
#1312=AXIS2_PLACEMENT_3D('',#1956,#1574,#1575);
#1313=AXIS2_PLACEMENT_3D('',#1961,#1578,#1579);
#1314=AXIS2_PLACEMENT_3D('',#1964,#1581,#1582);
#1315=AXIS2_PLACEMENT_3D('',#1967,#1584,#1585);
#1316=AXIS2_PLACEMENT_3D('',#1969,#1587,#1588);
#1317=AXIS2_PLACEMENT_3D('',#1971,#1590,#1591);
#1318=AXIS2_PLACEMENT_3D('',#1972,#1592,#1593);
#1319=AXIS2_PLACEMENT_3D('',#1973,#1594,#1595);
#1320=AXIS2_PLACEMENT_3D('',#1975,#1596,#1597);
#1321=AXIS2_PLACEMENT_3D('',#1976,#1598,#1599);
#1322=AXIS2_PLACEMENT_3D('',#1977,#1600,#1601);
#1323=AXIS2_PLACEMENT_3D('',#1979,#1602,#1603);
#1324=AXIS2_PLACEMENT_3D('',#1980,#1604,#1605);
#1325=AXIS2_PLACEMENT_3D('',#1981,#1606,#1607);
#1326=AXIS2_PLACEMENT_3D('',#1983,#1608,#1609);
#1327=AXIS2_PLACEMENT_3D('',#1984,#1610,#1611);
#1328=AXIS2_PLACEMENT_3D('',#1985,#1612,#1613);
#1329=AXIS2_PLACEMENT_3D('',#1987,#1614,#1615);
#1330=AXIS2_PLACEMENT_3D('',#1988,#1616,#1617);
#1331=AXIS2_PLACEMENT_3D('',#1994,#1621,#1622);
#1332=AXIS2_PLACEMENT_3D('',#1997,#1624,#1625);
#1333=AXIS2_PLACEMENT_3D('',#2001,#1627,#1628);
#1334=AXIS2_PLACEMENT_3D('',#2002,#1629,#1630);
#1335=AXIS2_PLACEMENT_3D('',#2004,#1632,#1633);
#1336=AXIS2_PLACEMENT_3D('',#2006,#1635,#1636);
#1337=AXIS2_PLACEMENT_3D('',#2008,#1638,#1639);
#1338=AXIS2_PLACEMENT_3D('',#2009,#1640,#1641);
#1339=AXIS2_PLACEMENT_3D('',#2015,#1645,#1646);
#1340=AXIS2_PLACEMENT_3D('',#2019,#1648,#1649);
#1341=AXIS2_PLACEMENT_3D('',#2022,#1651,#1652);
#1342=AXIS2_PLACEMENT_3D('',#2030,#1656,#1657);
#1343=AXIS2_PLACEMENT_3D('',#2034,#1659,#1660);
#1344=AXIS2_PLACEMENT_3D('',#2038,#1662,#1663);
#1345=AXIS2_PLACEMENT_3D('',#2046,#1667,#1668);
#1346=AXIS2_PLACEMENT_3D('',#2052,#1671,#1672);
#1347=AXIS2_PLACEMENT_3D('',#2053,#1673,#1674);
#1348=AXIS2_PLACEMENT_3D('',#2055,#1675,#1676);
#1349=AXIS2_PLACEMENT_3D('',#2058,#1679,#1680);
#1350=AXIS2_PLACEMENT_3D('',#2060,#1682,#1683);
#1351=AXIS2_PLACEMENT_3D('',#2061,#1684,#1685);
#1352=AXIS2_PLACEMENT_3D('',#2063,#1687,#1688);
#1353=AXIS2_PLACEMENT_3D('',#2065,#1690,#1691);
#1354=AXIS2_PLACEMENT_3D('',#2067,#1693,#1694);
#1355=AXIS2_PLACEMENT_3D('',#2069,#1696,#1697);
#1356=AXIS2_PLACEMENT_3D('',#2071,#1699,#1700);
#1357=AXIS2_PLACEMENT_3D('',#2073,#1702,#1703);
#1358=AXIS2_PLACEMENT_3D('',#2075,#1705,#1706);
#1359=AXIS2_PLACEMENT_3D('',#2077,#1708,#1709);
#1360=AXIS2_PLACEMENT_3D('',#2079,#1711,#1712);
#1361=AXIS2_PLACEMENT_3D('',#2081,#1714,#1715);
#1362=AXIS2_PLACEMENT_3D('',#2083,#1717,#1718);
#1363=AXIS2_PLACEMENT_3D('',#2085,#1720,#1721);
#1364=AXIS2_PLACEMENT_3D('',#2087,#1723,#1724);
#1365=AXIS2_PLACEMENT_3D('',#2089,#1726,#1727);
#1366=AXIS2_PLACEMENT_3D('',#2091,#1729,#1730);
#1367=AXIS2_PLACEMENT_3D('',#2092,#1731,#1732);
#1368=AXIS2_PLACEMENT_3D('',#2093,#1733,#1734);
#1369=AXIS2_PLACEMENT_3D('',#2095,#1735,#1736);
#1370=AXIS2_PLACEMENT_3D('',#2096,#1737,#1738);
#1371=AXIS2_PLACEMENT_3D('',#2098,#1739,#1740);
#1372=DIRECTION('',(0.,0.,1.));
#1373=DIRECTION('',(1.,0.,0.));
#1374=DIRECTION('',(0.,-1.,0.));
#1375=DIRECTION('',(-1.,0.,0.));
#1376=DIRECTION('',(0.,-1.,0.));
#1377=DIRECTION('',(0.707106781186919,0.,-0.707106781186176));
#1378=DIRECTION('',(1.,0.,0.));
#1379=DIRECTION('',(1.74074645481483E-14,-1.,8.7513531145258E-14));
#1380=DIRECTION('',(1.29945470680718E-6,-8.77112338733729E-14,-0.999999999999156));
#1381=DIRECTION('',(0.707106781186498,0.,-0.707106781186597));
#1382=DIRECTION('',(-2.02890546474565E-14,-1.,-2.72458285459622E-14));
#1383=DIRECTION('',(-0.707105862334135,3.33080634962175E-14,-0.707107700037766));
#1384=DIRECTION('',(0.,0.,-1.));
#1385=DIRECTION('',(-2.02890546474563E-14,-1.,2.72458285459621E-14));
#1386=DIRECTION('',(-0.999999999999156,1.99848380977306E-14,-1.29945519921138E-6));
#1387=DIRECTION('',(-0.707106781186498,0.,-0.707106781186597));
#1388=DIRECTION('',(1.74074645481483E-14,-1.,-8.7513531145258E-14));
#1389=DIRECTION('',(-0.707107700038019,-7.43880084748859E-14,0.707105862333882));
#1390=DIRECTION('',(-1.,0.,0.));
#1391=DIRECTION('',(0.,-1.,0.));
#1392=DIRECTION('',(0.707106781186176,0.,0.707106781186919));
#1393=DIRECTION('',(0.,0.,1.));
#1394=DIRECTION('',(0.,0.,1.));
#1395=DIRECTION('',(0.,-1.,0.));
#1396=DIRECTION('',(-1.,0.,0.));
#1397=DIRECTION('',(-1.,0.,0.));
#1398=DIRECTION('',(0.,1.,0.));
#1399=DIRECTION('',(-0.707188247125402,0.,0.707025305860902));
#1400=DIRECTION('',(0.707106781186548,0.,0.707106781186548));
#1401=DIRECTION('',(0.,1.,0.));
#1402=DIRECTION('',(-0.999999993362538,0.,-0.000115216858939904));
#1403=DIRECTION('',(0.,0.,-1.));
#1404=DIRECTION('',(0.,1.,0.));
#1405=DIRECTION('',(-0.707025305880954,0.,-0.707188247105354));
#1406=DIRECTION('',(-0.707106781186548,0.,0.707106781186548));
#1407=DIRECTION('',(0.,1.,0.));
#1408=DIRECTION('',(0.000115216861632504,0.,-0.999999993362537));
#1409=DIRECTION('',(1.,0.,0.));
#1410=DIRECTION('',(0.,-1.,0.));
#1411=DIRECTION('',(-1.,0.,0.));
#1412=DIRECTION('',(0.00872620324394374,0.99992385047757,-0.00872620324394374));
#1413=DIRECTION('',(0.999961923064171,-0.00872653549837346,6.19350491032327E-18));
#1414=DIRECTION('',(-0.00872620324395074,-0.999923850477571,0.00872620324389875));
#1415=DIRECTION('',(0.,1.,0.));
#1416=DIRECTION('',(0.707106781186919,0.,-0.707106781186176));
#1417=DIRECTION('',(0.00872620324392475,0.999923850477571,-0.00872620324389875));
#1418=DIRECTION('',(0.,-0.00872653549837375,-0.999961923064171));
#1419=DIRECTION('',(1.,0.,0.));
#1420=DIRECTION('',(1.,0.,0.));
#1421=DIRECTION('',(0.00361462574228483,-0.999955390531953,0.00872647848978359));
#1422=DIRECTION('',(-0.00361462574224383,0.999955390531953,-0.00872647848982859));
#1423=DIRECTION('',(-5.55653613398805E-19,-0.0087265354983736,-0.999961923064171));
#1424=DIRECTION('',(2.8129134729734E-14,1.,8.3072469944898E-14));
#1425=DIRECTION('',(-0.70710770003719,7.86209082108633E-14,-0.707105862334711));
#1426=DIRECTION('',(-0.00361462574228383,0.999955390531953,-0.00872647848978459));
#1427=DIRECTION('',(-0.707079856727016,-0.0087265354983742,-0.707079856727016));
#1428=DIRECTION('',(0.707106781186548,0.,-0.707106781186548));
#1429=DIRECTION('',(-0.707106781186498,0.,0.707106781186598));
#1430=DIRECTION('',(0.00872647848978359,-0.999955390531953,0.00361462574228583));
#1431=DIRECTION('',(-0.00872647848982859,0.999955390531953,-0.00361462574224383));
#1432=DIRECTION('',(-0.707079856727016,-0.00872653549837342,-0.707079856727016));
#1433=DIRECTION('',(2.91711770484784E-14,1.,5.80248818269844E-15));
#1434=DIRECTION('',(-0.999999999999156,2.91445555591903E-14,1.29945550064935E-6));
#1435=DIRECTION('',(-0.00872647848978359,0.999955390531953,-0.00361462574225883));
#1436=DIRECTION('',(-0.999961923064171,-0.00872653549837375,0.));
#1437=DIRECTION('',(0.,0.,-1.));
#1438=DIRECTION('',(0.,0.,1.));
#1439=DIRECTION('',(0.00872647848978359,-0.999955390531953,-0.00361462574225983));
#1440=DIRECTION('',(-0.00872647848982859,0.999955390531953,0.00361462574224383));
#1441=DIRECTION('',(-0.999961923064171,-0.0087265354983736,5.55653613398805E-19));
#1442=DIRECTION('',(2.91711770484784E-14,1.,-5.80248818269843E-15));
#1443=DIRECTION('',(-0.707105862334964,2.47034804263613E-14,0.707107700036938));
#1444=DIRECTION('',(-0.00872647848978359,0.999955390531953,0.00361462574228583));
#1445=DIRECTION('',(-0.707079856727016,-0.0087265354983742,0.707079856727016));
#1446=DIRECTION('',(-0.707106781186548,0.,-0.707106781186548));
#1447=DIRECTION('',(0.707106781186498,0.,0.707106781186598));
#1448=DIRECTION('',(0.00361462574228583,-0.999955390531953,-0.00872647848978359));
#1449=DIRECTION('',(-0.00361462574224383,0.999955390531953,0.00872647848982859));
#1450=DIRECTION('',(-0.707079856727016,-0.00872653549837342,0.707079856727016));
#1451=DIRECTION('',(2.8129134729734E-14,1.,-8.30724699448981E-14));
#1452=DIRECTION('',(1.29945550175962E-6,8.30619833436924E-14,0.999999999999156));
#1453=DIRECTION('',(-0.00361462574228583,0.999955390531953,0.00872647848978359));
#1454=DIRECTION('',(0.,-0.00872653549837375,0.999961923064171));
#1455=DIRECTION('',(-1.,0.,0.));
#1456=DIRECTION('',(1.,0.,0.));
#1457=DIRECTION('',(-0.00872620324392575,-0.999923850477571,-0.00872620324389875));
#1458=DIRECTION('',(0.00872620324394374,0.99992385047757,0.00872620324394374));
#1459=DIRECTION('',(-6.19350491032327E-18,-0.00872653549837346,0.999961923064171));
#1460=DIRECTION('',(0.,1.,0.));
#1461=DIRECTION('',(0.707106781186176,0.,0.707106781186919));
#1462=DIRECTION('',(0.00872620324395074,0.999923850477571,0.00872620324389974));
#1463=DIRECTION('',(0.999961923064171,-0.00872653549837375,0.));
#1464=DIRECTION('',(0.,0.,1.));
#1465=DIRECTION('',(0.,0.,1.));
#1466=DIRECTION('',(0.,1.,0.));
#1467=DIRECTION('',(1.,0.,0.));
#1468=DIRECTION('',(1.,0.,0.));
#1469=DIRECTION('',(0.,0.,-1.));
#1470=DIRECTION('',(1.57108786428017E-17,1.,-5.91799730156716E-16));
#1471=DIRECTION('',(0.,0.,1.));
#1472=DIRECTION('',(7.8906630687408E-16,1.,2.09478381147052E-17));
#1473=DIRECTION('',(7.8906630687408E-16,1.,2.09478381147052E-17));
#1474=DIRECTION('',(0.707099104500727,0.,0.707114457789028));
#1475=DIRECTION('',(0.,1.,0.));
#1476=DIRECTION('',(1.,0.,0.));
#1477=DIRECTION('',(7.8906630687408E-16,1.,2.09478381147052E-17));
#1478=DIRECTION('',(0.,1.,0.));
#1479=DIRECTION('',(1.,0.,0.));
#1480=DIRECTION('',(0.,1.,0.));
#1481=DIRECTION('',(1.,0.,0.));
#1482=DIRECTION('',(1.,0.,0.));
#1483=DIRECTION('',(0.,-1.,0.));
#1484=DIRECTION('',(-0.707188247119203,0.,-0.707025305867102));
#1485=DIRECTION('',(0.707106781186548,0.,-0.707106781186548));
#1486=DIRECTION('',(0.,-1.,0.));
#1487=DIRECTION('',(-0.999999993362538,0.,0.000115216858854604));
#1488=DIRECTION('',(0.,0.,-1.));
#1489=DIRECTION('',(0.,-1.,0.));
#1490=DIRECTION('',(-0.707025305871153,0.,0.707188247115153));
#1491=DIRECTION('',(-0.707106781186548,0.,-0.707106781186548));
#1492=DIRECTION('',(0.,-1.,0.));
#1493=DIRECTION('',(0.000115216857503004,0.,0.999999993362538));
#1494=DIRECTION('',(-1.,0.,0.));
#1495=DIRECTION('',(0.,-1.,0.));
#1496=DIRECTION('',(-0.91879422368926,0.,0.394736842105283));
#1497=DIRECTION('',(1.,0.,-4.325078983844E-14));
#1498=DIRECTION('',(0.167089143052204,0.,0.985941792538525));
#1499=DIRECTION('',(0.,-1.,0.));
#1500=DIRECTION('',(0.575708382676508,0.,0.817655097284912));
#1501=DIRECTION('',(0.,1.,0.));
#1502=DIRECTION('',(-1.,0.,0.));
#1503=DIRECTION('',(0.,1.,0.));
#1504=DIRECTION('',(-1.,0.,0.));
#1505=DIRECTION('',(0.,1.,0.));
#1506=DIRECTION('',(-1.,0.,0.));
#1507=DIRECTION('',(0.,1.,0.));
#1508=DIRECTION('',(-1.,0.,0.));
#1509=DIRECTION('',(-1.,0.,-2.127570717175E-14));
#1510=DIRECTION('',(0.,-1.,0.));
#1511=DIRECTION('',(-1.,0.,0.));
#1512=DIRECTION('',(0.,0.,-1.));
#1513=DIRECTION('',(0.,-1.,0.));
#1514=DIRECTION('',(0.336787564766814,0.,-0.941580658371039));
#1515=DIRECTION('',(-1.585082144201E-14,0.,-1.));
#1516=DIRECTION('',(2.167209568035E-14,0.,-1.));
#1517=DIRECTION('',(1.,0.,2.069691143396E-14));
#1518=DIRECTION('',(0.,-1.,0.));
#1519=DIRECTION('',(1.,0.,0.));
#1520=DIRECTION('',(0.,0.,1.));
#1521=DIRECTION('',(0.,-1.,0.));
#1522=DIRECTION('',(1.,0.,0.));
#1523=DIRECTION('',(-1.,0.,2.063361812683E-14));
#1524=DIRECTION('',(0.,0.,-1.));
#1525=DIRECTION('',(0.,1.,0.));
#1526=DIRECTION('',(-0.263929618768308,0.,-0.96454194120153));
#1527=DIRECTION('',(0.,0.,-1.));
#1528=DIRECTION('',(1.,0.,0.));
#1529=DIRECTION('',(0.,0.,1.));
#1530=DIRECTION('',(0.,1.,0.));
#1531=DIRECTION('',(1.,0.,0.));
#1532=DIRECTION('',(1.925661430809E-14,0.,-1.));
#1533=DIRECTION('',(0.,-1.,0.));
#1534=DIRECTION('',(0.,0.,1.));
#1535=DIRECTION('',(0.999969865117693,0.,0.00776330190721695));
#1536=DIRECTION('',(0.,1.,0.));
#1537=DIRECTION('',(0.263929618768308,0.,0.96454194120153));
#1538=DIRECTION('',(0.,0.,1.));
#1539=DIRECTION('',(-1.,0.,0.));
#1540=DIRECTION('',(0.,0.,-1.));
#1541=DIRECTION('',(0.,1.,0.));
#1542=DIRECTION('',(-0.381231671554306,0.,0.924479536065515));
#1543=DIRECTION('',(0.,0.,1.));
#1544=DIRECTION('',(1.,0.,0.));
#1545=DIRECTION('',(0.,1.,0.));
#1546=DIRECTION('',(0.,1.,0.));
#1547=DIRECTION('',(-0.760305827557085,0.,0.649565276614087));
#1548=DIRECTION('',(0.,1.,0.));
#1549=DIRECTION('',(-0.707106781186548,0.,0.707106781186548));
#1550=DIRECTION('',(0.707106781186548,0.,0.707106781186548));
#1551=DIRECTION('',(0.,1.,0.));
#1552=DIRECTION('',(0.,1.,0.));
#1553=DIRECTION('',(-0.996929418358541,0.,-0.0783053945223532));
#1554=DIRECTION('',(0.,1.,0.));
#1555=DIRECTION('',(-1.,0.,0.));
#1556=DIRECTION('',(0.,0.,1.));
#1557=DIRECTION('',(0.,1.,0.));
#1558=DIRECTION('',(0.,1.,0.));
#1559=DIRECTION('',(-0.649565276615704,0.,-0.760305827555704));
#1560=DIRECTION('',(0.,1.,0.));
#1561=DIRECTION('',(-0.707106781186548,0.,-0.707106781186548));
#1562=DIRECTION('',(-0.707106781186548,0.,0.707106781186548));
#1563=DIRECTION('',(0.,1.,0.));
#1564=DIRECTION('',(0.,1.,0.));
#1565=DIRECTION('',(0.0783053945285067,0.,-0.996929418358058));
#1566=DIRECTION('',(0.,1.,0.));
#1567=DIRECTION('',(0.,0.,-1.));
#1568=DIRECTION('',(-1.,0.,0.));
#1569=DIRECTION('',(1.57108786428017E-17,1.,-5.91799730156716E-16));
#1570=DIRECTION('',(1.57108786428017E-17,1.,-5.91799730156716E-16));
#1571=DIRECTION('',(0.707114457792083,0.,-0.707099104497672));
#1572=DIRECTION('',(0.,-1.,0.));
#1573=DIRECTION('',(-0.999492615906287,0.,-0.0318513853514685));
#1574=DIRECTION('',(0.,1.,0.));
#1575=DIRECTION('',(-1.,0.,0.));
#1576=DIRECTION('',(0.,-1.,0.));
#1577=DIRECTION('',(0.,-1.,0.));
#1578=DIRECTION('',(0.,-1.,0.));
#1579=DIRECTION('',(-1.,0.,0.));
#1580=DIRECTION('',(1.,0.,-4.325078983844E-14));
#1581=DIRECTION('',(0.,1.,0.));
#1582=DIRECTION('',(0.329480338429013,0.,0.944162436548237));
#1583=DIRECTION('',(-0.167089143052204,0.,-0.985941792538525));
#1584=DIRECTION('',(0.,0.,1.));
#1585=DIRECTION('',(-1.,0.,0.));
#1586=DIRECTION('',(0.,-1.,0.));
#1587=DIRECTION('',(0.985941792538542,0.,-0.167089143052107));
#1588=DIRECTION('',(-0.167089143052107,0.,-0.985941792538542));
#1589=DIRECTION('',(0.,1.,0.));
#1590=DIRECTION('',(0.,-1.,0.));
#1591=DIRECTION('',(1.,0.,0.));
#1592=DIRECTION('',(0.,-1.,0.));
#1593=DIRECTION('',(1.,0.,0.));
#1594=DIRECTION('',(0.,-1.,0.));
#1595=DIRECTION('',(1.,0.,0.));
#1596=DIRECTION('',(0.,-1.,0.));
#1597=DIRECTION('',(-1.,0.,0.));
#1598=DIRECTION('',(0.,-1.,0.));
#1599=DIRECTION('',(1.,0.,0.));
#1600=DIRECTION('',(0.,-1.,0.));
#1601=DIRECTION('',(1.,0.,0.));
#1602=DIRECTION('',(0.,-1.,0.));
#1603=DIRECTION('',(-1.,0.,0.));
#1604=DIRECTION('',(0.,-1.,0.));
#1605=DIRECTION('',(1.,0.,0.));
#1606=DIRECTION('',(0.,-1.,0.));
#1607=DIRECTION('',(1.,0.,0.));
#1608=DIRECTION('',(0.,-1.,0.));
#1609=DIRECTION('',(-1.,0.,0.));
#1610=DIRECTION('',(0.,-1.,0.));
#1611=DIRECTION('',(1.,0.,0.));
#1612=DIRECTION('',(0.,-1.,0.));
#1613=DIRECTION('',(1.,0.,0.));
#1614=DIRECTION('',(0.,-1.,0.));
#1615=DIRECTION('',(-1.,0.,0.));
#1616=DIRECTION('',(0.,0.,-1.));
#1617=DIRECTION('',(1.,0.,0.));
#1618=DIRECTION('',(-1.,0.,-2.127570717175E-14));
#1619=DIRECTION('',(0.,1.,0.));
#1620=DIRECTION('',(0.,1.,0.));
#1621=DIRECTION('',(0.,-1.,0.));
#1622=DIRECTION('',(-1.,0.,0.));
#1623=DIRECTION('',(-1.585082144201E-14,0.,-1.));
#1624=DIRECTION('',(0.,1.,0.));
#1625=DIRECTION('',(0.829015544041435,0.,-0.559225560697724));
#1626=DIRECTION('',(0.,0.,-1.));
#1627=DIRECTION('',(0.,1.,0.));
#1628=DIRECTION('',(-1.,0.,0.));
#1629=DIRECTION('',(0.,-1.,0.));
#1630=DIRECTION('',(-0.707106781186547,0.,0.707106781186548));
#1631=DIRECTION('',(0.,-1.,0.));
#1632=DIRECTION('',(1.,0.,0.));
#1633=DIRECTION('',(0.,0.,1.));
#1634=DIRECTION('',(0.,1.,1.614869854E-14));
#1635=DIRECTION('',(0.,-1.,0.));
#1636=DIRECTION('',(1.,0.,0.));
#1637=DIRECTION('',(0.,-1.,1.0496654051E-14));
#1638=DIRECTION('',(1.,0.,0.));
#1639=DIRECTION('',(0.,0.,1.));
#1640=DIRECTION('',(-1.,0.,0.));
#1641=DIRECTION('',(0.,0.,-1.));
#1642=DIRECTION('',(-2.112343503022E-14,0.,1.));
#1643=DIRECTION('',(0.,1.,0.));
#1644=DIRECTION('',(0.,-1.,0.));
#1645=DIRECTION('',(0.,-1.,0.));
#1646=DIRECTION('',(-1.,0.,0.));
#1647=DIRECTION('',(0.,0.,1.));
#1648=DIRECTION('',(0.,1.,0.));
#1649=DIRECTION('',(1.,0.,0.));
#1650=DIRECTION('',(1.,0.,2.069691143396E-14));
#1651=DIRECTION('',(0.,-1.,0.));
#1652=DIRECTION('',(-0.263929618768308,0.,0.96454194120153));
#1653=DIRECTION('',(0.,0.,-1.));
#1654=DIRECTION('',(-1.,0.,0.));
#1655=DIRECTION('',(0.,0.,1.));
#1656=DIRECTION('',(0.,-1.,0.));
#1657=DIRECTION('',(0.597925154812095,0.,0.801551937957193));
#1658=DIRECTION('',(-0.999969865117693,0.,-0.00776330190721695));
#1659=DIRECTION('',(0.,1.,0.));
#1660=DIRECTION('',(0.,0.,-1.));
#1661=DIRECTION('',(1.925661430809E-14,0.,-1.));
#1662=DIRECTION('',(0.,-1.,0.));
#1663=DIRECTION('',(1.,0.,0.));
#1664=DIRECTION('',(0.,0.,1.));
#1665=DIRECTION('',(1.,0.,0.));
#1666=DIRECTION('',(0.,0.,-1.));
#1667=DIRECTION('',(0.,-1.,0.));
#1668=DIRECTION('',(-0.381231671554306,0.,-0.924479536065515));
#1669=DIRECTION('',(0.,0.,1.));
#1670=DIRECTION('',(-1.,0.,2.063361812683E-14));
#1671=DIRECTION('',(0.,1.,0.));
#1672=DIRECTION('',(1.,0.,0.));
#1673=DIRECTION('',(0.,1.,0.));
#1674=DIRECTION('',(-1.,0.,0.));
#1675=DIRECTION('',(-1.,0.,0.));
#1676=DIRECTION('',(0.,0.,-1.));
#1677=DIRECTION('',(0.,1.,-2.0993308102E-14));
#1678=DIRECTION('',(0.,-1.,2.0993308102E-14));
#1679=DIRECTION('',(0.,-1.,0.));
#1680=DIRECTION('',(1.,0.,0.));
#1681=DIRECTION('',(-1.09811150072E-13,1.,0.));
#1682=DIRECTION('',(0.,0.,1.));
#1683=DIRECTION('',(-1.,0.,0.));
#1684=DIRECTION('',(0.,-1.,0.));
#1685=DIRECTION('',(1.,0.,0.));
#1686=DIRECTION('',(-1.03351670656E-13,-1.,0.));
#1687=DIRECTION('',(0.,0.,-1.));
#1688=DIRECTION('',(1.,0.,0.));
#1689=DIRECTION('',(0.,1.,0.));
#1690=DIRECTION('',(-1.,0.,0.));
#1691=DIRECTION('',(0.,0.,-1.));
#1692=DIRECTION('',(0.,1.,0.));
#1693=DIRECTION('',(0.,-1.,0.));
#1694=DIRECTION('',(1.,0.,0.));
#1695=DIRECTION('',(0.,-1.,0.));
#1696=DIRECTION('',(-1.,0.,0.));
#1697=DIRECTION('',(0.,0.,1.));
#1698=DIRECTION('',(0.,1.,0.));
#1699=DIRECTION('',(0.,0.,-1.));
#1700=DIRECTION('',(1.,0.,0.));
#1701=DIRECTION('',(0.,1.,0.));
#1702=DIRECTION('',(1.,0.,0.));
#1703=DIRECTION('',(0.,0.,-1.));
#1704=DIRECTION('',(0.,1.,0.));
#1705=DIRECTION('',(0.,-1.,0.));
#1706=DIRECTION('',(1.,0.,0.));
#1707=DIRECTION('',(0.,-1.,0.));
#1708=DIRECTION('',(1.,0.,0.));
#1709=DIRECTION('',(0.,0.,1.));
#1710=DIRECTION('',(0.,1.,0.));
#1711=DIRECTION('',(0.,-1.,0.));
#1712=DIRECTION('',(-0.999492615906287,0.,-0.0318513853514685));
#1713=DIRECTION('',(0.,-1.,0.));
#1714=DIRECTION('',(-0.00776330190723295,0.,0.999969865117693));
#1715=DIRECTION('',(0.999969865117693,0.,0.00776330190723295));
#1716=DIRECTION('',(0.,1.,0.));
#1717=DIRECTION('',(0.,-1.,0.));
#1718=DIRECTION('',(1.,0.,0.));
#1719=DIRECTION('',(0.,-1.,0.));
#1720=DIRECTION('',(1.,0.,0.));
#1721=DIRECTION('',(0.,0.,-1.));
#1722=DIRECTION('',(0.,1.,0.));
#1723=DIRECTION('',(0.,0.,1.));
#1724=DIRECTION('',(-1.,0.,0.));
#1725=DIRECTION('',(0.,1.,0.));
#1726=DIRECTION('',(-1.,0.,0.));
#1727=DIRECTION('',(0.,0.,1.));
#1728=DIRECTION('',(0.,1.,0.));
#1729=DIRECTION('',(0.,-1.,0.));
#1730=DIRECTION('',(1.,0.,0.));
#1731=DIRECTION('',(0.,1.,0.));
#1732=DIRECTION('',(-1.,0.,0.));
#1733=DIRECTION('',(0.,-1.,0.));
#1734=DIRECTION('',(-1.,0.,0.));
#1735=DIRECTION('',(0.,1.,0.));
#1736=DIRECTION('',(0.968755915087563,0.,0.248016082105291));
#1737=DIRECTION('',(0.,-1.,0.));
#1738=DIRECTION('',(-1.,0.,0.));
#1739=DIRECTION('',(0.,1.,0.));
#1740=DIRECTION('',(-1.,0.,0.));
#1741=CARTESIAN_POINT('',(0.,0.,0.));
#1742=CARTESIAN_POINT('',(0.01325675936622,0.014,0.02225));
#1743=CARTESIAN_POINT('',(0.00761162775094992,0.014,-0.0103616277509499));
#1744=CARTESIAN_POINT('',(0.007611780061593,0.014,-0.01236170390772));
#1745=CARTESIAN_POINT('',(0.009611703907721,0.014,-0.01036178006159));
#1746=CARTESIAN_POINT('',(-0.03211787369277,0.014,-0.01236170390772));
#1747=CARTESIAN_POINT('',(-0.03211787369277,0.014,-0.01236170390772));
#1748=CARTESIAN_POINT('',(-0.0321178762915723,0.0140000000000002,-0.0103617863356591));
#1749=CARTESIAN_POINT('',(-0.03353203340622,0.014,-0.01177593977505));
#1750=CARTESIAN_POINT('',(-0.03502593977505,0.014,-0.01028203340622));
#1751=CARTESIAN_POINT('',(-0.03502593977505,0.014,-0.01028203340622));
#1752=CARTESIAN_POINT('',(-0.0336117863356581,0.014,-0.00886787629157229));
#1753=CARTESIAN_POINT('',(-0.03561170390772,0.014,-0.008867873692769));
#1754=CARTESIAN_POINT('',(-0.03561170390772,0.014,0.008867873692769));
#1755=CARTESIAN_POINT('',(-0.03561170390772,0.014,0.008867873692769));
#1756=CARTESIAN_POINT('',(-0.0336117863356581,0.014,0.00886787629157229));
#1757=CARTESIAN_POINT('',(-0.03502593977505,0.014,0.01028203340622));
#1758=CARTESIAN_POINT('',(-0.03353203340622,0.014,0.01177593977505));
#1759=CARTESIAN_POINT('',(-0.03353203340622,0.014,0.01177593977505));
#1760=CARTESIAN_POINT('',(-0.0321178762915723,0.0140000000000002,0.0103617863356591));
#1761=CARTESIAN_POINT('',(-0.03211787369277,0.014,0.01236170390772));
#1762=CARTESIAN_POINT('',(0.007611780061593,0.014,0.01236170390772));
#1763=CARTESIAN_POINT('',(0.007611780061593,0.014,0.01236170390772));
#1764=CARTESIAN_POINT('',(0.00761162775094992,0.014,0.0103616277509499));
#1765=CARTESIAN_POINT('',(0.009611703907722,0.014,0.01036178006159));
#1766=CARTESIAN_POINT('',(0.009611703907722,0.014,-0.01036178006159));
#1767=CARTESIAN_POINT('',(0.008861703907722,0.014,-0.01036166095042));
#1768=CARTESIAN_POINT('',(0.008861703907722,0.014,-0.010362127641367));
#1769=CARTESIAN_POINT('',(0.008861703907722,0.014,0.01036212764137));
#1770=CARTESIAN_POINT('',(0.007612144138415,0.014,0.01036212764137));
#1771=CARTESIAN_POINT('',(0.007612144138415,0.014,0.011611687410677));
#1772=CARTESIAN_POINT('',(0.01325675936622,0.014,0.011611687410677));
#1773=CARTESIAN_POINT('',(-0.03211801766502,0.014,0.011611687410677));
#1774=CARTESIAN_POINT('',(-0.03211801766502,0.014,0.01036212764137));
#1775=CARTESIAN_POINT('',(-0.0330015898513949,0.014,0.0112456998277449));
#1776=CARTESIAN_POINT('',(-0.0344955980239834,0.014,0.00975169165515638));
#1777=CARTESIAN_POINT('',(-0.0344956998277383,0.014,0.00975158985140029));
#1778=CARTESIAN_POINT('',(-0.03361212764136,0.014,0.008868017665022));
#1779=CARTESIAN_POINT('',(-0.034861687410671,0.014,0.008868017665022));
#1780=CARTESIAN_POINT('',(-0.034861687410671,0.014,0.02225));
#1781=CARTESIAN_POINT('',(-0.034861687410671,0.014,-0.008868017665022));
#1782=CARTESIAN_POINT('',(-0.03361212764136,0.014,-0.008868017665022));
#1783=CARTESIAN_POINT('',(-0.0344956998277377,0.014,-0.00975158985139971));
#1784=CARTESIAN_POINT('',(-0.0330016916551537,0.014,-0.0112455980239837));
#1785=CARTESIAN_POINT('',(-0.0330015898513947,0.014,-0.0112456998277447));
#1786=CARTESIAN_POINT('',(-0.03211801766503,0.014,-0.01036212764138));
#1787=CARTESIAN_POINT('',(-0.03211801766503,0.014,-0.011611687410674));
#1788=CARTESIAN_POINT('',(0.01325675936622,0.014,-0.011611687410674));
#1789=CARTESIAN_POINT('',(0.007612144138415,0.014,-0.011611687410674));
#1790=CARTESIAN_POINT('',(0.007612144138415,0.014,-0.010362127641367));
#1791=CARTESIAN_POINT('',(0.007019111477101,-0.05389564,-0.009769111477101));
#1792=CARTESIAN_POINT('',(0.009611703907722,0.014,-0.01036178006159));
#1793=CARTESIAN_POINT('',(0.0095,0.0012,-0.01025007615387));
#1794=CARTESIAN_POINT('',(0.00749992384322822,0.0012,-0.0102499238432282));
#1795=CARTESIAN_POINT('',(0.007500076153872,0.0012,-0.01225));
#1796=CARTESIAN_POINT('',(0.007500076153872,0.0012,-0.01225));
#1797=CARTESIAN_POINT('',(-0.03647799999808,0.0012,-0.01225));
#1798=CARTESIAN_POINT('',(-0.03207160441922,0.0012,-0.01225));
#1799=CARTESIAN_POINT('',(-0.03207160441922,0.0012,-0.01225));
#1800=CARTESIAN_POINT('',(-0.03211787369277,0.014,-0.01236170390772));
#1801=CARTESIAN_POINT('',(-0.03187238232708,-0.05389564,-0.009769111477101));
#1802=CARTESIAN_POINT('',(-0.0320716070180239,0.00119999999999984,-0.0102500824279374));
#1803=CARTESIAN_POINT('',(-0.03348576413267,0.0012,-0.01166423586733));
#1804=CARTESIAN_POINT('',(-0.03348576413267,0.0012,-0.01166423586733));
#1805=CARTESIAN_POINT('',(-0.03220844956936,0.0012,-0.01294155043064));
#1806=CARTESIAN_POINT('',(-0.03348576413267,0.0012,-0.01166423586733));
#1807=CARTESIAN_POINT('',(-0.03491423586733,0.0012,-0.01023576413267));
#1808=CARTESIAN_POINT('',(-0.03502593977505,0.014,-0.01028203340622));
#1809=CARTESIAN_POINT('',(-0.0330191114771,-0.05389564,-0.00862238232708));
#1810=CARTESIAN_POINT('',(-0.0335000824279364,0.00119999999999996,-0.00882160701802389));
#1811=CARTESIAN_POINT('',(-0.0355,0.0012,-0.00882160441922));
#1812=CARTESIAN_POINT('',(-0.0355,0.0012,-0.00882160441922));
#1813=CARTESIAN_POINT('',(-0.0355,0.0012,0.01322799999808));
#1814=CARTESIAN_POINT('',(-0.0355,0.0012,-0.00882160441922));
#1815=CARTESIAN_POINT('',(-0.0355,0.0012,0.00882160441922));
#1816=CARTESIAN_POINT('',(-0.03561170390772,0.014,0.008867873692769));
#1817=CARTESIAN_POINT('',(-0.0330191114771,-0.05389564,0.00862238232708));
#1818=CARTESIAN_POINT('',(-0.0335000824279364,0.00119999999999996,0.0088216070180239));
#1819=CARTESIAN_POINT('',(-0.03491423586733,0.0012,0.01023576413267));
#1820=CARTESIAN_POINT('',(-0.03491423586733,0.0012,0.01023576413267));
#1821=CARTESIAN_POINT('',(-0.03619155043064,0.0012,0.008958449569358));
#1822=CARTESIAN_POINT('',(-0.03491423586733,0.0012,0.01023576413267));
#1823=CARTESIAN_POINT('',(-0.03348576413267,0.0012,0.01166423586733));
#1824=CARTESIAN_POINT('',(-0.03353203340622,0.014,0.01177593977505));
#1825=CARTESIAN_POINT('',(-0.03187238232708,-0.05389564,0.009769111477101));
#1826=CARTESIAN_POINT('',(-0.0320716070180239,0.00119999999999984,0.0102500824279374));
#1827=CARTESIAN_POINT('',(-0.03207160441922,0.0012,0.01225));
#1828=CARTESIAN_POINT('',(-0.03207160441922,0.0012,0.01225));
#1829=CARTESIAN_POINT('',(0.01047799999808,0.0012,0.01225));
#1830=CARTESIAN_POINT('',(-0.03207160441922,0.0012,0.01225));
#1831=CARTESIAN_POINT('',(0.007500076153872,0.0012,0.01225));
#1832=CARTESIAN_POINT('',(0.007611780061593,0.014,0.01236170390772));
#1833=CARTESIAN_POINT('',(0.007019111477101,-0.05389564,0.009769111477101));
#1834=CARTESIAN_POINT('',(0.00749992384322822,0.0012,0.0102499238432282));
#1835=CARTESIAN_POINT('',(0.0095,0.0012,0.01025007615387));
#1836=CARTESIAN_POINT('',(0.0095,0.0012,0.01025007615387));
#1837=CARTESIAN_POINT('',(0.0095,0.0012,-0.01322799999808));
#1838=CARTESIAN_POINT('',(0.0095,0.0012,-0.01025007615387));
#1839=CARTESIAN_POINT('',(-0.04412790734796,0.0012,0.02225));
#1840=CARTESIAN_POINT('',(0.008861703907722,0.014,0.01036178006159));
#1841=CARTESIAN_POINT('',(0.008861703907722,0.01455,-0.010362127641367));
#1842=CARTESIAN_POINT('',(0.008861703907722,0.0151,-0.010362127641367));
#1843=CARTESIAN_POINT('',(0.008861703907722,0.0151,-0.0103616609594));
#1844=CARTESIAN_POINT('',(0.008861703907722,0.0151,0.01036212764137));
#1845=CARTESIAN_POINT('',(0.008861703907722,0.01455,0.01036212764137));
#1846=CARTESIAN_POINT('',(0.007612144138415,0.01455,0.01036212764137));
#1847=CARTESIAN_POINT('',(0.007612144138415,0.0151,0.01036212764137));
#1848=CARTESIAN_POINT('',(0.007612144138415,0.0151,0.011611687410677));
#1849=CARTESIAN_POINT('',(0.007612144138415,0.01455,0.011611687410677));
#1850=CARTESIAN_POINT('',(0.,0.0151,0.));
#1851=CARTESIAN_POINT('',(0.007612144138415,0.0151,-0.010362127641367));
#1852=CARTESIAN_POINT('',(0.007612144138415,0.0151,-0.011611687410674));
#1853=CARTESIAN_POINT('',(0.007611780061593,0.0151,-0.011611687410674));
#1854=CARTESIAN_POINT('',(-0.03211801766503,0.0151,-0.011611687410674));
#1855=CARTESIAN_POINT('',(-0.03211801766503,0.0151,-0.01036212764138));
#1856=CARTESIAN_POINT('',(-0.0330015898513947,0.0151,-0.0112456998277447));
#1857=CARTESIAN_POINT('',(-0.0330016916551537,0.0151,-0.0112455980239837));
#1858=CARTESIAN_POINT('',(-0.0344956998277377,0.0151,-0.00975158985139971));
#1859=CARTESIAN_POINT('',(-0.03361212764136,0.0151,-0.008868017665022));
#1860=CARTESIAN_POINT('',(-0.034861687410671,0.0151,-0.008868017665022));
#1861=CARTESIAN_POINT('',(-0.034861687410671,0.0151,-0.008867873692769));
#1862=CARTESIAN_POINT('',(-0.034861687410671,0.0151,0.008868017665022));
#1863=CARTESIAN_POINT('',(-0.03361212764136,0.0151,0.008868017665022));
#1864=CARTESIAN_POINT('',(-0.0344956998277383,0.0151,0.00975158985140029));
#1865=CARTESIAN_POINT('',(-0.0344955980239834,0.0151,0.00975169165515638));
#1866=CARTESIAN_POINT('',(-0.0330015898513949,0.0151,0.0112456998277449));
#1867=CARTESIAN_POINT('',(-0.03211801766502,0.0151,0.01036212764137));
#1868=CARTESIAN_POINT('',(-0.03211801766502,0.0151,0.011611687410677));
#1869=CARTESIAN_POINT('',(-0.03211787369277,0.0151,0.011611687410677));
#1870=CARTESIAN_POINT('',(0.00725,0.0151,0.01));
#1871=CARTESIAN_POINT('',(0.00550429097499,0.0151,0.01075));
#1872=CARTESIAN_POINT('',(0.005555585892828,0.0151,0.009140371688799));
#1873=CARTESIAN_POINT('',(0.003245381333526,0.0151,0.01075));
#1874=CARTESIAN_POINT('',(0.003245381333526,0.0151,0.01075));
#1875=CARTESIAN_POINT('',(0.00317948526584,0.0151,0.01036116751269));
#1876=CARTESIAN_POINT('',(0.00317948526584,0.0151,0.01036116751269));
#1877=CARTESIAN_POINT('',(0.,0.0151,0.00125));
#1878=CARTESIAN_POINT('',(-0.0326,0.0151,0.00935));
#1879=CARTESIAN_POINT('',(-0.0337,0.0151,0.00935));
#1880=CARTESIAN_POINT('',(0.00725,0.0151,0.01));
#1881=CARTESIAN_POINT('',(0.00615,0.0151,0.01));
#1882=CARTESIAN_POINT('',(-0.0326,0.0151,-0.00935));
#1883=CARTESIAN_POINT('',(-0.0337,0.0151,-0.00935));
#1884=CARTESIAN_POINT('',(0.00725,0.0151,-0.01));
#1885=CARTESIAN_POINT('',(0.00615,0.0151,-0.01));
#1886=CARTESIAN_POINT('',(0.00550429097499,0.0151,-0.01075));
#1887=CARTESIAN_POINT('',(0.00550429097499,0.0151,-0.01075));
#1888=CARTESIAN_POINT('',(0.00325,0.0151,-0.01075));
#1889=CARTESIAN_POINT('',(0.00725,0.0151,-0.01));
#1890=CARTESIAN_POINT('',(0.008,0.0151,-0.00825429097499));
#1891=CARTESIAN_POINT('',(0.008,0.0151,-0.004146526660733));
#1892=CARTESIAN_POINT('',(0.008,0.0151,-0.004146526660733));
#1893=CARTESIAN_POINT('',(0.,0.0151,0.00125));
#1894=CARTESIAN_POINT('',(0.00325,0.0151,-0.00783625335328));
#1895=CARTESIAN_POINT('',(0.00325,0.0151,-0.00783625335328));
#1896=CARTESIAN_POINT('',(-0.00325,0.0151,0.01075));
#1897=CARTESIAN_POINT('',(-0.00325,0.0151,0.01075));
#1898=CARTESIAN_POINT('',(-0.00325,0.0151,0.009131188044959));
#1899=CARTESIAN_POINT('',(-0.03131547674213,0.0151,0.01075));
#1900=CARTESIAN_POINT('',(-0.03131547674213,0.0151,0.01075));
#1901=CARTESIAN_POINT('',(-0.0326,0.0151,0.00935));
#1902=CARTESIAN_POINT('',(-0.034,0.0151,0.008065476742133));
#1903=CARTESIAN_POINT('',(-0.034,0.0151,-0.008065476742133));
#1904=CARTESIAN_POINT('',(-0.034,0.0151,-0.008065476742133));
#1905=CARTESIAN_POINT('',(-0.0326,0.0151,-0.00935));
#1906=CARTESIAN_POINT('',(-0.03131547674213,0.0151,-0.01075));
#1907=CARTESIAN_POINT('',(-0.00325,0.0151,-0.01075));
#1908=CARTESIAN_POINT('',(-0.00325,0.0151,-0.01075));
#1909=CARTESIAN_POINT('',(-0.00325,0.0151,-0.006631188044959));
#1910=CARTESIAN_POINT('',(-0.00325,0.0151,-0.006631188044959));
#1911=CARTESIAN_POINT('',(0.,0.0151,0.00125));
#1912=CARTESIAN_POINT('',(-0.00225,0.0151,-0.006972720048743));
#1913=CARTESIAN_POINT('',(-0.00225,0.0151,-0.006972720048743));
#1914=CARTESIAN_POINT('',(-0.00225,0.0151,-0.01075));
#1915=CARTESIAN_POINT('',(0.,0.0151,-0.01075));
#1916=CARTESIAN_POINT('',(0.00225,0.0151,-0.01075));
#1917=CARTESIAN_POINT('',(0.00225,0.0151,-0.01075));
#1918=CARTESIAN_POINT('',(0.00225,0.0151,-0.006972720048743));
#1919=CARTESIAN_POINT('',(0.,0.0151,0.00125));
#1920=CARTESIAN_POINT('',(0.008,0.0151,0.004195441393068));
#1921=CARTESIAN_POINT('',(0.008,0.0151,0.00825429097499));
#1922=CARTESIAN_POINT('',(0.008,0.0151,0.00825429097499026));
#1923=CARTESIAN_POINT('',(0.00725,0.0151,0.01));
#1924=CARTESIAN_POINT('',(0.00726475027362381,0.0151,0.00810005725627624));
#1925=CARTESIAN_POINT('',(0.005097311944773,0.0151,0.008083230271085));
#1926=CARTESIAN_POINT('',(0.005097311944773,0.0151,0.008083230271085));
#1927=CARTESIAN_POINT('',(0.,0.0151,0.00125));
#1928=CARTESIAN_POINT('',(0.00225,0.0151,0.00947272004874299));
#1929=CARTESIAN_POINT('',(0.00225,0.0151,0.));
#1930=CARTESIAN_POINT('',(0.00225,0.0151,0.01075));
#1931=CARTESIAN_POINT('',(0.,0.0151,0.01075));
#1932=CARTESIAN_POINT('',(-0.00225,0.0151,0.01075));
#1933=CARTESIAN_POINT('',(-0.00225,0.0151,0.));
#1934=CARTESIAN_POINT('',(-0.00225,0.0151,0.009472720048743));
#1935=CARTESIAN_POINT('',(0.,0.0151,0.00125));
#1936=CARTESIAN_POINT('',(-0.03211787369277,0.014,0.011611687410677));
#1937=CARTESIAN_POINT('',(-0.03211801766502,0.014,0.011611687410677));
#1938=CARTESIAN_POINT('',(-0.03211801766502,0.014,0.01036212764137));
#1939=CARTESIAN_POINT('',(-0.0330015898513949,0.014,0.0112456998277449));
#1940=CARTESIAN_POINT('',(-0.0344955980239834,0.014,0.00975169165515638));
#1941=CARTESIAN_POINT('',(-0.0344956998277383,0.014,0.00975158985140029));
#1942=CARTESIAN_POINT('',(-0.03361212764136,0.014,0.008868017665022));
#1943=CARTESIAN_POINT('',(-0.034861687410671,0.014,0.008868017665022));
#1944=CARTESIAN_POINT('',(-0.034861687410671,0.014,-0.008867873692769));
#1945=CARTESIAN_POINT('',(-0.034861687410671,0.014,-0.008868017665022));
#1946=CARTESIAN_POINT('',(-0.03361212764136,0.014,-0.008868017665022));
#1947=CARTESIAN_POINT('',(-0.0344956998277377,0.014,-0.00975158985139971));
#1948=CARTESIAN_POINT('',(-0.0330016916551537,0.014,-0.0112455980239837));
#1949=CARTESIAN_POINT('',(-0.0330015898513947,0.014,-0.0112456998277447));
#1950=CARTESIAN_POINT('',(-0.03211801766503,0.014,-0.01036212764138));
#1951=CARTESIAN_POINT('',(-0.03211801766503,0.014,-0.011611687410674));
#1952=CARTESIAN_POINT('',(0.007611780061593,0.014,-0.011611687410674));
#1953=CARTESIAN_POINT('',(0.007612144138415,0.01455,-0.011611687410674));
#1954=CARTESIAN_POINT('',(0.007612144138415,0.01455,-0.010362127641367));
#1955=CARTESIAN_POINT('',(0.00725,0.0022,0.01));
#1956=CARTESIAN_POINT('',(0.00725,0.014,0.01));
#1957=CARTESIAN_POINT('',(0.005555585892828,0.014,0.009140371688799));
#1958=CARTESIAN_POINT('',(0.00550429097499,0.014,0.01075));
#1959=CARTESIAN_POINT('',(0.00550429097499,0.0151,0.01075));
#1960=CARTESIAN_POINT('',(0.005555585892828,0.0151,0.009140371688799));
#1961=CARTESIAN_POINT('',(0.01325675936622,0.014,0.02225));
#1962=CARTESIAN_POINT('',(0.003245381333526,0.014,0.01075));
#1963=CARTESIAN_POINT('',(0.003245381333526,0.014,0.01075));
#1964=CARTESIAN_POINT('',(0.,0.014,0.00125));
#1965=CARTESIAN_POINT('',(0.00317948526584,0.014,0.01036116751269));
#1966=CARTESIAN_POINT('',(0.003245381333526,0.014,0.01075));
#1967=CARTESIAN_POINT('',(0.0095,0.0285,0.01075));
#1968=CARTESIAN_POINT('',(0.003245381333526,0.0151,0.01075));
#1969=CARTESIAN_POINT('',(0.003212433299683,0.01135,0.01055558375635));
#1970=CARTESIAN_POINT('',(0.00317948526584,0.014,0.01036116751269));
#1971=CARTESIAN_POINT('',(0.,0.,0.00125));
#1972=CARTESIAN_POINT('',(-0.0326,0.0022,0.00935));
#1973=CARTESIAN_POINT('',(-0.0326,0.014,0.00935));
#1974=CARTESIAN_POINT('',(-0.0315,0.014,0.00935));
#1975=CARTESIAN_POINT('',(0.01325675936622,0.014,0.02225));
#1976=CARTESIAN_POINT('',(0.00725,0.0022,0.01));
#1977=CARTESIAN_POINT('',(0.00725,0.014,0.01));
#1978=CARTESIAN_POINT('',(0.00835,0.014,0.01));
#1979=CARTESIAN_POINT('',(0.01325675936622,0.014,0.02225));
#1980=CARTESIAN_POINT('',(-0.0326,0.0022,-0.00935));
#1981=CARTESIAN_POINT('',(-0.0326,0.014,-0.00935));
#1982=CARTESIAN_POINT('',(-0.0315,0.014,-0.00935));
#1983=CARTESIAN_POINT('',(0.01325675936622,0.014,0.02225));
#1984=CARTESIAN_POINT('',(0.00725,0.0022,-0.01));
#1985=CARTESIAN_POINT('',(0.00725,0.014,-0.01));
#1986=CARTESIAN_POINT('',(0.00835,0.014,-0.01));
#1987=CARTESIAN_POINT('',(0.01325675936622,0.014,0.02225));
#1988=CARTESIAN_POINT('',(-0.0355,0.0285,-0.01075));
#1989=CARTESIAN_POINT('',(0.00550429097499,0.014,-0.01075));
#1990=CARTESIAN_POINT('',(0.00550429097499,0.014,-0.01075));
#1991=CARTESIAN_POINT('',(0.00325,0.014,-0.01075));
#1992=CARTESIAN_POINT('',(0.00550429097499,0.014,-0.01075));
#1993=CARTESIAN_POINT('',(0.00325,0.014,-0.01075));
#1994=CARTESIAN_POINT('',(0.01325675936622,0.014,0.02225));
#1995=CARTESIAN_POINT('',(0.00325,0.014,-0.00783625335328));
#1996=CARTESIAN_POINT('',(0.00325,0.014,-0.00783625335328));
#1997=CARTESIAN_POINT('',(0.,0.014,0.00125));
#1998=CARTESIAN_POINT('',(0.008,0.014,-0.004146526660733));
#1999=CARTESIAN_POINT('',(0.008,0.014,-0.004146526660733));
#2000=CARTESIAN_POINT('',(0.008,0.014,-0.00825429097499));
#2001=CARTESIAN_POINT('',(0.00725,0.014,-0.01));
#2002=CARTESIAN_POINT('',(0.00725,0.0022,-0.01));
#2003=CARTESIAN_POINT('',(0.008,0.0151,-0.00825429097499));
#2004=CARTESIAN_POINT('',(0.008,0.0285,-0.01225));
#2005=CARTESIAN_POINT('',(0.008,0.014,-0.004146526660733));
#2006=CARTESIAN_POINT('',(0.,0.,0.00125));
#2007=CARTESIAN_POINT('',(0.00325,0.0151,-0.00783625335328));
#2008=CARTESIAN_POINT('',(0.00325,0.0022,-0.01075));
#2009=CARTESIAN_POINT('',(-0.00325,0.0022,-0.00783625335328));
#2010=CARTESIAN_POINT('',(-0.00325,0.014,0.009131188044959));
#2011=CARTESIAN_POINT('',(-0.00325,0.014,0.009131188044959));
#2012=CARTESIAN_POINT('',(-0.00325,0.014,0.01075));
#2013=CARTESIAN_POINT('',(-0.00325,0.014,0.01075));
#2014=CARTESIAN_POINT('',(-0.00325,0.0151,0.009131188044959));
#2015=CARTESIAN_POINT('',(0.01325675936622,0.014,0.02225));
#2016=CARTESIAN_POINT('',(-0.034,0.014,-0.008065476742133));
#2017=CARTESIAN_POINT('',(-0.034,0.014,-0.008065476742133));
#2018=CARTESIAN_POINT('',(-0.034,0.014,0.008065476742133));
#2019=CARTESIAN_POINT('',(-0.0326,0.014,0.00935));
#2020=CARTESIAN_POINT('',(-0.03131547674213,0.014,0.01075));
#2021=CARTESIAN_POINT('',(-0.03131547674213,0.014,0.01075));
#2022=CARTESIAN_POINT('',(0.,0.014,0.00125));
#2023=CARTESIAN_POINT('',(-0.00225,0.014,0.00947272004874299));
#2024=CARTESIAN_POINT('',(-0.00225,0.014,-0.01075));
#2025=CARTESIAN_POINT('',(-0.00225,0.014,0.01075));
#2026=CARTESIAN_POINT('',(0.0095,0.014,0.01075));
#2027=CARTESIAN_POINT('',(0.00225,0.014,0.01075));
#2028=CARTESIAN_POINT('',(0.00225,0.014,-0.006223234025003));
#2029=CARTESIAN_POINT('',(0.00225,0.014,0.009472720048743));
#2030=CARTESIAN_POINT('',(0.,0.014,0.00125));
#2031=CARTESIAN_POINT('',(0.005097311944773,0.014,0.008083230271085));
#2032=CARTESIAN_POINT('',(0.007264750273624,0.014,0.008100057256276));
#2033=CARTESIAN_POINT('',(0.00726475027362381,0.014,0.008100057256276));
#2034=CARTESIAN_POINT('',(0.00725,0.014,0.01));
#2035=CARTESIAN_POINT('',(0.008,0.014,0.00825429097499026));
#2036=CARTESIAN_POINT('',(0.008,0.014,0.00825429097499));
#2037=CARTESIAN_POINT('',(0.008,0.014,0.004195441393068));
#2038=CARTESIAN_POINT('',(0.,0.014,0.00125));
#2039=CARTESIAN_POINT('',(0.00225,0.014,-0.006972720048743));
#2040=CARTESIAN_POINT('',(0.00225,0.014,-0.01075));
#2041=CARTESIAN_POINT('',(0.00225,0.014,-0.01075));
#2042=CARTESIAN_POINT('',(-0.0355,0.014,-0.01075));
#2043=CARTESIAN_POINT('',(-0.00225,0.014,-0.01075));
#2044=CARTESIAN_POINT('',(-0.00225,0.014,-0.006972720048743));
#2045=CARTESIAN_POINT('',(-0.00225,0.014,-0.006972720048743));
#2046=CARTESIAN_POINT('',(0.,0.014,0.00125));
#2047=CARTESIAN_POINT('',(-0.00325,0.014,-0.006631188044959));
#2048=CARTESIAN_POINT('',(-0.00325,0.014,-0.01075));
#2049=CARTESIAN_POINT('',(-0.00325,0.014,-0.01075));
#2050=CARTESIAN_POINT('',(-0.00325,0.014,-0.01075));
#2051=CARTESIAN_POINT('',(-0.03131547674213,0.014,-0.01075));
#2052=CARTESIAN_POINT('',(-0.0326,0.014,-0.00935));
#2053=CARTESIAN_POINT('',(-0.0069,0.014,-0.0066));
#2054=CARTESIAN_POINT('',(-0.0074,0.014,-0.0066));
#2055=CARTESIAN_POINT('',(-0.034,0.0285,0.01225));
#2056=CARTESIAN_POINT('',(-0.034,0.014,-0.008065476742133));
#2057=CARTESIAN_POINT('',(-0.034,0.0151,0.008065476742133));
#2058=CARTESIAN_POINT('',(-0.0326,0.0022,0.00935));
#2059=CARTESIAN_POINT('',(-0.03131547674213,0.014,0.01075));
#2060=CARTESIAN_POINT('',(0.0095,0.0285,0.01075));
#2061=CARTESIAN_POINT('',(-0.0326,0.0022,-0.00935));
#2062=CARTESIAN_POINT('',(-0.03131547674213,0.0151,-0.01075));
#2063=CARTESIAN_POINT('',(-0.0355,0.0285,-0.01075));
#2064=CARTESIAN_POINT('',(-0.00325,0.014,-0.01075));
#2065=CARTESIAN_POINT('',(-0.00325,0.0022,-0.00783625335328));
#2066=CARTESIAN_POINT('',(-0.00325,0.014,-0.006631188044959));
#2067=CARTESIAN_POINT('',(0.,0.,0.00125));
#2068=CARTESIAN_POINT('',(-0.00225,0.0151,-0.006972720048743));
#2069=CARTESIAN_POINT('',(-0.00225,0.0151,-0.01075));
#2070=CARTESIAN_POINT('',(-0.00225,0.0151,-0.01075));
#2071=CARTESIAN_POINT('',(-0.0355,0.0285,-0.01075));
#2072=CARTESIAN_POINT('',(0.00225,0.0285,-0.01075));
#2073=CARTESIAN_POINT('',(0.00225,0.0151,-0.006223234025003));
#2074=CARTESIAN_POINT('',(0.00225,0.014,-0.006972720048743));
#2075=CARTESIAN_POINT('',(0.,0.,0.00125));
#2076=CARTESIAN_POINT('',(0.008,0.0151,0.004195441393068));
#2077=CARTESIAN_POINT('',(0.008,0.0285,-0.01225));
#2078=CARTESIAN_POINT('',(0.008,0.0022,0.00825429097499039));
#2079=CARTESIAN_POINT('',(0.00725,0.0022,0.01));
#2080=CARTESIAN_POINT('',(0.00726475027362374,0.0022,0.0081000572562762));
#2081=CARTESIAN_POINT('',(0.004559644846735,0.0151,0.008079056073288));
#2082=CARTESIAN_POINT('',(0.005097311944773,0.014,0.008083230271085));
#2083=CARTESIAN_POINT('',(0.,0.,0.00125));
#2084=CARTESIAN_POINT('',(0.00225,0.,0.00947272004874299));
#2085=CARTESIAN_POINT('',(0.00225,0.0151,-0.006223234025003));
#2086=CARTESIAN_POINT('',(0.00225,0.0151,0.01075));
#2087=CARTESIAN_POINT('',(0.0095,0.0285,0.01075));
#2088=CARTESIAN_POINT('',(-0.00225,0.0285,0.01075));
#2089=CARTESIAN_POINT('',(-0.00225,0.0151,-0.01075));
#2090=CARTESIAN_POINT('',(-0.00225,0.,0.00947272004874299));
#2091=CARTESIAN_POINT('',(0.,0.,0.00125));
#2092=CARTESIAN_POINT('',(-0.0069,0.0178,-0.0066));
#2093=CARTESIAN_POINT('',(-0.0069,0.0142,-0.0066));
#2094=CARTESIAN_POINT('',(-0.0074,0.0142,-0.0066));
#2095=CARTESIAN_POINT('',(-0.0069,0.0142,-0.0066));
#2096=CARTESIAN_POINT('',(-0.0069,0.0143,-0.0066));
#2097=CARTESIAN_POINT('',(-0.0073,0.0143,-0.0066));
#2098=CARTESIAN_POINT('',(0.,0.0143,0.));
#2099=MECHANICAL_DESIGN_GEOMETRIC_PRESENTATION_REPRESENTATION('',(#1233),
#2100);
#2100=(
GEOMETRIC_REPRESENTATION_CONTEXT(3)
GLOBAL_UNCERTAINTY_ASSIGNED_CONTEXT((#2101))
GLOBAL_UNIT_ASSIGNED_CONTEXT((#2104,#2103,#2102))
REPRESENTATION_CONTEXT('ZK_122','TOP_LEVEL_ASSEMBLY_PART')
);
#2101=UNCERTAINTY_MEASURE_WITH_UNIT(LENGTH_MEASURE(1.E-6),#2104,
'DISTANCE_ACCURACY_VALUE','Maximum Tolerance applied to model');
#2102=(
NAMED_UNIT(*)
SI_UNIT($,.STERADIAN.)
SOLID_ANGLE_UNIT()
);
#2103=(
NAMED_UNIT(*)
PLANE_ANGLE_UNIT()
SI_UNIT($,.RADIAN.)
);
#2104=(
LENGTH_UNIT()
NAMED_UNIT(*)
SI_UNIT($,.METRE.)
);
#2105=PRODUCT_DEFINITION_SHAPE('','',#2106);
#2106=PRODUCT_DEFINITION('','',#2108,#2107);
#2107=PRODUCT_DEFINITION_CONTEXT('',#2114,'design');
#2108=PRODUCT_DEFINITION_FORMATION_WITH_SPECIFIED_SOURCE('','',#2110,
 .NOT_KNOWN.);
#2109=PRODUCT_RELATED_PRODUCT_CATEGORY('','',(#2110));
#2110=PRODUCT('ZK_122','ZK_122','ZK_122',(#2112));
#2111=PRODUCT_CATEGORY('','');
#2112=PRODUCT_CONTEXT('',#2114,'mechanical');
#2113=APPLICATION_PROTOCOL_DEFINITION('international standard',
'ap242_managed_model_based_3d_engineering',2020,#2114);
#2114=APPLICATION_CONTEXT('managed model based 3d engineering');
ENDSEC;
END-ISO-10303-21;
