ISO-10303-21;
HEADER;
/* Generated by software containing ST-Developer
 * from STEP Tools, Inc. (www.steptools.com) 
 */
/* OPTION: using custom renumber hook */

FILE_DESCRIPTION(
/* description */ ('STEP AP242 Edition 2',
'CAx-IF Rec.Pracs.---Representation and Presentation of Product Manufa
cturing Information (PMI)---4.0---2014-10-13',
'CAx-IF Rec.Pracs.---3D Tessellated Geometry---0.4---2014-09-14','2;1',
'CAx-IF Rec.Pracs.---User Defined Attributes---1.5---2016-08-15'),
/* implementation_level */ '2;1');

FILE_NAME(
/* name */ 'ARCADA001 - Part 1 (2)',
/* time_stamp */ '2026-07-17T02:50:55Z',
/* author */ (''),
/* organization */ (''),
/* preprocessor_version */ 'ST-DEVELOPER v20',
/* originating_system */ 'ONSHAPE BY PTC INC, 1.217',
/* authorisation */ '  ');

FILE_SCHEMA (('AP242_MANAGED_MODEL_BASED_3D_ENGINEERING_MIM_LF { 1 0 10303 442 3 1 4 }'));
ENDSEC;

DATA;
#10=SHAPE_REPRESENTATION_RELATIONSHIP('','',#264,#11);
#11=ADVANCED_BREP_SHAPE_REPRESENTATION('',(#262),#445);
#12=SPHERICAL_SURFACE('',#289,0.005);
#13=SPHERICAL_SURFACE('',#293,0.00975);
#14=CYLINDRICAL_SURFACE('',#285,0.013);
#15=CYLINDRICAL_SURFACE('',#286,0.013);
#16=CYLINDRICAL_SURFACE('',#287,0.013);
#17=CYLINDRICAL_SURFACE('',#288,0.013);
#18=CYLINDRICAL_SURFACE('',#294,0.002);
#19=CYLINDRICAL_SURFACE('',#295,0.002);
#20=CIRCLE('',#271,0.002);
#21=CIRCLE('',#272,0.002);
#22=CIRCLE('',#273,0.00975);
#23=CIRCLE('',#274,0.013);
#24=CIRCLE('',#275,0.013);
#25=CIRCLE('',#276,0.013);
#26=CIRCLE('',#277,0.013);
#27=CIRCLE('',#279,0.002);
#28=CIRCLE('',#280,0.002);
#29=CIRCLE('',#281,0.013);
#30=CIRCLE('',#282,0.013);
#31=CIRCLE('',#283,0.013);
#32=CIRCLE('',#284,0.013);
#33=CIRCLE('',#290,0.00379967103839267);
#34=CIRCLE('',#292,0.00557337420240199);
#35=ORIENTED_EDGE('',*,*,#97,.T.);
#36=ORIENTED_EDGE('',*,*,#98,.T.);
#37=ORIENTED_EDGE('',*,*,#99,.F.);
#38=ORIENTED_EDGE('',*,*,#100,.T.);
#39=ORIENTED_EDGE('',*,*,#101,.F.);
#40=ORIENTED_EDGE('',*,*,#102,.T.);
#41=ORIENTED_EDGE('',*,*,#103,.T.);
#42=ORIENTED_EDGE('',*,*,#104,.T.);
#43=ORIENTED_EDGE('',*,*,#105,.T.);
#44=ORIENTED_EDGE('',*,*,#106,.T.);
#45=ORIENTED_EDGE('',*,*,#107,.F.);
#46=ORIENTED_EDGE('',*,*,#108,.T.);
#47=ORIENTED_EDGE('',*,*,#109,.T.);
#48=ORIENTED_EDGE('',*,*,#110,.T.);
#49=ORIENTED_EDGE('',*,*,#111,.F.);
#50=ORIENTED_EDGE('',*,*,#112,.T.);
#51=ORIENTED_EDGE('',*,*,#113,.T.);
#52=ORIENTED_EDGE('',*,*,#114,.T.);
#53=ORIENTED_EDGE('',*,*,#115,.F.);
#54=ORIENTED_EDGE('',*,*,#107,.T.);
#55=ORIENTED_EDGE('',*,*,#116,.T.);
#56=ORIENTED_EDGE('',*,*,#109,.F.);
#57=ORIENTED_EDGE('',*,*,#117,.T.);
#58=ORIENTED_EDGE('',*,*,#97,.F.);
#59=ORIENTED_EDGE('',*,*,#118,.T.);
#60=ORIENTED_EDGE('',*,*,#101,.T.);
#61=ORIENTED_EDGE('',*,*,#119,.T.);
#62=ORIENTED_EDGE('',*,*,#120,.F.);
#63=ORIENTED_EDGE('',*,*,#121,.F.);
#64=ORIENTED_EDGE('',*,*,#111,.T.);
#65=ORIENTED_EDGE('',*,*,#122,.T.);
#66=ORIENTED_EDGE('',*,*,#105,.F.);
#67=ORIENTED_EDGE('',*,*,#123,.T.);
#68=ORIENTED_EDGE('',*,*,#103,.F.);
#69=ORIENTED_EDGE('',*,*,#124,.T.);
#70=ORIENTED_EDGE('',*,*,#99,.T.);
#71=ORIENTED_EDGE('',*,*,#125,.T.);
#72=ORIENTED_EDGE('',*,*,#116,.F.);
#73=ORIENTED_EDGE('',*,*,#106,.F.);
#74=ORIENTED_EDGE('',*,*,#122,.F.);
#75=ORIENTED_EDGE('',*,*,#110,.F.);
#76=ORIENTED_EDGE('',*,*,#117,.F.);
#77=ORIENTED_EDGE('',*,*,#112,.F.);
#78=ORIENTED_EDGE('',*,*,#125,.F.);
#79=ORIENTED_EDGE('',*,*,#98,.F.);
#80=ORIENTED_EDGE('',*,*,#118,.F.);
#81=ORIENTED_EDGE('',*,*,#100,.F.);
#82=ORIENTED_EDGE('',*,*,#124,.F.);
#83=ORIENTED_EDGE('',*,*,#102,.F.);
#84=ORIENTED_EDGE('',*,*,#119,.F.);
#85=ORIENTED_EDGE('',*,*,#104,.F.);
#86=ORIENTED_EDGE('',*,*,#123,.F.);
#87=ORIENTED_EDGE('',*,*,#108,.F.);
#88=ORIENTED_EDGE('',*,*,#126,.T.);
#89=ORIENTED_EDGE('',*,*,#126,.F.);
#90=ORIENTED_EDGE('',*,*,#127,.T.);
#91=ORIENTED_EDGE('',*,*,#115,.T.);
#92=ORIENTED_EDGE('',*,*,#127,.F.);
#93=ORIENTED_EDGE('',*,*,#114,.F.);
#94=ORIENTED_EDGE('',*,*,#121,.T.);
#95=ORIENTED_EDGE('',*,*,#113,.F.);
#96=ORIENTED_EDGE('',*,*,#120,.T.);
#97=EDGE_CURVE('',#128,#129,#151,.T.);
#98=EDGE_CURVE('',#129,#130,#152,.T.);
#99=EDGE_CURVE('',#131,#130,#153,.T.);
#100=EDGE_CURVE('',#131,#128,#154,.F.);
#101=EDGE_CURVE('',#132,#133,#155,.T.);
#102=EDGE_CURVE('',#132,#134,#156,.T.);
#103=EDGE_CURVE('',#134,#135,#157,.T.);
#104=EDGE_CURVE('',#135,#133,#158,.F.);
#105=EDGE_CURVE('',#136,#137,#159,.T.);
#106=EDGE_CURVE('',#137,#138,#160,.F.);
#107=EDGE_CURVE('',#139,#138,#161,.T.);
#108=EDGE_CURVE('',#139,#136,#162,.T.);
#109=EDGE_CURVE('',#140,#141,#163,.T.);
#110=EDGE_CURVE('',#141,#142,#164,.T.);
#111=EDGE_CURVE('',#143,#142,#165,.T.);
#112=EDGE_CURVE('',#143,#140,#166,.F.);
#113=EDGE_CURVE('',#144,#144,#20,.T.);
#114=EDGE_CURVE('',#145,#145,#21,.T.);
#115=EDGE_CURVE('',#146,#146,#22,.T.);
#116=EDGE_CURVE('',#138,#141,#23,.T.);
#117=EDGE_CURVE('',#140,#129,#24,.T.);
#118=EDGE_CURVE('',#128,#132,#25,.T.);
#119=EDGE_CURVE('',#133,#139,#26,.T.);
#120=EDGE_CURVE('',#147,#147,#27,.F.);
#121=EDGE_CURVE('',#148,#148,#28,.F.);
#122=EDGE_CURVE('',#142,#137,#29,.F.);
#123=EDGE_CURVE('',#136,#135,#30,.F.);
#124=EDGE_CURVE('',#134,#131,#31,.F.);
#125=EDGE_CURVE('',#130,#143,#32,.F.);
#126=EDGE_CURVE('',#149,#149,#33,.T.);
#127=EDGE_CURVE('',#150,#150,#34,.T.);
#128=VERTEX_POINT('',#377);
#129=VERTEX_POINT('',#378);
#130=VERTEX_POINT('',#380);
#131=VERTEX_POINT('',#382);
#132=VERTEX_POINT('',#386);
#133=VERTEX_POINT('',#387);
#134=VERTEX_POINT('',#389);
#135=VERTEX_POINT('',#391);
#136=VERTEX_POINT('',#395);
#137=VERTEX_POINT('',#396);
#138=VERTEX_POINT('',#398);
#139=VERTEX_POINT('',#400);
#140=VERTEX_POINT('',#404);
#141=VERTEX_POINT('',#405);
#142=VERTEX_POINT('',#407);
#143=VERTEX_POINT('',#409);
#144=VERTEX_POINT('',#413);
#145=VERTEX_POINT('',#415);
#146=VERTEX_POINT('',#417);
#147=VERTEX_POINT('',#424);
#148=VERTEX_POINT('',#426);
#149=VERTEX_POINT('',#437);
#150=VERTEX_POINT('',#440);
#151=LINE('',#376,#167);
#152=LINE('',#379,#168);
#153=LINE('',#381,#169);
#154=LINE('',#383,#170);
#155=LINE('',#385,#171);
#156=LINE('',#388,#172);
#157=LINE('',#390,#173);
#158=LINE('',#392,#174);
#159=LINE('',#394,#175);
#160=LINE('',#397,#176);
#161=LINE('',#399,#177);
#162=LINE('',#401,#178);
#163=LINE('',#403,#179);
#164=LINE('',#406,#180);
#165=LINE('',#408,#181);
#166=LINE('',#410,#182);
#167=VECTOR('',#300,1.);
#168=VECTOR('',#301,1.);
#169=VECTOR('',#302,1.);
#170=VECTOR('',#303,1.);
#171=VECTOR('',#306,1.);
#172=VECTOR('',#307,1.);
#173=VECTOR('',#308,1.);
#174=VECTOR('',#309,1.);
#175=VECTOR('',#312,1.);
#176=VECTOR('',#313,1.);
#177=VECTOR('',#314,1.);
#178=VECTOR('',#315,1.);
#179=VECTOR('',#318,1.);
#180=VECTOR('',#319,1.);
#181=VECTOR('',#320,1.);
#182=VECTOR('',#321,1.);
#183=EDGE_LOOP('',(#35,#36,#37,#38));
#184=EDGE_LOOP('',(#39,#40,#41,#42));
#185=EDGE_LOOP('',(#43,#44,#45,#46));
#186=EDGE_LOOP('',(#47,#48,#49,#50));
#187=EDGE_LOOP('',(#51));
#188=EDGE_LOOP('',(#52));
#189=EDGE_LOOP('',(#53));
#190=EDGE_LOOP('',(#54,#55,#56,#57,#58,#59,#60,#61));
#191=EDGE_LOOP('',(#62));
#192=EDGE_LOOP('',(#63));
#193=EDGE_LOOP('',(#64,#65,#66,#67,#68,#69,#70,#71));
#194=EDGE_LOOP('',(#72,#73,#74,#75));
#195=EDGE_LOOP('',(#76,#77,#78,#79));
#196=EDGE_LOOP('',(#80,#81,#82,#83));
#197=EDGE_LOOP('',(#84,#85,#86,#87));
#198=EDGE_LOOP('',(#88));
#199=EDGE_LOOP('',(#89));
#200=EDGE_LOOP('',(#90));
#201=EDGE_LOOP('',(#91));
#202=EDGE_LOOP('',(#92));
#203=EDGE_LOOP('',(#93));
#204=EDGE_LOOP('',(#94));
#205=EDGE_LOOP('',(#95));
#206=EDGE_LOOP('',(#96));
#207=FACE_BOUND('',#183,.T.);
#208=FACE_BOUND('',#184,.T.);
#209=FACE_BOUND('',#185,.T.);
#210=FACE_BOUND('',#186,.T.);
#211=FACE_BOUND('',#187,.T.);
#212=FACE_BOUND('',#188,.T.);
#213=FACE_BOUND('',#189,.T.);
#214=FACE_BOUND('',#190,.T.);
#215=FACE_BOUND('',#191,.T.);
#216=FACE_BOUND('',#192,.T.);
#217=FACE_BOUND('',#193,.T.);
#218=FACE_BOUND('',#194,.T.);
#219=FACE_BOUND('',#195,.T.);
#220=FACE_BOUND('',#196,.T.);
#221=FACE_BOUND('',#197,.T.);
#222=FACE_BOUND('',#198,.T.);
#223=FACE_BOUND('',#199,.T.);
#224=FACE_BOUND('',#200,.T.);
#225=FACE_BOUND('',#201,.T.);
#226=FACE_BOUND('',#202,.T.);
#227=FACE_BOUND('',#203,.T.);
#228=FACE_BOUND('',#204,.T.);
#229=FACE_BOUND('',#205,.T.);
#230=FACE_BOUND('',#206,.T.);
#231=PLANE('',#266);
#232=PLANE('',#267);
#233=PLANE('',#268);
#234=PLANE('',#269);
#235=PLANE('',#270);
#236=PLANE('',#278);
#237=PLANE('',#291);
#238=ADVANCED_FACE('',(#207),#231,.T.);
#239=ADVANCED_FACE('',(#208),#232,.F.);
#240=ADVANCED_FACE('',(#209),#233,.F.);
#241=ADVANCED_FACE('',(#210),#234,.T.);
#242=ADVANCED_FACE('',(#211,#212,#213,#214),#235,.T.);
#243=ADVANCED_FACE('',(#215,#216,#217),#236,.F.);
#244=ADVANCED_FACE('',(#218),#14,.T.);
#245=ADVANCED_FACE('',(#219),#15,.T.);
#246=ADVANCED_FACE('',(#220),#16,.T.);
#247=ADVANCED_FACE('',(#221),#17,.T.);
#248=ADVANCED_FACE('',(#222),#12,.T.);
#249=ADVANCED_FACE('',(#223,#224),#237,.F.);
#250=ADVANCED_FACE('',(#225,#226),#13,.T.);
#251=ADVANCED_FACE('',(#227,#228),#18,.F.);
#252=ADVANCED_FACE('',(#229,#230),#19,.F.);
#253=CLOSED_SHELL('',(#238,#239,#240,#241,#242,#243,#244,#245,#246,#247,
#248,#249,#250,#251,#252));
#254=STYLED_ITEM('',(#255),#262);
#255=PRESENTATION_STYLE_ASSIGNMENT((#256));
#256=SURFACE_STYLE_USAGE(.BOTH.,#257);
#257=SURFACE_SIDE_STYLE('',(#258));
#258=SURFACE_STYLE_FILL_AREA(#259);
#259=FILL_AREA_STYLE('',(#260));
#260=FILL_AREA_STYLE_COLOUR('',#261);
#261=COLOUR_RGB('',0.615686274509804,0.811764705882353,0.929411764705882);
#262=MANIFOLD_SOLID_BREP('Part 1',#253);
#263=SHAPE_DEFINITION_REPRESENTATION(#450,#264);
#264=SHAPE_REPRESENTATION('Part 1',(#265),#445);
#265=AXIS2_PLACEMENT_3D('',#374,#296,#297);
#266=AXIS2_PLACEMENT_3D('',#375,#298,#299);
#267=AXIS2_PLACEMENT_3D('',#384,#304,#305);
#268=AXIS2_PLACEMENT_3D('',#393,#310,#311);
#269=AXIS2_PLACEMENT_3D('',#402,#316,#317);
#270=AXIS2_PLACEMENT_3D('',#411,#322,#323);
#271=AXIS2_PLACEMENT_3D('',#412,#324,#325);
#272=AXIS2_PLACEMENT_3D('',#414,#326,#327);
#273=AXIS2_PLACEMENT_3D('',#416,#328,#329);
#274=AXIS2_PLACEMENT_3D('',#418,#330,#331);
#275=AXIS2_PLACEMENT_3D('',#419,#332,#333);
#276=AXIS2_PLACEMENT_3D('',#420,#334,#335);
#277=AXIS2_PLACEMENT_3D('',#421,#336,#337);
#278=AXIS2_PLACEMENT_3D('',#422,#338,#339);
#279=AXIS2_PLACEMENT_3D('',#423,#340,#341);
#280=AXIS2_PLACEMENT_3D('',#425,#342,#343);
#281=AXIS2_PLACEMENT_3D('',#427,#344,#345);
#282=AXIS2_PLACEMENT_3D('',#428,#346,#347);
#283=AXIS2_PLACEMENT_3D('',#429,#348,#349);
#284=AXIS2_PLACEMENT_3D('',#430,#350,#351);
#285=AXIS2_PLACEMENT_3D('',#431,#352,#353);
#286=AXIS2_PLACEMENT_3D('',#432,#354,#355);
#287=AXIS2_PLACEMENT_3D('',#433,#356,#357);
#288=AXIS2_PLACEMENT_3D('',#434,#358,#359);
#289=AXIS2_PLACEMENT_3D('',#435,#360,#361);
#290=AXIS2_PLACEMENT_3D('',#436,#362,#363);
#291=AXIS2_PLACEMENT_3D('',#438,#364,#365);
#292=AXIS2_PLACEMENT_3D('',#439,#366,#367);
#293=AXIS2_PLACEMENT_3D('',#441,#368,#369);
#294=AXIS2_PLACEMENT_3D('',#442,#370,#371);
#295=AXIS2_PLACEMENT_3D('',#443,#372,#373);
#296=DIRECTION('',(0.,0.,1.));
#297=DIRECTION('',(1.,0.,0.));
#298=DIRECTION('',(1.16685435603821E-16,0.,1.));
#299=DIRECTION('',(1.,0.,-1.16685435603821E-16));
#300=DIRECTION('',(-1.,0.,1.16685435603821E-16));
#301=DIRECTION('',(0.,-1.,0.));
#302=DIRECTION('',(-1.,0.,1.16685435603821E-16));
#303=DIRECTION('',(0.,-1.,0.));
#304=DIRECTION('',(-1.,0.,0.));
#305=DIRECTION('',(0.,1.,0.));
#306=DIRECTION('',(0.,0.,-1.));
#307=DIRECTION('',(0.,-1.,0.));
#308=DIRECTION('',(0.,0.,-1.));
#309=DIRECTION('',(0.,-1.,0.));
#310=DIRECTION('',(0.,0.,1.));
#311=DIRECTION('',(0.,-1.,0.));
#312=DIRECTION('',(-1.,0.,0.));
#313=DIRECTION('',(0.,-1.,0.));
#314=DIRECTION('',(-1.,0.,0.));
#315=DIRECTION('',(0.,-1.,0.));
#316=DIRECTION('',(-1.,0.,0.));
#317=DIRECTION('',(0.,1.,0.));
#318=DIRECTION('',(0.,0.,-1.));
#319=DIRECTION('',(0.,-1.,0.));
#320=DIRECTION('',(0.,0.,-1.));
#321=DIRECTION('',(0.,-1.,0.));
#322=DIRECTION('',(0.,1.,0.));
#323=DIRECTION('',(1.,0.,0.));
#324=DIRECTION('',(0.,-1.,0.));
#325=DIRECTION('',(-1.,0.,0.));
#326=DIRECTION('',(0.,-1.,0.));
#327=DIRECTION('',(-1.,0.,0.));
#328=DIRECTION('',(0.,1.,0.));
#329=DIRECTION('',(1.,0.,0.));
#330=DIRECTION('',(0.,1.,0.));
#331=DIRECTION('',(1.,0.,0.));
#332=DIRECTION('',(0.,1.,0.));
#333=DIRECTION('',(1.,0.,0.));
#334=DIRECTION('',(0.,1.,0.));
#335=DIRECTION('',(1.,0.,0.));
#336=DIRECTION('',(0.,1.,0.));
#337=DIRECTION('',(1.,0.,0.));
#338=DIRECTION('',(0.,1.,0.));
#339=DIRECTION('',(1.,0.,0.));
#340=DIRECTION('',(0.,1.,0.));
#341=DIRECTION('',(1.,0.,0.));
#342=DIRECTION('',(0.,1.,0.));
#343=DIRECTION('',(1.,0.,0.));
#344=DIRECTION('',(0.,1.,0.));
#345=DIRECTION('',(1.,0.,0.));
#346=DIRECTION('',(0.,1.,0.));
#347=DIRECTION('',(1.,0.,0.));
#348=DIRECTION('',(0.,1.,0.));
#349=DIRECTION('',(1.,0.,0.));
#350=DIRECTION('',(0.,1.,0.));
#351=DIRECTION('',(1.,0.,0.));
#352=DIRECTION('',(0.,1.,0.));
#353=DIRECTION('',(1.,0.,0.));
#354=DIRECTION('',(0.,-1.,0.));
#355=DIRECTION('',(-1.,0.,0.));
#356=DIRECTION('',(0.,1.,0.));
#357=DIRECTION('',(1.,0.,0.));
#358=DIRECTION('',(0.,-1.,0.));
#359=DIRECTION('',(-1.,0.,0.));
#360=DIRECTION('',(0.,1.,0.));
#361=DIRECTION('',(-1.,0.,0.));
#362=DIRECTION('',(0.,1.,0.));
#363=DIRECTION('',(1.,0.,0.));
#364=DIRECTION('',(0.,-1.,0.));
#365=DIRECTION('',(-1.,0.,0.));
#366=DIRECTION('',(0.,1.,0.));
#367=DIRECTION('',(1.,0.,0.));
#368=DIRECTION('',(0.,1.,0.));
#369=DIRECTION('',(-1.,0.,0.));
#370=DIRECTION('',(0.,-1.,0.));
#371=DIRECTION('',(-1.,0.,0.));
#372=DIRECTION('',(0.,-1.,0.));
#373=DIRECTION('',(-1.,0.,0.));
#374=CARTESIAN_POINT('',(0.,0.,0.));
#375=CARTESIAN_POINT('',(0.,0.0025,0.0138));
#376=CARTESIAN_POINT('',(0.,0.0025,0.0138));
#377=CARTESIAN_POINT('',(0.0093,0.0025,0.0138));
#378=CARTESIAN_POINT('',(-0.0093,0.0025,0.0138));
#379=CARTESIAN_POINT('',(-0.0093,0.0025,0.0138));
#380=CARTESIAN_POINT('',(-0.0093,0.,0.0138));
#381=CARTESIAN_POINT('',(0.,0.,0.0138));
#382=CARTESIAN_POINT('',(0.0093,0.,0.0138));
#383=CARTESIAN_POINT('',(0.0093,0.0025,0.0138));
#384=CARTESIAN_POINT('',(0.0223,0.0025,1.38777878078145E-17));
#385=CARTESIAN_POINT('',(0.0223,0.0025,1.38777878078145E-17));
#386=CARTESIAN_POINT('',(0.0223,0.0025,0.000800000000000018));
#387=CARTESIAN_POINT('',(0.0223,0.0025,-0.0008));
#388=CARTESIAN_POINT('',(0.0223,0.,0.000800000000000018));
#389=CARTESIAN_POINT('',(0.0223,0.,0.000800000000000018));
#390=CARTESIAN_POINT('',(0.0223,0.,1.38777878078145E-17));
#391=CARTESIAN_POINT('',(0.0223,0.,-0.0008));
#392=CARTESIAN_POINT('',(0.0223,0.0025,-0.0008));
#393=CARTESIAN_POINT('',(0.,0.0025,-0.0138));
#394=CARTESIAN_POINT('',(0.,0.,-0.0138));
#395=CARTESIAN_POINT('',(0.0093,0.,-0.0138));
#396=CARTESIAN_POINT('',(-0.0093,0.,-0.0138));
#397=CARTESIAN_POINT('',(-0.0093,0.0025,-0.0138));
#398=CARTESIAN_POINT('',(-0.0093,0.0025,-0.0138));
#399=CARTESIAN_POINT('',(0.,0.0025,-0.0138));
#400=CARTESIAN_POINT('',(0.0093,0.0025,-0.0138));
#401=CARTESIAN_POINT('',(0.0093,0.0025,-0.0138));
#402=CARTESIAN_POINT('',(-0.0223,0.0025,2.08166817117217E-17));
#403=CARTESIAN_POINT('',(-0.0223,0.0025,2.08166817117217E-17));
#404=CARTESIAN_POINT('',(-0.0223,0.0025,0.000800000000000021));
#405=CARTESIAN_POINT('',(-0.0223,0.0025,-0.0008));
#406=CARTESIAN_POINT('',(-0.0223,0.,-0.0008));
#407=CARTESIAN_POINT('',(-0.0223,0.,-0.0008));
#408=CARTESIAN_POINT('',(-0.0223,0.,2.08166817117217E-17));
#409=CARTESIAN_POINT('',(-0.0223,0.,0.000800000000000021));
#410=CARTESIAN_POINT('',(-0.0223,0.0025,0.000800000000000021));
#411=CARTESIAN_POINT('',(0.,0.0025,1.04083408558608E-17));
#412=CARTESIAN_POINT('',(-0.017,0.0025,6.25927231925852E-34));
#413=CARTESIAN_POINT('',(-0.019,0.0025,6.25927231925852E-34));
#414=CARTESIAN_POINT('',(0.017,0.0025,-1.92592994438723E-34));
#415=CARTESIAN_POINT('',(0.015,0.0025,-1.92592994438723E-34));
#416=CARTESIAN_POINT('',(1.69238568739288E-20,0.0025,0.));
#417=CARTESIAN_POINT('',(0.00975,0.0025,0.));
#418=CARTESIAN_POINT('',(-0.0093,0.0025,-0.0008));
#419=CARTESIAN_POINT('',(-0.0093,0.0025,0.000800000000000021));
#420=CARTESIAN_POINT('',(0.0093,0.0025,0.000800000000000018));
#421=CARTESIAN_POINT('',(0.0093,0.0025,-0.0008));
#422=CARTESIAN_POINT('',(0.,0.,1.04083408558608E-17));
#423=CARTESIAN_POINT('',(-0.017,0.,6.25927231925852E-34));
#424=CARTESIAN_POINT('',(-0.015,0.,6.25927231925852E-34));
#425=CARTESIAN_POINT('',(0.017,0.,-1.92592994438723E-34));
#426=CARTESIAN_POINT('',(0.019,0.,-1.92592994438723E-34));
#427=CARTESIAN_POINT('',(-0.0093,0.,-0.0008));
#428=CARTESIAN_POINT('',(0.0093,0.,-0.0008));
#429=CARTESIAN_POINT('',(0.0093,0.,0.000800000000000018));
#430=CARTESIAN_POINT('',(-0.0093,0.,0.000800000000000021));
#431=CARTESIAN_POINT('',(-0.0093,0.0025,-0.0008));
#432=CARTESIAN_POINT('',(-0.0093,0.0025,0.000800000000000021));
#433=CARTESIAN_POINT('',(0.0093,0.0025,0.000800000000000018));
#434=CARTESIAN_POINT('',(0.0093,0.0025,-0.0008));
#435=CARTESIAN_POINT('',(5.81793989659506E-18,0.00725,0.));
#436=CARTESIAN_POINT('',(1.69238568739288E-20,0.0105,0.));
#437=CARTESIAN_POINT('',(0.00379967103839267,0.0105,0.));
#438=CARTESIAN_POINT('',(-0.00468652262039733,0.0105,0.));
#439=CARTESIAN_POINT('',(1.69238568739288E-20,0.0105,0.));
#440=CARTESIAN_POINT('',(0.00557337420240199,0.0105,0.));
#441=CARTESIAN_POINT('',(-1.3010426069826E-18,0.0025,0.));
#442=CARTESIAN_POINT('',(0.017,0.0025,-1.92592994438723E-34));
#443=CARTESIAN_POINT('',(-0.017,0.0025,6.25927231925852E-34));
#444=MECHANICAL_DESIGN_GEOMETRIC_PRESENTATION_REPRESENTATION('',(#254),
#445);
#445=(
GEOMETRIC_REPRESENTATION_CONTEXT(3)
GLOBAL_UNCERTAINTY_ASSIGNED_CONTEXT((#446))
GLOBAL_UNIT_ASSIGNED_CONTEXT((#449,#448,#447))
REPRESENTATION_CONTEXT('Part 1','TOP_LEVEL_ASSEMBLY_PART')
);
#446=UNCERTAINTY_MEASURE_WITH_UNIT(LENGTH_MEASURE(1.E-8),#449,
'DISTANCE_ACCURACY_VALUE','Maximum Tolerance applied to model');
#447=(
NAMED_UNIT(*)
SI_UNIT($,.STERADIAN.)
SOLID_ANGLE_UNIT()
);
#448=(
NAMED_UNIT(*)
PLANE_ANGLE_UNIT()
SI_UNIT($,.RADIAN.)
);
#449=(
LENGTH_UNIT()
NAMED_UNIT(*)
SI_UNIT($,.METRE.)
);
#450=PRODUCT_DEFINITION_SHAPE('','',#451);
#451=PRODUCT_DEFINITION('','',#453,#452);
#452=PRODUCT_DEFINITION_CONTEXT('',#459,'design');
#453=PRODUCT_DEFINITION_FORMATION_WITH_SPECIFIED_SOURCE('','',#455,
 .NOT_KNOWN.);
#454=PRODUCT_RELATED_PRODUCT_CATEGORY('','',(#455));
#455=PRODUCT('Part 1','Part 1','Part 1',(#457));
#456=PRODUCT_CATEGORY('','');
#457=PRODUCT_CONTEXT('',#459,'mechanical');
#458=APPLICATION_PROTOCOL_DEFINITION('international standard',
'ap242_managed_model_based_3d_engineering',2020,#459);
#459=APPLICATION_CONTEXT('managed model based 3d engineering');
ENDSEC;
END-ISO-10303-21;
