ISO-10303-21;
HEADER;
/* Generated by software containing ST-Developer
 * from STEP Tools, Inc. (www.steptools.com) 
 */
/* OPTION: using custom renumber hook */

FILE_DESCRIPTION(
/* description */ ('STEP AP242 Edition 2',
'CAx-IF Rec.Pracs.---Representation and Presentation of Product Manufa
cturing Information (PMI)---4.0---2014-10-13',
'CAx-IF Rec.Pracs.---3D Tessellated Geometry---0.4---2014-09-14','2;1',
'CAx-IF Rec.Pracs.---User Defined Attributes---1.5---2016-08-15'),
/* implementation_level */ '2;1');

FILE_NAME(
/* name */ 'ARCADA001 - ARCADP003 (1)',
/* time_stamp */ '2026-07-17T02:50:49Z',
/* author */ (''),
/* organization */ (''),
/* preprocessor_version */ 'ST-DEVELOPER v20',
/* originating_system */ 'ONSHAPE BY PTC INC, 1.217',
/* authorisation */ '  ');

FILE_SCHEMA (('AP242_MANAGED_MODEL_BASED_3D_ENGINEERING_MIM_LF { 1 0 10303 442 3 1 4 }'));
ENDSEC;

DATA;
#10=SHAPE_REPRESENTATION_RELATIONSHIP('','',#435,#11);
#11=ADVANCED_BREP_SHAPE_REPRESENTATION('',(#433),#729);
#12=CYLINDRICAL_SURFACE('',#454,0.095);
#13=CYLINDRICAL_SURFACE('',#457,0.01);
#14=CYLINDRICAL_SURFACE('',#459,0.01);
#15=CYLINDRICAL_SURFACE('',#461,0.0017);
#16=CYLINDRICAL_SURFACE('',#463,0.0017);
#17=CYLINDRICAL_SURFACE('',#465,0.0017);
#18=CYLINDRICAL_SURFACE('',#467,0.0017);
#19=CYLINDRICAL_SURFACE('',#469,0.0017);
#20=CYLINDRICAL_SURFACE('',#471,0.0017);
#21=CYLINDRICAL_SURFACE('',#473,0.0021);
#22=CYLINDRICAL_SURFACE('',#475,0.0021);
#23=CYLINDRICAL_SURFACE('',#478,0.088);
#24=CYLINDRICAL_SURFACE('',#482,0.005);
#25=CYLINDRICAL_SURFACE('',#484,0.005);
#26=CIRCLE('',#438,0.01);
#27=CIRCLE('',#439,0.01);
#28=CIRCLE('',#440,0.095);
#29=CIRCLE('',#441,0.0017);
#30=CIRCLE('',#442,0.0017);
#31=CIRCLE('',#443,0.0017);
#32=CIRCLE('',#444,0.0017);
#33=CIRCLE('',#445,0.0017);
#34=CIRCLE('',#446,0.0017);
#35=CIRCLE('',#447,0.0021);
#36=CIRCLE('',#448,0.0021);
#37=CIRCLE('',#449,0.088);
#38=CIRCLE('',#450,0.005);
#39=CIRCLE('',#451,0.005);
#40=CIRCLE('',#455,0.095);
#41=CIRCLE('',#458,0.01);
#42=CIRCLE('',#460,0.01);
#43=CIRCLE('',#462,0.0017);
#44=CIRCLE('',#464,0.0017);
#45=CIRCLE('',#466,0.0017);
#46=CIRCLE('',#468,0.0017);
#47=CIRCLE('',#470,0.0017);
#48=CIRCLE('',#472,0.0017);
#49=CIRCLE('',#474,0.0021);
#50=CIRCLE('',#476,0.0021);
#51=CIRCLE('',#479,0.088);
#52=CIRCLE('',#483,0.005);
#53=CIRCLE('',#485,0.005);
#54=ORIENTED_EDGE('',*,*,#158,.T.);
#55=ORIENTED_EDGE('',*,*,#159,.T.);
#56=ORIENTED_EDGE('',*,*,#160,.T.);
#57=ORIENTED_EDGE('',*,*,#161,.T.);
#58=ORIENTED_EDGE('',*,*,#162,.F.);
#59=ORIENTED_EDGE('',*,*,#163,.F.);
#60=ORIENTED_EDGE('',*,*,#164,.F.);
#61=ORIENTED_EDGE('',*,*,#165,.F.);
#62=ORIENTED_EDGE('',*,*,#166,.F.);
#63=ORIENTED_EDGE('',*,*,#167,.F.);
#64=ORIENTED_EDGE('',*,*,#168,.F.);
#65=ORIENTED_EDGE('',*,*,#169,.F.);
#66=ORIENTED_EDGE('',*,*,#170,.F.);
#67=ORIENTED_EDGE('',*,*,#171,.F.);
#68=ORIENTED_EDGE('',*,*,#172,.F.);
#69=ORIENTED_EDGE('',*,*,#173,.T.);
#70=ORIENTED_EDGE('',*,*,#174,.T.);
#71=ORIENTED_EDGE('',*,*,#175,.T.);
#72=ORIENTED_EDGE('',*,*,#176,.T.);
#73=ORIENTED_EDGE('',*,*,#177,.T.);
#74=ORIENTED_EDGE('',*,*,#160,.F.);
#75=ORIENTED_EDGE('',*,*,#178,.T.);
#76=ORIENTED_EDGE('',*,*,#179,.T.);
#77=ORIENTED_EDGE('',*,*,#180,.T.);
#78=ORIENTED_EDGE('',*,*,#181,.F.);
#79=ORIENTED_EDGE('',*,*,#182,.T.);
#80=ORIENTED_EDGE('',*,*,#183,.T.);
#81=ORIENTED_EDGE('',*,*,#158,.F.);
#82=ORIENTED_EDGE('',*,*,#163,.T.);
#83=ORIENTED_EDGE('',*,*,#184,.F.);
#84=ORIENTED_EDGE('',*,*,#185,.F.);
#85=ORIENTED_EDGE('',*,*,#181,.T.);
#86=ORIENTED_EDGE('',*,*,#162,.T.);
#87=ORIENTED_EDGE('',*,*,#186,.T.);
#88=ORIENTED_EDGE('',*,*,#187,.F.);
#89=ORIENTED_EDGE('',*,*,#184,.T.);
#90=ORIENTED_EDGE('',*,*,#183,.F.);
#91=ORIENTED_EDGE('',*,*,#188,.F.);
#92=ORIENTED_EDGE('',*,*,#178,.F.);
#93=ORIENTED_EDGE('',*,*,#159,.F.);
#94=ORIENTED_EDGE('',*,*,#180,.F.);
#95=ORIENTED_EDGE('',*,*,#189,.F.);
#96=ORIENTED_EDGE('',*,*,#186,.F.);
#97=ORIENTED_EDGE('',*,*,#161,.F.);
#98=ORIENTED_EDGE('',*,*,#164,.T.);
#99=ORIENTED_EDGE('',*,*,#190,.F.);
#100=ORIENTED_EDGE('',*,*,#165,.T.);
#101=ORIENTED_EDGE('',*,*,#191,.F.);
#102=ORIENTED_EDGE('',*,*,#166,.T.);
#103=ORIENTED_EDGE('',*,*,#192,.F.);
#104=ORIENTED_EDGE('',*,*,#167,.T.);
#105=ORIENTED_EDGE('',*,*,#193,.F.);
#106=ORIENTED_EDGE('',*,*,#168,.T.);
#107=ORIENTED_EDGE('',*,*,#194,.F.);
#108=ORIENTED_EDGE('',*,*,#169,.T.);
#109=ORIENTED_EDGE('',*,*,#195,.F.);
#110=ORIENTED_EDGE('',*,*,#170,.T.);
#111=ORIENTED_EDGE('',*,*,#196,.F.);
#112=ORIENTED_EDGE('',*,*,#171,.T.);
#113=ORIENTED_EDGE('',*,*,#197,.F.);
#114=ORIENTED_EDGE('',*,*,#172,.T.);
#115=ORIENTED_EDGE('',*,*,#198,.T.);
#116=ORIENTED_EDGE('',*,*,#199,.F.);
#117=ORIENTED_EDGE('',*,*,#200,.F.);
#118=ORIENTED_EDGE('',*,*,#200,.T.);
#119=ORIENTED_EDGE('',*,*,#201,.T.);
#120=ORIENTED_EDGE('',*,*,#202,.F.);
#121=ORIENTED_EDGE('',*,*,#173,.F.);
#122=ORIENTED_EDGE('',*,*,#202,.T.);
#123=ORIENTED_EDGE('',*,*,#203,.T.);
#124=ORIENTED_EDGE('',*,*,#204,.T.);
#125=ORIENTED_EDGE('',*,*,#174,.F.);
#126=ORIENTED_EDGE('',*,*,#176,.F.);
#127=ORIENTED_EDGE('',*,*,#205,.T.);
#128=ORIENTED_EDGE('',*,*,#206,.T.);
#129=ORIENTED_EDGE('',*,*,#207,.T.);
#130=ORIENTED_EDGE('',*,*,#175,.F.);
#131=ORIENTED_EDGE('',*,*,#204,.F.);
#132=ORIENTED_EDGE('',*,*,#208,.F.);
#133=ORIENTED_EDGE('',*,*,#205,.F.);
#134=ORIENTED_EDGE('',*,*,#177,.F.);
#135=ORIENTED_EDGE('',*,*,#207,.F.);
#136=ORIENTED_EDGE('',*,*,#209,.F.);
#137=ORIENTED_EDGE('',*,*,#198,.F.);
#138=ORIENTED_EDGE('',*,*,#193,.T.);
#139=ORIENTED_EDGE('',*,*,#194,.T.);
#140=ORIENTED_EDGE('',*,*,#192,.T.);
#141=ORIENTED_EDGE('',*,*,#179,.F.);
#142=ORIENTED_EDGE('',*,*,#188,.T.);
#143=ORIENTED_EDGE('',*,*,#182,.F.);
#144=ORIENTED_EDGE('',*,*,#185,.T.);
#145=ORIENTED_EDGE('',*,*,#187,.T.);
#146=ORIENTED_EDGE('',*,*,#189,.T.);
#147=ORIENTED_EDGE('',*,*,#190,.T.);
#148=ORIENTED_EDGE('',*,*,#191,.T.);
#149=ORIENTED_EDGE('',*,*,#195,.T.);
#150=ORIENTED_EDGE('',*,*,#196,.T.);
#151=ORIENTED_EDGE('',*,*,#197,.T.);
#152=ORIENTED_EDGE('',*,*,#201,.F.);
#153=ORIENTED_EDGE('',*,*,#199,.T.);
#154=ORIENTED_EDGE('',*,*,#209,.T.);
#155=ORIENTED_EDGE('',*,*,#206,.F.);
#156=ORIENTED_EDGE('',*,*,#208,.T.);
#157=ORIENTED_EDGE('',*,*,#203,.F.);
#158=EDGE_CURVE('',#210,#211,#250,.T.);
#159=EDGE_CURVE('',#211,#212,#26,.F.);
#160=EDGE_CURVE('',#212,#213,#251,.T.);
#161=EDGE_CURVE('',#213,#214,#27,.F.);
#162=EDGE_CURVE('',#215,#214,#252,.T.);
#163=EDGE_CURVE('',#210,#215,#28,.T.);
#164=EDGE_CURVE('',#216,#216,#29,.F.);
#165=EDGE_CURVE('',#217,#217,#30,.F.);
#166=EDGE_CURVE('',#218,#218,#31,.F.);
#167=EDGE_CURVE('',#219,#219,#32,.F.);
#168=EDGE_CURVE('',#220,#220,#33,.F.);
#169=EDGE_CURVE('',#221,#221,#34,.F.);
#170=EDGE_CURVE('',#222,#222,#35,.F.);
#171=EDGE_CURVE('',#223,#223,#36,.F.);
#172=EDGE_CURVE('',#224,#225,#253,.T.);
#173=EDGE_CURVE('',#224,#226,#37,.T.);
#174=EDGE_CURVE('',#226,#227,#254,.T.);
#175=EDGE_CURVE('',#227,#228,#38,.T.);
#176=EDGE_CURVE('',#228,#229,#255,.T.);
#177=EDGE_CURVE('',#229,#225,#39,.T.);
#178=EDGE_CURVE('',#212,#230,#256,.F.);
#179=EDGE_CURVE('',#230,#231,#257,.T.);
#180=EDGE_CURVE('',#231,#213,#258,.T.);
#181=EDGE_CURVE('',#232,#210,#259,.T.);
#182=EDGE_CURVE('',#232,#233,#260,.T.);
#183=EDGE_CURVE('',#233,#211,#261,.T.);
#184=EDGE_CURVE('',#234,#215,#262,.T.);
#185=EDGE_CURVE('',#232,#234,#40,.T.);
#186=EDGE_CURVE('',#214,#235,#263,.F.);
#187=EDGE_CURVE('',#234,#235,#264,.T.);
#188=EDGE_CURVE('',#230,#233,#41,.T.);
#189=EDGE_CURVE('',#235,#231,#42,.T.);
#190=EDGE_CURVE('',#236,#236,#43,.T.);
#191=EDGE_CURVE('',#237,#237,#44,.T.);
#192=EDGE_CURVE('',#238,#238,#45,.T.);
#193=EDGE_CURVE('',#239,#239,#46,.T.);
#194=EDGE_CURVE('',#240,#240,#47,.T.);
#195=EDGE_CURVE('',#241,#241,#48,.T.);
#196=EDGE_CURVE('',#242,#242,#49,.T.);
#197=EDGE_CURVE('',#243,#243,#50,.T.);
#198=EDGE_CURVE('',#225,#244,#265,.T.);
#199=EDGE_CURVE('',#245,#244,#266,.T.);
#200=EDGE_CURVE('',#224,#245,#267,.T.);
#201=EDGE_CURVE('',#245,#246,#51,.T.);
#202=EDGE_CURVE('',#226,#246,#268,.T.);
#203=EDGE_CURVE('',#246,#247,#269,.T.);
#204=EDGE_CURVE('',#247,#227,#270,.F.);
#205=EDGE_CURVE('',#228,#248,#271,.T.);
#206=EDGE_CURVE('',#248,#249,#272,.T.);
#207=EDGE_CURVE('',#249,#229,#273,.F.);
#208=EDGE_CURVE('',#248,#247,#52,.F.);
#209=EDGE_CURVE('',#244,#249,#53,.F.);
#210=VERTEX_POINT('',#616);
#211=VERTEX_POINT('',#617);
#212=VERTEX_POINT('',#619);
#213=VERTEX_POINT('',#621);
#214=VERTEX_POINT('',#623);
#215=VERTEX_POINT('',#625);
#216=VERTEX_POINT('',#628);
#217=VERTEX_POINT('',#630);
#218=VERTEX_POINT('',#632);
#219=VERTEX_POINT('',#634);
#220=VERTEX_POINT('',#636);
#221=VERTEX_POINT('',#638);
#222=VERTEX_POINT('',#640);
#223=VERTEX_POINT('',#642);
#224=VERTEX_POINT('',#644);
#225=VERTEX_POINT('',#645);
#226=VERTEX_POINT('',#647);
#227=VERTEX_POINT('',#649);
#228=VERTEX_POINT('',#651);
#229=VERTEX_POINT('',#653);
#230=VERTEX_POINT('',#657);
#231=VERTEX_POINT('',#659);
#232=VERTEX_POINT('',#663);
#233=VERTEX_POINT('',#665);
#234=VERTEX_POINT('',#669);
#235=VERTEX_POINT('',#673);
#236=VERTEX_POINT('',#681);
#237=VERTEX_POINT('',#684);
#238=VERTEX_POINT('',#687);
#239=VERTEX_POINT('',#690);
#240=VERTEX_POINT('',#693);
#241=VERTEX_POINT('',#696);
#242=VERTEX_POINT('',#699);
#243=VERTEX_POINT('',#702);
#244=VERTEX_POINT('',#705);
#245=VERTEX_POINT('',#707);
#246=VERTEX_POINT('',#711);
#247=VERTEX_POINT('',#715);
#248=VERTEX_POINT('',#719);
#249=VERTEX_POINT('',#721);
#250=LINE('',#615,#274);
#251=LINE('',#620,#275);
#252=LINE('',#624,#276);
#253=LINE('',#643,#277);
#254=LINE('',#648,#278);
#255=LINE('',#652,#279);
#256=LINE('',#656,#280);
#257=LINE('',#658,#281);
#258=LINE('',#660,#282);
#259=LINE('',#662,#283);
#260=LINE('',#664,#284);
#261=LINE('',#666,#285);
#262=LINE('',#668,#286);
#263=LINE('',#672,#287);
#264=LINE('',#674,#288);
#265=LINE('',#704,#289);
#266=LINE('',#706,#290);
#267=LINE('',#708,#291);
#268=LINE('',#712,#292);
#269=LINE('',#714,#293);
#270=LINE('',#716,#294);
#271=LINE('',#718,#295);
#272=LINE('',#720,#296);
#273=LINE('',#722,#297);
#274=VECTOR('',#491,1.);
#275=VECTOR('',#494,1.);
#276=VECTOR('',#497,1.);
#277=VECTOR('',#516,1.);
#278=VECTOR('',#519,1.);
#279=VECTOR('',#522,1.);
#280=VECTOR('',#527,1.);
#281=VECTOR('',#528,1.);
#282=VECTOR('',#529,1.);
#283=VECTOR('',#532,1.);
#284=VECTOR('',#533,1.);
#285=VECTOR('',#534,1.);
#286=VECTOR('',#537,1.);
#287=VECTOR('',#542,1.);
#288=VECTOR('',#543,1.);
#289=VECTOR('',#586,1.);
#290=VECTOR('',#587,1.);
#291=VECTOR('',#588,1.);
#292=VECTOR('',#593,1.);
#293=VECTOR('',#596,1.);
#294=VECTOR('',#597,1.);
#295=VECTOR('',#600,1.);
#296=VECTOR('',#601,1.);
#297=VECTOR('',#602,1.);
#298=EDGE_LOOP('',(#54,#55,#56,#57,#58,#59));
#299=EDGE_LOOP('',(#60));
#300=EDGE_LOOP('',(#61));
#301=EDGE_LOOP('',(#62));
#302=EDGE_LOOP('',(#63));
#303=EDGE_LOOP('',(#64));
#304=EDGE_LOOP('',(#65));
#305=EDGE_LOOP('',(#66));
#306=EDGE_LOOP('',(#67));
#307=EDGE_LOOP('',(#68,#69,#70,#71,#72,#73));
#308=EDGE_LOOP('',(#74,#75,#76,#77));
#309=EDGE_LOOP('',(#78,#79,#80,#81));
#310=EDGE_LOOP('',(#82,#83,#84,#85));
#311=EDGE_LOOP('',(#86,#87,#88,#89));
#312=EDGE_LOOP('',(#90,#91,#92,#93));
#313=EDGE_LOOP('',(#94,#95,#96,#97));
#314=EDGE_LOOP('',(#98));
#315=EDGE_LOOP('',(#99));
#316=EDGE_LOOP('',(#100));
#317=EDGE_LOOP('',(#101));
#318=EDGE_LOOP('',(#102));
#319=EDGE_LOOP('',(#103));
#320=EDGE_LOOP('',(#104));
#321=EDGE_LOOP('',(#105));
#322=EDGE_LOOP('',(#106));
#323=EDGE_LOOP('',(#107));
#324=EDGE_LOOP('',(#108));
#325=EDGE_LOOP('',(#109));
#326=EDGE_LOOP('',(#110));
#327=EDGE_LOOP('',(#111));
#328=EDGE_LOOP('',(#112));
#329=EDGE_LOOP('',(#113));
#330=EDGE_LOOP('',(#114,#115,#116,#117));
#331=EDGE_LOOP('',(#118,#119,#120,#121));
#332=EDGE_LOOP('',(#122,#123,#124,#125));
#333=EDGE_LOOP('',(#126,#127,#128,#129));
#334=EDGE_LOOP('',(#130,#131,#132,#133));
#335=EDGE_LOOP('',(#134,#135,#136,#137));
#336=EDGE_LOOP('',(#138));
#337=EDGE_LOOP('',(#139));
#338=EDGE_LOOP('',(#140));
#339=EDGE_LOOP('',(#141,#142,#143,#144,#145,#146));
#340=EDGE_LOOP('',(#147));
#341=EDGE_LOOP('',(#148));
#342=EDGE_LOOP('',(#149));
#343=EDGE_LOOP('',(#150));
#344=EDGE_LOOP('',(#151));
#345=EDGE_LOOP('',(#152,#153,#154,#155,#156,#157));
#346=FACE_BOUND('',#298,.T.);
#347=FACE_BOUND('',#299,.T.);
#348=FACE_BOUND('',#300,.T.);
#349=FACE_BOUND('',#301,.T.);
#350=FACE_BOUND('',#302,.T.);
#351=FACE_BOUND('',#303,.T.);
#352=FACE_BOUND('',#304,.T.);
#353=FACE_BOUND('',#305,.T.);
#354=FACE_BOUND('',#306,.T.);
#355=FACE_BOUND('',#307,.T.);
#356=FACE_BOUND('',#308,.T.);
#357=FACE_BOUND('',#309,.T.);
#358=FACE_BOUND('',#310,.T.);
#359=FACE_BOUND('',#311,.T.);
#360=FACE_BOUND('',#312,.T.);
#361=FACE_BOUND('',#313,.T.);
#362=FACE_BOUND('',#314,.T.);
#363=FACE_BOUND('',#315,.T.);
#364=FACE_BOUND('',#316,.T.);
#365=FACE_BOUND('',#317,.T.);
#366=FACE_BOUND('',#318,.T.);
#367=FACE_BOUND('',#319,.T.);
#368=FACE_BOUND('',#320,.T.);
#369=FACE_BOUND('',#321,.T.);
#370=FACE_BOUND('',#322,.T.);
#371=FACE_BOUND('',#323,.T.);
#372=FACE_BOUND('',#324,.T.);
#373=FACE_BOUND('',#325,.T.);
#374=FACE_BOUND('',#326,.T.);
#375=FACE_BOUND('',#327,.T.);
#376=FACE_BOUND('',#328,.T.);
#377=FACE_BOUND('',#329,.T.);
#378=FACE_BOUND('',#330,.T.);
#379=FACE_BOUND('',#331,.T.);
#380=FACE_BOUND('',#332,.T.);
#381=FACE_BOUND('',#333,.T.);
#382=FACE_BOUND('',#334,.T.);
#383=FACE_BOUND('',#335,.T.);
#384=FACE_BOUND('',#336,.T.);
#385=FACE_BOUND('',#337,.T.);
#386=FACE_BOUND('',#338,.T.);
#387=FACE_BOUND('',#339,.T.);
#388=FACE_BOUND('',#340,.T.);
#389=FACE_BOUND('',#341,.T.);
#390=FACE_BOUND('',#342,.T.);
#391=FACE_BOUND('',#343,.T.);
#392=FACE_BOUND('',#344,.T.);
#393=FACE_BOUND('',#345,.T.);
#394=PLANE('',#437);
#395=PLANE('',#452);
#396=PLANE('',#453);
#397=PLANE('',#456);
#398=PLANE('',#477);
#399=PLANE('',#480);
#400=PLANE('',#481);
#401=PLANE('',#486);
#402=ADVANCED_FACE('',(#346,#347,#348,#349,#350,#351,#352,#353,#354,#355),
#394,.F.);
#403=ADVANCED_FACE('',(#356),#395,.T.);
#404=ADVANCED_FACE('',(#357),#396,.T.);
#405=ADVANCED_FACE('',(#358),#12,.T.);
#406=ADVANCED_FACE('',(#359),#397,.F.);
#407=ADVANCED_FACE('',(#360),#13,.T.);
#408=ADVANCED_FACE('',(#361),#14,.T.);
#409=ADVANCED_FACE('',(#362,#363),#15,.F.);
#410=ADVANCED_FACE('',(#364,#365),#16,.F.);
#411=ADVANCED_FACE('',(#366,#367),#17,.F.);
#412=ADVANCED_FACE('',(#368,#369),#18,.F.);
#413=ADVANCED_FACE('',(#370,#371),#19,.F.);
#414=ADVANCED_FACE('',(#372,#373),#20,.F.);
#415=ADVANCED_FACE('',(#374,#375),#21,.F.);
#416=ADVANCED_FACE('',(#376,#377),#22,.F.);
#417=ADVANCED_FACE('',(#378),#398,.T.);
#418=ADVANCED_FACE('',(#379),#23,.F.);
#419=ADVANCED_FACE('',(#380),#399,.F.);
#420=ADVANCED_FACE('',(#381),#400,.F.);
#421=ADVANCED_FACE('',(#382),#24,.F.);
#422=ADVANCED_FACE('',(#383),#25,.F.);
#423=ADVANCED_FACE('',(#384,#385,#386,#387,#388,#389,#390,#391,#392,#393),
#401,.T.);
#424=CLOSED_SHELL('',(#402,#403,#404,#405,#406,#407,#408,#409,#410,#411,
#412,#413,#414,#415,#416,#417,#418,#419,#420,#421,#422,#423));
#425=STYLED_ITEM('',(#426),#433);
#426=PRESENTATION_STYLE_ASSIGNMENT((#427));
#427=SURFACE_STYLE_USAGE(.BOTH.,#428);
#428=SURFACE_SIDE_STYLE('',(#429));
#429=SURFACE_STYLE_FILL_AREA(#430);
#430=FILL_AREA_STYLE('',(#431));
#431=FILL_AREA_STYLE_COLOUR('',#432);
#432=COLOUR_RGB('',0.615686274509804,0.811764705882353,0.929411764705882);
#433=MANIFOLD_SOLID_BREP('ARCADP003',#424);
#434=SHAPE_DEFINITION_REPRESENTATION(#734,#435);
#435=SHAPE_REPRESENTATION('ARCADP003',(#436),#729);
#436=AXIS2_PLACEMENT_3D('',#613,#487,#488);
#437=AXIS2_PLACEMENT_3D('',#614,#489,#490);
#438=AXIS2_PLACEMENT_3D('',#618,#492,#493);
#439=AXIS2_PLACEMENT_3D('',#622,#495,#496);
#440=AXIS2_PLACEMENT_3D('',#626,#498,#499);
#441=AXIS2_PLACEMENT_3D('',#627,#500,#501);
#442=AXIS2_PLACEMENT_3D('',#629,#502,#503);
#443=AXIS2_PLACEMENT_3D('',#631,#504,#505);
#444=AXIS2_PLACEMENT_3D('',#633,#506,#507);
#445=AXIS2_PLACEMENT_3D('',#635,#508,#509);
#446=AXIS2_PLACEMENT_3D('',#637,#510,#511);
#447=AXIS2_PLACEMENT_3D('',#639,#512,#513);
#448=AXIS2_PLACEMENT_3D('',#641,#514,#515);
#449=AXIS2_PLACEMENT_3D('',#646,#517,#518);
#450=AXIS2_PLACEMENT_3D('',#650,#520,#521);
#451=AXIS2_PLACEMENT_3D('',#654,#523,#524);
#452=AXIS2_PLACEMENT_3D('',#655,#525,#526);
#453=AXIS2_PLACEMENT_3D('',#661,#530,#531);
#454=AXIS2_PLACEMENT_3D('',#667,#535,#536);
#455=AXIS2_PLACEMENT_3D('',#670,#538,#539);
#456=AXIS2_PLACEMENT_3D('',#671,#540,#541);
#457=AXIS2_PLACEMENT_3D('',#675,#544,#545);
#458=AXIS2_PLACEMENT_3D('',#676,#546,#547);
#459=AXIS2_PLACEMENT_3D('',#677,#548,#549);
#460=AXIS2_PLACEMENT_3D('',#678,#550,#551);
#461=AXIS2_PLACEMENT_3D('',#679,#552,#553);
#462=AXIS2_PLACEMENT_3D('',#680,#554,#555);
#463=AXIS2_PLACEMENT_3D('',#682,#556,#557);
#464=AXIS2_PLACEMENT_3D('',#683,#558,#559);
#465=AXIS2_PLACEMENT_3D('',#685,#560,#561);
#466=AXIS2_PLACEMENT_3D('',#686,#562,#563);
#467=AXIS2_PLACEMENT_3D('',#688,#564,#565);
#468=AXIS2_PLACEMENT_3D('',#689,#566,#567);
#469=AXIS2_PLACEMENT_3D('',#691,#568,#569);
#470=AXIS2_PLACEMENT_3D('',#692,#570,#571);
#471=AXIS2_PLACEMENT_3D('',#694,#572,#573);
#472=AXIS2_PLACEMENT_3D('',#695,#574,#575);
#473=AXIS2_PLACEMENT_3D('',#697,#576,#577);
#474=AXIS2_PLACEMENT_3D('',#698,#578,#579);
#475=AXIS2_PLACEMENT_3D('',#700,#580,#581);
#476=AXIS2_PLACEMENT_3D('',#701,#582,#583);
#477=AXIS2_PLACEMENT_3D('',#703,#584,#585);
#478=AXIS2_PLACEMENT_3D('',#709,#589,#590);
#479=AXIS2_PLACEMENT_3D('',#710,#591,#592);
#480=AXIS2_PLACEMENT_3D('',#713,#594,#595);
#481=AXIS2_PLACEMENT_3D('',#717,#598,#599);
#482=AXIS2_PLACEMENT_3D('',#723,#603,#604);
#483=AXIS2_PLACEMENT_3D('',#724,#605,#606);
#484=AXIS2_PLACEMENT_3D('',#725,#607,#608);
#485=AXIS2_PLACEMENT_3D('',#726,#609,#610);
#486=AXIS2_PLACEMENT_3D('',#727,#611,#612);
#487=DIRECTION('',(0.,0.,1.));
#488=DIRECTION('',(1.,0.,0.));
#489=DIRECTION('',(0.,1.,0.));
#490=DIRECTION('',(1.,0.,0.));
#491=DIRECTION('',(1.,0.,0.));
#492=DIRECTION('',(0.,1.,0.));
#493=DIRECTION('',(1.,0.,0.));
#494=DIRECTION('',(0.,0.,1.));
#495=DIRECTION('',(0.,1.,0.));
#496=DIRECTION('',(1.,0.,0.));
#497=DIRECTION('',(1.,0.,0.));
#498=DIRECTION('',(0.,1.,0.));
#499=DIRECTION('',(1.,0.,0.));
#500=DIRECTION('',(0.,1.,0.));
#501=DIRECTION('',(1.,0.,0.));
#502=DIRECTION('',(0.,1.,0.));
#503=DIRECTION('',(1.,0.,0.));
#504=DIRECTION('',(0.,1.,0.));
#505=DIRECTION('',(1.,0.,0.));
#506=DIRECTION('',(0.,1.,0.));
#507=DIRECTION('',(1.,0.,0.));
#508=DIRECTION('',(0.,1.,0.));
#509=DIRECTION('',(1.,0.,0.));
#510=DIRECTION('',(0.,1.,0.));
#511=DIRECTION('',(1.,0.,0.));
#512=DIRECTION('',(0.,1.,0.));
#513=DIRECTION('',(1.,0.,0.));
#514=DIRECTION('',(0.,1.,0.));
#515=DIRECTION('',(1.,0.,0.));
#516=DIRECTION('',(1.,0.,0.));
#517=DIRECTION('',(0.,1.,0.));
#518=DIRECTION('',(1.,0.,0.));
#519=DIRECTION('',(1.,0.,0.));
#520=DIRECTION('',(0.,1.,0.));
#521=DIRECTION('',(1.,0.,0.));
#522=DIRECTION('',(0.,0.,-1.));
#523=DIRECTION('',(0.,1.,0.));
#524=DIRECTION('',(1.,0.,0.));
#525=DIRECTION('',(1.,0.,0.));
#526=DIRECTION('',(0.,-1.,0.));
#527=DIRECTION('',(0.,-1.,0.));
#528=DIRECTION('',(0.,0.,1.));
#529=DIRECTION('',(0.,-1.,0.));
#530=DIRECTION('',(0.,0.,-1.));
#531=DIRECTION('',(0.,1.,0.));
#532=DIRECTION('',(0.,-1.,0.));
#533=DIRECTION('',(1.,0.,0.));
#534=DIRECTION('',(0.,-1.,0.));
#535=DIRECTION('',(0.,-1.,0.));
#536=DIRECTION('',(-1.,0.,0.));
#537=DIRECTION('',(0.,-1.,0.));
#538=DIRECTION('',(0.,1.,0.));
#539=DIRECTION('',(1.,0.,0.));
#540=DIRECTION('',(0.,0.,-1.));
#541=DIRECTION('',(0.,1.,0.));
#542=DIRECTION('',(0.,-1.,0.));
#543=DIRECTION('',(1.,0.,0.));
#544=DIRECTION('',(0.,-1.,0.));
#545=DIRECTION('',(-1.,0.,0.));
#546=DIRECTION('',(0.,1.,0.));
#547=DIRECTION('',(1.,0.,0.));
#548=DIRECTION('',(0.,1.,0.));
#549=DIRECTION('',(1.,0.,0.));
#550=DIRECTION('',(0.,1.,0.));
#551=DIRECTION('',(1.,0.,0.));
#552=DIRECTION('',(0.,-1.,0.));
#553=DIRECTION('',(-1.,0.,0.));
#554=DIRECTION('',(0.,-1.,0.));
#555=DIRECTION('',(-1.,0.,0.));
#556=DIRECTION('',(0.,-1.,0.));
#557=DIRECTION('',(-1.,0.,0.));
#558=DIRECTION('',(0.,-1.,0.));
#559=DIRECTION('',(-1.,0.,0.));
#560=DIRECTION('',(0.,-1.,0.));
#561=DIRECTION('',(-1.,0.,0.));
#562=DIRECTION('',(0.,-1.,0.));
#563=DIRECTION('',(-1.,0.,0.));
#564=DIRECTION('',(0.,-1.,0.));
#565=DIRECTION('',(-1.,0.,0.));
#566=DIRECTION('',(0.,-1.,0.));
#567=DIRECTION('',(-1.,0.,0.));
#568=DIRECTION('',(0.,-1.,0.));
#569=DIRECTION('',(-1.,0.,0.));
#570=DIRECTION('',(0.,-1.,0.));
#571=DIRECTION('',(-1.,0.,0.));
#572=DIRECTION('',(0.,-1.,0.));
#573=DIRECTION('',(-1.,0.,0.));
#574=DIRECTION('',(0.,-1.,0.));
#575=DIRECTION('',(-1.,0.,0.));
#576=DIRECTION('',(0.,-1.,0.));
#577=DIRECTION('',(-1.,0.,0.));
#578=DIRECTION('',(0.,-1.,0.));
#579=DIRECTION('',(-1.,0.,0.));
#580=DIRECTION('',(0.,-1.,0.));
#581=DIRECTION('',(-1.,0.,0.));
#582=DIRECTION('',(0.,-1.,0.));
#583=DIRECTION('',(-1.,0.,0.));
#584=DIRECTION('',(0.,0.,1.));
#585=DIRECTION('',(0.,-1.,0.));
#586=DIRECTION('',(0.,1.,0.));
#587=DIRECTION('',(1.,0.,0.));
#588=DIRECTION('',(0.,1.,0.));
#589=DIRECTION('',(0.,1.,0.));
#590=DIRECTION('',(1.,0.,0.));
#591=DIRECTION('',(0.,1.,0.));
#592=DIRECTION('',(1.,0.,0.));
#593=DIRECTION('',(0.,1.,0.));
#594=DIRECTION('',(0.,0.,1.));
#595=DIRECTION('',(0.,-1.,0.));
#596=DIRECTION('',(1.,0.,0.));
#597=DIRECTION('',(0.,1.,0.));
#598=DIRECTION('',(1.,0.,0.));
#599=DIRECTION('',(0.,-1.,0.));
#600=DIRECTION('',(0.,1.,0.));
#601=DIRECTION('',(0.,0.,-1.));
#602=DIRECTION('',(0.,1.,0.));
#603=DIRECTION('',(0.,-1.,0.));
#604=DIRECTION('',(-1.,0.,0.));
#605=DIRECTION('',(0.,1.,0.));
#606=DIRECTION('',(1.,0.,0.));
#607=DIRECTION('',(0.,1.,0.));
#608=DIRECTION('',(1.,0.,0.));
#609=DIRECTION('',(0.,1.,0.));
#610=DIRECTION('',(1.,0.,0.));
#611=DIRECTION('',(0.,1.,0.));
#612=DIRECTION('',(1.,0.,0.));
#613=CARTESIAN_POINT('',(0.,0.,0.));
#614=CARTESIAN_POINT('',(0.025,0.,-1.38777878078145E-17));
#615=CARTESIAN_POINT('',(0.0725,0.,-0.095));
#616=CARTESIAN_POINT('',(5.81707229594993E-18,0.,-0.095));
#617=CARTESIAN_POINT('',(0.135,0.,-0.095));
#618=CARTESIAN_POINT('',(0.135,0.,-0.085));
#619=CARTESIAN_POINT('',(0.145,0.,-0.085));
#620=CARTESIAN_POINT('',(0.145,0.,-1.38777878078145E-17));
#621=CARTESIAN_POINT('',(0.145,0.,0.085));
#622=CARTESIAN_POINT('',(0.135,0.,0.085));
#623=CARTESIAN_POINT('',(0.135,0.,0.095));
#624=CARTESIAN_POINT('',(0.0725,0.,0.095));
#625=CARTESIAN_POINT('',(-1.74512168878498E-17,0.,0.095));
#626=CARTESIAN_POINT('',(-5.81707229594993E-18,0.,0.));
#627=CARTESIAN_POINT('',(0.135,0.,-0.085));
#628=CARTESIAN_POINT('',(0.1367,0.,-0.085));
#629=CARTESIAN_POINT('',(0.135,0.,0.));
#630=CARTESIAN_POINT('',(0.1367,0.,0.));
#631=CARTESIAN_POINT('',(0.,0.,-0.092));
#632=CARTESIAN_POINT('',(0.0017,0.,-0.092));
#633=CARTESIAN_POINT('',(-0.092,0.,0.));
#634=CARTESIAN_POINT('',(-0.0903,0.,0.));
#635=CARTESIAN_POINT('',(0.,0.,0.092));
#636=CARTESIAN_POINT('',(0.0017,0.,0.092));
#637=CARTESIAN_POINT('',(0.135,0.,0.085));
#638=CARTESIAN_POINT('',(0.1367,0.,0.085));
#639=CARTESIAN_POINT('',(0.1375,0.,0.06));
#640=CARTESIAN_POINT('',(0.1396,0.,0.06));
#641=CARTESIAN_POINT('',(0.1375,0.,-0.06));
#642=CARTESIAN_POINT('',(0.1396,0.,-0.06));
#643=CARTESIAN_POINT('',(0.025,0.,-0.088));
#644=CARTESIAN_POINT('',(0.,0.,-0.088));
#645=CARTESIAN_POINT('',(0.126,0.,-0.088));
#646=CARTESIAN_POINT('',(-1.12055182121983E-17,0.,0.));
#647=CARTESIAN_POINT('',(0.,0.,0.088));
#648=CARTESIAN_POINT('',(0.025,0.,0.088));
#649=CARTESIAN_POINT('',(0.126,0.,0.088));
#650=CARTESIAN_POINT('',(0.126,0.,0.083));
#651=CARTESIAN_POINT('',(0.131,0.,0.083));
#652=CARTESIAN_POINT('',(0.131,0.,-1.38777878078145E-17));
#653=CARTESIAN_POINT('',(0.131,0.,-0.083));
#654=CARTESIAN_POINT('',(0.126,0.,-0.083));
#655=CARTESIAN_POINT('',(0.145,0.005,-1.38777878078145E-17));
#656=CARTESIAN_POINT('',(0.145,0.005,-0.085));
#657=CARTESIAN_POINT('',(0.145,0.01,-0.085));
#658=CARTESIAN_POINT('',(0.145,0.01,-1.38777878078145E-17));
#659=CARTESIAN_POINT('',(0.145,0.01,0.085));
#660=CARTESIAN_POINT('',(0.145,0.,0.085));
#661=CARTESIAN_POINT('',(0.0725,0.005,-0.095));
#662=CARTESIAN_POINT('',(5.81707229594993E-18,0.005,-0.095));
#663=CARTESIAN_POINT('',(5.81707229594993E-18,0.01,-0.095));
#664=CARTESIAN_POINT('',(0.0725,0.01,-0.095));
#665=CARTESIAN_POINT('',(0.135,0.01,-0.095));
#666=CARTESIAN_POINT('',(0.135,0.005,-0.095));
#667=CARTESIAN_POINT('',(-5.81707229594993E-18,0.005,0.));
#668=CARTESIAN_POINT('',(-1.74512168878498E-17,0.005,0.095));
#669=CARTESIAN_POINT('',(-1.74512168878498E-17,0.01,0.095));
#670=CARTESIAN_POINT('',(-5.81707229594993E-18,0.01,0.));
#671=CARTESIAN_POINT('',(0.0725,0.005,0.095));
#672=CARTESIAN_POINT('',(0.135,0.005,0.095));
#673=CARTESIAN_POINT('',(0.135,0.01,0.095));
#674=CARTESIAN_POINT('',(0.0725,0.01,0.095));
#675=CARTESIAN_POINT('',(0.135,0.005,-0.085));
#676=CARTESIAN_POINT('',(0.135,0.01,-0.085));
#677=CARTESIAN_POINT('',(0.135,0.005,0.085));
#678=CARTESIAN_POINT('',(0.135,0.01,0.085));
#679=CARTESIAN_POINT('',(0.135,0.005,-0.085));
#680=CARTESIAN_POINT('',(0.135,0.01,-0.085));
#681=CARTESIAN_POINT('',(0.1333,0.01,-0.085));
#682=CARTESIAN_POINT('',(0.135,0.005,0.));
#683=CARTESIAN_POINT('',(0.135,0.01,0.));
#684=CARTESIAN_POINT('',(0.1333,0.01,0.));
#685=CARTESIAN_POINT('',(0.,0.005,-0.092));
#686=CARTESIAN_POINT('',(0.,0.01,-0.092));
#687=CARTESIAN_POINT('',(-0.0017,0.01,-0.092));
#688=CARTESIAN_POINT('',(-0.092,0.005,0.));
#689=CARTESIAN_POINT('',(-0.092,0.01,0.));
#690=CARTESIAN_POINT('',(-0.0937,0.01,0.));
#691=CARTESIAN_POINT('',(0.,0.005,0.092));
#692=CARTESIAN_POINT('',(0.,0.01,0.092));
#693=CARTESIAN_POINT('',(-0.0017,0.01,0.092));
#694=CARTESIAN_POINT('',(0.135,0.005,0.085));
#695=CARTESIAN_POINT('',(0.135,0.01,0.085));
#696=CARTESIAN_POINT('',(0.1333,0.01,0.085));
#697=CARTESIAN_POINT('',(0.1375,0.005,0.06));
#698=CARTESIAN_POINT('',(0.1375,0.01,0.06));
#699=CARTESIAN_POINT('',(0.1354,0.01,0.06));
#700=CARTESIAN_POINT('',(0.1375,0.005,-0.06));
#701=CARTESIAN_POINT('',(0.1375,0.01,-0.06));
#702=CARTESIAN_POINT('',(0.1354,0.01,-0.06));
#703=CARTESIAN_POINT('',(0.0655,-0.301532429848127,-0.088));
#704=CARTESIAN_POINT('',(0.126,-0.301532429848127,-0.088));
#705=CARTESIAN_POINT('',(0.126,0.01,-0.088));
#706=CARTESIAN_POINT('',(0.025,0.01,-0.088));
#707=CARTESIAN_POINT('',(0.,0.01,-0.088));
#708=CARTESIAN_POINT('',(0.,-0.301532429848127,-0.088));
#709=CARTESIAN_POINT('',(-1.12055182121983E-17,-0.301532429848127,0.));
#710=CARTESIAN_POINT('',(-1.12055182121983E-17,0.01,0.));
#711=CARTESIAN_POINT('',(0.,0.01,0.088));
#712=CARTESIAN_POINT('',(0.,-0.301532429848127,0.088));
#713=CARTESIAN_POINT('',(0.0655,-0.301532429848127,0.088));
#714=CARTESIAN_POINT('',(0.025,0.01,0.088));
#715=CARTESIAN_POINT('',(0.126,0.01,0.088));
#716=CARTESIAN_POINT('',(0.126,0.,0.088));
#717=CARTESIAN_POINT('',(0.131,-0.301532429848127,0.));
#718=CARTESIAN_POINT('',(0.131,0.005,0.083));
#719=CARTESIAN_POINT('',(0.131,0.01,0.083));
#720=CARTESIAN_POINT('',(0.131,0.01,-1.38777878078145E-17));
#721=CARTESIAN_POINT('',(0.131,0.01,-0.083));
#722=CARTESIAN_POINT('',(0.131,-0.301532429848127,-0.083));
#723=CARTESIAN_POINT('',(0.126,-0.301532429848127,0.083));
#724=CARTESIAN_POINT('',(0.126,0.01,0.083));
#725=CARTESIAN_POINT('',(0.126,-0.301532429848127,-0.083));
#726=CARTESIAN_POINT('',(0.126,0.01,-0.083));
#727=CARTESIAN_POINT('',(0.025,0.01,-1.38777878078145E-17));
#728=MECHANICAL_DESIGN_GEOMETRIC_PRESENTATION_REPRESENTATION('',(#425),
#729);
#729=(
GEOMETRIC_REPRESENTATION_CONTEXT(3)
GLOBAL_UNCERTAINTY_ASSIGNED_CONTEXT((#730))
GLOBAL_UNIT_ASSIGNED_CONTEXT((#733,#732,#731))
REPRESENTATION_CONTEXT('ARCADP003','TOP_LEVEL_ASSEMBLY_PART')
);
#730=UNCERTAINTY_MEASURE_WITH_UNIT(LENGTH_MEASURE(1.E-8),#733,
'DISTANCE_ACCURACY_VALUE','Maximum Tolerance applied to model');
#731=(
NAMED_UNIT(*)
SI_UNIT($,.STERADIAN.)
SOLID_ANGLE_UNIT()
);
#732=(
NAMED_UNIT(*)
PLANE_ANGLE_UNIT()
SI_UNIT($,.RADIAN.)
);
#733=(
LENGTH_UNIT()
NAMED_UNIT(*)
SI_UNIT($,.METRE.)
);
#734=PRODUCT_DEFINITION_SHAPE('','',#735);
#735=PRODUCT_DEFINITION('','',#737,#736);
#736=PRODUCT_DEFINITION_CONTEXT('',#743,'design');
#737=PRODUCT_DEFINITION_FORMATION_WITH_SPECIFIED_SOURCE('','',#739,
 .NOT_KNOWN.);
#738=PRODUCT_RELATED_PRODUCT_CATEGORY('','',(#739));
#739=PRODUCT('ARCADP003','ARCADP003','ARCADP003',(#741));
#740=PRODUCT_CATEGORY('','');
#741=PRODUCT_CONTEXT('',#743,'mechanical');
#742=APPLICATION_PROTOCOL_DEFINITION('international standard',
'ap242_managed_model_based_3d_engineering',2020,#743);
#743=APPLICATION_CONTEXT('managed model based 3d engineering');
ENDSEC;
END-ISO-10303-21;
