ISO-10303-21;
HEADER;
/* Generated by software containing ST-Developer
 * from STEP Tools, Inc. (www.steptools.com) 
 */
/* OPTION: using custom renumber hook */

FILE_DESCRIPTION(
/* description */ ('STEP AP242 Edition 2',
'CAx-IF Rec.Pracs.---Representation and Presentation of Product Manufa
cturing Information (PMI)---4.0---2014-10-13',
'CAx-IF Rec.Pracs.---3D Tessellated Geometry---0.4---2014-09-14','2;1',
'CAx-IF Rec.Pracs.---User Defined Attributes---1.5---2016-08-15'),
/* implementation_level */ '2;1');

FILE_NAME(
/* name */ 'ARCADA001 - Part 1 (16)',
/* time_stamp */ '2026-07-17T02:50:55Z',
/* author */ (''),
/* organization */ (''),
/* preprocessor_version */ 'ST-DEVELOPER v20',
/* originating_system */ 'ONSHAPE BY PTC INC, 1.217',
/* authorisation */ '  ');

FILE_SCHEMA (('AP242_MANAGED_MODEL_BASED_3D_ENGINEERING_MIM_LF { 1 0 10303 442 3 1 4 }'));
ENDSEC;

DATA;
#10=SHAPE_REPRESENTATION_RELATIONSHIP('','',#607,#11);
#11=ADVANCED_BREP_SHAPE_REPRESENTATION('',(#605),#1077);
#12=PLANE('',#627);
#13=PLANE('',#630);
#14=PLANE('',#631);
#15=PLANE('',#632);
#16=PLANE('',#633);
#17=PLANE('',#636);
#18=PLANE('',#637);
#19=PLANE('',#642);
#20=PLANE('',#643);
#21=PLANE('',#644);
#22=PLANE('',#645);
#23=PLANE('',#646);
#24=PLANE('',#647);
#25=PLANE('',#650);
#26=PLANE('',#661);
#27=PLANE('',#664);
#28=PLANE('',#667);
#29=PLANE('',#670);
#30=B_SPLINE_CURVE_WITH_KNOTS('',3,(#870,#871,#872,#873,#874,#875,#876,
#877,#878,#879,#880,#881,#882,#883,#884,#885,#886),.UNSPECIFIED.,.T.,.F.,
(1,1,1,1,1,1,1,1,1,1,1,1,1,1,1,1,1,1,1,1,1),(-0.00484557000284105,-0.00363417750213079,
-0.00242278500142053,0.,0.00242278500142053,0.00363417750213079,0.00484557000284105,
0.00605696250355132,0.00726835500426158,0.00847974750497184,0.00969114000568211,
0.0109025325063924,0.0121139250071026,0.0133253175078129,0.0145367100085232,
0.0157481025092334,0.0169594950099437,0.0193822800113642,0.0218050650127847,
0.023016457513495,0.0242278500142053),.UNSPECIFIED.);
#31=B_SPLINE_CURVE_WITH_KNOTS('',3,(#896,#897,#898,#899,#900,#901,#902,
#903,#904,#905,#906,#907,#908,#909,#910,#911,#912),.UNSPECIFIED.,.T.,.F.,
(1,1,1,1,1,1,1,1,1,1,1,1,1,1,1,1,1,1,1,1,1),(-0.00484557000284106,-0.00363417750213079,
-0.00242278500142053,0.,0.00242278500142053,0.00363417750213079,0.00484557000284106,
0.00605696250355132,0.00726835500426159,0.00847974750497185,0.00969114000568212,
0.0109025325063924,0.0121139250071026,0.0133253175078129,0.0145367100085232,
0.0157481025092334,0.0169594950099437,0.0193822800113642,0.0218050650127848,
0.023016457513495,0.0242278500142053),.UNSPECIFIED.);
#32=B_SPLINE_CURVE_WITH_KNOTS('',3,(#917,#918,#919,#920,#921,#922,#923,
#924,#925,#926,#927,#928,#929,#930,#931,#932,#933),.UNSPECIFIED.,.T.,.F.,
(1,1,1,1,1,1,1,1,1,1,1,1,1,1,1,1,1,1,1,1,1),(-0.0048455700028411,-0.00363417750213083,
-0.00242278500142055,0.,0.00242278500142055,0.00363417750213083,0.0048455700028411,
0.00605696250355138,0.00726835500426166,0.00847974750497193,0.00969114000568221,
0.0109025325063925,0.0121139250071028,0.013325317507813,0.0145367100085233,
0.0157481025092336,0.0169594950099439,0.0193822800113644,0.021805065012785,
0.0230164575134952,0.0242278500142055),.UNSPECIFIED.);
#33=B_SPLINE_CURVE_WITH_KNOTS('',3,(#943,#944,#945,#946,#947,#948,#949,
#950,#951,#952,#953,#954,#955,#956,#957,#958,#959),.UNSPECIFIED.,.T.,.F.,
(1,1,1,1,1,1,1,1,1,1,1,1,1,1,1,1,1,1,1,1,1),(-0.00484557000284111,-0.00363417750213083,
-0.00242278500142055,0.,0.00242278500142055,0.00363417750213083,0.00484557000284111,
0.00605696250355139,0.00726835500426166,0.00847974750497194,0.00969114000568222,
0.0109025325063925,0.0121139250071028,0.0133253175078131,0.0145367100085233,
0.0157481025092336,0.0169594950099439,0.0193822800113644,0.021805065012785,
0.0230164575134953,0.0242278500142055),.UNSPECIFIED.);
#34=LINE('',#867,#82);
#35=LINE('',#887,#83);
#36=LINE('',#891,#84);
#37=LINE('',#895,#85);
#38=LINE('',#914,#86);
#39=LINE('',#934,#87);
#40=LINE('',#938,#88);
#41=LINE('',#942,#89);
#42=LINE('',#961,#90);
#43=LINE('',#963,#91);
#44=LINE('',#967,#92);
#45=LINE('',#971,#93);
#46=LINE('',#973,#94);
#47=LINE('',#975,#95);
#48=LINE('',#977,#96);
#49=LINE('',#980,#97);
#50=LINE('',#982,#98);
#51=LINE('',#984,#99);
#52=LINE('',#986,#100);
#53=LINE('',#988,#101);
#54=LINE('',#990,#102);
#55=LINE('',#992,#103);
#56=LINE('',#994,#104);
#57=LINE('',#998,#105);
#58=LINE('',#1002,#106);
#59=LINE('',#1005,#107);
#60=LINE('',#1006,#108);
#61=LINE('',#1008,#109);
#62=LINE('',#1013,#110);
#63=LINE('',#1017,#111);
#64=LINE('',#1022,#112);
#65=LINE('',#1025,#113);
#66=LINE('',#1027,#114);
#67=LINE('',#1029,#115);
#68=LINE('',#1031,#116);
#69=LINE('',#1033,#117);
#70=LINE('',#1035,#118);
#71=LINE('',#1037,#119);
#72=LINE('',#1039,#120);
#73=LINE('',#1041,#121);
#74=LINE('',#1043,#122);
#75=LINE('',#1044,#123);
#76=LINE('',#1046,#124);
#77=LINE('',#1047,#125);
#78=LINE('',#1050,#126);
#79=LINE('',#1051,#127);
#80=LINE('',#1056,#128);
#81=LINE('',#1057,#129);
#82=VECTOR('',#699,1.);
#83=VECTOR('',#700,1.);
#84=VECTOR('',#703,1.);
#85=VECTOR('',#706,1.);
#86=VECTOR('',#709,1.);
#87=VECTOR('',#710,1.);
#88=VECTOR('',#713,1.);
#89=VECTOR('',#716,1.);
#90=VECTOR('',#719,1.);
#91=VECTOR('',#720,1.);
#92=VECTOR('',#723,1.);
#93=VECTOR('',#728,1.);
#94=VECTOR('',#729,1.);
#95=VECTOR('',#730,1.);
#96=VECTOR('',#733,1.);
#97=VECTOR('',#734,1.);
#98=VECTOR('',#735,1.);
#99=VECTOR('',#736,1.);
#100=VECTOR('',#739,1.);
#101=VECTOR('',#740,1.);
#102=VECTOR('',#741,1.);
#103=VECTOR('',#744,1.);
#104=VECTOR('',#745,1.);
#105=VECTOR('',#748,1.);
#106=VECTOR('',#753,1.);
#107=VECTOR('',#754,1.);
#108=VECTOR('',#755,1.);
#109=VECTOR('',#758,1.);
#110=VECTOR('',#761,1.);
#111=VECTOR('',#764,1.);
#112=VECTOR('',#771,1.);
#113=VECTOR('',#772,1.);
#114=VECTOR('',#773,1.);
#115=VECTOR('',#774,1.);
#116=VECTOR('',#777,1.);
#117=VECTOR('',#778,1.);
#118=VECTOR('',#779,1.);
#119=VECTOR('',#782,1.);
#120=VECTOR('',#783,1.);
#121=VECTOR('',#784,1.);
#122=VECTOR('',#787,1.);
#123=VECTOR('',#788,1.);
#124=VECTOR('',#791,1.);
#125=VECTOR('',#792,1.);
#126=VECTOR('',#797,1.);
#127=VECTOR('',#798,1.);
#128=VECTOR('',#807,1.);
#129=VECTOR('',#808,1.);
#130=ORIENTED_EDGE('',*,*,#290,.F.);
#131=ORIENTED_EDGE('',*,*,#291,.T.);
#132=ORIENTED_EDGE('',*,*,#292,.F.);
#133=ORIENTED_EDGE('',*,*,#293,.T.);
#134=ORIENTED_EDGE('',*,*,#294,.F.);
#135=ORIENTED_EDGE('',*,*,#295,.T.);
#136=ORIENTED_EDGE('',*,*,#296,.F.);
#137=ORIENTED_EDGE('',*,*,#297,.T.);
#138=ORIENTED_EDGE('',*,*,#298,.F.);
#139=ORIENTED_EDGE('',*,*,#299,.F.);
#140=ORIENTED_EDGE('',*,*,#300,.F.);
#141=ORIENTED_EDGE('',*,*,#301,.F.);
#142=ORIENTED_EDGE('',*,*,#302,.F.);
#143=ORIENTED_EDGE('',*,*,#303,.F.);
#144=ORIENTED_EDGE('',*,*,#304,.F.);
#145=ORIENTED_EDGE('',*,*,#305,.F.);
#146=ORIENTED_EDGE('',*,*,#306,.F.);
#147=ORIENTED_EDGE('',*,*,#307,.F.);
#148=ORIENTED_EDGE('',*,*,#308,.F.);
#149=ORIENTED_EDGE('',*,*,#309,.F.);
#150=ORIENTED_EDGE('',*,*,#310,.F.);
#151=ORIENTED_EDGE('',*,*,#311,.F.);
#152=ORIENTED_EDGE('',*,*,#312,.F.);
#153=ORIENTED_EDGE('',*,*,#313,.F.);
#154=ORIENTED_EDGE('',*,*,#314,.T.);
#155=ORIENTED_EDGE('',*,*,#300,.T.);
#156=ORIENTED_EDGE('',*,*,#298,.T.);
#157=ORIENTED_EDGE('',*,*,#304,.T.);
#158=ORIENTED_EDGE('',*,*,#315,.F.);
#159=ORIENTED_EDGE('',*,*,#316,.T.);
#160=ORIENTED_EDGE('',*,*,#317,.T.);
#161=ORIENTED_EDGE('',*,*,#318,.T.);
#162=ORIENTED_EDGE('',*,*,#319,.F.);
#163=ORIENTED_EDGE('',*,*,#302,.T.);
#164=ORIENTED_EDGE('',*,*,#320,.T.);
#165=ORIENTED_EDGE('',*,*,#321,.T.);
#166=ORIENTED_EDGE('',*,*,#322,.F.);
#167=ORIENTED_EDGE('',*,*,#323,.T.);
#168=ORIENTED_EDGE('',*,*,#324,.T.);
#169=ORIENTED_EDGE('',*,*,#325,.T.);
#170=ORIENTED_EDGE('',*,*,#326,.F.);
#171=ORIENTED_EDGE('',*,*,#310,.T.);
#172=ORIENTED_EDGE('',*,*,#327,.T.);
#173=ORIENTED_EDGE('',*,*,#328,.T.);
#174=ORIENTED_EDGE('',*,*,#329,.F.);
#175=ORIENTED_EDGE('',*,*,#308,.T.);
#176=ORIENTED_EDGE('',*,*,#306,.T.);
#177=ORIENTED_EDGE('',*,*,#312,.T.);
#178=ORIENTED_EDGE('',*,*,#330,.T.);
#179=ORIENTED_EDGE('',*,*,#331,.T.);
#180=ORIENTED_EDGE('',*,*,#332,.F.);
#181=ORIENTED_EDGE('',*,*,#333,.T.);
#182=ORIENTED_EDGE('',*,*,#334,.F.);
#183=ORIENTED_EDGE('',*,*,#335,.T.);
#184=ORIENTED_EDGE('',*,*,#332,.T.);
#185=ORIENTED_EDGE('',*,*,#336,.T.);
#186=ORIENTED_EDGE('',*,*,#296,.T.);
#187=ORIENTED_EDGE('',*,*,#294,.T.);
#188=ORIENTED_EDGE('',*,*,#292,.T.);
#189=ORIENTED_EDGE('',*,*,#290,.T.);
#190=ORIENTED_EDGE('',*,*,#337,.F.);
#191=ORIENTED_EDGE('',*,*,#338,.T.);
#192=ORIENTED_EDGE('',*,*,#339,.F.);
#193=ORIENTED_EDGE('',*,*,#340,.T.);
#194=ORIENTED_EDGE('',*,*,#341,.T.);
#195=ORIENTED_EDGE('',*,*,#342,.T.);
#196=ORIENTED_EDGE('',*,*,#334,.T.);
#197=ORIENTED_EDGE('',*,*,#343,.T.);
#198=ORIENTED_EDGE('',*,*,#344,.F.);
#199=ORIENTED_EDGE('',*,*,#345,.F.);
#200=ORIENTED_EDGE('',*,*,#346,.T.);
#201=ORIENTED_EDGE('',*,*,#347,.T.);
#202=ORIENTED_EDGE('',*,*,#348,.F.);
#203=ORIENTED_EDGE('',*,*,#349,.F.);
#204=ORIENTED_EDGE('',*,*,#350,.T.);
#205=ORIENTED_EDGE('',*,*,#345,.T.);
#206=ORIENTED_EDGE('',*,*,#351,.T.);
#207=ORIENTED_EDGE('',*,*,#352,.F.);
#208=ORIENTED_EDGE('',*,*,#353,.F.);
#209=ORIENTED_EDGE('',*,*,#349,.T.);
#210=ORIENTED_EDGE('',*,*,#354,.T.);
#211=ORIENTED_EDGE('',*,*,#347,.F.);
#212=ORIENTED_EDGE('',*,*,#355,.F.);
#213=ORIENTED_EDGE('',*,*,#352,.T.);
#214=ORIENTED_EDGE('',*,*,#339,.T.);
#215=ORIENTED_EDGE('',*,*,#356,.T.);
#216=ORIENTED_EDGE('',*,*,#317,.F.);
#217=ORIENTED_EDGE('',*,*,#357,.T.);
#218=ORIENTED_EDGE('',*,*,#346,.F.);
#219=ORIENTED_EDGE('',*,*,#350,.F.);
#220=ORIENTED_EDGE('',*,*,#353,.T.);
#221=ORIENTED_EDGE('',*,*,#355,.T.);
#222=ORIENTED_EDGE('',*,*,#324,.F.);
#223=ORIENTED_EDGE('',*,*,#358,.T.);
#224=ORIENTED_EDGE('',*,*,#327,.F.);
#225=ORIENTED_EDGE('',*,*,#309,.T.);
#226=ORIENTED_EDGE('',*,*,#329,.T.);
#227=ORIENTED_EDGE('',*,*,#359,.T.);
#228=ORIENTED_EDGE('',*,*,#341,.F.);
#229=ORIENTED_EDGE('',*,*,#360,.T.);
#230=ORIENTED_EDGE('',*,*,#315,.T.);
#231=ORIENTED_EDGE('',*,*,#303,.T.);
#232=ORIENTED_EDGE('',*,*,#319,.T.);
#233=ORIENTED_EDGE('',*,*,#361,.T.);
#234=ORIENTED_EDGE('',*,*,#344,.T.);
#235=ORIENTED_EDGE('',*,*,#354,.F.);
#236=ORIENTED_EDGE('',*,*,#351,.F.);
#237=ORIENTED_EDGE('',*,*,#348,.T.);
#238=ORIENTED_EDGE('',*,*,#330,.F.);
#239=ORIENTED_EDGE('',*,*,#311,.T.);
#240=ORIENTED_EDGE('',*,*,#326,.T.);
#241=ORIENTED_EDGE('',*,*,#362,.T.);
#242=ORIENTED_EDGE('',*,*,#322,.T.);
#243=ORIENTED_EDGE('',*,*,#363,.T.);
#244=ORIENTED_EDGE('',*,*,#320,.F.);
#245=ORIENTED_EDGE('',*,*,#301,.T.);
#246=ORIENTED_EDGE('',*,*,#314,.F.);
#247=ORIENTED_EDGE('',*,*,#364,.T.);
#248=ORIENTED_EDGE('',*,*,#337,.T.);
#249=ORIENTED_EDGE('',*,*,#365,.T.);
#250=ORIENTED_EDGE('',*,*,#358,.F.);
#251=ORIENTED_EDGE('',*,*,#323,.F.);
#252=ORIENTED_EDGE('',*,*,#362,.F.);
#253=ORIENTED_EDGE('',*,*,#328,.F.);
#254=ORIENTED_EDGE('',*,*,#361,.F.);
#255=ORIENTED_EDGE('',*,*,#321,.F.);
#256=ORIENTED_EDGE('',*,*,#363,.F.);
#257=ORIENTED_EDGE('',*,*,#325,.F.);
#258=ORIENTED_EDGE('',*,*,#318,.F.);
#259=ORIENTED_EDGE('',*,*,#356,.F.);
#260=ORIENTED_EDGE('',*,*,#338,.F.);
#261=ORIENTED_EDGE('',*,*,#364,.F.);
#262=ORIENTED_EDGE('',*,*,#316,.F.);
#263=ORIENTED_EDGE('',*,*,#360,.F.);
#264=ORIENTED_EDGE('',*,*,#340,.F.);
#265=ORIENTED_EDGE('',*,*,#357,.F.);
#266=ORIENTED_EDGE('',*,*,#333,.F.);
#267=ORIENTED_EDGE('',*,*,#335,.F.);
#268=ORIENTED_EDGE('',*,*,#342,.F.);
#269=ORIENTED_EDGE('',*,*,#359,.F.);
#270=ORIENTED_EDGE('',*,*,#331,.F.);
#271=ORIENTED_EDGE('',*,*,#365,.F.);
#272=ORIENTED_EDGE('',*,*,#343,.F.);
#273=ORIENTED_EDGE('',*,*,#336,.F.);
#274=ORIENTED_EDGE('',*,*,#366,.F.);
#275=ORIENTED_EDGE('',*,*,#313,.T.);
#276=ORIENTED_EDGE('',*,*,#291,.F.);
#277=ORIENTED_EDGE('',*,*,#366,.T.);
#278=ORIENTED_EDGE('',*,*,#367,.F.);
#279=ORIENTED_EDGE('',*,*,#307,.T.);
#280=ORIENTED_EDGE('',*,*,#293,.F.);
#281=ORIENTED_EDGE('',*,*,#367,.T.);
#282=ORIENTED_EDGE('',*,*,#368,.F.);
#283=ORIENTED_EDGE('',*,*,#305,.T.);
#284=ORIENTED_EDGE('',*,*,#295,.F.);
#285=ORIENTED_EDGE('',*,*,#368,.T.);
#286=ORIENTED_EDGE('',*,*,#369,.F.);
#287=ORIENTED_EDGE('',*,*,#299,.T.);
#288=ORIENTED_EDGE('',*,*,#297,.F.);
#289=ORIENTED_EDGE('',*,*,#369,.T.);
#290=EDGE_CURVE('',#370,#370,#422,.F.);
#291=EDGE_CURVE('',#371,#371,#423,.T.);
#292=EDGE_CURVE('',#372,#372,#424,.F.);
#293=EDGE_CURVE('',#373,#373,#425,.T.);
#294=EDGE_CURVE('',#374,#374,#426,.F.);
#295=EDGE_CURVE('',#375,#375,#427,.T.);
#296=EDGE_CURVE('',#376,#376,#428,.F.);
#297=EDGE_CURVE('',#377,#377,#429,.T.);
#298=EDGE_CURVE('',#378,#379,#34,.F.);
#299=EDGE_CURVE('',#378,#378,#30,.T.);
#300=EDGE_CURVE('',#380,#378,#35,.F.);
#301=EDGE_CURVE('',#381,#380,#430,.T.);
#302=EDGE_CURVE('',#382,#381,#36,.T.);
#303=EDGE_CURVE('',#383,#382,#431,.F.);
#304=EDGE_CURVE('',#379,#383,#37,.F.);
#305=EDGE_CURVE('',#379,#379,#31,.T.);
#306=EDGE_CURVE('',#384,#385,#38,.T.);
#307=EDGE_CURVE('',#384,#384,#32,.T.);
#308=EDGE_CURVE('',#386,#384,#39,.T.);
#309=EDGE_CURVE('',#387,#386,#432,.F.);
#310=EDGE_CURVE('',#388,#387,#40,.F.);
#311=EDGE_CURVE('',#389,#388,#433,.T.);
#312=EDGE_CURVE('',#385,#389,#41,.T.);
#313=EDGE_CURVE('',#385,#385,#33,.T.);
#314=EDGE_CURVE('',#390,#380,#42,.T.);
#315=EDGE_CURVE('',#391,#383,#43,.T.);
#316=EDGE_CURVE('',#391,#392,#434,.F.);
#317=EDGE_CURVE('',#392,#393,#44,.T.);
#318=EDGE_CURVE('',#393,#390,#435,.F.);
#319=EDGE_CURVE('',#382,#394,#45,.T.);
#320=EDGE_CURVE('',#381,#395,#46,.T.);
#321=EDGE_CURVE('',#395,#394,#47,.F.);
#322=EDGE_CURVE('',#396,#397,#48,.T.);
#323=EDGE_CURVE('',#396,#398,#49,.F.);
#324=EDGE_CURVE('',#398,#399,#50,.T.);
#325=EDGE_CURVE('',#399,#397,#51,.T.);
#326=EDGE_CURVE('',#388,#400,#52,.T.);
#327=EDGE_CURVE('',#387,#401,#53,.T.);
#328=EDGE_CURVE('',#401,#400,#54,.T.);
#329=EDGE_CURVE('',#386,#402,#55,.T.);
#330=EDGE_CURVE('',#389,#403,#56,.T.);
#331=EDGE_CURVE('',#403,#404,#436,.F.);
#332=EDGE_CURVE('',#405,#404,#57,.T.);
#333=EDGE_CURVE('',#405,#402,#437,.F.);
#334=EDGE_CURVE('',#406,#407,#58,.T.);
#335=EDGE_CURVE('',#406,#405,#59,.F.);
#336=EDGE_CURVE('',#404,#407,#60,.T.);
#337=EDGE_CURVE('',#408,#409,#61,.T.);
#338=EDGE_CURVE('',#408,#410,#438,.T.);
#339=EDGE_CURVE('',#411,#410,#62,.T.);
#340=EDGE_CURVE('',#411,#412,#439,.T.);
#341=EDGE_CURVE('',#412,#413,#63,.T.);
#342=EDGE_CURVE('',#413,#406,#440,.T.);
#343=EDGE_CURVE('',#407,#409,#441,.T.);
#344=EDGE_CURVE('',#414,#415,#64,.T.);
#345=EDGE_CURVE('',#416,#414,#65,.T.);
#346=EDGE_CURVE('',#416,#417,#66,.T.);
#347=EDGE_CURVE('',#417,#415,#67,.T.);
#348=EDGE_CURVE('',#418,#414,#68,.T.);
#349=EDGE_CURVE('',#419,#418,#69,.T.);
#350=EDGE_CURVE('',#419,#416,#70,.T.);
#351=EDGE_CURVE('',#418,#420,#71,.T.);
#352=EDGE_CURVE('',#421,#420,#72,.T.);
#353=EDGE_CURVE('',#419,#421,#73,.T.);
#354=EDGE_CURVE('',#420,#415,#74,.T.);
#355=EDGE_CURVE('',#421,#417,#75,.T.);
#356=EDGE_CURVE('',#410,#393,#76,.F.);
#357=EDGE_CURVE('',#392,#411,#77,.T.);
#358=EDGE_CURVE('',#398,#401,#442,.T.);
#359=EDGE_CURVE('',#402,#413,#78,.T.);
#360=EDGE_CURVE('',#412,#391,#79,.F.);
#361=EDGE_CURVE('',#394,#399,#443,.T.);
#362=EDGE_CURVE('',#400,#396,#444,.F.);
#363=EDGE_CURVE('',#397,#395,#445,.F.);
#364=EDGE_CURVE('',#390,#408,#80,.T.);
#365=EDGE_CURVE('',#409,#403,#81,.F.);
#366=EDGE_CURVE('',#385,#385,#446,.T.);
#367=EDGE_CURVE('',#384,#384,#447,.T.);
#368=EDGE_CURVE('',#379,#379,#448,.T.);
#369=EDGE_CURVE('',#378,#378,#449,.T.);
#370=VERTEX_POINT('',#848);
#371=VERTEX_POINT('',#850);
#372=VERTEX_POINT('',#853);
#373=VERTEX_POINT('',#855);
#374=VERTEX_POINT('',#858);
#375=VERTEX_POINT('',#860);
#376=VERTEX_POINT('',#863);
#377=VERTEX_POINT('',#865);
#378=VERTEX_POINT('',#868);
#379=VERTEX_POINT('',#869);
#380=VERTEX_POINT('',#888);
#381=VERTEX_POINT('',#890);
#382=VERTEX_POINT('',#892);
#383=VERTEX_POINT('',#894);
#384=VERTEX_POINT('',#915);
#385=VERTEX_POINT('',#916);
#386=VERTEX_POINT('',#935);
#387=VERTEX_POINT('',#937);
#388=VERTEX_POINT('',#939);
#389=VERTEX_POINT('',#941);
#390=VERTEX_POINT('',#962);
#391=VERTEX_POINT('',#964);
#392=VERTEX_POINT('',#966);
#393=VERTEX_POINT('',#968);
#394=VERTEX_POINT('',#972);
#395=VERTEX_POINT('',#974);
#396=VERTEX_POINT('',#978);
#397=VERTEX_POINT('',#979);
#398=VERTEX_POINT('',#981);
#399=VERTEX_POINT('',#983);
#400=VERTEX_POINT('',#987);
#401=VERTEX_POINT('',#989);
#402=VERTEX_POINT('',#993);
#403=VERTEX_POINT('',#995);
#404=VERTEX_POINT('',#997);
#405=VERTEX_POINT('',#999);
#406=VERTEX_POINT('',#1003);
#407=VERTEX_POINT('',#1004);
#408=VERTEX_POINT('',#1009);
#409=VERTEX_POINT('',#1010);
#410=VERTEX_POINT('',#1012);
#411=VERTEX_POINT('',#1014);
#412=VERTEX_POINT('',#1016);
#413=VERTEX_POINT('',#1018);
#414=VERTEX_POINT('',#1023);
#415=VERTEX_POINT('',#1024);
#416=VERTEX_POINT('',#1026);
#417=VERTEX_POINT('',#1028);
#418=VERTEX_POINT('',#1032);
#419=VERTEX_POINT('',#1034);
#420=VERTEX_POINT('',#1038);
#421=VERTEX_POINT('',#1040);
#422=CIRCLE('',#610,0.0017);
#423=CIRCLE('',#611,0.0017);
#424=CIRCLE('',#613,0.0017);
#425=CIRCLE('',#614,0.0017);
#426=CIRCLE('',#616,0.0017);
#427=CIRCLE('',#617,0.0017);
#428=CIRCLE('',#619,0.0017);
#429=CIRCLE('',#620,0.0017);
#430=CIRCLE('',#622,0.01);
#431=CIRCLE('',#623,0.01);
#432=CIRCLE('',#625,0.01);
#433=CIRCLE('',#626,0.01);
#434=CIRCLE('',#628,0.0015);
#435=CIRCLE('',#629,0.0015);
#436=CIRCLE('',#634,0.0015);
#437=CIRCLE('',#635,0.0015);
#438=CIRCLE('',#638,0.0015);
#439=CIRCLE('',#639,0.0015);
#440=CIRCLE('',#640,0.0015);
#441=CIRCLE('',#641,0.0015);
#442=CIRCLE('',#648,0.0015);
#443=CIRCLE('',#649,0.0015);
#444=CIRCLE('',#651,0.0015);
#445=CIRCLE('',#652,0.0015);
#446=CIRCLE('',#660,0.003);
#447=CIRCLE('',#663,0.003);
#448=CIRCLE('',#666,0.003);
#449=CIRCLE('',#669,0.003);
#450=EDGE_LOOP('',(#130));
#451=EDGE_LOOP('',(#131));
#452=EDGE_LOOP('',(#132));
#453=EDGE_LOOP('',(#133));
#454=EDGE_LOOP('',(#134));
#455=EDGE_LOOP('',(#135));
#456=EDGE_LOOP('',(#136));
#457=EDGE_LOOP('',(#137));
#458=EDGE_LOOP('',(#138,#139,#140,#141,#142,#143,#144,#145));
#459=EDGE_LOOP('',(#146,#147,#148,#149,#150,#151,#152,#153));
#460=EDGE_LOOP('',(#154,#155,#156,#157,#158,#159,#160,#161));
#461=EDGE_LOOP('',(#162,#163,#164,#165));
#462=EDGE_LOOP('',(#166,#167,#168,#169));
#463=EDGE_LOOP('',(#170,#171,#172,#173));
#464=EDGE_LOOP('',(#174,#175,#176,#177,#178,#179,#180,#181));
#465=EDGE_LOOP('',(#182,#183,#184,#185));
#466=EDGE_LOOP('',(#186));
#467=EDGE_LOOP('',(#187));
#468=EDGE_LOOP('',(#188));
#469=EDGE_LOOP('',(#189));
#470=EDGE_LOOP('',(#190,#191,#192,#193,#194,#195,#196,#197));
#471=EDGE_LOOP('',(#198,#199,#200,#201));
#472=EDGE_LOOP('',(#202,#203,#204,#205));
#473=EDGE_LOOP('',(#206,#207,#208,#209));
#474=EDGE_LOOP('',(#210,#211,#212,#213));
#475=EDGE_LOOP('',(#214,#215,#216,#217));
#476=EDGE_LOOP('',(#218,#219,#220,#221));
#477=EDGE_LOOP('',(#222,#223,#224,#225,#226,#227,#228,#229,#230,#231,#232,
#233));
#478=EDGE_LOOP('',(#234,#235,#236,#237));
#479=EDGE_LOOP('',(#238,#239,#240,#241,#242,#243,#244,#245,#246,#247,#248,
#249));
#480=EDGE_LOOP('',(#250,#251,#252,#253));
#481=EDGE_LOOP('',(#254,#255,#256,#257));
#482=EDGE_LOOP('',(#258,#259,#260,#261));
#483=EDGE_LOOP('',(#262,#263,#264,#265));
#484=EDGE_LOOP('',(#266,#267,#268,#269));
#485=EDGE_LOOP('',(#270,#271,#272,#273));
#486=EDGE_LOOP('',(#274,#275));
#487=EDGE_LOOP('',(#276));
#488=EDGE_LOOP('',(#277));
#489=EDGE_LOOP('',(#278,#279));
#490=EDGE_LOOP('',(#280));
#491=EDGE_LOOP('',(#281));
#492=EDGE_LOOP('',(#282,#283));
#493=EDGE_LOOP('',(#284));
#494=EDGE_LOOP('',(#285));
#495=EDGE_LOOP('',(#286,#287));
#496=EDGE_LOOP('',(#288));
#497=EDGE_LOOP('',(#289));
#498=FACE_BOUND('',#450,.T.);
#499=FACE_BOUND('',#451,.T.);
#500=FACE_BOUND('',#452,.T.);
#501=FACE_BOUND('',#453,.T.);
#502=FACE_BOUND('',#454,.T.);
#503=FACE_BOUND('',#455,.T.);
#504=FACE_BOUND('',#456,.T.);
#505=FACE_BOUND('',#457,.T.);
#506=FACE_BOUND('',#458,.T.);
#507=FACE_BOUND('',#459,.T.);
#508=FACE_BOUND('',#460,.T.);
#509=FACE_BOUND('',#461,.T.);
#510=FACE_BOUND('',#462,.T.);
#511=FACE_BOUND('',#463,.T.);
#512=FACE_BOUND('',#464,.T.);
#513=FACE_BOUND('',#465,.T.);
#514=FACE_BOUND('',#466,.T.);
#515=FACE_BOUND('',#467,.T.);
#516=FACE_BOUND('',#468,.T.);
#517=FACE_BOUND('',#469,.T.);
#518=FACE_BOUND('',#470,.T.);
#519=FACE_BOUND('',#471,.T.);
#520=FACE_BOUND('',#472,.T.);
#521=FACE_BOUND('',#473,.T.);
#522=FACE_BOUND('',#474,.T.);
#523=FACE_BOUND('',#475,.T.);
#524=FACE_BOUND('',#476,.T.);
#525=FACE_BOUND('',#477,.T.);
#526=FACE_BOUND('',#478,.T.);
#527=FACE_BOUND('',#479,.T.);
#528=FACE_BOUND('',#480,.T.);
#529=FACE_BOUND('',#481,.T.);
#530=FACE_BOUND('',#482,.T.);
#531=FACE_BOUND('',#483,.T.);
#532=FACE_BOUND('',#484,.T.);
#533=FACE_BOUND('',#485,.T.);
#534=FACE_BOUND('',#486,.T.);
#535=FACE_BOUND('',#487,.T.);
#536=FACE_BOUND('',#488,.T.);
#537=FACE_BOUND('',#489,.T.);
#538=FACE_BOUND('',#490,.T.);
#539=FACE_BOUND('',#491,.T.);
#540=FACE_BOUND('',#492,.T.);
#541=FACE_BOUND('',#493,.T.);
#542=FACE_BOUND('',#494,.T.);
#543=FACE_BOUND('',#495,.T.);
#544=FACE_BOUND('',#496,.T.);
#545=FACE_BOUND('',#497,.T.);
#546=CYLINDRICAL_SURFACE('',#609,0.0017);
#547=CYLINDRICAL_SURFACE('',#612,0.0017);
#548=CYLINDRICAL_SURFACE('',#615,0.0017);
#549=CYLINDRICAL_SURFACE('',#618,0.0017);
#550=CYLINDRICAL_SURFACE('',#621,0.01);
#551=CYLINDRICAL_SURFACE('',#624,0.01);
#552=CYLINDRICAL_SURFACE('',#653,0.0015);
#553=CYLINDRICAL_SURFACE('',#654,0.0015);
#554=CYLINDRICAL_SURFACE('',#655,0.0015);
#555=CYLINDRICAL_SURFACE('',#656,0.0015);
#556=CYLINDRICAL_SURFACE('',#657,0.0015);
#557=CYLINDRICAL_SURFACE('',#658,0.0015);
#558=CYLINDRICAL_SURFACE('',#659,0.003);
#559=CYLINDRICAL_SURFACE('',#662,0.003);
#560=CYLINDRICAL_SURFACE('',#665,0.003);
#561=CYLINDRICAL_SURFACE('',#668,0.003);
#562=ADVANCED_FACE('',(#498,#499),#546,.F.);
#563=ADVANCED_FACE('',(#500,#501),#547,.F.);
#564=ADVANCED_FACE('',(#502,#503),#548,.F.);
#565=ADVANCED_FACE('',(#504,#505),#549,.F.);
#566=ADVANCED_FACE('',(#506),#550,.F.);
#567=ADVANCED_FACE('',(#507),#551,.F.);
#568=ADVANCED_FACE('',(#508),#12,.F.);
#569=ADVANCED_FACE('',(#509),#13,.F.);
#570=ADVANCED_FACE('',(#510),#14,.T.);
#571=ADVANCED_FACE('',(#511),#15,.T.);
#572=ADVANCED_FACE('',(#512),#16,.F.);
#573=ADVANCED_FACE('',(#513),#17,.F.);
#574=ADVANCED_FACE('',(#514,#515,#516,#517,#518),#18,.T.);
#575=ADVANCED_FACE('',(#519),#19,.T.);
#576=ADVANCED_FACE('',(#520),#20,.T.);
#577=ADVANCED_FACE('',(#521),#21,.F.);
#578=ADVANCED_FACE('',(#522),#22,.F.);
#579=ADVANCED_FACE('',(#523),#23,.T.);
#580=ADVANCED_FACE('',(#524,#525),#24,.T.);
#581=ADVANCED_FACE('',(#526,#527),#25,.F.);
#582=ADVANCED_FACE('',(#528),#552,.T.);
#583=ADVANCED_FACE('',(#529),#553,.T.);
#584=ADVANCED_FACE('',(#530),#554,.T.);
#585=ADVANCED_FACE('',(#531),#555,.T.);
#586=ADVANCED_FACE('',(#532),#556,.T.);
#587=ADVANCED_FACE('',(#533),#557,.T.);
#588=ADVANCED_FACE('',(#534),#558,.F.);
#589=ADVANCED_FACE('',(#535,#536),#26,.T.);
#590=ADVANCED_FACE('',(#537),#559,.F.);
#591=ADVANCED_FACE('',(#538,#539),#27,.T.);
#592=ADVANCED_FACE('',(#540),#560,.F.);
#593=ADVANCED_FACE('',(#541,#542),#28,.T.);
#594=ADVANCED_FACE('',(#543),#561,.F.);
#595=ADVANCED_FACE('',(#544,#545),#29,.T.);
#596=CLOSED_SHELL('',(#562,#563,#564,#565,#566,#567,#568,#569,#570,#571,
#572,#573,#574,#575,#576,#577,#578,#579,#580,#581,#582,#583,#584,#585,#586,
#587,#588,#589,#590,#591,#592,#593,#594,#595));
#597=STYLED_ITEM('',(#598),#605);
#598=PRESENTATION_STYLE_ASSIGNMENT((#599));
#599=SURFACE_STYLE_USAGE(.BOTH.,#600);
#600=SURFACE_SIDE_STYLE('',(#601));
#601=SURFACE_STYLE_FILL_AREA(#602);
#602=FILL_AREA_STYLE('',(#603));
#603=FILL_AREA_STYLE_COLOUR('',#604);
#604=COLOUR_RGB('',0.615686274509804,0.811764705882353,0.929411764705882);
#605=MANIFOLD_SOLID_BREP('Part 1',#596);
#606=SHAPE_DEFINITION_REPRESENTATION(#1082,#607);
#607=SHAPE_REPRESENTATION('Part 1',(#608),#1077);
#608=AXIS2_PLACEMENT_3D('',#845,#671,#672);
#609=AXIS2_PLACEMENT_3D('',#846,#673,#674);
#610=AXIS2_PLACEMENT_3D('',#847,#675,#676);
#611=AXIS2_PLACEMENT_3D('',#849,#677,#678);
#612=AXIS2_PLACEMENT_3D('',#851,#679,#680);
#613=AXIS2_PLACEMENT_3D('',#852,#681,#682);
#614=AXIS2_PLACEMENT_3D('',#854,#683,#684);
#615=AXIS2_PLACEMENT_3D('',#856,#685,#686);
#616=AXIS2_PLACEMENT_3D('',#857,#687,#688);
#617=AXIS2_PLACEMENT_3D('',#859,#689,#690);
#618=AXIS2_PLACEMENT_3D('',#861,#691,#692);
#619=AXIS2_PLACEMENT_3D('',#862,#693,#694);
#620=AXIS2_PLACEMENT_3D('',#864,#695,#696);
#621=AXIS2_PLACEMENT_3D('',#866,#697,#698);
#622=AXIS2_PLACEMENT_3D('',#889,#701,#702);
#623=AXIS2_PLACEMENT_3D('',#893,#704,#705);
#624=AXIS2_PLACEMENT_3D('',#913,#707,#708);
#625=AXIS2_PLACEMENT_3D('',#936,#711,#712);
#626=AXIS2_PLACEMENT_3D('',#940,#714,#715);
#627=AXIS2_PLACEMENT_3D('',#960,#717,#718);
#628=AXIS2_PLACEMENT_3D('',#965,#721,#722);
#629=AXIS2_PLACEMENT_3D('',#969,#724,#725);
#630=AXIS2_PLACEMENT_3D('',#970,#726,#727);
#631=AXIS2_PLACEMENT_3D('',#976,#731,#732);
#632=AXIS2_PLACEMENT_3D('',#985,#737,#738);
#633=AXIS2_PLACEMENT_3D('',#991,#742,#743);
#634=AXIS2_PLACEMENT_3D('',#996,#746,#747);
#635=AXIS2_PLACEMENT_3D('',#1000,#749,#750);
#636=AXIS2_PLACEMENT_3D('',#1001,#751,#752);
#637=AXIS2_PLACEMENT_3D('',#1007,#756,#757);
#638=AXIS2_PLACEMENT_3D('',#1011,#759,#760);
#639=AXIS2_PLACEMENT_3D('',#1015,#762,#763);
#640=AXIS2_PLACEMENT_3D('',#1019,#765,#766);
#641=AXIS2_PLACEMENT_3D('',#1020,#767,#768);
#642=AXIS2_PLACEMENT_3D('',#1021,#769,#770);
#643=AXIS2_PLACEMENT_3D('',#1030,#775,#776);
#644=AXIS2_PLACEMENT_3D('',#1036,#780,#781);
#645=AXIS2_PLACEMENT_3D('',#1042,#785,#786);
#646=AXIS2_PLACEMENT_3D('',#1045,#789,#790);
#647=AXIS2_PLACEMENT_3D('',#1048,#793,#794);
#648=AXIS2_PLACEMENT_3D('',#1049,#795,#796);
#649=AXIS2_PLACEMENT_3D('',#1052,#799,#800);
#650=AXIS2_PLACEMENT_3D('',#1053,#801,#802);
#651=AXIS2_PLACEMENT_3D('',#1054,#803,#804);
#652=AXIS2_PLACEMENT_3D('',#1055,#805,#806);
#653=AXIS2_PLACEMENT_3D('',#1058,#809,#810);
#654=AXIS2_PLACEMENT_3D('',#1059,#811,#812);
#655=AXIS2_PLACEMENT_3D('',#1060,#813,#814);
#656=AXIS2_PLACEMENT_3D('',#1061,#815,#816);
#657=AXIS2_PLACEMENT_3D('',#1062,#817,#818);
#658=AXIS2_PLACEMENT_3D('',#1063,#819,#820);
#659=AXIS2_PLACEMENT_3D('',#1064,#821,#822);
#660=AXIS2_PLACEMENT_3D('',#1065,#823,#824);
#661=AXIS2_PLACEMENT_3D('',#1066,#825,#826);
#662=AXIS2_PLACEMENT_3D('',#1067,#827,#828);
#663=AXIS2_PLACEMENT_3D('',#1068,#829,#830);
#664=AXIS2_PLACEMENT_3D('',#1069,#831,#832);
#665=AXIS2_PLACEMENT_3D('',#1070,#833,#834);
#666=AXIS2_PLACEMENT_3D('',#1071,#835,#836);
#667=AXIS2_PLACEMENT_3D('',#1072,#837,#838);
#668=AXIS2_PLACEMENT_3D('',#1073,#839,#840);
#669=AXIS2_PLACEMENT_3D('',#1074,#841,#842);
#670=AXIS2_PLACEMENT_3D('',#1075,#843,#844);
#671=DIRECTION('',(0.,0.,1.));
#672=DIRECTION('',(1.,0.,0.));
#673=DIRECTION('',(1.26490253456642E-16,-1.,0.));
#674=DIRECTION('',(-1.,-1.26490253456642E-16,0.));
#675=DIRECTION('',(1.18276600634782E-16,-1.,0.));
#676=DIRECTION('',(-1.,-1.18276600634782E-16,0.));
#677=DIRECTION('',(-1.26490253456642E-16,1.,0.));
#678=DIRECTION('',(1.,1.26490253456642E-16,0.));
#679=DIRECTION('',(1.26490253456642E-16,-1.,0.));
#680=DIRECTION('',(-1.,-1.26490253456642E-16,0.));
#681=DIRECTION('',(1.18276600634782E-16,-1.,0.));
#682=DIRECTION('',(-1.,-1.18276600634782E-16,0.));
#683=DIRECTION('',(-1.26490253456642E-16,1.,0.));
#684=DIRECTION('',(1.,1.26490253456642E-16,0.));
#685=DIRECTION('',(1.26490253456642E-16,-1.,0.));
#686=DIRECTION('',(-1.,-1.26490253456642E-16,0.));
#687=DIRECTION('',(1.18276600634782E-16,-1.,0.));
#688=DIRECTION('',(-1.,-1.18276600634782E-16,0.));
#689=DIRECTION('',(-1.26490253456642E-16,1.,0.));
#690=DIRECTION('',(1.,1.26490253456642E-16,0.));
#691=DIRECTION('',(1.26490253456642E-16,-1.,0.));
#692=DIRECTION('',(-1.,-1.26490253456642E-16,0.));
#693=DIRECTION('',(1.18276600634782E-16,-1.,0.));
#694=DIRECTION('',(-1.,-1.18276600634782E-16,0.));
#695=DIRECTION('',(-1.26490253456642E-16,1.,0.));
#696=DIRECTION('',(1.,1.26490253456642E-16,0.));
#697=DIRECTION('',(0.,0.,1.));
#698=DIRECTION('',(0.,-1.,0.));
#699=DIRECTION('',(0.,0.,-1.));
#700=DIRECTION('',(0.,0.,-1.));
#701=DIRECTION('',(0.,0.,1.));
#702=DIRECTION('',(0.,-1.,0.));
#703=DIRECTION('',(0.,0.,-1.));
#704=DIRECTION('',(0.,0.,1.));
#705=DIRECTION('',(0.,-1.,0.));
#706=DIRECTION('',(0.,0.,-1.));
#707=DIRECTION('',(0.,0.,-1.));
#708=DIRECTION('',(0.,1.,0.));
#709=DIRECTION('',(0.,0.,-1.));
#710=DIRECTION('',(0.,0.,-1.));
#711=DIRECTION('',(0.,0.,1.));
#712=DIRECTION('',(0.,-1.,0.));
#713=DIRECTION('',(0.,0.,-1.));
#714=DIRECTION('',(0.,0.,1.));
#715=DIRECTION('',(0.,-1.,0.));
#716=DIRECTION('',(0.,0.,-1.));
#717=DIRECTION('',(1.26490253456642E-16,-1.,0.));
#718=DIRECTION('',(-1.,-1.26490253456642E-16,0.));
#719=DIRECTION('',(-1.,-1.26490253456642E-16,0.));
#720=DIRECTION('',(-1.,-1.26490253456642E-16,0.));
#721=DIRECTION('',(1.26490253456642E-16,-1.,0.));
#722=DIRECTION('',(-1.,-1.26490253456642E-16,0.));
#723=DIRECTION('',(0.,0.,-1.));
#724=DIRECTION('',(1.26490253456642E-16,-1.,0.));
#725=DIRECTION('',(-1.,-1.26490253456642E-16,0.));
#726=DIRECTION('',(-1.,-1.80700362080917E-16,0.));
#727=DIRECTION('',(-1.80700362080917E-16,1.,0.));
#728=DIRECTION('',(-1.80700362080917E-16,1.,0.));
#729=DIRECTION('',(-1.80700362080917E-16,1.,0.));
#730=DIRECTION('',(0.,0.,-1.));
#731=DIRECTION('',(0.,1.,0.));
#732=DIRECTION('',(1.,0.,0.));
#733=DIRECTION('',(1.,0.,0.));
#734=DIRECTION('',(0.,0.,-1.));
#735=DIRECTION('',(1.,0.,0.));
#736=DIRECTION('',(0.,0.,-1.));
#737=DIRECTION('',(-1.,7.2280144832367E-17,0.));
#738=DIRECTION('',(7.2280144832367E-17,1.,0.));
#739=DIRECTION('',(7.2280144832367E-17,1.,0.));
#740=DIRECTION('',(7.2280144832367E-17,1.,0.));
#741=DIRECTION('',(0.,0.,-1.));
#742=DIRECTION('',(1.26490253456642E-16,-1.,0.));
#743=DIRECTION('',(-1.,-1.26490253456642E-16,0.));
#744=DIRECTION('',(-1.,-1.26490253456642E-16,0.));
#745=DIRECTION('',(-1.,-1.26490253456642E-16,0.));
#746=DIRECTION('',(1.26490253456642E-16,-1.,0.));
#747=DIRECTION('',(-1.,-1.26490253456642E-16,0.));
#748=DIRECTION('',(0.,0.,-1.));
#749=DIRECTION('',(1.26490253456642E-16,-1.,0.));
#750=DIRECTION('',(-1.,-1.26490253456642E-16,0.));
#751=DIRECTION('',(1.,0.,0.));
#752=DIRECTION('',(0.,-1.,0.));
#753=DIRECTION('',(0.,0.,-1.));
#754=DIRECTION('',(0.,-1.,0.));
#755=DIRECTION('',(0.,-1.,0.));
#756=DIRECTION('',(1.18276600634782E-16,-1.,0.));
#757=DIRECTION('',(-1.,-1.18276600634782E-16,0.));
#758=DIRECTION('',(-1.,-1.18276600634782E-16,0.));
#759=DIRECTION('',(1.18276600634782E-16,-1.,0.));
#760=DIRECTION('',(-1.,-1.18276600634782E-16,0.));
#761=DIRECTION('',(0.,0.,-1.));
#762=DIRECTION('',(1.18276600634782E-16,-1.,0.));
#763=DIRECTION('',(-1.,-1.18276600634782E-16,0.));
#764=DIRECTION('',(-1.,-1.18276600634782E-16,0.));
#765=DIRECTION('',(1.18276600634782E-16,-1.,0.));
#766=DIRECTION('',(-1.,-1.18276600634782E-16,0.));
#767=DIRECTION('',(1.18276600634782E-16,-1.,0.));
#768=DIRECTION('',(-1.,-1.18276600634782E-16,0.));
#769=DIRECTION('',(0.,-1.,0.));
#770=DIRECTION('',(-1.,0.,0.));
#771=DIRECTION('',(-1.,0.,0.));
#772=DIRECTION('',(0.,0.,-1.));
#773=DIRECTION('',(-1.,0.,0.));
#774=DIRECTION('',(0.,0.,-1.));
#775=DIRECTION('',(-1.,0.,0.));
#776=DIRECTION('',(0.,1.,0.));
#777=DIRECTION('',(0.,1.,0.));
#778=DIRECTION('',(0.,0.,-1.));
#779=DIRECTION('',(0.,1.,0.));
#780=DIRECTION('',(1.21430643318376E-16,-1.,0.));
#781=DIRECTION('',(-1.,-1.21430643318376E-16,0.));
#782=DIRECTION('',(-1.,-1.21430643318376E-16,0.));
#783=DIRECTION('',(0.,0.,-1.));
#784=DIRECTION('',(-1.,-1.21430643318376E-16,0.));
#785=DIRECTION('',(-1.,0.,0.));
#786=DIRECTION('',(0.,1.,0.));
#787=DIRECTION('',(0.,1.,0.));
#788=DIRECTION('',(0.,1.,0.));
#789=DIRECTION('',(1.,0.,0.));
#790=DIRECTION('',(0.,-1.,0.));
#791=DIRECTION('',(0.,-1.,0.));
#792=DIRECTION('',(0.,-1.,0.));
#793=DIRECTION('',(0.,0.,1.));
#794=DIRECTION('',(1.,0.,0.));
#795=DIRECTION('',(0.,0.,1.));
#796=DIRECTION('',(0.,-1.,0.));
#797=DIRECTION('',(0.,-1.,0.));
#798=DIRECTION('',(0.,-1.,0.));
#799=DIRECTION('',(0.,0.,1.));
#800=DIRECTION('',(0.,-1.,0.));
#801=DIRECTION('',(0.,0.,1.));
#802=DIRECTION('',(1.,0.,0.));
#803=DIRECTION('',(0.,0.,1.));
#804=DIRECTION('',(0.,-1.,0.));
#805=DIRECTION('',(0.,0.,1.));
#806=DIRECTION('',(0.,-1.,0.));
#807=DIRECTION('',(0.,-1.,0.));
#808=DIRECTION('',(0.,-1.,0.));
#809=DIRECTION('',(0.,0.,-1.));
#810=DIRECTION('',(0.,1.,0.));
#811=DIRECTION('',(0.,0.,1.));
#812=DIRECTION('',(0.,-1.,0.));
#813=DIRECTION('',(0.,1.,0.));
#814=DIRECTION('',(1.,0.,0.));
#815=DIRECTION('',(0.,-1.,0.));
#816=DIRECTION('',(-1.,0.,0.));
#817=DIRECTION('',(0.,1.,0.));
#818=DIRECTION('',(1.,0.,0.));
#819=DIRECTION('',(0.,-1.,0.));
#820=DIRECTION('',(-1.,0.,0.));
#821=DIRECTION('',(1.26490253456642E-16,-1.,0.));
#822=DIRECTION('',(-1.,-1.26490253456642E-16,0.));
#823=DIRECTION('',(-1.26490253456642E-16,1.,0.));
#824=DIRECTION('',(1.,1.26490253456642E-16,0.));
#825=DIRECTION('',(-1.26490253456642E-16,1.,0.));
#826=DIRECTION('',(1.,1.26490253456642E-16,0.));
#827=DIRECTION('',(1.26490253456642E-16,-1.,0.));
#828=DIRECTION('',(-1.,-1.26490253456642E-16,0.));
#829=DIRECTION('',(-1.26490253456642E-16,1.,0.));
#830=DIRECTION('',(1.,1.26490253456642E-16,0.));
#831=DIRECTION('',(-1.26490253456642E-16,1.,0.));
#832=DIRECTION('',(1.,1.26490253456642E-16,0.));
#833=DIRECTION('',(1.26490253456642E-16,-1.,0.));
#834=DIRECTION('',(-1.,-1.26490253456642E-16,0.));
#835=DIRECTION('',(-1.26490253456642E-16,1.,0.));
#836=DIRECTION('',(1.,1.26490253456642E-16,0.));
#837=DIRECTION('',(-1.26490253456642E-16,1.,0.));
#838=DIRECTION('',(1.,1.26490253456642E-16,0.));
#839=DIRECTION('',(1.26490253456642E-16,-1.,0.));
#840=DIRECTION('',(-1.,-1.26490253456642E-16,0.));
#841=DIRECTION('',(-1.26490253456642E-16,1.,0.));
#842=DIRECTION('',(1.,1.26490253456642E-16,0.));
#843=DIRECTION('',(-1.26490253456642E-16,1.,0.));
#844=DIRECTION('',(1.,1.26490253456642E-16,0.));
#845=CARTESIAN_POINT('',(0.,0.,0.));
#846=CARTESIAN_POINT('',(-0.0225,0.0015,0.005));
#847=CARTESIAN_POINT('',(-0.0225,-0.0015,0.005));
#848=CARTESIAN_POINT('',(-0.0242,-0.0015,0.005));
#849=CARTESIAN_POINT('',(-0.0225,0.0015,0.005));
#850=CARTESIAN_POINT('',(-0.0208,0.0015,0.005));
#851=CARTESIAN_POINT('',(-0.0225,0.0015,0.02));
#852=CARTESIAN_POINT('',(-0.0225,-0.0015,0.02));
#853=CARTESIAN_POINT('',(-0.0242,-0.0015,0.02));
#854=CARTESIAN_POINT('',(-0.0225,0.0015,0.02));
#855=CARTESIAN_POINT('',(-0.0208,0.0015,0.02));
#856=CARTESIAN_POINT('',(0.0225,0.0015,0.02));
#857=CARTESIAN_POINT('',(0.0225,-0.0015,0.02));
#858=CARTESIAN_POINT('',(0.0208,-0.0015,0.02));
#859=CARTESIAN_POINT('',(0.0225,0.0015,0.02));
#860=CARTESIAN_POINT('',(0.0242,0.0015,0.02));
#861=CARTESIAN_POINT('',(0.0225,0.0015,0.005));
#862=CARTESIAN_POINT('',(0.0225,-0.0015,0.005));
#863=CARTESIAN_POINT('',(0.0208,-0.0015,0.005));
#864=CARTESIAN_POINT('',(0.0225,0.0015,0.005));
#865=CARTESIAN_POINT('',(0.0242,0.0015,0.005));
#866=CARTESIAN_POINT('',(0.0255,0.0115,0.025));
#867=CARTESIAN_POINT('',(0.0255,0.0015,0.025));
#868=CARTESIAN_POINT('',(0.0255,0.0015,0.005));
#869=CARTESIAN_POINT('',(0.0255,0.0015,0.02));
#870=CARTESIAN_POINT('',(0.0249714719472773,0.00148031128194344,0.00702771803268784));
#871=CARTESIAN_POINT('',(0.0258512592596177,0.00151307452309384,0.00499781534701314));
#872=CARTESIAN_POINT('',(0.0249747502738696,0.00148046514877503,0.00297883592627274));
#873=CARTESIAN_POINT('',(0.023572492486515,0.00166375401635362,0.00211215985800684));
#874=CARTESIAN_POINT('',(0.0223830787428404,0.00197105192594909,0.0019266660471845));
#875=CARTESIAN_POINT('',(0.0212579722467725,0.00241999448285318,0.00219245864781079));
#876=CARTESIAN_POINT('',(0.0203292187306359,0.00292338900232006,0.00283069844973675));
#877=CARTESIAN_POINT('',(0.0196746639192873,0.00336550782673978,0.00377943242451164));
#878=CARTESIAN_POINT('',(0.0194142539466796,0.00356609849781632,0.00499204732361165));
#879=CARTESIAN_POINT('',(0.0196683741001697,0.00337005782741045,0.00620836669824252));
#880=CARTESIAN_POINT('',(0.0203260909197914,0.0029251313186768,0.00716729207898107));
#881=CARTESIAN_POINT('',(0.0212547746532029,0.00242161157761658,0.00780566495031493));
#882=CARTESIAN_POINT('',(0.0223758228594,0.00197360099363718,0.00807262201944521));
#883=CARTESIAN_POINT('',(0.0235634695366688,0.00166543510918357,0.00789105592980567));
#884=CARTESIAN_POINT('',(0.0249714719472773,0.00148031128194344,0.00702771803268784));
#885=CARTESIAN_POINT('',(0.0258512592596177,0.00151307452309384,0.00499781534701314));
#886=CARTESIAN_POINT('',(0.0249747502738696,0.00148046514877503,0.00297883592627274));
#887=CARTESIAN_POINT('',(0.0255,0.0015,0.025));
#888=CARTESIAN_POINT('',(0.0255,0.0015,0.));
#889=CARTESIAN_POINT('',(0.0255,0.0115,0.));
#890=CARTESIAN_POINT('',(0.0155,0.0115,0.));
#891=CARTESIAN_POINT('',(0.0155,0.0115,0.));
#892=CARTESIAN_POINT('',(0.0155,0.0115,0.025));
#893=CARTESIAN_POINT('',(0.0255,0.0115,0.025));
#894=CARTESIAN_POINT('',(0.0255,0.0015,0.025));
#895=CARTESIAN_POINT('',(0.0255,0.0015,0.025));
#896=CARTESIAN_POINT('',(0.0249714719472773,0.00148031128194344,0.0220277180326878));
#897=CARTESIAN_POINT('',(0.0258512592596177,0.00151307452309384,0.0199978153470131));
#898=CARTESIAN_POINT('',(0.0249747502738696,0.00148046514877503,0.0179788359262727));
#899=CARTESIAN_POINT('',(0.023572492486515,0.00166375401635362,0.0171121598580068));
#900=CARTESIAN_POINT('',(0.0223830787428404,0.00197105192594909,0.0169266660471845));
#901=CARTESIAN_POINT('',(0.0212579722467725,0.00241999448285318,0.0171924586478108));
#902=CARTESIAN_POINT('',(0.0203292187306359,0.00292338900232006,0.0178306984497367));
#903=CARTESIAN_POINT('',(0.0196746639192873,0.00336550782673979,0.0187794324245117));
#904=CARTESIAN_POINT('',(0.0194142539466796,0.00356609849781632,0.0199920473236117));
#905=CARTESIAN_POINT('',(0.0196683741001698,0.00337005782741044,0.0212083666982425));
#906=CARTESIAN_POINT('',(0.0203260909197914,0.0029251313186768,0.0221672920789811));
#907=CARTESIAN_POINT('',(0.0212547746532029,0.00242161157761657,0.0228056649503149));
#908=CARTESIAN_POINT('',(0.0223758228594,0.00197360099363719,0.0230726220194452));
#909=CARTESIAN_POINT('',(0.0235634695366688,0.00166543510918357,0.0228910559298057));
#910=CARTESIAN_POINT('',(0.0249714719472773,0.00148031128194344,0.0220277180326878));
#911=CARTESIAN_POINT('',(0.0258512592596177,0.00151307452309384,0.0199978153470131));
#912=CARTESIAN_POINT('',(0.0249747502738696,0.00148046514877503,0.0179788359262727));
#913=CARTESIAN_POINT('',(-0.0255,0.0115,0.025));
#914=CARTESIAN_POINT('',(-0.0255,0.0015,0.025));
#915=CARTESIAN_POINT('',(-0.0255,0.0015,0.02));
#916=CARTESIAN_POINT('',(-0.0255,0.0015,0.005));
#917=CARTESIAN_POINT('',(-0.0249714719472773,0.00148031128194344,0.0179722819673122));
#918=CARTESIAN_POINT('',(-0.0258512592596177,0.00151307452309384,0.0200021846529869));
#919=CARTESIAN_POINT('',(-0.0249747502738695,0.00148046514877503,0.0220211640737273));
#920=CARTESIAN_POINT('',(-0.023572492486515,0.00166375401635362,0.0228878401419932));
#921=CARTESIAN_POINT('',(-0.0223830787428404,0.00197105192594909,0.0230733339528155));
#922=CARTESIAN_POINT('',(-0.0212579722467725,0.00241999448285318,0.0228075413521892));
#923=CARTESIAN_POINT('',(-0.0203292187306359,0.00292338900232006,0.0221693015502632));
#924=CARTESIAN_POINT('',(-0.0196746639192873,0.00336550782673979,0.0212205675754884));
#925=CARTESIAN_POINT('',(-0.0194142539466796,0.00356609849781633,0.0200079526763883));
#926=CARTESIAN_POINT('',(-0.0196683741001697,0.00337005782741044,0.0187916333017575));
#927=CARTESIAN_POINT('',(-0.0203260909197914,0.0029251313186768,0.0178327079210189));
#928=CARTESIAN_POINT('',(-0.0212547746532029,0.00242161157761658,0.0171943350496851));
#929=CARTESIAN_POINT('',(-0.0223758228594,0.00197360099363718,0.0169273779805548));
#930=CARTESIAN_POINT('',(-0.0235634695366688,0.00166543510918357,0.0171089440701943));
#931=CARTESIAN_POINT('',(-0.0249714719472773,0.00148031128194344,0.0179722819673122));
#932=CARTESIAN_POINT('',(-0.0258512592596177,0.00151307452309384,0.0200021846529869));
#933=CARTESIAN_POINT('',(-0.0249747502738695,0.00148046514877503,0.0220211640737273));
#934=CARTESIAN_POINT('',(-0.0255,0.0015,0.025));
#935=CARTESIAN_POINT('',(-0.0255,0.0015,0.025));
#936=CARTESIAN_POINT('',(-0.0255,0.0115,0.025));
#937=CARTESIAN_POINT('',(-0.0155,0.0115,0.025));
#938=CARTESIAN_POINT('',(-0.0155,0.0115,0.025));
#939=CARTESIAN_POINT('',(-0.0155,0.0115,0.));
#940=CARTESIAN_POINT('',(-0.0255,0.0115,0.));
#941=CARTESIAN_POINT('',(-0.0255,0.0015,0.));
#942=CARTESIAN_POINT('',(-0.0255,0.0015,0.025));
#943=CARTESIAN_POINT('',(-0.0249714719472773,0.00148031128194345,0.00297228196731218));
#944=CARTESIAN_POINT('',(-0.0258512592596177,0.00151307452309384,0.00500218465298685));
#945=CARTESIAN_POINT('',(-0.0249747502738696,0.00148046514877503,0.00702116407372726));
#946=CARTESIAN_POINT('',(-0.023572492486515,0.00166375401635362,0.00788784014199316));
#947=CARTESIAN_POINT('',(-0.0223830787428404,0.00197105192594909,0.0080733339528155));
#948=CARTESIAN_POINT('',(-0.0212579722467725,0.00241999448285318,0.00780754135218921));
#949=CARTESIAN_POINT('',(-0.0203292187306359,0.00292338900232007,0.00716930155026325));
#950=CARTESIAN_POINT('',(-0.0196746639192873,0.00336550782673979,0.00622056757548834));
#951=CARTESIAN_POINT('',(-0.0194142539466796,0.00356609849781633,0.00500795267638834));
#952=CARTESIAN_POINT('',(-0.0196683741001698,0.00337005782741044,0.00379163330175744));
#953=CARTESIAN_POINT('',(-0.0203260909197914,0.0029251313186768,0.00283270792101893));
#954=CARTESIAN_POINT('',(-0.0212547746532029,0.00242161157761657,0.00219433504968505));
#955=CARTESIAN_POINT('',(-0.0223758228594,0.00197360099363719,0.00192737798055479));
#956=CARTESIAN_POINT('',(-0.0235634695366688,0.00166543510918357,0.00210894407019433));
#957=CARTESIAN_POINT('',(-0.0249714719472773,0.00148031128194345,0.00297228196731218));
#958=CARTESIAN_POINT('',(-0.0258512592596177,0.00151307452309384,0.00500218465298685));
#959=CARTESIAN_POINT('',(-0.0249747502738696,0.00148046514877503,0.00702116407372726));
#960=CARTESIAN_POINT('',(0.0215,0.0015,0.025));
#961=CARTESIAN_POINT('',(0.0215,0.0015,0.));
#962=CARTESIAN_POINT('',(0.026,0.0015,0.));
#963=CARTESIAN_POINT('',(0.0215,0.0015,0.025));
#964=CARTESIAN_POINT('',(0.026,0.0015,0.025));
#965=CARTESIAN_POINT('',(0.026,0.0015,0.0235));
#966=CARTESIAN_POINT('',(0.0275,0.0015,0.0235));
#967=CARTESIAN_POINT('',(0.0275,0.0015,0.025));
#968=CARTESIAN_POINT('',(0.0275,0.0015,0.0015));
#969=CARTESIAN_POINT('',(0.026,0.0015,0.0015));
#970=CARTESIAN_POINT('',(0.0155,0.0255,0.025));
#971=CARTESIAN_POINT('',(0.0155,0.0255,0.025));
#972=CARTESIAN_POINT('',(0.0155,0.048,0.025));
#973=CARTESIAN_POINT('',(0.0155,0.0255,0.));
#974=CARTESIAN_POINT('',(0.0155,0.048,0.));
#975=CARTESIAN_POINT('',(0.0155,0.048,0.025));
#976=CARTESIAN_POINT('',(0.00775,0.0495,0.025));
#977=CARTESIAN_POINT('',(0.00775,0.0495,0.));
#978=CARTESIAN_POINT('',(-0.014,0.0495,0.));
#979=CARTESIAN_POINT('',(0.014,0.0495,0.));
#980=CARTESIAN_POINT('',(-0.014,0.0495,0.025));
#981=CARTESIAN_POINT('',(-0.014,0.0495,0.025));
#982=CARTESIAN_POINT('',(0.00775,0.0495,0.025));
#983=CARTESIAN_POINT('',(0.014,0.0495,0.025));
#984=CARTESIAN_POINT('',(0.014,0.0495,0.));
#985=CARTESIAN_POINT('',(-0.0155,0.0255,0.025));
#986=CARTESIAN_POINT('',(-0.0155,0.0255,0.));
#987=CARTESIAN_POINT('',(-0.0155,0.048,0.));
#988=CARTESIAN_POINT('',(-0.0155,0.0255,0.025));
#989=CARTESIAN_POINT('',(-0.0155,0.048,0.025));
#990=CARTESIAN_POINT('',(-0.0155,0.048,0.025));
#991=CARTESIAN_POINT('',(-0.0215,0.0015,0.025));
#992=CARTESIAN_POINT('',(-0.0215,0.0015,0.025));
#993=CARTESIAN_POINT('',(-0.026,0.0015,0.025));
#994=CARTESIAN_POINT('',(-0.0215,0.0015,0.));
#995=CARTESIAN_POINT('',(-0.026,0.0015,0.));
#996=CARTESIAN_POINT('',(-0.026,0.0015,0.0015));
#997=CARTESIAN_POINT('',(-0.0275,0.0015,0.0015));
#998=CARTESIAN_POINT('',(-0.0275,0.0015,0.025));
#999=CARTESIAN_POINT('',(-0.0275,0.0015,0.0235));
#1000=CARTESIAN_POINT('',(-0.026,0.0015,0.0235));
#1001=CARTESIAN_POINT('',(-0.0275,-3.14418630020796E-18,0.025));
#1002=CARTESIAN_POINT('',(-0.0275,-0.0015,0.025));
#1003=CARTESIAN_POINT('',(-0.0275,-0.0015,0.0235));
#1004=CARTESIAN_POINT('',(-0.0275,-0.0015,0.0015));
#1005=CARTESIAN_POINT('',(-0.0275,0.0015,0.0235));
#1006=CARTESIAN_POINT('',(-0.0275,-3.14418630020796E-18,0.0015));
#1007=CARTESIAN_POINT('',(0.01375,-0.0015,0.025));
#1008=CARTESIAN_POINT('',(0.01375,-0.0015,0.));
#1009=CARTESIAN_POINT('',(0.026,-0.0015,0.));
#1010=CARTESIAN_POINT('',(-0.026,-0.0015,0.));
#1011=CARTESIAN_POINT('',(0.026,-0.0015,0.0015));
#1012=CARTESIAN_POINT('',(0.0275,-0.0015,0.0015));
#1013=CARTESIAN_POINT('',(0.0275,-0.0015,0.025));
#1014=CARTESIAN_POINT('',(0.0275,-0.0015,0.0235));
#1015=CARTESIAN_POINT('',(0.026,-0.0015,0.0235));
#1016=CARTESIAN_POINT('',(0.026,-0.0015,0.025));
#1017=CARTESIAN_POINT('',(0.01375,-0.0015,0.025));
#1018=CARTESIAN_POINT('',(-0.026,-0.0015,0.025));
#1019=CARTESIAN_POINT('',(-0.026,-0.0015,0.0235));
#1020=CARTESIAN_POINT('',(-0.026,-0.0015,0.0015));
#1021=CARTESIAN_POINT('',(0.00625,0.047,0.025));
#1022=CARTESIAN_POINT('',(0.00625,0.047,0.));
#1023=CARTESIAN_POINT('',(0.0125,0.047,0.));
#1024=CARTESIAN_POINT('',(-0.0125,0.047,0.));
#1025=CARTESIAN_POINT('',(0.0125,0.047,0.025));
#1026=CARTESIAN_POINT('',(0.0125,0.047,0.025));
#1027=CARTESIAN_POINT('',(0.00625,0.047,0.025));
#1028=CARTESIAN_POINT('',(-0.0125,0.047,0.025));
#1029=CARTESIAN_POINT('',(-0.0125,0.047,0.025));
#1030=CARTESIAN_POINT('',(0.0125,0.001,0.025));
#1031=CARTESIAN_POINT('',(0.0125,0.001,0.));
#1032=CARTESIAN_POINT('',(0.0125,0.0005,0.));
#1033=CARTESIAN_POINT('',(0.0125,0.0005,0.025));
#1034=CARTESIAN_POINT('',(0.0125,0.0005,0.025));
#1035=CARTESIAN_POINT('',(0.0125,0.001,0.025));
#1036=CARTESIAN_POINT('',(0.00625,0.0005,0.025));
#1037=CARTESIAN_POINT('',(0.00625,0.0005,0.));
#1038=CARTESIAN_POINT('',(-0.0125,0.0005,0.));
#1039=CARTESIAN_POINT('',(-0.0125,0.0005,0.025));
#1040=CARTESIAN_POINT('',(-0.0125,0.0005,0.025));
#1041=CARTESIAN_POINT('',(0.00625,0.0005,0.025));
#1042=CARTESIAN_POINT('',(-0.0125,0.001,0.025));
#1043=CARTESIAN_POINT('',(-0.0125,0.001,0.));
#1044=CARTESIAN_POINT('',(-0.0125,0.001,0.025));
#1045=CARTESIAN_POINT('',(0.0275,3.25260651745651E-18,0.025));
#1046=CARTESIAN_POINT('',(0.0275,0.0015,0.0015));
#1047=CARTESIAN_POINT('',(0.0275,3.25260651745651E-18,0.0235));
#1048=CARTESIAN_POINT('',(0.,0.024,0.025));
#1049=CARTESIAN_POINT('',(-0.014,0.048,0.025));
#1050=CARTESIAN_POINT('',(-0.026,-0.0015,0.025));
#1051=CARTESIAN_POINT('',(0.026,0.024,0.025));
#1052=CARTESIAN_POINT('',(0.014,0.048,0.025));
#1053=CARTESIAN_POINT('',(0.,0.024,0.));
#1054=CARTESIAN_POINT('',(-0.014,0.048,0.));
#1055=CARTESIAN_POINT('',(0.014,0.048,0.));
#1056=CARTESIAN_POINT('',(0.026,-0.0015,0.));
#1057=CARTESIAN_POINT('',(-0.026,0.024,0.));
#1058=CARTESIAN_POINT('',(-0.014,0.048,0.025));
#1059=CARTESIAN_POINT('',(0.014,0.048,0.025));
#1060=CARTESIAN_POINT('',(0.026,0.024,0.0015));
#1061=CARTESIAN_POINT('',(0.026,3.25260651745651E-18,0.0235));
#1062=CARTESIAN_POINT('',(-0.026,0.024,0.0235));
#1063=CARTESIAN_POINT('',(-0.026,-3.14418630020796E-18,0.0015));
#1064=CARTESIAN_POINT('',(-0.0225,0.0265,0.005));
#1065=CARTESIAN_POINT('',(-0.0225,0.0015,0.005));
#1066=CARTESIAN_POINT('',(-0.001,0.0015,0.0125));
#1067=CARTESIAN_POINT('',(-0.0225,0.0265,0.02));
#1068=CARTESIAN_POINT('',(-0.0225,0.0015,0.02));
#1069=CARTESIAN_POINT('',(-0.001,0.0015,0.0125));
#1070=CARTESIAN_POINT('',(0.0225,0.0265,0.02));
#1071=CARTESIAN_POINT('',(0.0225,0.0015,0.02));
#1072=CARTESIAN_POINT('',(-0.001,0.0015,0.0125));
#1073=CARTESIAN_POINT('',(0.0225,0.0265,0.005));
#1074=CARTESIAN_POINT('',(0.0225,0.0015,0.005));
#1075=CARTESIAN_POINT('',(-0.001,0.0015,0.0125));
#1076=MECHANICAL_DESIGN_GEOMETRIC_PRESENTATION_REPRESENTATION('',(#597),
#1077);
#1077=(
GEOMETRIC_REPRESENTATION_CONTEXT(3)
GLOBAL_UNCERTAINTY_ASSIGNED_CONTEXT((#1078))
GLOBAL_UNIT_ASSIGNED_CONTEXT((#1081,#1080,#1079))
REPRESENTATION_CONTEXT('Part 1','TOP_LEVEL_ASSEMBLY_PART')
);
#1078=UNCERTAINTY_MEASURE_WITH_UNIT(LENGTH_MEASURE(2.E-5),#1081,
'DISTANCE_ACCURACY_VALUE','Maximum Tolerance applied to model');
#1079=(
NAMED_UNIT(*)
SI_UNIT($,.STERADIAN.)
SOLID_ANGLE_UNIT()
);
#1080=(
NAMED_UNIT(*)
PLANE_ANGLE_UNIT()
SI_UNIT($,.RADIAN.)
);
#1081=(
LENGTH_UNIT()
NAMED_UNIT(*)
SI_UNIT($,.METRE.)
);
#1082=PRODUCT_DEFINITION_SHAPE('','',#1083);
#1083=PRODUCT_DEFINITION('','',#1085,#1084);
#1084=PRODUCT_DEFINITION_CONTEXT('',#1091,'design');
#1085=PRODUCT_DEFINITION_FORMATION_WITH_SPECIFIED_SOURCE('','',#1087,
 .NOT_KNOWN.);
#1086=PRODUCT_RELATED_PRODUCT_CATEGORY('','',(#1087));
#1087=PRODUCT('Part 1','Part 1','Part 1',(#1089));
#1088=PRODUCT_CATEGORY('','');
#1089=PRODUCT_CONTEXT('',#1091,'mechanical');
#1090=APPLICATION_PROTOCOL_DEFINITION('international standard',
'ap242_managed_model_based_3d_engineering',2020,#1091);
#1091=APPLICATION_CONTEXT('managed model based 3d engineering');
ENDSEC;
END-ISO-10303-21;
