ISO-10303-21;
HEADER;
/* Generated by software containing ST-Developer
 * from STEP Tools, Inc. (www.steptools.com) 
 */
/* OPTION: using custom renumber hook */

FILE_DESCRIPTION(
/* description */ ('STEP AP242 Edition 2',
'CAx-IF Rec.Pracs.---Representation and Presentation of Product Manufa
cturing Information (PMI)---4.0---2014-10-13',
'CAx-IF Rec.Pracs.---3D Tessellated Geometry---0.4---2014-09-14','2;1',
'CAx-IF Rec.Pracs.---User Defined Attributes---1.5---2016-08-15'),
/* implementation_level */ '2;1');

FILE_NAME(
/* name */ 'ARCADA001 - Part 1 (5)',
/* time_stamp */ '2026-07-17T02:50:55Z',
/* author */ (''),
/* organization */ (''),
/* preprocessor_version */ 'ST-DEVELOPER v20',
/* originating_system */ 'ONSHAPE BY PTC INC, 1.217',
/* authorisation */ '  ');

FILE_SCHEMA (('AP242_MANAGED_MODEL_BASED_3D_ENGINEERING_MIM_LF { 1 0 10303 442 3 1 4 }'));
ENDSEC;

DATA;
#10=SHAPE_REPRESENTATION_RELATIONSHIP('','',#599,#11);
#11=ADVANCED_BREP_SHAPE_REPRESENTATION('',(#597),#989);
#12=CYLINDRICAL_SURFACE('',#622,0.002);
#13=CYLINDRICAL_SURFACE('',#630,0.0015);
#14=CYLINDRICAL_SURFACE('',#631,0.0015);
#15=CYLINDRICAL_SURFACE('',#632,0.0015);
#16=CYLINDRICAL_SURFACE('',#633,0.0015);
#17=CYLINDRICAL_SURFACE('',#636,0.002);
#18=CYLINDRICAL_SURFACE('',#647,0.0015);
#19=CYLINDRICAL_SURFACE('',#648,0.0015);
#20=CYLINDRICAL_SURFACE('',#649,0.0015);
#21=CYLINDRICAL_SURFACE('',#650,0.0015);
#22=CIRCLE('',#607,0.0015);
#23=CIRCLE('',#608,0.0015);
#24=CIRCLE('',#609,0.0015);
#25=CIRCLE('',#610,0.002);
#26=CIRCLE('',#611,0.0015);
#27=CIRCLE('',#612,0.0015);
#28=CIRCLE('',#613,0.0015);
#29=CIRCLE('',#614,0.0015);
#30=CIRCLE('',#615,0.002);
#31=CIRCLE('',#616,0.0015);
#32=CIRCLE('',#623,0.002);
#33=CIRCLE('',#626,0.0015);
#34=CIRCLE('',#627,0.0015);
#35=CIRCLE('',#628,0.0015);
#36=CIRCLE('',#629,0.0015);
#37=CIRCLE('',#637,0.002);
#38=CIRCLE('',#643,0.0015);
#39=CIRCLE('',#644,0.0015);
#40=CIRCLE('',#645,0.0015);
#41=CIRCLE('',#646,0.0015);
#42=ORIENTED_EDGE('',*,*,#210,.F.);
#43=ORIENTED_EDGE('',*,*,#211,.T.);
#44=ORIENTED_EDGE('',*,*,#212,.T.);
#45=ORIENTED_EDGE('',*,*,#213,.T.);
#46=ORIENTED_EDGE('',*,*,#214,.F.);
#47=ORIENTED_EDGE('',*,*,#215,.F.);
#48=ORIENTED_EDGE('',*,*,#216,.T.);
#49=ORIENTED_EDGE('',*,*,#217,.T.);
#50=ORIENTED_EDGE('',*,*,#218,.F.);
#51=ORIENTED_EDGE('',*,*,#219,.F.);
#52=ORIENTED_EDGE('',*,*,#220,.T.);
#53=ORIENTED_EDGE('',*,*,#221,.F.);
#54=ORIENTED_EDGE('',*,*,#222,.F.);
#55=ORIENTED_EDGE('',*,*,#223,.T.);
#56=ORIENTED_EDGE('',*,*,#224,.T.);
#57=ORIENTED_EDGE('',*,*,#225,.F.);
#58=ORIENTED_EDGE('',*,*,#226,.T.);
#59=ORIENTED_EDGE('',*,*,#216,.F.);
#60=ORIENTED_EDGE('',*,*,#227,.F.);
#61=ORIENTED_EDGE('',*,*,#222,.T.);
#62=ORIENTED_EDGE('',*,*,#228,.F.);
#63=ORIENTED_EDGE('',*,*,#224,.F.);
#64=ORIENTED_EDGE('',*,*,#229,.T.);
#65=ORIENTED_EDGE('',*,*,#214,.T.);
#66=ORIENTED_EDGE('',*,*,#223,.F.);
#67=ORIENTED_EDGE('',*,*,#227,.T.);
#68=ORIENTED_EDGE('',*,*,#215,.T.);
#69=ORIENTED_EDGE('',*,*,#229,.F.);
#70=ORIENTED_EDGE('',*,*,#230,.T.);
#71=ORIENTED_EDGE('',*,*,#231,.T.);
#72=ORIENTED_EDGE('',*,*,#232,.T.);
#73=ORIENTED_EDGE('',*,*,#225,.T.);
#74=ORIENTED_EDGE('',*,*,#228,.T.);
#75=ORIENTED_EDGE('',*,*,#213,.F.);
#76=ORIENTED_EDGE('',*,*,#233,.F.);
#77=ORIENTED_EDGE('',*,*,#234,.T.);
#78=ORIENTED_EDGE('',*,*,#235,.F.);
#79=ORIENTED_EDGE('',*,*,#236,.T.);
#80=ORIENTED_EDGE('',*,*,#237,.T.);
#81=ORIENTED_EDGE('',*,*,#238,.T.);
#82=ORIENTED_EDGE('',*,*,#239,.F.);
#83=ORIENTED_EDGE('',*,*,#240,.T.);
#84=ORIENTED_EDGE('',*,*,#241,.F.);
#85=ORIENTED_EDGE('',*,*,#242,.T.);
#86=ORIENTED_EDGE('',*,*,#243,.T.);
#87=ORIENTED_EDGE('',*,*,#217,.F.);
#88=ORIENTED_EDGE('',*,*,#226,.F.);
#89=ORIENTED_EDGE('',*,*,#221,.T.);
#90=ORIENTED_EDGE('',*,*,#244,.F.);
#91=ORIENTED_EDGE('',*,*,#245,.T.);
#92=ORIENTED_EDGE('',*,*,#246,.T.);
#93=ORIENTED_EDGE('',*,*,#247,.T.);
#94=ORIENTED_EDGE('',*,*,#248,.T.);
#95=ORIENTED_EDGE('',*,*,#249,.F.);
#96=ORIENTED_EDGE('',*,*,#250,.F.);
#97=ORIENTED_EDGE('',*,*,#251,.T.);
#98=ORIENTED_EDGE('',*,*,#235,.T.);
#99=ORIENTED_EDGE('',*,*,#252,.T.);
#100=ORIENTED_EDGE('',*,*,#253,.F.);
#101=ORIENTED_EDGE('',*,*,#254,.T.);
#102=ORIENTED_EDGE('',*,*,#255,.F.);
#103=ORIENTED_EDGE('',*,*,#256,.T.);
#104=ORIENTED_EDGE('',*,*,#233,.T.);
#105=ORIENTED_EDGE('',*,*,#212,.F.);
#106=ORIENTED_EDGE('',*,*,#243,.F.);
#107=ORIENTED_EDGE('',*,*,#257,.T.);
#108=ORIENTED_EDGE('',*,*,#258,.T.);
#109=ORIENTED_EDGE('',*,*,#210,.T.);
#110=ORIENTED_EDGE('',*,*,#241,.T.);
#111=ORIENTED_EDGE('',*,*,#259,.T.);
#112=ORIENTED_EDGE('',*,*,#260,.F.);
#113=ORIENTED_EDGE('',*,*,#261,.T.);
#114=ORIENTED_EDGE('',*,*,#262,.F.);
#115=ORIENTED_EDGE('',*,*,#263,.T.);
#116=ORIENTED_EDGE('',*,*,#239,.T.);
#117=ORIENTED_EDGE('',*,*,#264,.F.);
#118=ORIENTED_EDGE('',*,*,#238,.F.);
#119=ORIENTED_EDGE('',*,*,#265,.F.);
#120=ORIENTED_EDGE('',*,*,#266,.T.);
#121=ORIENTED_EDGE('',*,*,#264,.T.);
#122=ORIENTED_EDGE('',*,*,#237,.F.);
#123=ORIENTED_EDGE('',*,*,#267,.T.);
#124=ORIENTED_EDGE('',*,*,#268,.T.);
#125=ORIENTED_EDGE('',*,*,#265,.T.);
#126=ORIENTED_EDGE('',*,*,#253,.T.);
#127=ORIENTED_EDGE('',*,*,#269,.T.);
#128=ORIENTED_EDGE('',*,*,#255,.T.);
#129=ORIENTED_EDGE('',*,*,#211,.F.);
#130=ORIENTED_EDGE('',*,*,#258,.F.);
#131=ORIENTED_EDGE('',*,*,#270,.T.);
#132=ORIENTED_EDGE('',*,*,#260,.T.);
#133=ORIENTED_EDGE('',*,*,#271,.T.);
#134=ORIENTED_EDGE('',*,*,#262,.T.);
#135=ORIENTED_EDGE('',*,*,#266,.F.);
#136=ORIENTED_EDGE('',*,*,#268,.F.);
#137=ORIENTED_EDGE('',*,*,#272,.T.);
#138=ORIENTED_EDGE('',*,*,#269,.F.);
#139=ORIENTED_EDGE('',*,*,#252,.F.);
#140=ORIENTED_EDGE('',*,*,#234,.F.);
#141=ORIENTED_EDGE('',*,*,#256,.F.);
#142=ORIENTED_EDGE('',*,*,#272,.F.);
#143=ORIENTED_EDGE('',*,*,#267,.F.);
#144=ORIENTED_EDGE('',*,*,#236,.F.);
#145=ORIENTED_EDGE('',*,*,#254,.F.);
#146=ORIENTED_EDGE('',*,*,#271,.F.);
#147=ORIENTED_EDGE('',*,*,#259,.F.);
#148=ORIENTED_EDGE('',*,*,#240,.F.);
#149=ORIENTED_EDGE('',*,*,#263,.F.);
#150=ORIENTED_EDGE('',*,*,#270,.F.);
#151=ORIENTED_EDGE('',*,*,#257,.F.);
#152=ORIENTED_EDGE('',*,*,#242,.F.);
#153=ORIENTED_EDGE('',*,*,#261,.F.);
#154=ORIENTED_EDGE('',*,*,#273,.T.);
#155=ORIENTED_EDGE('',*,*,#274,.T.);
#156=ORIENTED_EDGE('',*,*,#230,.F.);
#157=ORIENTED_EDGE('',*,*,#275,.T.);
#158=ORIENTED_EDGE('',*,*,#276,.F.);
#159=ORIENTED_EDGE('',*,*,#277,.T.);
#160=ORIENTED_EDGE('',*,*,#250,.T.);
#161=ORIENTED_EDGE('',*,*,#278,.F.);
#162=ORIENTED_EDGE('',*,*,#249,.T.);
#163=ORIENTED_EDGE('',*,*,#279,.F.);
#164=ORIENTED_EDGE('',*,*,#280,.F.);
#165=ORIENTED_EDGE('',*,*,#278,.T.);
#166=ORIENTED_EDGE('',*,*,#248,.F.);
#167=ORIENTED_EDGE('',*,*,#281,.T.);
#168=ORIENTED_EDGE('',*,*,#282,.T.);
#169=ORIENTED_EDGE('',*,*,#279,.T.);
#170=ORIENTED_EDGE('',*,*,#283,.T.);
#171=ORIENTED_EDGE('',*,*,#284,.T.);
#172=ORIENTED_EDGE('',*,*,#246,.F.);
#173=ORIENTED_EDGE('',*,*,#285,.T.);
#174=ORIENTED_EDGE('',*,*,#286,.F.);
#175=ORIENTED_EDGE('',*,*,#287,.T.);
#176=ORIENTED_EDGE('',*,*,#244,.T.);
#177=ORIENTED_EDGE('',*,*,#220,.F.);
#178=ORIENTED_EDGE('',*,*,#232,.F.);
#179=ORIENTED_EDGE('',*,*,#288,.T.);
#180=ORIENTED_EDGE('',*,*,#289,.T.);
#181=ORIENTED_EDGE('',*,*,#218,.T.);
#182=ORIENTED_EDGE('',*,*,#289,.F.);
#183=ORIENTED_EDGE('',*,*,#290,.T.);
#184=ORIENTED_EDGE('',*,*,#273,.F.);
#185=ORIENTED_EDGE('',*,*,#291,.T.);
#186=ORIENTED_EDGE('',*,*,#276,.T.);
#187=ORIENTED_EDGE('',*,*,#280,.T.);
#188=ORIENTED_EDGE('',*,*,#282,.F.);
#189=ORIENTED_EDGE('',*,*,#292,.T.);
#190=ORIENTED_EDGE('',*,*,#283,.F.);
#191=ORIENTED_EDGE('',*,*,#293,.T.);
#192=ORIENTED_EDGE('',*,*,#286,.T.);
#193=ORIENTED_EDGE('',*,*,#219,.T.);
#194=ORIENTED_EDGE('',*,*,#290,.F.);
#195=ORIENTED_EDGE('',*,*,#288,.F.);
#196=ORIENTED_EDGE('',*,*,#231,.F.);
#197=ORIENTED_EDGE('',*,*,#274,.F.);
#198=ORIENTED_EDGE('',*,*,#291,.F.);
#199=ORIENTED_EDGE('',*,*,#275,.F.);
#200=ORIENTED_EDGE('',*,*,#251,.F.);
#201=ORIENTED_EDGE('',*,*,#277,.F.);
#202=ORIENTED_EDGE('',*,*,#292,.F.);
#203=ORIENTED_EDGE('',*,*,#281,.F.);
#204=ORIENTED_EDGE('',*,*,#247,.F.);
#205=ORIENTED_EDGE('',*,*,#284,.F.);
#206=ORIENTED_EDGE('',*,*,#293,.F.);
#207=ORIENTED_EDGE('',*,*,#285,.F.);
#208=ORIENTED_EDGE('',*,*,#245,.F.);
#209=ORIENTED_EDGE('',*,*,#287,.F.);
#210=EDGE_CURVE('',#294,#295,#350,.T.);
#211=EDGE_CURVE('',#294,#296,#351,.T.);
#212=EDGE_CURVE('',#296,#297,#352,.T.);
#213=EDGE_CURVE('',#297,#298,#353,.T.);
#214=EDGE_CURVE('',#299,#298,#354,.T.);
#215=EDGE_CURVE('',#300,#299,#355,.T.);
#216=EDGE_CURVE('',#300,#301,#356,.T.);
#217=EDGE_CURVE('',#301,#295,#357,.T.);
#218=EDGE_CURVE('',#302,#303,#358,.T.);
#219=EDGE_CURVE('',#304,#302,#359,.T.);
#220=EDGE_CURVE('',#304,#305,#360,.T.);
#221=EDGE_CURVE('',#306,#305,#361,.T.);
#222=EDGE_CURVE('',#307,#306,#362,.T.);
#223=EDGE_CURVE('',#307,#308,#363,.T.);
#224=EDGE_CURVE('',#308,#309,#364,.T.);
#225=EDGE_CURVE('',#303,#309,#365,.T.);
#226=EDGE_CURVE('',#306,#301,#366,.T.);
#227=EDGE_CURVE('',#307,#300,#367,.T.);
#228=EDGE_CURVE('',#309,#298,#368,.T.);
#229=EDGE_CURVE('',#308,#299,#369,.T.);
#230=EDGE_CURVE('',#310,#311,#370,.T.);
#231=EDGE_CURVE('',#311,#312,#22,.F.);
#232=EDGE_CURVE('',#312,#303,#371,.T.);
#233=EDGE_CURVE('',#313,#297,#372,.T.);
#234=EDGE_CURVE('',#313,#314,#23,.F.);
#235=EDGE_CURVE('',#315,#314,#373,.T.);
#236=EDGE_CURVE('',#315,#316,#24,.F.);
#237=EDGE_CURVE('',#316,#317,#374,.T.);
#238=EDGE_CURVE('',#317,#318,#25,.T.);
#239=EDGE_CURVE('',#319,#318,#375,.T.);
#240=EDGE_CURVE('',#319,#320,#26,.F.);
#241=EDGE_CURVE('',#321,#320,#376,.T.);
#242=EDGE_CURVE('',#321,#322,#27,.F.);
#243=EDGE_CURVE('',#322,#295,#377,.T.);
#244=EDGE_CURVE('',#323,#305,#378,.T.);
#245=EDGE_CURVE('',#323,#324,#28,.F.);
#246=EDGE_CURVE('',#324,#325,#379,.T.);
#247=EDGE_CURVE('',#325,#326,#29,.F.);
#248=EDGE_CURVE('',#326,#327,#380,.T.);
#249=EDGE_CURVE('',#328,#327,#30,.T.);
#250=EDGE_CURVE('',#329,#328,#381,.T.);
#251=EDGE_CURVE('',#329,#310,#31,.F.);
#252=EDGE_CURVE('',#314,#330,#382,.F.);
#253=EDGE_CURVE('',#331,#330,#383,.T.);
#254=EDGE_CURVE('',#331,#315,#384,.T.);
#255=EDGE_CURVE('',#332,#296,#385,.T.);
#256=EDGE_CURVE('',#332,#313,#386,.T.);
#257=EDGE_CURVE('',#322,#333,#387,.F.);
#258=EDGE_CURVE('',#333,#294,#388,.T.);
#259=EDGE_CURVE('',#320,#334,#389,.F.);
#260=EDGE_CURVE('',#335,#334,#390,.T.);
#261=EDGE_CURVE('',#335,#321,#391,.T.);
#262=EDGE_CURVE('',#336,#337,#392,.T.);
#263=EDGE_CURVE('',#336,#319,#393,.T.);
#264=EDGE_CURVE('',#337,#318,#394,.T.);
#265=EDGE_CURVE('',#338,#317,#395,.T.);
#266=EDGE_CURVE('',#338,#337,#32,.T.);
#267=EDGE_CURVE('',#316,#339,#396,.F.);
#268=EDGE_CURVE('',#339,#338,#397,.T.);
#269=EDGE_CURVE('',#330,#332,#33,.T.);
#270=EDGE_CURVE('',#333,#335,#34,.T.);
#271=EDGE_CURVE('',#334,#336,#35,.T.);
#272=EDGE_CURVE('',#339,#331,#36,.T.);
#273=EDGE_CURVE('',#340,#341,#398,.T.);
#274=EDGE_CURVE('',#341,#311,#399,.T.);
#275=EDGE_CURVE('',#310,#340,#400,.F.);
#276=EDGE_CURVE('',#342,#343,#401,.T.);
#277=EDGE_CURVE('',#342,#329,#402,.T.);
#278=EDGE_CURVE('',#343,#328,#403,.T.);
#279=EDGE_CURVE('',#344,#327,#404,.T.);
#280=EDGE_CURVE('',#343,#344,#37,.T.);
#281=EDGE_CURVE('',#326,#345,#405,.F.);
#282=EDGE_CURVE('',#345,#344,#406,.T.);
#283=EDGE_CURVE('',#346,#347,#407,.T.);
#284=EDGE_CURVE('',#347,#325,#408,.T.);
#285=EDGE_CURVE('',#324,#346,#409,.F.);
#286=EDGE_CURVE('',#348,#304,#410,.T.);
#287=EDGE_CURVE('',#348,#323,#411,.T.);
#288=EDGE_CURVE('',#312,#349,#412,.F.);
#289=EDGE_CURVE('',#349,#302,#413,.T.);
#290=EDGE_CURVE('',#349,#341,#38,.T.);
#291=EDGE_CURVE('',#340,#342,#39,.T.);
#292=EDGE_CURVE('',#345,#347,#40,.T.);
#293=EDGE_CURVE('',#346,#348,#41,.T.);
#294=VERTEX_POINT('',#820);
#295=VERTEX_POINT('',#821);
#296=VERTEX_POINT('',#823);
#297=VERTEX_POINT('',#825);
#298=VERTEX_POINT('',#827);
#299=VERTEX_POINT('',#829);
#300=VERTEX_POINT('',#831);
#301=VERTEX_POINT('',#833);
#302=VERTEX_POINT('',#837);
#303=VERTEX_POINT('',#838);
#304=VERTEX_POINT('',#840);
#305=VERTEX_POINT('',#842);
#306=VERTEX_POINT('',#844);
#307=VERTEX_POINT('',#846);
#308=VERTEX_POINT('',#848);
#309=VERTEX_POINT('',#850);
#310=VERTEX_POINT('',#861);
#311=VERTEX_POINT('',#862);
#312=VERTEX_POINT('',#864);
#313=VERTEX_POINT('',#867);
#314=VERTEX_POINT('',#869);
#315=VERTEX_POINT('',#871);
#316=VERTEX_POINT('',#873);
#317=VERTEX_POINT('',#875);
#318=VERTEX_POINT('',#877);
#319=VERTEX_POINT('',#879);
#320=VERTEX_POINT('',#881);
#321=VERTEX_POINT('',#883);
#322=VERTEX_POINT('',#885);
#323=VERTEX_POINT('',#888);
#324=VERTEX_POINT('',#890);
#325=VERTEX_POINT('',#892);
#326=VERTEX_POINT('',#894);
#327=VERTEX_POINT('',#896);
#328=VERTEX_POINT('',#898);
#329=VERTEX_POINT('',#900);
#330=VERTEX_POINT('',#904);
#331=VERTEX_POINT('',#906);
#332=VERTEX_POINT('',#910);
#333=VERTEX_POINT('',#914);
#334=VERTEX_POINT('',#918);
#335=VERTEX_POINT('',#920);
#336=VERTEX_POINT('',#924);
#337=VERTEX_POINT('',#925);
#338=VERTEX_POINT('',#930);
#339=VERTEX_POINT('',#934);
#340=VERTEX_POINT('',#947);
#341=VERTEX_POINT('',#948);
#342=VERTEX_POINT('',#953);
#343=VERTEX_POINT('',#954);
#344=VERTEX_POINT('',#959);
#345=VERTEX_POINT('',#963);
#346=VERTEX_POINT('',#967);
#347=VERTEX_POINT('',#968);
#348=VERTEX_POINT('',#973);
#349=VERTEX_POINT('',#977);
#350=LINE('',#819,#414);
#351=LINE('',#822,#415);
#352=LINE('',#824,#416);
#353=LINE('',#826,#417);
#354=LINE('',#828,#418);
#355=LINE('',#830,#419);
#356=LINE('',#832,#420);
#357=LINE('',#834,#421);
#358=LINE('',#836,#422);
#359=LINE('',#839,#423);
#360=LINE('',#841,#424);
#361=LINE('',#843,#425);
#362=LINE('',#845,#426);
#363=LINE('',#847,#427);
#364=LINE('',#849,#428);
#365=LINE('',#851,#429);
#366=LINE('',#853,#430);
#367=LINE('',#854,#431);
#368=LINE('',#856,#432);
#369=LINE('',#857,#433);
#370=LINE('',#860,#434);
#371=LINE('',#865,#435);
#372=LINE('',#866,#436);
#373=LINE('',#870,#437);
#374=LINE('',#874,#438);
#375=LINE('',#878,#439);
#376=LINE('',#882,#440);
#377=LINE('',#886,#441);
#378=LINE('',#887,#442);
#379=LINE('',#891,#443);
#380=LINE('',#895,#444);
#381=LINE('',#899,#445);
#382=LINE('',#903,#446);
#383=LINE('',#905,#447);
#384=LINE('',#907,#448);
#385=LINE('',#909,#449);
#386=LINE('',#911,#450);
#387=LINE('',#913,#451);
#388=LINE('',#915,#452);
#389=LINE('',#917,#453);
#390=LINE('',#919,#454);
#391=LINE('',#921,#455);
#392=LINE('',#923,#456);
#393=LINE('',#926,#457);
#394=LINE('',#927,#458);
#395=LINE('',#929,#459);
#396=LINE('',#933,#460);
#397=LINE('',#935,#461);
#398=LINE('',#946,#462);
#399=LINE('',#949,#463);
#400=LINE('',#950,#464);
#401=LINE('',#952,#465);
#402=LINE('',#955,#466);
#403=LINE('',#956,#467);
#404=LINE('',#958,#468);
#405=LINE('',#962,#469);
#406=LINE('',#964,#470);
#407=LINE('',#966,#471);
#408=LINE('',#969,#472);
#409=LINE('',#970,#473);
#410=LINE('',#972,#474);
#411=LINE('',#974,#475);
#412=LINE('',#976,#476);
#413=LINE('',#978,#477);
#414=VECTOR('',#655,1.);
#415=VECTOR('',#656,1.);
#416=VECTOR('',#657,1.);
#417=VECTOR('',#658,1.);
#418=VECTOR('',#659,1.);
#419=VECTOR('',#660,1.);
#420=VECTOR('',#661,1.);
#421=VECTOR('',#662,1.);
#422=VECTOR('',#665,1.);
#423=VECTOR('',#666,1.);
#424=VECTOR('',#667,1.);
#425=VECTOR('',#668,1.);
#426=VECTOR('',#669,1.);
#427=VECTOR('',#670,1.);
#428=VECTOR('',#671,1.);
#429=VECTOR('',#672,1.);
#430=VECTOR('',#675,1.);
#431=VECTOR('',#676,1.);
#432=VECTOR('',#679,1.);
#433=VECTOR('',#680,1.);
#434=VECTOR('',#685,1.);
#435=VECTOR('',#688,1.);
#436=VECTOR('',#689,1.);
#437=VECTOR('',#692,1.);
#438=VECTOR('',#695,1.);
#439=VECTOR('',#698,1.);
#440=VECTOR('',#701,1.);
#441=VECTOR('',#704,1.);
#442=VECTOR('',#705,1.);
#443=VECTOR('',#708,1.);
#444=VECTOR('',#711,1.);
#445=VECTOR('',#714,1.);
#446=VECTOR('',#719,1.);
#447=VECTOR('',#720,1.);
#448=VECTOR('',#721,1.);
#449=VECTOR('',#724,1.);
#450=VECTOR('',#725,1.);
#451=VECTOR('',#728,1.);
#452=VECTOR('',#729,1.);
#453=VECTOR('',#732,1.);
#454=VECTOR('',#733,1.);
#455=VECTOR('',#734,1.);
#456=VECTOR('',#737,1.);
#457=VECTOR('',#738,1.);
#458=VECTOR('',#739,1.);
#459=VECTOR('',#742,1.);
#460=VECTOR('',#747,1.);
#461=VECTOR('',#748,1.);
#462=VECTOR('',#769,1.);
#463=VECTOR('',#770,1.);
#464=VECTOR('',#771,1.);
#465=VECTOR('',#774,1.);
#466=VECTOR('',#775,1.);
#467=VECTOR('',#776,1.);
#468=VECTOR('',#779,1.);
#469=VECTOR('',#784,1.);
#470=VECTOR('',#785,1.);
#471=VECTOR('',#788,1.);
#472=VECTOR('',#789,1.);
#473=VECTOR('',#790,1.);
#474=VECTOR('',#793,1.);
#475=VECTOR('',#794,1.);
#476=VECTOR('',#797,1.);
#477=VECTOR('',#798,1.);
#478=EDGE_LOOP('',(#42,#43,#44,#45,#46,#47,#48,#49));
#479=EDGE_LOOP('',(#50,#51,#52,#53,#54,#55,#56,#57));
#480=EDGE_LOOP('',(#58,#59,#60,#61));
#481=EDGE_LOOP('',(#62,#63,#64,#65));
#482=EDGE_LOOP('',(#66,#67,#68,#69));
#483=EDGE_LOOP('',(#70,#71,#72,#73,#74,#75,#76,#77,#78,#79,#80,#81,#82,
#83,#84,#85,#86,#87,#88,#89,#90,#91,#92,#93,#94,#95,#96,#97));
#484=EDGE_LOOP('',(#98,#99,#100,#101));
#485=EDGE_LOOP('',(#102,#103,#104,#105));
#486=EDGE_LOOP('',(#106,#107,#108,#109));
#487=EDGE_LOOP('',(#110,#111,#112,#113));
#488=EDGE_LOOP('',(#114,#115,#116,#117));
#489=EDGE_LOOP('',(#118,#119,#120,#121));
#490=EDGE_LOOP('',(#122,#123,#124,#125));
#491=EDGE_LOOP('',(#126,#127,#128,#129,#130,#131,#132,#133,#134,#135,#136,
#137));
#492=EDGE_LOOP('',(#138,#139,#140,#141));
#493=EDGE_LOOP('',(#142,#143,#144,#145));
#494=EDGE_LOOP('',(#146,#147,#148,#149));
#495=EDGE_LOOP('',(#150,#151,#152,#153));
#496=EDGE_LOOP('',(#154,#155,#156,#157));
#497=EDGE_LOOP('',(#158,#159,#160,#161));
#498=EDGE_LOOP('',(#162,#163,#164,#165));
#499=EDGE_LOOP('',(#166,#167,#168,#169));
#500=EDGE_LOOP('',(#170,#171,#172,#173));
#501=EDGE_LOOP('',(#174,#175,#176,#177));
#502=EDGE_LOOP('',(#178,#179,#180,#181));
#503=EDGE_LOOP('',(#182,#183,#184,#185,#186,#187,#188,#189,#190,#191,#192,
#193));
#504=EDGE_LOOP('',(#194,#195,#196,#197));
#505=EDGE_LOOP('',(#198,#199,#200,#201));
#506=EDGE_LOOP('',(#202,#203,#204,#205));
#507=EDGE_LOOP('',(#206,#207,#208,#209));
#508=FACE_BOUND('',#478,.T.);
#509=FACE_BOUND('',#479,.T.);
#510=FACE_BOUND('',#480,.T.);
#511=FACE_BOUND('',#481,.T.);
#512=FACE_BOUND('',#482,.T.);
#513=FACE_BOUND('',#483,.T.);
#514=FACE_BOUND('',#484,.T.);
#515=FACE_BOUND('',#485,.T.);
#516=FACE_BOUND('',#486,.T.);
#517=FACE_BOUND('',#487,.T.);
#518=FACE_BOUND('',#488,.T.);
#519=FACE_BOUND('',#489,.T.);
#520=FACE_BOUND('',#490,.T.);
#521=FACE_BOUND('',#491,.T.);
#522=FACE_BOUND('',#492,.T.);
#523=FACE_BOUND('',#493,.T.);
#524=FACE_BOUND('',#494,.T.);
#525=FACE_BOUND('',#495,.T.);
#526=FACE_BOUND('',#496,.T.);
#527=FACE_BOUND('',#497,.T.);
#528=FACE_BOUND('',#498,.T.);
#529=FACE_BOUND('',#499,.T.);
#530=FACE_BOUND('',#500,.T.);
#531=FACE_BOUND('',#501,.T.);
#532=FACE_BOUND('',#502,.T.);
#533=FACE_BOUND('',#503,.T.);
#534=FACE_BOUND('',#504,.T.);
#535=FACE_BOUND('',#505,.T.);
#536=FACE_BOUND('',#506,.T.);
#537=FACE_BOUND('',#507,.T.);
#538=PLANE('',#601);
#539=PLANE('',#602);
#540=PLANE('',#603);
#541=PLANE('',#604);
#542=PLANE('',#605);
#543=PLANE('',#606);
#544=PLANE('',#617);
#545=PLANE('',#618);
#546=PLANE('',#619);
#547=PLANE('',#620);
#548=PLANE('',#621);
#549=PLANE('',#624);
#550=PLANE('',#625);
#551=PLANE('',#634);
#552=PLANE('',#635);
#553=PLANE('',#638);
#554=PLANE('',#639);
#555=PLANE('',#640);
#556=PLANE('',#641);
#557=PLANE('',#642);
#558=ADVANCED_FACE('',(#508),#538,.F.);
#559=ADVANCED_FACE('',(#509),#539,.T.);
#560=ADVANCED_FACE('',(#510),#540,.F.);
#561=ADVANCED_FACE('',(#511),#541,.T.);
#562=ADVANCED_FACE('',(#512),#542,.T.);
#563=ADVANCED_FACE('',(#513),#543,.F.);
#564=ADVANCED_FACE('',(#514),#544,.F.);
#565=ADVANCED_FACE('',(#515),#545,.F.);
#566=ADVANCED_FACE('',(#516),#546,.T.);
#567=ADVANCED_FACE('',(#517),#547,.F.);
#568=ADVANCED_FACE('',(#518),#548,.F.);
#569=ADVANCED_FACE('',(#519),#12,.F.);
#570=ADVANCED_FACE('',(#520),#549,.T.);
#571=ADVANCED_FACE('',(#521),#550,.T.);
#572=ADVANCED_FACE('',(#522),#13,.T.);
#573=ADVANCED_FACE('',(#523),#14,.T.);
#574=ADVANCED_FACE('',(#524),#15,.T.);
#575=ADVANCED_FACE('',(#525),#16,.T.);
#576=ADVANCED_FACE('',(#526),#551,.T.);
#577=ADVANCED_FACE('',(#527),#552,.F.);
#578=ADVANCED_FACE('',(#528),#17,.F.);
#579=ADVANCED_FACE('',(#529),#553,.T.);
#580=ADVANCED_FACE('',(#530),#554,.T.);
#581=ADVANCED_FACE('',(#531),#555,.F.);
#582=ADVANCED_FACE('',(#532),#556,.T.);
#583=ADVANCED_FACE('',(#533),#557,.T.);
#584=ADVANCED_FACE('',(#534),#18,.T.);
#585=ADVANCED_FACE('',(#535),#19,.T.);
#586=ADVANCED_FACE('',(#536),#20,.T.);
#587=ADVANCED_FACE('',(#537),#21,.T.);
#588=CLOSED_SHELL('',(#558,#559,#560,#561,#562,#563,#564,#565,#566,#567,
#568,#569,#570,#571,#572,#573,#574,#575,#576,#577,#578,#579,#580,#581,#582,
#583,#584,#585,#586,#587));
#589=STYLED_ITEM('',(#590),#597);
#590=PRESENTATION_STYLE_ASSIGNMENT((#591));
#591=SURFACE_STYLE_USAGE(.BOTH.,#592);
#592=SURFACE_SIDE_STYLE('',(#593));
#593=SURFACE_STYLE_FILL_AREA(#594);
#594=FILL_AREA_STYLE('',(#595));
#595=FILL_AREA_STYLE_COLOUR('',#596);
#596=COLOUR_RGB('',0.301960784313725,0.301960784313725,0.301960784313725);
#597=MANIFOLD_SOLID_BREP('Part 1',#588);
#598=SHAPE_DEFINITION_REPRESENTATION(#994,#599);
#599=SHAPE_REPRESENTATION('Part 1',(#600),#989);
#600=AXIS2_PLACEMENT_3D('',#817,#651,#652);
#601=AXIS2_PLACEMENT_3D('',#818,#653,#654);
#602=AXIS2_PLACEMENT_3D('',#835,#663,#664);
#603=AXIS2_PLACEMENT_3D('',#852,#673,#674);
#604=AXIS2_PLACEMENT_3D('',#855,#677,#678);
#605=AXIS2_PLACEMENT_3D('',#858,#681,#682);
#606=AXIS2_PLACEMENT_3D('',#859,#683,#684);
#607=AXIS2_PLACEMENT_3D('',#863,#686,#687);
#608=AXIS2_PLACEMENT_3D('',#868,#690,#691);
#609=AXIS2_PLACEMENT_3D('',#872,#693,#694);
#610=AXIS2_PLACEMENT_3D('',#876,#696,#697);
#611=AXIS2_PLACEMENT_3D('',#880,#699,#700);
#612=AXIS2_PLACEMENT_3D('',#884,#702,#703);
#613=AXIS2_PLACEMENT_3D('',#889,#706,#707);
#614=AXIS2_PLACEMENT_3D('',#893,#709,#710);
#615=AXIS2_PLACEMENT_3D('',#897,#712,#713);
#616=AXIS2_PLACEMENT_3D('',#901,#715,#716);
#617=AXIS2_PLACEMENT_3D('',#902,#717,#718);
#618=AXIS2_PLACEMENT_3D('',#908,#722,#723);
#619=AXIS2_PLACEMENT_3D('',#912,#726,#727);
#620=AXIS2_PLACEMENT_3D('',#916,#730,#731);
#621=AXIS2_PLACEMENT_3D('',#922,#735,#736);
#622=AXIS2_PLACEMENT_3D('',#928,#740,#741);
#623=AXIS2_PLACEMENT_3D('',#931,#743,#744);
#624=AXIS2_PLACEMENT_3D('',#932,#745,#746);
#625=AXIS2_PLACEMENT_3D('',#936,#749,#750);
#626=AXIS2_PLACEMENT_3D('',#937,#751,#752);
#627=AXIS2_PLACEMENT_3D('',#938,#753,#754);
#628=AXIS2_PLACEMENT_3D('',#939,#755,#756);
#629=AXIS2_PLACEMENT_3D('',#940,#757,#758);
#630=AXIS2_PLACEMENT_3D('',#941,#759,#760);
#631=AXIS2_PLACEMENT_3D('',#942,#761,#762);
#632=AXIS2_PLACEMENT_3D('',#943,#763,#764);
#633=AXIS2_PLACEMENT_3D('',#944,#765,#766);
#634=AXIS2_PLACEMENT_3D('',#945,#767,#768);
#635=AXIS2_PLACEMENT_3D('',#951,#772,#773);
#636=AXIS2_PLACEMENT_3D('',#957,#777,#778);
#637=AXIS2_PLACEMENT_3D('',#960,#780,#781);
#638=AXIS2_PLACEMENT_3D('',#961,#782,#783);
#639=AXIS2_PLACEMENT_3D('',#965,#786,#787);
#640=AXIS2_PLACEMENT_3D('',#971,#791,#792);
#641=AXIS2_PLACEMENT_3D('',#975,#795,#796);
#642=AXIS2_PLACEMENT_3D('',#979,#799,#800);
#643=AXIS2_PLACEMENT_3D('',#980,#801,#802);
#644=AXIS2_PLACEMENT_3D('',#981,#803,#804);
#645=AXIS2_PLACEMENT_3D('',#982,#805,#806);
#646=AXIS2_PLACEMENT_3D('',#983,#807,#808);
#647=AXIS2_PLACEMENT_3D('',#984,#809,#810);
#648=AXIS2_PLACEMENT_3D('',#985,#811,#812);
#649=AXIS2_PLACEMENT_3D('',#986,#813,#814);
#650=AXIS2_PLACEMENT_3D('',#987,#815,#816);
#651=DIRECTION('',(0.,0.,1.));
#652=DIRECTION('',(1.,0.,0.));
#653=DIRECTION('',(1.,0.,0.));
#654=DIRECTION('',(0.,-1.,0.));
#655=DIRECTION('',(0.,-1.,0.));
#656=DIRECTION('',(0.,0.,1.));
#657=DIRECTION('',(0.,-1.,0.));
#658=DIRECTION('',(0.,0.,1.));
#659=DIRECTION('',(0.,-1.,0.));
#660=DIRECTION('',(0.,0.,1.));
#661=DIRECTION('',(0.,-1.,0.));
#662=DIRECTION('',(0.,0.,1.));
#663=DIRECTION('',(1.,0.,0.));
#664=DIRECTION('',(0.,-1.,0.));
#665=DIRECTION('',(0.,-1.,0.));
#666=DIRECTION('',(0.,0.,1.));
#667=DIRECTION('',(0.,-1.,0.));
#668=DIRECTION('',(0.,0.,1.));
#669=DIRECTION('',(0.,-1.,0.));
#670=DIRECTION('',(0.,0.,1.));
#671=DIRECTION('',(0.,-1.,0.));
#672=DIRECTION('',(0.,0.,1.));
#673=DIRECTION('',(0.,0.,1.));
#674=DIRECTION('',(0.,-1.,0.));
#675=DIRECTION('',(-1.,0.,0.));
#676=DIRECTION('',(-1.,0.,0.));
#677=DIRECTION('',(0.,0.,1.));
#678=DIRECTION('',(0.,-1.,0.));
#679=DIRECTION('',(-1.,0.,0.));
#680=DIRECTION('',(-1.,0.,0.));
#681=DIRECTION('',(0.,1.,0.));
#682=DIRECTION('',(1.,0.,0.));
#683=DIRECTION('',(0.,1.,0.));
#684=DIRECTION('',(1.,0.,0.));
#685=DIRECTION('',(0.,0.,1.));
#686=DIRECTION('',(0.,1.,0.));
#687=DIRECTION('',(1.,0.,0.));
#688=DIRECTION('',(-0.985127563031391,0.,0.171824574947336));
#689=DIRECTION('',(0.985127563031391,0.,0.171824574947336));
#690=DIRECTION('',(0.,1.,0.));
#691=DIRECTION('',(1.,0.,0.));
#692=DIRECTION('',(0.,0.,1.));
#693=DIRECTION('',(0.,1.,0.));
#694=DIRECTION('',(1.,0.,0.));
#695=DIRECTION('',(1.,0.,-4.86371068030881E-16));
#696=DIRECTION('',(0.,1.,0.));
#697=DIRECTION('',(1.,0.,0.));
#698=DIRECTION('',(1.,0.,0.));
#699=DIRECTION('',(0.,1.,0.));
#700=DIRECTION('',(1.,0.,0.));
#701=DIRECTION('',(0.,0.,1.));
#702=DIRECTION('',(0.,1.,0.));
#703=DIRECTION('',(1.,0.,0.));
#704=DIRECTION('',(0.985127563031391,0.,-0.171824574947336));
#705=DIRECTION('',(-0.985127563031391,0.,-0.171824574947336));
#706=DIRECTION('',(0.,1.,0.));
#707=DIRECTION('',(1.,0.,0.));
#708=DIRECTION('',(0.,0.,1.));
#709=DIRECTION('',(0.,1.,0.));
#710=DIRECTION('',(1.,0.,0.));
#711=DIRECTION('',(-1.,0.,0.));
#712=DIRECTION('',(0.,-1.,0.));
#713=DIRECTION('',(-1.,0.,0.));
#714=DIRECTION('',(-1.,0.,-4.86371068030881E-16));
#715=DIRECTION('',(0.,1.,0.));
#716=DIRECTION('',(1.,0.,0.));
#717=DIRECTION('',(1.,0.,0.));
#718=DIRECTION('',(0.,-1.,0.));
#719=DIRECTION('',(0.,-1.,0.));
#720=DIRECTION('',(0.,0.,1.));
#721=DIRECTION('',(0.,-1.,0.));
#722=DIRECTION('',(0.171824574947336,0.,-0.985127563031391));
#723=DIRECTION('',(-0.985127563031391,0.,-0.171824574947336));
#724=DIRECTION('',(0.985127563031391,0.,0.171824574947336));
#725=DIRECTION('',(0.,-1.,0.));
#726=DIRECTION('',(-0.171824574947336,0.,-0.985127563031391));
#727=DIRECTION('',(-0.985127563031391,0.,0.171824574947336));
#728=DIRECTION('',(0.,-1.,0.));
#729=DIRECTION('',(0.985127563031391,0.,-0.171824574947336));
#730=DIRECTION('',(1.,0.,0.));
#731=DIRECTION('',(0.,-1.,0.));
#732=DIRECTION('',(0.,-1.,0.));
#733=DIRECTION('',(0.,0.,1.));
#734=DIRECTION('',(0.,-1.,0.));
#735=DIRECTION('',(0.,0.,-1.));
#736=DIRECTION('',(0.,1.,0.));
#737=DIRECTION('',(1.,0.,0.));
#738=DIRECTION('',(0.,-1.,0.));
#739=DIRECTION('',(0.,-1.,0.));
#740=DIRECTION('',(0.,-1.,0.));
#741=DIRECTION('',(-1.,0.,0.));
#742=DIRECTION('',(0.,-1.,0.));
#743=DIRECTION('',(0.,1.,0.));
#744=DIRECTION('',(1.,0.,0.));
#745=DIRECTION('',(-4.86371068030881E-16,0.,-1.));
#746=DIRECTION('',(-1.,0.,4.86371068030881E-16));
#747=DIRECTION('',(0.,-1.,0.));
#748=DIRECTION('',(1.,0.,-4.86371068030881E-16));
#749=DIRECTION('',(0.,1.,0.));
#750=DIRECTION('',(1.,0.,0.));
#751=DIRECTION('',(0.,1.,0.));
#752=DIRECTION('',(1.,0.,0.));
#753=DIRECTION('',(0.,1.,0.));
#754=DIRECTION('',(1.,0.,0.));
#755=DIRECTION('',(0.,1.,0.));
#756=DIRECTION('',(1.,0.,0.));
#757=DIRECTION('',(0.,1.,0.));
#758=DIRECTION('',(1.,0.,0.));
#759=DIRECTION('',(0.,-1.,0.));
#760=DIRECTION('',(-1.,0.,0.));
#761=DIRECTION('',(0.,1.,0.));
#762=DIRECTION('',(1.,0.,0.));
#763=DIRECTION('',(0.,-1.,0.));
#764=DIRECTION('',(-1.,0.,0.));
#765=DIRECTION('',(0.,1.,0.));
#766=DIRECTION('',(1.,0.,0.));
#767=DIRECTION('',(1.,0.,0.));
#768=DIRECTION('',(0.,-1.,0.));
#769=DIRECTION('',(0.,0.,1.));
#770=DIRECTION('',(0.,-1.,0.));
#771=DIRECTION('',(0.,-1.,0.));
#772=DIRECTION('',(-4.86371068030881E-16,0.,1.));
#773=DIRECTION('',(1.,0.,4.86371068030881E-16));
#774=DIRECTION('',(-1.,0.,-4.86371068030881E-16));
#775=DIRECTION('',(0.,-1.,0.));
#776=DIRECTION('',(0.,-1.,0.));
#777=DIRECTION('',(0.,-1.,0.));
#778=DIRECTION('',(-1.,0.,0.));
#779=DIRECTION('',(0.,-1.,0.));
#780=DIRECTION('',(0.,-1.,0.));
#781=DIRECTION('',(-1.,0.,0.));
#782=DIRECTION('',(0.,0.,1.));
#783=DIRECTION('',(0.,-1.,0.));
#784=DIRECTION('',(0.,-1.,0.));
#785=DIRECTION('',(-1.,0.,0.));
#786=DIRECTION('',(1.,0.,0.));
#787=DIRECTION('',(0.,-1.,0.));
#788=DIRECTION('',(0.,0.,1.));
#789=DIRECTION('',(0.,-1.,0.));
#790=DIRECTION('',(0.,-1.,0.));
#791=DIRECTION('',(-0.171824574947336,0.,0.985127563031391));
#792=DIRECTION('',(0.985127563031391,0.,0.171824574947336));
#793=DIRECTION('',(-0.985127563031391,0.,-0.171824574947336));
#794=DIRECTION('',(0.,-1.,0.));
#795=DIRECTION('',(0.171824574947336,0.,0.985127563031391));
#796=DIRECTION('',(0.985127563031391,0.,-0.171824574947336));
#797=DIRECTION('',(0.,-1.,0.));
#798=DIRECTION('',(-0.985127563031391,0.,0.171824574947336));
#799=DIRECTION('',(0.,1.,0.));
#800=DIRECTION('',(-1.,0.,0.));
#801=DIRECTION('',(0.,1.,0.));
#802=DIRECTION('',(1.,0.,0.));
#803=DIRECTION('',(0.,1.,0.));
#804=DIRECTION('',(1.,0.,0.));
#805=DIRECTION('',(0.,1.,0.));
#806=DIRECTION('',(1.,0.,0.));
#807=DIRECTION('',(0.,1.,0.));
#808=DIRECTION('',(1.,0.,0.));
#809=DIRECTION('',(0.,-1.,0.));
#810=DIRECTION('',(-1.,0.,0.));
#811=DIRECTION('',(0.,1.,0.));
#812=DIRECTION('',(1.,0.,0.));
#813=DIRECTION('',(0.,-1.,0.));
#814=DIRECTION('',(-1.,0.,0.));
#815=DIRECTION('',(0.,1.,0.));
#816=DIRECTION('',(1.,0.,0.));
#817=CARTESIAN_POINT('',(0.,0.,0.));
#818=CARTESIAN_POINT('',(-0.023,0.014,3.46944695195361E-18));
#819=CARTESIAN_POINT('',(-0.023,0.004,-0.0065));
#820=CARTESIAN_POINT('',(-0.023,0.004,-0.0065));
#821=CARTESIAN_POINT('',(-0.023,0.,-0.0065));
#822=CARTESIAN_POINT('',(-0.023,0.004,0.));
#823=CARTESIAN_POINT('',(-0.023,0.004,0.0065));
#824=CARTESIAN_POINT('',(-0.023,0.004,0.0065));
#825=CARTESIAN_POINT('',(-0.023,0.,0.0065));
#826=CARTESIAN_POINT('',(-0.023,0.,3.46944695195361E-18));
#827=CARTESIAN_POINT('',(-0.023,0.,0.0135));
#828=CARTESIAN_POINT('',(-0.023,0.014,0.0135));
#829=CARTESIAN_POINT('',(-0.023,0.014,0.0135));
#830=CARTESIAN_POINT('',(-0.023,0.014,3.46944695195361E-18));
#831=CARTESIAN_POINT('',(-0.023,0.014,-0.0135));
#832=CARTESIAN_POINT('',(-0.023,0.014,-0.0135));
#833=CARTESIAN_POINT('',(-0.023,0.,-0.0135));
#834=CARTESIAN_POINT('',(-0.023,0.,3.46944695195361E-18));
#835=CARTESIAN_POINT('',(0.023,0.014,3.46944695195361E-18));
#836=CARTESIAN_POINT('',(0.023,0.004,0.0065));
#837=CARTESIAN_POINT('',(0.023,0.004,0.0065));
#838=CARTESIAN_POINT('',(0.023,0.,0.0065));
#839=CARTESIAN_POINT('',(0.023,0.004,0.));
#840=CARTESIAN_POINT('',(0.023,0.004,-0.0065));
#841=CARTESIAN_POINT('',(0.023,0.004,-0.0065));
#842=CARTESIAN_POINT('',(0.023,0.,-0.0065));
#843=CARTESIAN_POINT('',(0.023,0.,3.46944695195361E-18));
#844=CARTESIAN_POINT('',(0.023,0.,-0.0135));
#845=CARTESIAN_POINT('',(0.023,0.014,-0.0135));
#846=CARTESIAN_POINT('',(0.023,0.014,-0.0135));
#847=CARTESIAN_POINT('',(0.023,0.014,3.46944695195361E-18));
#848=CARTESIAN_POINT('',(0.023,0.014,0.0135));
#849=CARTESIAN_POINT('',(0.023,0.014,0.0135));
#850=CARTESIAN_POINT('',(0.023,0.,0.0135));
#851=CARTESIAN_POINT('',(0.023,0.,3.46944695195361E-18));
#852=CARTESIAN_POINT('',(3.46944695195361E-18,0.014,-0.0135));
#853=CARTESIAN_POINT('',(3.46944695195361E-18,0.,-0.0135));
#854=CARTESIAN_POINT('',(3.46944695195361E-18,0.014,-0.0135));
#855=CARTESIAN_POINT('',(0.,0.014,0.0135));
#856=CARTESIAN_POINT('',(0.,0.,0.0135));
#857=CARTESIAN_POINT('',(0.,0.014,0.0135));
#858=CARTESIAN_POINT('',(3.46944695195361E-18,0.014,0.));
#859=CARTESIAN_POINT('',(3.46944695195361E-18,0.,0.));
#860=CARTESIAN_POINT('',(0.0316,0.,0.0035));
#861=CARTESIAN_POINT('',(0.0316,0.,0.0035));
#862=CARTESIAN_POINT('',(0.0316,0.,0.00373898245851901));
#863=CARTESIAN_POINT('',(0.0301,0.,0.00373898245851901));
#864=CARTESIAN_POINT('',(0.030357736862421,0.,0.0052166738030661));
#865=CARTESIAN_POINT('',(0.0273,0.,0.00575));
#866=CARTESIAN_POINT('',(-0.0273,0.,0.00575));
#867=CARTESIAN_POINT('',(-0.030357736862421,0.,0.0052166738030661));
#868=CARTESIAN_POINT('',(-0.0301,0.,0.00373898245851901));
#869=CARTESIAN_POINT('',(-0.0316,0.,0.00373898245851901));
#870=CARTESIAN_POINT('',(-0.0316,0.,0.0035));
#871=CARTESIAN_POINT('',(-0.0316,0.,0.0035));
#872=CARTESIAN_POINT('',(-0.0301,0.,0.0035));
#873=CARTESIAN_POINT('',(-0.0301,0.,0.002));
#874=CARTESIAN_POINT('',(-0.028925,0.,0.002));
#875=CARTESIAN_POINT('',(-0.02625,0.,0.002));
#876=CARTESIAN_POINT('',(-0.02625,0.,8.67361737988404E-19));
#877=CARTESIAN_POINT('',(-0.02625,0.,-0.002));
#878=CARTESIAN_POINT('',(-0.028925,0.,-0.002));
#879=CARTESIAN_POINT('',(-0.0301,0.,-0.002));
#880=CARTESIAN_POINT('',(-0.0301,0.,-0.0035));
#881=CARTESIAN_POINT('',(-0.0316,0.,-0.0035));
#882=CARTESIAN_POINT('',(-0.0316,0.,-0.0035));
#883=CARTESIAN_POINT('',(-0.0316,0.,-0.00373898245851901));
#884=CARTESIAN_POINT('',(-0.0301,0.,-0.00373898245851901));
#885=CARTESIAN_POINT('',(-0.030357736862421,0.,-0.0052166738030661));
#886=CARTESIAN_POINT('',(-0.0273,0.,-0.00575));
#887=CARTESIAN_POINT('',(0.0273,0.,-0.00575));
#888=CARTESIAN_POINT('',(0.030357736862421,0.,-0.0052166738030661));
#889=CARTESIAN_POINT('',(0.0301,0.,-0.00373898245851901));
#890=CARTESIAN_POINT('',(0.0316,0.,-0.00373898245851901));
#891=CARTESIAN_POINT('',(0.0316,0.,-0.0035));
#892=CARTESIAN_POINT('',(0.0316,0.,-0.0035));
#893=CARTESIAN_POINT('',(0.0301,0.,-0.0035));
#894=CARTESIAN_POINT('',(0.0301,0.,-0.002));
#895=CARTESIAN_POINT('',(0.028925,0.,-0.002));
#896=CARTESIAN_POINT('',(0.02625,0.,-0.002));
#897=CARTESIAN_POINT('',(0.02625,0.,8.67361737988404E-19));
#898=CARTESIAN_POINT('',(0.02625,0.,0.002));
#899=CARTESIAN_POINT('',(0.028925,0.,0.002));
#900=CARTESIAN_POINT('',(0.0301,0.,0.002));
#901=CARTESIAN_POINT('',(0.0301,0.,0.0035));
#902=CARTESIAN_POINT('',(-0.0316,0.004,0.0035));
#903=CARTESIAN_POINT('',(-0.0316,0.004,0.00373898245851901));
#904=CARTESIAN_POINT('',(-0.0316,0.004,0.00373898245851901));
#905=CARTESIAN_POINT('',(-0.0316,0.004,0.0035));
#906=CARTESIAN_POINT('',(-0.0316,0.004,0.0035));
#907=CARTESIAN_POINT('',(-0.0316,0.,0.0035));
#908=CARTESIAN_POINT('',(-0.0273,0.004,0.00575));
#909=CARTESIAN_POINT('',(-0.0273,0.004,0.00575));
#910=CARTESIAN_POINT('',(-0.030357736862421,0.004,0.0052166738030661));
#911=CARTESIAN_POINT('',(-0.030357736862421,0.004,0.0052166738030661));
#912=CARTESIAN_POINT('',(-0.0273,0.004,-0.00575));
#913=CARTESIAN_POINT('',(-0.030357736862421,0.004,-0.0052166738030661));
#914=CARTESIAN_POINT('',(-0.030357736862421,0.004,-0.0052166738030661));
#915=CARTESIAN_POINT('',(-0.0273,0.004,-0.00575));
#916=CARTESIAN_POINT('',(-0.0316,0.004,-0.0035));
#917=CARTESIAN_POINT('',(-0.0316,0.004,-0.0035));
#918=CARTESIAN_POINT('',(-0.0316,0.004,-0.0035));
#919=CARTESIAN_POINT('',(-0.0316,0.004,-0.0035));
#920=CARTESIAN_POINT('',(-0.0316,0.004,-0.00373898245851901));
#921=CARTESIAN_POINT('',(-0.0316,0.,-0.00373898245851901));
#922=CARTESIAN_POINT('',(-0.028925,0.004,-0.002));
#923=CARTESIAN_POINT('',(-0.028925,0.004,-0.002));
#924=CARTESIAN_POINT('',(-0.0301,0.004,-0.002));
#925=CARTESIAN_POINT('',(-0.02625,0.004,-0.002));
#926=CARTESIAN_POINT('',(-0.0301,0.004,-0.002));
#927=CARTESIAN_POINT('',(-0.02625,0.004,-0.002));
#928=CARTESIAN_POINT('',(-0.02625,0.004,8.67361737988404E-19));
#929=CARTESIAN_POINT('',(-0.02625,0.004,0.002));
#930=CARTESIAN_POINT('',(-0.02625,0.004,0.002));
#931=CARTESIAN_POINT('',(-0.02625,0.004,8.67361737988404E-19));
#932=CARTESIAN_POINT('',(-0.028925,0.004,0.002));
#933=CARTESIAN_POINT('',(-0.0301,0.004,0.002));
#934=CARTESIAN_POINT('',(-0.0301,0.004,0.002));
#935=CARTESIAN_POINT('',(-0.028925,0.004,0.002));
#936=CARTESIAN_POINT('',(-0.0043,0.004,3.46944695195361E-18));
#937=CARTESIAN_POINT('',(-0.0301,0.004,0.00373898245851901));
#938=CARTESIAN_POINT('',(-0.0301,0.004,-0.00373898245851901));
#939=CARTESIAN_POINT('',(-0.0301,0.004,-0.0035));
#940=CARTESIAN_POINT('',(-0.0301,0.004,0.0035));
#941=CARTESIAN_POINT('',(-0.0301,0.004,0.00373898245851901));
#942=CARTESIAN_POINT('',(-0.0301,0.004,0.0035));
#943=CARTESIAN_POINT('',(-0.0301,0.004,-0.0035));
#944=CARTESIAN_POINT('',(-0.0301,0.004,-0.00373898245851901));
#945=CARTESIAN_POINT('',(0.0316,0.004,0.0035));
#946=CARTESIAN_POINT('',(0.0316,0.004,0.0035));
#947=CARTESIAN_POINT('',(0.0316,0.004,0.0035));
#948=CARTESIAN_POINT('',(0.0316,0.004,0.00373898245851901));
#949=CARTESIAN_POINT('',(0.0316,0.004,0.00373898245851901));
#950=CARTESIAN_POINT('',(0.0316,0.004,0.0035));
#951=CARTESIAN_POINT('',(0.028925,0.004,0.002));
#952=CARTESIAN_POINT('',(0.028925,0.004,0.002));
#953=CARTESIAN_POINT('',(0.0301,0.004,0.002));
#954=CARTESIAN_POINT('',(0.02625,0.004,0.002));
#955=CARTESIAN_POINT('',(0.0301,0.,0.002));
#956=CARTESIAN_POINT('',(0.02625,0.004,0.002));
#957=CARTESIAN_POINT('',(0.02625,0.004,8.67361737988404E-19));
#958=CARTESIAN_POINT('',(0.02625,0.004,-0.002));
#959=CARTESIAN_POINT('',(0.02625,0.004,-0.002));
#960=CARTESIAN_POINT('',(0.02625,0.004,8.67361737988404E-19));
#961=CARTESIAN_POINT('',(0.028925,0.004,-0.002));
#962=CARTESIAN_POINT('',(0.0301,0.004,-0.002));
#963=CARTESIAN_POINT('',(0.0301,0.004,-0.002));
#964=CARTESIAN_POINT('',(0.028925,0.004,-0.002));
#965=CARTESIAN_POINT('',(0.0316,0.004,-0.0035));
#966=CARTESIAN_POINT('',(0.0316,0.004,-0.0035));
#967=CARTESIAN_POINT('',(0.0316,0.004,-0.00373898245851901));
#968=CARTESIAN_POINT('',(0.0316,0.004,-0.0035));
#969=CARTESIAN_POINT('',(0.0316,0.004,-0.0035));
#970=CARTESIAN_POINT('',(0.0316,0.004,-0.00373898245851901));
#971=CARTESIAN_POINT('',(0.0273,0.004,-0.00575));
#972=CARTESIAN_POINT('',(0.0273,0.004,-0.00575));
#973=CARTESIAN_POINT('',(0.030357736862421,0.004,-0.0052166738030661));
#974=CARTESIAN_POINT('',(0.030357736862421,0.,-0.0052166738030661));
#975=CARTESIAN_POINT('',(0.0273,0.004,0.00575));
#976=CARTESIAN_POINT('',(0.030357736862421,0.004,0.0052166738030661));
#977=CARTESIAN_POINT('',(0.030357736862421,0.004,0.0052166738030661));
#978=CARTESIAN_POINT('',(0.0273,0.004,0.00575));
#979=CARTESIAN_POINT('',(0.0043,0.004,3.46944695195361E-18));
#980=CARTESIAN_POINT('',(0.0301,0.004,0.00373898245851901));
#981=CARTESIAN_POINT('',(0.0301,0.004,0.0035));
#982=CARTESIAN_POINT('',(0.0301,0.004,-0.0035));
#983=CARTESIAN_POINT('',(0.0301,0.004,-0.00373898245851901));
#984=CARTESIAN_POINT('',(0.0301,0.004,0.00373898245851901));
#985=CARTESIAN_POINT('',(0.0301,0.004,0.0035));
#986=CARTESIAN_POINT('',(0.0301,0.004,-0.0035));
#987=CARTESIAN_POINT('',(0.0301,0.004,-0.00373898245851901));
#988=MECHANICAL_DESIGN_GEOMETRIC_PRESENTATION_REPRESENTATION('',(#589),
#989);
#989=(
GEOMETRIC_REPRESENTATION_CONTEXT(3)
GLOBAL_UNCERTAINTY_ASSIGNED_CONTEXT((#990))
GLOBAL_UNIT_ASSIGNED_CONTEXT((#993,#992,#991))
REPRESENTATION_CONTEXT('Part 1','TOP_LEVEL_ASSEMBLY_PART')
);
#990=UNCERTAINTY_MEASURE_WITH_UNIT(LENGTH_MEASURE(1.E-8),#993,
'DISTANCE_ACCURACY_VALUE','Maximum Tolerance applied to model');
#991=(
NAMED_UNIT(*)
SI_UNIT($,.STERADIAN.)
SOLID_ANGLE_UNIT()
);
#992=(
NAMED_UNIT(*)
PLANE_ANGLE_UNIT()
SI_UNIT($,.RADIAN.)
);
#993=(
LENGTH_UNIT()
NAMED_UNIT(*)
SI_UNIT($,.METRE.)
);
#994=PRODUCT_DEFINITION_SHAPE('','',#995);
#995=PRODUCT_DEFINITION('','',#997,#996);
#996=PRODUCT_DEFINITION_CONTEXT('',#1003,'design');
#997=PRODUCT_DEFINITION_FORMATION_WITH_SPECIFIED_SOURCE('','',#999,
 .NOT_KNOWN.);
#998=PRODUCT_RELATED_PRODUCT_CATEGORY('','',(#999));
#999=PRODUCT('Part 1','Part 1','Part 1',(#1001));
#1000=PRODUCT_CATEGORY('','');
#1001=PRODUCT_CONTEXT('',#1003,'mechanical');
#1002=APPLICATION_PROTOCOL_DEFINITION('international standard',
'ap242_managed_model_based_3d_engineering',2020,#1003);
#1003=APPLICATION_CONTEXT('managed model based 3d engineering');
ENDSEC;
END-ISO-10303-21;
